<!--?xml version="1.0" encoding="utf-8"?-->
<!-- Generator: Adobe Illustrator 24.0.3, SVG Export Plug-In . SVG Version: 6.00 Build 0)  -->
<svg version="1.1" id="_x2014_ÎÓÈ_x5F_1" xmlns="http://www.w3.org/2000/svg" xmlns:xlink="http://www.w3.org/1999/xlink" x="0px" y="0px" viewBox="0 0 1920 1440" enable-background="new 0 0 1920 1440" xml:space="preserve" width="1920" height="1440">
<g>
	
		<path fill-rule="evenodd" clip-rule="evenodd" fill="#77C73E" stroke="#77C73E" stroke-width="0.5669" stroke-miterlimit="22.9256" d="
		M904.064,1310.906c48.32-18.071,141.528-48.408,204.245-63.416c62.717-15.007,94.943-14.684,128.863-10.844
		s69.534,11.196,102.662,23.81c33.128,12.613,63.769,30.482,89.688,44.714c25.919,14.232,47.117,24.826,54.661,30.123
		s1.432,5.297-49.606,5.168c-51.039-0.129-147.005-0.386-242.19-0.391c-95.184-0.005-189.587,0.243-246.708,0.371
		c-57.122,0.127-76.962,0.135-85.165-2.763C852.31,1334.78,855.743,1328.977,904.064,1310.906z" class="prop44"></path>
	
		<path fill-rule="evenodd" clip-rule="evenodd" fill="#93D25F" stroke="#93D25F" stroke-width="0.5669" stroke-miterlimit="22.9256" d="
		M665.321,1327.216c24.091-13.375,78.708-40.124,127.829-56.035c49.121-15.912,92.745-20.986,129.128-19.693
		c36.382,1.293,65.523,8.954,90.872,19.662c25.35,10.708,46.909,24.462,67.539,31.032c20.63,6.57,40.331,5.954,59.467,5.63
		c19.136-0.324,37.709-0.357,56.825,0.683c19.117,1.039,38.777,3.15,56.691,7.486c17.914,4.336,34.081,10.898,43.604,14.999
		c9.523,4.101,12.401,5.743,12.721,6.564c0.319,0.821-1.921,0.821-24.949,1.192c-23.028,0.371-66.843,1.113-168.693,1.484
		c-101.85,0.371-261.735,0.371-348.45,0.371c-86.715,0-100.26,0-110.25,0C647.665,1340.591,641.23,1340.591,665.321,1327.216z" class="prop43"></path>
	<path fill-rule="evenodd" clip-rule="evenodd" fill="#0D8B11" d="M924.145,886.686c0,7.525-0.867,23.973-1.822,30.986
		c-0.612,4.496-1.427,8.679-2.148,13.296c-0.991,6.345-4.296,18.23-6.155,24.102l-3.598,11.455
		c-5.71,20.407-6.978,31.461,0.524,51.14c8.29,21.748,5.598,35.832-0.069,58.192c-0.84,3.312-1.226,8.091-3.963,8.091
		c-5.778,0,0.058-14.942,1.816-24.962c1.393-7.94,2.613-14.487,1.169-23.412c-0.339-2.095-0.646-3.28-1.151-5.133
		c-4.495-16.514-8.552-19.174-8.552-39.786c0-11.73,4.023-24.687,7.399-34.656c0.359-1.062,0.401-1.509,0.695-2.609l2.505-8.086
		c4.111-15.253,7.509-33.032,7.509-50.726c0-24.175,0.01-29.619-2.249-54.444c-0.564-6.198-1.055-11.738-1.596-17.885
		c-1.374-15.607-4.476-36.665-6.124-52.463l-3.828-30.12c-0.336-2.43-1.649-8.931,2.407-8.931c3.178,0,3.228,8.656,4.161,16.129
		c2.349,18.81,4.954,38.226,7.106,57.401c2.565,22.867,3.765,37.588,5.337,60.211c0.125,1.804-0.034,3.548,0.123,5.375
		L924.145,886.686z" class="prop18"></path>
	<path fill-rule="evenodd" clip-rule="evenodd" fill="#0D8B11" d="M399.249,892.682c0,5.806,0.867,18.496,1.822,23.908
		c0.612,3.469,1.427,6.696,2.148,10.259c0.991,4.895,4.296,14.066,6.155,18.596l3.597,8.839c5.71,15.746,6.978,24.274-0.524,39.458
		c-8.29,16.781-5.598,27.647,0.069,44.899c0.84,2.556,1.226,6.243,3.963,6.243c5.778,0-0.058-11.529-1.816-19.26
		c-1.393-6.126-2.613-11.178-1.169-18.064c0.339-1.616,0.647-2.531,1.151-3.96c4.495-12.742,8.552-14.794,8.552-30.698
		c0-9.051-4.023-19.047-7.399-26.74c-0.359-0.819-0.401-1.164-0.695-2.013l-2.505-6.239c-4.111-11.769-7.509-25.487-7.509-39.139
		c0-18.652-0.011-22.853,2.249-42.007c0.564-4.783,1.055-9.057,1.596-13.8c1.374-12.042,4.476-28.29,6.124-40.479l3.828-23.239
		c0.336-1.875,1.649-6.891-2.407-6.891c-3.178,0-3.228,6.678-4.161,12.445c-2.349,14.513-4.954,29.494-7.106,44.289
		c-2.565,17.644-3.765,29.002-5.337,46.457c-0.125,1.392,0.034,2.737-0.123,4.147L399.249,892.682z" class="prop18"></path>
	
		<path fill-rule="evenodd" clip-rule="evenodd" fill="#11621B" stroke="#11621B" stroke-width="0.5669" stroke-miterlimit="22.9256" d="
		M1546.18,1316.135c-1.519-13.669-1.473-35.933,1.924-53.164c3.397-17.231,10.146-29.43,19.374-36.779
		c9.227-7.349,20.933-9.848,28.644-12.225c7.711-2.376,11.427-4.63,13.724-10.761c2.297-6.131,3.176-16.14,1.526-22.734
		c-1.649-6.595-5.827-9.776-6.276-11.34c-0.449-1.564,2.83-1.51,5.919,2.044c3.089,3.555,5.987,10.611,6.593,18.404
		c0.606,7.793-1.081,16.324-5.624,21.319c-4.543,4.995-11.942,6.457-17.869,8.517c-5.927,2.06-10.382,4.717-14.302,9.298
		c-3.921,4.582-7.306,11.086-10.223,19.48c-2.917,8.395-5.365,18.679-5.11,29.138c0.255,10.46,3.211,21.095,9.825,19.584
		c6.614-1.511,16.886-15.168,23.665-25.596c6.779-10.429,10.066-17.629,17.079-22.283c7.013-4.653,17.752-6.76,25.419-7.26
		c7.666-0.5,12.26,0.607,17.155,3.617c4.896,3.01,10.094,7.923,12.909,11.922c2.815,4,3.248,7.087,2.646,7.268
		c-0.602,0.182-2.24-2.542-6.427-5.607c-4.187-3.065-10.925-6.471-17.404-7.64c-6.479-1.168-12.699-0.099-19.783,1.946
		c-7.083,2.045-15.029,5.066-21.997,12.358c-6.968,7.293-12.958,18.857-10.949,21c2.008,2.144,12.014-5.133,24.032-8.333
		c12.017-3.2,26.046-2.324,37.258,1.062c11.212,3.387,19.607,9.283,28.709,11.138c9.101,1.854,18.91-0.333,24.486-6.411
		c5.576-6.078,6.92-16.045,8.041-19.465c1.121-3.42,2.019-0.292,1.686,4.839c-0.333,5.131-1.897,12.264-4.396,18.025
		c-2.499,5.762-5.934,10.151-11.334,11.553c-5.401,1.403-12.767-0.182-18.918-2.247s-11.088-4.609-16.035-7.037
		c-4.947-2.428-9.904-4.739-15.494-6.52c-5.59-1.78-11.813-3.031-19.874-1.289c-8.061,1.742-17.961,6.475-25.288,13.697
		c-7.328,7.222-12.083,16.933-15.711,23.917c-3.629,6.983-6.13,11.239-12.595,14.182c-6.465,2.943-16.892,4.572-23.647,2.849
		C1550.783,1334.881,1547.699,1329.805,1546.18,1316.135z" class="prop4"></path>
	
		<path fill-rule="evenodd" clip-rule="evenodd" fill="#11621B" stroke="#11621B" stroke-width="0.5669" stroke-miterlimit="22.9256" d="
		M772.362,1290.718c-3.855-13.318-10.631-37.617-16.94-63.902c-6.309-26.285-12.15-54.556-12.15-80.841
		c0-26.285,5.841-50.585,10.023-68.323c4.182-17.739,6.705-28.918-0.421-43.053c-7.126-14.135-23.902-31.228-24.813-34.283
		c-0.911-3.055,14.043,7.926,23.505,15.987c9.463,8.061,13.434,13.201,12.85,28.972c-0.584,15.771-5.724,42.173-7.534,64.078
		c-1.811,21.904-0.293,39.311,3.193,54.117c3.485,14.806,8.938,27.013,11.683,39.804c2.745,12.792,2.783,26.17,2.919,39.635
		c0.136,13.465,0.37,27.016,1.888,36.128c1.518,9.113,4.322,13.786,8.411,10.748c4.088-3.037,9.463-13.785,13.668-29.439
		c4.206-15.654,7.243-36.215,7.009-56.659c-0.234-20.444-3.738-40.771-9.112-59.93c-5.374-19.159-12.617-37.149-15.421-44.976
		c-2.804-7.827-1.169-5.49,2.804,2.57c3.972,8.061,10.28,21.846,15.187,32.71c4.906,10.865,8.411,18.808,11.799,28.388
		c3.388,9.579,6.659,20.794,8.411,31.075c1.752,10.28,1.986,19.626,0.701,27.453c-1.285,7.827-4.09,14.135-6.309,23.248
		c-2.219,9.112-3.855,21.028-3.911,30.469c-0.057,9.441,1.464,16.408,3.333,14.188c1.869-2.22,4.086-13.625,6.947-26.571
		c2.861-12.946,6.365-27.432,11.155-44.722c4.79-17.29,10.864-37.383,16.589-50.116c5.724-12.734,11.098-18.108,18.692-23.014
		c7.593-4.906,17.406-9.346,24.416-11.682c7.009-2.336,11.215-2.57,10.164-1.518c-1.051,1.051-7.36,3.388-15.42,8.528
		c-8.061,5.14-17.874,13.084-24.533,24.65c-6.659,11.565-10.163,26.752-12.266,37.967c-2.103,11.215-2.804,18.458-4.79,25.584
		c-1.986,7.126-5.257,14.136-8.645,22.08c-3.388,7.944-6.893,16.823-9.463,24.65c-2.57,7.827-4.206,14.603-6.935,19.698
		c-2.729,5.095-6.552,8.51-9.972,10.382c-3.421,1.871-6.439,2.198-11.537,2.593c-5.098,0.395-12.276,0.859-16.331-0.078
		C777.151,1306.372,776.216,1304.035,772.362,1290.718z" class="prop4"></path>
	
		<path fill-rule="evenodd" clip-rule="evenodd" fill="#007425" stroke="#007425" stroke-width="0.216" stroke-miterlimit="22.9256" d="
		M622.313,175.224c-35.099-11.872-93.94-19.786-151.405,2.581c-57.465,22.367-113.554,75.014-136.437,122.501
		c-22.883,47.486-12.56,89.811-3.957,116.479c8.603,26.668,15.485,37.679,12.044,41.809c-3.441,4.129-17.205,1.376-28.217,2.753
		c-11.012,1.377-19.27,6.882-24.087,18.582c-4.818,11.7-6.194,29.593,3.441,42.669c9.635,13.076,30.281,21.334,24.775,30.281
		c-5.505,8.947-37.163,18.582-66.068,41.809c-28.905,23.227-55.057,60.044-56.003,98.756
		c-0.947,38.711,23.312,79.315,59.099,102.887c35.786,23.572,83.102,30.111,109.512,30.627c26.41,0.517,31.916-4.989,33.292-0.86
		c1.376,4.13-1.376,17.893,8.258,32.517c9.635,14.624,31.657,30.108,55.745,32.861c24.087,2.753,50.24-7.225,62.627-11.526
		c12.388-4.301,11.011-2.925,23.869,11.153c12.858,14.078,39.95,40.858,78.518,53.643c38.568,12.784,88.611,11.573,129.434,4.376
		c40.822-7.196,72.424-20.377,90.977-35.914c18.553-15.537,24.059-33.43,27.5-38.936c3.441-5.506,4.817,1.376,23.313,2.322
		c18.495,0.946,54.109-4.044,73.981-23.229c19.871-19.184,24.001-52.562,15.829-80.348c-8.173-27.786-28.646-49.98-45.765-62.453
		c-17.119-12.473-30.883-15.226-26.324-13.334c4.559,1.892,27.442,8.43,46.875,4.684c19.433-3.746,35.417-17.774,47.483-37.452
		c12.066-19.678,20.214-45.004,24.069-44.233c3.853,0.77,3.414,27.638,9.69,47.128c6.276,19.49,19.269,31.603,35.21,36.642
		c15.941,5.04,34.828,3.006,38.767,4.742c3.938,1.736-7.073,7.242-19.461,21.006c-12.388,13.764-26.152,35.787-27.528,58.497
		c-1.377,22.711,9.635,46.11,23.399,64.692c13.764,18.582,30.281,32.346,56.332,38.343c26.05,5.998,61.635,4.228,89.163-4.031
		c27.528-8.258,47-23.006,58.113-33.821c11.112-10.815,13.865-17.697,15.93-17.697c2.065,0,3.441,6.882,12.474,15.398
		c9.033,8.516,25.722,18.666,45.594,22.709c19.872,4.043,42.927,1.978,63.401-8.001c20.474-9.979,38.367-27.872,46.712-51.873
		c8.345-24,7.14-54.109,2.409-74.669c-4.732-20.559-12.99-31.571-10.925-35.7c2.064-4.129,14.452-1.377,36.905-5.248
		c22.453-3.872,54.97-14.368,72.606-39.574c17.635-25.206,20.388-65.122,8.86-92.478c-11.527-27.356-37.335-42.153-55.659-43.786
		c-18.324-1.634-29.162,9.895-27.184,1.551c1.978-8.344,16.775-36.561,16.775-68.907c0-32.346-14.796-68.82-40.776-92.563
		c-25.979-23.743-63.143-34.755-94.8-35.442c-31.658-0.688-57.81,8.946-69.509,11.699c-11.699,2.753-8.947-1.376-12.388-19.958
		c-3.441-18.582-13.076-51.615-42.669-70.713c-29.594-19.098-79.144-24.26-112.867-13.249c-33.722,11.011-51.615,38.196-60.561,51.1
		c-8.946,12.904-8.946,11.528-16.345-16c-7.398-27.529-22.195-81.209-67.445-119.404c-45.25-38.196-120.952-60.907-180.998-56.777
		c-60.046,4.13-104.435,35.099-126.458,60.39c-22.023,25.292-21.679,44.905-27.184,46.798
		C668.767,202.924,657.412,187.095,622.313,175.224z" class="prop42"></path>
	
		<path fill-rule="evenodd" clip-rule="evenodd" fill="#4E442B" stroke="#4E442B" stroke-width="0.5669" stroke-linecap="round" stroke-linejoin="round" stroke-miterlimit="22.9256" d="
		M577.228,1340.591c1.298-163.413,12.851-438.756,28.266-552.689c-41.951-68.835-66.921-185.143-70.917-299.077
		c26.268,136.99,42.95,220.747,76.91,223.122c17.599-59.583,42.95-234.989,53.937-422.506
		c6.992,313.319-76.91,488.969-50.241,1051.151H577.228z" class="prop2"></path>
	
		<path fill-rule="evenodd" clip-rule="evenodd" fill="#4E442B" stroke="#4E442B" stroke-width="0.5669" stroke-miterlimit="22.9256" d="
		M755.503,817.475c12.17-2.174,33.954-7.909,51.217-15.395c18.08-7.84,31.2-17.6,38.08-21.76c6.88-4.16,7.52-2.72,7.44-0.96
		c-0.08,1.76-0.88,3.84-9.52,9.68c-8.64,5.84-25.12,15.44-41.2,22.96c-16.08,7.52-31.76,12.96-42.4,16.16
		c-2.306,0.694-4.375,1.282-6.23,1.78c-17.02,77.683-44.053,139.88-72.484,180.273v330.377h-23.775l-2.194-528.398
		c0.999-146.614,20.975-230.736,57.933-310.051c-25.971,84.122-31.304,180.484-31.964,305.245l-0.477,158.611
		c31.91-36.237,64.31-137.036,76.387-249.943c-0.49,14.154,12.005,10.543,10.723,23.627
		C764.368,766.941,760.436,792.931,755.503,817.475z" class="prop2"></path>
	
		<path fill-rule="evenodd" clip-rule="evenodd" fill="#4E442B" stroke="#4E442B" stroke-width="0.5669" stroke-linecap="round" stroke-linejoin="round" stroke-miterlimit="22.9256" d="
		M538.761,1338.878c-29.362-217.817-24.162-358.252-88.088-653.452c28.556,92.118,54.936,146.38,68.92,263.483l3.289,32.76
		c6.74-41.45,11.838-113.107,2.477-173.829c-1.056-6.849,8.029-0.931,8.218-7.749c8.964,94.147,9.879,170.607-5.188,236.438
		l30.349,302.349C552.08,1338.878,545.421,1338.878,538.761,1338.878z" class="prop2"></path>
	
		<path fill-rule="evenodd" clip-rule="evenodd" fill="#068714" stroke="#068714" stroke-width="0.5669" stroke-miterlimit="22.9256" d="
		M546.224,1316.759c6.168-6.326,8.142-12.814,5.921-18.816c-2.221-6.002-8.635-11.517-15.297-11.03
		c-6.661,0.487-13.57,6.975-17.764,12.49c-4.195,5.515-5.675,10.057-8.389,10.381c-2.714,0.324-6.661-3.569-8.389-15.734
		c-1.727-12.165-1.234-32.604-4.934-45.58c-3.701-12.976-11.596-18.491-20.724-16.383c-9.129,2.109-19.492,11.841-25.659,20.276
		c-6.168,8.435-8.142,15.572-11.349,24.331c-3.207,8.759-7.648,19.14-11.843,22.709c-4.194,3.568-8.142,0.324-8.389-9.084
		c-0.247-9.408,3.207-24.979,5.921-42.984c2.714-18.005,4.688-38.443,0.493-49.797c-4.194-11.354-14.557-13.625-22.205-6.975
		c-7.648,6.65-12.583,22.222-15.297,38.767c-2.714,16.545-3.207,34.063-3.207,44.931s0.493,15.085-0.987,17.194
		c-1.48,2.109-4.934,2.109-10.609-5.839c-5.674-7.948-13.57-23.844-24.919-32.279c-11.349-8.434-26.153-9.408-32.568-5.353
		c-6.415,4.055-4.441,13.138,0.247,21.411c4.688,8.272,12.089,15.734,17.764,23.033c5.675,7.299,9.622,14.436,6.168,18.329
		c-3.454,3.893-14.31,4.542-27.139,0.811c-12.829-3.731-27.633-11.841-40.462-12.814c-12.83-0.973-23.686,5.191-24.919,12.976
		c-1.234,7.786,7.155,17.194,22.205,23.195c5.998,2.392,13.057,4.242,21.874,5.665h218.178c2.929-1.468,6.658-3.627,12.593-7.125
		C529.694,1329.248,540.056,1323.084,546.224,1316.759z" class="prop41"></path>
	
		<path fill-rule="evenodd" clip-rule="evenodd" fill="#36A23D" stroke="#36A23D" stroke-width="0.5669" stroke-miterlimit="22.9256" d="
		M499.445,1259.224c-0.499-3.882-1.157-7.546-2.072-10.754c-3.701-12.976-11.596-18.491-20.724-16.383
		c-9.129,2.109-19.492,11.841-25.659,20.276c-0.988,1.351-1.868,2.669-2.663,3.965c5.948-6.176,11.79-12.471,17.285-15.646
		c5.707-3.298,11.039-3.23,16.27-1.372c5.231,1.859,10.362,5.509,15.151,14.751C497.85,1255.64,498.658,1257.381,499.445,1259.224
		L499.445,1259.224z M424.787,1250.846c0.183-1.159,0.365-2.33,0.543-3.511c2.714-18.005,4.688-38.443,0.493-49.797
		c-4.194-11.354-14.557-13.625-22.205-6.975c-2.897,2.519-5.405,6.319-7.549,10.966c3.882-1.771,7.321-2.097,10.628-1.387
		c5.102,1.095,9.892,4.655,12.495,11.843c2.603,7.188,3.02,18.005,4.269,29.232C423.823,1244.467,424.255,1247.752,424.787,1250.846
		L424.787,1250.846z M337.8,1247.704c-8.659-2.934-17.273-2.562-21.769,0.28c-6.415,4.055-4.441,13.138,0.247,21.411
		c2.868,5.062,6.753,9.82,10.636,14.423c-1.008-2.036-2.518-4.448-3.925-7.165c-3.302-6.379-6.031-14.439-6.542-19.739
		c-0.511-5.3,1.196-7.84,5.517-9.381C325.627,1246.228,331.168,1245.642,337.8,1247.704z" class="prop6"></path>
	
		<path fill-rule="evenodd" clip-rule="evenodd" fill="#4E442B" stroke="#4E442B" stroke-width="0.5669" stroke-linecap="round" stroke-linejoin="round" stroke-miterlimit="22.9256" d="
		M1186.278,1340.59l2.194-468.883c-0.999-130.101-20.976-204.747-57.933-275.129c25.97,74.646,31.304,160.155,31.963,270.864
		l0.058,140.076c-33.237-25.944-55.664-119.878-60.241-205.919c-1.2-22.56-9.12-25.921-9.12-14.159
		c4.994,127.967,26.354,205.835,69.303,259.984v293.165H1186.278z" class="prop2"></path>
	
		<path fill-rule="evenodd" clip-rule="evenodd" fill="#28621D" stroke="#28621D" stroke-width="0.216" stroke-miterlimit="22.9256" d="
		M1031.943,786.932c0,23.837,1.737,29.47,7.842,49.486l3.506,10.238c6.696,20.307,14.67,41.072,10.875,64.246
		c-0.838,5.119-2.665,12.075-4.201,16.813l-3.375,10.397c-4.671,15.257-7.346,23.989-7.346,42.671
		c0,13.107,2.006,23.835,4.928,35.355c1.597,6.296,1.717,8.783,4.71,8.783c1.302,0,2.629-1.43,2.629-2.825
		c0-1.151-2.898-11.675-3.506-14.475c-1.087-5.009-2.094-9.889-2.578-15.597c-1.007-11.86-0.53-23.716,1.586-33.98
		c2.719-13.184,5.118-17.131,8.115-27.617c3.062-10.713,5.729-19.098,5.729-31.562c0-9.367-2.095-21.252-4.049-28.295l-3.547-12.307
		c-0.664-2.019-1.177-4.075-1.941-6.129l-6.15-17.634c-0.709-2.143-1.318-3.879-2.006-6.049c-1.508-4.749-3.729-14.746-4.42-19.726
		c-3.919-28.241,2.817-58.736,9.14-85.852l8.885-36.926c0-2.189-1.904-3.999-3.771-3.18c-1.871,0.82-2.073,3.135-2.591,5.375
		l-4.905,19.846c-0.584,2.488-1.122,4.368-1.646,6.838c-1.909,8.994-4.218,18.086-6.011,27.337
		c-0.905,4.672-1.872,9.605-2.616,14.139C1033.898,764.408,1031.943,778.737,1031.943,786.932z" class="prop40"></path>
	
		<path fill-rule="evenodd" clip-rule="evenodd" fill="#4E442B" stroke="#4E442B" stroke-width="0.5669" stroke-linecap="round" stroke-linejoin="round" stroke-miterlimit="22.9256" d="
		M1226.23,1340.591c16.465-231.209,51.228-376.551,43.531-721.143c17.432,163.589,29.657,208.367,18.112,380.187
		C1308,970.56,1325.04,881.279,1332.96,810.72c0.511-4.558,7.99,1.631,9.12-2.744c-11.037,105.715-27.582,186.287-60.717,242.494
		l-28.588,290.121H1226.23z" class="prop2"></path>
	
		<path fill-rule="evenodd" clip-rule="evenodd" fill="#11621B" stroke="#11621B" stroke-width="0.5669" stroke-miterlimit="22.9256" d="
		M1133.622,1318.953c-3.857-15.537-12.022-41.685-14.119-66.909c-2.097-25.224,1.875-49.523,6.315-67.514
		c4.439-17.991,9.346-29.673,10.397-30.491c1.052-0.818-1.752,9.23-4.322,22.547c-2.57,13.318-4.907,29.907-5.608,43.224
		c-0.701,13.318,0.233,23.365,1.986,33.295c1.752,9.93,4.322,19.743,8.295,32.36c3.972,12.617,9.345,28.038,12.661,32.912
		c3.315,4.874,4.572-0.798,5.506-12.363c0.934-11.565,1.547-29.024,0.569-45.815c-0.979-16.79-3.549-32.911-6.002-44.127
		c-2.453-11.215-4.79-17.523-5.14-18.692c-0.351-1.168,1.285,2.804,4.322,10.631c3.037,7.827,7.477,19.51,9.93,29.673
		c2.453,10.163,2.92,18.809,3.388,26.869c0.467,8.061,0.935,15.537,1.168,25.35c0.234,9.813,0.234,21.963,0.701,22.313
		c0.467,0.351,1.402-11.098,4.439-24.766c3.038-13.668,8.178-29.556,14.369-40.655c6.192-11.098,13.434-17.406,15.187-18.458
		c1.752-1.051-1.986,3.154-5.491,9.463c-3.505,6.308-6.776,14.719-8.762,23.248c-1.986,8.528-2.687,17.173-3.739,27.92
		c-1.051,10.748-2.453,23.599-3.154,32.127c-0.701,8.528-0.701,12.734-2.22,15.07c-1.519,2.337-4.556,2.804-11.096,3.855
		c-6.54,1.051-16.583,2.687-21.379,1.041C1137.028,1339.417,1137.479,1334.49,1133.622,1318.953z" class="prop4"></path>
	
		<path fill-rule="evenodd" clip-rule="evenodd" fill="#00940E" stroke="#00940E" stroke-width="0.216" stroke-miterlimit="22.9256" d="
		M384.196,503.229c-12.388,2.064-26.84,8.258-31.658,21.678c-4.818,13.42,0,34.066,7.226,47.486
		c7.226,13.42,16.861,19.614,9.291,22.367c-7.57,2.753-32.346,2.065-49.896,25.464c-0.514,0.686-1.022,1.393-1.523,2.12
		c-11.743-35.161-28.499-50.938-71.951-58.802c8.605,31.961,39.958,58.514,70.044,61.713c-5.111,8.202-9.402,18.475-12.303,29.703
		c-22.074-9.632-37.759-8.129-61.555,9.46c18.449,9.895,43.615,8.104,59.992-2.644c-4.208,20.941-3.48,44.283,5.597,63.401
		c16.173,34.066,58.842,54.712,90.844,60.562c32.002,5.85,53.336-3.096,65.036-1.032c11.699,2.065,13.764,15.141,25.464,28.217
		c11.699,13.076,33.034,26.152,63.315,27.872c30.281,1.721,69.509-7.914,94.284-29.937c24.776-22.023,35.099-56.433,36.819-83.617
		c1.72-27.184-5.162-47.142-1.721-48.174c3.441-1.032,17.205,16.861,43.701,27.528c26.496,10.667,65.724,14.108,103.231,1.032
		c37.508-13.076,73.295-42.669,88.435-83.961c15.14-41.292,6.206-119.306,12.043-107.36
		c43.363,88.746,157.863,131.954,212.656,82.585c11.099-10,18.926-5.506,17.205,0.344c-1.721,5.85-9.291,20.99-13.764,34.41
		c-4.474,13.42-5.85,25.12-3.441,37.508c2.408,12.388,8.602,25.464,17.893,33.378c9.291,7.915,21.678,10.668,29.249,12.044
		c7.57,1.376,10.323,1.376,12.732,9.291c2.409,7.914,4.473,23.743,9.291,36.131c4.818,12.388,12.388,21.335,23.744,27.872
		c11.355,6.538,26.496,10.667,43.701,12.732c17.205,2.065,36.474,2.065,52.648-1.721c16.173-3.785,29.249-11.355,35.786-21.334
		c6.538-9.979,6.538-22.366,7.915-28.216s4.129-5.162,12.388-3.785c8.259,1.377,22.022,3.441,34.066,0.688
		c12.044-2.753,22.367-10.323,26.152-20.646c3.785-10.323,1.032-23.399-1.721-32.689c-2.753-9.291-5.506-14.797-5.85-18.238
		c-0.344-3.441,1.72-4.817,10.667-13.763c8.946-8.947,24.775-25.464,32.69-40.605c7.914-15.141,7.914-28.905,4.473-45.766
		c-3.441-16.861-10.323-36.819-22.366-51.959c-12.044-15.141-29.249-25.464-47.831-28.217c-18.582-2.753-38.54,2.065-50.583,5.506
		c-12.044,3.441-16.173,5.505-16.861-4.818c-0.487-7.309,0.749-20.831-0.685-35.554c21.805,11.344,38,10.878,63.616-5.361
		c-19.096-12.072-46.706-11.514-64.291-0.232c-0.624-4.285-1.513-8.616-2.77-12.877c-0.96-3.254-2.136-6.466-3.532-9.624
		c37.285,2.08,58.591-8.008,82.591-45.985c-33.068-4.04-69.601,14.69-84.891,41.216c-8.023-15.324-21.534-29.165-41.31-39.976
		c-25.808-14.108-62.283-23.055-95.661-17.205c-21.112,3.7-40.984,13.32-59.706,22.676
		c19.301-81.261-115.056-115.347-168.435-66.722c-12.953,11.8-14.452-22.367-20.99-47.142
		c-6.538-24.775-21.678-57.809-52.303-77.423c-30.626-19.614-76.735-25.808-124.91-16.861c-1.208,0.225-2.416,0.46-3.626,0.704
		c13.817-21.159,17.113-52.744,5.765-76.917c-24.643,29.866-28.149,50.452-17.69,79.6c-6.775,1.685-13.546,3.638-20.254,5.82
		c1.343-44.719-12.045-70.664-58.786-99.433c-4.366,39.63,17.412,82.925,48.579,102.944c-32.236,11.694-62.275,28.325-83.371,45.436
		c-30.969,25.119-42.669,51.271-48.862,70.541c-6.194,19.27-6.882,31.658-7.57,37.163c-0.688,5.506-1.377,4.129-7.914-11.355
		c-6.538-15.485-18.926-45.078-44.389-57.81c-25.464-12.732-64.003-8.602-95.316,13.421c-31.313,22.022-55.401,61.938-63.315,94.972
		c-7.914,33.034,0.344,59.185,9.291,77.079c8.947,17.893,18.581,27.528,18.238,31.314
		C406.907,503.228,396.584,501.164,384.196,503.229z" class="prop39"></path>
	
		<path fill-rule="evenodd" clip-rule="evenodd" fill="#36A23D" stroke="#36A23D" stroke-width="0.216" stroke-miterlimit="22.9256" d="
		M1319.886,403.53c-6.097-5.409-13.214-10.409-21.407-14.887c-25.808-14.108-62.283-23.055-95.661-17.205
		c-21.112,3.7-40.984,13.32-59.706,22.676c13.916-58.589-52.042-92.648-109.939-88.871c0.87,0.09,1.753,0.184,2.648,0.28
		c9.592,1.032,20.513,2.43,30.534,5.151c10.02,2.721,19.139,6.763,27.397,11.366c8.259,4.602,15.657,9.764,21.98,16.947
		c6.323,7.183,11.57,16.388,15.657,23.7c4.086,7.312,7.011,12.731,8.516,18.452c1.505,5.721,1.591,11.742,2.968,15.227
		c1.376,3.484,4.043,4.43,11.054,1.376c7.011-3.054,18.367-10.108,31.27-14.624c12.904-4.516,27.356-6.495,38.626-7.269
		c11.269-0.774,19.355-0.344,28.787,0.813c9.432,1.157,20.208,3.041,29.145,5.783c8.937,2.742,16.035,6.343,22.926,10.802
		C1310.443,396.973,1316.058,401.3,1319.886,403.53z" class="prop6"></path>
	
		<path fill-rule="evenodd" clip-rule="evenodd" fill="#0C7319" stroke="#0C7319" stroke-width="0.5669" stroke-miterlimit="22.9256" d="
		M1150.833,1332.279c22.073-8.312,71.02-24.936,105.894-33.567c34.874-8.632,55.674-9.271,77.113-5.752
		c21.44,3.52,43.52,11.2,62.903,16.752c19.383,5.551,36.069,8.974,56.709,11.534c20.64,2.56,45.234,4.257,62.914,6.013
		c17.68,1.755,28.446,3.569,42.633,4.201c14.187,0.632,31.796,0.083,46.899,1.408c15.104,1.325,27.703,4.524,33.683,6.123
		c5.98,1.6,5.34,1.6-16.1,1.6c-21.44,0-63.68,0-143.976,0c-80.296,0-198.649,0-261.849,0c-63.2,0-71.248,0-77.672,0
		C1133.56,1340.591,1128.76,1340.591,1150.833,1332.279z" class="prop15"></path>
	
		<path fill-rule="evenodd" clip-rule="evenodd" fill="#11621B" stroke="#11621B" stroke-width="0.5669" stroke-miterlimit="22.9256" d="
		M1291.828,1292.05c16.011-1.839,28.892-1.244,42.012,0.91c21.44,3.52,43.52,11.2,62.903,16.752
		c19.383,5.551,36.069,8.974,56.709,11.534c16.736,2.076,36.073,3.585,52.214,5.017c-7.651,6.701-25.682,10.445-47.817,14.13
		l-1.197,0.198h-110.056c-6.546-2.462-11.908-5.352-16.116-8.271c-9.92-6.88-13.44-13.92-23.04-24.16
		C1302.754,1303.162,1296.62,1297.401,1291.828,1292.05z" class="prop4"></path>
	
		<path fill-rule="evenodd" clip-rule="evenodd" fill="#36A23D" stroke="#36A23D" stroke-width="0.216" stroke-miterlimit="22.9256" d="
		M573.39,320.3c-7.487-14.004-18.505-29.376-35.036-37.641c-25.464-12.732-64.003-8.602-95.316,13.421
		c-31.313,22.022-55.401,61.938-63.315,94.972c-7.914,33.034,0.344,59.185,9.291,77.079c3.185,6.37,6.457,11.692,9.335,16.078
		c-1.162-5.859-6.525-17.825-8.444-32.782c-1.993-15.531-0.273-34.285,6.867-55.533c7.14-21.248,19.7-44.992,35.27-61.853
		c15.571-16.861,34.152-26.84,54.713-30.453c20.56-3.613,43.099-0.86,58.497,2.924C560.078,310.155,568.285,314.757,573.39,320.3z" class="prop6"></path>
	<g>
		
			<path fill-rule="evenodd" clip-rule="evenodd" fill="#3FB946" stroke="#3FB946" stroke-width="0.5669" stroke-miterlimit="22.9256" d="
			M448.542,517.695c-1.72,2.839-26.496,3.699-53.164,19.098c-26.668,15.398-55.229,45.335-55.056,73.552
			c0.172,28.217,29.077,54.713,54.025,66.154c24.947,11.442,45.937,7.828,53.679,7.742c7.742-0.086,2.236,3.355-6.366,8.173
			c-8.603,4.818-20.302,11.011-27.012,28.962c-0.698,1.868-1.342,3.865-1.92,5.964c-25.948-11.652-41.485-8.638-62.447,6.719
			c16.413,10.689,42.465,10.343,61.066-0.881c-3.486,17.465-2.423,39.782,8.619,55.81c1.872,2.716,4.031,5.251,6.424,7.597
			c-38.696,19.752-50.89,42.878-54.179,84.637c30.815-8.95,58.351-40.844,65.754-75.746c7.198,4.344,15.351,7.495,23.715,9.33
			c-14.386,26.967-12.207,44.412,2.735,68.763c13.269-17.127,15.415-45.7,5.108-67.437c5.986,0.714,11.962,0.745,17.665,0.047
			c24.259-2.97,43.563-19.114,54.247-38.726c10.684-19.612,12.747-42.691,15.673-45.989c2.926-3.298,6.713,13.185,16.693,26.003
			s26.15,21.971,52.646,20.737c26.496-1.234,63.316-12.855,85.578-38.69c22.261-25.834,29.963-65.881,27.382-92.76
			c-2.582-26.879-15.447-40.59-27.041-49.94c-11.594-9.35-21.918-14.34-22.606-17.178c-0.689-2.839,8.258-3.528,17.893-11.098
			c9.635-7.57,19.958-22.022,23.055-38.195c3.097-16.173-1.033-34.066-12.388-44.733c-11.356-10.668-29.937-14.109-52.648-9.979
			c-22.711,4.129-49.551,15.829-58.497,16.173c-8.947,0.344,0-10.667,4.473-26.496c4.473-15.829,4.473-36.475-3.097-54.024
			c-7.57-17.549-22.711-32.002-40.604-36.475c-17.894-4.474-38.54,1.032-48.863,11.355c-10.323,10.323-10.323,25.463-4.818,35.443
			c5.506,9.979,16.517,14.797,20.302,16.861c3.785,2.065,0.344,1.376-11.872-6.624c-12.216-8-33.205-23.313-56.095-22.792
			c-22.89,0.52-47.68,16.873-57.831,35.54c-10.151,18.667-5.664,39.65,7.247,52.55C428.928,510.038,450.262,514.855,448.542,517.695
			z" class="prop17"></path>
		
			<path fill-rule="evenodd" clip-rule="evenodd" fill="#3FB946" stroke="#3FB946" stroke-width="0.216" stroke-miterlimit="22.9256" d="
			M912.39,360.544c-25.359-16.025-43.139-51.15-39.598-83.289c38.267,23.554,48.816,44.76,47.354,81.842
			c8.742-1.458,17.499-2.331,25.799-2.528c0.664-0.016,1.323-0.026,1.981-0.033c3.763-28.914,15.526-44.636,48.99-59.036
			c-0.843,23.608-15.349,47.129-34.259,59.615c28.094,2.584,49.703,13.453,63.292,28.271c16.172,17.635,20.989,40.862,23.742,53.852
			c2.752,12.989,3.441,15.742,6.882,7.398c3.441-8.344,9.635-27.786,22.712-34.324c13.076-6.538,33.033-0.172,45.421,11.613
			c12.387,11.785,17.205,28.99,19.614,38.97c2.409,9.979,2.409,12.732,8.947,8.602c6.538-4.129,19.614-15.141,34.41-20.646
			c14.796-5.505,31.314-5.505,47.83,3.097c16.517,8.603,33.034,25.808,40.604,42.669c7.57,16.861,6.194,33.378,5.506,41.637
			c-0.688,8.258-0.688,8.258,7.914,4.817c8.602-3.441,25.807-10.323,40.948-10.667c15.141-0.344,28.216,5.85,35.443,17.893
			c7.226,12.044,8.603,29.938,3.785,41.637c-4.818,11.699-15.829,17.205-16.173,22.366c-0.344,5.161,9.979,9.979,22.711,21.679
			c12.731,11.699,27.872,30.281,32.689,55.745c3.236,17.103,1.814,37.311-2.622,56.002c25.954-19.032,47.521-21.621,84.589-5.896
			c-23.111,20.579-60.768,25.763-86.71,13.937c-1.813,6.235-3.952,12.213-6.354,17.745c-1.305,3.007-2.688,5.883-4.142,8.636
			c27.839,7.358,52.517,30.531,58.797,55.637c-32.89-3.837-51.248-13.959-65.92-43.875c-8.868,12.839-19.538,22.584-31.16,30.644
			c19.306,21.816,21.148,38.473,12.683,64.357c-15.659-12.593-23.953-37.57-20.013-59.574
			c-15.685,9.603-33.065,16.256-52.854,19.059c-22.625,3.205-48.399,1.378-71.265-4.353c-22.866-5.731-42.824-15.366-56.244-34.291
			c-13.42-18.925-20.302-47.142-17.549-70.541c2.753-23.399,15.141-41.98,23.399-51.271c8.258-9.291,12.388-9.291,7.41-7.513
			c-4.978,1.778-19.064,5.332-35.236,4.988c-16.173-0.344-34.433-4.587-41.843-13.591c-7.41-9.004-3.969-22.768-2.248-26.897
			c1.72-4.129,1.72,1.376-4.473,17.119c-6.193,15.743-18.581,41.723-38.03,50.033c-19.45,8.311-45.962-1.049-60.758-13.351
			c-14.797-12.302-17.878-27.547-19.419-41.018c-1.541-13.472-1.541-25.172-7.347-16.068c-5.807,9.104-17.42,39.012-39.099,55.873
			c-21.05,16.372-51.59,20.443-77.325,14.219c9.675,16.011,11.678,39.136,3.202,56.87c-18.35-22.555-20.951-38.068-13.05-59.839
			c-8.994-3.277-17.134-7.874-23.926-13.476c-15.011,22.666-44.075,37.169-68.382,34.132c14.327-27.152,29.231-39.395,60.531-41.746
			c-6.033-6.933-10.236-14.892-11.981-23.48c-4.474-22.023,7.226-48.175,17.549-65.036c10.323-16.861,19.27-24.431,13.42-25.12
			c-5.85-0.688-26.496,5.506-44.733-1.032c-18.238-6.538-34.067-25.808-37.163-51.529c-3.097-25.722,6.539-57.894,25.809-72.691
			c19.27-14.797,48.173-12.216,65.379-7.485c17.205,4.731,22.711,11.613,17.033,2.581c-5.677-9.033-22.538-33.98-8.429-53.335
			C860.383,376.93,885.643,366.079,912.39,360.544z" class="prop17"></path>
	</g>
	<g>
		
			<path fill-rule="evenodd" clip-rule="evenodd" fill="#13A618" stroke="#13A618" stroke-width="0.5669" stroke-miterlimit="22.9256" d="
			M531.886,791.331c3.681-4.31,6.883-8.987,9.548-13.879c5.298-9.725,8.476-20.301,10.69-28.897
			C546.813,757.621,539.269,774.653,531.886,791.331L531.886,791.331z M563.728,740.328c2.453,5.076,5.656,11.466,10.073,17.138
			c9.979,12.818,26.15,21.971,52.646,20.736c26.496-1.234,63.316-12.855,85.577-38.69c22.168-25.725,29.897-65.542,27.412-92.417
			c-2.915,9.778-5.597,19.072-9.351,28.097c-3.864,9.29-8.863,18.296-18.219,29.07c-9.357,10.774-23.072,23.315-43.186,32.063
			c-20.114,8.748-46.628,13.701-64.9,14.319c-18.272,0.618-28.301-3.1-34.706-7.02C567.007,742.359,565.317,741.074,563.728,740.328
			z" class="prop16"></path>
		
			<path fill-rule="evenodd" clip-rule="evenodd" fill="#13A618" stroke="#13A618" stroke-width="0.216" stroke-miterlimit="22.9256" d="
			M1320.688,842.305c-8.037,2.764-16.503,4.822-25.461,6.091c-22.625,3.204-48.399,1.378-71.265-4.354
			c-22.867-5.731-42.824-15.365-56.245-34.29c-13.42-18.926-20.302-47.143-17.549-70.542c1.621-13.78,6.585-25.888,12.078-35.413
			c0.388,4.047,0.17,8.607-0.089,13.276c-0.628,11.339-1.495,23.319,1.063,38.708c2.557,15.389,8.538,34.186,23.106,49.437
			c14.568,15.252,37.723,26.957,60.096,32.992c22.374,6.035,43.965,6.399,57.705,5.563
			C1311.905,843.301,1317.166,842.443,1320.688,842.305L1320.688,842.305z M1087.821,682.118
			c-6.873,12.348-16.357,24.698-28.674,29.961c-19.449,8.311-45.962-1.049-60.758-13.351
			c-12.406-10.314-16.576-22.697-18.508-34.369c2.271,3.834,5.043,8.355,8.527,12.212c8.266,9.149,20.538,14.559,32.498,18.092
			c11.961,3.532,23.609,5.189,33.838,4.209c10.229-0.98,19.037-4.596,25.081-9.33
			C1083.027,687.034,1085.452,684.213,1087.821,682.118z" class="prop16"></path>
	</g>
	
		<path fill-rule="evenodd" clip-rule="evenodd" fill="#0C7319" stroke="#0C7319" stroke-width="0.5669" stroke-miterlimit="22.9256" d="
		M525.337,1310.668c-3.857-15.537-12.022-41.685-14.119-66.909c-2.096-25.224,1.875-49.523,6.315-67.514
		c4.439-17.991,9.346-29.673,10.397-30.491c1.052-0.818-1.752,9.23-4.322,22.547c-2.57,13.318-4.907,29.907-5.607,43.224
		c-0.701,13.318,0.233,23.365,1.986,33.295c1.752,9.93,4.322,19.743,8.295,32.36c3.972,12.617,9.345,28.037,12.661,32.912
		c3.315,4.874,4.572-0.798,5.506-12.363c0.934-11.565,1.547-29.025,0.569-45.815c-0.979-16.79-3.549-32.911-6.002-44.127
		c-2.453-11.215-4.79-17.523-5.14-18.692c-0.351-1.168,1.285,2.804,4.322,10.631c3.037,7.827,7.477,19.51,9.93,29.673
		c2.453,10.163,2.92,18.809,3.388,26.869c0.467,8.061,0.935,15.537,1.168,25.35c0.234,9.813,0.234,21.963,0.701,22.313
		c0.467,0.351,1.402-11.098,4.439-24.766c3.038-13.668,8.178-29.556,14.369-40.655c6.192-11.098,13.435-17.406,15.187-18.458
		c1.752-1.051-1.986,3.154-5.491,9.463c-3.505,6.308-6.776,14.719-8.762,23.248c-1.986,8.528-2.687,17.173-3.739,27.92
		c-1.051,10.748-2.453,23.599-3.154,32.127c-0.701,8.528-0.701,12.734-2.22,15.07c-1.519,2.337-4.556,2.804-11.096,3.855
		c-6.54,1.051-16.583,2.687-21.379,1.041C528.743,1331.132,529.194,1326.206,525.337,1310.668z" class="prop15"></path>
	
		<path fill-rule="evenodd" clip-rule="evenodd" fill="#4CD15E" stroke="#4CD15E" stroke-width="0.216" stroke-miterlimit="22.9256" d="
		M1059.016,440.452c3.767-9.457,9.821-22.916,20.268-28.139c13.076-6.538,33.033-0.172,45.421,11.613
		c3.726,3.545,6.766,7.58,9.263,11.762c-3.336-3.298-7.419-6.428-12.326-8.747c-9.463-4.474-21.989-5.933-31.927-5.351
		c-9.938,0.582-17.288,3.204-22.638,8.271C1063.551,433.2,1060.893,437.6,1059.016,440.452L1059.016,440.452z M1168.316,461.067
		c5.726-3.763,12.349-7.607,19.359-10.216c14.796-5.505,31.314-5.505,47.83,3.097c16.517,8.603,33.034,25.808,40.604,42.669
		c6.623,14.752,6.399,29.241,5.778,38.165c-0.316-1.353-0.472-3.17-0.829-5.292c-0.811-4.809-2.656-11.18-6.074-17.634
		c-3.418-6.455-8.408-12.992-15.203-20.133c-6.796-7.14-15.398-14.882-26.41-20.818c-11.011-5.936-24.432-10.066-35.422-11.569
		c-10.991-1.503-19.553-0.379-27.037,1.17C1170.031,460.689,1169.165,460.877,1168.316,461.067L1168.316,461.067z M1312.406,535.211
		c5.915-1.537,12.151-2.672,18.072-2.807c15.141-0.344,28.216,5.85,35.443,17.893c7.226,12.044,8.603,29.938,3.785,41.637
		c-1.128,2.738-2.594,5.137-4.184,7.273c0.748-2.777,1.889-5.447,2.338-8.621c0.734-5.186-0.379-11.721-2.14-18.171
		c-1.761-6.45-4.169-12.816-9.675-18.752c-5.506-5.936-14.108-11.442-22.37-14.317
		C1325.453,536.486,1317.569,536.231,1312.406,535.211L1312.406,535.211z M1383.014,642.682
		c10.899,11.644,21.938,27.991,25.92,49.042c2.749,14.528,2.136,31.296-0.83,47.473c-0.796-3.092-1.14-8.345-1.821-14.876
		c-0.688-6.607-1.721-14.521-3.441-22.952c-1.721-8.431-4.129-17.377-7.147-26.803c-3.018-9.426-6.646-19.331-10.776-28.02
		C1384.294,645.231,1383.658,643.945,1383.014,642.682z" class="prop14"></path>
	
		<path fill-rule="evenodd" clip-rule="evenodd" fill="#4CD15E" stroke="#4CD15E" stroke-width="0.5669" stroke-miterlimit="22.9256" d="
		M448.542,517.695c-1.72,2.839-26.496,3.699-53.164,19.098c-26.668,15.398-55.229,45.335-55.056,73.552
		c0.172,28.217,29.077,54.713,54.025,66.154c4.166,1.911,8.222,3.4,12.125,4.558c-6.314-5.376-14.883-10.337-21.989-18.972
		c-10.085-12.255-17.224-31.908-17.481-49.176c-0.257-17.268,6.367-32.151,17.895-44.108c11.527-11.957,27.958-20.99,42.883-26.796
		c14.925-5.807,28.346-8.387,35.912-13.89c7.566-5.503,9.277-13.926,2.954-21.884c-6.323-7.958-20.68-15.449-29.579-25.217
		c-8.899-9.768-12.34-21.811-12.05-32.403c0.29-10.592,4.312-19.733,11.864-26.085c7.552-6.352,18.636-9.915,29.125-10.519
		c6.956-0.401,13.651,0.5,19.923,0.039c-6.169-1.959-12.668-3.15-19.328-2.998c-22.89,0.52-47.68,16.873-57.831,35.54
		c-10.151,18.667-5.664,39.65,7.247,52.55C428.928,510.038,450.262,514.855,448.542,517.695L448.542,517.695z M402.045,723.189
		c-18.328-5.866-31.621-2.838-47.621,7.952C374.799,737.714,391.528,731.629,402.045,723.189L402.045,723.189z M705.097,570.402
		c0.842-0.572,1.695-1.191,2.554-1.866c9.635-7.57,19.958-22.022,23.055-38.195c3.097-16.173-1.033-34.066-12.388-44.733
		c-8.267-7.765-20.363-11.7-35.093-11.674c8.289,1.289,18.367,3.87,25.343,9.058c8.732,6.495,12.603,17.076,14.195,28.518
		c1.591,11.441,0.903,23.743-1.293,32.772c-2.196,9.029-5.901,14.785-10.418,19.818
		C708.769,566.643,706.279,569.001,705.097,570.402L705.097,570.402z M608.802,473.666c1.007-2.588,2.005-5.39,2.844-8.361
		c4.473-15.829,4.473-36.475-3.097-54.024c-7.57-17.549-22.711-32.002-40.604-36.475c-17.894-4.474-38.54,1.032-48.863,11.355
		c-2.873,2.873-4.946,6.119-6.324,9.524c2.055-2.033,4.074-3.979,6.074-5.639c7.35-6.099,14.45-8.313,24.904-8.512
		c10.454-0.2,24.263,1.616,35.726,9.406c11.464,7.789,20.582,21.553,25.443,37.21c4.86,15.657,5.463,33.206,4.086,44.132
		C608.933,472.755,608.869,473.216,608.802,473.666z" class="prop14"></path>
	
		<path fill-rule="evenodd" clip-rule="evenodd" fill="#40B533" stroke="#40B533" stroke-width="0.5669" stroke-miterlimit="22.9256" d="
		M889.708,1340.591c1.962-2.556,3.731-5.152,5.297-7.795c6.159-10.393,9.194-21.494,7.945-32.124
		c-1.25-10.629-6.784-20.786-16.078-29.414c-9.293-8.627-22.346-15.725-32.523-17.969c-10.177-2.244-17.477,0.366-20.681,3.442
		c-3.204,3.077-2.311,6.619-2.847,11.934c-0.535,5.315-2.5,12.401-5.981,15.354c-3.481,2.953-8.48,1.771-9.909-1.654
		c-1.428-3.425,0.715-9.094,3.214-14.054c2.499-4.96,5.356-9.212,5.534-16.534c0.179-7.322-2.321-17.715-9.009-27.607
		c-6.688-9.891-17.563-19.28-32.382-24.713c-14.818-5.433-33.58-6.909-45.103-1.269c-11.523,5.64-15.808,18.395-15.629,27.725
		c0.179,9.33,4.821,15.236,7.32,22.086c2.499,6.85,2.857,14.645,0.535,20.196c-2.321,5.551-7.32,8.858-10.533,8.858
		c-3.214,0-4.642-3.307-4.642-6.378c0-3.07,1.428-5.905-0.089-7.677c-1.517-1.771-5.981-2.48-8.391-1.417
		c-2.41,1.063-2.767,3.898-2.41,6.024c0.357,2.126,1.428,3.543,0.982,5.196c-0.447,1.653-2.411,3.543-5.089,2.599
		c-2.678-0.945-6.07-4.724-9.819-11.338c-3.749-6.614-7.856-16.062-17.497-23.148c-9.641-7.086-24.817-11.81-38.118-9.212
		c-43.978,8.591-51.147,51.158-51.821,77.7c-0.06,2.37-3.541-2.008-7.334-5.799s-9.019-7.584-17.027-9.145
		c-8.008-1.561-18.798-0.892-27.564,3.903c-8.767,4.796-15.51,13.717-19.556,20.743c-4.046,7.026-5.395,12.156-5.901,18.067
		c-0.095,1.116-0.161,2.26-0.175,3.423h209.82h3.493H889.708z" class="prop38"></path>
	<g>
		<g>
			
				<path fill-rule="evenodd" clip-rule="evenodd" fill="#7FCD68" stroke="#7FCD68" stroke-width="0.216" stroke-miterlimit="22.9256" d="
				M733.461,1340.591h4.052l8.109-9.655c6.807-8.964,11.914-21.183,14.316-33.852c0.568-3,1.552-9.168,1.552-12.828
				c1.126-0.347,1.955-0.924,2.979-1.373c2.226-0.978,6.549-3.445,8.328-4.927c4.065-3.387,9.945-13.187,6.369-13.187
				c-2.02,0-1.842,2.532-4.678,6.567l-2.765,3.075c-1.818,1.496-7.907,5.367-9.965,5.594c0-16.779-0.4-20.159-2.921-35.819
				c-1.282-7.964-3.487-15.31-5.35-22.684c-0.336-1.331-0.56-2.335-0.943-3.712c-0.321-1.152-0.534-2.624-1.498-2.624
				c-0.615,0-1.607-0.056-1.607,1.417c0,2.426,8.034,29.252,8.034,37.911c-3.536,0-6.887-0.988-9.538-3.325
				c-3.416-3.011-5.901-7.864-8.388-11.933c-0.588-0.962-0.286-1.041-1.624-1.041c-4.501,0,6.125,13.706,6.896,14.616
				c1.313,1.55,3.927,3.366,5.719,4.127c1.79,0.76,5.175,1.453,7.471,1.453c0.784,4.453,1.094,15.436,0.818,19.86
				c-0.107,1.708,0.088,3.482-0.087,5.199c-0.533,5.256-0.603,8.182-1.708,13.685c-0.56,2.787-1.236,5.592-1.965,8.029
				c-0.773,2.58-1.631,4.708-2.589,7.205c-2.086,5.441-4.394,8.431-6.521,12.632l-2.063-2.23c-0.682-0.756-1.1-1.497-1.75-2.292
				l-3.62-4.421c-7.439-8.667-10.187-14.754-13.556-28.125c-0.651-2.583-1.118-6.157-2.309-6.157c-0.615,0-1.607-0.056-1.607,1.417
				c0,2.127,2.846,11.962,3.517,14.126c2.237,7.221,5.892,14.172,10.204,19.45c1.474,1.804,8.34,9.681,9.042,11.068
				C742.087,1331.25,737.193,1336.693,733.461,1340.591z" class="prop5"></path>
			
				<path fill-rule="evenodd" clip-rule="evenodd" fill="#7FCD68" stroke="#7FCD68" stroke-width="0.216" stroke-miterlimit="22.9256" d="
				M649.535,1340.591h4.564c2.013-0.222,7.07-5.012,8.73-6.519c5.777-5.243,9.687-11.575,11.624-20.761
				c0.805-3.814,1.873-10.511,1.873-15.237c0-0.918-1.018-1.063-1.607-1.063c-2.693,0-0.019,14.79-7.169,26.301
				c-3.054,4.916-12.217,14.444-16.13,14.444c-0.47,0-6.182-8.352-7.034-9.473c-2.1-2.761-7.573-12.252-9.195-15.471
				c-1.006-1.996-1.722-3.598-2.67-5.68c-0.934-2.052-4.537-10.161-4.669-12.247c2.598-1.819,5.356-3.782,7.332-6.598
				c0.038-0.053,0.088-0.135,0.125-0.188c1.647-2.383,1.861-2.573,2.999-5.954c1.452-4.316,2.8-12.428,2.329-16.921
				c-0.325-3.104,0.314-4.707-1.805-4.707c-3.016,0,2.121,16.847-6.899,26.658c-1.504,1.637-3.679,3.302-5.42,4.521l-2.719-8.449
				c-0.838-2.755-1.73-5.693-2.537-8.69c-0.82-3.047-1.749-5.868-2.477-8.769c-0.416-1.66-0.762-2.689-1.203-4.432
				c-0.449-1.774-0.753-3.673-1.776-3.673c-2.836,0-1.316,3.338-0.501,6.333c0.394,1.451,0.804,2.848,1.206,4.427
				c0.456,1.79,0.776,2.926,1.284,4.679c0.388,1.341,1.005,3.153,1.225,4.403c-6.15,1.895-8.522-6.023-10.176-6.023
				c-0.615,0-1.607-0.057-1.607,1.417c0,2.365,3.431,5.473,5.033,6.806c2.433,2.025,6.26,2.335,7.822,1.343
				c0.307,0.846,0.542,1.831,0.839,2.788c4.647,15.002,7.255,21.658,13.891,34.769c-2.204,0.68-4.814,1.417-7.499,1.417
				c-6.731,0-10.968-8.503-13.39-8.503c-0.826,0-2.124,1.799,0.146,4.057c3.048,3.031,7.451,7.989,11.905,7.989
				c3.032,0,8.24-0.203,10.712-1.772c0.588,1.162,1.153,2.13,1.837,3.239l5.851,8.557
				C646.341,1336.713,647.879,1338.577,649.535,1340.591z" class="prop5"></path>
		</g>
		
			<path fill-rule="evenodd" clip-rule="evenodd" fill="#7FCD68" stroke="#7FCD68" stroke-width="0.216" stroke-miterlimit="22.9256" d="
			M821.803,1293.732c1.373,7.663,3.142,15.238,8.064,20.217c0.821,0.831,1.558,1.356,2.417,2.118
			c-0.322,1.831-2.654,5.735-3.557,7.34c-1.985,3.526-3.914,5.867-5.32,8.197c-0.426,0.706-0.43,0.838-0.959,1.566
			c-2.338,3.214-3.59,5.28-6.284,6.922c-0.226,0.137-0.415,0.308-0.57,0.5h5.212c0.268-0.321,0.546-0.67,0.833-1.052
			c3.141-4.181,2.284-3.937,5.248-3.225c8.512,2.042,24.007,1.282,31.296-6.888c1.278-1.433,5.97-6.99,5.97-8.399
			c0-0.813,0.042-2.126-1.072-2.126c-2.114,0-2.823,4.275-7.869,8.721c-4.767,4.2-11.676,5.805-18.376,5.805
			c-4.018,0-7.064-0.708-9.909-0.708c0.297-1.687,1.505-2.818,2.981-5.268l2.986-5.261c1.765-3.105,3.771-8,4.937-11.893
			c1.392-4.651,5.7-23.685,5.7-29.307c0-0.431-0.554-1.063-1.071-1.063c-1.69,0-1.606,0.73-2.032,3.688
			c-0.245,1.691-0.421,2.823-0.699,4.39c-1.182,6.665-2.602,14.831-4.61,21.182c-0.448,1.419-0.968,2.214-1.228,3.69
			c-2.026-1.419-3.045-2.536-4.62-4.872c-1.233-1.829-2.158-4.405-2.882-6.816c-0.739-2.46-1.321-5.56-1.82-8.221
			C823.847,1290.633,821.571,1292.227,821.803,1293.732z" class="prop5"></path>
	</g>
	
		<path fill-rule="evenodd" clip-rule="evenodd" fill="#1A1A1A" stroke="#1A1A1A" stroke-width="0.5669" stroke-miterlimit="22.9256" d="
		M1703.652,1316.385c4.76-0.2,13-0.44,20.04-1.96c7.04-1.52,12.88-4.32,18.08-8.12c5.2-3.8,9.76-8.6,12.84-12.44
		c3.08-3.84,4.68-6.72,6.16-7.28c1.48-0.56,2.84,1.2,3.24,4.28c0.4,3.08-0.16,7.48-2.76,14.56c-2.6,7.08-7.24,16.84-12.04,23.64
		c-4.8,6.8-9.76,10.64-12.88,12.24c-3.12,1.6-4.4,0.96-6.44-0.4c-2.04-1.36-4.84-3.44-7.498-4.515
		c-2.657-1.075-5.173-1.144-10.493-1.665c-5.32-0.52-13.445-1.49-16.507-4.536c-3.062-3.045-1.062-8.165,0.578-10.805
		C1697.613,1316.745,1698.892,1316.585,1703.652,1316.385z" class="prop13"></path>
	
		<path fill-rule="evenodd" clip-rule="evenodd" fill="#73302D" stroke="#73302D" stroke-width="0.5669" stroke-miterlimit="22.9256" d="
		M1348.812,1296.345c3.04,8,9.44,19.2,20.72,25.68c11.28,6.48,27.44,8.24,51.6,7.52c24.16-0.72,56.32-3.92,82.4-6
		c26.08-2.08,46.08-3.04,62.88-0.88c16.8,2.16,30.4,7.44,55.28,10.48c24.88,3.04,61.04,3.84,79.2,3.28
		c18.16-0.56,18.32-2.48,18.8-6.56c0.48-4.08,1.28-10.32-1.12-13.36c-2.4-3.04-8-2.88-34.96-8.96
		c-26.96-6.08-75.28-18.4-101.68-24.32c-26.4-5.92-30.88-5.44-52.08-8.08c-21.2-2.64-59.12-8.4-86.772-12.506
		c-27.652-4.106-45.035-6.558-59.435-3.598c-14.4,2.96-25.816,11.332-31.685,17.918
		C1346.092,1283.545,1345.772,1288.345,1348.812,1296.345z" class="prop37"></path>
	
		<path fill-rule="evenodd" clip-rule="evenodd" fill="#1A1A1A" stroke="#1A1A1A" stroke-width="0.5669" stroke-miterlimit="22.9256" d="
		M1547.925,1308.281c2.844,3.823,7.678,10.5,12.896,15.464c5.218,4.965,10.818,8.218,16.885,10.378
		c6.067,2.161,12.601,3.229,17.508,3.615c4.907,0.386,8.189,0.088,9.484,0.996c1.296,0.908,0.606,3.023-1.715,5.086
		c-2.321,2.064-6.274,4.077-13.59,5.911c-7.316,1.834-17.995,3.49-26.318,3.348c-8.322-0.142-14.287-2.082-17.365-3.761
		c-3.078-1.679-3.27-3.097-3.293-5.549c-0.023-2.452,0.12-5.936-0.486-8.738c-0.607-2.802-1.964-4.92-4.528-9.611
		c-2.564-4.69-6.333-11.953-5.538-16.198c0.794-4.245,6.152-5.473,9.258-5.602
		C1544.229,1303.491,1545.082,1304.459,1547.925,1308.281z" class="prop13"></path>
	
		<path fill-rule="evenodd" clip-rule="evenodd" fill="#F1B689" stroke="#F1B689" stroke-width="0.5669" stroke-miterlimit="22.9256" d="
		M1337.572,1165.624c-1.72-4.16-4.36-10.56-5.211-18.31c-0.851-7.751,0.087-16.852,1.346-22.231
		c1.259-5.378,2.839-7.034,6.049-7.843c3.211-0.809,8.054-0.772,10.275-5.114s1.821-13.062-0.019-20.542
		c-1.84-7.48-5.12-13.72-7.76-16.8c-2.64-3.08-4.64-3-5.864-4.802c-1.224-1.802-1.673-5.486-4.905-8.944
		c-3.232-3.458-9.248-6.689-16.144-8.127c-6.896-1.438-14.671-1.082-22.159,2.376c-7.488,3.458-14.688,10.018-18.128,18.018
		c-3.44,8-3.12,17.44-0.16,24.64s8.56,12.16,12.16,15.68s5.2,5.6,6.08,8.4s1.04,6.32,0.4,9.44c-0.64,3.12-2.08,5.84-3.6,8.32
		c-1.52,2.48-3.12,4.72-2.32,8.96c0.8,4.24,4,10.48,8.96,15.68s11.68,9.36,19.36,10.72c7.68,1.36,16.32-0.08,20.24-1.76
		C1340.093,1171.705,1339.292,1169.785,1337.572,1165.624z" class="prop12"></path>
	<path fill-rule="evenodd" clip-rule="evenodd" stroke="#000000" stroke-width="0.5669" stroke-miterlimit="22.9256" d="
		M1335.605,1050.495c0.073,2.471-0.582,6.131-2.702,8.051c-2.12,1.92-5.705,2.099-9.738,2.189c-4.033,0.09-8.513,0.09-10.753,1.65
		c-2.24,1.56-2.24,4.68-1.4,6.4c0.84,1.72,2.52,2.04,3.64,3.64c1.12,1.6,1.68,4.48,0.68,6.36c-1,1.88-3.56,2.76-4.08,3.72
		c-0.52,0.96,1,2,2.04,3.4c1.04,1.4,1.6,3.16,0.88,4.64c-0.72,1.48-2.72,2.68-4.56,3.08c-1.84,0.4-3.52,0-5.6-1.24
		c-2.08-1.24-4.56-3.32-6.72-4.32c-2.16-1-4-0.92-5.56,0.36c-1.56,1.28-2.84,3.76-2.8,6.16c0.04,2.4,1.4,4.72,3.28,6.52
		c1.88,1.8,4.28,3.08,5.92,3.72c1.64,0.64,2.52,0.64,2.2,1.76c-0.32,1.12-1.84,3.36-2.16,5.36c-0.32,2,0.56,3.76,0.68,5.84
		c0.12,2.08-0.52,4.48-1.471,6.022c-0.951,1.543-2.213,2.228-3.573,3.347c-1.36,1.12-2.818,2.675-4.467,2.813
		s-3.489-1.142-4.609-3.383c-1.12-2.24-1.52-5.44-2.72-7.28c-1.2-1.84-3.2-2.32-5.32-3.44c-2.12-1.12-4.36-2.88-6.04-6.04
		c-1.68-3.16-2.8-7.72-3.08-12.28c-0.28-4.56,0.28-9.12,1.12-12.56c0.84-3.44,1.96-5.76,1.52-8.2c-0.44-2.44-2.44-5-2.08-7.92
		c0.36-2.92,3.08-6.2,6.04-8.92c2.96-2.72,6.16-4.88,9.613-5.626c3.453-0.747,7.16-0.08,10.6,0.96c3.44,1.04,6.613,2.453,7.88,1.68
		c1.267-0.773,0.627-3.733,2.956-4.584c2.329-0.851,7.629,0.406,12.228-0.154c4.6-0.56,8.501-2.938,11.132-4.367
		c2.63-1.429,3.99-1.909,5.07-1.509C1334.732,1046.745,1335.532,1048.025,1335.605,1050.495z" fill="#000000" class="prop36"></path>
	
		<path fill-rule="evenodd" clip-rule="evenodd" fill="#39789B" stroke="#39789B" stroke-width="0.5669" stroke-miterlimit="22.9256" d="
		M1289.932,1142.145c2,1.16,5.84,3.48,11.36,4.84c5.52,1.36,12.72,1.76,18.238,1.636c5.518-0.124,9.354-0.772,11.272-1.096
		c1.918-0.324,1.918-0.324,2.055-0.229c0.138,0.095,0.412,0.285,1.094,0.688c0.682,0.404,1.772,1.023,7.156,5.572
		c5.385,4.549,15.065,13.029,21.065,19.229c6,6.2,8.32,10.12,10.36,15.76c2.04,5.64,3.8,13,6.92,19.52
		c3.12,6.52,7.6,12.2,12.36,18.04c4.76,5.84,9.8,11.84,9.88,20.32c0.08,8.48-4.8,19.44-9.68,25.2c-4.88,5.76-9.76,6.32-15.2,10.04
		c-5.44,3.72-11.44,10.6-14.77,15.425c-3.331,4.825-3.992,7.596-2.942,11.003c1.05,3.407,3.812,7.45,2.182,7.224
		c-1.629-0.225-7.65-4.719-15.74-13.046c-8.09-8.327-18.25-20.487-28.89-32.807c-10.64-12.32-21.76-24.8-29.72-37.84
		c-7.96-13.04-12.76-26.64-15.84-36.32c-3.08-9.68-4.44-15.44-3.646-21.853c0.793-6.413,3.74-13.48,7.46-19
		c3.72-5.52,8.214-9.493,10.54-11.48C1287.772,1140.985,1287.933,1140.985,1289.932,1142.145z" class="prop35"></path>
	
		<path fill-rule="evenodd" clip-rule="evenodd" fill="#003B5C" stroke="#003B5C" stroke-width="0.5669" stroke-miterlimit="22.9256" d="
		M1289.932,1142.145c2,1.16,5.84,3.48,11.36,4.84c5.52,1.36,12.72,1.76,18.238,1.636c5.518-0.124,9.354-0.772,11.272-1.096
		c1.918-0.324,1.918-0.324,2.055-0.229c0.138,0.095,0.412,0.285,1.094,0.688c0.524,0.311,1.289,0.748,4.058,2.998
		c-1.557,0.48-3.353,0.837-5.45,1.099c-6.4,0.8-15.6,0.72-24.686-0.234c-9.086-0.954-18.057-2.782-22.457-6.022
		c-0.617-0.454-1.145-0.937-1.592-1.436c0.61-0.548,1.158-1.022,1.621-1.416C1287.772,1140.985,1287.933,1140.985,1289.932,1142.145
		z" class="prop34"></path>
	
		<path fill-rule="evenodd" clip-rule="evenodd" fill="#03344C" stroke="#03344C" stroke-width="0.5669" stroke-miterlimit="22.9256" d="
		M1298.244,1203.005c0.564,3.805,3.613,11.335,5.532,15.415c1.92,4.08,2.712,4.71,4.267,4.865c1.556,0.155,3.876-0.165,8.236-2.085
		c4.36-1.92,10.76-5.44,15.47-9.218c4.71-3.777,7.73-7.812,9.37-10.452c1.64-2.64,1.9-3.885-0.25-4.787
		c-2.15-0.902-6.71-1.462-13.67-1.022c-6.96,0.44-16.32,1.88-21.96,2.64C1299.6,1199.12,1297.68,1199.2,1298.244,1203.005z" class="prop33"></path>
	
		<path fill-rule="evenodd" clip-rule="evenodd" fill="#F1B689" stroke="#F1B689" stroke-width="0.5669" stroke-miterlimit="22.9256" d="
		M1331.007,1185.047c4.206,5.458,10.766,14.418,16.645,21.538c5.88,7.12,11.08,12.4,15.04,15.28s6.68,3.36,11.327,3.667
		c4.647,0.307,11.22,0.44,15.98,0.92c4.76,0.48,7.707,1.307,9.12,3.463c1.413,2.156,1.293,5.642-3.267,11.042
		c-4.56,5.4-13.559,12.714-20.939,15.531c-7.38,2.817-13.14,1.138-23.3-4.783c-10.16-5.92-24.72-16.08-34.36-24.04
		c-9.64-7.96-14.36-13.72-18.24-19.52c-3.88-5.8-6.92-11.64-6.12-17.08c0.8-5.44,5.44-10.48,11.114-12.978
		c5.675-2.497,12.384-2.452,16.663-1.452C1324.95,1177.635,1326.802,1179.59,1331.007,1185.047z" class="prop12"></path>
	
		<path fill-rule="evenodd" clip-rule="evenodd" fill="#004C71" stroke="#004C71" stroke-width="0.5669" stroke-miterlimit="22.9256" d="
		M1287.492,1199.865c-4.6-9.84-6.68-22.72-6.76-31.8c-0.08-9.08,1.84-14.36,6.8-16.2c4.96-1.84,12.96-0.24,20.24,2.4
		c7.28,2.64,13.84,6.32,18.453,9.68c4.613,3.36,7.28,6.4,9.04,9.4c1.76,3,2.614,5.96,3.44,9.64c0.827,3.68,1.626,8.08,2.307,10.76
		c0.68,2.68,1.24,3.64,1.12,4.08c-0.12,0.44-0.92,0.36-7.52,2.68c-6.6,2.32-19,7.04-25.16,10c-6.16,2.96-6.08,4.16-5.44,6.08
		c0.64,1.92,1.84,4.56,2.32,5.8c0.48,1.24,0.24,1.08-3.44-2.4C1299.213,1216.505,1292.092,1209.705,1287.492,1199.865z" class="prop32"></path>
	
		<path fill-rule="evenodd" clip-rule="evenodd" fill="#FFFFFF" stroke="#FFFFFF" stroke-width="0.5669" stroke-miterlimit="22.9256" d="
		M1340.132,1189.796c0.309,1.491,0.605,2.862,0.881,3.949l0.021,0.08c-8.204,0.434-14.156,2.991-21.684,6.004
		c-5.46,2.185-10.841,4.365-16.072,6.968l-2.76,1.801c-1.607,1.45-1.083,5.15-0.366,8.735c-1.405-1.406-2.99-3.082-4.615-5.024
		c-0.011-0.453-0.017-0.951-0.017-1.509c0-4.923,4.895-6.999,8.32-8.72c3.118-1.568,8.534-3.667,11.942-5.099
		c2.078-0.873,4.194-1.733,6.175-2.465C1328.562,1192.074,1333.866,1190.116,1340.132,1189.796z" class="prop31"></path>
	
		<path fill-rule="evenodd" clip-rule="evenodd" fill="#551E1C" stroke="#551E1C" stroke-width="0.5669" stroke-miterlimit="22.9256" d="
		M1393.49,1329.781c-11.558-1.036-19.718-5.036-26.199-9.192c-6.481-4.156-11.284-8.468-11.899-17.434
		c-0.615-8.966,2.957-22.586,10.637-36.711c7.682-14.124,19.472-28.752,36.407-49.546c16.935-20.794,39.016-47.754,53.495-60.354
		c14.48-12.6,21.36-10.84,28.88-6.12s15.68,12.4,29.386,41.6c13.707,29.2,32.96,79.92,42.587,105.28
		c9.627,25.36,9.627,25.36,7.84,26.88c-1.787,1.52-5.36,4.56-10.267,6.72c-4.906,2.16-11.147,3.44-14.827,3.44
		s-4.8-1.28-13.12-15.84c-8.32-14.56-23.84-42.4-33.28-62.88c-9.44-20.48-12.8-33.6-14.72-39.6c-1.92-6-2.4-4.88-9.402,14.796
		c-7.002,19.676-20.526,57.908-34.766,77.987C1420.004,1328.888,1405.048,1330.817,1393.49,1329.781z" class="prop30"></path>
	
		<path fill-rule="evenodd" clip-rule="evenodd" fill="#7C3835" stroke="#7C3835" stroke-width="0.5669" stroke-miterlimit="22.9256" d="
		M1356.439,1308.62c-0.334-0.986-0.598-2.043-0.784-3.182c5.644,4.462,12.488,8.898,20.061,6.678
		c4.355-1.276,7.718-4.102,10.826-7.174c7.103-7.021,8.76-15.762,11.17-25.31c3.561-14.108,6.68-20.512,13.175-32.186
		c3.361-6.04,8.516-13.785,12.657-19.263l9.876-12.924c0.743-0.94,1.343-1.625,2.055-2.505l11.557-13.403
		c0.378-0.451,0.679-0.666,1.072-1.088c3.666-3.94,7.093-8.186,10.239-12.562l3.876-5.244c1.839-2.456,5.533-6.907,9.342-7.577
		h1.865c0.984,0.185,1.958,0.686,2.89,1.606c3.271,3.23-0.908,9.264,1.973,10.027c3.733,0.989,8.508-0.669,9.615,6.225
		c2.329,14.515,5.795,24.174,9.908,37.612c0.618,2.019,1.307,3.932,1.979,5.941c3.874,11.595,8.089,23.166,12.831,34.449
		c0.834,1.984,1.499,3.687,2.293,5.627c3.595,8.78,10.609,24.215,15.165,32.355c0.95,1.697,1.688,3.444,2.56,5.12l11.272,20.407
		c0.298,0.516,0.581,1.026,0.86,1.535c-0.791,0.146-1.556,0.264-2.282,0.354c-1.677-2.963-3.22-5.76-4.326-7.901l-6.768-12.432
		c-1.586-2.605-9.125-17.731-10.307-20.653c-0.682-1.683-1.694-3.603-2.527-5.393c-5.829-12.509-10.815-25.431-15.644-38.356
		c-1.414-3.784-2.554-7.791-4.044-11.556c-1.53-3.864-2.651-7.552-3.824-11.536l-3.717-11.884c-1.219-3.816-2.312-7.984-3.33-12.03
		c-2.734-10.86-0.628-15.419-7.68-15.6c-6.735-0.174-4.737-3.399-4.786-8.408c-0.011-1.13-0.076-1.85-0.661-2.465
		c-0.651-0.685-1.733-0.886-2.714-0.886c-4.937,0-11.472,11.315-14.715,15.285l-24.197,28.363
		c-6.943,8.715-12.49,17.096-18.495,26.385c-1.027,1.589-1.804,3.018-2.787,4.653c-1.901,3.161-3.462,6.323-5.166,9.714
		c-6.715,13.357-7.01,24.886-10.717,34.163c-1.57,3.928-2.96,6.398-5.315,9.565c-2.127,2.859-4.711,5.195-7.542,7.337
		c-3.642,2.756-7.429,4.215-12.585,4.215C1365.952,1314.72,1360.892,1311.871,1356.439,1308.62z" class="prop29"></path>
	
		<path fill-rule="evenodd" clip-rule="evenodd" fill="#00645C" stroke="#00645C" stroke-width="0.5669" stroke-miterlimit="22.9256" d="
		M1305.985,1056.062c1.878-1.195,7.638-2.616,11.918-6.766c4.28-4.15,7.08-11.03,8.44-16.55c1.36-5.52,1.28-9.68,3.16-12.36
		c1.88-2.68,5.72-3.88,8.6-2.64c2.88,1.24,4.8,4.92,4.84,9.52c0.04,4.6-1.8,10.12-8.44,16.16c-6.64,6.04-18.08,12.6-23.92,15.88
		c-5.84,3.28-6.08,3.28-5.558,2.715c0.522-0.564,1.807-1.693,1.446-2.743C1306.112,1058.229,1304.108,1057.258,1305.985,1056.062z" class="prop9"></path>
	
		<path fill-rule="evenodd" clip-rule="evenodd" fill="#007870" stroke="#007870" stroke-width="0.5669" stroke-miterlimit="22.9256" d="
		M1276.183,1097.766c6.54-4.842,18.073-14.703,25.995-23.343c7.922-8.639,12.232-16.057,14.027-20.126
		c1.795-4.069,1.075-4.789-0.845-6.244c-1.921-1.455-5.042-3.646-10.566-5.682c-5.524-2.036-13.45-3.917-22.459-1.71
		c-9.009,2.208-19.101,8.504-24.164,16.685c-5.062,8.181-5.095,18.246-2.861,26.045c2.235,7.799,6.737,13.331,9.762,16.186
		C1268.097,1102.431,1269.644,1102.608,1276.183,1097.766z" class="prop28"></path>
	
		<path fill-rule="evenodd" clip-rule="evenodd" fill="#00A8A3" stroke="#00A8A3" stroke-width="0.5669" stroke-miterlimit="22.9256" d="
		M1281.105,1093.931c6.494-5.265,14.885-12.759,21.073-19.507c7.922-8.639,12.232-16.057,14.027-20.126
		c1.795-4.069,1.075-4.789-0.845-6.244c-1.921-1.455-5.042-3.646-10.566-5.682c-5.524-2.036-13.45-3.917-22.459-1.71
		c-6.837,1.676-14.297,5.705-19.709,11.127c-0.371,3.066-0.25,6.681,0.671,11.093c1.937,9.281,7.412,22.083,16.132,29.683
		C1279.975,1093.04,1280.534,1093.496,1281.105,1093.931z" class="prop27"></path>
	<g>
		
			<path fill-rule="evenodd" clip-rule="evenodd" fill="#006A57" stroke="#006A57" stroke-width="0.5669" stroke-miterlimit="22.9256" d="
			M1093.541,1252.838h-7.963c-8.114,0-14.752,6.638-14.752,14.752v41.07c0,8.114,6.638,14.752,14.752,14.752h7.963
			c8.114,0,14.752-6.638,14.752-14.752v-41.07C1108.293,1259.476,1101.654,1252.838,1093.541,1252.838z" class="prop11"></path>
		
			<path fill-rule="evenodd" clip-rule="evenodd" fill="#006A57" stroke="#006A57" stroke-width="0.5669" stroke-miterlimit="22.9256" d="
			M954.435,1252.838h-7.963c-8.114,0-14.752,6.638-14.752,14.752v41.07c0,8.114,6.638,14.752,14.752,14.752h7.963
			c8.114,0,14.752-6.638,14.752-14.752v-41.07C969.188,1259.476,962.549,1252.838,954.435,1252.838z" class="prop11"></path>
		
			<path fill-rule="evenodd" clip-rule="evenodd" fill="#0B483A" stroke="#0B483A" stroke-width="0.5669" stroke-miterlimit="22.9256" d="
			M953.502,1251.135h-8.467c-8.627,0-15.686,7.059-15.686,15.686v12.925h39.838v-12.925
			C969.188,1258.193,962.129,1251.135,953.502,1251.135z" class="prop10"></path>
		
			<path fill-rule="evenodd" clip-rule="evenodd" fill="#0B483A" stroke="#0B483A" stroke-width="0.5669" stroke-miterlimit="22.9256" d="
			M1095.201,1251.135h-8.467c-8.628,0-15.686,7.059-15.686,15.686v12.925h39.839v-12.925
			C1110.887,1258.193,1103.828,1251.135,1095.201,1251.135z" class="prop10"></path>
		
			<path fill-rule="evenodd" clip-rule="evenodd" fill="#009076" stroke="#009076" stroke-width="0.5669" stroke-miterlimit="22.9256" d="
			M1003.725,1117.548h35.424c26.976,0,49.048,22.071,49.048,49.048v119.895c0,26.976-22.071,49.047-49.048,49.047h-35.424
			c-26.976,0-49.048-22.071-49.048-49.047v-119.895C954.677,1139.619,976.749,1117.548,1003.725,1117.548z" class="prop26"></path>
		
			<path fill-rule="evenodd" clip-rule="evenodd" fill="none" stroke="#75D4CA" stroke-width="3.8401" stroke-linecap="round" stroke-miterlimit="22.9256" stroke-dasharray="7.6802,11.5203" d="
			M1001.279,1163.447h40.317c18.142,0,32.986,14.844,32.986,32.986v93.828c0,18.142-14.844,32.986-32.986,32.986h-40.317
			c-18.142,0-32.986-14.844-32.986-32.986v-93.828C968.293,1178.29,983.136,1163.447,1001.279,1163.447z"></path>
		<g>
			
				<path fill-rule="evenodd" clip-rule="evenodd" fill="#2E6053" stroke="#2E6053" stroke-width="0.5669" stroke-miterlimit="22.9256" d="
				M1003.725,1117.548h35.423c26.976,0,49.048,22.072,49.048,49.048v8.271c-23.907,0.769-42.61,9.247-56.096,28.2h-11.628
				c-13.993-19.892-34.534-25.91-65.222-28.203v-13.92c0-0.712,0.019-1.42,0.05-2.125
				C959.056,1135.504,979.394,1117.548,1003.725,1117.548z" class="prop3"></path>
			
				<path fill-rule="evenodd" clip-rule="evenodd" fill="#2E6053" stroke="#2E6053" stroke-width="0.5669" stroke-miterlimit="22.9256" d="
				M1003.725,1117.548h35.423c7.53,0,14.676,1.721,21.068,4.787c-5.461,14.548-18.993,24.848-34.824,24.848
				c-16.799,0-31.009-11.598-35.734-27.563C994.12,1118.275,998.841,1117.548,1003.725,1117.548z" class="prop3"></path>
			
				<path fill-rule="evenodd" clip-rule="evenodd" fill="#2E6053" stroke="#2E6053" stroke-width="0.5669" stroke-miterlimit="22.9256" d="
				M1017.287,1117.548h15.668v5.407c0,4.309-3.525,7.834-7.834,7.834h0c-4.309,0-7.834-3.525-7.834-7.834V1117.548z" class="prop3"></path>
		</g>
		
			<path fill-rule="evenodd" clip-rule="evenodd" fill="#39C2B2" stroke="#39C2B2" stroke-width="0.5669" stroke-miterlimit="22.9256" d="
			M1002.703,1169.094h37.468c16.86,0,30.655,13.794,30.655,30.655v87.196c0,16.86-13.795,30.655-30.655,30.655h-37.468
			c-16.86,0-30.655-13.794-30.655-30.655v-87.196C972.049,1182.888,985.843,1169.094,1002.703,1169.094z" class="prop25"></path>
		
			<path fill-rule="evenodd" clip-rule="evenodd" fill="#2E6053" stroke="#2E6053" stroke-width="0.5669" stroke-miterlimit="22.9256" d="
			M1002.703,1169.094h37.467c8.833,0,16.824,3.788,22.431,9.818c-12.399,4.353-22.789,12.083-31.165,23.856h-11.628
			c-9.536-13.556-22.115-20.668-38.872-24.549C986.502,1172.592,994.213,1169.094,1002.703,1169.094z" class="prop3"></path>
		
			<path fill-rule="evenodd" clip-rule="evenodd" fill="#00867D" stroke="#00867D" stroke-width="0.216" stroke-miterlimit="22.9256" d="
			M972.049,1207.605h98.777v-1.423c-0.043-0.005-0.089-0.008-0.136-0.008h-98.504c-0.047,0-0.092,0.003-0.136,0.009V1207.605z" class="prop24"></path>
		
			<path fill-rule="evenodd" clip-rule="evenodd" fill="#E6E6E6" stroke="#E6E6E6" stroke-width="0.5669" stroke-miterlimit="22.9256" d="
			M973.073,1201.61c2.83,0,5.124,2.294,5.124,5.124c0,2.83-2.294,5.124-5.124,5.124c-0.351,0-0.694-0.035-1.025-0.103v-1.796
			c0.323,0.103,0.667,0.158,1.025,0.158c1.869,0,3.384-1.515,3.384-3.384c0-1.869-1.515-3.383-3.384-3.383
			c-0.357,0-0.702,0.055-1.025,0.158v-1.795C972.38,1201.646,972.723,1201.61,973.073,1201.61z" class="prop1"></path>
		
			<path fill-rule="evenodd" clip-rule="evenodd" fill="#E6E6E6" stroke="#E6E6E6" stroke-width="0.5669" stroke-miterlimit="22.9256" d="
			M1069.801,1201.61c-2.83,0-5.124,2.294-5.124,5.124c0,2.83,2.294,5.124,5.124,5.124c0.351,0,0.693-0.035,1.025-0.103v-1.796
			c-0.323,0.103-0.667,0.158-1.025,0.158c-1.869,0-3.384-1.515-3.384-3.384c0-1.869,1.515-3.383,3.384-3.383
			c0.357,0,0.701,0.055,1.025,0.158v-1.795C1070.494,1201.646,1070.152,1201.61,1069.801,1201.61z" class="prop1"></path>
		
			<path fill-rule="evenodd" clip-rule="evenodd" fill="#E6E6E6" stroke="#E6E6E6" stroke-width="0.5669" stroke-miterlimit="22.9256" d="
			M973.073,1234.441c2.83,0,5.124,2.294,5.124,5.124c0,2.83-2.294,5.124-5.124,5.124c-0.351,0-0.694-0.035-1.025-0.103v-1.796
			c0.323,0.103,0.667,0.158,1.025,0.158c1.869,0,3.384-1.515,3.384-3.384c0-1.869-1.515-3.384-3.384-3.384
			c-0.357,0-0.702,0.056-1.025,0.158v-1.796C972.38,1234.477,972.723,1234.441,973.073,1234.441z" class="prop1"></path>
		
			<path fill-rule="evenodd" clip-rule="evenodd" fill="#E6E6E6" stroke="#E6E6E6" stroke-width="0.5669" stroke-miterlimit="22.9256" d="
			M973.073,1275.632c2.83,0,5.124,2.294,5.124,5.124c0,2.83-2.294,5.124-5.124,5.124c-0.351,0-0.694-0.035-1.025-0.103v-1.796
			c0.323,0.103,0.667,0.158,1.025,0.158c1.869,0,3.384-1.515,3.384-3.384c0-1.869-1.515-3.384-3.384-3.384
			c-0.357,0-0.702,0.056-1.025,0.158v-1.796C972.38,1275.668,972.723,1275.632,973.073,1275.632z" class="prop1"></path>
		
			<path fill-rule="evenodd" clip-rule="evenodd" fill="#E6E6E6" stroke="#E6E6E6" stroke-width="0.5669" stroke-miterlimit="22.9256" d="
			M1069.801,1235.001c-2.83,0-5.124,2.294-5.124,5.124c0,2.83,2.294,5.124,5.124,5.124c0.351,0,0.693-0.035,1.025-0.103v-1.796
			c-0.323,0.103-0.667,0.158-1.025,0.158c-1.869,0-3.384-1.515-3.384-3.384s1.515-3.384,3.384-3.384
			c0.357,0,0.701,0.056,1.025,0.158v-1.796C1070.494,1235.036,1070.152,1235.001,1069.801,1235.001z" class="prop1"></path>
		
			<path fill-rule="evenodd" clip-rule="evenodd" fill="#00645C" stroke="#00645C" stroke-width="0.216" stroke-miterlimit="22.9256" d="
			M1070.825,1281.086c-0.079,0.03-0.161,0.062-0.245,0.097c-0.54,0.226-1.013,0.417-1.565,0.623c-3.159,1.177-6.251,2.5-9.377,3.677
			c-2.086,0.786-4.121,1.63-6.224,2.454l-31.106,12.282c-0.277,0-2.804-1.022-3.261-1.193l-4.025-1.52
			c-0.284-0.105-0.48-0.195-0.785-0.309l-14.529-5.535c-0.536-0.201-1.034-0.403-1.582-0.606c-0.562-0.208-1.077-0.401-1.635-0.626
			l-12.883-4.919c-0.56-0.21-1.058-0.396-1.593-0.596l-8.868-3.389c-0.204-0.076-0.643-0.251-1.099-0.428v1.526
			c5.715,2.185,11.416,4.427,17.145,6.564c8.118,3.028,16.175,6.231,24.299,9.261c0.575,0.214,1.073,0.398,1.629,0.632l3.384,1.286
			c0.532,0.199,1.15,0.492,1.72,0.616v0.139c-0.58,0.126-1.147,0.423-1.7,0.635l-3.44,1.372c-0.585,0.226-1.158,0.484-1.71,0.696
			c-5.161,1.979-10.189,4.14-15.346,6.161l-17.821,7.324c-0.287,0.116-0.612,0.246-0.871,0.367c-1.651,0.768-3.36,1.365-5.004,2.135
			c-0.296,0.139-0.522,0.207-0.819,0.346c-0.324,0.153-0.855,0.383-1.466,0.651v1.603c0.864-0.398,1.737-0.788,2.606-1.188
			l3.271-1.391c0.248-0.115,0.568-0.24,0.82-0.346l40.535-16.468c0.578-0.232,1.085-0.428,1.664-0.669
			c0.495-0.206,1.088-0.637,1.629-0.439c0.592,0.217,1.089,0.429,1.688,0.652c5.616,2.093,11.217,4.331,16.843,6.429l26.987,10.294
			c0.159,0.061,1.375,0.538,2.733,1.064v-1.558c-6.367-2.397-12.676-4.883-19.047-7.267c-0.573-0.215-1.088-0.388-1.642-0.62
			c-2.12-0.889-4.256-1.645-6.44-2.461c-1.1-0.41-2.112-0.82-3.218-1.232c-5.305-1.979-10.536-4.088-15.847-6.04l-0.391-0.19
			c0.625-0.136,11.373-4.477,12.776-5.018c1.051-0.406,2.086-0.845,3.176-1.272c1.091-0.428,2.098-0.822,3.197-1.252
			c4.244-1.663,8.543-3.322,12.746-5.046c2.107-0.865,4.292-1.642,6.393-2.504c1.059-0.435,2.1-0.848,3.185-1.263l5.112-2V1281.086
			L1070.825,1281.086z M1070.825,1278.471l-5.294-2.071c-1.124-0.442-2.213-0.867-3.313-1.281c-2.19-0.825-4.271-1.728-6.488-2.555
			c-2.241-0.836-4.337-1.692-6.553-2.563l-3.254-1.269c-0.563-0.236-1.063-0.401-1.631-0.63c-0.553-0.223-1.085-0.425-1.617-0.644
			c-2.165-0.89-4.36-1.674-6.561-2.556c-1.099-0.441-2.134-0.857-3.241-1.281c-1.065-0.408-2.134-0.857-3.248-1.273l-6.327-2.497
			c-0.146-0.082-0.081-0.041-0.173-0.116c0.464-0.101,5.53-2.159,6.023-2.363l6.051-2.407c1.047-0.412,1.992-0.789,3.049-1.182
			c1.043-0.388,2.015-0.821,3.027-1.202l9.084-3.604c3.034-1.263,6.067-2.336,9.093-3.595l6.068-2.392
			c1.782-0.715,3.52-1.406,5.305-2.1v-2.322l-0.074-0.024l-5.613-1.843c-0.531-0.165-1.021-0.341-1.599-0.521
			c-3.756-1.172-7.417-2.485-11.188-3.653c-0.515-0.159-1.078-0.313-1.614-0.507l-3.182-1.057c-0.317-0.098-0.459-0.163-0.761-0.262
			l-8.83-2.868c-0.535-0.175-1.062-0.341-1.585-0.534c-0.528-0.196-1.096-0.351-1.594-0.526l-3.214-1.027
			c-0.577-0.18-1.052-0.354-1.598-0.522c-0.525-0.162-1.031-0.334-1.6-0.521c-1.329-0.435-3.527-1.279-4.803-1.557
			c0.167-0.214,0.375-0.223,0.697-0.322c0.301-0.092,0.489-0.152,0.768-0.255c1.342-0.497,3.337-1.072,4.715-1.501
			c5.28-1.646,10.466-3.461,15.742-5.096c6.34-1.965,12.564-4.139,18.901-6.104c1.075-0.333,2.061-0.692,3.141-1.026l3.29-1.043
			v-1.541c-2.554,0.788-6.84,2.254-7.788,2.548c-2.527,0.785-7.35,2.29-9.612,3.11c-1.745,0.632-4.694,1.515-6.483,2.073
			c-2.169,0.676-4.222,1.411-6.393,2.087c-1.74,0.542-4.888,1.494-6.474,2.081c-1.06,0.393-2.141,0.659-3.208,1.033
			c-1.022,0.359-2.162,0.696-3.217,1.025c-1.079,0.336-2.145,0.718-3.197,1.043c-0.57,0.177-1.018,0.342-1.598,0.522
			c-1.997,0.621-1.328,0.698-3.29,0.034l-3.197-1.043c-0.51-0.16-1.038-0.338-1.599-0.522l-15.983-5.217
			c-0.317-0.098-0.459-0.163-0.761-0.262l-8.829-2.868c-1.084-0.335-2.13-0.734-3.177-1.062c-1.069-0.334-2.178-0.683-3.199-1.041
			c-1.06-0.372-2.132-0.673-3.214-1.026c-1.075-0.351-2.133-0.736-3.177-1.062c-0.473-0.148-2.655-0.902-4.382-1.447v1.542
			l13.99,4.548c0.527,0.178,1.046,0.341,1.583,0.536c1.887,0.684,4.475,1.375,6.235,2.026c1.542,0.571,3.063,0.957,4.619,1.521
			c2.218,0.804,5.533,1.82,7.84,2.542c0.998,0.312,2.063,0.714,3.065,1.027l6.301,2.034c0.488,0.151,1.021,0.32,1.539,0.507
			c0.371,0.134,1.298,0.316,1.518,0.597c-0.365,0.028-1.285,0.366-1.645,0.478l-11.269,3.646c-1.557,0.577-3.228,1.021-4.79,1.57
			l-4.886,1.549c-1.081,0.337-2.131,0.714-3.253,1.061l-6.467,2.088c-1.089,0.356-2.151,0.647-3.203,1.037
			c-1.102,0.408-2.159,0.668-3.25,1.063l-7.928,2.552v1.496c0.487-0.115,0.968-0.32,1.427-0.463
			c3.513-1.089,7.216-2.376,10.724-3.46c1.022-0.316,2.045-0.685,3.028-0.992l9.182-2.956c4.134-1.29,8.128-2.656,12.23-3.93
			c1.01-0.314,2.031-0.654,3.029-0.991l9.237-2.98c0.36-0.101,0.947,0.169,1.487,0.336l7.601,2.487c4.016,1.24,8.247,2.759,12.228,4
			c3.041,0.948,6.209,2.083,9.143,2.992l9.144,2.991c1.036,0.35,2.141,0.647,3.1,0.995l4.576,1.491
			c0.531,0.164,0.995,0.375,1.551,0.496c-0.23,0.294-10.514,4.209-12.12,4.867l-6.069,2.391c-3.464,1.442-7.16,2.788-10.654,4.221
			l-3.029,1.201c-2.479,0.924-5.151,2.029-7.625,3.021l-6.065,2.394c-0.499,0.193-2.789,1.173-3.133,1.173l-30.671-11.995
			c-3.915-1.534-8.474-3.383-12.277-4.789l-4.598-1.819c-0.299-0.111-1.17-0.407-1.45-0.604v1.58c2.377,0.91,4.697,1.895,7.089,2.79
			c3.115,1.166,6.113,2.442,9.229,3.607c3.116,1.166,6.061,2.426,9.176,3.587l4.599,1.818c2.066,0.834,4.101,1.538,6.142,2.391
			l7.657,2.991c0.526,0.219,0.988,0.388,1.515,0.599c0.504,0.202,1.046,0.49,1.582,0.607c-0.24,0.306-5.742,2.346-6.466,2.645
			c-1.085,0.449-2.182,0.854-3.294,1.3c-3.261,1.308-6.581,2.544-9.818,3.891c-2.192,0.912-4.409,1.705-6.589,2.599
			c-3.253,1.335-6.562,2.556-9.817,3.891c-1.083,0.444-2.17,0.89-3.29,1.304c-2.226,0.823-4.368,1.748-6.531,2.583
			c-0.077,0.03-0.539,0.204-1.184,0.449v1.565l20.674-8.193c1.054-0.432,2.148-0.818,3.197-1.252l1.57-0.618
			c0.538-0.208,1.023-0.395,1.571-0.616c0.546-0.221,1.012-0.403,1.562-0.626c0.275-0.111,0.484-0.202,0.771-0.322l10.305-4.061
			c1.089-0.44,2.107-0.812,3.197-1.252l5.529-2.2c0.94-0.396,0.834-0.187,2.437,0.411l7.912,3.1
			c2.627,1.007,5.267,2.116,7.911,3.101c0.564,0.21,1.075,0.401,1.635,0.626l14.295,5.614c0.565,0.222,1.059,0.415,1.624,0.637
			l6.337,2.488c1.864,0.778,4.394,1.695,6.398,2.5l1.852,0.727V1278.471z" class="prop9"></path>
		
			<path fill-rule="evenodd" clip-rule="evenodd" fill="#E6E6E6" stroke="#E6E6E6" stroke-width="0.5669" stroke-miterlimit="22.9256" d="
			M1069.801,1275.895c-2.83,0-5.124,2.294-5.124,5.124c0,2.83,2.294,5.124,5.124,5.124c0.351,0,0.693-0.035,1.025-0.103v-1.796
			c-0.323,0.103-0.667,0.158-1.025,0.158c-1.869,0-3.384-1.515-3.384-3.384c0-1.869,1.515-3.384,3.384-3.384
			c0.357,0,0.701,0.056,1.025,0.158v-1.796C1070.494,1275.931,1070.152,1275.895,1069.801,1275.895z" class="prop1"></path>
		
			<rect x="1016.941" y="1195.763" fill-rule="evenodd" clip-rule="evenodd" fill="#008696" stroke="#008696" stroke-width="0.5669" stroke-miterlimit="22.9256" width="10.968" height="113.889" class="prop46"></rect>
		
			<path fill-rule="evenodd" clip-rule="evenodd" fill="#005E68" stroke="#005E68" stroke-width="0.5669" stroke-miterlimit="22.9256" d="
			M935.459,1290.521h171.957c12.097,0,21.995,9.898,21.995,21.995v6.08c0,12.097-9.897,21.995-21.995,21.995H935.459
			c-12.097,0-21.995-9.897-21.995-21.995v-6.08C913.464,1300.418,923.361,1290.521,935.459,1290.521z" class="prop7"></path>
		
			<path fill-rule="evenodd" clip-rule="evenodd" fill="#004D56" stroke="#004D56" stroke-width="0.5669" stroke-miterlimit="22.9256" d="
			M1129.41,1318.595c0,12.097-9.898,21.995-21.995,21.995H935.459c-7.539,0-14.223-3.844-18.19-9.669
			C1010.039,1334.547,1129.41,1318.595,1129.41,1318.595z" class="prop23"></path>
		
			<rect x="963.28" y="1290.521" fill-rule="evenodd" clip-rule="evenodd" fill="#0A302B" stroke="#0A302B" stroke-width="0.5669" stroke-miterlimit="22.9256" width="8.769" height="50.069" class="prop45"></rect>
		
			<rect x="1070.826" y="1290.521" fill-rule="evenodd" clip-rule="evenodd" fill="#0A302B" stroke="#0A302B" stroke-width="0.5669" stroke-miterlimit="22.9256" width="8.769" height="50.069" class="prop45"></rect>
		
			<path fill-rule="evenodd" clip-rule="evenodd" fill="#CCCCCC" stroke="#CCCCCC" stroke-width="0.5669" stroke-miterlimit="22.9256" d="
			M963.478,1307.176h8.373c1.205,0,2.19,0.986,2.19,2.191v12.377c0,1.205-0.986,2.19-2.19,2.19h-8.373
			c-1.205,0-2.191-0.986-2.191-2.19v-12.377C961.287,1308.162,962.273,1307.176,963.478,1307.176L963.478,1307.176z
			 M964.606,1309.434c-0.88,0-1.6,0.72-1.6,1.6v9.042c0,0.88,0.72,1.6,1.6,1.6h6.117c0.88,0,1.6-0.72,1.6-1.6v-9.042
			c0-0.88-0.72-1.6-1.6-1.6H964.606z" class="prop8"></path>
		
			<path fill-rule="evenodd" clip-rule="evenodd" fill="#CCCCCC" stroke="#CCCCCC" stroke-width="0.5669" stroke-miterlimit="22.9256" d="
			M1071.055,1307.176h8.373c1.205,0,2.19,0.986,2.19,2.191v12.377c0,1.205-0.986,2.19-2.19,2.19h-8.373
			c-1.205,0-2.19-0.986-2.19-2.19v-12.377C1068.865,1308.162,1069.85,1307.176,1071.055,1307.176L1071.055,1307.176z
			 M1072.183,1309.434c-0.88,0-1.6,0.72-1.6,1.6v9.042c0,0.88,0.72,1.6,1.6,1.6h6.117c0.88,0,1.6-0.72,1.6-1.6v-9.042
			c0-0.88-0.72-1.6-1.6-1.6H1072.183z" class="prop8"></path>
		
			<path fill-rule="evenodd" clip-rule="evenodd" fill="#005E68" stroke="#005E68" stroke-width="0.5669" stroke-miterlimit="22.9256" d="
			M1002.692,1105.354h37.218c28.343,0,51.533,22.551,51.533,50.114c0,4.64,0,9.28,0,13.921
			c-27.448-0.823-48.598,7.351-63.434,28.202h-11.628c-13.993-19.891-34.534-25.91-65.222-28.202v-13.921
			C951.159,1127.905,974.348,1105.354,1002.692,1105.354z" class="prop7"></path>
		
			<path fill-rule="evenodd" clip-rule="evenodd" fill="#024954" stroke="#024954" stroke-width="0.5669" stroke-miterlimit="22.9256" d="
			M1002.692,1105.354h37.218c6.453,0,12.637,1.172,18.343,3.303c-2.806,18.726-18.281,33.051-36.952,33.051
			c-18.671,0-34.146-14.325-36.952-33.051C990.055,1106.526,996.239,1105.354,1002.692,1105.354z" class="prop22"></path>
		
			<path fill-rule="evenodd" clip-rule="evenodd" fill="#4A8290" stroke="#4A8290" stroke-width="0.5669" stroke-miterlimit="22.9256" d="
			M1028.862,1105.354v12.126c0,4.309-3.525,7.834-7.834,7.834h0c-4.309,0-7.834-3.525-7.834-7.834v-12.126H1028.862z" class="prop21"></path>
		
			<path fill-rule="evenodd" clip-rule="evenodd" fill="#006777" stroke="#006777" stroke-width="0.5669" stroke-miterlimit="22.9256" d="
			M1027.909,1214.894v27.305c0,3.016-2.468,5.484-5.484,5.484l0,0c-3.016,0-5.484-2.468-5.484-5.484v-27.305H1027.909z" class="prop20"></path>
		
			<path fill-rule="evenodd" clip-rule="evenodd" fill="#E6E6E6" stroke="#E6E6E6" stroke-width="0.5669" stroke-miterlimit="22.9256" d="
			M1017.257,1195.354h10.404c1.497,0,2.722,1.225,2.722,2.722v15.379c0,1.497-1.224,2.722-2.722,2.722h-10.404
			c-1.497,0-2.722-1.224-2.722-2.722v-15.379C1014.535,1196.579,1015.76,1195.354,1017.257,1195.354L1017.257,1195.354z
			 M1018.659,1198.159c-1.094,0-1.989,0.895-1.989,1.989v11.236c0,1.094,0.895,1.988,1.989,1.988h7.601
			c1.094,0,1.989-0.895,1.989-1.988v-11.236c0-1.094-0.895-1.989-1.989-1.989H1018.659z" class="prop1"></path>
		
			<path fill-rule="evenodd" clip-rule="evenodd" fill="#005C70" stroke="#005C70" stroke-width="0.5669" stroke-miterlimit="22.9256" d="
			M1021.437,1122.384c2.664,0,4.837-2.173,4.837-4.837c0-2.664-2.173-4.836-4.837-4.836s-4.836,2.172-4.836,4.836
			C1016.601,1120.211,1018.773,1122.384,1021.437,1122.384z" class="prop19"></path>
		<g>
			<path fill-rule="evenodd" clip-rule="evenodd" fill="#1594A3" d="M999.297,1129.333c0.432,0,0.613-0.211,0.613-0.613
				c0-0.339-0.269-0.509-0.46-0.698c-0.719-0.714-1.439-1.758-2.002-1.219c-0.236,0.226-0.216,0.534-0.01,0.777
				C997.734,1127.926,998.988,1129.333,999.297,1129.333z" class="prop0"></path>
			<path fill-rule="evenodd" clip-rule="evenodd" fill="#1594A3" d="M988.875,1113.256c0,0.247,0.396,1.194,0.506,1.47
				c0.2,0.501,0.385,1.187,0.856,1.187c1.144,0,0.072-1.89-0.11-2.41c-0.114-0.325-0.215-0.654-0.548-0.751
				C989.25,1112.655,988.875,1112.954,988.875,1113.256z" class="prop0"></path>
			<path fill-rule="evenodd" clip-rule="evenodd" fill="#1594A3" d="M1015.987,1137.644c0,0.653,0.471,0.605,1.138,0.701
				c0.734,0.106,2.132,0.516,2.132-0.36c0-0.303-0.236-0.51-0.581-0.577l-2.037-0.285
				C1016.286,1137.084,1015.987,1137.271,1015.987,1137.644z" class="prop0"></path>
			<path fill-rule="evenodd" clip-rule="evenodd" fill="#1594A3" d="M1032.064,1136.213c0,1.045,1.499,0.248,1.952,0.045
				c0.375-0.168,1.182-0.409,1.182-0.863c0-0.359-0.31-0.638-0.656-0.587c-0.167,0.024-0.713,0.305-0.911,0.383
				C1032.845,1135.504,1032.064,1135.653,1032.064,1136.213z" class="prop0"></path>
			<path fill-rule="evenodd" clip-rule="evenodd" fill="#1594A3" d="M1053.727,1113.12c0,0.179,0.185,0.545,0.613,0.545
				c0.523,0,0.632-0.703,0.775-1.132c0.107-0.322,0.451-1.229,0.451-1.524c0-0.215-0.318-0.545-0.477-0.545
				c-0.641,0-0.698,0.606-0.846,1.129C1054.159,1111.888,1053.727,1112.984,1053.727,1113.12z" class="prop0"></path>
			<path fill-rule="evenodd" clip-rule="evenodd" fill="#1594A3" d="M988.33,1110.735c0.214,0,0.383,0.008,0.529-0.152
				c0.334-0.367-0.05-1.128-0.23-1.849c-0.189-0.757-0.077-1.2-0.844-1.2c-0.259,0-0.471,0.374-0.44,0.645
				c0.034,0.295,0.161,0.691,0.222,0.936C987.692,1109.617,987.85,1110.735,988.33,1110.735z" class="prop0"></path>
			<path fill-rule="evenodd" clip-rule="evenodd" fill="#1594A3" d="M1005.769,1133.965c0,0.313,0.164,0.446,0.385,0.569
				c0.251,0.14,0.407,0.237,0.659,0.363c0.377,0.188,1.115,0.635,1.477,0.635c0.432,0,0.939-0.657,0.092-1.114
				c-0.292-0.157-1.871-0.998-2.067-0.998C1005.985,1133.42,1005.769,1133.636,1005.769,1133.965z" class="prop0"></path>
			<path fill-rule="evenodd" clip-rule="evenodd" fill="#1594A3" d="M1055.294,1108.011c0,0.27,0.781,0.853,1.104-0.076
				l-1.078-0.297C1055.304,1107.768,1055.294,1107.893,1055.294,1108.011z" class="prop0"></path>
			<path fill-rule="evenodd" clip-rule="evenodd" fill="#1594A3" d="M1026.819,1137.644c0,0.99,1.649,0.37,2.536,0.151
				c1.241-0.306,0.578-1.173,0.189-1.173l-1.527,0.312C1027.48,1137.04,1026.819,1137.052,1026.819,1137.644z" class="prop0"></path>
			<path fill-rule="evenodd" clip-rule="evenodd" fill="#1594A3" d="M1051.615,1118.093c0,0.202,0.009,0.357,0.252,0.502
				c0.577,0.344,0.872-0.364,1.02-0.661c0.109-0.219,0.772-1.621,0.772-1.749c0-0.568-0.776-0.927-1.112-0.226l-0.32,0.702
				C1052.124,1116.87,1051.615,1117.925,1051.615,1118.093z" class="prop0"></path>
			<path fill-rule="evenodd" clip-rule="evenodd" fill="#1594A3" d="M995.687,1125.245c0.735,0,0.757-0.522,0.273-1.158
				l-0.899-1.213c-0.676-1.013-1.249-0.215-1.189,0.167c0.037,0.236,1.109,1.66,1.362,1.975
				C995.356,1125.167,995.444,1125.245,995.687,1125.245z" class="prop0"></path>
			<path fill-rule="evenodd" clip-rule="evenodd" fill="#1594A3" d="M1036.969,1133.829c0,0.279,0.194,0.613,0.545,0.613
				c0.251,0,2.14-1.081,2.363-1.452c0.239-0.396-0.022-0.796-0.524-0.796c-0.314,0-1.532,0.892-1.909,1.089
				C1037.251,1133.384,1036.969,1133.544,1036.969,1133.829z" class="prop0"></path>
			<path fill-rule="evenodd" clip-rule="evenodd" fill="#1594A3" d="M1001.273,1130.9c0,0.45,0.62,0.789,1.022,1.09
				c0.236,0.177,0.984,0.818,1.295,0.818c0.249,0,1.015-0.549,0.138-1.159c-0.481-0.335-1.606-1.293-1.909-1.293
				C1001.489,1130.355,1001.273,1130.57,1001.273,1130.9z" class="prop0"></path>
			<path fill-rule="evenodd" clip-rule="evenodd" fill="#1594A3" d="M1041.465,1130.695c0,0.393,0.269,0.681,0.545,0.681
				c0.249,0,2.114-1.494,2.214-1.879c0.097-0.377-0.229-0.709-0.579-0.709c-0.27,0-0.936,0.715-1.158,0.886
				C1042.271,1129.84,1041.465,1130.424,1041.465,1130.695z" class="prop0"></path>
			<path fill-rule="evenodd" clip-rule="evenodd" fill="#1594A3" d="M1045.416,1127.017c0,0.271,0.424,1.183,1.304,0.078
				c0.216-0.272,0.393-0.464,0.624-0.738c0.166-0.197,0.515-0.558,0.59-0.776c0.117-0.343-0.237-1.274-1.107-0.354l-0.987,1.125
				C1045.729,1126.472,1045.416,1126.842,1045.416,1127.017z" class="prop0"></path>
			<path fill-rule="evenodd" clip-rule="evenodd" fill="#1594A3" d="M1021.369,1138.052c0,0.873,0.857,0.632,1.565,0.611
				c0.389-0.012,0.753,0.031,1.125-0.033c0.217-0.037,0.329-0.04,0.455-0.159c0.334-0.317,0.214-0.911-0.35-0.966
				c-0.374-0.037-0.764,0.029-1.033,0.059c-0.572,0.064-1.192-0.109-1.507,0.128
				C1021.549,1137.75,1021.369,1137.974,1021.369,1138.052z" class="prop0"></path>
			<path fill-rule="evenodd" clip-rule="evenodd" fill="#1594A3" d="M1013.331,1137.508c0.586,0,0.847-0.866,0.097-1.119
				c-0.263-0.089-0.501-0.167-0.725-0.229c-0.625-0.172-1.06-0.423-1.484-0.423c-0.465,0-0.997,0.786,0.177,1.185
				C1011.737,1137.038,1013.055,1137.508,1013.331,1137.508z" class="prop0"></path>
			<path fill-rule="evenodd" clip-rule="evenodd" fill="#1594A3" d="M1048.822,1122.793c0,0.479,0.631,0.909,1.146,0.125
				c0.22-0.334,1.17-1.661,1.17-1.964c0-0.319-0.642-1.023-1.181-0.091c-0.145,0.25-0.254,0.391-0.399,0.623
				C1049.345,1121.826,1048.822,1122.536,1048.822,1122.793z" class="prop0"></path>
			<path fill-rule="evenodd" clip-rule="evenodd" fill="#1594A3" d="M991.055,1118.297c0,0.107,1.099,2.452,1.499,2.452
				c1.356,0,0.282-1.379,0.022-1.861c-0.134-0.25-0.209-0.435-0.349-0.673c-0.183-0.311-0.192-0.462-0.627-0.462
				C991.226,1117.752,991.055,1118.05,991.055,1118.297z" class="prop0"></path>
		</g>
	</g>
</g>
</svg>
