<svg width="56" height="74" viewBox="0 0 56 74" fill="none" xmlns="http://www.w3.org/2000/svg" xmlns:xlink="http://www.w3.org/1999/xlink">
<path d="M9.627,50.387C9.231,46.028 8.893,36.454 8.772,32.237C9.011,31.262 10.36,30.569 10.972,30.331C20.091,30.272 39.136,30.133 42.546,30.133C45.938,30.133 47.104,32.054 47.265,33.048C47.027,34.514 46.55,39.351 46.55,46.999C46.55,56.551 37.394,72.666 28.136,72.666C18.881,72.666 10.14,55.836 9.627,50.387Z" fill="url(#pf_0_121_957)"/>
<path d="M20.725,35.347C17.601,35.183 14.497,34.853 11.412,34.357C13.113,35.325 18.94,37.228 28.653,37.228C40.801,37.228 45.798,34.888 45.798,33.462C45.798,32.292 44.669,31.618 44.093,31.401L42.528,31.739C42.648,31.913 42.71,32.121 42.704,32.333C41.079,35.644 33.31,36.098 28.634,36.098C24.927,36.098 21.814,35.603 20.707,35.347L20.725,35.347Z" fill="url(#pf_0_121_958)"/>
<path d="M28.575,35.545C18.546,35.545 16.328,33.125 16.464,31.896L40.645,31.896L40.645,32.351C40.803,33.403 38.603,35.541 28.575,35.541Z" fill="#26203A"/>
<path d="M28.572,34.295C21.99,34.295 20.523,32.711 20.644,31.915L36.481,31.915L36.481,32.194C36.58,32.89 35.131,34.295 28.55,34.295L28.572,34.295Z" fill="#4470D1"/>
<path d="M8.832,32.63C8.832,31.934 9.884,31.024 10.419,30.65L11.963,31.244L11.31,34.295C10.494,34.112 9.692,33.867 8.912,33.562C8.847,33.262 8.82,32.955 8.832,32.649L8.832,32.63Z" fill="#335CA7"/>
<path d="M10.401,32.887C10.401,33.642 11.171,34.236 11.549,34.434C13.529,34.771 18.167,35.446 20.862,35.406C15.71,34.672 14.324,32.59 14.302,31.64L11.747,31.244C11.31,31.464 10.401,32.135 10.401,32.887Z" fill="#496BAC"/>
<path d="M16.702,32.113L14.165,31.64C14.224,33.125 16.545,35.981 25.202,35.464C18.723,35.171 16.842,33.106 16.684,32.094L16.702,32.113Z" fill="#9EA3B6"/>
<path d="M24.869,35.464L21.459,35.464C34.897,37.426 43.837,34.236 42.506,31.698L40.229,32.094C40.247,35.266 30.002,35.662 24.869,35.464Z" fill="url(#pf_0_121_964)"/>
<path d="M38.779,32.296L18.223,32.296C16.064,32.296 10.89,31.658 7.524,29.161C3.26,26.008 4.591,17.806 5.067,16.042C5.537,14.293 9.937,-0.667 27.933,-0.667C45.951,-0.667 51.52,15.584 51.718,18.044L51.718,18.121C52.096,21.238 51.572,24.391 50.211,27.218C48.704,30.591 42.064,32.036 38.771,32.293Z" fill="url(#pf_0_121_965)"/>
<path d="M35.114,7.437L21.46,7.437C18.05,7.437 10.383,8.232 10.383,15.624C10.383,23.016 16.645,30.489 27.726,30.489C38.799,30.489 45.245,23.889 45.245,15.624C45.245,9.006 38.506,7.4 35.118,7.44Z" fill="#FFFFBA"/>
<path d="M34.875,7.818L21.653,7.818C18.346,7.818 10.932,8.57 10.932,15.745C10.932,22.881 16.996,30.093 27.699,30.093C38.421,30.093 44.665,23.75 44.665,15.723C44.665,9.321 38.124,7.796 34.853,7.796L34.875,7.818Z" fill="url(#pf_0_121_967)"/>
<path d="M6.316,13.486C5.898,13.545 5.205,15.605 4.908,16.614C4.598,18.354 4.439,20.118 4.432,21.886C4.472,23.672 4.769,24.226 4.908,24.266C5.7,24.266 6.316,21.886 6.496,20.145C6.694,18.421 6.852,13.409 6.316,13.486Z" fill="#C9D3E8"/>
<path d="M6.374,14.396C6,14.455 5.384,16.182 5.127,17.014C4.988,17.846 4.691,19.907 4.731,21.374C4.772,22.84 5.006,23.317 5.127,23.354C5.842,23.354 6.374,21.374 6.513,19.925C6.693,18.499 6.832,14.337 6.374,14.396Z" fill="#251F38"/>
<path d="M0.251,13.127C0.251,20.522 2.532,22.84 3.679,23.056C5.96,23.056 5.483,19.155 5.186,11.763C4.889,4.371 3.94,0.345 3.305,0.345C2.671,0.345 0.273,3.89 0.273,13.127L0.251,13.127Z" fill="url(#pf_0_121_970)"/>
<path d="M4.194,6.369C2.174,6.706 0.725,6.369 0.568,6.369C0.329,6.428 0.428,6.684 0.487,6.824C0.685,6.882 1.242,6.985 2.174,6.985C3.343,6.985 4.077,6.904 4.194,6.824C4.275,6.747 4.234,6.486 4.194,6.369Z" fill="#FFFFBA"/>
<path d="M1.299,20.222C1.556,19.511 1.812,18.499 1.812,17.252C1.812,15.489 0.885,14.238 0.269,13.685C0.305,16.655 0.745,18.778 1.299,20.222Z" fill="url(#pf_0_121_972)"/>
<path d="M49.681,13.486C50.113,13.545 50.81,15.605 51.107,16.614C51.305,17.648 51.62,20.123 51.584,21.886C51.521,23.672 51.246,24.226 51.107,24.266C50.311,24.266 49.677,21.886 49.519,20.145C49.321,18.421 49.164,13.409 49.681,13.486Z" fill="#C9D3E8"/>
<path d="M49.641,14.396C50.018,14.455 50.631,16.182 50.869,17.014C51.03,17.846 51.327,19.907 51.269,21.374C51.247,22.84 50.99,23.317 50.873,23.354C50.176,23.354 49.641,21.374 49.483,19.925C49.325,18.499 49.186,14.337 49.641,14.396Z" fill="#251F38"/>
<path d="M55.747,13.127C55.747,20.522 53.466,22.84 52.337,23.056C50.056,23.056 50.515,19.155 50.834,11.763C51.127,4.367 52.08,0.345 52.711,0.345C53.349,0.345 55.747,3.89 55.747,13.127Z" fill="url(#pf_0_121_975)"/>
<path d="M51.823,6.369C53.843,6.706 55.292,6.369 55.449,6.369C55.688,6.428 55.589,6.684 55.508,6.824C54.963,6.952 54.403,7.006 53.843,6.985C52.674,6.985 51.94,6.904 51.823,6.824C51.724,6.747 51.783,6.486 51.823,6.369Z" fill="#FFFFBA"/>
<path d="M54.693,20.222C54.36,19.268 54.193,18.263 54.201,17.252C54.201,15.489 55.133,14.238 55.745,13.685C55.78,15.908 55.421,18.121 54.693,20.222Z" fill="url(#pf_0_121_977)"/>
<path d="M34.502,8.232L21.998,8.232C18.863,8.232 11.827,8.965 11.827,15.844C11.827,22.737 17.576,29.678 27.74,29.678C37.89,29.678 43.815,23.555 43.815,15.844C43.815,9.698 37.615,8.213 34.502,8.232Z" fill="url(#pf_0_121_978)"/>
<path d="M42.248,22.265C37.866,24.185 33.115,25.119 28.333,25C21.795,25 16.977,23.951 14.025,23.038C16.581,26.863 21.26,29.675 27.739,29.675C34.834,29.675 39.85,26.705 42.248,22.268Z" fill="#483D6F"/>
<path d="M18.05,14.058L14.684,14.058C14.888,13.083 15.425,12.21 16.202,11.588C16.979,10.966 17.949,10.634 18.944,10.648L18.05,14.058ZM23.007,10.67L19.3,10.67L18.53,13.999L23.003,13.999L23.007,10.67ZM14.563,14.436L17.973,14.436L17.654,15.822L14.207,15.822L14.563,14.436Z" fill="url(#pf_0_121_980)"/>
<path d="M21.264,21.63C23.636,21.63 25.561,19.606 25.561,17.113C25.561,14.616 23.636,12.592 21.26,12.592C18.888,12.592 16.959,14.616 16.959,17.113C16.959,19.606 18.888,21.63 21.26,21.63Z" fill="url(#pf_0_121_981)"/>
<path d="M35.589,21.63C37.965,21.63 39.89,19.606 39.89,17.113C39.89,14.616 37.965,12.592 35.589,12.592C33.217,12.592 31.292,14.616 31.292,17.113C31.292,19.606 33.217,21.63 35.589,21.63Z" fill="url(#pf_0_121_982)"/>
<path d="M15.335,8.906C14.345,7.718 13.153,5.496 12.64,4.389L13.373,3.813C13.45,4.565 15.038,7.341 15.848,8.628C15.731,8.727 15.474,8.906 15.335,8.906ZM40.246,8.826C41.453,7.545 42.491,6.139 43.359,4.609L42.567,4.011C42.428,4.745 40.682,7.282 39.711,8.51C39.87,8.645 40.051,8.752 40.246,8.826Z" fill="#FFFFBA"/>
<path d="M8.776,34.69L8.776,35.149C8.578,37.448 8.142,42.163 8.142,42.541C8.142,42.918 9.033,45.353 9.491,46.545C9.766,45.771 10.323,43.512 10.323,40.678C10.323,37.844 9.293,35.523 8.776,34.69Z" fill="#28233E"/>
<path d="M0.526,52.452C0.526,60.716 3.185,63.312 4.49,63.587C8.278,63.587 9.645,54.292 9.843,49.654C10.298,44.682 10.518,34.749 7.823,34.749C4.45,34.749 0.526,42.145 0.526,52.452Z" fill="url(#pf_0_121_985)"/>
<path d="M1.28,53.977C1.28,56.87 2.072,57.622 2.49,57.644C3.48,57.644 3.458,55.066 3.323,53.779C3.341,51.873 3.202,48.07 2.49,48.07C1.618,48.07 1.28,50.373 1.28,53.977Z" fill="#829FD1"/>
<path d="M4.93,54.887C2.312,54.887 0.885,55.085 0.372,55.184L0.251,54.59C0.805,54.491 2.271,54.293 4.93,54.293C7.229,54.293 8.497,54.612 9.249,54.788L9.605,54.887L9.447,55.481L9.091,55.382C7.735,55.019 6.333,54.852 4.93,54.887Z" fill="#FFFFBA"/>
<path d="M55.031,52.452C55.031,60.716 52.398,63.312 51.071,63.587C47.301,63.587 45.915,54.292 45.717,49.654C45.281,44.682 45.065,34.749 47.76,34.749C51.129,34.749 55.031,42.145 55.031,52.452Z" fill="url(#pf_0_121_988)"/>
<path d="M54.3,53.977C54.3,56.87 53.49,57.622 53.072,57.644C52.1,57.644 52.119,55.066 52.24,53.779C52.24,51.873 52.379,48.07 53.072,48.07C53.963,48.07 54.3,50.373 54.3,53.977Z" fill="#829FD1"/>
<path d="M50.632,54.887C53.269,54.887 54.695,55.085 55.19,55.184L55.329,54.59C54.776,54.491 53.287,54.293 50.632,54.293C48.333,54.293 47.083,54.612 46.313,54.788L45.976,54.887L46.111,55.481L46.471,55.382C47.263,55.184 48.414,54.887 50.632,54.887Z" fill="#FFFFBA"/>
<defs>
<linearGradient id="pf_0_121_957" x1="47.265" y1="35.446" x2="14.302" y2="61.032" gradientUnits="userSpaceOnUse">
<stop stop-color="#89B9ED"/>
<stop offset="0.89" stop-color="#1B5CCF"/>
<stop offset="1" stop-color="#6095D0"/>
</linearGradient>
<linearGradient id="pf_0_121_958" x1="16.604" y1="35.919" x2="44.133" y2="35.919" gradientUnits="userSpaceOnUse">
<stop stop-color="#6192E0"/>
<stop offset="1" stop-color="#97C1EF"/>
</linearGradient>
<linearGradient id="pf_0_121_964" x1="23.384" y1="36.337" x2="41.952" y2="34.434" gradientUnits="userSpaceOnUse">
<stop stop-color="#B9C5DE"/>
<stop offset="1" stop-color="#667AB0"/>
</linearGradient>
<linearGradient id="pf_0_121_965" x1="28.156" y1="-0.667" x2="28.156" y2="32.293" gradientUnits="userSpaceOnUse">
<stop stop-color="#72CDFF"/>
<stop offset="0.84" stop-color="#3856DC"/>
<stop offset="0.98" stop-color="#4A6DD8"/>
</linearGradient>
<linearGradient id="pf_0_121_967" x1="27.817" y1="7.796" x2="27.817" y2="30.093" gradientUnits="userSpaceOnUse">
<stop stop-color="#8091BF"/>
<stop offset="1" stop-color="#D2DBED"/>
</linearGradient>
<linearGradient id="pf_0_121_970" x1="2.847" y1="0.345" x2="2.847" y2="23.056" gradientUnits="userSpaceOnUse">
<stop stop-color="#72CDFF"/>
<stop offset="1" stop-color="#252B8C"/>
</linearGradient>
<linearGradient id="pf_0_121_972" x1="1.042" y1="13.685" x2="1.042" y2="20.222" gradientUnits="userSpaceOnUse">
<stop stop-color="#32469F"/>
<stop offset="1" stop-color="#5EA3E0"/>
</linearGradient>
<linearGradient id="pf_0_121_975" x1="53.147" y1="0.345" x2="53.147" y2="23.056" gradientUnits="userSpaceOnUse">
<stop stop-color="#72CDFF"/>
<stop offset="1" stop-color="#252B8C"/>
</linearGradient>
<linearGradient id="pf_0_121_977" x1="54.975" y1="13.685" x2="54.975" y2="20.222" gradientUnits="userSpaceOnUse">
<stop stop-color="#32469F"/>
<stop offset="1" stop-color="#5EA3E0"/>
</linearGradient>
<linearGradient id="pf_0_121_978" x1="11.827" y1="15.187" x2="43.243" y2="15.187" gradientUnits="userSpaceOnUse">
<stop stop-color="#27213B"/>
<stop offset="0.61" stop-color="#4A3F73"/>
<stop offset="1" stop-color="#28223C"/>
</linearGradient>
<linearGradient id="pf_0_121_980" x1="18.607" y1="10.648" x2="17.991" y2="16.973" gradientUnits="userSpaceOnUse">
<stop stop-color="#9490A1"/>
<stop offset="1" stop-color="#9490A1" stop-opacity="0"/>
</linearGradient>
<linearGradient id="pf_0_121_981" x1="21.26" y1="12.592" x2="21.26" y2="21.63" gradientUnits="userSpaceOnUse">
<stop stop-color="#FFF962"/>
<stop offset="1" stop-color="#FCBE43"/>
</linearGradient>
<linearGradient id="pf_0_121_982" x1="35.589" y1="12.592" x2="35.589" y2="21.63" gradientUnits="userSpaceOnUse">
<stop stop-color="#FFF962"/>
<stop offset="1" stop-color="#FCBE43"/>
</linearGradient>
<linearGradient id="pf_0_121_985" x1="5.322" y1="34.749" x2="5.322" y2="63.587" gradientUnits="userSpaceOnUse">
<stop stop-color="#87B7FD"/>
<stop offset="1" stop-color="#325CA9"/>
</linearGradient>
<linearGradient id="pf_0_121_988" x1="50.235" y1="34.749" x2="50.235" y2="63.587" gradientUnits="userSpaceOnUse">
<stop stop-color="#87B7FD"/>
<stop offset="1" stop-color="#325CA9"/>
</linearGradient>
</defs>
</svg>
