<?xml version="1.0" encoding="UTF-8"?>
<!DOCTYPE svg PUBLIC "-//W3C//DTD SVG 1.1//EN" "http://www.w3.org/Graphics/SVG/1.1/DTD/svg11.dtd">
<svg xmlns="http://www.w3.org/2000/svg" version="1.1" width="2000px" height="1125px" style="shape-rendering:geometricPrecision; text-rendering:geometricPrecision; image-rendering:optimizeQuality; fill-rule:evenodd; clip-rule:evenodd" xmlns:xlink="http://www.w3.org/1999/xlink">
<g><path style="opacity:1" fill="#edf0f5" d="M -0.5,-0.5 C 38.1667,-0.5 76.8333,-0.5 115.5,-0.5C 115.5,60.5 115.5,121.5 115.5,182.5C 116.5,182.5 117.5,182.5 118.5,182.5C 118.5,121.5 118.5,60.5 118.5,-0.5C 745.5,-0.5 1372.5,-0.5 1999.5,-0.5C 1999.5,225.5 1999.5,451.5 1999.5,677.5C 1970.16,677.333 1940.83,677.5 1911.5,678C 1907.77,679.011 1905.1,681.177 1903.5,684.5C 1902.44,685.6 1901.61,686.934 1901,688.5C 1900.5,693.489 1900.33,698.489 1900.5,703.5C 1899.17,746.328 1898.5,789.495 1898.5,833C 1898.67,876.167 1898.83,919.333 1899,962.5C 1899.23,961.263 1899.73,960.263 1900.5,959.5C 1900.21,965.591 1900.54,971.591 1901.5,977.5C 1905.64,986.399 1912.64,989.733 1922.5,987.5C 1922.33,989.861 1921.99,992.194 1921.5,994.5C 1925.8,995.204 1929.3,993.87 1932,990.5C 1932.48,989.552 1932.65,988.552 1932.5,987.5C 1954.83,987.5 1977.17,987.5 1999.5,987.5C 1999.5,1003.5 1999.5,1019.5 1999.5,1035.5C 1942.11,1035.01 1884.77,1035.51 1827.5,1037C 1823.06,1040.04 1820.23,1044.2 1819,1049.5C 1818.1,1062.55 1818.43,1075.55 1820,1088.5C 1824.02,1097.26 1830.85,1100.93 1840.5,1099.5C 1839.91,1102.13 1839.58,1104.79 1839.5,1107.5C 1844.93,1107.95 1848.6,1105.62 1850.5,1100.5C 1900.16,1099.5 1949.83,1099.17 1999.5,1099.5C 1999.5,1107.83 1999.5,1116.17 1999.5,1124.5C 1923.17,1124.5 1846.83,1124.5 1770.5,1124.5C 1770.67,1107.16 1770.5,1089.83 1770,1072.5C 1767.94,1066.55 1763.78,1063.05 1757.5,1062C 1729.33,1061.83 1701.17,1061.67 1673,1061.5C 1643.77,1061.34 1614.61,1061.84 1585.5,1063C 1580.45,1065.72 1577.28,1069.89 1576,1075.5C 1575.5,1091.83 1575.33,1108.16 1575.5,1124.5C 1050.17,1124.5 524.833,1124.5 -0.5,1124.5C -0.5,749.5 -0.5,374.5 -0.5,-0.5 Z"/></g>
<g><path style="opacity:1" fill="#575a5f" d="M 115.5,-0.5 C 116.5,-0.5 117.5,-0.5 118.5,-0.5C 118.5,60.5 118.5,121.5 118.5,182.5C 117.5,182.5 116.5,182.5 115.5,182.5C 115.5,121.5 115.5,60.5 115.5,-0.5 Z"/></g>
<g><path style="opacity:1" fill="#fcfcfc" d="M 1908.5,576.5 C 1925.5,576.333 1942.5,576.5 1959.5,577C 1962.79,578.467 1965.45,580.634 1967.5,583.5C 1968.67,600.824 1968.83,618.157 1968,635.5C 1966.99,638.847 1965.16,641.681 1962.5,644C 1944.57,645.626 1926.57,645.959 1908.5,645C 1905.33,643.823 1903.16,641.657 1902,638.5C 1901.17,620.158 1901.33,601.824 1902.5,583.5C 1904.63,581.145 1906.63,578.811 1908.5,576.5 Z"/></g>
<g><path style="opacity:1" fill="#4b4c4d" d="M 1926.5,595.5 C 1938.46,592.93 1948.46,596.096 1956.5,605C 1953.48,604.708 1950.81,603.375 1948.5,601C 1936.12,595.167 1924.79,596.667 1914.5,605.5C 1914.17,605.167 1913.83,604.833 1913.5,604.5C 1917.07,600.241 1921.4,597.241 1926.5,595.5 Z"/></g>
<g><path style="opacity:1" fill="#4f5052" d="M 1930.5,603.5 C 1938.53,602.851 1945.2,605.518 1950.5,611.5C 1950.17,611.833 1949.83,612.167 1949.5,612.5C 1939.76,604.545 1930.1,604.545 1920.5,612.5C 1919.48,611.998 1919.31,611.332 1920,610.5C 1923,607.262 1926.5,604.929 1930.5,603.5 Z"/></g>
<g><path style="opacity:1" fill="#434545" d="M 1929.5,613.5 C 1933.6,613.234 1937.6,613.734 1941.5,615C 1943.62,616.171 1944.28,617.671 1943.5,619.5C 1937.76,614.235 1932.09,614.235 1926.5,619.5C 1925.42,618.635 1925.25,617.635 1926,616.5C 1927.52,615.837 1928.69,614.837 1929.5,613.5 Z"/></g>
<g><path style="opacity:1" fill="#484949" d="M 1932.5,621.5 C 1938.16,620.679 1939.82,622.846 1937.5,628C 1931.74,629.139 1930.07,626.972 1932.5,621.5 Z"/></g>
<g><path style="opacity:1" fill="#dbdbdb" d="M 1933.5,623.5 C 1936.96,623.667 1937.29,624.667 1934.5,626.5C 1933.61,625.675 1933.28,624.675 1933.5,623.5 Z"/></g>
<g><path style="opacity:1" fill="#383c52" d="M 1999.5,677.5 C 1999.5,678.167 1999.5,678.833 1999.5,679.5C 1969.66,679.169 1940,679.502 1910.5,680.5C 1908.85,681.75 1907.18,683.084 1905.5,684.5C 1904.83,684.5 1904.17,684.5 1903.5,684.5C 1905.1,681.177 1907.77,679.011 1911.5,678C 1940.83,677.5 1970.16,677.333 1999.5,677.5 Z"/></g>
<g><path style="opacity:1" fill="#3c63f5" d="M 1999.5,679.5 C 1999.5,689.833 1999.5,700.167 1999.5,710.5C 1976.16,710.333 1952.83,710.5 1929.5,711C 1928.2,712.579 1928.53,713.745 1930.5,714.5C 1953.33,715.498 1976.33,715.831 1999.5,715.5C 1999.5,721.833 1999.5,728.167 1999.5,734.5C 1976.5,734.5 1953.5,734.5 1930.5,734.5C 1930.5,735.5 1930.5,736.5 1930.5,737.5C 1953.5,737.5 1976.5,737.5 1999.5,737.5C 1999.5,743.5 1999.5,749.5 1999.5,755.5C 1976.17,755.5 1952.83,755.5 1929.5,755.5C 1929.23,757.099 1929.57,758.432 1930.5,759.5C 1953.5,759.5 1976.5,759.5 1999.5,759.5C 1999.5,759.833 1999.5,760.167 1999.5,760.5C 1907.5,761.167 1907.5,761.833 1999.5,762.5C 1999.5,767.5 1999.5,772.5 1999.5,777.5C 1976.5,777.333 1953.5,777.5 1930.5,778C 1929.21,779.292 1929.21,780.458 1930.5,781.5C 1953.5,781.5 1976.5,781.5 1999.5,781.5C 1999.5,787.833 1999.5,794.167 1999.5,800.5C 1976.5,800.5 1953.5,800.5 1930.5,800.5C 1930.26,801.791 1930.6,802.791 1931.5,803.5C 1954.17,803.5 1976.83,803.5 1999.5,803.5C 1999.5,809.833 1999.5,816.167 1999.5,822.5C 1976.5,822.5 1953.5,822.5 1930.5,822.5C 1930.26,823.791 1930.6,824.791 1931.5,825.5C 1954.17,825.5 1976.83,825.5 1999.5,825.5C 1999.5,832.167 1999.5,838.833 1999.5,845.5C 1976.5,845.5 1953.5,845.5 1930.5,845.5C 1926.57,846.407 1926.57,847.574 1930.5,849C 1953.5,849.5 1976.5,849.667 1999.5,849.5C 1999.5,849.833 1999.5,850.167 1999.5,850.5C 1914.17,851.167 1914.17,851.833 1999.5,852.5C 1999.5,857.167 1999.5,861.833 1999.5,866.5C 1976.5,866.333 1953.5,866.5 1930.5,867C 1929.23,867.977 1929.23,868.811 1930.5,869.5C 1953.33,870.498 1976.33,870.831 1999.5,870.5C 1999.5,876.833 1999.5,883.167 1999.5,889.5C 1976.5,889.5 1953.5,889.5 1930.5,889.5C 1930.26,890.791 1930.6,891.791 1931.5,892.5C 1954.17,892.5 1976.83,892.5 1999.5,892.5C 1999.5,898.167 1999.5,903.833 1999.5,909.5C 1976.5,909.333 1953.5,909.5 1930.5,910C 1929.23,911.796 1929.23,913.629 1930.5,915.5C 1953.49,916.5 1976.49,916.833 1999.5,916.5C 1999.5,922.5 1999.5,928.5 1999.5,934.5C 1976.5,934.5 1953.5,934.5 1930.5,934.5C 1930.5,935.5 1930.5,936.5 1930.5,937.5C 1953.5,937.5 1976.5,937.5 1999.5,937.5C 1999.5,944.167 1999.5,950.833 1999.5,957.5C 1996.65,957.97 1994.32,957.137 1992.5,955C 1982.17,954.833 1971.83,954.667 1961.5,954.5C 1950.81,954.501 1940.48,955.168 1930.5,956.5C 1927.89,957.85 1927.89,959.35 1930.5,961C 1951.17,961.667 1971.83,961.667 1992.5,961C 1994.59,959.648 1996.93,959.148 1999.5,959.5C 1999.5,967.833 1999.5,976.167 1999.5,984.5C 1976.83,984.333 1954.16,984.5 1931.5,985C 1929.96,986.11 1929.3,987.61 1929.5,989.5C 1928.5,989.5 1927.5,989.5 1926.5,989.5C 1926.84,987.517 1926.18,986.183 1924.5,985.5C 1924.17,985.5 1923.83,985.5 1923.5,985.5C 1920.02,984.677 1916.36,984.177 1912.5,984C 1910.55,982.561 1909.22,980.728 1908.5,978.5C 1908.82,977.353 1909.48,976.519 1910.5,976C 1908.89,975.28 1907.39,975.446 1906,976.5C 1905.5,880.167 1905.33,783.834 1905.5,687.5C 1907.94,687.881 1908.61,687.214 1907.5,685.5C 1908.95,684.06 1909.95,682.394 1910.5,680.5C 1940,679.502 1969.66,679.169 1999.5,679.5 Z"/></g>
<g><path style="opacity:1" fill="#414a73" d="M 1903.5,684.5 C 1904.17,684.5 1904.83,684.5 1905.5,684.5C 1903.51,781.955 1902.84,879.622 1903.5,977.5C 1902.83,977.5 1902.17,977.5 1901.5,977.5C 1900.54,971.591 1900.21,965.591 1900.5,959.5C 1900.5,874.167 1900.5,788.833 1900.5,703.5C 1900.33,698.489 1900.5,693.489 1901,688.5C 1901.61,686.934 1902.44,685.6 1903.5,684.5 Z"/></g>
<g><path style="opacity:1" fill="#ecf3f1" d="M 1900.5,703.5 C 1900.5,788.833 1900.5,874.167 1900.5,959.5C 1899.73,960.263 1899.23,961.263 1899,962.5C 1898.83,919.333 1898.67,876.167 1898.5,833C 1898.5,789.495 1899.17,746.328 1900.5,703.5 Z"/></g>
<g><path style="opacity:1" fill="#3f63eb" d="M 1910.5,680.5 C 1909.95,682.394 1908.95,684.06 1907.5,685.5C 1908.61,687.214 1907.94,687.881 1905.5,687.5C 1905.33,783.834 1905.5,880.167 1906,976.5C 1907.39,975.446 1908.89,975.28 1910.5,976C 1909.48,976.519 1908.82,977.353 1908.5,978.5C 1909.22,980.728 1910.55,982.561 1912.5,984C 1916.36,984.177 1920.02,984.677 1923.5,985.5C 1918.97,985.818 1914.63,985.485 1910.5,984.5C 1908.72,981.71 1906.39,979.71 1903.5,978.5C 1903.5,978.167 1903.5,977.833 1903.5,977.5C 1902.84,879.622 1903.51,781.955 1905.5,684.5C 1907.18,683.084 1908.85,681.75 1910.5,680.5 Z"/></g>
<g><path style="opacity:1" fill="#4364df" d="M 1999.5,710.5 C 1999.5,710.833 1999.5,711.167 1999.5,711.5C 1976.5,711.5 1953.5,711.5 1930.5,711.5C 1930.5,712.5 1930.5,713.5 1930.5,714.5C 1928.53,713.745 1928.2,712.579 1929.5,711C 1952.83,710.5 1976.16,710.333 1999.5,710.5 Z"/></g>
<g><path style="opacity:1" fill="#d5ebff" d="M 1999.5,712.5 C 1999.5,713.167 1999.5,713.833 1999.5,714.5C 1908.83,713.833 1908.83,713.167 1999.5,712.5 Z"/></g>
<g><path style="opacity:1" fill="#4c68b6" d="M 1999.5,711.5 C 1999.5,711.833 1999.5,712.167 1999.5,712.5C 1908.83,713.167 1908.83,713.833 1999.5,714.5C 1999.5,714.833 1999.5,715.167 1999.5,715.5C 1976.33,715.831 1953.33,715.498 1930.5,714.5C 1930.5,713.5 1930.5,712.5 1930.5,711.5C 1953.5,711.5 1976.5,711.5 1999.5,711.5 Z"/></g>
<g><path style="opacity:1" fill="#afc5f8" d="M 1999.5,734.5 C 1999.5,735.5 1999.5,736.5 1999.5,737.5C 1976.5,737.5 1953.5,737.5 1930.5,737.5C 1930.5,736.5 1930.5,735.5 1930.5,734.5C 1953.5,734.5 1976.5,734.5 1999.5,734.5 Z"/></g>
<g><path style="opacity:1" fill="#4665d2" d="M 1999.5,755.5 C 1999.5,755.833 1999.5,756.167 1999.5,756.5C 1976.5,756.5 1953.5,756.5 1930.5,756.5C 1930.5,757.5 1930.5,758.5 1930.5,759.5C 1929.57,758.432 1929.23,757.099 1929.5,755.5C 1952.83,755.5 1976.17,755.5 1999.5,755.5 Z"/></g>
<g><path style="opacity:1" fill="#b0c5f4" d="M 1999.5,756.5 C 1999.5,757.5 1999.5,758.5 1999.5,759.5C 1976.5,759.5 1953.5,759.5 1930.5,759.5C 1930.5,758.5 1930.5,757.5 1930.5,756.5C 1953.5,756.5 1976.5,756.5 1999.5,756.5 Z"/></g>
<g><path style="opacity:1" fill="#3a62fd" d="M 1999.5,760.5 C 1999.5,761.167 1999.5,761.833 1999.5,762.5C 1907.5,761.833 1907.5,761.167 1999.5,760.5 Z"/></g>
<g><path style="opacity:1" fill="#627ae8" d="M 1999.5,777.5 C 1999.5,778.167 1999.5,778.833 1999.5,779.5C 1976.14,778.844 1953.14,779.51 1930.5,781.5C 1929.21,780.458 1929.21,779.292 1930.5,778C 1953.5,777.5 1976.5,777.333 1999.5,777.5 Z"/></g>
<g><path style="opacity:1" fill="#c1d6f9" d="M 1999.5,779.5 C 1999.5,780.167 1999.5,780.833 1999.5,781.5C 1976.5,781.5 1953.5,781.5 1930.5,781.5C 1953.14,779.51 1976.14,778.844 1999.5,779.5 Z"/></g>
<g><path style="opacity:1" fill="#4965c0" d="M 1999.5,800.5 C 1999.5,800.833 1999.5,801.167 1999.5,801.5C 1976.48,800.844 1953.81,801.51 1931.5,803.5C 1930.6,802.791 1930.26,801.791 1930.5,800.5C 1953.5,800.5 1976.5,800.5 1999.5,800.5 Z"/></g>
<g><path style="opacity:1" fill="#ddf0fe" d="M 1999.5,801.5 C 1999.5,802.167 1999.5,802.833 1999.5,803.5C 1976.83,803.5 1954.17,803.5 1931.5,803.5C 1953.81,801.51 1976.48,800.844 1999.5,801.5 Z"/></g>
<g><path style="opacity:1" fill="#4c64c5" d="M 1999.5,822.5 C 1999.5,822.833 1999.5,823.167 1999.5,823.5C 1976.48,822.844 1953.81,823.51 1931.5,825.5C 1930.6,824.791 1930.26,823.791 1930.5,822.5C 1953.5,822.5 1976.5,822.5 1999.5,822.5 Z"/></g>
<g><path style="opacity:1" fill="#e0effe" d="M 1999.5,823.5 C 1999.5,824.167 1999.5,824.833 1999.5,825.5C 1976.83,825.5 1954.17,825.5 1931.5,825.5C 1953.81,823.51 1976.48,822.844 1999.5,823.5 Z"/></g>
<g><path style="opacity:1" fill="#b9ccfe" d="M 1930.5,845.5 C 1953.5,845.5 1976.5,845.5 1999.5,845.5C 1999.5,846.5 1999.5,847.5 1999.5,848.5C 1976.83,848.667 1954.16,848.5 1931.5,848C 1930.75,847.329 1930.41,846.496 1930.5,845.5 Z"/></g>
<g><path style="opacity:1" fill="#4463d3" d="M 1930.5,845.5 C 1930.41,846.496 1930.75,847.329 1931.5,848C 1954.16,848.5 1976.83,848.667 1999.5,848.5C 1999.5,848.833 1999.5,849.167 1999.5,849.5C 1976.5,849.667 1953.5,849.5 1930.5,849C 1926.57,847.574 1926.57,846.407 1930.5,845.5 Z"/></g>
<g><path style="opacity:1" fill="#3a60fb" d="M 1999.5,850.5 C 1999.5,851.167 1999.5,851.833 1999.5,852.5C 1914.17,851.833 1914.17,851.167 1999.5,850.5 Z"/></g>
<g><path style="opacity:1" fill="#4164d3" d="M 1999.5,866.5 C 1999.5,866.833 1999.5,867.167 1999.5,867.5C 1976.66,867.169 1953.99,867.503 1931.5,868.5C 1930.83,868.5 1930.5,868.833 1930.5,869.5C 1929.23,868.811 1929.23,867.977 1930.5,867C 1953.5,866.5 1976.5,866.333 1999.5,866.5 Z"/></g>
<g><path style="opacity:1" fill="#c8d8f8" d="M 1999.5,867.5 C 1999.5,868.167 1999.5,868.833 1999.5,869.5C 1976.66,869.831 1953.99,869.497 1931.5,868.5C 1953.99,867.503 1976.66,867.169 1999.5,867.5 Z"/></g>
<g><path style="opacity:1" fill="#b5c5fe" d="M 1931.5,868.5 C 1953.99,869.497 1976.66,869.831 1999.5,869.5C 1999.5,869.833 1999.5,870.167 1999.5,870.5C 1976.33,870.831 1953.33,870.498 1930.5,869.5C 1930.5,868.833 1930.83,868.5 1931.5,868.5 Z"/></g>
<g><path style="opacity:1" fill="#9dafee" d="M 1999.5,889.5 C 1999.5,889.833 1999.5,890.167 1999.5,890.5C 1976.48,889.844 1953.81,890.51 1931.5,892.5C 1930.6,891.791 1930.26,890.791 1930.5,889.5C 1953.5,889.5 1976.5,889.5 1999.5,889.5 Z"/></g>
<g><path style="opacity:1" fill="#bfd6ff" d="M 1999.5,890.5 C 1999.5,891.167 1999.5,891.833 1999.5,892.5C 1976.83,892.5 1954.17,892.5 1931.5,892.5C 1953.81,890.51 1976.48,889.844 1999.5,890.5 Z"/></g>
<g><path style="opacity:1" fill="#4764d6" d="M 1999.5,909.5 C 1999.5,910.5 1999.5,911.5 1999.5,912.5C 1908.83,913.167 1908.83,913.833 1999.5,914.5C 1999.5,915.167 1999.5,915.833 1999.5,916.5C 1976.49,916.833 1953.49,916.5 1930.5,915.5C 1929.23,913.629 1929.23,911.796 1930.5,910C 1953.5,909.5 1976.5,909.333 1999.5,909.5 Z"/></g>
<g><path style="opacity:1" fill="#d2ecff" d="M 1999.5,912.5 C 1999.5,913.167 1999.5,913.833 1999.5,914.5C 1908.83,913.833 1908.83,913.167 1999.5,912.5 Z"/></g>
<g><path style="opacity:1" fill="#b1c5f5" d="M 1999.5,934.5 C 1999.5,935.5 1999.5,936.5 1999.5,937.5C 1976.5,937.5 1953.5,937.5 1930.5,937.5C 1930.5,936.5 1930.5,935.5 1930.5,934.5C 1953.5,934.5 1976.5,934.5 1999.5,934.5 Z"/></g>
<g><path style="opacity:1" fill="#4263e3" d="M 1999.5,957.5 C 1999.5,958.167 1999.5,958.833 1999.5,959.5C 1996.93,959.148 1994.59,959.648 1992.5,961C 1971.83,961.667 1951.17,961.667 1930.5,961C 1927.89,959.35 1927.89,957.85 1930.5,956.5C 1940.48,955.168 1950.81,954.501 1961.5,954.5C 1971.83,954.667 1982.17,954.833 1992.5,955C 1994.32,957.137 1996.65,957.97 1999.5,957.5 Z"/></g>
<g><path style="opacity:1" fill="#b3c4e4" d="M 1992.5,957.5 C 1972.53,959.488 1952.19,960.155 1931.5,959.5C 1951.47,957.512 1971.81,956.845 1992.5,957.5 Z"/></g>
<g><path style="opacity:1" fill="#afc4fe" d="M 1930.5,956.5 C 1951.34,956.169 1972.01,956.503 1992.5,957.5C 1971.81,956.845 1951.47,957.512 1931.5,959.5C 1930.6,958.791 1930.26,957.791 1930.5,956.5 Z"/></g>
<g><path style="opacity:1" fill="#364b85" d="M 1903.5,978.5 C 1906.39,979.71 1908.72,981.71 1910.5,984.5C 1907.15,983.661 1904.81,981.661 1903.5,978.5 Z"/></g>
<g><path style="opacity:1" fill="#4663ce" d="M 1999.5,984.5 C 1999.5,984.833 1999.5,985.167 1999.5,985.5C 1976.99,985.169 1954.66,985.503 1932.5,986.5C 1931.05,987.622 1930.05,989.122 1929.5,991C 1927.87,991.494 1926.2,991.66 1924.5,991.5C 1924.5,989.5 1924.5,987.5 1924.5,985.5C 1926.18,986.183 1926.84,987.517 1926.5,989.5C 1927.5,989.5 1928.5,989.5 1929.5,989.5C 1929.3,987.61 1929.96,986.11 1931.5,985C 1954.16,984.5 1976.83,984.333 1999.5,984.5 Z"/></g>
<g><path style="opacity:1" fill="#343a4c" d="M 1999.5,985.5 C 1999.5,986.167 1999.5,986.833 1999.5,987.5C 1977.17,987.5 1954.83,987.5 1932.5,987.5C 1932.5,987.167 1932.5,986.833 1932.5,986.5C 1954.66,985.503 1976.99,985.169 1999.5,985.5 Z"/></g>
<g><path style="opacity:1" fill="#3a455a" d="M 1901.5,977.5 C 1902.17,977.5 1902.83,977.5 1903.5,977.5C 1903.5,977.833 1903.5,978.167 1903.5,978.5C 1904.81,981.661 1907.15,983.661 1910.5,984.5C 1914.63,985.485 1918.97,985.818 1923.5,985.5C 1923.83,985.5 1924.17,985.5 1924.5,985.5C 1924.5,987.5 1924.5,989.5 1924.5,991.5C 1926.2,991.66 1927.87,991.494 1929.5,991C 1930.05,989.122 1931.05,987.622 1932.5,986.5C 1932.5,986.833 1932.5,987.167 1932.5,987.5C 1932.65,988.552 1932.48,989.552 1932,990.5C 1929.3,993.87 1925.8,995.204 1921.5,994.5C 1921.99,992.194 1922.33,989.861 1922.5,987.5C 1912.64,989.733 1905.64,986.399 1901.5,977.5 Z"/></g>
<g><path style="opacity:1" fill="#fefefe" d="M 1999.5,1038.5 C 1999.5,1043.83 1999.5,1049.17 1999.5,1054.5C 1945.17,1054.5 1890.83,1054.5 1836.5,1054.5C 1836.5,1055.5 1836.5,1056.5 1836.5,1057.5C 1890.83,1057.5 1945.17,1057.5 1999.5,1057.5C 1999.5,1064.17 1999.5,1070.83 1999.5,1077.5C 1782.17,1078.17 1782.17,1078.83 1999.5,1079.5C 1999.5,1085.17 1999.5,1090.83 1999.5,1096.5C 1949.5,1096.33 1899.5,1096.5 1849.5,1097C 1848.67,1098.82 1847.84,1100.65 1847,1102.5C 1845.89,1104.04 1844.39,1104.7 1842.5,1104.5C 1842.5,1101.83 1842.5,1099.17 1842.5,1096.5C 1833.04,1098.97 1826.21,1095.97 1822,1087.5C 1821.33,1074.17 1821.33,1060.83 1822,1047.5C 1823.4,1044.1 1825.57,1041.26 1828.5,1039C 1885.5,1038.5 1942.5,1038.33 1999.5,1038.5 Z"/></g>
<g><path style="opacity:1" fill="#5d6063" d="M 1999.5,1035.5 C 1999.5,1036.5 1999.5,1037.5 1999.5,1038.5C 1942.5,1038.33 1885.5,1038.5 1828.5,1039C 1825.57,1041.26 1823.4,1044.1 1822,1047.5C 1821.33,1060.83 1821.33,1074.17 1822,1087.5C 1826.21,1095.97 1833.04,1098.97 1842.5,1096.5C 1842.5,1099.17 1842.5,1101.83 1842.5,1104.5C 1844.39,1104.7 1845.89,1104.04 1847,1102.5C 1847.84,1100.65 1848.67,1098.82 1849.5,1097C 1899.5,1096.5 1949.5,1096.33 1999.5,1096.5C 1999.5,1097.5 1999.5,1098.5 1999.5,1099.5C 1949.83,1099.17 1900.16,1099.5 1850.5,1100.5C 1848.6,1105.62 1844.93,1107.95 1839.5,1107.5C 1839.58,1104.79 1839.91,1102.13 1840.5,1099.5C 1830.85,1100.93 1824.02,1097.26 1820,1088.5C 1818.43,1075.55 1818.1,1062.55 1819,1049.5C 1820.23,1044.2 1823.06,1040.04 1827.5,1037C 1884.77,1035.51 1942.11,1035.01 1999.5,1035.5 Z"/></g>
<g><path style="opacity:1" fill="#5c5c61" d="M 1999.5,1054.5 C 1999.5,1055.5 1999.5,1056.5 1999.5,1057.5C 1945.17,1057.5 1890.83,1057.5 1836.5,1057.5C 1836.5,1056.5 1836.5,1055.5 1836.5,1054.5C 1890.83,1054.5 1945.17,1054.5 1999.5,1054.5 Z"/></g>
<g><path style="opacity:1" fill="#565a60" d="M 1770.5,1124.5 C 1769.5,1124.5 1768.5,1124.5 1767.5,1124.5C 1767.67,1106.83 1767.5,1089.16 1767,1071.5C 1765.88,1069.38 1764.38,1067.54 1762.5,1066C 1732.73,1064.84 1702.89,1064.34 1673,1064.5C 1644.17,1064.67 1615.33,1064.83 1586.5,1065C 1582.96,1066.91 1580.46,1069.74 1579,1073.5C 1578.5,1090.5 1578.33,1107.5 1578.5,1124.5C 1577.5,1124.5 1576.5,1124.5 1575.5,1124.5C 1575.33,1108.16 1575.5,1091.83 1576,1075.5C 1577.28,1069.89 1580.45,1065.72 1585.5,1063C 1614.61,1061.84 1643.77,1061.34 1673,1061.5C 1701.17,1061.67 1729.33,1061.83 1757.5,1062C 1763.78,1063.05 1767.94,1066.55 1770,1072.5C 1770.5,1089.83 1770.67,1107.16 1770.5,1124.5 Z"/></g>
<g><path style="opacity:1" fill="#c2c7ce" d="M 1767.5,1124.5 C 1704.5,1124.5 1641.5,1124.5 1578.5,1124.5C 1578.33,1107.5 1578.5,1090.5 1579,1073.5C 1580.46,1069.74 1582.96,1066.91 1586.5,1065C 1615.33,1064.83 1644.17,1064.67 1673,1064.5C 1702.89,1064.34 1732.73,1064.84 1762.5,1066C 1764.38,1067.54 1765.88,1069.38 1767,1071.5C 1767.5,1089.16 1767.67,1106.83 1767.5,1124.5 Z"/></g>
<g><path style="opacity:1" fill="#373b3e" d="M 1999.5,1077.5 C 1999.5,1078.17 1999.5,1078.83 1999.5,1079.5C 1782.17,1078.83 1782.17,1078.17 1999.5,1077.5 Z"/></g>
<g><path style="opacity:1" fill="#373c42" d="M 1600.5,1087.5 C 1649.17,1087.17 1697.84,1087.5 1746.5,1088.5C 1722.17,1088.83 1697.83,1089.17 1673.5,1089.5C 1648.82,1089.5 1624.49,1088.83 1600.5,1087.5 Z"/></g>
<g><path style="opacity:1" fill="#585d64" d="M 1600.5,1109.5 C 1649.17,1109.5 1697.83,1109.5 1746.5,1109.5C 1746.5,1110.5 1746.5,1111.5 1746.5,1112.5C 1697.83,1112.5 1649.17,1112.5 1600.5,1112.5C 1600.5,1111.5 1600.5,1110.5 1600.5,1109.5 Z"/></g>
</svg>
