<?xml version="1.0" encoding="UTF-8"?>
<!DOCTYPE svg PUBLIC "-//W3C//DTD SVG 1.1//EN" "http://www.w3.org/Graphics/SVG/1.1/DTD/svg11.dtd">
<svg xmlns="http://www.w3.org/2000/svg" version="1.1" width="2000px" height="1125px" style="shape-rendering:geometricPrecision; text-rendering:geometricPrecision; image-rendering:optimizeQuality; fill-rule:evenodd; clip-rule:evenodd" xmlns:xlink="http://www.w3.org/1999/xlink">
<g><path style="opacity:1" fill="#edf0f5" d="M -0.5,-0.5 C 38.1667,-0.5 76.8333,-0.5 115.5,-0.5C 115.5,60.5 115.5,121.5 115.5,182.5C 116.5,182.5 117.5,182.5 118.5,182.5C 118.5,121.5 118.5,60.5 118.5,-0.5C 618.5,-0.5 1118.5,-0.5 1618.5,-0.5C 1618.33,15.8367 1618.5,32.1701 1619,48.5C 1619.23,49.7375 1619.73,50.7375 1620.5,51.5C 1620.5,51.8333 1620.5,52.1667 1620.5,52.5C 1622.05,56.1232 1624.72,58.6232 1628.5,60C 1678.17,60.5 1727.83,60.6667 1777.5,60.5C 1778.55,60.3505 1779.55,60.5172 1780.5,61C 1781.33,62.9923 1782.66,64.4923 1784.5,65.5C 1786.78,67.2227 1789.45,67.8893 1792.5,67.5C 1792.33,65.139 1791.99,62.8056 1791.5,60.5C 1800.61,62.4152 1807.45,59.4152 1812,51.5C 1812.5,34.1699 1812.67,16.8365 1812.5,-0.5C 1874.83,-0.5 1937.17,-0.5 1999.5,-0.5C 1999.5,49.8333 1999.5,100.167 1999.5,150.5C 1967.5,150.333 1935.5,150.5 1903.5,151C 1897.67,152.833 1893.83,156.667 1892,162.5C 1891.33,257.833 1891.33,353.167 1892,448.5C 1895.46,458.769 1902.63,463.102 1913.5,461.5C 1913.5,463.5 1913.5,465.5 1913.5,467.5C 1918.36,468.162 1922.02,466.329 1924.5,462C 1949.5,461.5 1974.5,461.333 1999.5,461.5C 1999.5,473.833 1999.5,486.167 1999.5,498.5C 1967.5,498.333 1935.5,498.5 1903.5,499C 1897.67,500.833 1893.83,504.667 1892,510.5C 1891.33,535.167 1891.33,559.833 1892,584.5C 1895.43,594.723 1902.59,599.057 1913.5,597.5C 1912.08,603.485 1914.41,604.985 1920.5,602C 1921.69,600.981 1922.69,599.814 1923.5,598.5C 1948.82,597.5 1974.16,597.167 1999.5,597.5C 1999.5,773.167 1999.5,948.833 1999.5,1124.5C 1332.83,1124.5 666.167,1124.5 -0.5,1124.5C -0.5,749.5 -0.5,374.5 -0.5,-0.5 Z"/></g>
<g><path style="opacity:1" fill="#575a5f" d="M 115.5,-0.5 C 116.5,-0.5 117.5,-0.5 118.5,-0.5C 118.5,60.5 118.5,121.5 118.5,182.5C 117.5,182.5 116.5,182.5 115.5,182.5C 115.5,121.5 115.5,60.5 115.5,-0.5 Z"/></g>
<g><path style="opacity:1" fill="#354b8e" d="M 1620.5,-0.5 C 1620.83,-0.5 1621.17,-0.5 1621.5,-0.5C 1621.19,17.2136 1621.53,34.8802 1622.5,52.5C 1621.83,52.5 1621.17,52.5 1620.5,52.5C 1620.5,52.1667 1620.5,51.8333 1620.5,51.5C 1620.5,34.1667 1620.5,16.8333 1620.5,-0.5 Z"/></g>
<g><path style="opacity:1" fill="#3b62f7" d="M 1622.5,-0.5 C 1674.17,-0.5 1725.83,-0.5 1777.5,-0.5C 1732.66,0.166666 1687.66,0.833333 1642.5,1.5C 1640.04,2.91898 1637.37,3.91898 1634.5,4.5C 1634.83,5.16667 1635.17,5.83333 1635.5,6.5C 1633.6,7.46557 1631.6,7.7989 1629.5,7.5C 1629.5,9.83333 1629.5,12.1667 1629.5,14.5C 1681.05,14.2374 1732.88,14.5708 1785,15.5C 1786.98,15.1015 1788.48,14.1015 1789.5,12.5C 1789.5,11.5 1789.5,10.5 1789.5,9.5C 1740.5,8.16667 1691.5,8.16667 1642.5,9.5C 1641.08,11.5449 1639.08,12.5449 1636.5,12.5C 1636.28,10.3193 1637.12,8.65262 1639,7.5C 1639.33,7.83333 1639.67,8.16667 1640,8.5C 1641.79,6.90073 1643.95,6.0674 1646.5,6C 1647.34,4.98873 1647.67,3.82207 1647.5,2.5C 1690.17,2.5 1732.83,2.5 1775.5,2.5C 1775.5,3.5 1775.5,4.5 1775.5,5.5C 1780.19,5.83799 1784.85,6.00466 1789.5,6C 1789.83,5.66667 1790.17,5.33333 1790.5,5C 1788.05,4.71047 1785.71,4.0438 1783.5,3C 1783.96,2.58605 1784.29,2.08605 1784.5,1.5C 1783.76,0.818153 1783.09,0.151487 1782.5,-0.5C 1790.83,-0.5 1799.17,-0.5 1807.5,-0.5C 1807.6,17.8954 1807.6,35.8954 1807.5,53.5C 1807.5,54.8333 1806.83,55.5 1805.5,55.5C 1800.46,56.8272 1795.46,57.8272 1790.5,58.5C 1789.83,58.5 1789.17,58.5 1788.5,58.5C 1787.84,59.3984 1787.18,60.3984 1786.5,61.5C 1785.25,59.9991 1784.25,58.3325 1783.5,56.5C 1786.22,56.0014 1788.55,54.8347 1790.5,53C 1786.52,53.0172 1782.52,53.1839 1778.5,53.5C 1778.5,54.5 1778.5,55.5 1778.5,56.5C 1727.79,56.9772 1677.13,56.4772 1626.5,55C 1624.76,52.8078 1623.6,50.3078 1623,47.5C 1622.5,31.5035 1622.33,15.5035 1622.5,-0.5 Z"/></g>
<g><path style="opacity:1" fill="#4163e6" d="M 1807.5,-0.5 C 1808.5,-0.5 1809.5,-0.5 1810.5,-0.5C 1810.67,16.5033 1810.5,33.5033 1810,50.5C 1809.15,51.5707 1808.31,52.5707 1807.5,53.5C 1807.6,35.8954 1807.6,17.8954 1807.5,-0.5 Z"/></g>
<g><path style="opacity:1" fill="#313f65" d="M 1810.5,-0.5 C 1811.17,-0.5 1811.83,-0.5 1812.5,-0.5C 1812.67,16.8365 1812.5,34.1699 1812,51.5C 1807.45,59.4152 1800.61,62.4152 1791.5,60.5C 1791.99,62.8056 1792.33,65.139 1792.5,67.5C 1789.45,67.8893 1786.78,67.2227 1784.5,65.5C 1786.17,65.5 1787.83,65.5 1789.5,65.5C 1789.5,63.5 1789.5,61.5 1789.5,59.5C 1793.7,59.8168 1797.7,59.4834 1801.5,58.5C 1802.87,57.4884 1804.2,56.4884 1805.5,55.5C 1806.83,55.5 1807.5,54.8333 1807.5,53.5C 1808.31,52.5707 1809.15,51.5707 1810,50.5C 1810.5,33.5033 1810.67,16.5033 1810.5,-0.5 Z"/></g>
<g><path style="opacity:1" fill="#3d64eb" d="M 1777.5,-0.5 C 1779.17,-0.5 1780.83,-0.5 1782.5,-0.5C 1783.09,0.151487 1783.76,0.818153 1784.5,1.5C 1784.29,2.08605 1783.96,2.58605 1783.5,3C 1785.71,4.0438 1788.05,4.71047 1790.5,5C 1790.17,5.33333 1789.83,5.66667 1789.5,6C 1784.85,6.00466 1780.19,5.83799 1775.5,5.5C 1775.5,4.5 1775.5,3.5 1775.5,2.5C 1732.83,2.5 1690.17,2.5 1647.5,2.5C 1647.67,3.82207 1647.34,4.98873 1646.5,6C 1643.95,6.0674 1641.79,6.90073 1640,8.5C 1639.67,8.16667 1639.33,7.83333 1639,7.5C 1637.12,8.65262 1636.28,10.3193 1636.5,12.5C 1639.08,12.5449 1641.08,11.5449 1642.5,9.5C 1642.26,10.791 1642.6,11.791 1643.5,12.5C 1692.17,12.5 1740.83,12.5 1789.5,12.5C 1788.48,14.1015 1786.98,15.1015 1785,15.5C 1732.88,14.5708 1681.05,14.2374 1629.5,14.5C 1629.5,12.1667 1629.5,9.83333 1629.5,7.5C 1631.6,7.7989 1633.6,7.46557 1635.5,6.5C 1635.17,5.83333 1634.83,5.16667 1634.5,4.5C 1637.37,3.91898 1640.04,2.91898 1642.5,1.5C 1687.66,0.833333 1732.66,0.166666 1777.5,-0.5 Z"/></g>
<g><path style="opacity:1" fill="#4362d5" d="M 1789.5,9.5 C 1740.83,9.5 1692.17,9.5 1643.5,9.5C 1643.5,10.5 1643.5,11.5 1643.5,12.5C 1642.6,11.791 1642.26,10.791 1642.5,9.5C 1691.5,8.16667 1740.5,8.16667 1789.5,9.5 Z"/></g>
<g><path style="opacity:1" fill="#c2d4fa" d="M 1789.5,9.5 C 1789.5,10.5 1789.5,11.5 1789.5,12.5C 1740.83,12.5 1692.17,12.5 1643.5,12.5C 1643.5,11.5 1643.5,10.5 1643.5,9.5C 1692.17,9.5 1740.83,9.5 1789.5,9.5 Z"/></g>
<g><path style="opacity:1" fill="#404b61" d="M 1618.5,-0.5 C 1619.17,-0.5 1619.83,-0.5 1620.5,-0.5C 1620.5,16.8333 1620.5,34.1667 1620.5,51.5C 1619.73,50.7375 1619.23,49.7375 1619,48.5C 1618.5,32.1701 1618.33,15.8367 1618.5,-0.5 Z"/></g>
<g><path style="opacity:1" fill="#4764d6" d="M 1644.5,29.5 C 1668.17,29.3334 1691.84,29.5 1715.5,30C 1717.36,31.4178 1717.86,33.2511 1717,35.5C 1692.24,36.4945 1667.41,36.8278 1642.5,36.5C 1642.17,33.812 1642.83,31.4786 1644.5,29.5 Z"/></g>
<g><path style="opacity:1" fill="#d1ecff" d="M 1643.5,32.5 C 1667.84,32.1669 1692.18,32.5003 1716.5,33.5C 1704.33,33.8333 1692.17,34.1667 1680,34.5C 1667.48,34.4991 1655.31,33.8324 1643.5,32.5 Z"/></g>
<g><path style="opacity:1" fill="#fdfdfd" d="M 1851.5,50.5 C 1868.17,50.3334 1884.84,50.5001 1901.5,51C 1904.2,51.6898 1906.36,53.1898 1908,55.5C 1909.64,74.0763 1909.97,92.743 1909,111.5C 1907.54,113.96 1905.71,116.127 1903.5,118C 1886.17,118.667 1868.83,118.667 1851.5,118C 1848.06,116.895 1845.56,114.728 1844,111.5C 1843.33,93.8333 1843.33,76.1667 1844,58.5C 1844.33,57.5 1844.67,56.5 1845,55.5C 1847.33,53.9343 1849.49,52.2676 1851.5,50.5 Z"/></g>
<g><path style="opacity:1" fill="#4463e1" d="M 1621.5,-0.5 C 1621.83,-0.5 1622.17,-0.5 1622.5,-0.5C 1622.33,15.5035 1622.5,31.5035 1623,47.5C 1623.6,50.3078 1624.76,52.8078 1626.5,55C 1677.13,56.4772 1727.79,56.9772 1778.5,56.5C 1778.5,55.5 1778.5,54.5 1778.5,53.5C 1782.52,53.1839 1786.52,53.0172 1790.5,53C 1788.55,54.8347 1786.22,56.0014 1783.5,56.5C 1784.25,58.3325 1785.25,59.9991 1786.5,61.5C 1787.18,60.3984 1787.84,59.3984 1788.5,58.5C 1788.5,60.1667 1788.5,61.8333 1788.5,63.5C 1787.17,63.5 1785.83,63.5 1784.5,63.5C 1784.61,61.4862 1783.94,59.8195 1782.5,58.5C 1730.63,57.8247 1678.63,57.158 1626.5,56.5C 1624.83,55.5 1623.5,54.1667 1622.5,52.5C 1621.53,34.8802 1621.19,17.2136 1621.5,-0.5 Z"/></g>
<g><path style="opacity:1" fill="#4763c3" d="M 1626.5,56.5 C 1678.63,57.158 1730.63,57.8247 1782.5,58.5C 1732.17,58.5 1681.83,58.5 1631.5,58.5C 1629.3,58.8799 1627.64,58.2132 1626.5,56.5 Z"/></g>
<g><path style="opacity:1" fill="#4860c5" d="M 1805.5,55.5 C 1804.2,56.4884 1802.87,57.4884 1801.5,58.5C 1797.83,58.5 1794.17,58.5 1790.5,58.5C 1795.46,57.8272 1800.46,56.8272 1805.5,55.5 Z"/></g>
<g><path style="opacity:1" fill="#2a3e76" d="M 1631.5,58.5 C 1681.83,58.5 1732.17,58.5 1782.5,58.5C 1783.94,59.8195 1784.61,61.4862 1784.5,63.5C 1785.83,63.5 1787.17,63.5 1788.5,63.5C 1788.5,61.8333 1788.5,60.1667 1788.5,58.5C 1789.17,58.5 1789.83,58.5 1790.5,58.5C 1794.17,58.5 1797.83,58.5 1801.5,58.5C 1797.7,59.4834 1793.7,59.8168 1789.5,59.5C 1789.5,61.5 1789.5,63.5 1789.5,65.5C 1787.83,65.5 1786.17,65.5 1784.5,65.5C 1782.66,64.4923 1781.33,62.9923 1780.5,61C 1779.55,60.5172 1778.55,60.3505 1777.5,60.5C 1728.83,59.8333 1680.17,59.1667 1631.5,58.5 Z"/></g>
<g><path style="opacity:1" fill="#2c3a55" d="M 1620.5,52.5 C 1621.17,52.5 1621.83,52.5 1622.5,52.5C 1623.5,54.1667 1624.83,55.5 1626.5,56.5C 1627.64,58.2132 1629.3,58.8799 1631.5,58.5C 1680.17,59.1667 1728.83,59.8333 1777.5,60.5C 1727.83,60.6667 1678.17,60.5 1628.5,60C 1624.72,58.6232 1622.05,56.1232 1620.5,52.5 Z"/></g>
<g><path style="opacity:1" fill="#4f5154" d="M 1872.5,64.5 C 1886.12,64.302 1894.12,70.802 1896.5,84C 1896.05,88.1724 1894.72,92.0057 1892.5,95.5C 1893.69,96.4287 1895.02,96.762 1896.5,96.5C 1896.77,99.1194 1896.44,101.619 1895.5,104C 1888.17,104.667 1880.83,104.667 1873.5,104C 1859.54,99.2407 1854.7,89.7407 1859,75.5C 1862.34,70.2685 1866.84,66.6018 1872.5,64.5 Z"/></g>
<g><path style="opacity:1" fill="#fbfcfc" d="M 1870.5,67.5 C 1886.4,65.907 1893.9,72.907 1893,88.5C 1892.19,91.8214 1890.69,94.8214 1888.5,97.5C 1890.05,98.4519 1891.71,98.7852 1893.5,98.5C 1893.5,99.5 1893.5,100.5 1893.5,101.5C 1886.16,101.666 1878.83,101.5 1871.5,101C 1862.05,96.9445 1858.22,89.7779 1860,79.5C 1860.9,76.9293 1862.23,74.596 1864,72.5C 1866.35,70.9697 1868.52,69.3031 1870.5,67.5 Z"/></g>
<g><path style="opacity:1" fill="#c0e1fd" d="M 1999.5,153.5 C 1999.5,164.167 1999.5,174.833 1999.5,185.5C 1973.83,185.5 1948.17,185.5 1922.5,185.5C 1922.5,186.5 1922.5,187.5 1922.5,188.5C 1948.17,188.5 1973.83,188.5 1999.5,188.5C 1999.5,194.833 1999.5,201.167 1999.5,207.5C 1973.83,207.5 1948.17,207.5 1922.5,207.5C 1922.5,208.5 1922.5,209.5 1922.5,210.5C 1948.17,210.5 1973.83,210.5 1999.5,210.5C 1999.5,216.833 1999.5,223.167 1999.5,229.5C 1973.83,229.5 1948.17,229.5 1922.5,229.5C 1922.5,230.5 1922.5,231.5 1922.5,232.5C 1948.17,232.5 1973.83,232.5 1999.5,232.5C 1999.5,239.167 1999.5,245.833 1999.5,252.5C 1896.83,253.167 1896.83,253.833 1999.5,254.5C 1999.5,261.167 1999.5,267.833 1999.5,274.5C 1896.83,275.167 1896.83,275.833 1999.5,276.5C 1999.5,283.167 1999.5,289.833 1999.5,296.5C 1973.83,296.5 1948.17,296.5 1922.5,296.5C 1922.5,297.5 1922.5,298.5 1922.5,299.5C 1948.17,299.5 1973.83,299.5 1999.5,299.5C 1999.5,305.833 1999.5,312.167 1999.5,318.5C 1973.83,318.5 1948.17,318.5 1922.5,318.5C 1922.5,319.5 1922.5,320.5 1922.5,321.5C 1948.17,321.5 1973.83,321.5 1999.5,321.5C 1999.5,327.833 1999.5,334.167 1999.5,340.5C 1973.83,340.5 1948.17,340.5 1922.5,340.5C 1922.5,341.5 1922.5,342.5 1922.5,343.5C 1948.17,343.5 1973.83,343.5 1999.5,343.5C 1999.5,350.167 1999.5,356.833 1999.5,363.5C 1896.83,364.167 1896.83,364.833 1999.5,365.5C 1999.5,372.167 1999.5,378.833 1999.5,385.5C 1973.83,385.5 1948.17,385.5 1922.5,385.5C 1922.5,386.5 1922.5,387.5 1922.5,388.5C 1948.17,388.5 1973.83,388.5 1999.5,388.5C 1999.5,394.833 1999.5,401.167 1999.5,407.5C 1973.83,407.5 1948.17,407.5 1922.5,407.5C 1922.5,408.5 1922.5,409.5 1922.5,410.5C 1948.17,410.5 1973.83,410.5 1999.5,410.5C 1999.5,425.5 1999.5,440.5 1999.5,455.5C 1998.54,455.953 1997.71,456.619 1997,457.5C 1993.08,456.623 1989.42,456.623 1986,457.5C 1984.15,455.219 1982.48,455.219 1981,457.5C 1977.08,456.623 1973.42,456.623 1970,457.5C 1968.15,455.219 1966.48,455.219 1965,457.5C 1951.41,456.203 1937.74,456.203 1924,457.5C 1923.05,457.095 1922.39,456.428 1922,455.5C 1920.33,455.833 1918.67,456.167 1917,456.5C 1915.08,455.684 1913.08,455.017 1911,454.5C 1903.3,458.315 1898.63,455.982 1897,447.5C 1896.33,351.833 1896.33,256.167 1897,160.5C 1898.41,158.935 1899.58,157.269 1900.5,155.5C 1900.92,154.778 1901.58,154.278 1902.5,154C 1934.83,153.5 1967.16,153.333 1999.5,153.5 Z"/></g>
<g><path style="opacity:1" fill="#515e6c" d="M 1999.5,150.5 C 1999.5,151.5 1999.5,152.5 1999.5,153.5C 1967.16,153.333 1934.83,153.5 1902.5,154C 1901.58,154.278 1900.92,154.778 1900.5,155.5C 1897.55,156.359 1895.71,158.359 1895,161.5C 1894.33,257.5 1894.33,353.5 1895,449.5C 1896.42,453.251 1898.92,456.084 1902.5,458C 1906.83,458.333 1911.17,458.667 1915.5,459C 1916.32,461.333 1916.65,463.5 1916.5,465.5C 1919.5,464.5 1921.5,462.5 1922.5,459.5C 1948.16,458.5 1973.82,458.167 1999.5,458.5C 1999.5,459.5 1999.5,460.5 1999.5,461.5C 1974.5,461.333 1949.5,461.5 1924.5,462C 1922.02,466.329 1918.36,468.162 1913.5,467.5C 1913.5,465.5 1913.5,463.5 1913.5,461.5C 1902.63,463.102 1895.46,458.769 1892,448.5C 1891.33,353.167 1891.33,257.833 1892,162.5C 1893.83,156.667 1897.67,152.833 1903.5,151C 1935.5,150.5 1967.5,150.333 1999.5,150.5 Z"/></g>
<g><path style="opacity:1" fill="#495a69" d="M 1999.5,185.5 C 1999.5,186.5 1999.5,187.5 1999.5,188.5C 1973.83,188.5 1948.17,188.5 1922.5,188.5C 1922.5,187.5 1922.5,186.5 1922.5,185.5C 1948.17,185.5 1973.83,185.5 1999.5,185.5 Z"/></g>
<g><path style="opacity:1" fill="#49596a" d="M 1999.5,207.5 C 1999.5,208.5 1999.5,209.5 1999.5,210.5C 1973.83,210.5 1948.17,210.5 1922.5,210.5C 1922.5,209.5 1922.5,208.5 1922.5,207.5C 1948.17,207.5 1973.83,207.5 1999.5,207.5 Z"/></g>
<g><path style="opacity:1" fill="#485a6a" d="M 1999.5,229.5 C 1999.5,230.5 1999.5,231.5 1999.5,232.5C 1973.83,232.5 1948.17,232.5 1922.5,232.5C 1922.5,231.5 1922.5,230.5 1922.5,229.5C 1948.17,229.5 1973.83,229.5 1999.5,229.5 Z"/></g>
<g><path style="opacity:1" fill="#2b3e53" d="M 1999.5,252.5 C 1999.5,253.167 1999.5,253.833 1999.5,254.5C 1896.83,253.833 1896.83,253.167 1999.5,252.5 Z"/></g>
<g><path style="opacity:1" fill="#2b3d4e" d="M 1999.5,274.5 C 1999.5,275.167 1999.5,275.833 1999.5,276.5C 1896.83,275.833 1896.83,275.167 1999.5,274.5 Z"/></g>
<g><path style="opacity:1" fill="#485a6d" d="M 1999.5,296.5 C 1999.5,297.5 1999.5,298.5 1999.5,299.5C 1973.83,299.5 1948.17,299.5 1922.5,299.5C 1922.5,298.5 1922.5,297.5 1922.5,296.5C 1948.17,296.5 1973.83,296.5 1999.5,296.5 Z"/></g>
<g><path style="opacity:1" fill="#475b6e" d="M 1999.5,318.5 C 1999.5,319.5 1999.5,320.5 1999.5,321.5C 1973.83,321.5 1948.17,321.5 1922.5,321.5C 1922.5,320.5 1922.5,319.5 1922.5,318.5C 1948.17,318.5 1973.83,318.5 1999.5,318.5 Z"/></g>
<g><path style="opacity:1" fill="#49596b" d="M 1999.5,340.5 C 1999.5,341.5 1999.5,342.5 1999.5,343.5C 1973.83,343.5 1948.17,343.5 1922.5,343.5C 1922.5,342.5 1922.5,341.5 1922.5,340.5C 1948.17,340.5 1973.83,340.5 1999.5,340.5 Z"/></g>
<g><path style="opacity:1" fill="#333d49" d="M 1999.5,363.5 C 1999.5,364.167 1999.5,364.833 1999.5,365.5C 1896.83,364.833 1896.83,364.167 1999.5,363.5 Z"/></g>
<g><path style="opacity:1" fill="#4d5967" d="M 1999.5,385.5 C 1999.5,386.5 1999.5,387.5 1999.5,388.5C 1973.83,388.5 1948.17,388.5 1922.5,388.5C 1922.5,387.5 1922.5,386.5 1922.5,385.5C 1948.17,385.5 1973.83,385.5 1999.5,385.5 Z"/></g>
<g><path style="opacity:1" fill="#49596b" d="M 1999.5,407.5 C 1999.5,408.5 1999.5,409.5 1999.5,410.5C 1973.83,410.5 1948.17,410.5 1922.5,410.5C 1922.5,409.5 1922.5,408.5 1922.5,407.5C 1948.17,407.5 1973.83,407.5 1999.5,407.5 Z"/></g>
<g><path style="opacity:1" fill="#73889c" d="M 1922.5,430.5 C 1942.99,429.503 1963.66,429.169 1984.5,429.5C 1984.74,430.791 1984.4,431.791 1983.5,432.5C 1963.53,430.512 1943.19,429.845 1922.5,430.5 Z"/></g>
<g><path style="opacity:1" fill="#455a70" d="M 1922.5,430.5 C 1943.19,429.845 1963.53,430.512 1983.5,432.5C 1962.81,433.155 1942.47,432.488 1922.5,430.5 Z"/></g>
<g><path style="opacity:1" fill="#c4dff8" d="M 1900.5,155.5 C 1899.58,157.269 1898.41,158.935 1897,160.5C 1896.33,256.167 1896.33,351.833 1897,447.5C 1898.63,455.982 1903.3,458.315 1911,454.5C 1913.08,455.017 1915.08,455.684 1917,456.5C 1918.67,456.167 1920.33,455.833 1922,455.5C 1922.39,456.428 1923.05,457.095 1924,457.5C 1937.74,456.203 1951.41,456.203 1965,457.5C 1966.48,455.219 1968.15,455.219 1970,457.5C 1973.42,456.623 1977.08,456.623 1981,457.5C 1982.48,455.219 1984.15,455.219 1986,457.5C 1989.42,456.623 1993.08,456.623 1997,457.5C 1997.71,456.619 1998.54,455.953 1999.5,455.5C 1999.5,456.5 1999.5,457.5 1999.5,458.5C 1973.82,458.167 1948.16,458.5 1922.5,459.5C 1921.5,462.5 1919.5,464.5 1916.5,465.5C 1916.65,463.5 1916.32,461.333 1915.5,459C 1911.17,458.667 1906.83,458.333 1902.5,458C 1898.92,456.084 1896.42,453.251 1895,449.5C 1894.33,353.5 1894.33,257.5 1895,161.5C 1895.71,158.359 1897.55,156.359 1900.5,155.5 Z"/></g>
<g><path style="opacity:1" fill="#fefefe" d="M 1999.5,501.5 C 1999.5,509.5 1999.5,517.5 1999.5,525.5C 1887.5,526.167 1887.5,526.833 1999.5,527.5C 1999.5,534.167 1999.5,540.833 1999.5,547.5C 1971.5,547.5 1943.5,547.5 1915.5,547.5C 1915.5,548.5 1915.5,549.5 1915.5,550.5C 1943.5,550.5 1971.5,550.5 1999.5,550.5C 1999.5,556.833 1999.5,563.167 1999.5,569.5C 1971.5,569.5 1943.5,569.5 1915.5,569.5C 1915.5,570.5 1915.5,571.5 1915.5,572.5C 1943.5,572.5 1971.5,572.5 1999.5,572.5C 1999.5,579.833 1999.5,587.167 1999.5,594.5C 1973.82,594.167 1948.16,594.5 1922.5,595.5C 1917.97,603.356 1915.64,603.022 1915.5,594.5C 1910.82,594.666 1906.15,594.499 1901.5,594C 1897.83,592.332 1895.67,589.499 1895,585.5C 1894.33,559.833 1894.33,534.167 1895,508.5C 1896.6,505.781 1898.76,503.614 1901.5,502C 1934.16,501.5 1966.83,501.333 1999.5,501.5 Z"/></g>
<g><path style="opacity:1" fill="#5d5f63" d="M 1999.5,498.5 C 1999.5,499.5 1999.5,500.5 1999.5,501.5C 1966.83,501.333 1934.16,501.5 1901.5,502C 1898.76,503.614 1896.6,505.781 1895,508.5C 1894.33,534.167 1894.33,559.833 1895,585.5C 1895.67,589.499 1897.83,592.332 1901.5,594C 1906.15,594.499 1910.82,594.666 1915.5,594.5C 1915.64,603.022 1917.97,603.356 1922.5,595.5C 1948.16,594.5 1973.82,594.167 1999.5,594.5C 1999.5,595.5 1999.5,596.5 1999.5,597.5C 1974.16,597.167 1948.82,597.5 1923.5,598.5C 1922.69,599.814 1921.69,600.981 1920.5,602C 1914.41,604.985 1912.08,603.485 1913.5,597.5C 1902.59,599.057 1895.43,594.723 1892,584.5C 1891.33,559.833 1891.33,535.167 1892,510.5C 1893.83,504.667 1897.67,500.833 1903.5,499C 1935.5,498.5 1967.5,498.333 1999.5,498.5 Z"/></g>
<g><path style="opacity:1" fill="#373b3f" d="M 1999.5,525.5 C 1999.5,526.167 1999.5,526.833 1999.5,527.5C 1887.5,526.833 1887.5,526.167 1999.5,525.5 Z"/></g>
<g><path style="opacity:1" fill="#5b5c5e" d="M 1999.5,547.5 C 1999.5,548.5 1999.5,549.5 1999.5,550.5C 1971.5,550.5 1943.5,550.5 1915.5,550.5C 1915.5,549.5 1915.5,548.5 1915.5,547.5C 1943.5,547.5 1971.5,547.5 1999.5,547.5 Z"/></g>
<g><path style="opacity:1" fill="#5c5d5e" d="M 1999.5,569.5 C 1999.5,570.5 1999.5,571.5 1999.5,572.5C 1971.5,572.5 1943.5,572.5 1915.5,572.5C 1915.5,571.5 1915.5,570.5 1915.5,569.5C 1943.5,569.5 1971.5,569.5 1999.5,569.5 Z"/></g>
</svg>
