<?xml version="1.0" encoding="UTF-8"?>
<!DOCTYPE svg PUBLIC "-//W3C//DTD SVG 1.1//EN" "http://www.w3.org/Graphics/SVG/1.1/DTD/svg11.dtd">
<svg xmlns="http://www.w3.org/2000/svg" version="1.1" width="2000px" height="1125px" style="shape-rendering:geometricPrecision; text-rendering:geometricPrecision; image-rendering:optimizeQuality; fill-rule:evenodd; clip-rule:evenodd" xmlns:xlink="http://www.w3.org/1999/xlink">
<g><path style="opacity:1" fill="#eef1f6" d="M -0.5,-0.5 C 38.1667,-0.5 76.8333,-0.5 115.5,-0.5C 115.5,60.5 115.5,121.5 115.5,182.5C 116.5,182.5 117.5,182.5 118.5,182.5C 118.5,121.5 118.5,60.5 118.5,-0.5C 593.5,-0.5 1068.5,-0.5 1543.5,-0.5C 1543.33,17.1698 1543.5,34.8365 1544,52.5C 1545.34,56.8375 1547.84,60.3375 1551.5,63C 1602.78,64.32 1654.11,64.9867 1705.5,65C 1708.22,70.8914 1712.22,72.3914 1717.5,69.5C 1716.69,67.9291 1716.36,66.2624 1716.5,64.5C 1725.93,66.1283 1732.76,62.795 1737,54.5C 1737.5,36.1697 1737.67,17.8364 1737.5,-0.5C 1787.17,-0.5 1836.83,-0.5 1886.5,-0.5C 1886.33,76.5007 1886.5,153.501 1887,230.5C 1888.35,235.185 1891.18,238.685 1895.5,241C 1900.22,241.633 1904.56,242.8 1908.5,244.5C 1907.55,245.919 1907.22,247.585 1907.5,249.5C 1909.1,249.768 1910.43,249.434 1911.5,248.5C 1914.65,248.016 1916.99,246.349 1918.5,243.5C 1945.49,242.5 1972.49,242.167 1999.5,242.5C 1999.5,255.5 1999.5,268.5 1999.5,281.5C 1966.5,281.333 1933.5,281.5 1900.5,282C 1897.74,282.938 1895.41,284.438 1893.5,286.5C 1890.39,288.691 1888.22,291.691 1887,295.5C 1886.33,315.167 1886.33,334.833 1887,354.5C 1888.73,362.393 1893.56,367.06 1901.5,368.5C 1904.29,369.477 1907.29,369.81 1910.5,369.5C 1910.5,370.5 1910.5,371.5 1910.5,372.5C 1910.17,374.5 1909.83,376.5 1909.5,378.5C 1914.99,378.792 1919.32,376.792 1922.5,372.5C 1923.27,371.828 1923.93,370.995 1924.5,370C 1949.5,369.5 1974.5,369.333 1999.5,369.5C 1999.5,621.167 1999.5,872.833 1999.5,1124.5C 1332.83,1124.5 666.167,1124.5 -0.5,1124.5C -0.5,749.5 -0.5,374.5 -0.5,-0.5 Z"/></g>
<g><path style="opacity:1" fill="#575a5f" d="M 115.5,-0.5 C 116.5,-0.5 117.5,-0.5 118.5,-0.5C 118.5,60.5 118.5,121.5 118.5,182.5C 117.5,182.5 116.5,182.5 115.5,182.5C 115.5,121.5 115.5,60.5 115.5,-0.5 Z"/></g>
<g><path style="opacity:1" fill="#4e5c69" d="M 1886.5,-0.5 C 1887.5,-0.5 1888.5,-0.5 1889.5,-0.5C 1889.33,76.8341 1889.5,154.167 1890,231.5C 1891.86,235.686 1895.03,238.353 1899.5,239.5C 1903.17,239.5 1906.83,239.5 1910.5,239.5C 1910.98,248.031 1913.31,248.198 1917.5,240C 1944.83,239.5 1972.16,239.333 1999.5,239.5C 1999.5,240.5 1999.5,241.5 1999.5,242.5C 1972.49,242.167 1945.49,242.5 1918.5,243.5C 1916.99,246.349 1914.65,248.016 1911.5,248.5C 1910.5,248.5 1909.5,248.5 1908.5,248.5C 1908.5,247.167 1908.5,245.833 1908.5,244.5C 1904.56,242.8 1900.22,241.633 1895.5,241C 1891.18,238.685 1888.35,235.185 1887,230.5C 1886.5,153.501 1886.33,76.5007 1886.5,-0.5 Z"/></g>
<g><path style="opacity:1" fill="#c2e1fa" d="M 1889.5,-0.5 C 1890.83,-0.5 1892.17,-0.5 1893.5,-0.5C 1893.67,74.8341 1893.5,150.167 1893,225.5C 1892.5,226.5 1892,227.5 1891.5,228.5C 1893.96,232.479 1896.63,236.145 1899.5,239.5C 1895.03,238.353 1891.86,235.686 1890,231.5C 1889.5,154.167 1889.33,76.8341 1889.5,-0.5 Z"/></g>
<g><path style="opacity:1" fill="#c0e1fd" d="M 1893.5,-0.5 C 1928.83,-0.5 1964.17,-0.5 1999.5,-0.5C 1999.5,3.16667 1999.5,6.83333 1999.5,10.5C 1971.99,10.1688 1944.66,10.5021 1917.5,11.5C 1916.96,11.56 1916.62,11.8933 1916.5,12.5C 1944.16,13.4998 1971.83,13.8331 1999.5,13.5C 1999.5,20.1667 1999.5,26.8333 1999.5,33.5C 1890.17,34.1667 1890.17,34.8333 1999.5,35.5C 1999.5,42.1667 1999.5,48.8333 1999.5,55.5C 1890.17,56.1667 1890.17,56.8333 1999.5,57.5C 1999.5,64.1667 1999.5,70.8333 1999.5,77.5C 1971.83,77.5 1944.17,77.5 1916.5,77.5C 1916.5,78.5 1916.5,79.5 1916.5,80.5C 1944.17,80.5 1971.83,80.5 1999.5,80.5C 1999.5,86.8333 1999.5,93.1667 1999.5,99.5C 1971.99,99.1688 1944.66,99.5021 1917.5,100.5C 1916.96,100.56 1916.62,100.893 1916.5,101.5C 1944.16,102.5 1971.83,102.833 1999.5,102.5C 1999.5,108.833 1999.5,115.167 1999.5,121.5C 1971.83,121.5 1944.17,121.5 1916.5,121.5C 1916.26,122.791 1916.6,123.791 1917.5,124.5C 1944.83,124.5 1972.17,124.5 1999.5,124.5C 1999.5,131.167 1999.5,137.833 1999.5,144.5C 1888.83,145.167 1888.83,145.833 1999.5,146.5C 1999.5,153.167 1999.5,159.833 1999.5,166.5C 1971.83,166.5 1944.17,166.5 1916.5,166.5C 1916.5,167.5 1916.5,168.5 1916.5,169.5C 1944.17,169.5 1971.83,169.5 1999.5,169.5C 1999.5,175.833 1999.5,182.167 1999.5,188.5C 1971.83,188.5 1944.17,188.5 1916.5,188.5C 1916.5,189.5 1916.5,190.5 1916.5,191.5C 1944.17,191.5 1971.83,191.5 1999.5,191.5C 1999.5,207.5 1999.5,223.5 1999.5,239.5C 1972.16,239.333 1944.83,239.5 1917.5,240C 1913.31,248.198 1910.98,248.031 1910.5,239.5C 1906.83,239.5 1903.17,239.5 1899.5,239.5C 1896.63,236.145 1893.96,232.479 1891.5,228.5C 1892,227.5 1892.5,226.5 1893,225.5C 1893.5,150.167 1893.67,74.8341 1893.5,-0.5 Z"/></g>
<g><path style="opacity:1" fill="#495462" d="M 1999.5,10.5 C 1999.5,11.1667 1999.5,11.8333 1999.5,12.5C 1971.99,12.8312 1944.66,12.4979 1917.5,11.5C 1944.66,10.5021 1971.99,10.1688 1999.5,10.5 Z"/></g>
<g><path style="opacity:1" fill="#59697a" d="M 1917.5,11.5 C 1944.66,12.4979 1971.99,12.8312 1999.5,12.5C 1999.5,12.8333 1999.5,13.1667 1999.5,13.5C 1971.83,13.8331 1944.16,13.4998 1916.5,12.5C 1916.62,11.8933 1916.96,11.56 1917.5,11.5 Z"/></g>
<g><path style="opacity:1" fill="#323c48" d="M 1999.5,33.5 C 1999.5,34.1667 1999.5,34.8333 1999.5,35.5C 1890.17,34.8333 1890.17,34.1667 1999.5,33.5 Z"/></g>
<g><path style="opacity:1" fill="#fdfdfd" d="M 1791.5,49.5 C 1809.51,49.1671 1827.51,49.5005 1845.5,50.5C 1847.5,51.8333 1849.17,53.5 1850.5,55.5C 1851.83,74.1667 1851.83,92.8333 1850.5,111.5C 1848.71,114.566 1846.04,116.4 1842.5,117C 1825.5,117.667 1808.5,117.667 1791.5,117C 1789.71,116.215 1788.21,115.049 1787,113.5C 1785.38,94.2186 1785.05,74.8852 1786,55.5C 1788.06,53.6096 1789.89,51.6096 1791.5,49.5 Z"/></g>
<g><path style="opacity:1" fill="#333b47" d="M 1999.5,55.5 C 1999.5,56.1667 1999.5,56.8333 1999.5,57.5C 1890.17,56.8333 1890.17,56.1667 1999.5,55.5 Z"/></g>
<g><path style="opacity:1" fill="#3a3c41" d="M 1543.5,-0.5 C 1544.17,-0.5 1544.83,-0.5 1545.5,-0.5C 1545.33,16.8365 1545.5,34.1699 1546,51.5C 1546.81,55.6173 1548.97,58.784 1552.5,61C 1604.11,62.1536 1655.78,62.987 1707.5,63.5C 1708.47,67.3234 1710.8,68.8234 1714.5,68C 1713.59,66.3005 1713.26,64.4672 1713.5,62.5C 1718.6,62.8254 1723.6,62.3254 1728.5,61C 1731,59.8333 1732.83,58 1734,55.5C 1735.45,36.8884 1735.95,18.2218 1735.5,-0.5C 1736.17,-0.5 1736.83,-0.5 1737.5,-0.5C 1737.67,17.8364 1737.5,36.1697 1737,54.5C 1732.76,62.795 1725.93,66.1283 1716.5,64.5C 1716.36,66.2624 1716.69,67.9291 1717.5,69.5C 1712.22,72.3914 1708.22,70.8914 1705.5,65C 1654.11,64.9867 1602.78,64.32 1551.5,63C 1547.84,60.3375 1545.34,56.8375 1544,52.5C 1543.5,34.8365 1543.33,17.1698 1543.5,-0.5 Z"/></g>
<g><path style="opacity:1" fill="#fdfdfd" d="M 1545.5,-0.5 C 1608.83,-0.5 1672.17,-0.5 1735.5,-0.5C 1735.95,18.2218 1735.45,36.8884 1734,55.5C 1732.83,58 1731,59.8333 1728.5,61C 1723.6,62.3254 1718.6,62.8254 1713.5,62.5C 1713.26,64.4672 1713.59,66.3005 1714.5,68C 1710.8,68.8234 1708.47,67.3234 1707.5,63.5C 1655.78,62.987 1604.11,62.1536 1552.5,61C 1548.97,58.784 1546.81,55.6173 1546,51.5C 1545.5,34.1699 1545.33,16.8365 1545.5,-0.5 Z"/></g>
<g><path style="opacity:1" fill="#96979a" d="M 1640.5,38.5 C 1628.85,37.1676 1616.85,36.501 1604.5,36.5C 1592.15,36.501 1580.15,37.1676 1568.5,38.5C 1567.6,37.791 1567.26,36.791 1567.5,35.5C 1592.17,35.5 1616.83,35.5 1641.5,35.5C 1641.74,36.791 1641.4,37.791 1640.5,38.5 Z"/></g>
<g><path style="opacity:1" fill="#5c5d60" d="M 1640.5,38.5 C 1616.5,38.5 1592.5,38.5 1568.5,38.5C 1580.15,37.1676 1592.15,36.501 1604.5,36.5C 1616.85,36.501 1628.85,37.1676 1640.5,38.5 Z"/></g>
<g><path style="opacity:1" fill="#959596" d="M 1568.5,13.5 C 1616.82,15.4953 1665.49,16.162 1714.5,15.5C 1665.67,16.4988 1616.67,16.8322 1567.5,16.5C 1567.26,15.209 1567.6,14.209 1568.5,13.5 Z"/></g>
<g><path style="opacity:1" fill="#5c5d61" d="M 1568.5,13.5 C 1617.51,12.838 1666.18,13.5047 1714.5,15.5C 1665.49,16.162 1616.82,15.4953 1568.5,13.5 Z"/></g>
<g><path style="opacity:1" fill="#969799" d="M 1824.5,66.5 C 1820.5,66.5 1816.5,66.5 1812.5,66.5C 1812.81,70.3714 1812.48,74.0381 1811.5,77.5C 1811.5,73.5 1811.5,69.5 1811.5,65.5C 1816.03,65.1818 1820.37,65.5151 1824.5,66.5 Z"/></g>
<g><path style="opacity:1" fill="#c5c8ca" d="M 1824.5,66.5 C 1825.48,69.6248 1825.81,72.9581 1825.5,76.5C 1829.04,76.1872 1832.38,76.5206 1835.5,77.5C 1831.83,77.5 1828.17,77.5 1824.5,77.5C 1824.5,73.8333 1824.5,70.1667 1824.5,66.5 Z"/></g>
<g><path style="opacity:1" fill="#576e84" d="M 1999.5,77.5 C 1999.5,78.5 1999.5,79.5 1999.5,80.5C 1971.83,80.5 1944.17,80.5 1916.5,80.5C 1916.5,79.5 1916.5,78.5 1916.5,77.5C 1944.17,77.5 1971.83,77.5 1999.5,77.5 Z"/></g>
<g><path style="opacity:1" fill="#494a4d" d="M 1824.5,66.5 C 1824.5,70.1667 1824.5,73.8333 1824.5,77.5C 1828.17,77.5 1831.83,77.5 1835.5,77.5C 1836.48,81.2984 1836.82,85.2984 1836.5,89.5C 1832.5,89.5 1828.5,89.5 1824.5,89.5C 1824.5,93.1667 1824.5,96.8333 1824.5,100.5C 1820.5,100.5 1816.5,100.5 1812.5,100.5C 1812.81,96.6286 1812.48,92.9619 1811.5,89.5C 1807.83,89.5 1804.17,89.5 1800.5,89.5C 1800.5,85.5 1800.5,81.5 1800.5,77.5C 1804.17,77.5 1807.83,77.5 1811.5,77.5C 1812.48,74.0381 1812.81,70.3714 1812.5,66.5C 1816.5,66.5 1820.5,66.5 1824.5,66.5 Z"/></g>
<g><path style="opacity:1" fill="#747577" d="M 1814.5,68.5 C 1814.5,72.1667 1814.5,75.8333 1814.5,79.5C 1810.83,79.5 1807.17,79.5 1803.5,79.5C 1803.5,82.1667 1803.5,84.8333 1803.5,87.5C 1807.17,87.5 1810.83,87.5 1814.5,87.5C 1814.5,91.1667 1814.5,94.8333 1814.5,98.5C 1813.52,95.3752 1813.19,92.0419 1813.5,88.5C 1809.83,88.5 1806.17,88.5 1802.5,88.5C 1802.5,85.1667 1802.5,81.8333 1802.5,78.5C 1806.17,78.5 1809.83,78.5 1813.5,78.5C 1813.19,74.9581 1813.52,71.6248 1814.5,68.5 Z"/></g>
<g><path style="opacity:1" fill="#fdfefe" d="M 1814.5,68.5 C 1817.17,68.5 1819.83,68.5 1822.5,68.5C 1822.5,72.1667 1822.5,75.8333 1822.5,79.5C 1826.17,79.5 1829.83,79.5 1833.5,79.5C 1833.5,82.1667 1833.5,84.8333 1833.5,87.5C 1829.83,87.5 1826.17,87.5 1822.5,87.5C 1822.5,91.1667 1822.5,94.8333 1822.5,98.5C 1819.83,98.5 1817.17,98.5 1814.5,98.5C 1814.5,94.8333 1814.5,91.1667 1814.5,87.5C 1810.83,87.5 1807.17,87.5 1803.5,87.5C 1803.5,84.8333 1803.5,82.1667 1803.5,79.5C 1807.17,79.5 1810.83,79.5 1814.5,79.5C 1814.5,75.8333 1814.5,72.1667 1814.5,68.5 Z"/></g>
<g><path style="opacity:1" fill="#959699" d="M 1811.5,89.5 C 1812.48,92.9619 1812.81,96.6286 1812.5,100.5C 1816.5,100.5 1820.5,100.5 1824.5,100.5C 1820.37,101.485 1816.03,101.818 1811.5,101.5C 1811.5,97.5 1811.5,93.5 1811.5,89.5 Z"/></g>
<g><path style="opacity:1" fill="#435568" d="M 1999.5,99.5 C 1999.5,100.167 1999.5,100.833 1999.5,101.5C 1971.99,101.831 1944.66,101.498 1917.5,100.5C 1944.66,99.5021 1971.99,99.1688 1999.5,99.5 Z"/></g>
<g><path style="opacity:1" fill="#57697e" d="M 1917.5,100.5 C 1944.66,101.498 1971.99,101.831 1999.5,101.5C 1999.5,101.833 1999.5,102.167 1999.5,102.5C 1971.83,102.833 1944.16,102.5 1916.5,101.5C 1916.62,100.893 1916.96,100.56 1917.5,100.5 Z"/></g>
<g><path style="opacity:1" fill="#76899d" d="M 1999.5,121.5 C 1999.5,121.833 1999.5,122.167 1999.5,122.5C 1971.81,121.842 1944.48,122.509 1917.5,124.5C 1916.6,123.791 1916.26,122.791 1916.5,121.5C 1944.17,121.5 1971.83,121.5 1999.5,121.5 Z"/></g>
<g><path style="opacity:1" fill="#49596b" d="M 1999.5,122.5 C 1999.5,123.167 1999.5,123.833 1999.5,124.5C 1972.17,124.5 1944.83,124.5 1917.5,124.5C 1944.48,122.509 1971.81,121.842 1999.5,122.5 Z"/></g>
<g><path style="opacity:1" fill="#2a3e53" d="M 1999.5,144.5 C 1999.5,145.167 1999.5,145.833 1999.5,146.5C 1888.83,145.833 1888.83,145.167 1999.5,144.5 Z"/></g>
<g><path style="opacity:1" fill="#596d7e" d="M 1999.5,166.5 C 1999.5,167.5 1999.5,168.5 1999.5,169.5C 1971.83,169.5 1944.17,169.5 1916.5,169.5C 1916.5,168.5 1916.5,167.5 1916.5,166.5C 1944.17,166.5 1971.83,166.5 1999.5,166.5 Z"/></g>
<g><path style="opacity:1" fill="#5c6d7e" d="M 1999.5,188.5 C 1999.5,189.5 1999.5,190.5 1999.5,191.5C 1971.83,191.5 1944.17,191.5 1916.5,191.5C 1916.5,190.5 1916.5,189.5 1916.5,188.5C 1944.17,188.5 1971.83,188.5 1999.5,188.5 Z"/></g>
<g><path style="opacity:1" fill="#445565" d="M 1978.5,212.5 C 1957.99,212.83 1937.66,212.497 1917.5,211.5C 1927.49,210.833 1937.66,210.5 1948,210.5C 1958.52,210.501 1968.69,211.168 1978.5,212.5 Z"/></g>
<g><path style="opacity:1" fill="#556a7b" d="M 1917.5,211.5 C 1937.66,212.497 1957.99,212.83 1978.5,212.5C 1958,213.828 1937.33,213.828 1916.5,212.5C 1916.62,211.893 1916.96,211.56 1917.5,211.5 Z"/></g>
<g><path style="opacity:1" fill="#91949a" d="M 1908.5,244.5 C 1908.5,245.833 1908.5,247.167 1908.5,248.5C 1909.5,248.5 1910.5,248.5 1911.5,248.5C 1910.43,249.434 1909.1,249.768 1907.5,249.5C 1907.22,247.585 1907.55,245.919 1908.5,244.5 Z"/></g>
<g><path style="opacity:1" fill="#48526e" d="M 1999.5,281.5 C 1999.5,282.5 1999.5,283.5 1999.5,284.5C 1965.83,284.333 1932.17,284.5 1898.5,285C 1897.43,285.852 1896.43,286.685 1895.5,287.5C 1894.5,287.833 1893.83,288.5 1893.5,289.5C 1893.17,289.5 1892.83,289.5 1892.5,289.5C 1892.56,288.391 1892.89,287.391 1893.5,286.5C 1895.41,284.438 1897.74,282.938 1900.5,282C 1933.5,281.5 1966.5,281.333 1999.5,281.5 Z"/></g>
<g><path style="opacity:1" fill="#8eaaee" d="M 1999.5,284.5 C 1999.5,284.833 1999.5,285.167 1999.5,285.5C 1968.5,285.333 1937.5,285.5 1906.5,286C 1902.89,286.936 1899.22,287.436 1895.5,287.5C 1896.43,286.685 1897.43,285.852 1898.5,285C 1932.17,284.5 1965.83,284.333 1999.5,284.5 Z"/></g>
<g><path style="opacity:1" fill="#87abfd" d="M 1999.5,285.5 C 1999.5,290.5 1999.5,295.5 1999.5,300.5C 1969.16,300.167 1938.83,300.5 1908.5,301.5C 1907.02,302.944 1907.35,303.611 1909.5,303.5C 1939.5,303.5 1969.5,303.5 1999.5,303.5C 1999.5,309.833 1999.5,316.167 1999.5,322.5C 1968.17,322.5 1936.83,322.5 1905.5,322.5C 1905.5,323.5 1905.5,324.5 1905.5,325.5C 1906.83,325.5 1908.17,325.5 1909.5,325.5C 1939.33,326.498 1969.33,326.831 1999.5,326.5C 1999.5,339.167 1999.5,351.833 1999.5,364.5C 1977.5,364.667 1955.5,364.5 1933.5,364C 1931.24,363.764 1929.07,363.264 1927,362.5C 1924.24,364.027 1921.24,364.693 1918,364.5C 1910.42,364.032 1902.92,363.032 1895.5,361.5C 1894.52,360.019 1893.35,358.685 1892,357.5C 1891.67,355.833 1891.33,354.167 1891,352.5C 1890.33,333.167 1890.33,313.833 1891,294.5C 1892.37,293.09 1893.21,291.423 1893.5,289.5C 1893.83,288.5 1894.5,287.833 1895.5,287.5C 1899.22,287.436 1902.89,286.936 1906.5,286C 1937.5,285.5 1968.5,285.333 1999.5,285.5 Z"/></g>
<g><path style="opacity:1" fill="#90adea" d="M 1999.5,300.5 C 1999.5,300.833 1999.5,301.167 1999.5,301.5C 1969.15,300.841 1939.15,301.508 1909.5,303.5C 1907.35,303.611 1907.02,302.944 1908.5,301.5C 1938.83,300.5 1969.16,300.167 1999.5,300.5 Z"/></g>
<g><path style="opacity:1" fill="#2d3a5b" d="M 1999.5,301.5 C 1999.5,302.167 1999.5,302.833 1999.5,303.5C 1969.5,303.5 1939.5,303.5 1909.5,303.5C 1939.15,301.508 1969.15,300.841 1999.5,301.5 Z"/></g>
<g><path style="opacity:1" fill="#8baae7" d="M 1999.5,322.5 C 1999.5,322.833 1999.5,323.167 1999.5,323.5C 1969.15,322.841 1939.15,323.508 1909.5,325.5C 1908.17,325.5 1906.83,325.5 1905.5,325.5C 1905.5,324.5 1905.5,323.5 1905.5,322.5C 1936.83,322.5 1968.17,322.5 1999.5,322.5 Z"/></g>
<g><path style="opacity:1" fill="#43577f" d="M 1999.5,323.5 C 1999.5,324.5 1999.5,325.5 1999.5,326.5C 1969.33,326.831 1939.33,326.498 1909.5,325.5C 1939.15,323.508 1969.15,322.841 1999.5,323.5 Z"/></g>
<g><path style="opacity:1" fill="#465166" d="M 1893.5,286.5 C 1892.89,287.391 1892.56,288.391 1892.5,289.5C 1891.93,290.973 1891.09,292.307 1890,293.5C 1889.33,314.167 1889.33,334.833 1890,355.5C 1891.73,361.393 1895.56,365.06 1901.5,366.5C 1904.96,367.482 1908.63,367.815 1912.5,367.5C 1912.5,369.167 1912.5,370.833 1912.5,372.5C 1912.5,373.5 1912.5,374.5 1912.5,375.5C 1915.49,375.834 1917.82,374.834 1919.5,372.5C 1920.5,372.5 1921.5,372.5 1922.5,372.5C 1919.32,376.792 1914.99,378.792 1909.5,378.5C 1909.83,376.5 1910.17,374.5 1910.5,372.5C 1911.43,371.432 1911.77,370.099 1911.5,368.5C 1908.17,368.5 1904.83,368.5 1901.5,368.5C 1893.56,367.06 1888.73,362.393 1887,354.5C 1886.33,334.833 1886.33,315.167 1887,295.5C 1888.22,291.691 1890.39,288.691 1893.5,286.5 Z"/></g>
<g><path style="opacity:1" fill="#8da9ef" d="M 1892.5,289.5 C 1892.83,289.5 1893.17,289.5 1893.5,289.5C 1893.21,291.423 1892.37,293.09 1891,294.5C 1890.33,313.833 1890.33,333.167 1891,352.5C 1891.33,354.167 1891.67,355.833 1892,357.5C 1893.35,358.685 1894.52,360.019 1895.5,361.5C 1902.92,363.032 1910.42,364.032 1918,364.5C 1921.24,364.693 1924.24,364.027 1927,362.5C 1929.07,363.264 1931.24,363.764 1933.5,364C 1955.5,364.5 1977.5,364.667 1999.5,364.5C 1999.5,365.167 1999.5,365.833 1999.5,366.5C 1973.82,366.167 1948.16,366.5 1922.5,367.5C 1921.74,369.36 1920.74,371.027 1919.5,372.5C 1917.82,374.834 1915.49,375.834 1912.5,375.5C 1912.5,374.5 1912.5,373.5 1912.5,372.5C 1913.46,370.735 1913.79,368.735 1913.5,366.5C 1909.5,366.5 1905.5,366.5 1901.5,366.5C 1895.56,365.06 1891.73,361.393 1890,355.5C 1889.33,334.833 1889.33,314.167 1890,293.5C 1891.09,292.307 1891.93,290.973 1892.5,289.5 Z"/></g>
<g><path style="opacity:1" fill="#3e568b" d="M 1901.5,366.5 C 1905.5,366.5 1909.5,366.5 1913.5,366.5C 1913.79,368.735 1913.46,370.735 1912.5,372.5C 1912.5,370.833 1912.5,369.167 1912.5,367.5C 1908.63,367.815 1904.96,367.482 1901.5,366.5 Z"/></g>
<g><path style="opacity:1" fill="#42588a" d="M 1999.5,366.5 C 1999.5,366.833 1999.5,367.167 1999.5,367.5C 1974.16,367.167 1948.82,367.5 1923.5,368.5C 1922.75,369.736 1922.42,371.07 1922.5,372.5C 1921.5,372.5 1920.5,372.5 1919.5,372.5C 1920.74,371.027 1921.74,369.36 1922.5,367.5C 1948.16,366.5 1973.82,366.167 1999.5,366.5 Z"/></g>
<g><path style="opacity:1" fill="#4e5563" d="M 1999.5,367.5 C 1999.5,368.167 1999.5,368.833 1999.5,369.5C 1974.5,369.333 1949.5,369.5 1924.5,370C 1923.93,370.995 1923.27,371.828 1922.5,372.5C 1922.42,371.07 1922.75,369.736 1923.5,368.5C 1948.82,367.5 1974.16,367.167 1999.5,367.5 Z"/></g>
<g><path style="opacity:1" fill="#889094" d="M 1901.5,368.5 C 1904.83,368.5 1908.17,368.5 1911.5,368.5C 1911.77,370.099 1911.43,371.432 1910.5,372.5C 1910.5,371.5 1910.5,370.5 1910.5,369.5C 1907.29,369.81 1904.29,369.477 1901.5,368.5 Z"/></g>
</svg>
