<?xml version="1.0" encoding="UTF-8"?>
<!DOCTYPE svg PUBLIC "-//W3C//DTD SVG 1.1//EN" "http://www.w3.org/Graphics/SVG/1.1/DTD/svg11.dtd">
<svg xmlns="http://www.w3.org/2000/svg" version="1.1" width="2000px" height="1125px" style="shape-rendering:geometricPrecision; text-rendering:geometricPrecision; image-rendering:optimizeQuality; fill-rule:evenodd; clip-rule:evenodd" xmlns:xlink="http://www.w3.org/1999/xlink">
<g><path style="opacity:1" fill="#edf0f5" d="M -0.5,-0.5 C 38.1667,-0.5 76.8333,-0.5 115.5,-0.5C 115.5,60.5 115.5,121.5 115.5,182.5C 116.5,182.5 117.5,182.5 118.5,182.5C 118.5,121.5 118.5,60.5 118.5,-0.5C 613.167,-0.5 1107.83,-0.5 1602.5,-0.5C 1602.33,11.8378 1602.5,24.1712 1603,36.5C 1604.17,40.8583 1606.34,44.525 1609.5,47.5C 1611.22,49.0248 1613.22,50.0248 1615.5,50.5C 1616.26,51.2679 1617.26,51.7679 1618.5,52C 1681.5,52.1667 1744.5,52.6667 1807.5,53.5C 1810.54,58.9625 1815.21,61.6292 1821.5,61.5C 1821.55,59.0971 1821.22,56.7638 1820.5,54.5C 1823.2,52.89 1826.2,51.89 1829.5,51.5C 1835.59,50.2375 1840.09,46.9042 1843,41.5C 1844.43,27.5594 1844.93,13.5594 1844.5,-0.5C 1854.17,-0.5 1863.83,-0.5 1873.5,-0.5C 1873.33,54.501 1873.5,109.501 1874,164.5C 1877.4,174.791 1884.56,178.791 1895.5,176.5C 1895.01,178.806 1894.67,181.139 1894.5,183.5C 1899.81,183.678 1903.81,181.511 1906.5,177C 1937.5,176.5 1968.5,176.333 1999.5,176.5C 1999.5,208.833 1999.5,241.167 1999.5,273.5C 1941.77,273.012 1884.11,273.512 1826.5,275C 1821.45,277.72 1818.28,281.887 1817,287.5C 1816.33,299.5 1816.33,311.5 1817,323.5C 1820.14,334.322 1827.31,338.988 1838.5,337.5C 1838.5,340.167 1838.5,342.833 1838.5,345.5C 1843.91,345.427 1847.24,342.76 1848.5,337.5C 1898.83,337.5 1949.17,337.5 1999.5,337.5C 1999.5,599.833 1999.5,862.167 1999.5,1124.5C 1332.83,1124.5 666.167,1124.5 -0.5,1124.5C -0.5,749.5 -0.5,374.5 -0.5,-0.5 Z"/></g>
<g><path style="opacity:1" fill="#575a5f" d="M 115.5,-0.5 C 116.5,-0.5 117.5,-0.5 118.5,-0.5C 118.5,60.5 118.5,121.5 118.5,182.5C 117.5,182.5 116.5,182.5 115.5,182.5C 115.5,121.5 115.5,60.5 115.5,-0.5 Z"/></g>
<g><path style="opacity:1" fill="#46506b" d="M 1602.5,-0.5 C 1603.5,-0.5 1604.5,-0.5 1605.5,-0.5C 1605.33,12.8375 1605.5,26.1708 1606,39.5C 1607.48,40.4709 1608.31,41.8042 1608.5,43.5C 1608.83,44.8333 1609.17,46.1667 1609.5,47.5C 1606.34,44.525 1604.17,40.8583 1603,36.5C 1602.5,24.1712 1602.33,11.8378 1602.5,-0.5 Z"/></g>
<g><path style="opacity:1" fill="#3b62f6" d="M 1605.5,-0.5 C 1684.17,-0.5 1762.83,-0.5 1841.5,-0.5C 1841.5,11.8333 1841.5,24.1667 1841.5,36.5C 1841.39,38.7179 1840.72,40.7179 1839.5,42.5C 1836.83,43.1667 1835.17,44.8333 1834.5,47.5C 1829.19,48.1095 1823.85,48.6095 1818.5,49C 1817.87,51.8003 1817.21,54.6336 1816.5,57.5C 1815.58,56.8728 1814.58,56.5394 1813.5,56.5C 1812.59,54.1652 1811.25,51.9985 1809.5,50C 1744.83,49.8333 1680.16,49.3333 1615.5,48.5C 1612.88,47.2047 1610.54,45.538 1608.5,43.5C 1608.31,41.8042 1607.48,40.4709 1606,39.5C 1605.5,26.1708 1605.33,12.8375 1605.5,-0.5 Z"/></g>
<g><path style="opacity:1" fill="#31498f" d="M 1841.5,-0.5 C 1842.17,-0.5 1842.83,-0.5 1843.5,-0.5C 1843.67,11.1714 1843.5,22.8381 1843,34.5C 1842.72,35.4158 1842.22,36.0825 1841.5,36.5C 1841.5,24.1667 1841.5,11.8333 1841.5,-0.5 Z"/></g>
<g><path style="opacity:1" fill="#c5dff5" d="M 1876.5,-0.5 C 1876.83,-0.5 1877.17,-0.5 1877.5,-0.5C 1877.33,53.1677 1877.5,106.834 1878,160.5C 1877.61,164.881 1879.11,168.381 1882.5,171C 1887.26,171.557 1891.92,172.39 1896.5,173.5C 1896.34,172.127 1896.51,170.793 1897,169.5C 1897.31,170.308 1897.81,170.975 1898.5,171.5C 1899.28,170.263 1900.28,169.263 1901.5,168.5C 1902.36,170.197 1903.7,171.363 1905.5,172C 1936.83,172.5 1968.16,172.667 1999.5,172.5C 1999.5,173.167 1999.5,173.833 1999.5,174.5C 1967.5,174.5 1935.5,174.5 1903.5,174.5C 1903.74,178.427 1901.91,180.76 1898,181.5C 1897.5,179.19 1897.34,176.857 1897.5,174.5C 1888.59,176.665 1881.75,173.998 1877,166.5C 1876.5,110.834 1876.33,55.1677 1876.5,-0.5 Z"/></g>
<g><path style="opacity:1" fill="#c0e1fe" d="M 1877.5,-0.5 C 1918.17,-0.5 1958.83,-0.5 1999.5,-0.5C 1999.5,3.83333 1999.5,8.16667 1999.5,12.5C 1967.83,12.5 1936.17,12.5 1904.5,12.5C 1904.5,13.5 1904.5,14.5 1904.5,15.5C 1936.17,15.5 1967.83,15.5 1999.5,15.5C 1999.5,21.8333 1999.5,28.1667 1999.5,34.5C 1967.83,34.5 1936.17,34.5 1904.5,34.5C 1904.5,35.5 1904.5,36.5 1904.5,37.5C 1936.17,37.5 1967.83,37.5 1999.5,37.5C 1999.5,43.8333 1999.5,50.1667 1999.5,56.5C 1967.83,56.5 1936.17,56.5 1904.5,56.5C 1904.5,57.5 1904.5,58.5 1904.5,59.5C 1936.17,59.5 1967.83,59.5 1999.5,59.5C 1999.5,66.1667 1999.5,72.8333 1999.5,79.5C 1872.83,80.1667 1872.83,80.8333 1999.5,81.5C 1999.5,88.1667 1999.5,94.8333 1999.5,101.5C 1872.83,102.167 1872.83,102.833 1999.5,103.5C 1999.5,110.167 1999.5,116.833 1999.5,123.5C 1967.83,123.5 1936.17,123.5 1904.5,123.5C 1904.5,124.5 1904.5,125.5 1904.5,126.5C 1936.17,126.5 1967.83,126.5 1999.5,126.5C 1999.5,141.833 1999.5,157.167 1999.5,172.5C 1968.16,172.667 1936.83,172.5 1905.5,172C 1903.7,171.363 1902.36,170.197 1901.5,168.5C 1900.28,169.263 1899.28,170.263 1898.5,171.5C 1897.81,170.975 1897.31,170.308 1897,169.5C 1896.51,170.793 1896.34,172.127 1896.5,173.5C 1891.92,172.39 1887.26,171.557 1882.5,171C 1879.11,168.381 1877.61,164.881 1878,160.5C 1877.5,106.834 1877.33,53.1677 1877.5,-0.5 Z"/></g>
<g><path style="opacity:1" fill="#4867cd" d="M 1821.5,6.5 C 1565.5,7.16667 1565.5,7.83333 1821.5,8.5C 1820.74,9.26791 1819.74,9.76791 1818.5,10C 1754.5,10.6667 1690.5,10.6667 1626.5,10C 1625.17,8.33333 1625.17,6.66667 1626.5,5C 1690.83,4.33333 1755.17,4.33333 1819.5,5C 1820.42,5.27842 1821.08,5.77842 1821.5,6.5 Z"/></g>
<g><path style="opacity:1" fill="#d9eaff" d="M 1821.5,6.5 C 1821.5,7.16667 1821.5,7.83333 1821.5,8.5C 1565.5,7.83333 1565.5,7.16667 1821.5,6.5 Z"/></g>
<g><path style="opacity:1" fill="#495a6b" d="M 1999.5,12.5 C 1999.5,13.5 1999.5,14.5 1999.5,15.5C 1967.83,15.5 1936.17,15.5 1904.5,15.5C 1904.5,14.5 1904.5,13.5 1904.5,12.5C 1936.17,12.5 1967.83,12.5 1999.5,12.5 Z"/></g>
<g><path style="opacity:1" fill="#4263e4" d="M 1684.5,21.5 C 1685.15,21.8039 1685.82,22.1373 1686.5,22.5C 1687.15,24.6241 1687.98,26.6241 1689,28.5C 1689.72,30.1124 1689.55,31.6124 1688.5,33C 1668.5,33.6667 1648.5,33.6667 1628.5,33C 1627.17,31 1627.17,29 1628.5,27C 1646.5,26.6667 1664.5,26.3333 1682.5,26C 1683.27,24.5295 1683.93,23.0295 1684.5,21.5 Z"/></g>
<g><path style="opacity:1" fill="#b3c4e4" d="M 1687.5,29.5 C 1668.53,31.4876 1649.2,32.1543 1629.5,31.5C 1648.47,29.5124 1667.8,28.8457 1687.5,29.5 Z"/></g>
<g><path style="opacity:1" fill="#aec3fe" d="M 1687.5,29.5 C 1667.8,28.8457 1648.47,29.5124 1629.5,31.5C 1628.6,30.791 1628.26,29.791 1628.5,28.5C 1648.34,28.1696 1668.01,28.5029 1687.5,29.5 Z"/></g>
<g><path style="opacity:1" fill="#495a6c" d="M 1999.5,34.5 C 1999.5,35.5 1999.5,36.5 1999.5,37.5C 1967.83,37.5 1936.17,37.5 1904.5,37.5C 1904.5,36.5 1904.5,35.5 1904.5,34.5C 1936.17,34.5 1967.83,34.5 1999.5,34.5 Z"/></g>
<g><path style="opacity:1" fill="#435ab7" d="M 1839.5,42.5 C 1838.17,44.5 1836.5,46.1667 1834.5,47.5C 1835.17,44.8333 1836.83,43.1667 1839.5,42.5 Z"/></g>
<g><path style="opacity:1" fill="#425bbc" d="M 1834.5,47.5 C 1834.39,48.1174 1834.06,48.6174 1833.5,49C 1828.83,49.3333 1824.17,49.6667 1819.5,50C 1818.56,52.7191 1818.22,55.5525 1818.5,58.5C 1816.3,58.8799 1814.64,58.2132 1813.5,56.5C 1814.58,56.5394 1815.58,56.8728 1816.5,57.5C 1817.21,54.6336 1817.87,51.8003 1818.5,49C 1823.85,48.6095 1829.19,48.1095 1834.5,47.5 Z"/></g>
<g><path style="opacity:1" fill="#32447f" d="M 1608.5,43.5 C 1610.54,45.538 1612.88,47.2047 1615.5,48.5C 1680.16,49.3333 1744.83,49.8333 1809.5,50C 1811.25,51.9985 1812.59,54.1652 1813.5,56.5C 1811.33,55.1618 1809.66,53.3284 1808.5,51C 1744.17,50.5 1679.83,50.3333 1615.5,50.5C 1613.22,50.0248 1611.22,49.0248 1609.5,47.5C 1609.17,46.1667 1608.83,44.8333 1608.5,43.5 Z"/></g>
<g><path style="opacity:1" fill="#4c5269" d="M 1843.5,-0.5 C 1843.83,-0.5 1844.17,-0.5 1844.5,-0.5C 1844.93,13.5594 1844.43,27.5594 1843,41.5C 1840.09,46.9042 1835.59,50.2375 1829.5,51.5C 1826.17,51.5 1822.83,51.5 1819.5,51.5C 1819.26,52.791 1819.6,53.791 1820.5,54.5C 1821.22,56.7638 1821.55,59.0971 1821.5,61.5C 1815.21,61.6292 1810.54,58.9625 1807.5,53.5C 1744.5,52.6667 1681.5,52.1667 1618.5,52C 1617.26,51.7679 1616.26,51.2679 1615.5,50.5C 1679.83,50.3333 1744.17,50.5 1808.5,51C 1809.66,53.3284 1811.33,55.1618 1813.5,56.5C 1814.64,58.2132 1816.3,58.8799 1818.5,58.5C 1818.22,55.5525 1818.56,52.7191 1819.5,50C 1824.17,49.6667 1828.83,49.3333 1833.5,49C 1834.06,48.6174 1834.39,48.1174 1834.5,47.5C 1836.5,46.1667 1838.17,44.5 1839.5,42.5C 1840.72,40.7179 1841.39,38.7179 1841.5,36.5C 1842.22,36.0825 1842.72,35.4158 1843,34.5C 1843.5,22.8381 1843.67,11.1714 1843.5,-0.5 Z"/></g>
<g><path style="opacity:1" fill="#848b8e" d="M 1829.5,51.5 C 1826.2,51.89 1823.2,52.89 1820.5,54.5C 1819.6,53.791 1819.26,52.791 1819.5,51.5C 1822.83,51.5 1826.17,51.5 1829.5,51.5 Z"/></g>
<g><path style="opacity:1" fill="#4a596a" d="M 1999.5,56.5 C 1999.5,57.5 1999.5,58.5 1999.5,59.5C 1967.83,59.5 1936.17,59.5 1904.5,59.5C 1904.5,58.5 1904.5,57.5 1904.5,56.5C 1936.17,56.5 1967.83,56.5 1999.5,56.5 Z"/></g>
<g><path style="opacity:1" fill="#2f3d4a" d="M 1999.5,79.5 C 1999.5,80.1667 1999.5,80.8333 1999.5,81.5C 1872.83,80.8333 1872.83,80.1667 1999.5,79.5 Z"/></g>
<g><path style="opacity:1" fill="#333b46" d="M 1999.5,101.5 C 1999.5,102.167 1999.5,102.833 1999.5,103.5C 1872.83,102.833 1872.83,102.167 1999.5,101.5 Z"/></g>
<g><path style="opacity:1" fill="#4b5968" d="M 1999.5,123.5 C 1999.5,124.5 1999.5,125.5 1999.5,126.5C 1967.83,126.5 1936.17,126.5 1904.5,126.5C 1904.5,125.5 1904.5,124.5 1904.5,123.5C 1936.17,123.5 1967.83,123.5 1999.5,123.5 Z"/></g>
<g><path style="opacity:1" fill="#77899a" d="M 1904.5,146.5 C 1924.99,145.503 1945.66,145.169 1966.5,145.5C 1966.74,146.791 1966.4,147.791 1965.5,148.5C 1945.53,146.512 1925.19,145.845 1904.5,146.5 Z"/></g>
<g><path style="opacity:1" fill="#4b5968" d="M 1904.5,146.5 C 1925.19,145.845 1945.53,146.512 1965.5,148.5C 1944.81,149.155 1924.47,148.488 1904.5,146.5 Z"/></g>
<g><path style="opacity:1" fill="#475361" d="M 1873.5,-0.5 C 1874.5,-0.5 1875.5,-0.5 1876.5,-0.5C 1876.33,55.1677 1876.5,110.834 1877,166.5C 1881.75,173.998 1888.59,176.665 1897.5,174.5C 1897.34,176.857 1897.5,179.19 1898,181.5C 1901.91,180.76 1903.74,178.427 1903.5,174.5C 1935.5,174.5 1967.5,174.5 1999.5,174.5C 1999.5,175.167 1999.5,175.833 1999.5,176.5C 1968.5,176.333 1937.5,176.5 1906.5,177C 1903.81,181.511 1899.81,183.678 1894.5,183.5C 1894.67,181.139 1895.01,178.806 1895.5,176.5C 1884.56,178.791 1877.4,174.791 1874,164.5C 1873.5,109.501 1873.33,54.501 1873.5,-0.5 Z"/></g>
<g><path style="opacity:1" fill="#fefefe" d="M 1999.5,276.5 C 1999.5,282.167 1999.5,287.833 1999.5,293.5C 1779.5,294.167 1779.5,294.833 1999.5,295.5C 1999.5,302.167 1999.5,308.833 1999.5,315.5C 1944.5,315.5 1889.5,315.5 1834.5,315.5C 1834.5,316.5 1834.5,317.5 1834.5,318.5C 1889.5,318.5 1944.5,318.5 1999.5,318.5C 1999.5,323.833 1999.5,329.167 1999.5,334.5C 1948.83,334.333 1898.17,334.5 1847.5,335C 1842.93,346.023 1840.59,345.856 1840.5,334.5C 1830.44,337.262 1823.6,333.928 1820,324.5C 1819.33,311.5 1819.33,298.5 1820,285.5C 1821.42,281.749 1823.92,278.916 1827.5,277C 1884.83,276.5 1942.17,276.333 1999.5,276.5 Z"/></g>
<g><path style="opacity:1" fill="#373b3e" d="M 1999.5,293.5 C 1999.5,294.167 1999.5,294.833 1999.5,295.5C 1779.5,294.833 1779.5,294.167 1999.5,293.5 Z"/></g>
<g><path style="opacity:1" fill="#5b5c5e" d="M 1999.5,315.5 C 1999.5,316.5 1999.5,317.5 1999.5,318.5C 1944.5,318.5 1889.5,318.5 1834.5,318.5C 1834.5,317.5 1834.5,316.5 1834.5,315.5C 1889.5,315.5 1944.5,315.5 1999.5,315.5 Z"/></g>
<g><path style="opacity:1" fill="#5d5f63" d="M 1999.5,273.5 C 1999.5,274.5 1999.5,275.5 1999.5,276.5C 1942.17,276.333 1884.83,276.5 1827.5,277C 1823.92,278.916 1821.42,281.749 1820,285.5C 1819.33,298.5 1819.33,311.5 1820,324.5C 1823.6,333.928 1830.44,337.262 1840.5,334.5C 1840.59,345.856 1842.93,346.023 1847.5,335C 1898.17,334.5 1948.83,334.333 1999.5,334.5C 1999.5,335.5 1999.5,336.5 1999.5,337.5C 1949.17,337.5 1898.83,337.5 1848.5,337.5C 1847.24,342.76 1843.91,345.427 1838.5,345.5C 1838.5,342.833 1838.5,340.167 1838.5,337.5C 1827.31,338.988 1820.14,334.322 1817,323.5C 1816.33,311.5 1816.33,299.5 1817,287.5C 1818.28,281.887 1821.45,277.72 1826.5,275C 1884.11,273.512 1941.77,273.012 1999.5,273.5 Z"/></g>
<g><path style="opacity:1" fill="#fdfdfd" d="M 1884.5,376.5 C 1900.84,376.333 1917.17,376.5 1933.5,377C 1935.08,377.707 1936.58,378.54 1938,379.5C 1938.2,381.286 1939.03,382.619 1940.5,383.5C 1941.67,400.824 1941.83,418.157 1941,435.5C 1940.47,439.207 1938.64,442.04 1935.5,444C 1918.54,445.577 1901.54,445.91 1884.5,445C 1879.65,443.481 1876.48,440.315 1875,435.5C 1874.17,418.157 1874.33,400.824 1875.5,383.5C 1877.62,379.949 1880.62,377.616 1884.5,376.5 Z"/></g>
<g><path style="opacity:1" fill="#46474a" d="M 1902.5,391.5 C 1916.65,390.39 1924.98,396.723 1927.5,410.5C 1927.28,414.388 1926.28,418.054 1924.5,421.5C 1925.32,422.386 1926.32,422.719 1927.5,422.5C 1927.5,425.167 1927.5,427.833 1927.5,430.5C 1919.49,430.666 1911.49,430.5 1903.5,430C 1892.03,425.842 1887.19,417.676 1889,405.5C 1891.38,398.624 1895.88,393.958 1902.5,391.5 Z"/></g>
<g><path style="opacity:1" fill="#fbfcfc" d="M 1904.5,393.5 C 1916.35,393.251 1923.35,398.918 1925.5,410.5C 1924.41,415.767 1922.74,420.767 1920.5,425.5C 1922.17,425.5 1923.83,425.5 1925.5,425.5C 1925.5,426.5 1925.5,427.5 1925.5,428.5C 1917.43,428.863 1909.43,428.363 1901.5,427C 1889.29,419.166 1887.63,409.5 1896.5,398C 1899.1,396.205 1901.77,394.705 1904.5,393.5 Z"/></g>
</svg>
