<?xml version="1.0" encoding="UTF-8"?>
<!DOCTYPE svg PUBLIC "-//W3C//DTD SVG 1.1//EN" "http://www.w3.org/Graphics/SVG/1.1/DTD/svg11.dtd">
<svg xmlns="http://www.w3.org/2000/svg" version="1.1" width="2000px" height="1125px" style="shape-rendering:geometricPrecision; text-rendering:geometricPrecision; image-rendering:optimizeQuality; fill-rule:evenodd; clip-rule:evenodd" xmlns:xlink="http://www.w3.org/1999/xlink">
<g><path style="opacity:1" fill="#edf0f5" d="M -0.5,-0.5 C 38.1667,-0.5 76.8333,-0.5 115.5,-0.5C 115.5,60.5 115.5,121.5 115.5,182.5C 116.5,182.5 117.5,182.5 118.5,182.5C 118.5,121.5 118.5,60.5 118.5,-0.5C 745.5,-0.5 1372.5,-0.5 1999.5,-0.5C 1999.5,229.833 1999.5,460.167 1999.5,690.5C 1972.16,690.333 1944.83,690.5 1917.5,691C 1911.67,692.833 1907.83,696.667 1906,702.5C 1905.33,797.833 1905.33,893.167 1906,988.5C 1910.06,998.693 1917.56,1002.69 1928.5,1000.5C 1928.01,1002.81 1927.67,1005.14 1927.5,1007.5C 1932.42,1007.75 1936.09,1005.75 1938.5,1001.5C 1958.82,1000.5 1979.16,1000.17 1999.5,1000.5C 1999.5,1016.17 1999.5,1031.83 1999.5,1047.5C 1972.16,1047.33 1944.83,1047.5 1917.5,1048C 1911.28,1049.92 1907.45,1054.09 1906,1060.5C 1905.5,1081.83 1905.33,1103.16 1905.5,1124.5C 1270.17,1124.5 634.833,1124.5 -0.5,1124.5C -0.5,749.5 -0.5,374.5 -0.5,-0.5 Z"/></g>
<g><path style="opacity:1" fill="#575a5f" d="M 115.5,-0.5 C 116.5,-0.5 117.5,-0.5 118.5,-0.5C 118.5,60.5 118.5,121.5 118.5,182.5C 117.5,182.5 116.5,182.5 115.5,182.5C 115.5,121.5 115.5,60.5 115.5,-0.5 Z"/></g>
<g><path style="opacity:1" fill="#fefefe" d="M 1999.5,692.5 C 1999.5,703.5 1999.5,714.5 1999.5,725.5C 1915.5,726.167 1915.5,726.833 1999.5,727.5C 1999.5,734.167 1999.5,740.833 1999.5,747.5C 1978.5,747.5 1957.5,747.5 1936.5,747.5C 1936.5,748.5 1936.5,749.5 1936.5,750.5C 1957.5,750.5 1978.5,750.5 1999.5,750.5C 1999.5,756.833 1999.5,763.167 1999.5,769.5C 1978.5,769.5 1957.5,769.5 1936.5,769.5C 1936.5,770.5 1936.5,771.5 1936.5,772.5C 1957.5,772.5 1978.5,772.5 1999.5,772.5C 1999.5,778.833 1999.5,785.167 1999.5,791.5C 1978.5,791.5 1957.5,791.5 1936.5,791.5C 1936.26,792.791 1936.6,793.791 1937.5,794.5C 1958.17,794.5 1978.83,794.5 1999.5,794.5C 1999.5,801.167 1999.5,807.833 1999.5,814.5C 1915.5,815.167 1915.5,815.833 1999.5,816.5C 1999.5,823.167 1999.5,829.833 1999.5,836.5C 1915.5,837.167 1915.5,837.833 1999.5,838.5C 1999.5,845.167 1999.5,851.833 1999.5,858.5C 1978.5,858.5 1957.5,858.5 1936.5,858.5C 1936.5,859.5 1936.5,860.5 1936.5,861.5C 1957.5,861.5 1978.5,861.5 1999.5,861.5C 1999.5,867.833 1999.5,874.167 1999.5,880.5C 1978.5,880.5 1957.5,880.5 1936.5,880.5C 1936.26,881.791 1936.6,882.791 1937.5,883.5C 1958.17,883.5 1978.83,883.5 1999.5,883.5C 1999.5,889.833 1999.5,896.167 1999.5,902.5C 1978.5,902.5 1957.5,902.5 1936.5,902.5C 1936.26,903.791 1936.6,904.791 1937.5,905.5C 1958.17,905.5 1978.83,905.5 1999.5,905.5C 1999.5,912.167 1999.5,918.833 1999.5,925.5C 1915.5,926.167 1915.5,926.833 1999.5,927.5C 1999.5,934.167 1999.5,940.833 1999.5,947.5C 1978.5,947.5 1957.5,947.5 1936.5,947.5C 1936.5,948.5 1936.5,949.5 1936.5,950.5C 1957.5,950.5 1978.5,950.5 1999.5,950.5C 1999.5,966.5 1999.5,982.5 1999.5,998.5C 1978.49,998.167 1957.49,998.5 1936.5,999.5C 1935.79,1002.21 1934.12,1003.88 1931.5,1004.5C 1930.83,1002.5 1930.17,1000.5 1929.5,998.5C 1920.04,1000.97 1913.21,997.965 1909,989.5C 1908.33,893.167 1908.33,796.833 1909,700.5C 1910.89,696.942 1913.73,694.442 1917.5,693C 1944.83,692.5 1972.16,692.333 1999.5,692.5 Z"/></g>
<g><path style="opacity:1" fill="#525357" d="M 1999.5,690.5 C 1999.5,691.167 1999.5,691.833 1999.5,692.5C 1972.16,692.333 1944.83,692.5 1917.5,693C 1913.73,694.442 1910.89,696.942 1909,700.5C 1908.33,796.833 1908.33,893.167 1909,989.5C 1913.21,997.965 1920.04,1000.97 1929.5,998.5C 1929.19,1000.92 1929.53,1003.26 1930.5,1005.5C 1931.11,1005.38 1931.44,1005.04 1931.5,1004.5C 1934.12,1003.88 1935.79,1002.21 1936.5,999.5C 1957.49,998.5 1978.49,998.167 1999.5,998.5C 1999.5,999.167 1999.5,999.833 1999.5,1000.5C 1979.16,1000.17 1958.82,1000.5 1938.5,1001.5C 1936.09,1005.75 1932.42,1007.75 1927.5,1007.5C 1927.67,1005.14 1928.01,1002.81 1928.5,1000.5C 1917.56,1002.69 1910.06,998.693 1906,988.5C 1905.33,893.167 1905.33,797.833 1906,702.5C 1907.83,696.667 1911.67,692.833 1917.5,691C 1944.83,690.5 1972.16,690.333 1999.5,690.5 Z"/></g>
<g><path style="opacity:1" fill="#373b3f" d="M 1999.5,725.5 C 1999.5,726.167 1999.5,726.833 1999.5,727.5C 1915.5,726.833 1915.5,726.167 1999.5,725.5 Z"/></g>
<g><path style="opacity:1" fill="#6a6b6d" d="M 1999.5,747.5 C 1999.5,748.5 1999.5,749.5 1999.5,750.5C 1978.5,750.5 1957.5,750.5 1936.5,750.5C 1936.5,749.5 1936.5,748.5 1936.5,747.5C 1957.5,747.5 1978.5,747.5 1999.5,747.5 Z"/></g>
<g><path style="opacity:1" fill="#696a6c" d="M 1999.5,769.5 C 1999.5,770.5 1999.5,771.5 1999.5,772.5C 1978.5,772.5 1957.5,772.5 1936.5,772.5C 1936.5,771.5 1936.5,770.5 1936.5,769.5C 1957.5,769.5 1978.5,769.5 1999.5,769.5 Z"/></g>
<g><path style="opacity:1" fill="#919599" d="M 1999.5,791.5 C 1999.5,791.833 1999.5,792.167 1999.5,792.5C 1978.47,791.845 1957.81,792.512 1937.5,794.5C 1936.6,793.791 1936.26,792.791 1936.5,791.5C 1957.5,791.5 1978.5,791.5 1999.5,791.5 Z"/></g>
<g><path style="opacity:1" fill="#5b5e60" d="M 1999.5,792.5 C 1999.5,793.167 1999.5,793.833 1999.5,794.5C 1978.83,794.5 1958.17,794.5 1937.5,794.5C 1957.81,792.512 1978.47,791.845 1999.5,792.5 Z"/></g>
<g><path style="opacity:1" fill="#3b3b3c" d="M 1999.5,814.5 C 1999.5,815.167 1999.5,815.833 1999.5,816.5C 1915.5,815.833 1915.5,815.167 1999.5,814.5 Z"/></g>
<g><path style="opacity:1" fill="#3b3c3e" d="M 1999.5,836.5 C 1999.5,837.167 1999.5,837.833 1999.5,838.5C 1915.5,837.833 1915.5,837.167 1999.5,836.5 Z"/></g>
<g><path style="opacity:1" fill="#6b6c6e" d="M 1999.5,858.5 C 1999.5,859.5 1999.5,860.5 1999.5,861.5C 1978.5,861.5 1957.5,861.5 1936.5,861.5C 1936.5,860.5 1936.5,859.5 1936.5,858.5C 1957.5,858.5 1978.5,858.5 1999.5,858.5 Z"/></g>
<g><path style="opacity:1" fill="#fdfdfd" d="M 1810.5,879.5 C 1827.5,879.333 1844.5,879.5 1861.5,880C 1863.62,881.122 1865.46,882.622 1867,884.5C 1867.67,903.167 1867.67,921.833 1867,940.5C 1866.12,943.215 1864.62,945.549 1862.5,947.5C 1844.21,948.653 1825.88,948.82 1807.5,948C 1806.32,945.315 1804.48,943.148 1802,941.5C 1801.33,923.5 1801.33,905.5 1802,887.5C 1803.77,883.558 1806.6,880.891 1810.5,879.5 Z"/></g>
<g><path style="opacity:1" fill="#949598" d="M 1999.5,880.5 C 1999.5,880.833 1999.5,881.167 1999.5,881.5C 1978.47,880.845 1957.81,881.512 1937.5,883.5C 1936.6,882.791 1936.26,881.791 1936.5,880.5C 1957.5,880.5 1978.5,880.5 1999.5,880.5 Z"/></g>
<g><path style="opacity:1" fill="#5c5d5f" d="M 1999.5,881.5 C 1999.5,882.167 1999.5,882.833 1999.5,883.5C 1978.83,883.5 1958.17,883.5 1937.5,883.5C 1957.81,881.512 1978.47,880.845 1999.5,881.5 Z"/></g>
<g><path style="opacity:1" fill="#929698" d="M 1999.5,902.5 C 1999.5,902.833 1999.5,903.167 1999.5,903.5C 1978.47,902.845 1957.81,903.512 1937.5,905.5C 1936.6,904.791 1936.26,903.791 1936.5,902.5C 1957.5,902.5 1978.5,902.5 1999.5,902.5 Z"/></g>
<g><path style="opacity:1" fill="#5a5e61" d="M 1999.5,903.5 C 1999.5,904.167 1999.5,904.833 1999.5,905.5C 1978.83,905.5 1958.17,905.5 1937.5,905.5C 1957.81,903.512 1978.47,902.845 1999.5,903.5 Z"/></g>
<g><path style="opacity:1" fill="#47474a" d="M 1827.5,897.5 C 1837.3,896.373 1842.96,900.54 1844.5,910C 1844.69,913.441 1843.69,916.441 1841.5,919C 1844.67,922.167 1847.83,925.333 1851,928.5C 1851.69,929.332 1851.52,929.998 1850.5,930.5C 1846.85,927.349 1843.35,924.016 1840,920.5C 1831.74,925.54 1824.74,924.207 1819,916.5C 1816,907.479 1818.83,901.145 1827.5,897.5 Z"/></g>
<g><path style="opacity:1" fill="#f8f9f9" d="M 1827.5,899.5 C 1838.34,898.838 1843.17,903.838 1842,914.5C 1838.55,920.544 1833.38,922.71 1826.5,921C 1821.54,917.457 1819.7,912.624 1821,906.5C 1822.69,903.642 1824.86,901.309 1827.5,899.5 Z"/></g>
<g><path style="opacity:1" fill="#373b3f" d="M 1999.5,925.5 C 1999.5,926.167 1999.5,926.833 1999.5,927.5C 1915.5,926.833 1915.5,926.167 1999.5,925.5 Z"/></g>
<g><path style="opacity:1" fill="#6a6b6d" d="M 1999.5,947.5 C 1999.5,948.5 1999.5,949.5 1999.5,950.5C 1978.5,950.5 1957.5,950.5 1936.5,950.5C 1936.5,949.5 1936.5,948.5 1936.5,947.5C 1957.5,947.5 1978.5,947.5 1999.5,947.5 Z"/></g>
<g><path style="opacity:1" fill="#6a6b6d" d="M 1936.5,969.5 C 1957.17,969.5 1977.83,969.5 1998.5,969.5C 1998.5,970.5 1998.5,971.5 1998.5,972.5C 1977.83,972.5 1957.17,972.5 1936.5,972.5C 1936.5,971.5 1936.5,970.5 1936.5,969.5 Z"/></g>
<g><path style="opacity:1" fill="#f1eefb" d="M 1855.5,980.5 C 1802.17,980.5 1748.83,980.5 1695.5,980.5C 1695.5,979.5 1695.5,978.5 1695.5,977.5C 1748.54,977.829 1801.54,977.496 1854.5,976.5C 1855.43,977.689 1855.76,979.022 1855.5,980.5 Z"/></g>
<g><path style="opacity:1" fill="#35405c" d="M 1695.5,980.5 C 1748.83,980.5 1802.17,980.5 1855.5,980.5C 1860.86,981.265 1865.03,983.932 1868,988.5C 1868.67,1015.17 1868.67,1041.83 1868,1068.5C 1863.81,1076.86 1856.98,1080.19 1847.5,1078.5C 1847.99,1080.81 1848.33,1083.14 1848.5,1085.5C 1843.52,1085.84 1839.85,1083.84 1837.5,1079.5C 1786.67,1078.83 1736,1078.17 1685.5,1077.5C 1736.91,1077.17 1788.24,1077.5 1839.5,1078.5C 1839.5,1079.83 1840.17,1080.5 1841.5,1080.5C 1842.18,1082.18 1843.52,1082.84 1845.5,1082.5C 1845.5,1080.5 1845.5,1078.5 1845.5,1076.5C 1852.93,1077.79 1859.43,1076.12 1865,1071.5C 1865.67,1069.5 1866.33,1067.5 1867,1065.5C 1867.67,1040.83 1867.67,1016.17 1867,991.5C 1865.33,989.004 1863.5,986.671 1861.5,984.5C 1861.39,983.883 1861.06,983.383 1860.5,983C 1802,982.168 1743.67,982.335 1685.5,983.5C 1681.36,984.569 1679.36,987.235 1679.5,991.5C 1679.17,991.5 1678.83,991.5 1678.5,991.5C 1678.17,991.5 1677.83,991.5 1677.5,991.5C 1676.2,1018.02 1676.2,1044.69 1677.5,1071.5C 1676.44,1070.4 1675.61,1069.07 1675,1067.5C 1674.33,1042.5 1674.33,1017.5 1675,992.5C 1678.7,983.32 1685.54,979.32 1695.5,980.5 Z"/></g>
<g><path style="opacity:1" fill="#4765c0" d="M 1685.5,983.5 C 1743.67,982.335 1802,982.168 1860.5,983C 1861.06,983.383 1861.39,983.883 1861.5,984.5C 1861.17,984.5 1860.83,984.5 1860.5,984.5C 1860.17,984.5 1859.83,984.5 1859.5,984.5C 1801.67,983.501 1743.67,983.168 1685.5,983.5 Z"/></g>
<g><path style="opacity:1" fill="#4063e1" d="M 1685.5,983.5 C 1743.67,983.168 1801.67,983.501 1859.5,984.5C 1801.17,984.333 1742.83,984.5 1684.5,985C 1683.73,987.926 1682.06,990.093 1679.5,991.5C 1679.36,987.235 1681.36,984.569 1685.5,983.5 Z"/></g>
<g><path style="opacity:1" fill="#3b62f6" d="M 1859.5,984.5 C 1859.83,984.5 1860.17,984.5 1860.5,984.5C 1861.37,986.886 1862.87,988.886 1865,990.5C 1865.67,1015.5 1865.67,1040.5 1865,1065.5C 1863.6,1068.9 1861.43,1071.74 1858.5,1074C 1853.85,1074.5 1849.18,1074.67 1844.5,1074.5C 1844.5,1076.5 1844.5,1078.5 1844.5,1080.5C 1843.5,1080.5 1842.5,1080.5 1841.5,1080.5C 1840.17,1080.5 1839.5,1079.83 1839.5,1078.5C 1839.5,1077.5 1839.5,1076.5 1839.5,1075.5C 1787.66,1075.83 1736,1075.5 1684.5,1074.5C 1682.82,1071.37 1680.99,1068.37 1679,1065.5C 1678.5,1040.84 1678.33,1016.17 1678.5,991.5C 1678.83,991.5 1679.17,991.5 1679.5,991.5C 1682.06,990.093 1683.73,987.926 1684.5,985C 1742.83,984.5 1801.17,984.333 1859.5,984.5 Z"/></g>
<g><path style="opacity:1" fill="#93969b" d="M 1929.5,998.5 C 1930.17,1000.5 1930.83,1002.5 1931.5,1004.5C 1931.44,1005.04 1931.11,1005.38 1930.5,1005.5C 1929.53,1003.26 1929.19,1000.92 1929.5,998.5 Z"/></g>
<g><path style="opacity:1" fill="#e3eef7" d="M 1845.5,1005.5 C 1845.5,1005.83 1845.5,1006.17 1845.5,1006.5C 1797,1007.83 1748.33,1007.83 1699.5,1006.5C 1748.16,1005.5 1796.83,1005.17 1845.5,1005.5 Z"/></g>
<g><path style="opacity:1" fill="#354c8f" d="M 1677.5,991.5 C 1677.33,1016.5 1677.5,1041.5 1678,1066.5C 1679.27,1067.9 1679.77,1069.57 1679.5,1071.5C 1678.83,1071.5 1678.17,1071.5 1677.5,1071.5C 1676.2,1044.69 1676.2,1018.02 1677.5,991.5 Z"/></g>
<g><path style="opacity:1" fill="#4363d8" d="M 1677.5,991.5 C 1677.83,991.5 1678.17,991.5 1678.5,991.5C 1678.33,1016.17 1678.5,1040.84 1679,1065.5C 1680.99,1068.37 1682.82,1071.37 1684.5,1074.5C 1682.59,1073.92 1680.92,1072.92 1679.5,1071.5C 1679.77,1069.57 1679.27,1067.9 1678,1066.5C 1677.5,1041.5 1677.33,1016.5 1677.5,991.5 Z"/></g>
<g><path style="opacity:1" fill="#4164e2" d="M 1845.5,1005.5 C 1796.83,1005.17 1748.16,1005.5 1699.5,1006.5C 1748.33,1007.83 1797,1007.83 1845.5,1006.5C 1850.22,1006.23 1850.55,1007.06 1846.5,1009C 1797.17,1009.5 1747.83,1009.67 1698.5,1009.5C 1698.9,1006.96 1698.23,1004.79 1696.5,1003C 1699.15,1000.86 1701.48,1001.2 1703.5,1004C 1751,1004.17 1798.34,1004.67 1845.5,1005.5 Z"/></g>
<g><path style="opacity:1" fill="#c6d3fc" d="M 1699.5,1027.5 C 1748.17,1027.5 1796.83,1027.5 1845.5,1027.5C 1845.74,1028.79 1845.4,1029.79 1844.5,1030.5C 1796.17,1030.5 1747.83,1030.5 1699.5,1030.5C 1699.5,1029.5 1699.5,1028.5 1699.5,1027.5 Z"/></g>
<g><path style="opacity:1" fill="#4263e0" d="M 1699.5,1027.5 C 1699.5,1028.5 1699.5,1029.5 1699.5,1030.5C 1747.83,1030.5 1796.17,1030.5 1844.5,1030.5C 1795.66,1031.83 1746.66,1031.83 1697.5,1030.5C 1697.94,1029.26 1698.61,1028.26 1699.5,1027.5 Z"/></g>
<g><path style="opacity:1" fill="#4865c9" d="M 1772.5,1050.5 C 1748.16,1050.17 1723.82,1050.5 1699.5,1051.5C 1723.49,1052.5 1747.49,1052.83 1771.5,1052.5C 1747.67,1053.5 1723.67,1053.83 1699.5,1053.5C 1698.2,1052.12 1698.2,1050.62 1699.5,1049C 1711.67,1048.83 1723.83,1048.67 1736,1048.5C 1748.52,1048.5 1760.69,1049.17 1772.5,1050.5 Z"/></g>
<g><path style="opacity:1" fill="#515e6a" d="M 1999.5,1047.5 C 1999.5,1048.5 1999.5,1049.5 1999.5,1050.5C 1971.83,1050.33 1944.16,1050.5 1916.5,1051C 1913,1052.5 1910.5,1055 1909,1058.5C 1908.5,1080.5 1908.33,1102.5 1908.5,1124.5C 1907.5,1124.5 1906.5,1124.5 1905.5,1124.5C 1905.33,1103.16 1905.5,1081.83 1906,1060.5C 1907.45,1054.09 1911.28,1049.92 1917.5,1048C 1944.83,1047.5 1972.16,1047.33 1999.5,1047.5 Z"/></g>
<g><path style="opacity:1" fill="#d6ebff" d="M 1772.5,1050.5 C 1772.67,1051.49 1772.34,1052.16 1771.5,1052.5C 1747.49,1052.83 1723.49,1052.5 1699.5,1051.5C 1723.82,1050.5 1748.16,1050.17 1772.5,1050.5 Z"/></g>
<g><path style="opacity:1" fill="#4264df" d="M 1772.5,1050.5 C 1773.79,1051.54 1773.79,1052.71 1772.5,1054C 1748,1054.83 1723.66,1054.66 1699.5,1053.5C 1723.67,1053.83 1747.67,1053.5 1771.5,1052.5C 1772.34,1052.16 1772.67,1051.49 1772.5,1050.5 Z"/></g>
<g><path style="opacity:1" fill="#c0e1fd" d="M 1999.5,1050.5 C 1999.5,1059.5 1999.5,1068.5 1999.5,1077.5C 1978.17,1077.5 1956.83,1077.5 1935.5,1077.5C 1935.5,1078.5 1935.5,1079.5 1935.5,1080.5C 1956.83,1080.5 1978.17,1080.5 1999.5,1080.5C 1999.5,1087.17 1999.5,1093.83 1999.5,1100.5C 1914.17,1101.17 1914.17,1101.83 1999.5,1102.5C 1999.5,1109.17 1999.5,1115.83 1999.5,1122.5C 1977.81,1121.84 1956.47,1122.51 1935.5,1124.5C 1926.5,1124.5 1917.5,1124.5 1908.5,1124.5C 1908.33,1102.5 1908.5,1080.5 1909,1058.5C 1910.5,1055 1913,1052.5 1916.5,1051C 1944.16,1050.5 1971.83,1050.33 1999.5,1050.5 Z"/></g>
<g><path style="opacity:1" fill="#3f59ba" d="M 1860.5,984.5 C 1860.83,984.5 1861.17,984.5 1861.5,984.5C 1863.5,986.671 1865.33,989.004 1867,991.5C 1867.67,1016.17 1867.67,1040.83 1867,1065.5C 1866.33,1067.5 1865.67,1069.5 1865,1071.5C 1859.43,1076.12 1852.93,1077.79 1845.5,1076.5C 1845.5,1078.5 1845.5,1080.5 1845.5,1082.5C 1843.52,1082.84 1842.18,1082.18 1841.5,1080.5C 1842.5,1080.5 1843.5,1080.5 1844.5,1080.5C 1844.5,1078.5 1844.5,1076.5 1844.5,1074.5C 1849.18,1074.67 1853.85,1074.5 1858.5,1074C 1861.43,1071.74 1863.6,1068.9 1865,1065.5C 1865.67,1040.5 1865.67,1015.5 1865,990.5C 1862.87,988.886 1861.37,986.886 1860.5,984.5 Z"/></g>
<g><path style="opacity:1" fill="#32437c" d="M 1677.5,1071.5 C 1678.17,1071.5 1678.83,1071.5 1679.5,1071.5C 1680.92,1072.92 1682.59,1073.92 1684.5,1074.5C 1736,1075.5 1787.66,1075.83 1839.5,1075.5C 1839.5,1076.5 1839.5,1077.5 1839.5,1078.5C 1788.24,1077.5 1736.91,1077.17 1685.5,1077.5C 1681.99,1076.65 1679.32,1074.65 1677.5,1071.5 Z"/></g>
<g><path style="opacity:1" fill="#485a6a" d="M 1999.5,1077.5 C 1999.5,1078.5 1999.5,1079.5 1999.5,1080.5C 1978.17,1080.5 1956.83,1080.5 1935.5,1080.5C 1935.5,1079.5 1935.5,1078.5 1935.5,1077.5C 1956.83,1077.5 1978.17,1077.5 1999.5,1077.5 Z"/></g>
<g><path style="opacity:1" fill="#2b3e53" d="M 1999.5,1100.5 C 1999.5,1101.17 1999.5,1101.83 1999.5,1102.5C 1914.17,1101.83 1914.17,1101.17 1999.5,1100.5 Z"/></g>
<g><path style="opacity:1" fill="#3b4a5a" d="M 1999.5,1122.5 C 1999.5,1123.17 1999.5,1123.83 1999.5,1124.5C 1978.17,1124.5 1956.83,1124.5 1935.5,1124.5C 1956.47,1122.51 1977.81,1121.84 1999.5,1122.5 Z"/></g>
</svg>
