<?xml version="1.0" encoding="UTF-8"?>
<!DOCTYPE svg PUBLIC "-//W3C//DTD SVG 1.1//EN" "http://www.w3.org/Graphics/SVG/1.1/DTD/svg11.dtd">
<svg xmlns="http://www.w3.org/2000/svg" version="1.1" width="2000px" height="1125px" style="shape-rendering:geometricPrecision; text-rendering:geometricPrecision; image-rendering:optimizeQuality; fill-rule:evenodd; clip-rule:evenodd" xmlns:xlink="http://www.w3.org/1999/xlink">
<g><path style="opacity:1" fill="#edf0f5" d="M -0.5,-0.5 C 38.1667,-0.5 76.8333,-0.5 115.5,-0.5C 115.5,60.5 115.5,121.5 115.5,182.5C 116.5,182.5 117.5,182.5 118.5,182.5C 118.5,121.5 118.5,60.5 118.5,-0.5C 745.5,-0.5 1372.5,-0.5 1999.5,-0.5C 1999.5,138.5 1999.5,277.5 1999.5,416.5C 1962.5,416.333 1925.5,416.5 1888.5,417C 1885,419.167 1882.17,422 1880,425.5C 1879.33,521.833 1879.33,618.167 1880,714.5C 1883.58,724.398 1890.74,728.731 1901.5,727.5C 1900.65,729.409 1900.32,731.409 1900.5,733.5C 1905.12,733.353 1908.79,731.353 1911.5,727.5C 1940.83,726.5 1970.16,726.167 1999.5,726.5C 1999.5,757.833 1999.5,789.167 1999.5,820.5C 1928.5,820.333 1857.5,820.5 1786.5,821C 1781.24,823.256 1777.74,827.09 1776,832.5C 1775.18,861.905 1775.34,891.239 1776.5,920.5C 1780.47,929.622 1787.47,933.288 1797.5,931.5C 1797.5,932.5 1797.5,933.5 1797.5,934.5C 1797.5,935.5 1797.5,936.5 1797.5,937.5C 1802.04,938.105 1805.38,936.438 1807.5,932.5C 1871.5,931.5 1935.5,931.167 1999.5,931.5C 1999.5,995.833 1999.5,1060.17 1999.5,1124.5C 1332.83,1124.5 666.167,1124.5 -0.5,1124.5C -0.5,749.5 -0.5,374.5 -0.5,-0.5 Z"/></g>
<g><path style="opacity:1" fill="#575a5f" d="M 115.5,-0.5 C 116.5,-0.5 117.5,-0.5 118.5,-0.5C 118.5,60.5 118.5,121.5 118.5,182.5C 117.5,182.5 116.5,182.5 115.5,182.5C 115.5,121.5 115.5,60.5 115.5,-0.5 Z"/></g>
<g><path style="opacity:1" fill="#3b62f6" d="M 1999.5,419.5 C 1999.5,427.833 1999.5,436.167 1999.5,444.5C 1969.17,444.5 1938.83,444.5 1908.5,444.5C 1908.23,446.099 1908.57,447.432 1909.5,448.5C 1939.33,449.498 1969.33,449.831 1999.5,449.5C 1999.5,451.167 1999.5,452.833 1999.5,454.5C 1972.83,454.167 1946.16,454.5 1919.5,455.5C 1919.71,456.086 1920.04,456.586 1920.5,457C 1946.83,457.5 1973.16,457.667 1999.5,457.5C 1999.5,461.167 1999.5,464.833 1999.5,468.5C 1969.5,468.5 1939.5,468.5 1909.5,468.5C 1907.82,469.183 1907.16,470.517 1907.5,472.5C 1938.17,472.5 1968.83,472.5 1999.5,472.5C 1999.5,478.5 1999.5,484.5 1999.5,490.5C 1969.5,490.5 1939.5,490.5 1909.5,490.5C 1909.5,491.5 1909.5,492.5 1909.5,493.5C 1939.5,493.5 1969.5,493.5 1999.5,493.5C 1999.5,499.833 1999.5,506.167 1999.5,512.5C 1969.17,512.5 1938.83,512.5 1908.5,512.5C 1908.33,513.822 1908.66,514.989 1909.5,516C 1939.5,516.5 1969.5,516.667 1999.5,516.5C 1999.5,522.5 1999.5,528.5 1999.5,534.5C 1969.17,534.5 1938.83,534.5 1908.5,534.5C 1908.29,536.179 1908.95,537.179 1910.5,537.5C 1940.17,537.5 1969.83,537.5 1999.5,537.5C 1999.5,543.833 1999.5,550.167 1999.5,556.5C 1968.83,556.5 1938.17,556.5 1907.5,556.5C 1907.29,558.179 1907.95,559.179 1909.5,559.5C 1939.15,561.492 1969.15,562.159 1999.5,561.5C 1999.5,567.5 1999.5,573.5 1999.5,579.5C 1969.83,579.5 1940.17,579.5 1910.5,579.5C 1909.17,580.5 1909.17,581.5 1910.5,582.5C 1910.92,583.222 1911.58,583.722 1912.5,584C 1911.17,585 1911.17,586 1912.5,587C 1911.83,587.667 1911.17,588.333 1910.5,589C 1913.36,590.076 1916.36,590.909 1919.5,591.5C 1915.85,591.634 1912.19,591.967 1908.5,592.5C 1905.4,592.503 1905.06,592.003 1907.5,591C 1906.21,590.51 1904.87,590.343 1903.5,590.5C 1903.34,592.527 1903.5,594.527 1904,596.5C 1907.81,593.535 1910.65,594.369 1912.5,599C 1911.62,599.708 1910.95,600.542 1910.5,601.5C 1908.35,602.077 1908.02,603.244 1909.5,605C 1939.5,605.5 1969.5,605.667 1999.5,605.5C 1999.5,610.833 1999.5,616.167 1999.5,621.5C 1968.32,621.189 1937.48,621.522 1907,622.5C 1906.31,621.643 1905.48,620.977 1904.5,620.5C 1903.55,622.045 1903.21,623.712 1903.5,625.5C 1906.08,625.468 1908.41,626.135 1910.5,627.5C 1940.12,628.484 1969.79,628.817 1999.5,628.5C 1999.5,634.167 1999.5,639.833 1999.5,645.5C 1969.5,645.5 1939.5,645.5 1909.5,645.5C 1909.5,646.833 1909.5,648.167 1909.5,649.5C 1939.5,649.5 1969.5,649.5 1999.5,649.5C 1999.5,655.5 1999.5,661.5 1999.5,667.5C 1969.33,667.169 1939.33,667.502 1909.5,668.5C 1907.65,669.089 1905.81,669.756 1904,670.5C 1903.29,674.498 1904.29,675.165 1907,672.5C 1937.48,673.478 1968.32,673.811 1999.5,673.5C 1999.5,690.167 1999.5,706.833 1999.5,723.5C 1969.5,723.333 1939.5,723.5 1909.5,724C 1907.84,725.488 1906.84,727.321 1906.5,729.5C 1905.5,729.5 1904.5,729.5 1903.5,729.5C 1903.5,727.833 1903.5,726.167 1903.5,724.5C 1899.7,723.361 1895.7,722.528 1891.5,722C 1890.26,720.915 1888.93,720.082 1887.5,719.5C 1885.03,719.912 1883.69,718.912 1883.5,716.5C 1882.34,620.874 1882.17,525.207 1883,429.5C 1884.77,426.582 1886.27,423.582 1887.5,420.5C 1924.81,419.525 1962.14,419.192 1999.5,419.5 Z"/></g>
<g><path style="opacity:1" fill="#323d5b" d="M 1999.5,416.5 C 1999.5,416.833 1999.5,417.167 1999.5,417.5C 1963.16,417.167 1926.83,417.5 1890.5,418.5C 1886.21,419.627 1883.37,422.294 1882,426.5C 1881.33,522.833 1881.33,619.167 1882,715.5C 1882.38,716.056 1882.88,716.389 1883.5,716.5C 1883.69,718.912 1885.03,719.912 1887.5,719.5C 1887.5,720.833 1887.5,722.167 1887.5,723.5C 1892.8,724.275 1898.13,724.608 1903.5,724.5C 1903.5,726.167 1903.5,727.833 1903.5,729.5C 1904.5,729.5 1905.5,729.5 1906.5,729.5C 1907.93,728.167 1909.27,726.667 1910.5,725C 1940.16,724.5 1969.83,724.333 1999.5,724.5C 1999.5,725.167 1999.5,725.833 1999.5,726.5C 1970.16,726.167 1940.83,726.5 1911.5,727.5C 1908.79,731.353 1905.12,733.353 1900.5,733.5C 1900.32,731.409 1900.65,729.409 1901.5,727.5C 1890.74,728.731 1883.58,724.398 1880,714.5C 1879.33,618.167 1879.33,521.833 1880,425.5C 1882.17,422 1885,419.167 1888.5,417C 1925.5,416.5 1962.5,416.333 1999.5,416.5 Z"/></g>
<g><path style="opacity:1" fill="#415ec3" d="M 1999.5,417.5 C 1999.5,418.167 1999.5,418.833 1999.5,419.5C 1962.14,419.192 1924.81,419.525 1887.5,420.5C 1886.27,423.582 1884.77,426.582 1883,429.5C 1882.17,525.207 1882.34,620.874 1883.5,716.5C 1882.88,716.389 1882.38,716.056 1882,715.5C 1881.33,619.167 1881.33,522.833 1882,426.5C 1883.37,422.294 1886.21,419.627 1890.5,418.5C 1926.83,417.5 1963.16,417.167 1999.5,417.5 Z"/></g>
<g><path style="opacity:1" fill="#4665e1" d="M 1999.5,444.5 C 1999.5,444.833 1999.5,445.167 1999.5,445.5C 1969.5,445.5 1939.5,445.5 1909.5,445.5C 1909.5,446.5 1909.5,447.5 1909.5,448.5C 1908.57,447.432 1908.23,446.099 1908.5,444.5C 1938.83,444.5 1969.17,444.5 1999.5,444.5 Z"/></g>
<g><path style="opacity:1" fill="#d5ebff" d="M 1999.5,446.5 C 1999.5,447.167 1999.5,447.833 1999.5,448.5C 1880.83,447.833 1880.83,447.167 1999.5,446.5 Z"/></g>
<g><path style="opacity:1" fill="#4d66b5" d="M 1999.5,445.5 C 1999.5,445.833 1999.5,446.167 1999.5,446.5C 1880.83,447.167 1880.83,447.833 1999.5,448.5C 1999.5,448.833 1999.5,449.167 1999.5,449.5C 1969.33,449.831 1939.33,449.498 1909.5,448.5C 1909.5,447.5 1909.5,446.5 1909.5,445.5C 1939.5,445.5 1969.5,445.5 1999.5,445.5 Z"/></g>
<g><path style="opacity:1" fill="#3d61fb" d="M 1999.5,454.5 C 1999.5,455.5 1999.5,456.5 1999.5,457.5C 1973.16,457.667 1946.83,457.5 1920.5,457C 1920.04,456.586 1919.71,456.086 1919.5,455.5C 1946.16,454.5 1972.83,454.167 1999.5,454.5 Z"/></g>
<g><path style="opacity:1" fill="#b1c5f4" d="M 1909.5,468.5 C 1939.5,468.5 1969.5,468.5 1999.5,468.5C 1999.5,469.5 1999.5,470.5 1999.5,471.5C 1969.5,471.5 1939.5,471.5 1909.5,471.5C 1909.5,470.5 1909.5,469.5 1909.5,468.5 Z"/></g>
<g><path style="opacity:1" fill="#4265d8" d="M 1909.5,468.5 C 1909.5,469.5 1909.5,470.5 1909.5,471.5C 1939.5,471.5 1969.5,471.5 1999.5,471.5C 1999.5,471.833 1999.5,472.167 1999.5,472.5C 1968.83,472.5 1938.17,472.5 1907.5,472.5C 1907.16,470.517 1907.82,469.183 1909.5,468.5 Z"/></g>
<g><path style="opacity:1" fill="#b2c5f5" d="M 1999.5,490.5 C 1999.5,491.5 1999.5,492.5 1999.5,493.5C 1969.5,493.5 1939.5,493.5 1909.5,493.5C 1909.5,492.5 1909.5,491.5 1909.5,490.5C 1939.5,490.5 1969.5,490.5 1999.5,490.5 Z"/></g>
<g><path style="opacity:1" fill="#c8d6fe" d="M 1999.5,513.5 C 1999.5,514.167 1999.5,514.833 1999.5,515.5C 1880.83,514.833 1880.83,514.167 1999.5,513.5 Z"/></g>
<g><path style="opacity:1" fill="#637adc" d="M 1999.5,512.5 C 1999.5,512.833 1999.5,513.167 1999.5,513.5C 1880.83,514.167 1880.83,514.833 1999.5,515.5C 1999.5,515.833 1999.5,516.167 1999.5,516.5C 1969.5,516.667 1939.5,516.5 1909.5,516C 1908.66,514.989 1908.33,513.822 1908.5,512.5C 1938.83,512.5 1969.17,512.5 1999.5,512.5 Z"/></g>
<g><path style="opacity:1" fill="#4c64c4" d="M 1999.5,534.5 C 1999.5,534.833 1999.5,535.167 1999.5,535.5C 1969.48,534.841 1939.81,535.508 1910.5,537.5C 1908.95,537.179 1908.29,536.179 1908.5,534.5C 1938.83,534.5 1969.17,534.5 1999.5,534.5 Z"/></g>
<g><path style="opacity:1" fill="#e1eeff" d="M 1999.5,535.5 C 1999.5,536.167 1999.5,536.833 1999.5,537.5C 1969.83,537.5 1940.17,537.5 1910.5,537.5C 1939.81,535.508 1969.48,534.841 1999.5,535.5 Z"/></g>
<g><path style="opacity:1" fill="#4565d1" d="M 1999.5,556.5 C 1999.5,556.833 1999.5,557.167 1999.5,557.5C 1969.15,556.841 1939.15,557.508 1909.5,559.5C 1907.95,559.179 1907.29,558.179 1907.5,556.5C 1938.17,556.5 1968.83,556.5 1999.5,556.5 Z"/></g>
<g><path style="opacity:1" fill="#e2edf7" d="M 1999.5,557.5 C 1999.5,558.167 1999.5,558.833 1999.5,559.5C 1969.5,559.5 1939.5,559.5 1909.5,559.5C 1939.15,557.508 1969.15,556.841 1999.5,557.5 Z"/></g>
<g><path style="opacity:1" fill="#4063e7" d="M 1909.5,559.5 C 1939.5,559.5 1969.5,559.5 1999.5,559.5C 1999.5,560.167 1999.5,560.833 1999.5,561.5C 1969.15,562.159 1939.15,561.492 1909.5,559.5 Z"/></g>
<g><path style="opacity:1" fill="#d5e0fd" d="M 1910.5,579.5 C 1940.17,579.5 1969.83,579.5 1999.5,579.5C 1999.5,580.167 1999.5,580.833 1999.5,581.5C 1969.48,582.159 1939.81,581.492 1910.5,579.5 Z"/></g>
<g><path style="opacity:1" fill="#97abfa" d="M 1910.5,579.5 C 1939.81,581.492 1969.48,582.159 1999.5,581.5C 1999.5,581.833 1999.5,582.167 1999.5,582.5C 1969.83,582.5 1940.17,582.5 1910.5,582.5C 1909.17,581.5 1909.17,580.5 1910.5,579.5 Z"/></g>
<g><path style="opacity:1" fill="#3b62f8" d="M 1999.5,586.5 C 1999.5,588.5 1999.5,590.5 1999.5,592.5C 1973.5,592.667 1947.5,592.5 1921.5,592C 1938.64,591.467 1938.64,590.467 1921.5,589C 1918.84,587.736 1917.84,585.903 1918.5,583.5C 1919.17,584.5 1919.83,585.5 1920.5,586.5C 1946.5,586.333 1972.84,586.333 1999.5,586.5 Z"/></g>
<g><path style="opacity:1" fill="#3c63ee" d="M 1910.5,582.5 C 1940.17,582.5 1969.83,582.5 1999.5,582.5C 1999.5,583.833 1999.5,585.167 1999.5,586.5C 1972.84,586.333 1946.5,586.333 1920.5,586.5C 1919.83,585.5 1919.17,584.5 1918.5,583.5C 1917.84,585.903 1918.84,587.736 1921.5,589C 1938.64,590.467 1938.64,591.467 1921.5,592C 1947.5,592.5 1973.5,592.667 1999.5,592.5C 1999.5,593.167 1999.5,593.833 1999.5,594.5C 1972.16,594.333 1944.83,594.5 1917.5,595C 1917.17,595.333 1916.83,595.667 1916.5,596C 1917.31,596.308 1917.97,596.808 1918.5,597.5C 1916.92,598.298 1915.26,598.798 1913.5,599C 1942.1,600.475 1970.77,600.975 1999.5,600.5C 1999.5,600.833 1999.5,601.167 1999.5,601.5C 1969.83,601.5 1940.17,601.5 1910.5,601.5C 1910.95,600.542 1911.62,599.708 1912.5,599C 1910.65,594.369 1907.81,593.535 1904,596.5C 1903.5,594.527 1903.34,592.527 1903.5,590.5C 1904.87,590.343 1906.21,590.51 1907.5,591C 1905.06,592.003 1905.4,592.503 1908.5,592.5C 1912.19,591.967 1915.85,591.634 1919.5,591.5C 1916.36,590.909 1913.36,590.076 1910.5,589C 1911.17,588.333 1911.83,587.667 1912.5,587C 1911.17,586 1911.17,585 1912.5,584C 1911.58,583.722 1910.92,583.222 1910.5,582.5 Z"/></g>
<g><path style="opacity:1" fill="#3b62f9" d="M 1999.5,594.5 C 1999.5,596.5 1999.5,598.5 1999.5,600.5C 1970.77,600.975 1942.1,600.475 1913.5,599C 1915.26,598.798 1916.92,598.298 1918.5,597.5C 1917.97,596.808 1917.31,596.308 1916.5,596C 1916.83,595.667 1917.17,595.333 1917.5,595C 1944.83,594.5 1972.16,594.333 1999.5,594.5 Z"/></g>
<g><path style="opacity:1" fill="#c2d4fa" d="M 1910.5,601.5 C 1940.17,601.5 1969.83,601.5 1999.5,601.5C 1999.5,602.5 1999.5,603.5 1999.5,604.5C 1969.83,604.5 1940.17,604.5 1910.5,604.5C 1910.5,603.5 1910.5,602.5 1910.5,601.5 Z"/></g>
<g><path style="opacity:1" fill="#4167cc" d="M 1910.5,601.5 C 1910.5,602.5 1910.5,603.5 1910.5,604.5C 1940.17,604.5 1969.83,604.5 1999.5,604.5C 1999.5,604.833 1999.5,605.167 1999.5,605.5C 1969.5,605.667 1939.5,605.5 1909.5,605C 1908.02,603.244 1908.35,602.077 1910.5,601.5 Z"/></g>
<g><path style="opacity:1" fill="#3e63ed" d="M 1999.5,621.5 C 1999.5,622.167 1999.5,622.833 1999.5,623.5C 1969.5,623.5 1939.5,623.5 1909.5,623.5C 1909.26,624.791 1909.6,625.791 1910.5,626.5C 1910.5,626.833 1910.5,627.167 1910.5,627.5C 1908.41,626.135 1906.08,625.468 1903.5,625.5C 1903.21,623.712 1903.55,622.045 1904.5,620.5C 1905.48,620.977 1906.31,621.643 1907,622.5C 1937.48,621.522 1968.32,621.189 1999.5,621.5 Z"/></g>
<g><path style="opacity:1" fill="#b7c9f5" d="M 1999.5,623.5 C 1999.5,624.5 1999.5,625.5 1999.5,626.5C 1969.83,626.5 1940.17,626.5 1910.5,626.5C 1909.6,625.791 1909.26,624.791 1909.5,623.5C 1939.5,623.5 1969.5,623.5 1999.5,623.5 Z"/></g>
<g><path style="opacity:1" fill="#4462d8" d="M 1910.5,627.5 C 1910.5,627.167 1910.5,626.833 1910.5,626.5C 1940.17,626.5 1969.83,626.5 1999.5,626.5C 1999.5,627.167 1999.5,627.833 1999.5,628.5C 1969.79,628.817 1940.12,628.484 1910.5,627.5 Z"/></g>
<g><path style="opacity:1" fill="#d9ebff" d="M 1999.5,646.5 C 1999.5,647.167 1999.5,647.833 1999.5,648.5C 1880.83,647.833 1880.83,647.167 1999.5,646.5 Z"/></g>
<g><path style="opacity:1" fill="#4d67b3" d="M 1999.5,645.5 C 1999.5,645.833 1999.5,646.167 1999.5,646.5C 1880.83,647.167 1880.83,647.833 1999.5,648.5C 1999.5,648.833 1999.5,649.167 1999.5,649.5C 1969.5,649.5 1939.5,649.5 1909.5,649.5C 1909.5,648.167 1909.5,646.833 1909.5,645.5C 1939.5,645.5 1969.5,645.5 1999.5,645.5 Z"/></g>
<g><path style="opacity:1" fill="#4c66c9" d="M 1999.5,667.5 C 1999.5,667.833 1999.5,668.167 1999.5,668.5C 1969.83,668.5 1940.17,668.5 1910.5,668.5C 1910.5,669.5 1910.5,670.5 1910.5,671.5C 1909.6,670.791 1909.26,669.791 1909.5,668.5C 1939.33,667.502 1969.33,667.169 1999.5,667.5 Z"/></g>
<g><path style="opacity:1" fill="#c2d4f5" d="M 1999.5,668.5 C 1999.5,669.5 1999.5,670.5 1999.5,671.5C 1969.83,671.5 1940.17,671.5 1910.5,671.5C 1910.5,670.5 1910.5,669.5 1910.5,668.5C 1940.17,668.5 1969.83,668.5 1999.5,668.5 Z"/></g>
<g><path style="opacity:1" fill="#3f63eb" d="M 1909.5,668.5 C 1909.26,669.791 1909.6,670.791 1910.5,671.5C 1940.17,671.5 1969.83,671.5 1999.5,671.5C 1999.5,672.167 1999.5,672.833 1999.5,673.5C 1968.32,673.811 1937.48,673.478 1907,672.5C 1904.29,675.165 1903.29,674.498 1904,670.5C 1905.81,669.756 1907.65,669.089 1909.5,668.5 Z"/></g>
<g><path style="opacity:1" fill="#b1c5f6" d="M 1971.5,690.5 C 1971.5,691.5 1971.5,692.5 1971.5,693.5C 1951.17,693.5 1930.83,693.5 1910.5,693.5C 1909.6,692.791 1909.26,691.791 1909.5,690.5C 1930.17,690.5 1950.83,690.5 1971.5,690.5 Z"/></g>
<g><path style="opacity:1" fill="#4361d5" d="M 1971.5,690.5 C 1972.43,691.568 1972.77,692.901 1972.5,694.5C 1951.66,694.831 1930.99,694.497 1910.5,693.5C 1930.83,693.5 1951.17,693.5 1971.5,693.5C 1971.5,692.5 1971.5,691.5 1971.5,690.5 Z"/></g>
<g><path style="opacity:1" fill="#fcfdfc" d="M 1784.5,695.5 C 1801.17,695.333 1817.84,695.5 1834.5,696C 1836.1,696.273 1837.6,696.773 1839,697.5C 1840.33,699.5 1841.67,701.5 1843,703.5C 1843.67,721.167 1843.67,738.833 1843,756.5C 1841.8,759.03 1839.97,761.03 1837.5,762.5C 1819.84,763.666 1802.18,763.833 1784.5,763C 1780.8,762.262 1778.47,760.095 1777.5,756.5C 1776.17,738.5 1776.17,720.5 1777.5,702.5C 1779.67,699.932 1782.01,697.599 1784.5,695.5 Z"/></g>
<g><path style="opacity:1" fill="#505154" d="M 1803.5,713.5 C 1814.57,712.3 1823.91,715.633 1831.5,723.5C 1831.17,723.833 1830.83,724.167 1830.5,724.5C 1822.23,716.948 1812.56,714.448 1801.5,717C 1797.44,719.114 1793.61,721.614 1790,724.5C 1789.29,722.633 1789.79,721.133 1791.5,720C 1795.56,717.722 1799.56,715.555 1803.5,713.5 Z"/></g>
<g><path style="opacity:1" fill="#455dcb" d="M 1887.5,719.5 C 1888.93,720.082 1890.26,720.915 1891.5,722C 1895.7,722.528 1899.7,723.361 1903.5,724.5C 1898.13,724.608 1892.8,724.275 1887.5,723.5C 1887.5,722.167 1887.5,720.833 1887.5,719.5 Z"/></g>
<g><path style="opacity:1" fill="#4156ad" d="M 1999.5,723.5 C 1999.5,723.833 1999.5,724.167 1999.5,724.5C 1969.83,724.333 1940.16,724.5 1910.5,725C 1909.27,726.667 1907.93,728.167 1906.5,729.5C 1906.84,727.321 1907.84,725.488 1909.5,724C 1939.5,723.5 1969.5,723.333 1999.5,723.5 Z"/></g>
<g><path style="opacity:1" fill="#4b4c4e" d="M 1804.5,722.5 C 1811.44,721.537 1817.77,723.037 1823.5,727C 1825.42,728.241 1825.75,729.741 1824.5,731.5C 1814.99,722.289 1805.49,722.289 1796,731.5C 1795.5,731 1795,730.5 1794.5,730C 1797.4,726.738 1800.73,724.238 1804.5,722.5 Z"/></g>
<g><path style="opacity:1" fill="#535456" d="M 1806.5,731.5 C 1811.85,730.683 1816.19,732.349 1819.5,736.5C 1819.17,736.833 1818.83,737.167 1818.5,737.5C 1813.02,733.538 1807.52,733.538 1802,737.5C 1800.74,737.15 1800.41,736.483 1801,735.5C 1803.02,734.303 1804.85,732.97 1806.5,731.5 Z"/></g>
<g><path style="opacity:1" fill="#4e4f52" d="M 1808.5,739.5 C 1815.22,740.906 1815.89,743.573 1810.5,747.5C 1806.08,745.82 1805.41,743.154 1808.5,739.5 Z"/></g>
<g><path style="opacity:1" fill="#e6e7ec" d="M 1808.5,742.5 C 1809.68,742.281 1810.68,742.614 1811.5,743.5C 1809.95,744.798 1808.95,744.465 1808.5,742.5 Z"/></g>
<g><path style="opacity:1" fill="#3b4854" d="M 1999.5,820.5 C 1999.5,821.167 1999.5,821.833 1999.5,822.5C 1928.83,822.333 1858.17,822.5 1787.5,823C 1782.47,824.853 1779.47,828.353 1778.5,833.5C 1777.83,862.5 1777.17,891.5 1776.5,920.5C 1775.34,891.239 1775.18,861.905 1776,832.5C 1777.74,827.09 1781.24,823.256 1786.5,821C 1857.5,820.5 1928.5,820.333 1999.5,820.5 Z"/></g>
<g><path style="opacity:1" fill="#c5dff5" d="M 1999.5,822.5 C 1999.5,822.833 1999.5,823.167 1999.5,823.5C 1930.63,824.221 1860.97,824.554 1790.5,824.5C 1791.85,828.11 1791.18,828.443 1788.5,825.5C 1787.3,825.846 1787.3,826.346 1788.5,827C 1787.17,827.333 1785.83,827.667 1784.5,828C 1783.83,829.333 1782.83,830.333 1781.5,831C 1782.1,832.628 1781.76,834.295 1780.5,836C 1780.96,836.414 1781.29,836.914 1781.5,837.5C 1780.81,863.305 1780.14,889.139 1779.5,915C 1780.29,918.593 1782.63,920.593 1786.5,921C 1785.55,921.483 1784.55,921.649 1783.5,921.5C 1783.63,923.216 1783.96,924.883 1784.5,926.5C 1781.72,924.967 1779.89,922.634 1779,919.5C 1778.5,890.835 1778.33,862.169 1778.5,833.5C 1779.47,828.353 1782.47,824.853 1787.5,823C 1858.17,822.5 1928.83,822.333 1999.5,822.5 Z"/></g>
<g><path style="opacity:1" fill="#c0e1fe" d="M 1999.5,823.5 C 1999.5,831.833 1999.5,840.167 1999.5,848.5C 1933.27,848.815 1867.27,848.481 1801.5,847.5C 1802.07,849.897 1801.4,852.23 1799.5,854.5C 1800.73,857.3 1801.4,860.3 1801.5,863.5C 1801.61,868.459 1800.94,872.959 1799.5,877C 1801,880.081 1802.66,880.247 1804.5,877.5C 1869.5,876.5 1934.5,876.167 1999.5,876.5C 1999.5,893.833 1999.5,911.167 1999.5,928.5C 1935.16,928.167 1870.83,928.5 1806.5,929.5C 1802.67,936.729 1800.33,936.729 1799.5,929.5C 1795.35,928.675 1791.02,928.175 1786.5,928C 1785.58,927.722 1784.92,927.222 1784.5,926.5C 1783.96,924.883 1783.63,923.216 1783.5,921.5C 1784.55,921.649 1785.55,921.483 1786.5,921C 1782.63,920.593 1780.29,918.593 1779.5,915C 1780.14,889.139 1780.81,863.305 1781.5,837.5C 1781.29,836.914 1780.96,836.414 1780.5,836C 1781.76,834.295 1782.1,832.628 1781.5,831C 1782.83,830.333 1783.83,829.333 1784.5,828C 1785.83,827.667 1787.17,827.333 1788.5,827C 1787.3,826.346 1787.3,825.846 1788.5,825.5C 1791.18,828.443 1791.85,828.11 1790.5,824.5C 1860.97,824.554 1930.63,824.221 1999.5,823.5 Z"/></g>
<g><path style="opacity:1" fill="#2c3d4e" d="M 1999.5,850.5 C 1999.5,851.167 1999.5,851.833 1999.5,852.5C 1740.83,851.833 1740.83,851.167 1999.5,850.5 Z"/></g>
<g><path style="opacity:1" fill="#c5e0fa" d="M 1999.5,848.5 C 1999.5,849.167 1999.5,849.833 1999.5,850.5C 1740.83,851.167 1740.83,851.833 1999.5,852.5C 1999.5,853.167 1999.5,853.833 1999.5,854.5C 1935.5,854.5 1871.5,854.5 1807.5,854.5C 1807.5,855.833 1807.5,857.167 1807.5,858.5C 1871.5,858.5 1935.5,858.5 1999.5,858.5C 1999.5,859.5 1999.5,860.5 1999.5,861.5C 1935.5,861.544 1871.83,861.544 1808.5,861.5C 1807.17,864.5 1807.17,867.5 1808.5,870.5C 1872.06,869.896 1935.73,869.896 1999.5,870.5C 1999.5,871.167 1999.5,871.833 1999.5,872.5C 1934.83,872.5 1870.17,872.5 1805.5,872.5C 1805.5,873.5 1805.5,874.5 1805.5,875.5C 1870.17,875.5 1934.83,875.5 1999.5,875.5C 1999.5,875.833 1999.5,876.167 1999.5,876.5C 1934.5,876.167 1869.5,876.5 1804.5,877.5C 1802.66,880.247 1801,880.081 1799.5,877C 1800.94,872.959 1801.61,868.459 1801.5,863.5C 1801.4,860.3 1800.73,857.3 1799.5,854.5C 1801.4,852.23 1802.07,849.897 1801.5,847.5C 1867.27,848.481 1933.27,848.815 1999.5,848.5 Z"/></g>
<g><path style="opacity:1" fill="#bee2fe" d="M 1999.5,854.5 C 1999.5,855.833 1999.5,857.167 1999.5,858.5C 1935.5,858.5 1871.5,858.5 1807.5,858.5C 1807.5,857.167 1807.5,855.833 1807.5,854.5C 1871.5,854.5 1935.5,854.5 1999.5,854.5 Z"/></g>
<g><path style="opacity:1" fill="#bfe1fe" d="M 1999.5,861.5 C 1999.5,864.5 1999.5,867.5 1999.5,870.5C 1935.73,869.896 1872.06,869.896 1808.5,870.5C 1807.17,867.5 1807.17,864.5 1808.5,861.5C 1871.83,861.544 1935.5,861.544 1999.5,861.5 Z"/></g>
<g><path style="opacity:1" fill="#485a6d" d="M 1999.5,872.5 C 1999.5,873.5 1999.5,874.5 1999.5,875.5C 1934.83,875.5 1870.17,875.5 1805.5,875.5C 1805.5,874.5 1805.5,873.5 1805.5,872.5C 1870.17,872.5 1934.83,872.5 1999.5,872.5 Z"/></g>
<g><path style="opacity:1" fill="#2e3d4b" d="M 1805.5,895.5 C 1852.17,895.167 1898.84,895.5 1945.5,896.5C 1922.17,896.833 1898.83,897.167 1875.5,897.5C 1851.82,897.5 1828.49,896.833 1805.5,895.5 Z"/></g>
<g><path style="opacity:1" fill="#505e6c" d="M 1778.5,833.5 C 1778.33,862.169 1778.5,890.835 1779,919.5C 1779.89,922.634 1781.72,924.967 1784.5,926.5C 1784.92,927.222 1785.58,927.722 1786.5,928C 1791.02,928.175 1795.35,928.675 1799.5,929.5C 1795.16,929.622 1794.83,929.955 1798.5,930.5C 1798.77,932.099 1798.43,933.432 1797.5,934.5C 1797.5,933.5 1797.5,932.5 1797.5,931.5C 1787.47,933.288 1780.47,929.622 1776.5,920.5C 1777.17,891.5 1777.83,862.5 1778.5,833.5 Z"/></g>
<g><path style="opacity:1" fill="#4b5969" d="M 1999.5,928.5 C 1999.5,929.5 1999.5,930.5 1999.5,931.5C 1935.5,931.167 1871.5,931.5 1807.5,932.5C 1805.38,936.438 1802.04,938.105 1797.5,937.5C 1797.5,936.5 1797.5,935.5 1797.5,934.5C 1798.43,933.432 1798.77,932.099 1798.5,930.5C 1794.83,929.955 1795.16,929.622 1799.5,929.5C 1800.33,936.729 1802.67,936.729 1806.5,929.5C 1870.83,928.5 1935.16,928.167 1999.5,928.5 Z"/></g>
<g><path style="opacity:1" fill="#404145" d="M 1551.5,974.5 C 1658.17,974.333 1764.83,974.5 1871.5,975C 1876,976.833 1879.17,980 1881,984.5C 1881.67,1014.5 1881.67,1044.5 1881,1074.5C 1879.99,1078.84 1877.49,1082.01 1873.5,1084C 1868.91,1085.23 1864.25,1085.73 1859.5,1085.5C 1859.99,1087.81 1860.33,1090.14 1860.5,1092.5C 1855.55,1092.86 1851.89,1090.86 1849.5,1086.5C 1749.46,1085.99 1649.46,1085.16 1549.5,1084C 1545.87,1081.36 1543.37,1077.86 1542,1073.5C 1541.33,1044.17 1541.33,1014.83 1542,985.5C 1543.8,980.518 1546.96,976.851 1551.5,974.5 Z"/></g>
<g><path style="opacity:1" fill="#fefefe" d="M 1553.5,976.5 C 1659.88,976.009 1766.21,976.509 1872.5,978C 1875.76,980.02 1877.92,982.854 1879,986.5C 1879.67,1015.5 1879.67,1044.5 1879,1073.5C 1877.86,1078.64 1874.69,1081.81 1869.5,1083C 1865.51,1083.5 1861.51,1083.67 1857.5,1083.5C 1857.5,1085.5 1857.5,1087.5 1857.5,1089.5C 1854.33,1089.34 1852.33,1087.67 1851.5,1084.5C 1752.17,1083.67 1652.84,1083.17 1553.5,1083C 1549.4,1081.9 1546.57,1079.4 1545,1075.5C 1544.33,1044.83 1544.33,1014.17 1545,983.5C 1547.44,980.546 1550.27,978.213 1553.5,976.5 Z"/></g>
<g><path style="opacity:1" fill="#3b3c3f" d="M 1570.5,1004.5 C 1664.5,1004.17 1758.5,1004.5 1852.5,1005.5C 1805.5,1005.83 1758.5,1006.17 1711.5,1006.5C 1664.16,1006.5 1617.16,1005.83 1570.5,1004.5 Z"/></g>
<g><path style="opacity:1" fill="#959697" d="M 1852.5,1027.5 C 1758.49,1026.84 1664.83,1027.5 1571.5,1029.5C 1570.6,1028.79 1570.26,1027.79 1570.5,1026.5C 1664.67,1026.17 1758.67,1026.5 1852.5,1027.5 Z"/></g>
<g><path style="opacity:1" fill="#5b5c5e" d="M 1852.5,1027.5 C 1759.17,1029.5 1665.51,1030.16 1571.5,1029.5C 1664.83,1027.5 1758.49,1026.84 1852.5,1027.5 Z"/></g>
<g><path style="opacity:1" fill="#3a3b3d" d="M 1711.5,1049.5 C 1758.5,1049.17 1805.5,1049.5 1852.5,1050.5C 1829,1050.83 1805.5,1051.17 1782,1051.5C 1758.16,1051.5 1734.66,1050.83 1711.5,1049.5 Z"/></g>
</svg>
