<?xml version="1.0" encoding="UTF-8"?>
<!DOCTYPE svg PUBLIC "-//W3C//DTD SVG 1.1//EN" "http://www.w3.org/Graphics/SVG/1.1/DTD/svg11.dtd">
<svg xmlns="http://www.w3.org/2000/svg" version="1.1" width="2000px" height="1125px" style="shape-rendering:geometricPrecision; text-rendering:geometricPrecision; image-rendering:optimizeQuality; fill-rule:evenodd; clip-rule:evenodd" xmlns:xlink="http://www.w3.org/1999/xlink">
<g><path style="opacity:1" fill="#edf0f5" d="M -0.5,-0.5 C 38.1667,-0.5 76.8333,-0.5 115.5,-0.5C 115.5,60.5 115.5,121.5 115.5,182.5C 116.5,182.5 117.5,182.5 118.5,182.5C 118.5,121.5 118.5,60.5 118.5,-0.5C 604.167,-0.5 1089.83,-0.5 1575.5,-0.5C 1575.33,18.1696 1575.5,36.8363 1576,55.5C 1577.43,60.5982 1580.6,64.0982 1585.5,66C 1636.17,66.3333 1686.83,66.6667 1737.5,67C 1740.22,71.5648 1744.22,73.7314 1749.5,73.5C 1749.01,71.1944 1748.67,68.861 1748.5,66.5C 1759.95,68.8393 1767.11,64.5059 1770,53.5C 1770.5,35.5031 1770.67,17.5031 1770.5,-0.5C 1846.83,-0.5 1923.17,-0.5 1999.5,-0.5C 1999.5,4.16667 1999.5,8.83333 1999.5,13.5C 1942.83,13.3333 1886.17,13.5 1829.5,14C 1828.58,14.2784 1827.92,14.7784 1827.5,15.5C 1823.06,17.3424 1820.22,20.6757 1819,25.5C 1818.33,50.1667 1818.33,74.8333 1819,99.5C 1819.28,100.416 1819.78,101.082 1820.5,101.5C 1820.39,103.514 1821.06,105.18 1822.5,106.5C 1824.25,108.223 1826.25,109.723 1828.5,111C 1832.49,111.499 1836.49,111.666 1840.5,111.5C 1840.01,113.806 1839.67,116.139 1839.5,118.5C 1842.55,118.889 1845.22,118.223 1847.5,116.5C 1849.34,115.492 1850.67,113.992 1851.5,112C 1900.83,111.5 1950.17,111.333 1999.5,111.5C 1999.5,124.167 1999.5,136.833 1999.5,149.5C 1965.5,149.333 1931.5,149.5 1897.5,150C 1892.61,151.686 1889.11,154.853 1887,159.5C 1886.33,256.167 1886.33,352.833 1887,449.5C 1891.26,458.548 1898.43,462.215 1908.5,460.5C 1908.17,462.5 1907.83,464.5 1907.5,466.5C 1912.31,467.26 1915.98,465.593 1918.5,461.5C 1945.49,460.5 1972.49,460.167 1999.5,460.5C 1999.5,681.833 1999.5,903.167 1999.5,1124.5C 1332.83,1124.5 666.167,1124.5 -0.5,1124.5C -0.5,749.5 -0.5,374.5 -0.5,-0.5 Z"/></g>
<g><path style="opacity:1" fill="#575a5f" d="M 115.5,-0.5 C 116.5,-0.5 117.5,-0.5 118.5,-0.5C 118.5,60.5 118.5,121.5 118.5,182.5C 117.5,182.5 116.5,182.5 115.5,182.5C 115.5,121.5 115.5,60.5 115.5,-0.5 Z"/></g>
<g><path style="opacity:1" fill="#42495c" d="M 1999.5,13.5 C 1999.5,14.1667 1999.5,14.8333 1999.5,15.5C 1942.17,15.5 1884.83,15.5 1827.5,15.5C 1827.92,14.7784 1828.58,14.2784 1829.5,14C 1886.17,13.5 1942.83,13.3333 1999.5,13.5 Z"/></g>
<g><path style="opacity:1" fill="#3854b5" d="M 1827.5,15.5 C 1884.83,15.5 1942.17,15.5 1999.5,15.5C 1999.5,16.1667 1999.5,16.8333 1999.5,17.5C 1942.5,17.3333 1885.5,17.5 1828.5,18C 1827.94,18.3826 1827.61,18.8826 1827.5,19.5C 1826.17,19.8333 1824.83,20.1667 1823.5,20.5C 1825.37,19.2402 1826.7,17.5735 1827.5,15.5 Z"/></g>
<g><path style="opacity:1" fill="#4263eb" d="M 1999.5,17.5 C 1999.5,17.8333 1999.5,18.1667 1999.5,18.5C 1942.12,18.1748 1884.79,18.5081 1827.5,19.5C 1827.61,18.8826 1827.94,18.3826 1828.5,18C 1885.5,17.5 1942.5,17.3333 1999.5,17.5 Z"/></g>
<g><path style="opacity:1" fill="#3c62fc" d="M 1999.5,18.5 C 1999.5,19.5 1999.5,20.5 1999.5,21.5C 1946.61,20.3919 1893.27,20.3919 1839.5,21.5C 1839.35,22.552 1839.52,23.552 1840,24.5C 1892.94,24.4402 1946.11,24.4402 1999.5,24.5C 1999.5,25.1667 1999.5,25.8333 1999.5,26.5C 1946.16,26.1667 1892.83,26.5001 1839.5,27.5C 1837.43,28.1341 1835.6,29.1341 1834,30.5C 1833.08,29.9535 1832.24,29.2868 1831.5,28.5C 1833.07,26.0526 1835.07,24.0526 1837.5,22.5C 1834.7,21.8904 1831.87,22.2237 1829,23.5C 1826.5,22.8424 1826,21.5091 1827.5,19.5C 1884.79,18.5081 1942.12,18.1748 1999.5,18.5 Z"/></g>
<g><path style="opacity:1" fill="#3864f5" d="M 1999.5,21.5 C 1999.5,22.5 1999.5,23.5 1999.5,24.5C 1946.11,24.4402 1892.94,24.4402 1840,24.5C 1839.52,23.552 1839.35,22.552 1839.5,21.5C 1893.27,20.3919 1946.61,20.3919 1999.5,21.5 Z"/></g>
<g><path style="opacity:1" fill="#3c62f5" d="M 1827.5,19.5 C 1826,21.5091 1826.5,22.8424 1829,23.5C 1831.87,22.2237 1834.7,21.8904 1837.5,22.5C 1835.07,24.0526 1833.07,26.0526 1831.5,28.5C 1832.24,29.2868 1833.08,29.9535 1834,30.5C 1835.6,29.1341 1837.43,28.1341 1839.5,27.5C 1892.83,26.5001 1946.16,26.1667 1999.5,26.5C 1999.5,50.5 1999.5,74.5 1999.5,98.5C 1977.83,98.5 1956.17,98.5 1934.5,98.5C 1932.95,97.2057 1930.95,96.5391 1928.5,96.5C 1926.24,96.5323 1924.07,96.8656 1922,97.5C 1917.59,96.6971 1913.09,96.1971 1908.5,96C 1910.88,93.7731 1911.05,91.2731 1909,88.5C 1907.63,90.9368 1907.13,93.6035 1907.5,96.5C 1893.25,96.8235 1879.09,96.4902 1865,95.5C 1858.28,96.3116 1851.61,97.6449 1845,99.5C 1843.67,98.8333 1842.33,98.1667 1841,97.5C 1837.54,98.2181 1834.04,98.7181 1830.5,99C 1828.91,101.668 1826.58,103.168 1823.5,103.5C 1823.5,102.833 1823.5,102.167 1823.5,101.5C 1822.52,75.8779 1822.19,50.2113 1822.5,24.5C 1822.5,23.8333 1822.5,23.1667 1822.5,22.5C 1823.34,22.1583 1823.67,21.4916 1823.5,20.5C 1824.83,20.1667 1826.17,19.8333 1827.5,19.5 Z"/></g>
<g><path style="opacity:1" fill="#4d5567" d="M 1827.5,15.5 C 1826.7,17.5735 1825.37,19.2402 1823.5,20.5C 1823.67,21.4916 1823.34,22.1583 1822.5,22.5C 1821.88,22.6107 1821.38,22.944 1821,23.5C 1820.5,49.4979 1820.33,75.4979 1820.5,101.5C 1819.78,101.082 1819.28,100.416 1819,99.5C 1818.33,74.8333 1818.33,50.1667 1819,25.5C 1820.22,20.6757 1823.06,17.3424 1827.5,15.5 Z"/></g>
<g><path style="opacity:1" fill="#31447a" d="M 1822.5,22.5 C 1822.5,23.1667 1822.5,23.8333 1822.5,24.5C 1821.34,49.6633 1821.17,74.9967 1822,100.5C 1822.38,101.056 1822.88,101.389 1823.5,101.5C 1823.5,102.167 1823.5,102.833 1823.5,103.5C 1823.5,103.833 1823.5,104.167 1823.5,104.5C 1824.17,105.167 1824.83,105.833 1825.5,106.5C 1824.5,106.5 1823.5,106.5 1822.5,106.5C 1821.06,105.18 1820.39,103.514 1820.5,101.5C 1820.33,75.4979 1820.5,49.4979 1821,23.5C 1821.38,22.944 1821.88,22.6107 1822.5,22.5 Z"/></g>
<g><path style="opacity:1" fill="#4564d1" d="M 1822.5,24.5 C 1822.19,50.2113 1822.52,75.8779 1823.5,101.5C 1822.88,101.389 1822.38,101.056 1822,100.5C 1821.17,74.9967 1821.34,49.6633 1822.5,24.5 Z"/></g>
<g><path style="opacity:1" fill="#c2d5fa" d="M 1842.5,38.5 C 1891.17,38.5 1939.83,38.5 1988.5,38.5C 1988.5,39.5 1988.5,40.5 1988.5,41.5C 1939.83,41.5 1891.17,41.5 1842.5,41.5C 1842.5,40.5 1842.5,39.5 1842.5,38.5 Z"/></g>
<g><path style="opacity:1" fill="#3c62f1" d="M 1988.5,59.5 C 1942,59.8321 1895.66,59.4988 1849.5,58.5C 1894.17,58.6667 1938.83,58.5 1983.5,58C 1940.83,57.8333 1898.16,57.3333 1855.5,56.5C 1859.51,55.7733 1863.51,55.1066 1867.5,54.5C 1899.5,54.5 1931.5,54.5 1963.5,54.5C 1970.36,55.1494 1977.2,55.8161 1984,56.5C 1984.33,56.1667 1984.67,55.8333 1985,55.5C 1985.69,57.3502 1986.86,58.6836 1988.5,59.5 Z"/></g>
<g><path style="opacity:1" fill="#4a4e51" d="M 1575.5,-0.5 C 1576.5,-0.5 1577.5,-0.5 1578.5,-0.5C 1578.33,18.8362 1578.5,38.1695 1579,57.5C 1581.2,60.0402 1583.7,62.2068 1586.5,64C 1637.5,64.1667 1688.5,64.6667 1739.5,65.5C 1744.03,73.3557 1746.36,73.0223 1746.5,64.5C 1751.6,64.8254 1756.6,64.3254 1761.5,63C 1764.11,61.0616 1765.94,58.5616 1767,55.5C 1767.5,36.8363 1767.67,18.1696 1767.5,-0.5C 1768.5,-0.5 1769.5,-0.5 1770.5,-0.5C 1770.67,17.5031 1770.5,35.5031 1770,53.5C 1767.11,64.5059 1759.95,68.8393 1748.5,66.5C 1748.67,68.861 1749.01,71.1944 1749.5,73.5C 1744.22,73.7314 1740.22,71.5648 1737.5,67C 1686.83,66.6667 1636.17,66.3333 1585.5,66C 1580.6,64.0982 1577.43,60.5982 1576,55.5C 1575.5,36.8363 1575.33,18.1696 1575.5,-0.5 Z"/></g>
<g><path style="opacity:1" fill="#fefefe" d="M 1578.5,-0.5 C 1641.5,-0.5 1704.5,-0.5 1767.5,-0.5C 1767.67,18.1696 1767.5,36.8363 1767,55.5C 1765.94,58.5616 1764.11,61.0616 1761.5,63C 1756.6,64.3254 1751.6,64.8254 1746.5,64.5C 1746.36,73.0223 1744.03,73.3557 1739.5,65.5C 1688.5,64.6667 1637.5,64.1667 1586.5,64C 1583.7,62.2068 1581.2,60.0402 1579,57.5C 1578.5,38.1695 1578.33,18.8362 1578.5,-0.5 Z"/></g>
<g><path style="opacity:1" fill="#373b3e" d="M 1598.5,39.5 C 1647.84,39.1667 1697.17,39.5001 1746.5,40.5C 1721.83,40.8333 1697.17,41.1667 1672.5,41.5C 1647.49,41.4998 1622.82,40.8331 1598.5,39.5 Z"/></g>
<g><path style="opacity:1" fill="#3a3b3d" d="M 1598.5,17.5 C 1647.84,17.1667 1697.17,17.5001 1746.5,18.5C 1721.83,18.8333 1697.17,19.1667 1672.5,19.5C 1647.49,19.4998 1622.82,18.8331 1598.5,17.5 Z"/></g>
<g><path style="opacity:1" fill="#5471eb" d="M 1849.5,58.5 C 1895.66,59.4988 1942,59.8321 1988.5,59.5C 1990.51,61.0231 1990.84,62.8564 1989.5,65C 1940.17,65.6667 1890.83,65.6667 1841.5,65C 1840.76,61.9775 1841.1,58.9775 1842.5,56C 1845.61,54.9126 1847.95,55.746 1849.5,58.5 Z"/></g>
<g><path style="opacity:1" fill="#c8d7ed" d="M 1842.5,61.5 C 1891.17,61.1667 1939.84,61.5001 1988.5,62.5C 1964.17,62.8333 1939.83,63.1667 1915.5,63.5C 1890.82,63.4998 1866.49,62.8331 1842.5,61.5 Z"/></g>
<g><path style="opacity:1" fill="#ddefff" d="M 1915.5,83.5 C 1939.84,83.1669 1964.18,83.5003 1988.5,84.5C 1976.33,84.8333 1964.17,85.1667 1952,85.5C 1939.48,85.4991 1927.31,84.8324 1915.5,83.5 Z"/></g>
<g><path style="opacity:1" fill="#3964f3" d="M 1934.5,98.5 C 1908.83,98.3334 1883.16,98.5 1857.5,99C 1856.69,99.3076 1856.03,99.8076 1855.5,100.5C 1903.5,101.5 1951.5,101.833 1999.5,101.5C 1999.5,102.5 1999.5,103.5 1999.5,104.5C 1951.59,104.83 1903.76,104.497 1856,103.5C 1855.52,104.448 1855.35,105.448 1855.5,106.5C 1852.8,106.62 1852.13,105.62 1853.5,103.5C 1850.71,102.403 1847.88,101.403 1845,100.5C 1840.06,101.136 1835.23,102.136 1830.5,103.5C 1830.2,106.336 1830.87,106.836 1832.5,105C 1834.81,104.503 1837.14,104.337 1839.5,104.5C 1839.5,105.833 1839.5,107.167 1839.5,108.5C 1836.15,108.665 1832.82,108.498 1829.5,108C 1828.24,105.54 1826.24,104.373 1823.5,104.5C 1823.5,104.167 1823.5,103.833 1823.5,103.5C 1826.58,103.168 1828.91,101.668 1830.5,99C 1834.04,98.7181 1837.54,98.2181 1841,97.5C 1842.33,98.1667 1843.67,98.8333 1845,99.5C 1851.61,97.6449 1858.28,96.3116 1865,95.5C 1879.09,96.4902 1893.25,96.8235 1907.5,96.5C 1907.13,93.6035 1907.63,90.9368 1909,88.5C 1911.05,91.2731 1910.88,93.7731 1908.5,96C 1913.09,96.1971 1917.59,96.6971 1922,97.5C 1924.07,96.8656 1926.24,96.5323 1928.5,96.5C 1930.95,96.5391 1932.95,97.2057 1934.5,98.5 Z"/></g>
<g><path style="opacity:1" fill="#3c61fc" d="M 1934.5,98.5 C 1956.17,98.5 1977.83,98.5 1999.5,98.5C 1999.5,99.5 1999.5,100.5 1999.5,101.5C 1951.5,101.833 1903.5,101.5 1855.5,100.5C 1856.03,99.8076 1856.69,99.3076 1857.5,99C 1883.16,98.5 1908.83,98.3334 1934.5,98.5 Z"/></g>
<g><path style="opacity:1" fill="#3e62f7" d="M 1999.5,104.5 C 1999.5,105.833 1999.5,107.167 1999.5,108.5C 1949.17,108.333 1898.83,108.5 1848.5,109C 1848,110.158 1847.17,110.991 1846,111.5C 1844.59,110.586 1843.09,109.92 1841.5,109.5C 1841.16,108.662 1840.49,108.328 1839.5,108.5C 1839.5,107.167 1839.5,105.833 1839.5,104.5C 1837.14,104.337 1834.81,104.503 1832.5,105C 1830.87,106.836 1830.2,106.336 1830.5,103.5C 1835.23,102.136 1840.06,101.136 1845,100.5C 1847.88,101.403 1850.71,102.403 1853.5,103.5C 1852.13,105.62 1852.8,106.62 1855.5,106.5C 1855.35,105.448 1855.52,104.448 1856,103.5C 1903.76,104.497 1951.59,104.83 1999.5,104.5 Z"/></g>
<g><path style="opacity:1" fill="#485fc7" d="M 1823.5,104.5 C 1826.24,104.373 1828.24,105.54 1829.5,108C 1832.82,108.498 1836.15,108.665 1839.5,108.5C 1840.49,108.328 1841.16,108.662 1841.5,109.5C 1835.64,110.243 1830.3,109.243 1825.5,106.5C 1824.83,105.833 1824.17,105.167 1823.5,104.5 Z"/></g>
<g><path style="opacity:1" fill="#4364d2" d="M 1999.5,108.5 C 1999.5,108.833 1999.5,109.167 1999.5,109.5C 1949.83,109.333 1900.17,109.5 1850.5,110C 1848.79,111.378 1847.45,113.045 1846.5,115C 1845.21,115.49 1843.87,115.657 1842.5,115.5C 1842.67,113.379 1842.34,111.379 1841.5,109.5C 1843.09,109.92 1844.59,110.586 1846,111.5C 1847.17,110.991 1848,110.158 1848.5,109C 1898.83,108.5 1949.17,108.333 1999.5,108.5 Z"/></g>
<g><path style="opacity:1" fill="#313b5f" d="M 1999.5,109.5 C 1999.5,110.167 1999.5,110.833 1999.5,111.5C 1950.17,111.333 1900.83,111.5 1851.5,112C 1850.67,113.992 1849.34,115.492 1847.5,116.5C 1845.59,116.784 1843.92,116.451 1842.5,115.5C 1843.87,115.657 1845.21,115.49 1846.5,115C 1847.45,113.045 1848.79,111.378 1850.5,110C 1900.17,109.5 1949.83,109.333 1999.5,109.5 Z"/></g>
<g><path style="opacity:1" fill="#3a415c" d="M 1822.5,106.5 C 1823.5,106.5 1824.5,106.5 1825.5,106.5C 1830.3,109.243 1835.64,110.243 1841.5,109.5C 1842.34,111.379 1842.67,113.379 1842.5,115.5C 1843.92,116.451 1845.59,116.784 1847.5,116.5C 1845.22,118.223 1842.55,118.889 1839.5,118.5C 1839.67,116.139 1840.01,113.806 1840.5,111.5C 1836.49,111.666 1832.49,111.499 1828.5,111C 1826.25,109.723 1824.25,108.223 1822.5,106.5 Z"/></g>
<g><path style="opacity:1" fill="#c0e1fd" d="M 1999.5,152.5 C 1999.5,163.167 1999.5,173.833 1999.5,184.5C 1971.83,184.5 1944.17,184.5 1916.5,184.5C 1916.5,185.5 1916.5,186.5 1916.5,187.5C 1944.17,187.5 1971.83,187.5 1999.5,187.5C 1999.5,193.833 1999.5,200.167 1999.5,206.5C 1971.83,206.5 1944.17,206.5 1916.5,206.5C 1916.26,207.791 1916.6,208.791 1917.5,209.5C 1944.83,209.5 1972.17,209.5 1999.5,209.5C 1999.5,216.167 1999.5,222.833 1999.5,229.5C 1888.83,230.167 1888.83,230.833 1999.5,231.5C 1999.5,238.167 1999.5,244.833 1999.5,251.5C 1888.83,252.167 1888.83,252.833 1999.5,253.5C 1999.5,260.167 1999.5,266.833 1999.5,273.5C 1971.83,273.5 1944.17,273.5 1916.5,273.5C 1916.5,274.5 1916.5,275.5 1916.5,276.5C 1944.17,276.5 1971.83,276.5 1999.5,276.5C 1999.5,282.833 1999.5,289.167 1999.5,295.5C 1971.83,295.5 1944.17,295.5 1916.5,295.5C 1916.5,296.5 1916.5,297.5 1916.5,298.5C 1944.17,298.5 1971.83,298.5 1999.5,298.5C 1999.5,304.833 1999.5,311.167 1999.5,317.5C 1971.83,317.5 1944.17,317.5 1916.5,317.5C 1916.26,318.791 1916.6,319.791 1917.5,320.5C 1944.83,320.5 1972.17,320.5 1999.5,320.5C 1999.5,327.167 1999.5,333.833 1999.5,340.5C 1888.83,341.167 1888.83,341.833 1999.5,342.5C 1999.5,349.167 1999.5,355.833 1999.5,362.5C 1888.83,363.167 1888.83,363.833 1999.5,364.5C 1999.5,371.167 1999.5,377.833 1999.5,384.5C 1971.83,384.5 1944.17,384.5 1916.5,384.5C 1916.5,385.5 1916.5,386.5 1916.5,387.5C 1944.17,387.5 1971.83,387.5 1999.5,387.5C 1999.5,393.833 1999.5,400.167 1999.5,406.5C 1971.83,406.5 1944.17,406.5 1916.5,406.5C 1916.26,407.791 1916.6,408.791 1917.5,409.5C 1944.83,409.5 1972.17,409.5 1999.5,409.5C 1999.5,425.5 1999.5,441.5 1999.5,457.5C 1971.83,457.5 1944.17,457.5 1916.5,457.5C 1916.51,462.331 1914.17,464.497 1909.5,464C 1910.42,461.959 1910.76,459.792 1910.5,457.5C 1905.82,457.666 1901.15,457.499 1896.5,457C 1895.58,456.722 1894.92,456.222 1894.5,455.5C 1895.41,454.262 1895.58,452.928 1895,451.5C 1893.17,449.844 1891.84,447.844 1891,445.5C 1890.5,349.834 1890.33,254.167 1890.5,158.5C 1891.96,156.537 1893.63,154.704 1895.5,153C 1930.17,152.5 1964.83,152.333 1999.5,152.5 Z"/></g>
<g><path style="opacity:1" fill="#424e5c" d="M 1999.5,149.5 C 1999.5,150.5 1999.5,151.5 1999.5,152.5C 1964.83,152.333 1930.17,152.5 1895.5,153C 1893.63,154.704 1891.96,156.537 1890.5,158.5C 1889.71,159.609 1889.21,160.942 1889,162.5C 1888.33,257.833 1888.33,353.167 1889,448.5C 1889.94,451.595 1891.77,453.929 1894.5,455.5C 1894.92,456.222 1895.58,456.722 1896.5,457C 1901.15,457.499 1905.82,457.666 1910.5,457.5C 1910.76,459.792 1910.42,461.959 1909.5,464C 1914.17,464.497 1916.51,462.331 1916.5,457.5C 1944.17,457.5 1971.83,457.5 1999.5,457.5C 1999.5,458.5 1999.5,459.5 1999.5,460.5C 1972.49,460.167 1945.49,460.5 1918.5,461.5C 1915.98,465.593 1912.31,467.26 1907.5,466.5C 1907.83,464.5 1908.17,462.5 1908.5,460.5C 1898.43,462.215 1891.26,458.548 1887,449.5C 1886.33,352.833 1886.33,256.167 1887,159.5C 1889.11,154.853 1892.61,151.686 1897.5,150C 1931.5,149.5 1965.5,149.333 1999.5,149.5 Z"/></g>
<g><path style="opacity:1" fill="#c8e0f5" d="M 1890.5,158.5 C 1890.33,254.167 1890.5,349.834 1891,445.5C 1891.84,447.844 1893.17,449.844 1895,451.5C 1895.58,452.928 1895.41,454.262 1894.5,455.5C 1891.77,453.929 1889.94,451.595 1889,448.5C 1888.33,353.167 1888.33,257.833 1889,162.5C 1889.21,160.942 1889.71,159.609 1890.5,158.5 Z"/></g>
<g><path style="opacity:1" fill="#fdfefe" d="M 1786.5,177.5 C 1803.17,177.333 1819.84,177.5 1836.5,178C 1838.67,179.5 1840.5,181.333 1842,183.5C 1843.13,193.263 1843.63,203.097 1843.5,213C 1843.17,221.833 1842.83,230.667 1842.5,239.5C 1841.6,243.239 1839.26,245.405 1835.5,246C 1817.82,246.833 1800.16,246.666 1782.5,245.5C 1780.82,243.46 1779.16,241.46 1777.5,239.5C 1776.33,221.509 1776.17,203.509 1777,185.5C 1779.77,182.219 1782.94,179.553 1786.5,177.5 Z"/></g>
<g><path style="opacity:1" fill="#536579" d="M 1999.5,184.5 C 1999.5,185.5 1999.5,186.5 1999.5,187.5C 1971.83,187.5 1944.17,187.5 1916.5,187.5C 1916.5,186.5 1916.5,185.5 1916.5,184.5C 1944.17,184.5 1971.83,184.5 1999.5,184.5 Z"/></g>
<g><path style="opacity:1" fill="#6f8aa5" d="M 1999.5,206.5 C 1999.5,206.833 1999.5,207.167 1999.5,207.5C 1971.81,206.842 1944.48,207.509 1917.5,209.5C 1916.6,208.791 1916.26,207.791 1916.5,206.5C 1944.17,206.5 1971.83,206.5 1999.5,206.5 Z"/></g>
<g><path style="opacity:1" fill="#707273" d="M 1801.5,198.5 C 1800.86,207.895 1801.53,216.895 1803.5,225.5C 1802.79,226.404 1801.79,226.737 1800.5,226.5C 1800.17,216.985 1800.51,207.652 1801.5,198.5 Z"/></g>
<g><path style="opacity:1" fill="#475a6c" d="M 1999.5,207.5 C 1999.5,208.167 1999.5,208.833 1999.5,209.5C 1972.17,209.5 1944.83,209.5 1917.5,209.5C 1944.48,207.509 1971.81,206.842 1999.5,207.5 Z"/></g>
<g><path style="opacity:1" fill="#454649" d="M 1801.5,198.5 C 1809.68,202.353 1817.35,207.02 1824.5,212.5C 1817.87,217.383 1810.87,221.716 1803.5,225.5C 1801.53,216.895 1800.86,207.895 1801.5,198.5 Z"/></g>
<g><path style="opacity:1" fill="#939496" d="M 1804.5,202.5 C 1803.51,208.979 1803.18,215.646 1803.5,222.5C 1802.18,215.656 1802.18,208.656 1803.5,201.5C 1804.11,201.624 1804.44,201.957 1804.5,202.5 Z"/></g>
<g><path style="opacity:1" fill="#f8f9f9" d="M 1804.5,202.5 C 1810.18,205.336 1815.51,208.669 1820.5,212.5C 1815.27,216.613 1809.61,219.946 1803.5,222.5C 1803.18,215.646 1803.51,208.979 1804.5,202.5 Z"/></g>
<g><path style="opacity:1" fill="#333c47" d="M 1999.5,229.5 C 1999.5,230.167 1999.5,230.833 1999.5,231.5C 1888.83,230.833 1888.83,230.167 1999.5,229.5 Z"/></g>
<g><path style="opacity:1" fill="#333d49" d="M 1999.5,251.5 C 1999.5,252.167 1999.5,252.833 1999.5,253.5C 1888.83,252.833 1888.83,252.167 1999.5,251.5 Z"/></g>
<g><path style="opacity:1" fill="#5e6b7b" d="M 1999.5,273.5 C 1999.5,274.5 1999.5,275.5 1999.5,276.5C 1971.83,276.5 1944.17,276.5 1916.5,276.5C 1916.5,275.5 1916.5,274.5 1916.5,273.5C 1944.17,273.5 1971.83,273.5 1999.5,273.5 Z"/></g>
<g><path style="opacity:1" fill="#546477" d="M 1999.5,295.5 C 1999.5,296.5 1999.5,297.5 1999.5,298.5C 1971.83,298.5 1944.17,298.5 1916.5,298.5C 1916.5,297.5 1916.5,296.5 1916.5,295.5C 1944.17,295.5 1971.83,295.5 1999.5,295.5 Z"/></g>
<g><path style="opacity:1" fill="#72889b" d="M 1999.5,317.5 C 1999.5,317.833 1999.5,318.167 1999.5,318.5C 1971.81,317.842 1944.48,318.509 1917.5,320.5C 1916.6,319.791 1916.26,318.791 1916.5,317.5C 1944.17,317.5 1971.83,317.5 1999.5,317.5 Z"/></g>
<g><path style="opacity:1" fill="#455a6f" d="M 1999.5,318.5 C 1999.5,319.167 1999.5,319.833 1999.5,320.5C 1972.17,320.5 1944.83,320.5 1917.5,320.5C 1944.48,318.509 1971.81,317.842 1999.5,318.5 Z"/></g>
<g><path style="opacity:1" fill="#283f55" d="M 1999.5,340.5 C 1999.5,341.167 1999.5,341.833 1999.5,342.5C 1888.83,341.833 1888.83,341.167 1999.5,340.5 Z"/></g>
<g><path style="opacity:1" fill="#2c3d4e" d="M 1999.5,362.5 C 1999.5,363.167 1999.5,363.833 1999.5,364.5C 1888.83,363.833 1888.83,363.167 1999.5,362.5 Z"/></g>
<g><path style="opacity:1" fill="#52667a" d="M 1999.5,384.5 C 1999.5,385.5 1999.5,386.5 1999.5,387.5C 1971.83,387.5 1944.17,387.5 1916.5,387.5C 1916.5,386.5 1916.5,385.5 1916.5,384.5C 1944.17,384.5 1971.83,384.5 1999.5,384.5 Z"/></g>
<g><path style="opacity:1" fill="#768898" d="M 1999.5,406.5 C 1999.5,406.833 1999.5,407.167 1999.5,407.5C 1971.81,406.842 1944.48,407.509 1917.5,409.5C 1916.6,408.791 1916.26,407.791 1916.5,406.5C 1944.17,406.5 1971.83,406.5 1999.5,406.5 Z"/></g>
<g><path style="opacity:1" fill="#485a6a" d="M 1999.5,407.5 C 1999.5,408.167 1999.5,408.833 1999.5,409.5C 1972.17,409.5 1944.83,409.5 1917.5,409.5C 1944.48,407.509 1971.81,406.842 1999.5,407.5 Z"/></g>
<g><path style="opacity:1" fill="#76899d" d="M 1977.5,431.5 C 1967.86,430.168 1957.86,429.501 1947.5,429.5C 1937.14,429.501 1927.14,430.168 1917.5,431.5C 1916.6,430.791 1916.26,429.791 1916.5,428.5C 1937.17,428.5 1957.83,428.5 1978.5,428.5C 1978.74,429.791 1978.4,430.791 1977.5,431.5 Z"/></g>
<g><path style="opacity:1" fill="#495969" d="M 1977.5,431.5 C 1957.5,431.5 1937.5,431.5 1917.5,431.5C 1927.14,430.168 1937.14,429.501 1947.5,429.5C 1957.86,429.501 1967.86,430.168 1977.5,431.5 Z"/></g>
</svg>
