<?xml version="1.0" standalone="no"?>
<svg xmlns="http://www.w3.org/2000/svg" viewBox="0 0 1920 1080" width="1920" height="1080" preserveAspectRatio="xMidYMid meet" style="width: 100%; height: 100%;"><defs><mask id="ly_F1PAdZplpE" mask-type="alpha"><g class="mask" transform="matrix(1,0,0,1,0,0)" opacity="1"><rect width="1920" height="1080" fill="#2d2d2d"></rect></g></mask><linearGradient id="gr_bqBI9Wz8nT" spreadMethod="pad" gradientUnits="userSpaceOnUse" x1="113" y1="0" x2="1706" y2="100"><stop offset="0%" stop-color="rgb(159,237,159)"></stop><stop offset="51%" stop-color="rgb(133,218,133)"></stop><stop offset="100%" stop-color="rgb(106,198,106)"></stop></linearGradient></defs><g><g mask="url(#ly_F1PAdZplpE)"><g class="charMC" transform="matrix(1,0,0,1,0,0)" opacity="1"><g class="f43prop1" transform="matrix(1,0,0,1,-0.25,-0.25)" opacity="1" style="user-select: none;"><path fill="url(#gr_bqBI9Wz8nT)" fill-opacity="1" d="M0 0 M1907.662,-154.704 C1907.662,-154.704 2007.411,1073.169 2007.411,1073.169 C2007.411,1073.169 12.838,1235.204 12.838,1235.204 C12.838,1235.204 -86.912,7.331 -86.912,7.331 C-86.912,7.331 1907.662,-154.704 1907.662,-154.704z"></path></g><g class="f42prop3_0zf008_0zf002_-0zf068" transform="matrix(1,0,0,1,0,-112.14)" opacity="0.21" style="user-select: none;"><path fill="rgb(49,128,96)" fill-opacity="1" d="M0 0 M83.888,978.265 C83.888,978.265 80.628,27.191 80.628,27.191 C80.628,27.191 38.28,-0.001 38.28,-0.001 C38.28,-0.001 0,997.682 0,997.682 C0,997.682 103.685,1039.774 103.685,1039.774 C103.685,1039.774 83.888,978.265 83.888,978.265z"></path></g><g class="f41prop3_0zf008_0zf002_-0zf068" transform="matrix(1,0,0,1,1605.99,125.845)" opacity="0.24" style="user-select: none;"><path fill="rgb(49,128,96)" fill-opacity="1" d="M0 0 M83.89,700.427 C83.89,700.427 65.911,0 65.911,0 C65.911,0 26.791,21.628 26.791,21.628 C26.791,21.628 0.002,719.845 0.002,719.845 C0.002,719.845 103.687,761.938 103.687,761.938 C103.687,761.938 83.89,700.427 83.89,700.427z"></path></g><g class="f40prop3_0zf008_0zf002_-0zf068" transform="matrix(1,0,0,1,1079.81,-39.321)" opacity="0.52" style="user-select: none;"><path fill="rgb(49,128,96)" fill-opacity="1" d="M0 0 M79.805,903.851 C79.805,903.851 67.833,580.622 67.833,580.622 C67.833,580.622 19.948,492.83 15.956,405.039 C15.956,405.039 -0.006,15.967 -0.006,15.967 C-0.006,15.967 25.9,419.006 25.9,419.006 C25.9,419.006 51.871,518.768 69.828,540.716 C69.828,540.716 79.805,15.967 79.805,15.967 C79.805,15.967 105.742,0.004 105.742,0.004 C105.742,0.004 105.742,317.248 105.742,317.248 C105.742,317.248 141.658,258.353 141.658,258.353 C141.658,258.353 141.658,7.985 141.658,7.985 C141.658,7.985 159.615,0.004 159.615,0.004 C159.615,0.004 159.615,279.339 159.615,279.339 C159.615,279.339 111.729,345.182 111.729,345.182 C111.729,345.182 149.638,903.851 149.638,903.851 C149.638,903.851 79.805,903.851 79.805,903.851z"></path></g><g class="f39prop3_0zf008_0zf002_-0zf068" transform="matrix(1,0,0,1,988.421,-113.08)" opacity="0.21" style="user-select: none;"><path fill="rgb(49,128,96)" fill-opacity="1" d="M0 0 M38.855,979.326 C38.855,979.326 -0.001,29.041 -0.001,29.041 C-0.001,29.041 41.102,0.001 41.102,0.001 C41.102,0.001 123.52,995.011 123.52,995.011 C123.52,995.011 21.8,1041.652 21.8,1041.652 C21.8,1041.652 38.855,979.326 38.855,979.326z"></path></g><g class="f38prop3_0zf008_0zf002_-0zf068" transform="matrix(1,0,0,1,750.793,-141.95)" opacity="0.34" style="user-select: none;"><path fill="rgb(49,128,96)" fill-opacity="1" d="M0 0 M153.742,1040.661 C153.742,1040.661 153.742,30.817 153.742,30.817 C153.742,30.817 81.741,0.003 81.741,0.003 C81.741,0.003 81.741,403.155 81.741,403.155 C81.741,403.155 18.5,360.293 18.5,360.293 C18.5,360.293 18.5,198.893 18.5,198.893 C18.5,198.893 7.248,201.199 7.248,201.199 C7.248,201.199 3.484,187.538 3.484,187.538 C3.484,187.538 0,368.274 0,368.274 C0,368.274 68.871,441.863 68.871,441.863 C68.871,441.863 38.017,1040.661 38.017,1040.661 C38.017,1040.661 153.742,1040.661 153.742,1040.661z"></path></g><g class="f37prop3_0zf008_0zf002_-0zf068" transform="matrix(1,0,0,1,615.992,-129.72)" opacity="0.21" style="user-select: none;"><path fill="rgb(49,128,96)" fill-opacity="1" d="M0 0 M38.855,979.325 C38.855,979.325 0.001,29.04 0.001,29.04 C0.001,29.04 41.103,-0.001 41.103,-0.001 C41.103,-0.001 123.521,995.009 123.521,995.009 C123.521,995.009 21.801,1041.649 21.801,1041.649 C21.801,1041.649 38.855,979.325 38.855,979.325z"></path></g><g class="f36prop3_0zf008_0zf002_-0zf068" transform="matrix(1,0,0,1,432.441,9.41)" opacity="0.5" style="user-select: none;"><path fill="rgb(49,128,96)" fill-opacity="1" d="M0 0 M24.785,824.075 C24.785,824.075 95.571,0.003 95.571,0.003 C95.571,0.003 143.59,12.865 143.59,12.865 C143.59,12.865 106.794,850.319 106.794,850.319 C106.794,850.319 0,883.749 0,883.749 C0,883.749 24.785,824.075 24.785,824.075z"></path></g><g class="f35prop3_0zf008_0zf002_-0zf068" transform="matrix(1,0,0,1,113.882,91.597)" opacity="0.21" style="user-select: none;"><path fill="rgb(49,128,96)" fill-opacity="1" d="M0 0 M24.785,741.888 C24.785,741.888 87.044,40.526 87.044,40.526 C87.044,40.526 105.737,39.152 105.737,39.152 C105.737,39.152 101.786,16.575 101.786,16.575 C101.786,16.575 112.992,31.636 111.989,0 C126.616,12.26 139.505,23.645 139.505,23.645 C139.505,23.645 106.794,768.132 106.794,768.132 C106.794,768.132 0.001,801.562 0.001,801.562 C0.001,801.562 24.785,741.888 24.785,741.888z"></path></g><g class="f34prop3_0zf008_0zf002_-0zf068" transform="matrix(1,0,0,1,300.168,19.721)" opacity="0.74" style="user-select: none;"><path fill="rgb(49,128,96)" fill-opacity="1" d="M0 0 M0,913.217 C0,913.217 0,57.625 0,57.625 C0,57.625 25.551,96.635 25.551,96.635 C25.551,96.635 53.726,47.558 52.063,0.005 C56.6,12.087000000000002 66.463,34.112 66.463,34.112 C66.463,34.112 72.001,275.711 72.001,275.711 C72.001,275.711 135.242,232.849 135.242,232.849 C135.242,232.849 135.242,47.319 135.242,47.319 C135.242,47.319 150.202,57.202 150.202,57.202 C150.202,57.202 153.742,240.83 153.742,240.83 C153.742,240.83 84.871,314.419 84.871,314.419 C84.871,314.419 115.724,913.217 115.724,913.217 C115.724,913.217 0,913.217 0,913.217z"></path></g><g class="f33prop3_0zf018_0zf051_-0zf194" transform="matrix(1,0,0,1,384.788,70.809)" opacity="1" style="user-select: none;"><path fill="rgb(73,168,124)" fill-opacity="1" d="M0 0 M12.62,862.127 C12.62,862.127 0.25,263.329 0.25,263.329 C0.25,263.329 63.027,186.415 63.027,186.415 C63.027,186.415 56.707,0.25 56.707,0.25 C56.707,0.25 65.581,6.112 65.581,6.112 C65.581,6.112 69.121,189.74 69.121,189.74 C69.121,189.74 0.25,263.329 0.25,263.329 C0.25,263.329 31.103,862.127 31.103,862.127 C31.103,862.127 12.62,862.127 12.62,862.127z"></path></g><g class="f32prop3_0zf008_0zf002_-0zf068" transform="matrix(1,0,0,1,1327.486,-0.25)" opacity="1" style="user-select: none;"><path fill="rgb(49,128,96)" fill-opacity="1" d="M0 0 M0.25,0.25 C0.25,0.25 67.599,801.781 67.599,801.781 C67.599,801.781 53.237,864.781 53.237,864.781 C53.237,864.781 152.86,813.815 152.86,813.815 C152.86,813.815 50.13,0.25 50.13,0.25 C50.13,0.25 0.25,0.25 0.25,0.25z"></path></g><g class="f31prop3_0zf015_0zf041_-0zf182" transform="matrix(1,0,0,1,1327.486,-0.25)" opacity="1" style="user-select: none;"><path fill="rgb(70,164,123)" fill-opacity="1" d="M0 0 M0.25,0.25 C0.25,0.25 67.599,801.781 67.599,801.781 C67.599,801.781 65.387,811.481 65.387,811.481 C65.387,811.481 82.558,841.253 82.558,841.253 C82.558,841.253 1.974,0.25 1.974,0.25 C1.974,0.25 0.25,0.25 0.25,0.25z"></path></g><g class="f30prop3_0zf008_0zf002_-0zf068" transform="matrix(1,0,0,1,876.31,-282.59)" opacity="0.5700000000000001" style="user-select: none;"><path fill="rgb(49,128,96)" fill-opacity="1" d="M0 0 M795.591,408.435 C795.591,408.435 751.468,434.137 735.75,439.747 C735.75,439.747 712.393,385.562 740.027,353.98 C740.027,353.98 689.957,376.762 665.26,370.584 C665.26,370.584 667.62,347.795 667.62,347.795 C667.62,347.795 656.9540000000001,361.827 656.061,329.158 C656.061,329.158 634.167,349.923 626.419,358.005 C626.419,358.005 581.968,329.70799999999997 582.646,304.113 C582.646,304.113 558.389,357.209 550.979,362.036 C550.979,362.036 514.839,304.328 517.091,257.178 C517.091,257.178 502.376,319.818 474.532,337.664 C474.532,337.664 451.63500000000005,310.942 463.314,287.144 C463.314,287.144 425.139,325.308 399.204,337.428 C399.204,337.428 377.095,299.93 390.348,254.578 C390.348,254.578 374.404,278.26300000000003 363.401,286.007 C363.401,286.007 354.871,266.697 364.979,245.369 C364.979,245.369 269.661,288.8 240.475,281.499 C240.475,281.499 226.895,253.76800000000003 238.685,235.247 C238.685,235.247 220.15800000000002,261.625 211.514,265.666 C211.514,265.666 189.84799999999998,258.815 186.481,253.201 C186.481,253.201 195.116,315.95599999999996 182.204,329.426 C182.204,329.426 140.89499999999998,305.73299999999995 135.511,271.941 C135.511,271.941 89.70400000000001,304.378 88.578,327.953 C88.578,327.953 58.827999999999996,332.439 60.181,290.79 C60.181,290.79 35.032,301.676 35.032,301.676 C35.032,301.676 29.085,289.214 37.506,274.622 C37.506,274.622 13.943000000000001,285.104 5.972,282.633 C5.972,282.633 -11.032,227.921 12.346,204.289 C12.346,204.289 600.987,-0.002 600.987,-0.002 C600.987,-0.002 846.948,33.376 846.948,33.376 C846.948,33.376 880.244,350.408 880.244,350.408 C880.244,350.408 795.591,408.435 795.591,408.435z"></path></g><g class="f29prop3_0zf008_0zf002_-0zf068" transform="matrix(1,0,0,1,17.987,-218.479)" opacity="0.5700000000000001" style="user-select: none;"><path fill="rgb(49,128,96)" fill-opacity="1" d="M0 0 M82.211,391.853 C82.211,391.853 124.80499999999999,413.34299999999996 139.778,417.693 C139.778,417.693 158.516,365.846 130.969,337.945 C130.969,337.945 178.947,356.378 201.632,349.228 C201.632,349.228 198.15,328.108 198.15,328.108 C198.15,328.108 208.88699999999997,340.594 207.884,310.077 C207.884,310.077 229.47,328.21200000000005 237.149,335.314 C237.149,335.314 277.016,306.427 274.946,282.594 C274.946,282.594 300.551,330.749 307.733,334.834 C307.733,334.834 338.195,278.98400000000004 333.445,235.139 C333.445,235.139 350.68899999999996,292.73 377.659,307.808 C377.659,307.808 397.512,281.601 385.283,260.062 C385.283,260.062 423.03000000000003,293.509 447.898,303.355 C447.898,303.355 466.411,267.141 451.502,225.59 C451.502,225.59 467.703,246.783 478.4,253.387 C478.4,253.387 485.269,234.9 474.645,215.577 C474.645,215.577 565.98,250.726 592.79,242.276 C592.79,242.276 603.8960000000001,215.65099999999998 591.859,199.04 C591.859,199.04 610.62,222.599 618.91,225.881 C618.91,225.881 638.731,218.274 641.555,212.85 C641.555,212.85 637.028,271.862 649.827,283.699 C649.827,283.699 687.022,259.281 690.144,227.464 C690.144,227.464 734.688,255.141 737.063,277.063 C737.063,277.063 765.06,279.576 761.457,240.809 C761.457,240.809 785.523,249.548 785.523,249.548 C785.523,249.548 790.369,237.593 781.695,224.457 C781.695,224.457 804.261,232.90800000000002 811.555,230.156 C811.555,230.156 824.3389999999999,178.174 801.208,157.449 C801.208,157.449 240.749,0.001 240.749,0.001 C240.749,0.001 13.237,44.953 13.237,44.953 C13.237,44.953 -89.999,326.493 -89.999,326.493 C-89.999,326.493 82.211,391.853 82.211,391.853z"></path></g><g class="f28prop3_0zf008_0zf002_-0zf068" transform="matrix(1,0,0,1,576.397,-96.533)" opacity="0.5" style="user-select: none;"><path fill="rgb(49,128,96)" fill-opacity="1" d="M0 0 M219.662,353.766 C201.863,353.766 183.454,350.325 165.032,343.464 C134.68900000000002,332.164 105.701,311.90799999999996 83.408,286.429 C39.292,236.00599999999997 20.328,179.74 0.25,120.169 C0.25,120.169 4.989,118.572 4.989,118.572 C24.902,177.657 43.711999999999996,233.464 87.172,283.137 C108.928,308.002 137.19899999999998,327.763 166.777,338.779 C199.05899999999997,350.803 231.24600000000004,351.99 259.857,342.217 C303.01200000000006,327.476 334.092,290.653 361.25,253.056 C417.664,174.95800000000003 464.15299999999996,89.902 499.429,0.25 C499.429,0.25 504.081,2.081 504.081,2.081 C468.653,92.12100000000001 421.962,177.547 365.303,255.983 C337.661,294.25 305.951,331.75600000000003 261.475,346.949 C248.15900000000002,351.497 234.11100000000002,353.766 219.662,353.766z"></path></g><g class="f27prop3_0zf008_0zf002_-0zf068" transform="matrix(1,0,0,1,1360.835,-265.758)" opacity="0.5" style="user-select: none;"><path fill="rgb(49,128,96)" fill-opacity="1" d="M0 0 M162.26,666.502 C142.031,666.502 123.744,653.506 109.252,628.774 C94.24199999999999,603.156 83.903,567.127 73.768,529.352 C52.001000000000005,448.22799999999995 31.631999999999998,363.89300000000003 13.225,278.692 C0.25,218.643 9.853,195.91500000000002 14.583,188.931 C14.583,188.931 18.724,191.734 18.724,191.734 C13.629000000000001,199.256 11.309,212.11499999999998 11.827,229.956 C12.23,243.808 14.460999999999999,260.741 18.112,277.637 C36.501999999999995,362.757 56.852000000000004,447.011 78.598,528.056 C88.64,565.488 98.86999999999999,601.165 113.567,626.246 C127.107,649.3539999999999 143.91899999999998,661.5 162.291,661.501 C162.954,661.501 163.61599999999999,661.4849999999999 164.284,661.454 C191.53199999999998,660.161 220.114,632.905 240.739,588.544 C277.406,509.679 292.284,393.23900000000003 301.151,300.608 C310.584,202.043 316.243,100.988 317.971,0.25 C317.971,0.25 322.971,0.336 322.971,0.336 C321.24,101.204 315.57300000000004,202.39 306.127,301.085 C297.224,394.113 282.26,511.09700000000004 245.272,590.652 C223.849,636.73 193.661,665.0649999999999 164.521,666.448 C163.766,666.4839999999999 163.011,666.502 162.26,666.502z"></path></g><g class="f26prop3_0zf000_0zf000_0zf000" transform="matrix(1,0,0,1,-43.733,586.899)" opacity="1" style="user-select: none;"><path fill="rgb(40,103,81)" fill-opacity="1" d="M0 0 M23.851,246.541 C5.474,219.347 0.25,117.778 23.299,96.126 C46.349000000000004,74.474 84,79.648 102.237,106.975 C78.866,90.026 82.786,43.44 105.391,25.096 C127.99700000000001,6.751999999999999 159.909,12.809999999999999 182.646,30.923 C205.384,49.037 221.01,76.895 236.033,104.017 C230.76899999999998,82.773 244.06400000000002,57.871 262.543,54.36 C281.023,50.849 300.24399999999997,69.572 300.871,91.696 C284.418,57.507999999999996 306.698,7.196 339.829,3.723 C372.96000000000004,0.25 394.724,24.069 397.628,54.942 C397.20599999999996,50.456 428.705,50.607 431.812,50.961 C467.28200000000004,54.989 488.49600000000004,77.97399999999999 483.374,113.957 C493.911,91.02199999999999 518.369,78.438 539.74,84.958 C561.11,91.477 573.238,98.209 579.86,113.537 C603.803,105.046 616.2560000000001,99.482 641.248,105.81 C665.129,111.855 684.296,137.7 686.715,166.343 C686.758,166.84599999999998 687.4639999999999,166.87900000000002 687.55,166.382 C695.8919999999999,118.345 739.1899999999999,82.211 780.313,89.954 C822.5649999999999,97.91099999999999 854.837,150.73899999999998 847.953,200.682 C849.255,155.58599999999998 908.394,143.38400000000001 935.941,174.602 C963.4870000000001,205.81900000000002 966.749,255.711 968.268,300.798 C968.268,300.798 23.851,246.541 23.851,246.541z"></path></g><g class="f25prop3_0zf000_0zf000_0zf000" transform="matrix(1,0,0,1,644.729,677.979)" opacity="1" style="user-select: none;"><path fill="rgb(40,103,81)" fill-opacity="1" d="M0 0 M11.522,34.906 C11.522,34.906 11.522,34.906 11.522,34.906 C11.522,34.906 0.25,0.24999999999999997 7.249,0.48 C7.249,0.48 11.314,0.5 12.87,14.254 C12.87,14.254 13.392,34.29 13.392,34.29 C13.392,34.29 15.12,20.219 15.12,20.219 C15.12,20.219 15.503000000000002,9.275 18.571,9.606 C18.571,9.606 21.64,7.777999999999999 19.404,17.432 C19.404,17.432 13.392,34.29 13.392,34.29 C13.392,34.29 11.522,34.906 11.522,34.906z"></path></g><g class="f24prop3_0zf000_0zf000_0zf000" transform="matrix(1,0,0,1,213.416,604.735)" opacity="1" style="user-select: none;"><path fill="rgb(40,103,81)" fill-opacity="1" d="M0 0 M11.522,34.906 C11.522,34.906 11.522,34.906 11.522,34.906 C11.522,34.906 0.25,0.24999999999999997 7.248,0.48 C7.248,0.48 11.312999999999999,0.5 12.869,14.254 C12.869,14.254 13.391,34.29 13.391,34.29 C13.391,34.29 15.119,20.219 15.119,20.219 C15.119,20.219 15.503,9.275 18.57,9.606 C18.57,9.606 21.64,7.777999999999999 19.403,17.432 C19.403,17.432 13.391,34.29 13.391,34.29 C13.391,34.29 11.522,34.906 11.522,34.906z"></path></g><g class="shadow2" transform="matrix(1,0,0,1,-26.067,671.208)" opacity="0.07" style="user-select: none;"><path fill="rgb(0,0,0)" fill-opacity="1" d="M0 0 M14.841,222.199 C-3.5359999999999996,195.00500000000002 -6.805,114.392 16.243,92.74 C39.293,71.088 76.945,76.262 95.181,103.589 C71.81,86.64 75.72999999999999,40.054 98.336,21.71 C120.941,3.3659999999999997 152.853,9.424 175.591,27.538 C198.328,45.652 213.954,73.509 228.977,100.631 C223.714,79.387 237.00799999999998,54.486 255.487,50.974 C273.967,47.462999999999994 293.188,66.186 293.815,88.31 C277.362,54.122 299.643,3.81 332.775,0.337 C365.905,-3.1359999999999997 387.668,20.682999999999996 390.573,51.556 C390.15099999999995,47.07 421.649,47.222 424.757,47.575 C460.226,51.603 481.44,74.588 476.318,110.572 C486.856,87.637 511.31499999999994,75.053 532.685,81.572 C554.055,88.09100000000001 566.182,94.823 572.804,110.151 C596.747,101.66 609.1999999999999,96.096 634.193,102.424 C658.073,108.47000000000001 677.24,134.314 679.659,162.957 C679.702,163.45999999999998 680.408,163.49300000000002 680.495,162.996 C688.837,114.959 732.134,78.825 773.258,86.568 C815.51,94.52499999999999 847.7810000000001,147.353 840.898,197.296 C842.198,152.2 901.338,139.99800000000002 928.885,171.216 C956.432,202.433 959.693,252.325 961.212,297.412 C961.212,297.412 14.841,222.199 14.841,222.199z"></path></g><g class="f23prop3_0_0_0" transform="matrix(1,0,0,1,1129.118,654.749)" opacity="1" style="user-select: none;"><path fill="rgb(40,103,81)" fill-opacity="1" d="M0 0 M866.619,249.451 C886.758,227.201 900.1,154.64999999999998 882.025,132.081 C863.9499999999999,109.51199999999999 829.1990000000001,109.346 809.171,131.733 C832.5110000000001,119.40100000000001 834.9630000000001,76.725 816.863,57.208 C798.763,37.691 769.096,39.062999999999995 746.18,52.532 C723.2629999999999,66.00099999999999 705.5300000000001,89.204 688.436,111.82 C695.937,93.268 687.111,69.01400000000001 670.835,63.456 C654.558,57.896 634.748,72.37 631.331,92.316 C650.628,63.487 636.9399999999999,15.074 607.396,7.662 C577.852,0.25 545.442,37.098 550.725,72.095 C545.754,47.837 523.771,31.01 502.428,35.124 C481.085,39.239000000000004 463.25600000000003,63.743 463.257,88.959 C456.672,66.84 436.153,52.299 415.968,55.447 C395.783,58.595000000000006 377.842,79.135 374.621,102.783 C367.93199999999996,76.76400000000001 344.83299999999997,58.738 321.393,61.247 C297.955,63.755 276.395,86.559 271.715,113.795 C272.207,67.686 236.82299999999998,27.222 197.551,28.981 C158.278,30.741000000000003 122.26,74.406 122.057,120.502 C126.68900000000001,79.512 74.726,60.84700000000001 45.768,85.558 C16.811,110.269 7.432,155.013 0.25,195.631 C0.25,195.631 866.619,249.451 866.619,249.451z"></path></g><g class="f22prop3_0zf000_0zf000_0zf000" transform="matrix(1,0,0,1,1241.496,691.714)" opacity="1" style="user-select: none;"><path fill="rgb(40,103,81)" fill-opacity="1" d="M0 0 M18.222,36.693 C18.222,36.693 18.222,36.693 18.222,36.693 C18.222,36.693 18.288,0.25 11.7,2.623 C11.7,2.623 7.837,3.891 10.587,17.457 C10.587,17.457 16.254,36.682 16.254,36.682 C16.254,36.682 10.283,23.826 10.283,23.826 C10.283,23.826 6.55,13.53 3.734,14.789 C3.734,14.789 0.25,13.993 5.348,22.491 C5.348,22.491 16.254,36.682 16.254,36.682 C16.254,36.682 18.222,36.693 18.222,36.693z"></path></g><g class="shadow1" transform="matrix(1,0,0,1,1129.37,744.62)" opacity="0.07" style="user-select: none;"><path fill="rgb(0,0,0)" fill-opacity="1" d="M0 0 M866.368,242.748 C886.5070000000001,220.498 899.8480000000001,147.947 881.773,125.378 C863.698,102.809 828.947,102.643 808.919,125.03 C832.259,112.69800000000001 834.711,70.023 816.611,50.506 C798.511,30.988 768.844,32.36 745.928,45.829 C723.011,59.298 705.278,82.502 688.184,105.118 C695.685,86.566 686.8589999999999,62.311 670.583,56.753 C654.3059999999999,51.193 634.496,65.667 631.079,85.613 C650.376,56.784 636.689,8.371 607.145,0.959 C577.601,-6.452 545.191,30.394999999999996 550.474,65.392 C545.503,41.134 523.52,24.307000000000002 502.177,28.422 C480.834,32.537 463.004,57.04 463.005,82.256 C456.42,60.138000000000005 435.902,45.596 415.717,48.744 C395.532,51.893 377.591,72.43299999999999 374.37,96.08 C367.681,70.061 344.581,52.035 321.141,54.544 C297.70300000000003,57.052 276.144,79.85600000000001 271.464,107.093 C271.956,60.983000000000004 236.572,20.519 197.3,22.278 C158.02700000000002,24.038 122.009,67.703 121.806,113.799 C126.438,72.809 74.47399999999999,54.144999999999996 45.516,78.856 C16.558999999999997,103.566 7.181,148.31 -0.001,188.928 C-0.001,188.928 866.368,242.748 866.368,242.748z"></path></g><g class="highlight1" transform="matrix(1,0,0,1,204.969,-265.47)" opacity="0.07" style="user-select: none;"><path fill="rgb(255,255,255)" fill-opacity="1" d="M0 0 M0,88.483 C0,88.483 959.481,1397.545 959.481,1397.545 C959.481,1397.545 1674.107,1428.897 1674.107,1428.897 C1674.107,1428.897 541.943,0.005 541.943,0.005 C541.943,0.005 0,88.483 0,88.483z"></path></g><g class="highlight2" transform="matrix(1,0,0,1,149.049,-97.23)" opacity="0.07" style="user-select: none;"><path fill="rgb(255,255,255)" fill-opacity="1" d="M0 0 M212.552,307.254 C212.552,307.254 929.102,1343.06 929.102,1343.06 C929.102,1343.06 995.082,1315.123 995.082,1315.123 C995.082,1315.123 37.018,0 37.018,0 C37.018,0 0,0 0,0 C0,0 212.552,307.254 212.552,307.254z"></path></g><g class="f21prop2_0_0_0" transform="matrix(1,0,0,1,-146.497,718.526)" opacity="1" style="user-select: none;"><path fill="rgb(149,163,46)" fill-opacity="1" d="M0 0 M0.25,107.524 C0.25,107.524 1508.656,0.25 2426.469,213.352 C2426.469,213.352 2350.65,448.452 2350.65,448.452 C2350.65,448.452 0.25,505.325 0.25,505.325 C0.25,505.325 0.25,107.524 0.25,107.524z"></path></g><g class="shadow6" transform="matrix(1,0,0,1,1562.46,922.224)" opacity="0.17" style="user-select: none;"><path fill="rgb(0,0,0)" fill-opacity="1" d="M0 0 M0.005,8.291 C0.005,12.869 9.454,16.581 21.111,16.581 C32.769,16.581 42.219,12.869 42.219,8.291 C42.219,3.7120000000000006 32.769,0 21.111,0 C15.696000000000002,0 10.757,0.8019999999999998 7.021,2.118 C2.7139999999999995,3.636 0.005,5.839 0.005,8.291z"></path></g><g class="shadow7" transform="matrix(1,0,0,1,1624.84,933.957)" opacity="0.17" style="user-select: none;"><path fill="rgb(0,0,0)" fill-opacity="1" d="M0 0 M0.001,4.847 C0.001,7.524000000000001 5.5249999999999995,9.694 12.34,9.694 C19.155,9.694 24.68,7.524000000000001 24.68,4.847 C24.68,2.1700000000000004 19.155,0 12.34,0 C9.872,0 7.5729999999999995,0.28500000000000003 5.645,0.776 C2.2479999999999998,1.639 0.001,3.1400000000000006 0.001,4.847z"></path></g><g class="shadow3" transform="matrix(1,0,0,1,-97.032,841)" opacity="0.1" style="user-select: none;"><path fill="rgb(0,0,0)" fill-opacity="1" d="M0 0 M0,0.003 C7.321,-0.23199999999999998 341.869,13.528 341.869,13.528 C341.869,13.528 192.774,57.046 192.774,57.046 C192.774,57.046 684.924,116.822 684.924,116.822 C684.924,116.822 349.766,145.101 349.766,145.101 C349.766,145.101 1079.448,225.286 1079.448,225.286 C1079.448,225.286 630.881,225.286 630.881,225.286 C630.881,225.286 1152.653,304.132 1152.653,304.132 C1152.653,304.132 89.002,304.132 89.002,304.132 C89.002,304.132 0,0.003 0,0.003z"></path></g><g class="shadow4" transform="matrix(1,0,0,1,218.567,992.262)" opacity="0.17" style="user-select: none;"><path fill="rgb(0,0,0)" fill-opacity="1" d="M0 0 M42.214,8.29 C42.214,12.869 32.763999999999996,16.581 21.107,16.581 C9.45,16.581 0,12.869 0,8.29 C0,6.0009999999999994 2.3620000000000005,3.929 6.182,2.429 C10.002,0.9279999999999999 15.277999999999999,0 21.107,0 C32.763999999999996,0 42.214,3.711999999999999 42.214,8.29z"></path></g><g class="shadow5" transform="matrix(1,0,0,1,173.727,1003.996)" opacity="0.17" style="user-select: none;"><path fill="rgb(0,0,0)" fill-opacity="1" d="M0 0 M24.679,4.847 C24.679,7.524000000000001 19.154,9.694 12.339,9.694 C5.525,9.694 0,7.524000000000001 0,4.847 C0,3.5080000000000005 1.3809999999999998,2.297 3.614,1.419 C5.8469999999999995,0.542 8.932,0 12.339,0 C19.154,0 24.679,2.1700000000000004 24.679,4.847z"></path></g><g class="f20prop2_0zf008_0zf075_-0zf084" transform="matrix(1,0,0,1,97.336,772.026)" opacity="1" style="user-select: none;"><path fill="rgb(179,187,66)" fill-opacity="1" d="M0 0 M2136.665,149.553 C1446.451,0.25 454.445,21.040000000000003 0.25,40.862 C537.55,34.423 1565.2969999999998,40.212999999999994 2138.74,160.91 C2138.74,160.91 2136.665,149.553 2136.665,149.553z"></path></g><g class="f19prop2_0zf008_0zf075_-0zf084" transform="matrix(1,0,0,1,363.761,744.967)" opacity="1" style="user-select: none;"><path fill="rgb(179,187,66)" fill-opacity="1" d="M0 0 M21.454,61.378 C21.454,61.378 0.24999999999999956,46.68899999999999 4.164,41.416 C4.898,40.428999999999995 6.325,40.251000000000005 7.389,40.868 C7.804,41.107 8.302,41.409000000000006 8.86,41.77 C15.675,46.18300000000001 20.231,53.352000000000004 21.454,61.378 C21.454,61.378 27.53,0.25 38.176,5.347 C38.176,5.347 44.438,8.131 37.523,30.413 C37.523,30.413 24.757,61.693 24.757,61.693 C24.757,61.693 36.954,41.147 36.954,41.147 C36.954,41.147 44.959999999999994,24.514 49.471,27.102 C49.471,27.102 55.447,26.359 45.455,39.746 C45.455,39.746 24.757,61.693 24.757,61.693 C24.757,61.693 21.454,61.378 21.454,61.378z"></path></g><g class="f18prop2_0zf008_0zf075_-0zf084" transform="matrix(1,0,0,1,1039.827,829.619)" opacity="1" style="user-select: none;"><path fill="rgb(179,187,66)" fill-opacity="1" d="M0 0 M25.56,45.763 C25.56,45.763 41.347,34.825 38.433,30.901 C37.886,30.165 36.824999999999996,30.033 36.032,30.492 C35.723,30.671 35.352,30.895 34.937,31.163 C29.863,34.45 26.47,39.786 25.56,45.763 C25.56,45.763 21.036,0.25 13.109,4.045 C13.109,4.045 8.447000000000001,6.116999999999997 13.595,22.708 C13.595,22.708 23.1,45.997 23.1,45.997 C23.1,45.997 14.019,30.7 14.019,30.7 C14.019,30.7 8.058,18.316000000000003 4.7,20.242 C4.7,20.242 0.25,19.689999999999998 7.69,29.657 C7.69,29.657 23.1,45.997 23.1,45.997 C23.1,45.997 25.56,45.763 25.56,45.763z"></path></g><g class="f17prop2_0zf008_0zf075_-0zf084" transform="matrix(1,0,0,1,757.13,921.997)" opacity="1" style="user-select: none;"><path fill="rgb(179,187,66)" fill-opacity="1" d="M0 0 M25.56,45.763 C25.56,45.763 41.347,34.826 38.433,30.901 C37.886,30.165 36.824999999999996,30.034000000000002 36.032,30.492 C35.723,30.671 35.352,30.895000000000003 34.937,31.164 C29.863,34.45 26.47,39.787 25.56,45.763 C25.56,45.763 21.036,0.25 13.109,4.045 C13.109,4.045 8.447000000000001,6.116999999999997 13.595,22.708 C13.595,22.708 23.1,45.998 23.1,45.998 C23.1,45.998 14.019,30.7 14.019,30.7 C14.019,30.7 8.058,18.316000000000003 4.7,20.242 C4.7,20.242 0.25,19.689999999999998 7.69,29.657 C7.69,29.657 23.1,45.998 23.1,45.998 C23.1,45.998 25.56,45.763 25.56,45.763z"></path></g><g class="f16prop4_0_0_0" transform="matrix(1,0,0,1,1437.281,-0.25)" opacity="1" style="user-select: none;"><path fill="rgb(135,103,46)" fill-opacity="1" d="M0 0 M288.771,0.25 C288.771,0.25 308.541,124.761 308.541,124.761 C308.541,124.761 164.439,43.178 164.439,43.178 C164.439,43.178 147.493,0.25 147.493,0.25 C147.493,0.25 137.333,0.25 137.333,0.25 C137.333,0.25 149.807,35.641 149.807,35.641 C149.807,35.641 108.911,0.25 108.911,0.25 C108.911,0.25 78.982,0.25 78.982,0.25 C78.982,0.25 107.241,23.225 107.241,23.225 C107.241,23.225 33.411,0.25 33.411,0.25 C33.411,0.25 0.25,0.25 0.25,0.25 C0.25,0.25 120.543,33.423 120.543,33.423 C120.543,33.423 164.439,73.328 164.439,73.328 C164.439,73.328 286.814,178.98 286.814,178.98 C286.814,178.98 316.077,216.986 316.077,216.986 C316.077,216.986 374.605,995.254 374.605,995.254 C374.605,995.254 482.719,1001.148 482.719,1001.148 C482.719,1001.148 482.719,90.664 482.719,90.664 C482.719,90.664 477.096,0.25 477.096,0.25 C477.096,0.25 288.771,0.25 288.771,0.25z"></path></g><g class="f15prop4_-0zf005_0zf052_-0zf093" transform="matrix(1,0,0,1,1837.428,-0.25)" opacity="1" style="user-select: none;"><path fill="rgb(164,131,65)" fill-opacity="1" d="M0 0 M0.25,0.25 C0.25,0.25 13.847,114.068 13.847,114.068 C13.847,114.068 30.04,245.727 30.04,245.727 C30.04,245.727 38.299,311.537 38.299,311.537 C38.299,311.537 46.762,377.321 46.762,377.321 C46.762,377.321 39.264,311.42 39.264,311.42 C39.264,311.42 31.561,245.542 31.561,245.542 C31.561,245.542 15.831,113.828 15.831,113.828 C15.831,113.828 1.863,0.25 1.863,0.25 C1.863,0.25 0.25,0.25 0.25,0.25z"></path></g><g class="f14prop4_-0zf005_0zf052_-0zf093" transform="matrix(1,0,0,1,1854.675,432.688)" opacity="1" style="user-select: none;"><path fill="rgb(164,131,65)" fill-opacity="1" d="M0 0 M0.25,0.25 C0.25,0.25 7.717,52.728 7.717,52.728 C7.717,52.728 14.977,105.232 14.977,105.232 C14.977,105.232 29.174,210.284 29.174,210.284 C29.174,210.284 42.913,315.397 42.913,315.397 C42.913,315.397 49.62,367.977 49.62,367.977 C49.62,367.977 56.117,420.582 56.117,420.582 C56.117,420.582 48.648,368.105 48.648,368.105 C48.648,368.105 41.389,315.601 41.389,315.601 C41.389,315.601 27.193,210.548 27.193,210.548 C27.193,210.548 13.458,105.434 13.458,105.434 C13.458,105.434 6.751,52.856 6.751,52.856 C6.751,52.856 0.25,0.25 0.25,0.25z"></path></g><g class="f13prop4_-0zf005_0zf052_-0zf093" transform="matrix(1,0,0,1,1801.723,-0.25)" opacity="1" style="user-select: none;"><path fill="rgb(164,131,65)" fill-opacity="1" d="M0 0 M0.25,0.25 C0.25,0.25 7.21,87.408 7.21,87.408 C7.21,87.408 25.604,313.555 25.604,313.555 C25.604,313.555 44.458,539.663 44.458,539.663 C44.458,539.663 54.049,652.705 54.049,652.705 C54.049,652.705 63.844,765.729 63.844,765.729 C63.844,765.729 55.018,652.625 55.018,652.625 C55.018,652.625 45.986,539.538 45.986,539.538 C45.986,539.538 27.595,313.392 27.595,313.392 C27.595,313.392 8.744,87.282 8.744,87.282 C8.744,87.282 1.36,0.25 1.36,0.25 C1.36,0.25 0.25,0.25 0.25,0.25z"></path></g><g class="f12prop4_-0zf005_0zf052_-0zf093" transform="matrix(1,0,0,1,1745.571,124.261)" opacity="1" style="user-select: none;"><path fill="rgb(164,131,65)" fill-opacity="1" d="M0 0 M25.191,323.901 C27.432,322.305 29.475,320.451 31.42,318.512 C33.379000000000005,316.585 35.191,314.519 36.966,312.426 C40.47,308.197 43.561,303.64 46.338,298.914 C51.938,289.474 56.131,279.26 59.339,268.788 C62.528999999999996,258.29900000000004 64.635,247.501 65.941,236.621 C66.21600000000001,233.895 66.60700000000001,231.18 66.808,228.446 C66.808,228.446 67.367,220.241 67.367,220.241 C67.53,217.50500000000002 67.528,214.76 67.617,212.021 C67.617,212.021 67.714,207.909 67.714,207.909 C67.714,207.909 67.642,203.796 67.642,203.796 C67.583,201.054 67.571,198.311 67.473,195.57 C67.473,195.57 66.995,187.355 66.995,187.355 C66.908,185.986 66.851,184.61599999999999 66.74,183.249 C66.74,183.249 66.339,179.153 66.339,179.153 C66.339,179.153 65.539,170.962 65.539,170.962 C65.212,168.237 64.81099999999999,165.522 64.451,162.802 C64.451,162.802 63.903,158.722 63.903,158.722 C63.73,157.36100000000002 63.548,156.001 63.301,154.651 C63.301,154.651 61.93,146.531 61.93,146.531 C61.478,143.823 61.036,141.114 60.447,138.431 C56.262,116.864 50.455999999999996,95.635 43.867,74.665 C43.867,74.665 43.937,74.82 43.937,74.82 C43.937,74.82 22.004,37.588 22.004,37.588 C22.004,37.588 0.25,0.25 0.25,0.25 C0.25,0.25 22.836,37.091 22.836,37.091 C22.836,37.091 45.245,74.039 45.245,74.039 C45.245,74.039 45.287,74.109 45.287,74.109 C45.287,74.109 45.315,74.194 45.315,74.194 C52.215999999999994,95.12 57.980000000000004,116.439 62.319,138.064 C62.921,140.755 63.376999999999995,143.47500000000002 63.842,146.193 C63.842,146.193 65.254,154.344 65.254,154.344 C65.507,155.7 65.696,157.066 65.875,158.434 C65.875,158.434 66.422,162.535 66.422,162.535 C66.773,165.271 67.166,168.00199999999998 67.482,170.742 C67.482,170.742 68.254,178.983 68.254,178.983 C68.254,178.983 68.639,183.103 68.639,183.103 C68.74499999999999,184.478 68.796,185.858 68.879,187.234 C68.879,187.234 69.326,195.501 69.326,195.501 C69.41199999999999,198.258 69.414,201.02 69.462,203.779 C69.72800000000001,225.82999999999998 67.205,248.07399999999998 60.544,269.164 C57.178,279.673 52.847,289.933 46.984,299.304 C44.092,304.00199999999995 40.891,308.519 37.285,312.695 C36.357,313.716 35.459,314.76099999999997 34.508,315.76 C33.541000000000004,316.743 32.597,317.748 31.576,318.674 C29.575,320.565 27.476,322.366 25.191,323.901z"></path></g><g class="f11prop4_-0zf005_0zf052_-0zf093" transform="matrix(1,0,0,1,1753.108,216.486)" opacity="1" style="user-select: none;"><path fill="rgb(164,131,65)" fill-opacity="1" d="M0 0 M13.899,181.757 C16.968,174.34300000000002 19.575000000000003,166.756 21.856,159.08 C24.177000000000003,151.41600000000003 26.141,143.649 27.74,135.813 C30.976,120.15399999999998 32.748999999999995,104.181 32.48,88.223 C32.346999999999994,80.247 31.656,72.286 30.39,64.416 C29.184,56.526999999999994 27.006,48.830999999999996 24.473,41.282 C19.261,26.191999999999997 10.843,12.299 0.25,0.25 C0.25,0.25 4.321,4.685 4.321,4.685 C4.994,5.430999999999999 5.678999999999999,6.166 6.337,6.926 C6.337,6.926 8.189,9.303 8.189,9.303 C9.41,10.899000000000001 10.696,12.452 11.865,14.088 C11.865,14.088 15.219,19.11 15.219,19.11 C16.389,20.756 17.276,22.571 18.285,24.315 C19.253,26.082 20.311,27.804000000000002 21.116,29.655 C21.116,29.655 23.697,35.128 23.697,35.128 C23.697,35.128 25.92,40.757 25.92,40.757 C26.709000000000003,42.617999999999995 27.273999999999997,44.557 27.9,46.476 C28.5,48.403 29.161,50.314 29.599,52.286 C29.599,52.286 31.051,58.164 31.051,58.164 C31.051,58.164 32.184,64.111 32.184,64.111 C33.525,72.069 34.291999999999994,80.12199999999999 34.477,88.189 C34.546,96.25699999999999 34.113,104.318 33.233,112.325 C32.346,120.331 31.057000000000002,128.295 29.236,136.135 C25.648,151.813 20.727,167.22 13.899,181.757z"></path></g><g class="shadow8" transform="matrix(1,0,0,1,1557.82,33.17)" opacity="0.18" style="user-select: none;"><path fill="rgb(6,9,9)" fill-opacity="1" d="M0 0 M0.003,0.003 C0.003,0.003 188.482,89.76 195.537,183.566 C195.537,183.566 166.274,145.56 166.274,145.56 C166.274,145.56 0.003,0.003 0.003,0.003z"></path></g><g class="f10prop4_-0zf005_0zf052_-0zf093" transform="matrix(1,0,0,1,1725.801,-0.25)" opacity="1" style="user-select: none;"><path fill="rgb(164,131,65)" fill-opacity="1" d="M0 0 M0.25,0.25 C0.25,0.25 20.02,124.761 20.02,124.761 C20.02,124.761 17.389,0.25 17.389,0.25 C17.389,0.25 0.25,0.25 0.25,0.25z"></path></g><g class="f9prop4_-0zf005_0zf052_-0zf093" transform="matrix(1,0,0,1,1751.751,198.441)" opacity="1" style="user-select: none;"><path fill="rgb(164,131,65)" fill-opacity="1" d="M0 0 M0.25,0.25 C0.25,0.25 76.573,797.458 76.573,797.458 C76.573,797.458 60.135,796.563 60.135,796.563 C60.135,796.563 0.25,0.25 0.25,0.25z"></path></g><g class="f8prop2_0zf008_0zf075_-0zf084" transform="matrix(1,0,0,1,1757.883,854.279)" opacity="1" style="user-select: none;"><path fill="rgb(179,187,66)" fill-opacity="1" d="M0 0 M22.197,152.221 C22.197,152.221 0.25,92.61500000000001 16.212,67.549 C16.212,67.549 56.117,93.41 56.117,93.41 C56.117,93.41 51.129,123.417 51.129,123.417 C51.129,123.417 61.437,131.604 67.091,102.34 C67.091,102.34 83.052,118.571 83.052,118.571 C83.052,118.571 107.328,47.803 128.03,33.171 C128.03,33.171 123.955,112.981 149.893,130.939 C149.893,130.939 144.573,86.71 144.573,86.71 C144.573,86.71 155.214,89.37 144.24,73.742 C144.24,73.742 146.568,44.145 146.568,44.145 C146.568,44.145 164.525,106.33 166.187,123.622 C166.187,123.622 166.187,127.281 166.187,127.281 C166.187,127.281 208.753,33.171 245.665,0.25 C245.665,0.25 241.009,13.884 241.009,13.884 C241.009,13.884 181.15200000000002,132.601 179.157,133.599 C191.418,124.898 204.10199999999998,115.30799999999999 218.087,109.63 C214.66899999999998,114.473 211.206,119.405 209.325,125.026 C208.49499999999998,127.506 207.987,130.08499999999998 207.168,132.569 C205.87900000000002,136.47199999999998 199.788,152.221 194.454,152.221 C194.454,152.221 22.197,152.221 22.197,152.221z"></path></g><g class="f7prop4_0zf000_0zf000_0zf000" transform="matrix(1,0,0,1,32.987,-0.25)" opacity="1" style="user-select: none;"><path fill="rgb(135,103,46)" fill-opacity="1" d="M0 0 M188.803,0.25 C188.803,0.25 148.715,72.254 148.715,72.254 C148.715,72.254 147.327,0.25 147.327,0.25 C147.327,0.25 133.231,0.25 133.231,0.25 C133.231,0.25 133.231,44.839 133.231,44.839 C133.231,44.839 107.668,0.25 107.668,0.25 C107.668,0.25 101.717,0.25 101.717,0.25 C101.717,0.25 133.231,60.212 133.231,60.212 C133.231,60.212 133.231,204.843 133.231,204.843 C133.231,204.843 71.047,246.989 71.047,246.989 C71.047,246.989 71.047,0.25 71.047,0.25 C71.047,0.25 0.25,0.25 0.25,0.25 C0.25,0.25 0.25,873.837 0.25,873.837 C0.25,873.837 114.039,873.837 114.039,873.837 C114.039,873.837 83.702,285.049 83.702,285.049 C83.702,285.049 151.422,212.69 151.422,212.69 C151.422,212.69 148.99,86.505 148.99,86.505 C148.99,86.505 195.163,0.25 195.163,0.25 C195.163,0.25 188.803,0.25 188.803,0.25z"></path></g><g class="f6prop4_-0zf005_0zf052_-0zf093" transform="matrix(1,0,0,1,38.985,-0.25)" opacity="1" style="user-select: none;"><path fill="rgb(164,131,65)" fill-opacity="1" d="M0 0 M0.25,0.25 C0.25,0.25 3.17,78.901 3.17,78.901 C3.17,78.901 11.384,291.287 11.384,291.287 C11.384,291.287 20.061,503.653 20.061,503.653 C20.061,503.653 24.562,609.83 24.562,609.83 C24.562,609.83 29.27,715.999 29.27,715.999 C29.27,715.999 25.534,609.791 25.534,609.791 C25.534,609.791 21.591,503.592 21.591,503.592 C21.591,503.592 13.381,291.207 13.381,291.207 C13.381,291.207 4.707,78.84 4.707,78.84 C4.707,78.84 1.375,0.25 1.375,0.25 C1.375,0.25 0.25,0.25 0.25,0.25z"></path></g><g class="f5prop4_-0zf005_0zf052_-0zf093" transform="matrix(1,0,0,1,62.102,-0.25)" opacity="1" style="user-select: none;"><path fill="rgb(164,131,65)" fill-opacity="1" d="M0 0 M0.25,0.25 C0.25,0.25 8.964,114.161 8.964,114.161 C8.964,114.161 18.904,238.025 18.904,238.025 C18.904,238.025 24.035,299.944 24.035,299.944 C24.035,299.944 29.373,361.847 29.373,361.847 C29.373,361.847 25.005,299.867 25.005,299.867 C25.005,299.867 20.43,237.905 20.43,237.905 C20.43,237.905 10.956,114.005 10.956,114.005 C10.956,114.005 1.83,0.25 1.83,0.25 C1.83,0.25 0.25,0.25 0.25,0.25z"></path></g><g class="f4prop4_-0zf005_0zf052_-0zf093" transform="matrix(1,0,0,1,72.227,403.705)" opacity="1" style="user-select: none;"><path fill="rgb(164,131,65)" fill-opacity="1" d="M0 0 M0.25,0.25 C0.25,0.25 5.605,49.614 5.605,49.614 C5.605,49.614 10.752,98.999 10.752,98.999 C10.752,98.999 20.725,197.8 20.725,197.8 C20.725,197.8 30.237,296.646 30.237,296.646 C30.237,296.646 34.83,346.086 34.83,346.086 C34.83,346.086 39.212,395.546 39.212,395.546 C39.212,395.546 33.854,346.183 33.854,346.183 C33.854,346.183 28.706,296.798 28.706,296.798 C28.706,296.798 18.737,197.996 18.737,197.996 C18.737,197.996 9.229,99.149 9.229,99.149 C9.229,99.149 4.635,49.71 4.635,49.71 C4.635,49.71 0.25,0.25 0.25,0.25z"></path></g><g class="f3prop4_-0zf005_0zf052_-0zf093" transform="matrix(1,0,0,1,177.175,-0.25)" opacity="1" style="user-select: none;"><path fill="rgb(164,131,65)" fill-opacity="1" d="M0 0 M48.424,0.25 C48.424,0.25 1.089,85.493 1.089,85.493 C1.089,85.493 0.25,217.614 0.25,217.614 C0.25,217.614 7.234,212.69 7.234,212.69 C7.234,212.69 3.798,86.372 3.798,86.372 C3.798,86.372 50.712,0.25 50.712,0.25 C50.712,0.25 48.424,0.25 48.424,0.25z"></path></g><g class="f2prop4_-0zf005_0zf052_-0zf093" transform="matrix(1,0,0,1,116.439,284.548)" opacity="1" style="user-select: none;"><path fill="rgb(164,131,65)" fill-opacity="1" d="M0 0 M0.25,0.25 C0.25,0.25 16.648,589.039 16.648,589.039 C16.648,589.039 30.587,589.039 30.587,589.039 C30.587,589.039 0.25,0.25 0.25,0.25z"></path></g><g class="f1prop2_0zf008_0zf075_-0zf084" transform="matrix(1,0,0,1,21.811,766.572)" opacity="1" style="user-select: none;"><path fill="rgb(179,187,66)" fill-opacity="1" d="M0 0 M17.156,117.31 C17.156,117.31 0.25,71.39699999999999 12.546,52.089 C12.546,52.089 43.283,72.01 43.283,72.01 C43.283,72.01 39.441,95.123 39.441,95.123 C39.441,95.123 47.382,101.429 51.736,78.888 C51.736,78.888 64.032,91.39 64.032,91.39 C64.032,91.39 82.73,36.879000000000005 98.676,25.609 C98.676,25.609 95.53699999999999,87.084 115.517,100.916 C115.517,100.916 111.419,66.849 111.419,66.849 C111.419,66.849 119.61500000000001,68.898 111.162,56.859 C111.162,56.859 112.955,34.062 112.955,34.062 C112.955,34.062 126.787,81.961 128.068,95.282 C128.068,95.282 128.068,98.099 128.068,98.099 C128.068,98.099 160.85500000000002,25.609 189.287,0.25 C189.287,0.25 185.701,10.752 185.701,10.752 C185.701,10.752 139.595,102.19800000000001 138.058,102.965 C147.50199999999998,96.263 157.273,88.876 168.045,84.503 C165.41199999999998,88.234 162.744,92.033 161.296,96.363 C160.656,98.273 160.265,100.259 159.634,102.172 C158.641,105.179 153.949,117.31 149.841,117.31 C149.841,117.31 17.156,117.31 17.156,117.31z"></path></g></g></g></g></svg>