<?xml version="1.0" standalone="no"?>
<svg xmlns="http://www.w3.org/2000/svg" viewBox="0 0 1920 1080" width="1920" height="1080" preserveAspectRatio="xMidYMid meet" style="width: 100%; height: 100%;"><defs><mask id="ly_sxHAOnLoPs" mask-type="alpha"><g class="mask" transform="matrix(1,0,0,1,0,0)" opacity="1" style="transform: matrix(1, 0, 0, 1, 0, 0);"><rect width="1920" height="1080" fill="#ffffff"></rect></g></mask></defs><g><g mask="url(#ly_sxHAOnLoPs)"><g class="beachMC" opacity="1" data-svg-origin="960 540" style="transform-origin: 0px 0px 0px; transform: matrix(1, 0, 0, 1, 0, 0);"><g class="ss59prop1_0_0_0" opacity="1" style="user-select: none; transform-origin: 0px 0px 0px; transform: matrix(1, 0, 0, 1, -0.25, -0.25);" data-svg-origin="960.25 468.681503295898"><path fill="rgb(251,187,126)" fill-opacity="1" d="M0 0 M0.25,937.113 C0.25,937.113 1920.25,937.113 1920.25,937.113 C1920.25,937.113 1920.25,0.25 1920.25,0.25 C1920.25,0.25 0.25,0.25 0.25,0.25 C0.25,0.25 0.25,937.113 0.25,937.113z"></path></g><g class="ss58prop1_0zf007_0zf094_0zf049" opacity="1" style="user-select: none; transform-origin: 0px 0px 0px; transform: matrix(1, 0, 0, 1, -3.725, 344.373);" data-svg-origin="464.61419067382803 39.54190173339799"><path fill="rgb(244,170,109)" fill-opacity="1" d="M0 0 M2.311,22.224 C2.311,22.224 119.594,0.25 248.186,28.134 C370.43600000000004,54.641999999999996 389.667,41.321 480.325,35.412 C570.982,29.502 603.949,67.005 684.991,53.268 C752.706,41.791 830.9359999999999,78.835 928.978,77.966 C928.978,77.966 2.311,77.966 2.311,77.966 C2.311,77.966 0.25,20.958 2.311,22.224z"></path></g><g class="ss57prop1_0zf007_0zf094_0zf049" opacity="1" style="user-select: none; transform-origin: 0px 0px 0px; transform: matrix(1, 0, 0, 1, 298.753, 138.613);" data-svg-origin="810.2502043457 73.25000659179699"><path fill="rgb(244,170,109)" fill-opacity="1" d="M0 0 M1620.25,146.25 C1620.25,146.25 1618.25,6.25 1618.25,6.25 C1618.25,6.25 1230.25,0.25 1136.25,62.25 C1042.25,124.25 650.251,22.25 564.25,70.25 C478.25,118.25 62.25,106.25 0.25,146.25 C0.25,146.25 1620.25,146.25 1620.25,146.25z"></path></g><g class="ss56prop1_0zf004_0zf002_-0zf010" opacity="1" style="user-select: none; transform-origin: 0px 0px 0px; transform: matrix(1, 0, 0, 1, 306.753, 281.113);" data-svg-origin="806.24996020508 1.7499760742189778"><path fill="rgb(251,187,132)" fill-opacity="1" d="M0 0 M0.25,3.25 C0.25,3.25 1612.25,3.25 1612.25,3.25 C1612.25,3.25 1612.25,0.25 1612.25,0.25 C1612.25,0.25 0.25,0.25 0.25,0.25 C0.25,0.25 0.25,3.25 0.25,3.25z"></path></g><g class="ss55prop1_0zf010_0zf088_-0zf079" opacity="1" style="user-select: none; transform-origin: 0px 0px 0px; transform: matrix(1, 0, 0, 1, 3.769, 421.012);" data-svg-origin="430.291028076172 1.3445368652339766"><path fill="rgb(248,204,170)" fill-opacity="1" d="M0 0 M860.332,2.441 C860.332,2.441 0.25,2.441 0.25,2.441 C0.25,2.441 0.25,0.25 0.25,0.25 C0.25,0.25 860.332,0.25 860.332,0.25 C860.332,0.25 860.332,2.441 860.332,2.441z"></path></g><g class="ss54prop1_0zf007_0zf094_0zf049" opacity="1" style="user-select: none; transform-origin: 0px 0px 0px; transform: matrix(1, 0, 0, 1, 1385.83, 418.044);" data-svg-origin="269.7137011718801 24.534506469727035"><path fill="rgb(244,170,109)" fill-opacity="1" d="M0 0 M539.169,48.819 C539.169,48.819 538.504,2.246 538.504,2.246 C538.504,2.246 409.43,0.25 378.159,20.875 C346.889,41.501000000000005 216.483,7.568999999999999 187.874,23.537 C159.265,39.504999999999995 20.875,35.512 0.25,48.819 C0.25,48.819 539.169,48.819 539.169,48.819z"></path></g><g class="ss53prop1_0zf007_0zf094_0zf049" opacity="1" style="user-select: none; transform-origin: 0px 0px 0px; transform: matrix(1, 0, 0, 1, 876.753, 568.849);" data-svg-origin="522.2502043456999 47.293700195312"><path fill="rgb(244,170,109)" fill-opacity="1" d="M0 0 M1044.25,94.339 C1044.25,94.339 1042.962,4.117 1042.962,4.117 C1042.962,4.117 792.917,0.25 732.339,40.206 C671.7620000000001,80.161 419.14,14.427999999999997 363.717,45.361 C308.29499999999996,76.295 40.206,68.561 0.25,94.339 C0.25,94.339 1044.25,94.339 1044.25,94.339z"></path></g><g class="ss52prop1_-0zf053_-0zf047_-0zf057" opacity="1" style="user-select: none; transform-origin: 0px 0px 0px; transform: matrix(1, 0, 0, 1, 1385.83, 466.322);" data-svg-origin="267.2124804687501 0.5415253906249973"><path fill="rgb(255,235,153)" fill-opacity="1" d="M0 0 M0.25,0.833 C0.25,0.833 534.165,0.833 534.165,0.833 C534.165,0.833 534.165,0.25 534.165,0.25 C534.165,0.25 0.25,0.25 0.25,0.25 C0.25,0.25 0.25,0.833 0.25,0.833z"></path></g><g class="ss51prop1_0zf010_0zf088_-0zf079" opacity="1" style="user-select: none; transform-origin: 0px 0px 0px; transform: matrix(1, 0, 0, 1, 979.082, 662.604);" data-svg-origin="462.58593823242006 0.7500039062499582"><path fill="rgb(248,204,170)" fill-opacity="1" d="M0 0 M0.25,1.25 C0.25,1.25 924.922,1.25 924.922,1.25 C924.922,1.25 924.922,0.25 924.922,0.25 C924.922,0.25 0.25,0.25 0.25,0.25 C0.25,0.25 0.25,1.25 0.25,1.25z"></path></g><g class="ss50prop1_-0zf052_0zf034_-0zf108" opacity="1" style="user-select: none; transform-origin: 0px 0px 0px; transform: matrix(1, 0, 0, 1, 426.712, 648.613);" data-svg-origin="78.33040417480498 78.33000842285196"><path fill="rgb(251,237,182)" fill-opacity="1" d="M0 0 M156.41,78.331 C156.41,35.208000000000006 121.452,0.25 78.33,0.25 C35.207,0.25 0.25,35.208000000000006 0.25,78.331 C0.25,121.453 35.207,156.411 78.33,156.411 C121.452,156.411 156.41,121.453 156.41,78.331z"></path></g><g class="ss49prop4_0_0_0" opacity="1" style="user-select: none; transform-origin: 0px 0px 0px; transform: matrix(1, 0, 0, 1, -1.246, 872.89);" data-svg-origin="960.7501961669919 68.201903686523"><path fill="rgb(153,196,156)" fill-opacity="1" d="M0 0 M1921.25,45.973 C1921.25,45.973 170.25,0.25 0.25,57.973 C0.25,57.973 1.25,136.154 1.25,136.154 C1.25,136.154 1921.25,136.154 1921.25,136.154 C1921.25,136.154 1921.25,45.973 1921.25,45.973z"></path></g><g class="ss48prop2_-0zf009_-0zf195_-0zf108" opacity="1" style="user-select: none; transform-origin: 0px 0px 0px; transform: matrix(1, 0, 0, 1, -30.104, 941.962);" data-svg-origin="742.712505249023 54.996602905272994"><path fill="rgb(238,205,136)" fill-opacity="1" d="M0 0 M196.74,16.749 C196.74,16.749 1485.176,0.25 1485.176,0.25 C1485.176,0.25 1431.1779999999999,34.748 1338.183,34.748 C1245.188,34.748 0.25,109.744 196.74,16.749z"></path></g><g class="ss47prop5_0_0_0" opacity="1" style="user-select: none; transform-origin: 0px 0px 0px; transform: matrix(1, 0, 0, 1, 1303.62, 399.352);" data-svg-origin="60.87839782715014 290.755192993164"><path fill="rgb(130,91,80)" fill-opacity="1" d="M0 0 M0.25,562.668 C0.25,562.668 110.27799999999999,423.225 9.231,32.786 C9.231,32.786 13.723000000000003,0.25 31.687,39.758 C31.687,39.758 121.506,346.53200000000004 76.597,551.048 C76.597,551.048 69.86,581.26 0.25,562.668z"></path></g><g class="ss46prop5_0zf005_0zf021_-0zf111" opacity="1" style="user-select: none; transform-origin: 0px 0px 0px; transform: matrix(1, 0, 0, 1, 1296.75, 431.889);" data-svg-origin="65.25280761719 266.61188500976596"><path fill="rgb(159,117,107)" fill-opacity="1" d="M0 0 M16.099,0.25 C16.099,0.25 130.25,330.975 12.25,530.976 C12.25,530.976 0.25,532.975 0.25,532.975 C0.25,532.975 119.321,403.828 16.099,0.25z"></path></g><g class="ss45prop5_0zf003_0zf025_0zf044" opacity="1" style="user-select: none; transform-origin: 0px 0px 0px; transform: matrix(1, 0, 0, 1, 1292.75, 426.113);" data-svg-origin="12.253204345699942 14.75000659179699"><path fill="rgb(113,82,73)" fill-opacity="1" d="M0 0 M24.25,14.75 C24.25,6.742000000000001 18.878,0.25 12.25,0.25 C5.623,0.25 0.25,6.742000000000001 0.25,14.75 C0.25,22.758 5.623,29.25 12.25,29.25 C18.878,29.25 24.25,22.758 24.25,14.75z"></path></g><g class="ss44prop5_-0zf000_-0zf001_0zf109" opacity="1" style="user-select: none; transform-origin: 0px 0px 0px; transform: matrix(1, 0, 0, 1, 1307.75, 420.113);" data-svg-origin="12.253204345699942 14.75000659179699"><path fill="rgb(95,67,58)" fill-opacity="1" d="M0 0 M24.25,14.75 C24.25,6.742000000000001 18.878,0.25 12.25,0.25 C5.623,0.25 0.25,6.742000000000001 0.25,14.75 C0.25,22.758 5.623,29.25 12.25,29.25 C18.878,29.25 24.25,22.758 24.25,14.75z"></path></g><g class="ss43prop3_0zf000_0zf000_0zf000" opacity="1" style="user-select: none; transform-origin: 0px 0px 0px; transform: matrix(1, 0, 0, 1, 1161.9, 392.379);" data-svg-origin="81.34549865722988 128.07331628418"><path fill="rgb(154,159,111)" fill-opacity="1" d="M0 0 M16.463,170.846 C38.877,192.729 57.037000000000006,218.57500000000002 67.394,248.139 C67.394,248.139 70.111,255.895 70.111,255.895 C70.111,255.895 92.1,158.483 92.1,158.483 C92.1,158.483 39.1,83.483 39.1,83.483 C39.1,83.483 97.057,153.637 97.057,153.637 C97.057,153.637 121.757,90.888 121.757,90.888 C121.757,90.888 80.1,25.483 80.1,25.483 C80.1,25.483 124.1,81.483 124.1,81.483 C124.1,81.483 141.767,59.15 141.767,59.15 C162.434,19.817 144.77599999999998,18.816 135.231,0.25 C135.231,0.25 78.328,5.604 78.328,5.604 C40.119,9.199 10.375,40.35399999999999 8.553,78.689 C8.553,78.689 6.213,90.766 6.213,90.766 C6.213,90.766 0.25,155.017 16.463,170.846z"></path></g><g class="ss42prop3_0zf000_0zf000_0zf000" opacity="1" style="user-select: none; transform-origin: 0px 0px 0px; transform: matrix(1, 0, 0, 1, 1124.75, 290.943);" data-svg-origin="88.56379699707009 80.08539660644504"><path fill="rgb(154,159,111)" fill-opacity="1" d="M0 0 M176.871,112.383 C176.871,112.383 144.517,46.242 144.517,46.242 C130.60399999999998,17.802999999999997 95.7,0.25 65.25,8.92 C65.25,8.92 42.25,17.92 42.25,17.92 C25.875,22.582 5.792,41.964 4.25,58.92 C4.25,58.92 0.25,159.92 0.25,159.92 C0.25,159.92 45.25,101.92 45.25,101.92 C45.25,101.92 42.697,68.882 42.697,68.882 C42.697,68.882 52.421,101.508 52.421,101.508 C52.421,101.508 106.25,91.92 106.25,91.92 C106.25,91.92 102.978,58.007 102.978,58.007 C102.978,58.007 114.645,94.983 114.645,94.983 C114.645,94.983 165.25,107.42 165.25,107.42 C165.25,107.42 176.871,112.383 176.871,112.383z"></path></g><g class="ss41prop3_0zf007_0zf127_0zf190" opacity="1" style="user-select: none; transform-origin: 0px 0px 0px; transform: matrix(1, 0, 0, 1, -0.25, 627.015);" data-svg-origin="960.249862670898 226.55400024414098"><path fill="rgb(93,94,81)" fill-opacity="1" d="M0 0 M1713.144,44.817 C1713.144,44.817 1665.14,167.829 1665.14,167.829 C1665.14,167.829 1410.114,224.835 1410.114,224.835 C1410.114,224.835 1327.253,335.848 1327.253,335.848 C1327.253,335.848 825.055,356.849 825.055,356.849 C825.055,356.849 192.383,352.348 192.383,352.348 C192.383,352.348 161.989,293.842 161.989,293.842 C161.989,293.842 12.976,281.841 12.976,281.841 C12.976,281.841 0.25,268.136 0.25,268.136 C0.25,268.136 0.25,452.858 0.25,452.858 C0.25,452.858 1920.249,452.858 1920.249,452.858 C1920.249,452.858 1920.249,0.25 1920.249,0.25 C1920.249,0.25 1713.144,44.817 1713.144,44.817z"></path></g><g class="ss40prop3_0_0_0" opacity="1" style="user-select: none; transform-origin: 0px 0px 0px; transform: matrix(1, 0, 0, 1, -19.246, 962.613);" data-svg-origin="914.249692626953 62.24989978026997"><path fill="rgb(154,159,111)" fill-opacity="1" d="M0 0 M1345.583,0.25 C1345.583,0.25 1258.249,14.25 1388.249,20.25 C1518.249,26.25 1368.249,44.25 1368.249,44.25 C1368.249,44.25 1570.249,68.25 1570.249,68.25 C1570.249,68.25 1530.249,88.25 1530.249,88.25 C1530.249,88.25 1828.249,120.25 1828.249,120.25 C1828.249,120.25 16.25,124.25 16.25,124.25 C16.25,124.25 0.25,86.25 0.25,86.25 C0.25,86.25 160.25,74.25 160.25,74.25 C160.25,74.25 288.25,40.25 288.25,40.25 C288.25,40.25 209.88,18.25 209.88,18.25 C209.88,18.25 1345.583,0.25 1345.583,0.25z"></path></g><g class="ss39prop3_0zf020_0zf134_0zf235" opacity="1" style="user-select: none; transform-origin: 0px 0px 0px; transform: matrix(1, 0, 0, 1, 1522.75, 888.614);" data-svg-origin="198.75169372559003 95.72059472656201"><path fill="rgb(81,81,70)" fill-opacity="1" d="M0 0 M214.249,12.25 C214.249,12.25 0.25,158.25 0.25,158.25 C0.25,158.25 272.249,190.25 272.249,190.25 C272.249,190.25 397.246,191.193 397.246,191.193 C397.246,191.193 397.246,19.448 397.246,19.448 C397.246,19.448 396.25,0.25 396.25,0.25 C396.25,0.25 214.249,12.25 214.249,12.25z"></path></g><g class="ss38prop3_0zf020_0zf134_0zf235" opacity="1" style="user-select: none; transform-origin: 0px 0px 0px; transform: matrix(1, 0, 0, 1, 1352.09, 884.613);" data-svg-origin="161.58019653320002 70.24989978027293"><path fill="rgb(81,81,70)" fill-opacity="1" d="M0 0 M0.25,122.917 C0.25,122.917 72.916,108.25 72.916,108.25 C72.916,108.25 132.916,50.25 132.916,50.25 C132.916,50.25 322.916,0.25 322.916,0.25 C322.916,0.25 180.916,140.25 180.916,140.25 C180.916,140.25 0.25,122.917 0.25,122.917z"></path></g><g class="ss37prop2_0_0_0" opacity="1" style="user-select: none; transform-origin: 0px 0px 0px; transform: matrix(1, 0, 0, 1, 283.38, 966.306);" data-svg-origin="587.062581176758 56.971908325199934"><path fill="rgb(213,172,107)" fill-opacity="1" d="M0 0 M0.25,13.404 C0.25,13.404 193.74,29.904 193.74,29.904 C193.74,29.904 39.248,32.903 39.248,32.903 C39.248,32.903 190.74,74.901 190.74,74.901 C190.74,74.901 36.954,113.695 36.954,113.695 C36.954,113.695 1173.876,113.695 1173.876,113.695 C1173.876,113.695 882.206,53.902 882.206,53.902 C882.206,53.902 925.704,43.402 925.704,43.402 C925.704,43.402 660.217,0.25 660.217,0.25 C660.217,0.25 0.25,13.404 0.25,13.404z"></path></g><g class="ss36prop3_0zf020_0zf134_0zf235" opacity="1" style="user-select: none; transform-origin: 0px 0px 0px; transform: matrix(1, 0, 0, 1, 1664.64, 671.528);" data-svg-origin="91.08039794921979 73.797012207031"><path fill="rgb(81,81,70)" fill-opacity="1" d="M0 0 M48.519,0.25 C48.519,0.25 81.417,27.349 81.417,27.349 C81.417,27.349 70.917,126.344 70.917,126.344 C70.917,126.344 181.912,147.343 181.912,147.343 C181.912,147.343 0.25,123.316 0.25,123.316 C0.25,123.316 48.519,0.25 48.519,0.25z"></path></g><g class="ss35prop3_0zf020_0zf134_0zf235" opacity="1" style="user-select: none; transform-origin: 0px 0px 0px; transform: matrix(1, 0, 0, 1, 1712.91, 627.015);" data-svg-origin="103.66908630370995 32.30589233398405"><path fill="rgb(81,81,70)" fill-opacity="1" d="M0 0 M0.25,44.764 C0.25,44.764 45.147,64.362 45.147,64.362 C45.147,64.362 207.092,0.783 207.092,0.783 C207.092,0.783 207.092,0.25 207.092,0.25 C207.092,0.25 0.25,44.764 0.25,44.764z"></path></g><g class="ss34prop3_0zf020_0zf134_0zf235" opacity="1" style="user-select: none; transform-origin: 0px 0px 0px; transform: matrix(1, 0, 0, 1, 1409.61, 794.594);" data-svg-origin="148.85189880371013 37.76241479492194"><path fill="rgb(81,81,70)" fill-opacity="1" d="M0 0 M255.275,0.25 C255.275,0.25 297.444,18.277 297.444,18.277 C297.444,18.277 135.452,51.275 135.452,51.275 C135.452,51.275 85.954,75.274 85.954,75.274 C85.954,75.274 0.25,57.256 0.25,57.256 C0.25,57.256 255.275,0.25 255.275,0.25z"></path></g><g class="ss33prop3_0zf020_0zf134_0zf235" opacity="1" style="user-select: none; transform-origin: 0px 0px 0px; transform: matrix(1, 0, 0, 1, 1326.75, 851.6);" data-svg-origin="65.03698730469 55.75679626464796"><path fill="rgb(81,81,70)" fill-opacity="1" d="M0 0 M83.111,0.25 C83.111,0.25 129.817,21.269 129.817,21.269 C129.817,21.269 96.819,24.268 96.819,24.268 C96.819,24.268 53.464,98.8 53.464,98.8 C53.464,98.8 0.25,111.263 0.25,111.263 C0.25,111.263 83.111,0.25 83.111,0.25z"></path></g><g class="ss32prop3_0zf020_0zf134_0zf235" opacity="1" style="user-select: none; transform-origin: 0px 0px 0px; transform: matrix(1, 0, 0, 1, -0.251, 873.362);" data-svg-origin="16.6144948730469 32.12721203613307"><path fill="rgb(81,81,70)" fill-opacity="1" d="M0 0 M0.25,27.742 C0.25,27.742 15.393,64.003 15.393,64.003 C15.393,64.003 32.977,35.493 32.977,35.493 C32.977,35.493 0.25,0.25 0.25,0.25 C0.25,0.25 0.25,27.742 0.25,27.742z"></path></g><g class="ss31prop3_0zf020_0zf134_0zf235" opacity="1" style="user-select: none; transform-origin: 0px 0px 0px; transform: matrix(1, 0, 0, 1, 23.893, 920.607);" data-svg-origin="83.49599230957 33.25310742187503"><path fill="rgb(81,81,70)" fill-opacity="1" d="M0 0 M137.846,0.25 C137.846,0.25 99.244,15.259 99.244,15.259 C99.244,15.259 0.25,25.758 0.25,25.758 C0.25,25.758 93.245,28.758 93.245,28.758 C93.245,28.758 135.243,66.256 135.243,66.256 C135.243,66.256 166.742,60.256 166.742,60.256 C166.742,60.256 137.846,0.25 137.846,0.25z"></path></g><g class="ss30prop4_0zf007_-0zf060_-0zf088" opacity="1" style="user-select: none; transform-origin: 0px 0px 0px; transform: matrix(1, 0, 0, 1, 210.754, 902.613);" data-svg-origin="285.249692626953 17.249503051757983"><path fill="rgb(177,215,179)" fill-opacity="1" d="M0 0 M568.25,1.729 C568.25,1.729 298.25,0.25 298.25,0.25 C298.25,0.25 0.25,6.164 0.25,6.164 C0.25,6.164 224.25,12.077 224.25,12.077 C224.25,12.077 54.25,17.99 54.25,17.99 C54.25,17.99 288.25,20.947 288.25,20.947 C288.25,20.947 194.25,28.337 194.25,28.337 C194.25,28.337 446.25,28.337 446.25,28.337 C446.25,28.337 354.25,34.25 354.25,34.25 C354.25,34.25 520.25,25.381 520.25,25.381 C520.25,25.381 350.25,20.947 350.25,20.947 C350.25,20.947 570.25,16.511 570.25,16.511 C570.25,16.511 420.25,10.598 420.25,10.598 C420.25,10.598 568.25,1.729 568.25,1.729z"></path></g><g class="ss29prop5_0zf003_0zf025_0zf044" opacity="1" style="user-select: none; transform-origin: 0px 0px 0px; transform: matrix(1, 0, 0, 1, 1326.36, 428.242);" data-svg-origin="14.643799438480073 16.12100659179697"><path fill="rgb(113,82,73)" fill-opacity="1" d="M0 0 M25.038,10.121 C21.034,3.186000000000001 13.136,0.25 7.395,3.564 C1.6559999999999997,6.877000000000001 0.25,15.186 4.254,22.121 C8.258,29.057 16.156,31.991999999999997 21.895,28.679 C27.636,25.365 29.042,17.057000000000002 25.038,10.121z"></path></g><g class="ss28prop3_0zf009_0zf012_0zf065" opacity="1" style="user-select: none; transform-origin: 0px 0px 0px; transform: matrix(1, 0, 0, 1, 1129.75, 281.613);" data-svg-origin="77.25320434569994 52.25000659179699"><path fill="rgb(138,142,96)" fill-opacity="1" d="M0 0 M141.25,75.25 C141.25,75.25 121.25,20.25 60.25,18.25 C60.25,18.25 6.25,30.25 0.25,63.25 C0.25,63.25 40.25,0.25 94.25,33.25 C94.25,33.25 119.25,38.25 154.25,104.25 C154.25,104.25 141.25,75.25 141.25,75.25z"></path></g><g class="ss27prop3_0zf000_0zf000_0zf000" opacity="1" style="user-select: none; transform-origin: 0px 0px 0px; transform: matrix(1, 0, 0, 1, 1276.75, 354.613);" data-svg-origin="85.75320434569994 90.75000659179699"><path fill="rgb(154,159,111)" fill-opacity="1" d="M0 0 M0.25,17.25 C0.25,17.25 60.25,0.25 91.25,15.25 C122.25,30.25 161.25,65.25 166.25,93.25 C171.25,121.25 170.25,181.25 170.25,181.25 C170.25,181.25 128.25,153.25 127.25,148.25 C127.25,148.25 132.25,123.25 132.25,123.25 C132.25,123.25 121.25,144.25 121.25,144.25 C121.25,144.25 108.25,131.25 108.25,131.25 C108.25,131.25 110.25,94.25 110.25,94.25 C110.25,94.25 103.25,128.25 103.25,128.25 C103.25,128.25 88.25,111.25 88.25,111.25 C88.25,111.25 84.25,83.25 84.25,83.25 C84.25,83.25 83.25,108.25 83.25,108.25 C83.25,108.25 5.25,43.25 0.25,17.25z"></path></g><g class="ss26prop3_0zf009_0zf017_0zf063" opacity="1" style="user-select: none; transform-origin: 0px 0px 0px; transform: matrix(1, 0, 0, 1, 1288.75, 365.613);" data-svg-origin="80.75320434569994 85.25000659179699"><path fill="rgb(138,142,97)" fill-opacity="1" d="M0 0 M158.25,170.25 C158.25,170.25 148.25,72.25 113.25,47.25 C78.25,22.25 28.25,7.25 0.25,18.25 C0.25,18.25 41.25,0.25 101.25,36.25 C161.25,72.25 158.25,170.25 158.25,170.25z"></path></g><g class="ss25prop3_0zf000_0zf000_0zf000" opacity="1" style="user-select: none; transform-origin: 0px 0px 0px; transform: matrix(1, 0, 0, 1, 1264.75, 251.614);" data-svg-origin="93.75320434569994 64.35351403808599"><path fill="rgb(154,159,111)" fill-opacity="1" d="M0 0 M17.25,124.25 C17.25,124.25 0.25,65.25 31.25,43.25 C62.25,21.25 86.25,0.25 117.25,11.25 C148.25,22.25 187.25,70.25 187.25,101.25 C187.25,101.25 177.59300000000002,103.08999999999999 165.556,102.579 C163.82000000000002,102.505 140.729,70.101 138.917,69.917 C137.155,69.738 156.672,101.783 154.878,101.477 C144.62199999999999,99.726 134.165,95.702 127.25,87.25 C109.25,65.25 105.25,51.25 105.25,51.25 C105.25,51.25 117.25,91.25 130.25,100.25 C130.25,100.25 125.37100000000001,101.85900000000001 117.599,104.257 C116.635,104.554 115.032,100.562 114.577,99.563 C95.75,58.25 111.712,106.055 110.18,106.515 C82.069,114.953 32.684,128.459 17.25,124.25z"></path></g><g class="ss24prop3_0zf009_0zf017_0zf063" opacity="1" style="user-select: none; transform-origin: 0px 0px 0px; transform: matrix(1, 0, 0, 1, 1271.16, 266.994);" data-svg-origin="39.58269104003989 55.39349694824199"><path fill="rgb(138,142,97)" fill-opacity="1" d="M0 0 M15.178,110.535 C15.178,110.535 0.25,23.583 78.917,0.25 C78.917,0.25 27.178,10.534999999999997 15.178,110.535z"></path></g><g class="ss23prop3_0zf009_0zf017_0zf063" opacity="1" style="user-select: none; transform-origin: 0px 0px 0px; transform: matrix(1, 0, 0, 1, 1139.75, 401.613);" data-svg-origin="52.75320434569994 123.45601550293003"><path fill="rgb(138,142,97)" fill-opacity="1" d="M0 0 M105.25,1.25 C105.25,1.25 28.25,17.25 29.25,137.25 C29.25,137.25 31.25,152.25 41.25,164.25 C41.25,164.25 97.272,238.073 92.262,246.662 C92.262,246.662 84.25,210.25 42.25,157.25 C0.25,104.25 78.25,0.25 105.25,1.25z"></path></g><g class="ss22prop5_-0zf000_-0zf001_0zf109" opacity="1" style="user-select: none; transform-origin: 0px 0px 0px; transform: matrix(1, 0, 0, 1, 1352.75, 771.613);" data-svg-origin="19.75320434569994 12.249899780272926"><path fill="rgb(95,67,58)" fill-opacity="1" d="M0 0 M0.25,24.25 C0.25,24.25 14.25,14.25 39.25,16.25 C39.25,16.25 38.25,3.25 38.25,3.25 C38.25,3.25 21.25,0.25 0.25,15.25 C0.25,15.25 0.25,24.25 0.25,24.25z"></path></g><g class="ss21prop5_-0zf000_-0zf001_0zf109" opacity="1" style="user-select: none; transform-origin: 0px 0px 0px; transform: matrix(1, 0, 0, 1, 1353.85, 687.613);" data-svg-origin="15.703695678710119 10.749899780272926"><path fill="rgb(95,67,58)" fill-opacity="1" d="M0 0 M1.149,21.25 C1.149,21.25 15.149000000000001,6.25 31.149,11.25 C31.149,11.25 30.149,0.25 30.149,0.25 C30.149,0.25 5.25,1.25 0.25,13.25 C0.25,13.25 1.149,21.25 1.149,21.25z"></path></g><g class="ss20prop5_-0zf000_-0zf001_0zf109" opacity="1" style="user-select: none; transform-origin: 0px 0px 0px; transform: matrix(1, 0, 0, 1, 1347.75, 605.613);" data-svg-origin="13.253204345699942 12.249899780272926"><path fill="rgb(95,67,58)" fill-opacity="1" d="M0 0 M2.25,24.25 C2.25,24.25 13.25,9.25 26.25,15.25 C26.25,15.25 25.25,3.25 25.25,3.25 C25.25,3.25 7.25,0.25 0.25,13.25 C0.25,13.25 2.25,24.25 2.25,24.25z"></path></g><g class="ss19prop5_-0zf000_-0zf001_0zf109" opacity="1" style="user-select: none; transform-origin: 0px 0px 0px; transform: matrix(1, 0, 0, 1, 1340.75, 552.613);" data-svg-origin="12.253204345699942 13.249899780272926"><path fill="rgb(95,67,58)" fill-opacity="1" d="M0 0 M24.25,16.25 C24.25,16.25 13.75,13.25 2.75,26.25 C2.75,26.25 0.25,15.25 0.25,15.25 C0.25,15.25 17.25,0.25 22.25,7.25 C22.25,7.25 24.25,16.25 24.25,16.25z"></path></g><g class="ss18prop5_-0zf000_-0zf001_0zf109" opacity="1" style="user-select: none; transform-origin: 0px 0px 0px; transform: matrix(1, 0, 0, 1, 1333.75, 508.113);" data-svg-origin="11.003204345699942 10.75000659179699"><path fill="rgb(95,67,58)" fill-opacity="1" d="M0 0 M21.75,12.25 C21.75,12.25 6.25,8.75 0.25,21.25 C0.25,21.25 0.25,12.25 0.25,12.25 C0.25,12.25 5.25,0.25 20.25,5.75 C20.25,5.75 21.75,12.25 21.75,12.25z"></path></g><g class="ss17prop5_-0zf000_-0zf001_0zf109" opacity="1" style="user-select: none; transform-origin: 0px 0px 0px; transform: matrix(1, 0, 0, 1, 1338.75, 849.613);" data-svg-origin="26.75320434569994 12.249899780272926"><path fill="rgb(95,67,58)" fill-opacity="1" d="M0 0 M53.25,0.25 C53.25,0.25 36.25,12.583 3.25,7.583 C3.25,7.583 0.25,20.917 0.25,20.917 C0.25,20.917 46.584,24.25 52.584,14.583 C52.584,14.583 53.25,0.25 53.25,0.25z"></path></g><g class="ss16prop3_0zf020_-0zf023_0zf062" opacity="1" style="user-select: none; transform-origin: 0px 0px 0px; transform: matrix(1, 0, 0, 1, 1156.75, 380.613);" data-svg-origin="63.58670043944994 132.84349719238304"><path fill="rgb(146,146,93)" fill-opacity="1" d="M0 0 M126.917,13.583 C126.917,13.583 39.25,0.25 13.25,76.75 C13.25,76.75 0.25,155.25 19.584,180.23 C19.584,180.23 68.04599999999999,239.95499999999998 74.481,265.436 C74.481,265.436 74.25,252.916 59.584,229.583 C44.917,206.249 4.25,181.583 12.25,118.916 C12.25,118.916 2.25,32.583 98.25,17.25 C98.25,17.25 126.917,13.583 126.917,13.583z"></path></g><g class="s15prop3_0zf020_-0zf023_0zf062" opacity="1" style="user-select: none; transform-origin: 0px 0px 0px; transform: matrix(1, 0, 0, 1, 1124.75, 348.7);" data-svg-origin="73.42019653319994 51.20650939941402"><path fill="rgb(146,146,93)" fill-opacity="1" d="M0 0 M3.584,20.163 C3.584,20.163 6.917,86.163 6.917,86.163 C6.917,86.163 19.584,70.83 19.584,70.83 C19.584,70.83 23.584,36.83 23.584,36.83 C23.584,36.83 24.917,62.163 24.917,62.163 C24.917,62.163 41.584,44.83 41.584,44.83 C41.584,44.83 42.697,11.125 42.697,11.125 C42.697,11.125 55.584,40.163 55.584,40.163 C55.584,40.163 102.917,32.163 102.917,32.163 C102.917,32.163 102.979,0.25 102.979,0.25 C102.979,0.25 118.917,36.163 118.917,36.163 C118.917,36.163 146.584,44.496 146.584,44.496 C146.584,44.496 132.25,41.663 132.25,41.663 C132.25,41.663 114.917,37.496 114.917,37.496 C114.917,37.496 105.584,15.496 105.584,15.496 C105.584,15.496 106.25,34.163 106.25,34.163 C106.25,34.163 52.421,43.751 52.421,43.751 C52.421,43.751 44.917,26.163 44.917,26.163 C44.917,26.163 45.25,44.163 45.25,44.163 C45.25,44.163 0.25,102.163 0.25,102.163 C0.25,102.163 3.584,20.163 3.584,20.163z"></path></g><g class="ss14prop3_0zf020_-0zf023_0zf062" opacity="1" style="user-select: none; transform-origin: 0px 0px 0px; transform: matrix(1, 0, 0, 1, 1202.75, 404.947);" data-svg-origin="63.25320434569994 120.67600109863304"><path fill="rgb(146,146,93)" fill-opacity="1" d="M0 0 M100.917,0.25 C100.917,0.25 122.917,25.917 84.917,63.25 C84.917,63.25 41.584,13.917 41.584,13.917 C41.584,13.917 77.584,79.917 77.584,79.917 C77.584,79.917 55.584,132.583 55.584,132.583 C55.584,132.583 0.25,73.25 0.25,73.25 C0.25,73.25 46.25,147.25 46.25,147.25 C46.25,147.25 28.481,241.103 28.481,241.103 C28.481,241.103 50.917,142.583 50.917,142.583 C50.917,142.583 22.25,101.917 22.25,101.917 C22.25,101.917 56.207,141.07 56.207,141.07 C56.207,141.07 80.907,78.321 80.907,78.321 C80.907,78.321 56.917,36.583 56.917,36.583 C56.917,36.583 83.25,68.917 83.25,68.917 C83.25,68.917 126.25,22.25 100.917,0.25z"></path></g><g class="ss13prop3_0zf020_-0zf023_0zf062" opacity="1" style="user-select: none; transform-origin: 0px 0px 0px; transform: matrix(1, 0, 0, 1, 1296.88, 392.38);" data-svg-origin="75.18869506835995 71.86650573730498"><path fill="rgb(146,146,93)" fill-opacity="1" d="M0 0 M110.786,111.15 C110.786,111.15 112.119,85.483 112.119,85.483 C112.119,85.483 99.453,101.15 99.453,101.15 C99.453,101.15 91.453,92.483 91.453,92.483 C91.453,92.483 90.119,56.483 90.119,56.483 C90.119,56.483 80.786,85.15 80.786,85.15 C80.786,85.15 70.786,73.817 70.786,73.817 C70.786,73.817 64.119,45.483 64.119,45.483 C64.119,45.483 61.786,66.817 61.786,66.817 C17.786,35.48299999999999 0.25,0.25 0.25,0.25 C7.713,30.016 63.119,70.483 63.119,70.483 C63.119,70.483 64.119,58.483 64.119,58.483 C64.119,58.483 65.453,70.483 65.453,70.483 C65.453,70.483 83.119,90.483 83.119,90.483 C83.119,90.483 88.119,71.817 88.119,71.817 C88.119,71.817 88.119,93.483 88.119,93.483 C88.119,93.483 101.119,106.483 101.119,106.483 C101.119,106.483 109.453,94.483 109.453,94.483 C109.453,94.483 107.119,110.483 107.119,110.483 C107.119,110.483 124.119,129.817 150.119,143.483 C150.119,143.483 114.786,119.15 110.786,111.15z"></path></g><g class="ss12prop3_0zf020_-0zf048_0zf046" opacity="1" style="user-select: none; transform-origin: 0px 0px 0px; transform: matrix(1, 0, 0, 1, 1167.14, 394.113);" data-svg-origin="57.05670104979981 124.50000659179699"><path fill="rgb(155,155,93)" fill-opacity="1" d="M0 0 M113.863,0.25 C103.439,0.392 93.106,2.404 83.191,5.508 C73.295,8.697 63.794,13.148 55.156,18.932 C50.845,21.831 46.757,25.056 42.925,28.558 C40.983,30.285 39.184999999999995,32.16 37.364,34.01 C35.635,35.946999999999996 33.867,37.849000000000004 32.269,39.898 C30.586,41.875 29.123,44.032000000000004 27.558,46.109 C26.012,48.193000000000005 24.564,50.349000000000004 23.176,52.545 C20.395,56.933 17.849,61.47 15.503,66.104 C10.908999999999999,75.417 7.087,85.14099999999999 4.579,95.217 C3.391,100.267 2.365,105.359 1.821,110.521 C1.587,113.111 1.196,115.671 1.238,118.254 C1.2389999999999999,120.84 1.358,123.43299999999999 1.607,126.014 C2.501,136.34799999999998 5.077000000000001,146.527 9.085,156.099 C11.103000000000002,160.879 13.465000000000002,165.517 16.161,169.954 C18.91,174.35500000000002 21.815,178.698 24.634,183.073 C24.634,183.073 24.602,183.032 24.602,183.032 C28.917,187.851 33.027,192.832 37.009,197.918 C40.979,203.011 44.811,208.21800000000002 48.372,213.609 C51.926,219.001 55.253,224.557 58.079,230.369 C59.476,233.28 60.751,236.254 61.787,239.314 C62.819,242.37 63.611,245.528 63.863,248.75 C63.572,245.532 62.744,242.389 61.676,239.351 C60.607,236.31 59.300000000000004,233.358 57.871,230.471 C54.982,224.707 51.598,219.20399999999998 47.987,213.867 C44.373000000000005,208.53 40.556,203.329 36.562,198.268 C32.568999999999996,193.209 28.439,188.24699999999999 24.125,183.468 C24.125,183.468 24.106,183.448 24.106,183.448 C24.106,183.448 24.092,183.427 24.092,183.427 C21.250999999999998,179.05599999999998 18.343,174.749 15.554,170.325 C12.822,165.86999999999998 10.424,161.209 8.37,156.4 C4.292999999999999,146.774 1.6509999999999998,136.521 0.706,126.095 C0.44499999999999995,123.492 0.313,120.876 0.301,118.253 C0.25,115.616 0.634,113.005 0.859,110.41 C1.035,107.798 1.585,105.232 1.975,102.646 C2.162,101.35 2.467,100.078 2.763,98.804 C2.763,98.804 3.641,94.981 3.641,94.981 C6.21,84.836 10.096,75.07000000000001 14.753,65.727 C17.132,61.077000000000005 19.709,56.528 22.523,52.128 C23.926,49.926 25.394,47.760000000000005 26.961,45.667 C28.537999999999997,43.59 30.012,41.434999999999995 31.717,39.449 C33.333999999999996,37.394 35.122,35.485 36.87,33.543 C38.711,31.688 40.528,29.81 42.488,28.08 C46.359,24.570999999999998 50.485,21.344 54.833,18.446 C63.542,12.673000000000002 73.10000000000001,8.202 83.081,5.154 C93.063,2.158 103.436,0.268 113.863,0.25z"></path></g><g class="ss11prop3_0zf009_0zf017_0zf063" opacity="1" style="user-select: none; transform-origin: 0px 0px 0px; transform: matrix(1, 0, 0, 1, 1157.45, 296.882);" data-svg-origin="59.09809570311995 31.76959606933599"><path fill="rgb(138,142,97)" fill-opacity="1" d="M0 0 M117.16,63.29 C117.16,63.29 88.16,26.29 88.16,26.29 C67.158,2.727999999999998 44.543,1.282 29.273,4.223 C12.706,7.413 0.974,16.289 0.857,16.378 C0.857,16.378 0.25,15.584 0.25,15.584 C0.368,15.494 12.288,6.476000000000001 29.084,3.24 C44.606,0.25 67.59200000000001,1.711000000000002 88.927,25.649 C88.927,25.649 117.947,62.673 117.947,62.673 C117.947,62.673 117.16,63.29 117.16,63.29z"></path></g><g class="ss10prop3_0zf020_-0zf048_0zf046" opacity="1" style="user-select: none; transform-origin: 0px 0px 0px; transform: matrix(1, 0, 0, 1, 1284.44, 261.613);" data-svg-origin="33.40669494628992 49.25000659179699"><path fill="rgb(155,155,93)" fill-opacity="1" d="M0 0 M66.563,0.25 C61.752,2.313 57.135,4.797000000000001 52.704,7.562 C48.257,10.305 43.979,13.315999999999999 39.927,16.604 C31.814,23.163 24.551,30.777 18.578,39.317 C15.61,43.599000000000004 12.972,48.103 10.667,52.774 C8.394,57.467 6.583,62.361000000000004 5.005,67.331 C4.641,68.58200000000001 4.3260000000000005,69.84700000000001 3.983,71.105 C3.983,71.105 3.478,72.995 3.478,72.995 C3.329,73.63000000000001 3.211,74.27199999999999 3.077,74.91 C3.077,74.91 2.293,78.745 2.293,78.745 C2.077,80.03200000000001 1.917,81.328 1.722,82.619 C1.269,85.194 1.1320000000000001,87.807 0.881,90.409 C0.73,91.71000000000001 0.755,93.02 0.699,94.326 C0.699,94.326 0.563,98.25 0.563,98.25 C0.24999999999999994,87.785 1.4480000000000004,77.244 4.267,67.115 C5.74,62.068999999999996 7.596,57.135000000000005 9.846,52.38 C12.147,47.651 14.782,43.084999999999994 17.758,38.745 C23.855999999999998,30.171999999999997 31.178000000000004,22.479999999999997 39.45,16.005 C47.736000000000004,9.57 56.798,4.058 66.563,0.25z"></path></g><g class="ss9prop3_0zf020_-0zf023_0zf062" opacity="1" style="user-select: none; transform-origin: 0px 0px 0px; transform: matrix(1, 0, 0, 1, 1301.25, 297.614);" data-svg-origin="77.00320434569994 41.01350244140605"><path fill="rgb(146,146,93)" fill-opacity="1" d="M0 0 M125.25,0.25 C125.25,0.25 150.25,36.25 148.75,53.75 C148.75,53.75 131.25,54.25 131.25,54.25 C131.25,54.25 102.417,23.917 102.417,23.917 C102.417,23.917 113.25,51.25 113.25,51.25 C113.25,51.25 92.25,50.25 69.75,8.25 C69.75,8.25 76.75,42.75 90.25,53.75 C90.25,53.75 82.25,56.25 82.25,56.25 C82.25,56.25 68.25,36.25 68.25,36.25 C68.25,36.25 70.75,58.75 70.75,58.75 C70.75,58.75 25.75,78.25 0.25,74.75 C0.25,74.75 17.108000000000004,81.779 73.68,60.515 C73.68,60.515 71.25,44.75 71.25,44.75 C71.25,44.75 81.099,58.257 81.099,58.257 C81.099,58.257 95.75,54.75 95.75,54.75 C95.75,54.75 82.25,45.75 77.25,26.25 C77.25,26.25 94.006,54.20399999999999 118.378,55.477 C118.378,55.477 108.25,33.75 108.25,33.75 C108.25,33.75 129.056,56.579 129.056,56.579 C129.056,56.579 150.75,55.25 150.75,55.25 C150.75,55.25 153.75,33.25 125.25,0.25z"></path></g><g class="ss8prop3_0zf009_0zf035_0zf039" opacity="1" style="user-select: none; transform-origin: 0px 0px 0px; transform: matrix(1, 0, 0, 1, 931.347, 967.46);" data-svg-origin="302.66270458984013 56.39470581054991"><path fill="rgb(144,146,105)" fill-opacity="1" d="M0 0 M0.25,0.25 C0.25,0.25 274.736,43.402 274.736,43.402 C274.736,43.402 228.239,53.902 228.239,53.902 C228.239,53.902 517.246,112.54 517.246,112.54 C517.246,112.54 605.075,112.54 605.075,112.54 C605.075,112.54 268.737,54.248 268.737,54.248 C268.737,54.248 321.234,43.748 321.234,43.748 C321.234,43.748 37.748,0.25 37.748,0.25 C37.748,0.25 0.25,0.25 0.25,0.25z"></path></g><g class="ss7prop3_0zf009_0zf035_0zf039" opacity="1" style="user-select: none; transform-origin: 0px 0px 0px; transform: matrix(1, 0, 0, 1, 289.132, 979.459);" data-svg-origin="96.36859509277298 50.39561425781005"><path fill="rgb(144,146,105)" fill-opacity="1" d="M0 0 M121.992,16.75 C121.992,16.75 10.997,19.75 10.997,19.75 C10.997,19.75 157.99,58.748 157.99,58.748 C157.99,58.748 0.25,100.541 0.25,100.541 C0.25,100.541 44.13,100.541 44.13,100.541 C44.13,100.541 189.488,60.248 189.488,60.248 C189.488,60.248 37.996,22.403 37.996,22.403 C37.996,22.403 192.488,19.75 192.488,19.75 C192.488,19.75 18.497,0.25 18.497,0.25 C18.497,0.25 121.992,16.75 121.992,16.75z"></path></g><g class="ss6prop1_0zf007_0zf094_0zf049" opacity="1" style="user-select: none; transform-origin: 0px 0px 0px; transform: matrix(1, 0, 0, 1, 1060.26, 37.114);" data-svg-origin="431.4946997070301 16.050901733398405"><path fill="rgb(244,170,109)" fill-opacity="1" d="M0 0 M856.747,7.939 C854.4599999999999,2.394 740.1899999999999,3.8890000000000002 727.391,4.059 C667.699,4.852 610.7679999999999,12.337 551.819,14.481 C468.22599999999994,17.519 383.551,15.608999999999998 299.685,17.845 C199.476,20.516 100.244,27.656 0.25,30.804 C86.746,28.017999999999997 177.053,25.064 264.901,22.943 C311.404,21.821 358.262,21.66 404.594,24.165 C447.322,26.476 489.84000000000003,31.852 533.128,29.614 C633.293,24.434 764.74,0.25 862.747,23.241 C862.747,23.241 856.909,8.352 856.747,7.939z"></path></g><g class="ss5prop1_0zf007_0zf094_0zf049" opacity="1" style="user-select: none; transform-origin: 0px 0px 0px; transform: matrix(1, 0, 0, 1, -15.744, 101.484);" data-svg-origin="317.498684448242 10.359002319336"><path fill="rgb(244,170,109)" fill-opacity="1" d="M0 0 M4.664,5.169 C6.3469999999999995,1.6209999999999996 90.41,2.578 99.826,2.686 C143.738,3.193 185.62,7.982999999999999 228.985,9.354 C290.481,11.297999999999998 352.772,10.076 414.467,11.506 C488.187,13.215 561.187,17.783 634.748,19.797 C571.1170000000001,18.015 504.683,16.125 440.057,14.768 C405.84700000000004,14.05 371.376,13.947000000000001 337.292,15.55 C305.85799999999995,17.028000000000002 274.58000000000004,20.468 242.735,19.036 C169.049,15.722000000000001 72.35,0.25 0.25,14.959 C0.25,14.959 4.545,5.433 4.664,5.169z"></path></g><g class="ss4prop1_0zf007_0zf094_0zf049" opacity="1" style="user-select: none; transform-origin: 0px 0px 0px; transform: matrix(1, 0, 0, 1, -7.742, -1.761);" data-svg-origin="717.498622314453 19.9996932373047"><path fill="rgb(244,170,109)" fill-opacity="1" d="M0 0 M10.229,9.861 C14.033,2.9300000000000006 204.086,4.799 225.375,5.011 C324.652,6.002 419.34099999999995,15.358999999999998 517.382,18.037 C656.415,21.835 797.2460000000001,19.448 936.729,22.242 C1103.396,25.580000000000002 1268.438,34.504999999999995 1434.748,38.44 C1290.888,34.957 1140.69,31.264999999999997 994.582,28.615 C917.238,27.212 839.306,27.009999999999998 762.248,30.142 C691.181,33.03 620.466,39.75 548.47,36.952 C381.87600000000003,30.477999999999998 163.255,0.25 0.25,28.987 C0.25,28.987 9.959,10.378 10.229,9.861z"></path></g><g class="ss3prop1_0zf014_-0zf047_-0zf018" opacity="1" style="user-select: none; transform-origin: 0px 0px 0px; transform: matrix(1, 0, 0, 1, -1.246, 111.506);" data-svg-origin="308.249692626953 4.924511474609005"><path fill="rgb(255,182,133)" fill-opacity="1" d="M0 0 M0.25,5.358 C3.332,4.449 6.518000000000001,3.946 9.691,3.47 C11.283000000000001,3.261 12.870000000000001,3.001 14.467,2.835 C14.467,2.835 19.259,2.318 19.259,2.318 C22.456,1.998 25.662,1.787 28.863,1.515 C28.863,1.515 38.486,0.971 38.486,0.971 C41.695,0.813 44.907000000000004,0.737 48.118,0.616 C51.329,0.482 54.541,0.43 57.753,0.391 C57.753,0.391 67.391,0.25 67.391,0.25 C67.391,0.25 77.029,0.273 77.029,0.273 C102.731,0.43500000000000005 128.416,1.5030000000000001 154.078,2.857 C166.901,3.6620000000000004 179.735,4.327 192.543,5.356 C192.543,5.356 211.763,6.783 211.763,6.783 C218.153,7.299 224.542,7.62 230.944,7.673 C237.34599999999998,7.768 243.729,7.464 250.167,7.267 C256.592,7.029 263.015,6.931 269.438,6.767 C269.438,6.767 288.709,6.434 288.709,6.434 C288.709,6.434 307.979,6.199 307.979,6.199 C333.673,5.995 359.366,5.966 385.058,6.002 C410.75,6.05 436.442,6.143000000000001 462.132,6.437 C487.822,6.698 513.511,7.07 539.199,7.503 C564.885,8.022 590.57,8.633000000000001 616.25,9.358 C590.562,8.96 564.874,8.675 539.186,8.481 C513.498,8.251 487.81,8.049 462.121,7.975 C410.745,7.7829999999999995 359.36699999999996,7.6899999999999995 307.998,8.196 C307.998,8.196 288.735,8.386 288.735,8.386 C288.735,8.386 269.476,8.673 269.476,8.673 C263.059,8.822 256.637,8.905999999999999 250.225,9.129 C243.82399999999998,9.309 237.369,9.601 230.924,9.49 C224.481,9.421 218.03400000000002,9.083 211.622,8.548 C211.622,8.548 192.416,7.078 192.416,7.078 C186.015,6.577 179.613,6.093 173.205,5.689 C173.205,5.689 153.988,4.385 153.988,4.385 C128.35399999999998,2.846 102.696,1.6139999999999999 77.02,1.246 C77.02,1.246 67.391,1.101 67.391,1.101 C67.391,1.101 57.762,1.12 57.762,1.12 C54.551,1.1190000000000002 51.341,1.129 48.133,1.224 C44.924,1.304 41.714,1.339 38.506,1.457 C38.506,1.457 28.886,1.879 28.886,1.879 C25.686,2.11 22.479,2.28 19.281,2.561 C19.281,2.561 14.488,3.016 14.488,3.016 C12.889,3.162 11.302,3.4019999999999997 9.708,3.59 C6.531000000000001,4.026 3.343,4.489 0.25,5.358z"></path></g><g class="ss2prop1_0zf014_-0zf047_-0zf018" opacity="1" style="user-select: none; transform-origin: 0px 0px 0px; transform: matrix(1, 0, 0, 1, 1065.75, 53.446);" data-svg-origin="428.75320434569994 7.415694335937502"><path fill="rgb(255,182,133)" fill-opacity="1" d="M0 0 M857.25,6.909 C830.466,4.542 803.603,3.173 776.733,2.355 C749.8629999999999,1.541 722.976,1.371 696.102,1.813 C682.6619999999999,1.942 669.233,2.4979999999999998 655.804,2.949 C649.092,3.2359999999999998 642.385,3.645 635.675,3.988 C635.675,3.988 625.612,4.526 625.612,4.526 C625.612,4.526 615.562,5.265 615.562,5.265 C615.562,5.265 595.462,6.739 595.462,6.739 C595.462,6.739 575.402,8.67 575.402,8.67 C575.402,8.67 565.374,9.643 565.374,9.643 C565.374,9.643 555.373,10.868 555.373,10.868 C555.373,10.868 535.373,13.318 535.373,13.318 C535.373,13.318 535.636,13.241 535.636,13.241 C535.2959999999999,13.379 535.181,13.38 534.967,13.442 C534.7669999999999,13.498 534.5909999999999,13.525 534.411,13.557 C534.0519999999999,13.617 533.684,13.701 533.334,13.736 C532.627,13.817 531.9150000000001,13.933 531.214,13.98 C531.214,13.98 529.104,14.161 529.104,14.161 C529.104,14.161 527.002,14.278 527.002,14.278 C525.5999999999999,14.369 524.2,14.404 522.801,14.446 C521.4000000000001,14.495 520.0010000000001,14.532 518.604,14.537 C518.604,14.537 514.409,14.582 514.409,14.582 C514.409,14.582 510.218,14.56 510.218,14.56 C507.423,14.56 504.631,14.504999999999999 501.839,14.447 C490.671,14.223999999999998 479.515,13.782 468.366,13.229 C446.06899999999996,12.125 423.796,10.67 401.541,8.99 C395.977,8.592 390.417,8.31 384.854,7.964 C379.292,7.646000000000001 373.73400000000004,7.244000000000001 368.16,7.113 C357.01800000000003,6.753 345.88,6.254 334.728,6.162 C334.728,6.162 318.003,5.889 318.003,5.889 C312.429,5.807 306.852,5.8420000000000005 301.275,5.812 C301.275,5.812 284.547,5.769 284.547,5.769 C284.547,5.769 267.817,5.898 267.817,5.898 C223.20600000000002,6.27 178.596,7.306000000000001 134.001,8.823 C111.703,9.575000000000001 89.40700000000001,10.416 67.114,11.313 C44.822,12.254000000000001 22.532,13.253 0.25,14.417 C44.794,11.733 89.364,9.431 133.96,7.699 C178.555,5.99 223.168,4.6049999999999995 267.803,4.17 C267.803,4.17 284.54,4.013 284.54,4.013 C284.54,4.013 301.28,4.027 301.28,4.027 C306.85999999999996,4.047 312.44,4.002999999999999 318.021,4.076 C318.021,4.076 334.761,4.32 334.761,4.32 C345.922,4.393000000000001 357.07800000000003,4.8740000000000006 368.237,5.216 C373.817,5.338 379.391,5.731 384.966,6.04 C390.539,6.377 396.122,6.651 401.687,7.039 C423.935,8.651 446.19,10.157 468.462,11.3 C479.597,11.871 490.737,12.331 501.877,12.573 C504.661,12.636000000000001 507.44599999999997,12.694999999999999 510.229,12.7 C510.229,12.7 514.405,12.729 514.405,12.729 C514.405,12.729 518.577,12.69 518.577,12.69 C519.969,12.687999999999999 521.357,12.654 522.745,12.607 C524.134,12.568 525.522,12.535 526.903,12.448 C526.903,12.448 528.979,12.337 528.979,12.337 C528.979,12.337 531.038,12.163 531.038,12.163 C531.729,12.118 532.395,12.008 533.074,11.933 C533.418,11.899 533.73,11.824 534.061,11.772 C534.2230000000001,11.743 534.393,11.716999999999999 534.528,11.677 C534.65,11.647 534.88,11.587 534.864,11.594 C534.864,11.594 535.128,11.516 535.128,11.516 C535.128,11.516 555.165,9.096 555.165,9.096 C555.165,9.096 565.184,7.886 565.184,7.886 C565.184,7.886 575.229,6.929 575.229,6.929 C575.229,6.929 595.319,5.029 595.319,5.029 C595.319,5.029 615.448,3.598 615.448,3.598 C615.448,3.598 625.514,2.909 625.514,2.909 C625.514,2.909 635.591,2.422 635.591,2.422 C642.3100000000001,2.113 649.025,1.737 655.746,1.484 C669.191,1.1019999999999999 682.6339999999999,0.6140000000000001 696.084,0.553 C722.9799999999999,0.25000000000000006 749.886,0.5210000000000001 776.759,1.624 C803.631,2.686 830.487,4.3 857.25,6.909z"></path></g><g class="ss1prop1_0zf014_-0zf047_-0zf018" opacity="1" style="user-select: none; transform-origin: 0px 0px 0px; transform: matrix(1, 0, 0, 1, 313.378, 19.508);" data-svg-origin="239.4882109375 7.662501708984401"><path fill="rgb(255,182,133)" fill-opacity="1" d="M0 0 M0.25,0.25 C20.146,1.856 40.059,3.2380000000000004 59.981,4.437 C79.897,5.727 99.824,6.859999999999999 119.755,7.856 C159.619,9.857 199.50099999999998,11.436 239.402,12.33 C279.301,13.303 319.212,13.41 359.118,12.948 C379.064,12.435 399.02200000000005,12.195 418.951,11.142 C438.904,10.549 458.802,9.008 478.726,7.75 C458.831,9.333 438.946,11.200999999999999 418.999,12.12 C399.06800000000004,13.375 379.104,13.785 359.147,14.486 C349.166,14.674000000000001 339.183,14.795 329.2,14.911 C324.209,14.95 319.217,15.077 314.226,15.045 C314.226,15.045 299.251,14.999 299.251,14.999 C299.251,14.999 284.276,14.954 284.276,14.954 C284.276,14.954 276.788,14.931 276.788,14.931 C276.788,14.931 269.302,14.812 269.302,14.812 C269.302,14.812 239.356,14.327 239.356,14.327 C199.438,13.265 159.533,11.716 119.672,9.385 C99.743,8.202 79.821,6.9030000000000005 59.914,5.407 C40.009,3.8840000000000003 20.118,2.1790000000000003 0.25,0.25z"></path></g></g></g></g></svg>