<?xml version="1.0" standalone="no"?>
<svg xmlns="http://www.w3.org/2000/svg" viewBox="0 0 1920 1080" width="1920" height="1080" preserveAspectRatio="xMidYMid meet" style="width: 100%; height: 100%;"><defs><mask id="ly_UtrDPXBHk3" mask-type="alpha"><g class="mask" transform="matrix(1,0,0,1,0,0)" opacity="1" style="transform: matrix(1, 0, 0, 1, 0, 0);"><rect width="1920" height="1080" fill="#141414"></rect></g></mask></defs><g><g mask="url(#ly_UtrDPXBHk3)"><g class="charMc" opacity="1" data-svg-origin="960 540" style="transform-origin: 0px 0px 0px; transform: matrix(1, 0, 0, 1, 0, 0);"><g class="12f1prop1_0_0_0" opacity="1" style="user-select: none; transform-origin: 0px 0px 0px; transform: matrix(1, 0, 0, 1, -0.25, -0.25);" data-svg-origin="960.25 540.25"><path fill="rgb(137,164,233)" fill-opacity="1" d="M0 0 M0.25,1080.25 C0.25,1080.25 1920.25,1080.25 1920.25,1080.25 C1920.25,1080.25 1920.25,0.25 1920.25,0.25 C1920.25,0.25 0.25,0.25 0.25,0.25 C0.25,0.25 0.25,1080.25 0.25,1080.25z"></path></g><g class="11f1prop2_0zf833_0zf031_-0zf082" opacity="1" style="user-select: none; transform-origin: 0px 0px 0px; transform: matrix(1, 0, 0, 1, 32.984, 20.111);" data-svg-origin="932.0072872314449 511.77329260253896"><path fill="rgb(244,244,244)" fill-opacity="1" d="M0 0 M1855.234,919.625 C1856.781,892.909 1853.605,876.846 1854.423,858.142 C1855.241,839.4390000000001 1855.601,637.641 1855.14,613.582 C1854.679,589.522 1850.454,461.189 1852.118,420.442 C1853.782,379.696 1856.58,361.678 1854.345,312.211 C1853.55,294.611 1853.1930000000002,274.898 1853.14,254.43 C1851.1200000000001,255.78400000000002 1849.096,257.134 1847.07,258.482 C1848.772,311.646 1849.0339999999999,365.71700000000004 1847.752,388.331 C1846.1989999999998,415.71500000000003 1843.901,453.116 1844.991,481.19 C1846.08,509.264 1842.675,520.5949999999999 1843.187,538.641 C1843.6979999999999,556.688 1846.7679999999998,585.4459999999999 1847.274,604.161 C1847.78,622.875 1846.46,701.713 1846.849,734.459 C1847.2379999999998,767.2049999999999 1848.0369999999998,830.023 1848.37,869.451 C1848.703,908.878 1846.55,928.9069999999999 1847.1,942.275 C1847.6509999999998,955.644 1849.907,1002.661 1849.205,1007.332 C1848.5049999999999,1012.004 1802.422,1007.384 1755.174,1010.104 C1708.08,1012.816 1615.9399999999998,1008.486 1564.945,1010.73 C1513.95,1012.9730000000001 1406.048,1011.842 1386.194,1011.007 C1385.519,1010.978 1384.79,1010.9459999999999 1384.019,1010.91 C1357.064,1008.653 1304.743,1005.4019999999999 1276.866,1006.79 C1242.426,1008.505 1221.248,1007.6579999999999 1202.05,1007.497 C1182.853,1007.3349999999999 1155.695,1009.111 1122.578,1010.837 C1089.463,1012.562 1031.236,1008.731 1013.351,1009.917 C995.466,1011.1030000000001 988.19,1010.373 971.624,1012.238 C955.057,1014.104 921.285,1015.1560000000001 876.954,1012.11 C832.6229999999999,1009.064 807.4680000000001,1008.852 789.594,1008.701 C771.721,1008.551 725.432,1002.147 705.561,1003.316 C685.691,1004.485 672.4789999999999,1001.0329999999999 645.977,1003.483 C619.475,1005.933 595.666,1003.059 578.466,1001.578 C561.265,1000.097 511.005,993.66 444.133,994.433 C377.26099999999997,995.207 344.79600000000005,998.274 322.934,1000.095 C320.53700000000003,1000.294 317.623,1000.441 314.304,1000.547 C318.948,994.07 322.404,985.402 324.063,973.936 C334.71299999999997,900.356 245.271,899.3149999999999 207.7,940.982 C207.7,940.982 243.70800000000003,859.694 174.002,838.394 C104.29700000000001,817.094 74.285,874.216 74.285,874.216 C74.285,874.216 82.998,832.5849999999999 28.782,837.425 C23.457,837.901 18.619,838.567 14.207,839.393 C14.334000000000001,824.9920000000001 14.162,809.9699999999999 13.49,795.021 C10.699,732.853 9.989,659.344 11.541,631.96 C13.094000000000001,604.576 15.392,567.1759999999999 14.302,539.102 C13.213,511.027 16.617,499.697 16.106,481.65 C15.594000000000001,463.604 12.524000000000001,434.84499999999997 12.019,416.131 C11.513,397.416 12.833,318.57800000000003 12.444,285.833 C12.055000000000001,253.08700000000002 11.255,190.268 10.923,150.841 C10.59,111.41400000000002 12.743,91.385 12.192,78.016 C11.642,64.64800000000001 9.386,17.631 10.087,12.959 C10.788,8.288 56.871,12.908 104.119,10.187 C151.213,7.475999999999999 243.353,11.805 294.348,9.562 C345.343,7.318 453.245,8.449 473.099,9.285 C492.953,10.120000000000001 555.591,14.211 575.467,12.374 C595.3439999999999,10.537 674.101,13.427 707.206,13.038 C740.311,12.648 1058.726,15.329 1097.132,14.316 C1135.538,13.303 1209.681,13.927000000000001 1221.585,15.364 C1229.9660000000001,16.375 1245.895,17.118000000000002 1261.295,16.826 C1261.295,16.826 1261.294,16.999 1261.294,16.999 C1268.452,17.558 1275.023,18.214000000000002 1280.827,18.713 C1298.028,20.195 1348.288,26.631 1415.16,25.858 C1482.0320000000002,25.085 1514.4969999999998,22.017 1536.359,20.197 C1558.221,18.375999999999998 1623.079,20.927 1646.26,19.786 C1669.44,18.644000000000002 1718.388,23.733999999999998 1766.057,23.467 C1813.725,23.2 1834.92,22.042 1837.557,23.401 C1840.194,24.759 1839.493,29.432000000000002 1844.043,39.493 C1848.5929999999998,49.554 1849.082,70.273 1848.959,84.973 C1848.837,99.672 1843.0110000000002,163.10299999999998 1845.803,225.271 C1846.2890000000002,236.09799999999998 1846.712,247.27100000000002 1847.07,258.482 C1849.096,257.134 1851.1200000000001,255.78400000000002 1853.14,254.43 C1853.045,217.368 1853.952,177.826 1855.089,143.827 C1856.8529999999998,91.053 1863.763,56.364 1858.567,44.293 C1853.372,32.222 1848.749,30.845 1850.813,21.508 C1852.8770000000002,12.171 1853.584,6.831 1849.606,7.466 C1845.629,8.1 1838.975,12.054 1813.158,11.836 C1787.341,11.619 1684.049,13.422 1662.22,11.234 C1640.391,9.045 1542.423,7.5520000000000005 1501.329,13.22 C1460.2359999999999,18.888 1393.404,14.984 1366.935,13.425 C1343.452,12.041 1308.519,8.988 1273.654,9.02 C1242.3,7.4719999999999995 1200.598,5.833 1159.437,5.486 C1077.3509999999999,4.795 819.8159999999999,5.2989999999999995 799.295,5.127 C778.7729999999999,4.954 661.596,4.635 623.852,5.654 C586.107,6.673 554.343,5.068 505.373,2.651 C456.403,0.23399999999999999 409.396,0.506 359.731,2.093 C310.065,3.6790000000000003 280.73400000000004,1.428 255.567,2.552 C231.53,3.6260000000000003 192.458,2.0220000000000002 163.319,3.113 C134.18099999999998,4.204 131.335,1.5059999999999998 103.515,3.276 C75.694,5.047 63.133,2.937 63.133,2.937 C63.133,2.937 31.357999999999997,2.669 16.133,2.541 C0.9069999999999983,2.413 0.25,1.7400000000000002 1.491,11.773 C2.731,21.807000000000002 5.606,73.951 4.059,100.667 C2.5120000000000005,127.382 5.688,143.446 4.87,162.149 C4.0520000000000005,180.853 3.6919999999999997,382.65 4.153,406.71 C4.614,430.77 8.839,559.1020000000001 7.175,599.849 C5.511,640.596 2.712,658.615 4.948,708.081 C7.183,757.548 5.968999999999999,823.69 4.204,876.464 C2.4399999999999995,929.239 4.281,962.7479999999999 5.217,975.857 C6.103999999999999,988.2719999999999 6.104,986.4989999999999 6.547,995.81 C7.002,1005.362 6.546999999999999,1008.225 8.764,1009.112 C12.504,1010.608 21.179,1009.1120000000001 46.135,1008.455 C71.944,1007.7760000000001 175.244,1006.87 197.073,1009.058 C218.90200000000002,1011.246 316.87,1012.739 357.963,1007.072 C399.057,1001.404 465.889,1005.308 492.357,1006.867 C518.826,1008.4259999999999 559.841,1012.112 598.909,1011.105 C637.977,1010.0980000000001 673.702,1013.071 693.551,1014.575 C713.399,1016.0780000000001 742.4929999999999,1020.332 767.02,1016.53 C791.547,1012.727 822.6099999999999,1019.002 833.853,1020.433 C845.0949999999999,1021.864 858.3240000000001,1023.313 894.076,1022.946 C929.8290000000001,1022.5790000000001 968.236,1021.5659999999999 988.095,1021.733 C1007.955,1021.9 1062.232,1023.0250000000001 1084.089,1021.873 C1105.945,1020.721 1193.394,1013.438 1223.829,1015.698 C1245.95,1017.342 1320.884,1017.665 1369.324,1018.309 C1382.727,1018.823 1396.023,1019.149 1409.299,1019.305 C1425.221,1020.2199999999999 1463.6770000000001,1019.2909999999999 1489.113,1018.511 C1492.585,1018.413 1496.0649999999998,1018.309 1499.562,1018.198 C1549.2279999999998,1016.611 1578.5590000000002,1018.864 1603.726,1017.739 C1627.7630000000001,1016.6650000000001 1666.835,1018.27 1695.973,1017.179 C1725.1119999999999,1016.088 1727.958,1018.785 1755.778,1017.015 C1783.598,1015.245 1796.16,1017.354 1796.16,1017.354 C1796.16,1017.354 1827.9350000000002,1017.621 1843.16,1017.75 C1858.3860000000002,1017.878 1859.042,1018.552 1857.802,1008.518 C1856.562,998.485 1853.687,946.341 1855.234,919.625z"></path></g><g class="10f1prop2_0zf208_-0zf080_-0zf055" opacity="1" style="user-select: none; transform-origin: 0px 0px 0px; transform: matrix(1, 0, 0, 1, 1627.5, 104.051);" data-svg-origin="109.76460266113008 67.022501586914"><path fill="rgb(235,236,239)" fill-opacity="1" d="M0 0 M53.457,31.287 C53.457,31.287 18.872999999999998,22.863 9.562,49.466 C0.25,76.069 42.34,80.643 42.34,80.643 C42.34,80.643 28.465,108.595 55.15,118.935 C81.834,129.276 93.811,108.002 93.811,108.002 C93.811,108.002 102.45499999999998,133.796 146.903,127.767 C191.351,121.738 170.866,86.866 170.866,86.866 C170.866,86.866 209.53,105.776 214.407,72.079 C219.28400000000002,38.38099999999999 178.321,37.904 161.115,56.987 C161.115,56.987 177.606,19.759 145.682,10.004 C113.75799999999998,0.25 100.013,26.41 100.013,26.41 C100.013,26.41 104.00300000000001,7.343999999999999 79.174,9.561 C54.34400000000001,11.778 52.127,22.863 53.457,31.287z"></path></g><g class="9f1prop2_0zf208_-0zf080_-0zf055" opacity="1" style="user-select: none; transform-origin: 0px 0px 0px; transform: matrix(1, 0, 0, 1, 1481.95, 62.881);" data-svg-origin="76.00930480957004 43.821301025390994"><path fill="rgb(235,236,239)" fill-opacity="1" d="M0 0 M128.946,19.693 C119.521,17.378 112.627,18.21 107.684,20.16 C106.75099999999999,14.579 103.48100000000001,9.162 95.147,6.615 C74.316,0.25 65.347,17.32 65.347,17.32 C65.347,17.32 67.95,4.879 51.748,6.326 C35.547,7.773 34.1,15.006 34.968,20.503 C34.968,20.503 12.401,15.006 6.325,32.365 C0.25,49.724000000000004 27.714,52.709 27.714,52.709 C27.714,52.709 18.660000000000004,70.948 36.072,77.695 C53.484,84.442 61.3,70.561 61.3,70.561 C61.3,70.561 66.94,87.392 95.943,83.458 C112.519,81.21 115.253,72.81500000000001 114.556,66.034 C147.832,70.644 151.762,25.297 128.946,19.693z"></path></g><g class="8f1prop2_0_0_0" opacity="1" style="user-select: none; transform-origin: 0px 0px 0px; transform: matrix(1, 0, 0, 1, 1630.73, 109.313);" data-svg-origin="107.23409606934001 62.72690173339801"><path fill="rgb(224,222,224)" fill-opacity="1" d="M0 0 M49.419,24.8 C44.628,23.638 39.528000000000006,23.293000000000003 34.618,23.449 C25.726000000000003,23.731 16.588,26.269 10.263,32.839 C3.973,39.372 0.25,50.120999999999995 4.722,58.592 C8.558,65.859 16.877000000000002,70.142 24.294,72.818 C29.331,74.636 34.807,76.168 40.165,76.673 C40.254,76.681 40.343,76.695 40.432,76.705 C39.242000000000004,75.89999999999999 38.050999999999995,75.09400000000001 36.861,74.289 C35.385999999999996,77.27 34.442,80.61 33.843,83.867 C32.67700000000001,90.20700000000001 33.086,96.90299999999999 36.402,102.567 C41.436,111.16199999999999 51.92700000000001,115.638 61.328,117.299 C69.268,118.70200000000001 77.533,117.357 84.227,112.747 C87.546,110.461 90.822,107.38199999999999 92.83,103.832 C91.324,103.18599999999999 89.818,102.54 88.312,101.894 C89.54899999999999,105.56500000000001 92.274,108.927 94.989,111.59 C102.53,118.986 112.923,122.893 123.261,124.203 C131.171,125.20400000000001 139.29899999999998,124.834 147.159,123.586 C153.482,122.582 160.003,120.845 165.339,117.17 C168.9,114.717 171.816,111.365 173.32,107.28 C174.588,103.839 174.845,100.069 174.447,96.443 C174.107,93.34 173.296,90.29400000000001 172.183,87.382 C171.555,85.73700000000001 170.90599999999998,83.84299999999999 169.897,82.38 C169.849,82.31 169.81300000000002,82.228 169.769,82.154 C168.93200000000002,82.22999999999999 168.095,82.307 167.258,82.384 C172.145,84.77 177.51299999999998,86.412 182.843,87.42 C191.10299999999998,88.98400000000001 200.636,88.72200000000001 206.964,82.447 C210.919,78.524 212.73,72.99600000000001 213.47,67.593 C214.22299999999998,62.101000000000006 213.927,56.43 211.47,51.382 C206.994,42.185 196.23,37.949 186.517,37.717 C176.393,37.476 165.853,41.199 158.304,47.984 C157.371,48.823 156.48,49.704 155.636,50.632 C157.135,51.36 158.634,52.088 160.134,52.817 C161.79399999999998,49.06 162.872,44.955999999999996 163.597,40.928 C164.96900000000002,33.296 164.862,25.119 161.222,18.1 C155.958,7.949000000000002 144.15499999999997,3.207 133.408,1.675 C123.40799999999999,0.25 113.209,2.3489999999999993 105.046,8.414 C102.30900000000001,10.448 99.824,12.844000000000001 97.678,15.493 C96.598,16.826 95.416,18.278000000000002 94.657,19.832 C94.61999999999999,19.908 94.57300000000001,19.98 94.534,20.055 C96.033,20.783 97.532,21.511 99.032,22.24 C99.443,20.25 99.37899999999999,18.061999999999998 99.005,16.078 C98.143,11.501999999999999 95.152,7.971 91.114,5.767 C83.949,1.8550000000000004 75.31700000000001,2.406 67.554,3.853 C61.424,4.996 54.664,7.077 50.656,12.195 C47.757999999999996,15.896 47.257,20.659 47.958,25.179 C48.167,26.529 52.668,27.976 52.496,26.871 C51.935,23.249 52.129,19.519 53.922,16.246 C56.492,11.552 61.601,9.054 66.539,7.595 C70.69800000000001,6.367 75.102,5.737 79.427,5.513 C81.238,5.419 83.04899999999999,5.438 84.851,5.654 C86.158,5.81 87.593,6.123 88.538,6.468 C88.685,6.522 88.83,6.579 88.975,6.635 C89.353,6.779 88.63199999999999,6.476 88.993,6.637 C89.25999999999999,6.755999999999999 89.52199999999999,6.885000000000001 89.782,7.017 C90.047,7.152 89.69,6.967 89.663,6.952 C89.783,7.02 89.902,7.090999999999999 90.021,7.161 C90.137,7.231 90.251,7.304 90.364,7.378 C89.927,7.096 90.463,7.45 90.515,7.49 C91.13,7.964 91.72099999999999,8.491 92.228,9.167 C93.259,10.541 93.923,12.022 94.319,13.69 C94.82300000000001,15.814 94.93700000000001,18.105999999999998 94.534,20.055 C94.278,21.293 98.437,23.368 99.032,22.24 C100.844,18.802 103.62700000000001,15.682 106.504,13.118 C113.134,7.208 121.57400000000001,3.9019999999999997 130.473,3.9 C136.06900000000002,3.898 142.209,5.119 147.122,7.47 C148.966,8.352 150.614,9.369 152.242,10.843 C153.75,12.208 155.042,13.769 156.108,15.501 C160.054,21.913 160.447,29.927 159.354,37.199 C158.90800000000002,40.169 158.216,43.102000000000004 157.323,45.969 C156.858,47.459 156.127,48.92 155.726,50.421 C155.707,50.492 155.666,50.564 155.636,50.632 C155.115,51.811 159.291,53.744 160.134,52.817 C166.601,45.698 176.153,41.394 185.671,40.534 C187.892,40.333999999999996 190.12300000000002,40.321 192.342,40.559 C194.44600000000003,40.784 196.517,41.251000000000005 198.146,41.853 C198.381,41.940000000000005 198.615,42.032000000000004 198.848,42.124 C199.27200000000002,42.291000000000004 198.544,41.972 199.121,42.24 C199.602,42.463 200.081,42.69 200.547,42.943 C200.017,42.655 200.776,43.085 200.877,43.146 C201.08700000000002,43.272 201.293,43.403 201.499,43.536 C201.587,43.593 201.674,43.650000000000006 201.761,43.709 C201.683,43.655 201.41299999999998,43.461 201.777,43.727 C202.00199999999998,43.891 202.226,44.056000000000004 202.445,44.228 C203.159,44.787 203.74499999999998,45.33 204.492,46.16 C205.143,46.88399999999999 205.734,47.708999999999996 206.255,48.553 C208.828,52.721999999999994 209.52700000000002,57.782999999999994 209.252,62.602 C208.942,68.026 207.54899999999998,73.77 204.259,78.191 C199.22099999999998,84.961 190.58599999999998,86.253 182.789,85.197 C182.33599999999998,85.136 181.885,85.068 181.434,84.993 C181.21099999999998,84.95599999999999 180.988,84.917 180.765,84.878 C180.63899999999998,84.856 180.513,84.83200000000001 180.387,84.808 C180.595,84.84800000000001 180.474,84.82600000000001 180.337,84.799 C179.42399999999998,84.617 178.516,84.411 177.613,84.183 C176.766,83.97000000000001 175.923,83.737 175.085,83.487 C174.887,83.428 173.78199999999998,83.079 174.409,83.282 C174.017,83.155 173.625,83.026 173.235,82.893 C172.04500000000002,82.486 170.86599999999999,82.046 169.702,81.569 C169.492,81.48400000000001 169.284,81.395 169.075,81.309 C168.552,81.093 169.70399999999998,81.59 169.016,81.282 C168.771,81.172 168.526,81.062 168.282,80.951 C168.192,80.91 168.10299999999998,80.867 168.015,80.824 C167.631,80.637 164.67999999999998,79.649 165.503,81.055 C165.66199999999998,81.325 165.808,81.603 165.952,81.881 C166.12,82.204 166.28199999999998,82.53 166.439,82.859 C166.69799999999998,83.398 166.65800000000002,83.309 166.941,83.962 C168.031,86.477 168.89,89.101 169.44,91.788 C170.907,98.952 169.79299999999998,106.43499999999999 164.551,111.853 C160.85899999999998,115.669 155.751,117.929 150.725,119.377 C143.26399999999998,121.526 135.191,122.22999999999999 127.449,122.064 C124.16,121.993 120.866,121.678 117.628,121.101 C114.986,120.63 112.466,119.951 110.151,119.103 C109.622,118.90899999999999 109.09899999999999,118.702 108.576,118.492 C108.431,118.434 108.286,118.37200000000001 108.142,118.311 C108.563,118.49000000000001 108.192,118.332 108.113,118.297 C107.835,118.172 107.557,118.04700000000001 107.282,117.918 C106.74799999999999,117.668 106.22200000000001,117.402 105.697,117.133 C105.601,117.08399999999999 105.506,117.032 105.411,116.981 C105.068,116.8 105.768,117.181 105.433,116.994 C105.159,116.841 104.887,116.686 104.616,116.527 C104.208,116.288 103.804,116.03999999999999 103.406,115.785 C103.185,115.64399999999999 102.965,115.499 102.747,115.353 C103.152,115.624 102.58,115.236 102.454,115.147 C101.663,114.58500000000001 100.9,113.98899999999999 100.155,113.368 C100.089,113.31299999999999 100.023,113.256 99.958,113.2 C99.723,112.99900000000001 100.195,113.409 99.967,113.206 C99.821,113.07600000000001 99.67500000000001,112.946 99.531,112.814 C99.212,112.523 98.899,112.22500000000001 98.592,111.921 C98.023,111.35700000000001 97.479,110.77000000000001 96.95,110.168 C96.61,109.78 96.84599999999999,110.063 96.517,109.649 C96.301,109.378 96.086,109.10600000000001 95.878,108.828 C95.514,108.343 95.16499999999999,107.847 94.833,107.339 C94.32,106.55499999999999 93.846,105.74600000000001 93.426,104.909 C93.351,104.76 93.279,104.611 93.208,104.461 C93.113,104.264 93.29899999999999,104.691 93.139,104.306 C93.065,104.12899999999999 92.993,103.951 92.919,103.773 C92.89399999999999,103.71199999999999 92.872,103.649 92.85,103.586 C92.559,102.72 91.425,102.15299999999999 90.654,101.829 C90.181,101.63 88.705,100.988 88.332,101.648 C86.842,104.283 84.60000000000001,106.63499999999999 82.293,108.556 C76.971,112.987 70.251,115.396 63.309,115.158 C55.20399999999999,114.881 46.002,111.706 41.325,104.714 C37.862,99.538 37.226,93.046 38.176,87.013 C38.741,83.43 39.743,79.74 41.359,76.473 C41.921,75.337 38.48,74.133 37.788,74.057 C36.613,73.929 35.443,73.729 34.28,73.518 C34.09,73.483 33.282000000000004,73.327 33.84,73.437 C33.517,73.373 33.194,73.309 32.871,73.241 C32.21,73.104 31.551,72.95700000000001 30.894,72.802 C29.326999999999998,72.433 27.775000000000002,72.008 26.234,71.544 C26.065,71.493 25.685000000000002,71.372 26.074,71.496 C25.857000000000003,71.42699999999999 25.641000000000002,71.356 25.425,71.285 C24.985,71.14 24.548,70.99 24.112,70.835 C23.282999999999998,70.53999999999999 22.461,70.228 21.647,69.896 C21.424,69.805 21.203,69.713 20.982,69.619 C21.399,69.796 21.026,69.639 20.834,69.553 C20.392,69.355 19.951,69.154 19.514,68.944 C19.107,68.748 18.703,68.547 18.302,68.339 C18.217,68.295 17.685,68.01400000000001 17.95,68.156 C18.181,68.28 17.547,67.931 17.422,67.859 C17.031,67.63499999999999 16.644000000000002,67.404 16.262,67.166 C16.086000000000002,67.056 15.91,66.945 15.736,66.832 C15.626000000000001,66.761 15.004000000000001,66.33500000000001 15.377,66.596 C14.649000000000001,66.087 13.939,65.55199999999999 13.26,64.979 C13.026,64.781 13.264,64.991 12.969,64.721 C12.82,64.584 12.671000000000001,64.447 12.525,64.308 C12.186,63.98400000000001 11.856,63.651 11.538,63.307 C10.971,62.692 10.51,62.114000000000004 10.012,61.386 C4.898000000000001,53.905 7.719000000000001,43.966 12.848,37.252 C18.25,30.180000000000003 26.896,26.976 35.525,26.269 C38.967,25.985999999999997 42.204,26.052 45.607,26.406 C46.822,26.532 48.033,26.694 49.238,26.896 C49.454,26.932000000000002 49.67,26.971 49.887,27.009 C49.976,27.025 50.064,27.043000000000003 50.153,27.059 C50.554,27.130000000000003 49.660999999999994,26.956000000000003 50.035,27.036 C50.278999999999996,27.088 50.523,27.137 50.767,27.188 C50.857000000000006,27.206999999999997 50.946,27.227999999999998 51.035,27.249 C51.644999999999996,27.397 52.804,27.515 52.36,26.574 C51.937,25.677000000000003 50.300999999999995,25.014 49.419,24.8z"></path></g><g class="7f1prop2_0zf000_0zf000_0zf000" opacity="1" style="user-select: none; transform-origin: 0px 0px 0px; transform: matrix(1, 0, 0, 1, 1483.02, 66.89);" data-svg-origin="73.19578979492007 40.682906494140994"><path fill="rgb(224,222,224)" fill-opacity="1" d="M0 0 M129.535,14.838 C121.58699999999999,12.921999999999999 112.98700000000001,12.65 105.26,15.65 C106.536,15.687000000000001 107.81099999999999,15.725 109.086,15.763 C108.291,11.199 105.893,7.140000000000001 101.989,4.565 C97.38000000000001,1.5250000000000004 91.403,0.25 85.933,0.293 C77.81700000000001,0.358 70.08800000000001,3.4939999999999998 64.676,9.597 C63.629000000000005,10.777999999999999 62.605,12.068 61.864,13.471 C61.864,13.471 66.749,12.923 66.749,12.923 C67.621,8.683 65.491,4.398 61.559,2.612 C56.556,0.33899999999999997 50.159,1.26 44.99,2.335 C40.764,3.214 36.081999999999994,4.771000000000001 33.288,8.272 C31.341999999999995,10.71 30.971,13.883000000000001 31.431,16.882 C32.806,16.471 34.182,16.059 35.557,15.648 C32.255,14.849 28.727,14.689 25.348,14.804 C19.128,15.017 12.314,16.634 7.665,21.015 C3.3870000000000005,25.046 0.25,32.156 2.837,37.893 C4.959,42.599000000000004 9.911,45.309 14.545,47.012 C17.878,48.238 21.45,49.157 24.99,49.546 C24.737,49.317 24.484,49.088 24.231,48.859 C21.459000000000003,54.473 20.639,62.028000000000006 24.005,67.525 C27.288,72.88300000000001 34.013999999999996,75.542 40.016,76.237 C45.842999999999996,76.91199999999999 51.904,75.73400000000001 56.798,72.424 C59.058,70.896 61.287000000000006,68.794 62.648,66.392 C62.648,66.392 57.763,66.94 57.763,66.94 C59.427,71.862 64.352,75.622 68.843,77.721 C74.74300000000001,80.48 81.446,81.11500000000001 87.881,80.894 C95.475,80.63300000000001 104.304,79.496 110.531,74.731 C114.676,71.559 116.46,66.75800000000001 115.958,61.636 C114.582,62.048 113.207,62.458999999999996 111.832,62.87 C123.151,64.392 135.358,60.933 141.224,50.481 C145.67,42.559000000000005 146.14,31.888 141.557,23.917 C139.00199999999998,19.471000000000004 134.953,16.201 129.947,14.941 C128.831,14.66 127.601,14.787 126.522,15.182 C126.15700000000001,15.316 124.70100000000001,16.148 125.81,16.427 C134.329,18.570999999999998 139.00300000000001,26.637999999999998 139.709,34.971 C140.445,43.653 137.14800000000002,53.014 129.848,58.143 C128.834,58.855000000000004 127.74600000000001,59.457 126.614,59.962 C125.53200000000001,60.444 124.523,60.744 123.295,61.035 C123.22,61.053 122.816,61.137 123.238,61.052 C123.078,61.083999999999996 122.918,61.114999999999995 122.757,61.141 C122.349,61.208999999999996 121.941,61.274 121.53,61.326 C121.897,61.28 121.08500000000001,61.369 120.926,61.382 C120.535,61.412 120.14500000000001,61.436 119.754,61.449 C118.441,61.495999999999995 116.657,61.382000000000005 115.145,61.179 C114.438,61.084 110.897,61.172 111.018,62.413 C111.404,66.339 110.50099999999999,70.307 107.695,73.214 C103.25299999999999,77.818 96.155,78.74900000000001 90.096,79.078 C81.08,79.568 71.103,77.52399999999999 65.131,70.198 C64.12,68.958 63.22,67.69500000000001 62.702,66.164 C62.285,64.929 58.315,65.833 57.817,66.712 C56.878,68.37 55.486,69.831 54.037,71.046 C52.666,72.197 51.028999999999996,73.228 49.458,73.826 C48.431,74.217 47.695,74.402 46.729,74.538 C46.013,74.64 44.517,74.666 43.494,74.564 C38.021,74.023 31.931,71.46799999999999 28.896,66.66 C26.779,63.306 26.436,59.141999999999996 27.023,55.3 C27.374,52.998 28.026,50.637 29.061,48.54 C29.29,48.077 28.628,47.89 28.303,47.854 C25.7,47.568 23.269000000000002,46.992000000000004 20.919,46.276 C16.565,44.95 11.987,42.952 9.1,39.28 C5.484,34.679 6.755999999999999,28.469 9.78,23.901 C11.41,21.437 13.668,19.518 16.333,18.254 C17.47,17.716 18.428,17.418999999999997 19.567,17.144 C20.317,16.962999999999997 20.083,17.009 20.968,16.867 C21.306,16.813000000000002 21.645000000000003,16.767 21.984,16.723 C22.380000000000003,16.672 21.6,16.761000000000003 21.994,16.722 C22.179,16.703000000000003 22.363,16.686 22.548,16.67 C22.910999999999998,16.639000000000003 23.275000000000002,16.615 23.638,16.596 C23.801000000000002,16.588 24.743,16.557000000000002 24.307,16.565 C24.942,16.554000000000002 25.576999999999998,16.563000000000002 26.212,16.585 C26.793,16.606 27.372000000000003,16.643 27.952,16.686 C28.537000000000003,16.73 27.865,16.667 28.427,16.731 C28.68,16.76 28.933,16.787000000000003 29.186,16.818 C30.209,16.946 31.241,17.097 32.244,17.34 C32.906,17.5 36.55,17.276 36.37,16.105 C36.009,13.75 36.104,11.32 37.284,9.195 C38.838,6.397 41.809,4.877 44.805,4.09 C50.692,2.545 60.07299999999999,1.9270000000000005 61.727,9.58 C62.01199999999999,10.9 62.083999999999996,12.366999999999999 61.809,13.699 C61.623,14.604 66.22,14.049 66.694,13.152 C68.369,9.981 71.176,7.247 74.113,5.262 C75.353,4.4239999999999995 76.732,3.702 78.086,3.189 C79.672,2.589 81.017,2.273 82.567,2.148 C87.195,1.774 92.367,2.8829999999999996 96.396,5.188 C100.687,7.644 103.307,11.718 104.147,16.54 C104.33500000000001,17.618 107.426,16.866 107.973,16.653 C113.712,14.424999999999999 120.175,15.072000000000001 126.222,16.53 C127.27499999999999,16.784000000000002 128.778,16.503 129.715,15.981 C130.552,15.514 130.44299999999998,15.056999999999999 129.535,14.838z"></path></g><g class="6f1prop3_0zf002_-0zf118_-0zf073" opacity="1" style="user-select: none; transform-origin: 0px 0px 0px; transform: matrix(1, 0, 0, 1, 203.274, 174.886);" data-svg-origin="34.27429406738301 34.728410400391"><path fill="rgb(240,146,190)" fill-opacity="1" d="M0 0 M43.786,14.445 C43.786,14.445 33.13,3.781 33.13,3.781 C33.13,3.781 29.948999999999998,0.25 26.403,1.309 C22.857,2.3689999999999998 21.285,9.283 20.433,13.639 C19.581,17.994 18.487,22.353 18.487,22.353 C18.487,22.353 7.538,27.8 7.538,27.8 C7.538,27.8 0.25,31.247 0.378,35.403 C0.506,39.56 13.827000000000002,45.146 18.234,46.653 C18.234,46.653 18.993,55.259 20.979,60.928 C22.964,66.598 23.897000000000002,69.206 27.917,67.413 C31.938000000000002,65.621 40.08,58.061 42.815,53.937 C42.815,53.937 46.333999999999996,55.071 53.675,55.497 C61.015,55.924 67.43199999999999,56.534 66.448,51.207 C65.464,45.88 61.227,36.98 57.985,33.221 C57.985,33.221 68.29899999999999,17.799 65.332,13.239 C62.36399999999999,8.68 43.786,14.445 43.786,14.445z"></path></g><g class="5f1prop3_0_0_0" opacity="1" style="user-select: none; transform-origin: 0px 0px 0px; transform: matrix(1, 0, 0, 1, 201.652, 175.131);" data-svg-origin="35.14609570312501 34.504803222655994"><path fill="rgb(226,123,170)" fill-opacity="1" d="M0 0 M46.772,13.704 C43.351,10.281 39.93,6.857 36.51,3.434 C34.768,1.691 32.734,0.25 30.154,0.27 C25.448,0.307 23.253999999999998,3.95 21.991,7.989 C20.525,12.672 19.87,17.602 18.678,22.36 C18.876,22.209 19.073,22.058 19.271,21.907 C15.610000000000001,23.728 11.942,25.534000000000002 8.289,27.37 C5.911,28.566000000000003 3.49,30.083 1.837,32.205 C1.0070000000000001,33.269999999999996 0.25,34.742 0.65,36.129 C0.9830000000000001,37.283 2.02,38.247 2.906,38.994 C5.705,41.353 9.157,42.998 12.474,44.488 C13.976,45.163 15.498000000000001,45.797000000000004 17.038,46.383 C17.359,46.506 17.680999999999997,46.626000000000005 18.005,46.743 C18.221,46.82 18.526,47.04 18.409,46.819 C18.529999999999998,47.048 18.482,47.555 18.509,47.806 C18.946,51.818 19.566000000000003,55.871 20.722,59.743 C21.342000000000002,61.816 22.040000000000003,64 23.065,65.914 C23.711000000000002,67.122 24.577,68.126 26.004,68.295 C29.915000000000003,68.76 33.803,65.445 36.579,63.128 C39.97,60.299 43.385,57.120999999999995 45.867,53.44 C45.867,53.44 43.248,54.259 43.248,54.259 C45.922,55.11 48.849,55.393 51.626,55.648 C54.297,55.894000000000005 56.995999999999995,56.063 59.678,56.113 C61.683,56.15 63.732000000000006,56.096 65.674,55.547 C67.06200000000001,55.156 68.714,54.476 69.341,53.064 C70.04199999999999,51.488 69.334,49.508 68.87,47.965 C67.537,43.523 65.503,39.158 62.999,35.256 C62.52,34.509 62.013999999999996,33.779 61.464,33.082 C61.058,32.567 61.059,32.902 61.186,32.498 C61.423,31.741999999999997 62.190999999999995,30.921 62.602,30.244 C64.298,27.448999999999998 65.887,24.566 67.162,21.552 C68.14800000000001,19.222 69.528,16.011 68.768,13.429 C68.057,11.011 64.99900000000001,10.701 62.88,10.646 C57.001000000000005,10.494000000000002 50.873999999999995,12.011 45.284,13.741 C45.013,13.825 43.836000000000006,14.131 43.959,14.589 C44.076,15.026 45.314,14.727 45.531,14.66 C47.488,14.055 49.481,13.546 51.478,13.097 C54.842,12.34 58.424,11.612 61.888,11.89 C63.03,11.982000000000001 64.386,12.205 65.231,13.059 C66.101,13.939 66.11800000000001,15.363000000000001 65.983,16.513 C65.57000000000001,20.040000000000003 63.769,23.485000000000003 62.123,26.574 C60.913,28.847 59.607,31.086 58.177,33.229 C58.13,33.329 58.150999999999996,33.41 58.242,33.473 C60.321999999999996,35.927 61.867999999999995,38.876000000000005 63.236,41.77 C64.634,44.727000000000004 65.937,47.858000000000004 66.569,51.082 C66.781,52.162 66.874,53.482 65.969,54.291 C65.207,54.971999999999994 63.878,54.891 62.931,54.916 C59.16,55.01499999999999 55.270999999999994,54.695 51.532,54.24 C49.565,54.002 47.522,53.728 45.626,53.125 C44.907,52.896 43.442,53.299 43.007,53.944 C41.318999999999996,56.448 39.117000000000004,58.635 36.926,60.696 C34.676,62.811 32.285000000000004,64.951 29.6,66.505 C28.810000000000002,66.96199999999999 28.187,67.354 27.344,66.827 C26.319000000000003,66.18599999999999 25.789,64.873 25.344,63.807 C23.948,60.464 22.983999999999998,56.980000000000004 22.333,53.42 C21.884999999999998,50.973 21.526,48.499 21.305,46.02 C21.252,45.915000000000006 21.166,45.856 21.045,45.841 C17.82,44.730000000000004 14.667,43.346 11.637,41.782 C9.989,40.931 8.363,40.014 6.85,38.936 C5.728999999999999,38.137 4.46,37.193999999999996 3.802,35.949 C2.2030000000000003,32.931999999999995 6.212,29.999 8.386,28.654 C9.645,27.875 11.001,27.257 12.325,26.599 C14.899999999999999,25.317 17.476,24.035999999999998 20.051,22.755 C20.596,22.483999999999998 21.304000000000002,22.254 21.577,21.701 C21.862000000000002,21.123 21.923,20.279 22.069,19.656 C22.392,18.285999999999998 22.701,16.912 22.994,15.534 C23.886,11.344000000000001 24.391,6.449 26.938,2.858 C27.267,2.394 27.829,1.601 28.416,1.472 C29.388,1.258 30.681,1.9789999999999999 31.472,2.473 C32.202,2.9299999999999997 32.841,3.4859999999999998 33.447,4.093 C36.978,7.629 40.510999999999996,11.161999999999999 44.043,14.697 C44.576,15.231 47.233,14.165000000000001 46.772,13.704z"></path></g><g class="4f1prop4_-0zf011_-0zf165_-0zf063" opacity="1" style="user-select: none; transform-origin: 0px 0px 0px; transform: matrix(1, 0, 0, 1, 355.109, 51.878);" data-svg-origin="32.669503417969 34.605505249023395"><path fill="rgb(240,183,77)" fill-opacity="1" d="M0 0 M47.575,21.659 C47.575,21.659 45.327,7.089 45.327,7.089 C45.327,7.089 44.85,2.457 41.53,1.353 C38.21,0.25 33.14,4.997 30.054,8.065 C26.967,11.132 23.692,14.067 23.692,14.067 C23.692,14.067 12.226,12.428 12.226,12.428 C12.226,12.428 4.694,11.19 2.472,14.639 C0.25,18.088 7.382999999999999,30.008 9.934,33.674 C9.934,33.674 5.714,41.087 4.077,46.795 C2.441,52.502 1.7029999999999994,55.138 5.797,55.909 C9.891,56.68 20.377,55.04900000000001 24.784,53.212 C24.784,53.212 26.859,56.084 32.27,60.497 C37.68000000000001,64.911 42.278,68.963 44.494,64.088 C46.71,59.21399999999999 48.418,49.634 48.021,44.784 C48.021,44.784 64.56700000000001,37.965999999999994 64.828,32.617 C65.09,27.267999999999997 47.575,21.659 47.575,21.659z"></path></g><g class="3f1prop4_0_0_0" opacity="1" style="user-select: none; transform-origin: 0px 0px 0px; transform: matrix(1, 0, 0, 1, 354.336, 50.013);" data-svg-origin="34.025892700195016 35.1528020019531"><path fill="rgb(219,155,66)" fill-opacity="1" d="M0 0 M49.796,23.135 C49.076,18.466 48.355,13.796 47.635,9.127 C47.330999999999996,7.16 46.814,5.175 45.392,3.693 C42.09,0.25 37.402,2.812 34.338,5.207 C30.463,8.236 27.158,11.979 23.501,15.261 C23.988,15.129999999999999 24.476000000000003,15 24.963,14.869 C20.726,14.263 16.464,13.423 12.195,13.083 C8.84,12.815 4.145,12.976 2.03,16.068 C0.24999999999999978,18.669 2.133,22.727 3.233,25.224 C4.915,29.044 7.005000000000001,32.747 9.38,36.179 C9.360000000000001,35.908 9.340000000000002,35.638 9.319,35.367 C6.214,40.836 3.471,46.786 2.279,52.994 C1.771,55.639 2.37,57.870999999999995 5.194,58.638 C8.244,59.464999999999996 11.705,59.018 14.786,58.617 C18.637,58.116 22.588,57.412000000000006 26.201,55.941 C25.544,55.867000000000004 24.888,55.792 24.231,55.718 C25.302000000000003,57.188 26.659,58.481 27.971,59.729 C29.53,61.211 31.175000000000004,62.589000000000006 32.84,63.95 C34.515,65.319 36.189,66.741 38.051,67.852 C40.619,69.384 43.986,70.05600000000001 45.995,67.263 C46.925,65.97 47.415,64.311 47.879,62.807 C48.402,61.11 48.836000000000006,59.388 49.194,57.649 C49.96,53.93 50.521,50.064 50.242,46.26 C49.974,46.677 49.706,47.095 49.438,47.513 C51.525000000000006,46.650999999999996 53.568,45.665 55.568,44.62 C58.922,42.867 62.425000000000004,40.910000000000004 65.057,38.142 C67.09700000000001,35.998000000000005 67.801,33.45 65.675,31.1 C63.296,28.470000000000002 59.797999999999995,26.842000000000002 56.617,25.417 C54.196,24.332 51.708999999999996,23.351000000000003 49.181,22.539 C48.497,22.319000000000003 47.597,22.513 47.132,23.088 C46.719,23.599 46.848,24.294 47.513,24.507 C52.467999999999996,26.099 57.854,28.102999999999998 61.942,31.389 C62.797,32.076 63.85699999999999,33.011 64.082,34.146 C64.28999999999999,35.193 63.637,36.127 62.982,36.883 C60.807,39.392 57.623999999999995,41.116 54.73,42.653 C52.587999999999994,43.791 50.392,44.857 48.149,45.784 C47.614000000000004,46.004999999999995 47.303000000000004,46.478 47.344,47.036 C47.549,49.837 47.157000000000004,52.725 46.7,55.482 C46.197,58.515 45.522,61.565 44.431,64.446 C44.147,65.198 43.73,66.812 42.845,67.085 C41.81,67.40499999999999 40.116,66.09 39.345,65.568 C36.188,63.431 33.182,60.870000000000005 30.417,58.249 C29.172,57.068000000000005 27.897000000000002,55.828 26.882,54.435 C26.439,53.828 25.497,53.974000000000004 24.912,54.212 C22.235,55.30200000000001 19.262,55.847 16.417,56.28 C13.553,56.716 10.474,57.169 7.578,56.79 C6.718,56.677 5.62,56.464000000000006 5.207,55.593 C4.772,54.676 5.079,53.426 5.274,52.493 C6.007,48.982 7.248,45.592999999999996 8.733,42.336 C9.759,40.085 10.871,37.861000000000004 12.093,35.709 C12.233,35.462 12.187,35.122 12.032,34.897 C10.166,32.202 8.506,29.336 7.047,26.403 C6.241,24.781 5.5,23.11 4.946,21.384 C4.5569999999999995,20.168 4.093,18.716 4.344,17.425 C4.853000000000001,14.812000000000001 9.331,15.051 11.286,15.215 C12.809999999999999,15.343 14.329,15.616000000000001 15.842,15.832 C18.425,16.202 21.007,16.621 23.597,16.941 C24.616,17.067 25.296,16.725 26.028,16.059 C27.831,14.418000000000001 29.611,12.749 31.353,11.042 C32.984,9.443999999999999 34.599000000000004,7.834 36.411,6.435 C37.634,5.492 39.625,3.8309999999999995 41.317,4.161 C43.566,4.6 44.379,7.546 44.671,9.474 C45.400999999999996,14.289000000000001 46.156000000000006,19.099 46.898,23.911 C47.106,25.259 50.012,24.533 49.796,23.135z"></path></g><g class="2f1prop2_0zf208_-0zf080_-0zf055" opacity="1" style="user-select: none; transform-origin: 0px 0px 0px; transform: matrix(1, 0, 0, 1, 64.548, 77.679);" data-svg-origin="29.276401855468805 29.594803710937995"><path fill="rgb(235,236,239)" fill-opacity="1" d="M0 0 M37.446,12.435 C37.446,12.435 28.443,3.279 28.443,3.279 C28.443,3.279 25.758,0.2499999999999999 22.73,1.128 C19.703,2.006 18.316,7.883999999999999 17.561,11.588 C16.805,15.292 15.844,18.997 15.844,18.997 C15.844,18.997 6.481,23.562 6.481,23.562 C6.481,23.562 0.25,26.447 0.331,29.988 C0.41100000000000003,33.53 11.719,38.379 15.462,39.692 C15.462,39.692 16.049000000000003,47.027 17.702,51.87 C19.354000000000003,56.711999999999996 20.131,58.940000000000005 23.567,57.441 C27.004,55.942 33.991,49.559 36.349,46.064 C36.349,46.064 39.338,47.054 45.587,47.468 C51.836000000000006,47.882000000000005 57.298,48.446000000000005 56.496,43.901 C55.694,39.357000000000006 52.146,31.747999999999998 49.411,28.525 C49.411,28.525 58.302,15.459999999999999 55.805,11.556 C53.309,7.651999999999999 37.446,12.435 37.446,12.435z"></path></g><g class="1f1prop2_0zf000_0zf000_0zf000" opacity="1" style="user-select: none; transform-origin: 0px 0px 0px; transform: matrix(1, 0, 0, 1, 62.929, 77.777);" data-svg-origin="30.127594848632796 29.385994384765993"><path fill="rgb(224,222,224)" fill-opacity="1" d="M0 0 M40.436,11.862 C37.546,8.923 34.669,5.970000000000001 31.765,3.044 C30.443,1.712 28.505,0.25 26.179,0.339 C24.468,0.404 22.629,0.9850000000000003 21.42,2.244 C20.234,3.479 19.563,5.133 19.031,6.735 C17.689,10.773 17.105,15.054999999999998 16.039,19.173 C16.241000000000003,19.037999999999997 16.442999999999998,18.903000000000002 16.645,18.768 C13.511,20.296 10.374,21.817 7.243,23.351 C5.125,24.389 2.9370000000000003,25.706 1.494,27.612 C0.824,28.497999999999998 0.25,29.739 0.61,30.863 C0.9319999999999999,31.869 1.856,32.696 2.64,33.348 C5.061,35.364 8.011000000000001,36.793000000000006 10.861,38.087 C12.112,38.655 13.379000000000001,39.191 14.662,39.682 C14.922,39.781 15.531,39.911 15.641,40.073 C15.784,40.285000000000004 15.725,40.956 15.751,41.206 C16.117,44.668000000000006 16.627,48.183 17.663,51.515 C18.352,53.732 19.216,58.175 22.175,58.336 C25.594,58.522 28.837000000000003,55.977000000000004 31.324,53.941 C34.257000000000005,51.542 37.233000000000004,48.831 39.393,45.692 C38.461,45.942 37.53,46.191 36.598,46.441 C38.873999999999995,47.184000000000005 41.341,47.470000000000006 43.709,47.706 C47.589000000000006,48.093 51.949999999999996,48.709 55.788,47.744 C57.013999999999996,47.436 58.547,46.931 59.254,45.787 C60.006,44.568 59.516000000000005,42.964999999999996 59.173,41.696 C58.132000000000005,37.842 56.409,34.062 54.327,30.661 C53.905,29.972 53.46,29.294 52.97,28.651 C52.646,28.224 52.51,28.328000000000003 52.592,27.949 C52.723,27.338 53.503,26.54 53.83,26.009 C55.299,23.629 56.677,21.173 57.782,18.601 C58.625,16.637999999999998 59.848,13.860999999999999 59.153,11.684 C58.51,9.667 55.896,9.452 54.121,9.392 C49.074000000000005,9.222 43.775,10.513 38.964,11.959 C38.735,12.028 37.510999999999996,12.331 37.617,12.725 C37.717999999999996,13.103 39.002,12.765 39.167,12.715 C40.773,12.232 42.407,11.825 44.046,11.472 C46.887,10.859 49.923,10.241 52.842,10.515 C53.849,10.609 55.102,10.815 55.811,11.622 C56.478,12.383 56.476,13.547 56.365,14.492 C56.013000000000005,17.505000000000003 54.433,20.447 53.006,23.073 C51.961,24.996000000000002 50.836999999999996,26.889 49.607,28.7 C49.598,28.738 49.59,28.776 49.582,28.815 C51.787,31.467000000000002 53.357,34.714 54.671,37.881 C55.37,39.566 55.999,41.294000000000004 56.429,43.069 C56.714,44.246 57.099000000000004,45.778999999999996 56.082,46.723 C55.377,47.377 53.402,47.112 52.348,47.076 C50.198,47.002 48.039,46.853 45.899,46.633 C43.811,46.417 41.108,46.069 39.339,45.491 C38.625,45.258 36.994,45.586 36.544,46.24 C34.632999999999996,49.018 32.06,51.402 29.503,53.576 C28.235,54.655 26.923,55.717 25.502,56.591 C25.227999999999998,56.759 24.951,56.931 24.662,57.073 C24.511,57.148 23.94,57.255 24.318,57.264 C23.814,57.252 23.358999999999998,56.901999999999994 23.034,56.547 C21.983999999999998,55.397999999999996 21.532,53.596 21.038,52.166 C20.402,50.324999999999996 19.913,48.458999999999996 19.544,46.546 C19.078,44.124 18.730999999999998,41.665000000000006 18.531,39.206 C18.505,39.177 18.479000000000003,39.148 18.452,39.119 C15.761000000000003,38.167 13.131,36.997 10.598,35.682 C8.299000000000001,34.489000000000004 5.083,32.977000000000004 3.752,30.614 C2.3,28.037 5.66,25.51 7.552,24.356 C7.944999999999999,24.116000000000003 8.347,23.891 8.756,23.676 C9.114,23.488 8.707,23.698 8.981,23.564 C9.64,23.241 10.301,22.92 10.961,22.599 C10.961,22.599 17.526,19.398 17.526,19.398 C17.96,19.186 18.672,18.96 18.909,18.543 C19.166999999999998,18.089 19.214,17.33 19.337,16.828 C19.618,15.676 19.889,14.52 20.146,13.362 C20.941000000000003,9.783 21.411,5.678 23.546,2.584 C23.745,2.297 23.958,2.013 24.208,1.767 C24.311,1.666 24.497999999999998,1.552 24.592,1.435 C24.889999999999997,1.0630000000000002 24.68,1.44 24.398,1.416 C25.447,1.504 26.327,1.8170000000000002 27.207,2.402 C27.778000000000002,2.782 28.389,3.346 28.761,3.726 C31.733999999999998,6.76 34.717999999999996,9.783 37.696,12.812 C38.174,13.299 40.785,12.217 40.436,11.862z"></path></g></g></g></g></svg>