<?xml version="1.0" encoding="UTF-8"?>
<!DOCTYPE svg PUBLIC "-//W3C//DTD SVG 1.1//EN" "http://www.w3.org/Graphics/SVG/1.1/DTD/svg11.dtd">
<svg xmlns="http://www.w3.org/2000/svg" version="1.1" width="3000px" height="1688px" style="shape-rendering:geometricPrecision; text-rendering:geometricPrecision; image-rendering:optimizeQuality; fill-rule:evenodd; clip-rule:evenodd" xmlns:xlink="http://www.w3.org/1999/xlink">
<g><path style="opacity:1" fill="#27173b" d="M -0.5,0.5 C 917.167,0.5 1834.83,0.5 2752.5,0.5C 2752.33,21.8359 2752.5,43.1693 2753,64.5C 2787.33,83.8333 2821.67,103.167 2856,122.5C 2856.43,152.834 2856.93,183.168 2857.5,213.5C 2857.49,222.409 2857.16,231.242 2856.5,240C 2823.3,260.032 2789.96,279.866 2756.5,299.5C 2756.17,305.333 2755.83,311.167 2755.5,317C 2756.03,351.502 2756.7,386.002 2757.5,420.5C 2792.25,440.293 2827.09,459.96 2862,479.5C 2895.75,459.041 2929.58,438.708 2963.5,418.5C 2975.53,425.179 2987.53,431.845 2999.5,438.5C 2999.5,854.833 2999.5,1271.17 2999.5,1687.5C 1999.5,1687.5 999.5,1687.5 -0.5,1687.5C -0.5,1125.17 -0.5,562.833 -0.5,0.5 Z"/></g>
<g><path style="opacity:1" fill="#27173b" d="M 2999.5,0.5 C 2999.5,27.5 2999.5,54.5 2999.5,81.5C 2986.95,74.6388 2974.45,67.6388 2962,60.5C 2961.59,40.495 2961.09,20.495 2960.5,0.5C 2973.5,0.5 2986.5,0.5 2999.5,0.5 Z"/></g>
<g><path style="opacity:1" fill="#27173b" d="M 2999.5,85.5 C 2999.5,148.5 2999.5,211.5 2999.5,274.5C 2987.18,281.806 2974.85,289.139 2962.5,296.5C 2928.83,277.667 2895.17,258.833 2861.5,240C 2859.6,200.916 2859.1,161.749 2860,122.5C 2891.42,103.541 2922.92,84.7075 2954.5,66C 2956.65,64.4101 2958.98,63.7434 2961.5,64C 2974.06,71.3947 2986.72,78.5614 2999.5,85.5 Z"/></g>
<g><path style="opacity:1" fill="#bf99d9" d="M -0.5,0.5 C -0.5,0.166667 -0.5,-0.166667 -0.5,-0.5C 999.5,-0.5 1999.5,-0.5 2999.5,-0.5C 2999.5,-0.166667 2999.5,0.166667 2999.5,0.5C 2986.5,0.5 2973.5,0.5 2960.5,0.5C 2961.09,20.495 2961.59,40.495 2962,60.5C 2974.45,67.6388 2986.95,74.6388 2999.5,81.5C 2999.5,82.8333 2999.5,84.1667 2999.5,85.5C 2986.72,78.5614 2974.06,71.3947 2961.5,64C 2958.98,63.7434 2956.65,64.4101 2954.5,66C 2922.92,84.7075 2891.42,103.541 2860,122.5C 2859.1,161.749 2859.6,200.916 2861.5,240C 2895.17,258.833 2928.83,277.667 2962.5,296.5C 2974.85,289.139 2987.18,281.806 2999.5,274.5C 2999.5,275.833 2999.5,277.167 2999.5,278.5C 2988.19,285.155 2976.86,291.822 2965.5,298.5C 2964.58,337.832 2964.75,377.166 2966,416.5C 2976.82,423.16 2987.99,429.16 2999.5,434.5C 2999.5,435.833 2999.5,437.167 2999.5,438.5C 2987.53,431.845 2975.53,425.179 2963.5,418.5C 2929.58,438.708 2895.75,459.041 2862,479.5C 2827.09,459.96 2792.25,440.293 2757.5,420.5C 2756.7,386.002 2756.03,351.502 2755.5,317C 2755.83,311.167 2756.17,305.333 2756.5,299.5C 2789.96,279.866 2823.3,260.032 2856.5,240C 2857.16,231.242 2857.49,222.409 2857.5,213.5C 2856.93,183.168 2856.43,152.834 2856,122.5C 2821.67,103.167 2787.33,83.8333 2753,64.5C 2752.5,43.1693 2752.33,21.8359 2752.5,0.5C 1834.83,0.5 917.167,0.5 -0.5,0.5 Z"/></g>
<g><path style="opacity:1" fill="#27173b" d="M 2755.5,0.5 C 2822.83,0.5 2890.17,0.5 2957.5,0.5C 2957.81,20.522 2957.81,40.522 2957.5,60.5C 2924.46,80.6865 2891.13,100.353 2857.5,119.5C 2823.56,100.739 2789.73,81.7385 2756,62.5C 2755.5,41.836 2755.33,21.1694 2755.5,0.5 Z"/></g>
<g><path style="opacity:1" fill="#27173b" d="M 2857.5,242.5 C 2892.3,260.822 2926.8,279.822 2961,299.5C 2961.28,333.504 2961.78,367.504 2962.5,401.5C 2962.17,406.5 2961.83,411.5 2961.5,416.5C 2928.23,436.047 2895.07,455.714 2862,475.5C 2827.85,456.761 2793.85,437.761 2760,418.5C 2759.13,379.501 2758.8,340.501 2759,301.5C 2791.98,281.933 2824.81,262.267 2857.5,242.5 Z"/></g>
<g><path style="opacity:1" fill="#27173b" d="M 2999.5,278.5 C 2999.5,330.5 2999.5,382.5 2999.5,434.5C 2987.99,429.16 2976.82,423.16 2966,416.5C 2964.75,377.166 2964.58,337.832 2965.5,298.5C 2976.86,291.822 2988.19,285.155 2999.5,278.5 Z"/></g>
<g><path style="opacity:1" fill="#70209d" d="M 357.5,1337.5 C 360.438,1338.63 363.438,1339.8 366.5,1341C 370.102,1344.54 374.102,1347.54 378.5,1350C 380.819,1352.8 382.485,1355.97 383.5,1359.5C 384.689,1360.43 386.022,1360.76 387.5,1360.5C 387.98,1363.69 387.314,1366.52 385.5,1369C 386.167,1369.33 386.833,1369.67 387.5,1370C 386.193,1371.94 386.193,1373.78 387.5,1375.5C 386.912,1378.61 386.245,1381.61 385.5,1384.5C 385.702,1382.01 385.202,1379.68 384,1377.5C 382.989,1378.34 381.822,1378.67 380.5,1378.5C 378.413,1370.82 375.079,1363.65 370.5,1357C 370.833,1356.67 371.167,1356.33 371.5,1356C 370.417,1353.94 368.75,1352.61 366.5,1352C 366.957,1351.59 367.291,1351.09 367.5,1350.5C 364.068,1348.99 362.068,1346.33 361.5,1342.5C 359.471,1343.63 359.137,1343.13 360.5,1341C 358.43,1340.62 356.93,1341.45 356,1343.5C 353.658,1342.82 351.324,1343.16 349,1344.5C 348.667,1343.83 348.333,1343.17 348,1342.5C 344.035,1344.42 340.202,1346.42 336.5,1348.5C 335.732,1347.74 335.232,1346.74 335,1345.5C 332.57,1346.96 330.07,1348.3 327.5,1349.5C 326.359,1350.43 326.359,1351.26 327.5,1352C 325.26,1352.98 322.927,1353.48 320.5,1353.5C 330.721,1343.56 343.054,1338.23 357.5,1337.5 Z"/></g>
<g><path style="opacity:1" fill="#46206a" d="M 379.5,1341.5 C 372.343,1338.2 365.01,1336.87 357.5,1337.5C 343.054,1338.23 330.721,1343.56 320.5,1353.5C 318.326,1353.75 316.659,1354.75 315.5,1356.5C 303.947,1363.52 291.613,1368.68 278.5,1372C 273.882,1372.99 269.215,1373.49 264.5,1373.5C 263.209,1373.74 262.209,1373.4 261.5,1372.5C 279.312,1371.48 296.479,1365.81 313,1355.5C 324.636,1345.76 337.802,1338.76 352.5,1334.5C 361.876,1332.88 371.209,1334.71 380.5,1340C 379.944,1340.38 379.611,1340.88 379.5,1341.5 Z"/></g>
<g><path style="opacity:1" fill="#7f27ad" d="M 385.5,1384.5 C 382.182,1393.6 379.348,1402.93 377,1412.5C 376.583,1413.76 375.75,1414.42 374.5,1414.5C 375.657,1410.21 376.657,1405.87 377.5,1401.5C 377.611,1400.88 377.944,1400.38 378.5,1400C 376.798,1397.76 375.798,1395.26 375.5,1392.5C 376.5,1392.5 377.5,1392.5 378.5,1392.5C 378.838,1389.84 378.171,1387.51 376.5,1385.5C 373.273,1385.65 369.94,1385.82 366.5,1386C 363.059,1388.05 359.392,1389.55 355.5,1390.5C 356.774,1394.65 355.441,1397.98 351.5,1400.5C 351.833,1401.17 352.167,1401.83 352.5,1402.5C 350.792,1404.63 349.458,1406.97 348.5,1409.5C 345.834,1414.18 343.667,1419.18 342,1424.5C 341.536,1423.91 341.369,1423.24 341.5,1422.5C 341.586,1421.5 341.252,1420.67 340.5,1420C 341.167,1419.33 341.833,1418.67 342.5,1418C 342.623,1416.21 342.623,1414.38 342.5,1412.5C 342.901,1410.57 343.901,1409.07 345.5,1408C 343.487,1406.21 343.487,1404.88 345.5,1404C 343.193,1403.65 342.859,1402.65 344.5,1401C 344.332,1397.63 342.665,1395.46 339.5,1394.5C 337.669,1395.93 335.669,1396.43 333.5,1396C 334.833,1394.67 334.833,1393.33 333.5,1392C 336.167,1391.33 336.167,1390.67 333.5,1390C 335.651,1389.74 337.318,1388.74 338.5,1387C 335.862,1382.21 333.529,1377.71 331.5,1373.5C 332.224,1370.9 334.224,1368.74 337.5,1367C 336.366,1365.98 336.699,1365.32 338.5,1365C 337.833,1364.67 337.167,1364.33 336.5,1364C 337.96,1362.42 339.627,1361.08 341.5,1360C 340.128,1357.47 339.128,1354.8 338.5,1352C 339.167,1351 339.833,1350 340.5,1349C 338.981,1349.33 337.648,1349.16 336.5,1348.5C 340.202,1346.42 344.035,1344.42 348,1342.5C 348.333,1343.17 348.667,1343.83 349,1344.5C 351.324,1343.16 353.658,1342.82 356,1343.5C 356.93,1341.45 358.43,1340.62 360.5,1341C 359.137,1343.13 359.471,1343.63 361.5,1342.5C 362.068,1346.33 364.068,1348.99 367.5,1350.5C 367.291,1351.09 366.957,1351.59 366.5,1352C 368.75,1352.61 370.417,1353.94 371.5,1356C 371.167,1356.33 370.833,1356.67 370.5,1357C 375.079,1363.65 378.413,1370.82 380.5,1378.5C 381.822,1378.67 382.989,1378.34 384,1377.5C 385.202,1379.68 385.702,1382.01 385.5,1384.5 Z"/></g>
<g><path style="opacity:1" fill="#461864" d="M 386.5,1351.5 C 389.03,1354.14 390.697,1357.31 391.5,1361C 391.501,1364.3 391.334,1367.8 391,1371.5C 390.617,1372.06 390.117,1372.39 389.5,1372.5C 389.666,1368.15 389.499,1363.82 389,1359.5C 387.293,1357.09 386.46,1354.42 386.5,1351.5 Z"/></g>
<g><path style="opacity:1" fill="#7754c9" d="M 295.5,1395.5 C 294.391,1395.56 293.391,1395.89 292.5,1396.5C 294.167,1393.83 295.833,1391.17 297.5,1388.5C 297.433,1387.04 297.766,1385.71 298.5,1384.5C 300.335,1380.71 302.668,1377.21 305.5,1374C 304.397,1372.32 304.73,1370.82 306.5,1369.5C 305.311,1368.57 303.978,1368.24 302.5,1368.5C 302.167,1367.5 301.5,1366.83 300.5,1366.5C 304.099,1363.89 308.099,1361.89 312.5,1360.5C 314.869,1360.15 317.203,1359.98 319.5,1360C 317.619,1361.1 315.952,1362.44 314.5,1364C 315.459,1367.31 314.959,1370.47 313,1373.5C 310.842,1376.12 309.342,1379.12 308.5,1382.5C 303.466,1386.34 299.132,1390.67 295.5,1395.5 Z"/></g>
<g><path style="opacity:1" fill="#611b8d" d="M 357.5,1337.5 C 365.01,1336.87 372.343,1338.2 379.5,1341.5C 384.48,1342.83 386.813,1346.17 386.5,1351.5C 386.46,1354.42 387.293,1357.09 389,1359.5C 389.499,1363.82 389.666,1368.15 389.5,1372.5C 389.5,1372.83 389.5,1373.17 389.5,1373.5C 388.5,1373.83 387.833,1374.5 387.5,1375.5C 386.193,1373.78 386.193,1371.94 387.5,1370C 386.833,1369.67 386.167,1369.33 385.5,1369C 387.314,1366.52 387.98,1363.69 387.5,1360.5C 386.022,1360.76 384.689,1360.43 383.5,1359.5C 382.485,1355.97 380.819,1352.8 378.5,1350C 374.102,1347.54 370.102,1344.54 366.5,1341C 363.438,1339.8 360.438,1338.63 357.5,1337.5 Z"/></g>
<g><path style="opacity:1" fill="#6047a8" d="M 315.5,1356.5 C 314.5,1357.83 313.5,1359.17 312.5,1360.5C 308.099,1361.89 304.099,1363.89 300.5,1366.5C 293.587,1370.63 286.254,1373.63 278.5,1375.5C 277.167,1375.5 275.833,1375.5 274.5,1375.5C 271.375,1374.52 268.042,1374.19 264.5,1374.5C 264.5,1374.17 264.5,1373.83 264.5,1373.5C 269.215,1373.49 273.882,1372.99 278.5,1372C 291.613,1368.68 303.947,1363.52 315.5,1356.5 Z"/></g>
<g><path style="opacity:1" fill="#3b2564" d="M 261.5,1372.5 C 262.209,1373.4 263.209,1373.74 264.5,1373.5C 264.5,1373.83 264.5,1374.17 264.5,1374.5C 237.166,1374 209.832,1373.83 182.5,1374C 177.202,1375.15 171.869,1375.99 166.5,1376.5C 162.189,1377.65 157.856,1378.82 153.5,1380C 146.017,1384.32 138.351,1388.15 130.5,1391.5C 136.355,1387.22 142.688,1383.39 149.5,1380C 160.398,1375.98 171.565,1373.15 183,1371.5C 194.229,1372.06 204.562,1372.06 214,1371.5C 221,1372.17 228,1372.83 235,1373.5C 244.2,1372.73 253.033,1372.4 261.5,1372.5 Z"/></g>
<g><path style="opacity:1" fill="#57217d" d="M 389.5,1373.5 C 390.595,1377.41 390.262,1380.91 388.5,1384C 388.5,1385.67 388.5,1387.33 388.5,1389C 387.896,1391.47 386.562,1393.47 384.5,1395C 385.285,1397.44 385.119,1399.94 384,1402.5C 382.824,1407.22 380.99,1411.55 378.5,1415.5C 377.85,1415.8 377.183,1416.14 376.5,1416.5C 375.359,1419.06 374.526,1421.73 374,1424.5C 373.623,1425.94 372.79,1426.94 371.5,1427.5C 372.821,1423.24 373.821,1418.91 374.5,1414.5C 375.75,1414.42 376.583,1413.76 377,1412.5C 379.348,1402.93 382.182,1393.6 385.5,1384.5C 386.245,1381.61 386.912,1378.61 387.5,1375.5C 387.833,1374.5 388.5,1373.83 389.5,1373.5 Z"/></g>
<g><path style="opacity:1" fill="#535ba2" d="M 264.5,1374.5 C 268.042,1374.19 271.375,1374.52 274.5,1375.5C 266.514,1376.1 258.514,1376.43 250.5,1376.5C 235.809,1375.76 221.142,1375.76 206.5,1376.5C 193.898,1374.94 181.231,1375.44 168.5,1378C 159.517,1381.94 150.517,1385.77 141.5,1389.5C 141.369,1388.62 141.702,1387.96 142.5,1387.5C 150.829,1384.33 158.829,1380.67 166.5,1376.5C 171.869,1375.99 177.202,1375.15 182.5,1374C 209.832,1373.83 237.166,1374 264.5,1374.5 Z"/></g>
<g><path style="opacity:1" fill="#574795" d="M 166.5,1376.5 C 158.829,1380.67 150.829,1384.33 142.5,1387.5C 141.702,1387.96 141.369,1388.62 141.5,1389.5C 141.5,1390.17 141.167,1390.5 140.5,1390.5C 137.188,1391.82 133.855,1393.15 130.5,1394.5C 127.284,1397.6 123.618,1399.94 119.5,1401.5C 122.243,1398.82 124.909,1396.15 127.5,1393.5C 127.973,1392.09 128.973,1391.43 130.5,1391.5C 138.351,1388.15 146.017,1384.32 153.5,1380C 157.856,1378.82 162.189,1377.65 166.5,1376.5 Z"/></g>
<g><path style="opacity:1" fill="#5487c0" d="M 206.5,1376.5 C 195.736,1376.1 185.069,1376.76 174.5,1378.5C 163.04,1382.43 151.706,1386.77 140.5,1391.5C 140.5,1391.17 140.5,1390.83 140.5,1390.5C 141.167,1390.5 141.5,1390.17 141.5,1389.5C 150.517,1385.77 159.517,1381.94 168.5,1378C 181.231,1375.44 193.898,1374.94 206.5,1376.5 Z"/></g>
<g><path style="opacity:1" fill="#61a4ce" d="M 174.5,1378.5 C 162.667,1386.52 149.667,1392.35 135.5,1396C 134.058,1396.38 133.058,1397.21 132.5,1398.5C 131.167,1398.83 129.833,1399.17 128.5,1399.5C 128.937,1397.93 129.937,1396.76 131.5,1396C 134.648,1394.58 137.648,1393.08 140.5,1391.5C 151.706,1386.77 163.04,1382.43 174.5,1378.5 Z"/></g>
<g><path style="opacity:1" fill="#5fc2e1" d="M 206.5,1376.5 C 206.5,1377.17 206.5,1377.83 206.5,1378.5C 197.208,1378.61 188.041,1378.61 179,1378.5C 176.628,1380.7 174.461,1383.04 172.5,1385.5C 165.478,1389.34 158.145,1392.67 150.5,1395.5C 144.393,1395.98 138.393,1396.98 132.5,1398.5C 133.058,1397.21 134.058,1396.38 135.5,1396C 149.667,1392.35 162.667,1386.52 174.5,1378.5C 185.069,1376.76 195.736,1376.1 206.5,1376.5 Z"/></g>
<g><path style="opacity:1" fill="#7736b5" d="M 336.5,1348.5 C 337.648,1349.16 338.981,1349.33 340.5,1349C 339.833,1350 339.167,1351 338.5,1352C 339.128,1354.8 340.128,1357.47 341.5,1360C 339.627,1361.08 337.96,1362.42 336.5,1364C 337.167,1364.33 337.833,1364.67 338.5,1365C 336.699,1365.32 336.366,1365.98 337.5,1367C 334.224,1368.74 332.224,1370.9 331.5,1373.5C 329.493,1372.32 329.16,1372.82 330.5,1375C 329.283,1376.65 328.45,1378.48 328,1380.5C 324.487,1382.25 320.987,1384.75 317.5,1388C 317.833,1388.33 318.167,1388.67 318.5,1389C 317.619,1389.71 316.953,1390.54 316.5,1391.5C 313.527,1391.55 312.527,1392.72 313.5,1395C 311.532,1396.66 309.532,1398.32 307.5,1400C 307.833,1400.33 308.167,1400.67 308.5,1401C 306.975,1402.01 305.308,1402.51 303.5,1402.5C 303.703,1404.39 303.037,1405.89 301.5,1407C 301.833,1407.33 302.167,1407.67 302.5,1408C 301.167,1408.67 299.833,1409.33 298.5,1410C 298.957,1410.41 299.291,1410.91 299.5,1411.5C 297.454,1414.84 295.454,1415.01 293.5,1412C 295.195,1410.95 295.528,1409.79 294.5,1408.5C 294.351,1407.45 294.517,1406.45 295,1405.5C 299.739,1404.02 301.239,1401.02 299.5,1396.5C 303.004,1394.24 305.671,1391.24 307.5,1387.5C 312.805,1385.21 317.138,1381.71 320.5,1377C 320.167,1376.67 319.833,1376.33 319.5,1376C 322.91,1372.52 325.91,1368.19 328.5,1363C 328.167,1362 327.833,1361 327.5,1360C 331.104,1357.26 330.937,1355.43 327,1354.5C 325.009,1355.76 323.009,1357.1 321,1358.5C 320.259,1357.36 319.425,1357.36 318.5,1358.5C 318.167,1358.33 317.833,1358.17 317.5,1358C 319.141,1356.87 320.141,1355.37 320.5,1353.5C 322.927,1353.48 325.26,1352.98 327.5,1352C 326.359,1351.26 326.359,1350.43 327.5,1349.5C 330.07,1348.3 332.57,1346.96 335,1345.5C 335.232,1346.74 335.732,1347.74 336.5,1348.5 Z"/></g>
<g><path style="opacity:1" fill="#57dbf1" d="M 206.5,1378.5 C 206.833,1378.5 207.167,1378.5 207.5,1378.5C 211.136,1379.33 214.803,1379.99 218.5,1380.5C 221.077,1381.04 223.244,1382.37 225,1384.5C 227.316,1383.15 228.316,1383.81 228,1386.5C 225.653,1389.86 222.653,1390.86 219,1389.5C 216.944,1391.32 214.777,1391.99 212.5,1391.5C 208.911,1391.91 205.744,1393.24 203,1395.5C 201.372,1394.9 199.705,1395.24 198,1396.5C 197.667,1396.17 197.333,1395.83 197,1395.5C 195.333,1396.17 193.667,1396.83 192,1397.5C 184.463,1397.48 177.129,1399.15 170,1402.5C 168.984,1401.37 168.317,1401.7 168,1403.5C 167.667,1403.17 167.333,1402.83 167,1402.5C 164.661,1403.56 162.495,1404.89 160.5,1406.5C 156.902,1405.63 154.235,1406.96 152.5,1410.5C 144.632,1412.81 144.132,1412.15 151,1408.5C 152.149,1406.01 153.316,1403.51 154.5,1401C 153.483,1398.85 152.15,1397.02 150.5,1395.5C 158.145,1392.67 165.478,1389.34 172.5,1385.5C 174.461,1383.04 176.628,1380.7 179,1378.5C 188.041,1378.61 197.208,1378.61 206.5,1378.5 Z"/></g>
<g><path style="opacity:1" fill="#4be7f6" d="M 172.5,1385.5 C 179.768,1380.31 187.935,1378.31 197,1379.5C 201.167,1379.67 205.333,1379.83 209.5,1380C 213.203,1381.21 216.87,1382.54 220.5,1384C 214.562,1387.43 208.229,1389.93 201.5,1391.5C 199.031,1389.99 196.865,1390.33 195,1392.5C 192.667,1392.5 190.333,1392.5 188,1392.5C 183.488,1394.24 179.155,1395.57 175,1396.5C 169.637,1393.62 168.804,1389.96 172.5,1385.5 Z"/></g>
<g><path style="opacity:1" fill="#57d2f0" d="M 151.5,1412.5 C 151.833,1411.83 152.167,1411.17 152.5,1410.5C 154.235,1406.96 156.902,1405.63 160.5,1406.5C 162.495,1404.89 164.661,1403.56 167,1402.5C 167.333,1402.83 167.667,1403.17 168,1403.5C 168.317,1401.7 168.984,1401.37 170,1402.5C 177.129,1399.15 184.463,1397.48 192,1397.5C 193.667,1396.83 195.333,1396.17 197,1395.5C 197.333,1395.83 197.667,1396.17 198,1396.5C 199.705,1395.24 201.372,1394.9 203,1395.5C 205.744,1393.24 208.911,1391.91 212.5,1391.5C 214.777,1391.99 216.944,1391.32 219,1389.5C 222.653,1390.86 225.653,1389.86 228,1386.5C 228.316,1383.81 227.316,1383.15 225,1384.5C 223.244,1382.37 221.077,1381.04 218.5,1380.5C 222.882,1379.42 227.048,1380.09 231,1382.5C 231.414,1382.04 231.914,1381.71 232.5,1381.5C 236.708,1382.96 237.208,1384.96 234,1387.5C 233.667,1387.17 233.333,1386.83 233,1386.5C 226.054,1391.5 217.887,1394.33 208.5,1395C 204.509,1396.11 200.675,1397.61 197,1399.5C 193.544,1399.02 189.878,1399.02 186,1399.5C 178.803,1401.64 171.636,1403.98 164.5,1406.5C 163.713,1407.24 163.047,1408.08 162.5,1409C 159.014,1410.62 155.347,1411.79 151.5,1412.5 Z"/></g>
<g><path style="opacity:1" fill="#55c5eb" d="M 207.5,1378.5 C 217.728,1377.31 228.061,1377.64 238.5,1379.5C 241.079,1381.2 242.413,1383.36 242.5,1386C 237.049,1388.81 231.716,1391.81 226.5,1395C 217.858,1396.7 209.358,1399.54 201,1403.5C 197.139,1402.95 193.472,1403.95 190,1406.5C 189.667,1406.17 189.333,1405.83 189,1405.5C 186.722,1406.26 184.222,1407.43 181.5,1409C 172.376,1410.8 163.376,1413.13 154.5,1416C 151.854,1416.5 149.187,1416.66 146.5,1416.5C 146.5,1415.83 146.5,1415.17 146.5,1414.5C 148.781,1414.92 150.448,1414.26 151.5,1412.5C 155.347,1411.79 159.014,1410.62 162.5,1409C 163.047,1408.08 163.713,1407.24 164.5,1406.5C 171.636,1403.98 178.803,1401.64 186,1399.5C 189.878,1399.02 193.544,1399.02 197,1399.5C 200.675,1397.61 204.509,1396.11 208.5,1395C 217.887,1394.33 226.054,1391.5 233,1386.5C 233.333,1386.83 233.667,1387.17 234,1387.5C 237.208,1384.96 236.708,1382.96 232.5,1381.5C 231.914,1381.71 231.414,1382.04 231,1382.5C 227.048,1380.09 222.882,1379.42 218.5,1380.5C 214.803,1379.99 211.136,1379.33 207.5,1378.5 Z"/></g>
<g><path style="opacity:1" fill="#8f3abf" d="M 377.5,1401.5 C 376.105,1400.19 375.105,1400.52 374.5,1402.5C 370.101,1399.97 365.601,1400.3 361,1403.5C 360.51,1404.79 360.343,1406.13 360.5,1407.5C 358.319,1407.28 356.653,1408.12 355.5,1410C 355.833,1410.33 356.167,1410.67 356.5,1411C 355.572,1411.39 354.905,1412.05 354.5,1413C 353.385,1415.77 352.719,1418.27 352.5,1420.5C 351.624,1420.63 350.957,1420.3 350.5,1419.5C 351.645,1418.11 351.645,1416.78 350.5,1415.5C 349.719,1416.73 349.219,1418.06 349,1419.5C 347.853,1418.54 346.853,1418.88 346,1420.5C 346.696,1416.89 347.53,1413.22 348.5,1409.5C 349.458,1406.97 350.792,1404.63 352.5,1402.5C 352.167,1401.83 351.833,1401.17 351.5,1400.5C 355.441,1397.98 356.774,1394.65 355.5,1390.5C 359.392,1389.55 363.059,1388.05 366.5,1386C 369.94,1385.82 373.273,1385.65 376.5,1385.5C 378.171,1387.51 378.838,1389.84 378.5,1392.5C 377.5,1392.5 376.5,1392.5 375.5,1392.5C 375.798,1395.26 376.798,1397.76 378.5,1400C 377.944,1400.38 377.611,1400.88 377.5,1401.5 Z"/></g>
<g><path style="opacity:1" fill="#8fe2f1" d="M 150.5,1395.5 C 152.15,1397.02 153.483,1398.85 154.5,1401C 153.316,1403.51 152.149,1406.01 151,1408.5C 144.132,1412.15 144.632,1412.81 152.5,1410.5C 152.167,1411.17 151.833,1411.83 151.5,1412.5C 150.448,1414.26 148.781,1414.92 146.5,1414.5C 143.398,1414.85 140.565,1414.18 138,1412.5C 136.644,1413.38 135.144,1413.71 133.5,1413.5C 135.426,1411.71 137.759,1410.71 140.5,1410.5C 140.466,1407.8 141.133,1405.3 142.5,1403C 142,1402.5 141.5,1402 141,1401.5C 137.053,1402.74 132.886,1402.74 128.5,1401.5C 128.5,1400.83 128.5,1400.17 128.5,1399.5C 129.833,1399.17 131.167,1398.83 132.5,1398.5C 138.393,1396.98 144.393,1395.98 150.5,1395.5 Z"/></g>
<g><path style="opacity:1" fill="#723fb8" d="M 320.5,1353.5 C 320.141,1355.37 319.141,1356.87 317.5,1358C 317.833,1358.17 318.167,1358.33 318.5,1358.5C 319.425,1357.36 320.259,1357.36 321,1358.5C 323.009,1357.1 325.009,1355.76 327,1354.5C 330.937,1355.43 331.104,1357.26 327.5,1360C 327.833,1361 328.167,1362 328.5,1363C 325.91,1368.19 322.91,1372.52 319.5,1376C 319.833,1376.33 320.167,1376.67 320.5,1377C 317.138,1381.71 312.805,1385.21 307.5,1387.5C 305.671,1391.24 303.004,1394.24 299.5,1396.5C 301.239,1401.02 299.739,1404.02 295,1405.5C 294.517,1406.45 294.351,1407.45 294.5,1408.5C 292.949,1410.76 291.616,1413.26 290.5,1416C 291.022,1418.48 291.022,1420.81 290.5,1423C 288.087,1425.66 286.587,1428.83 286,1432.5C 284.024,1435.22 281.858,1437.72 279.5,1440C 280.412,1441.63 279.745,1442.46 277.5,1442.5C 276.306,1440.52 276.306,1438.52 277.5,1436.5C 284.877,1431.87 286.211,1425.7 281.5,1418C 282.64,1415.82 283.64,1413.98 284.5,1412.5C 285.552,1412.65 286.552,1412.48 287.5,1412C 287.167,1411.67 286.833,1411.33 286.5,1411C 290.941,1408.72 291.274,1406.22 287.5,1403.5C 291.21,1401.79 293.877,1399.12 295.5,1395.5C 299.132,1390.67 303.466,1386.34 308.5,1382.5C 309.342,1379.12 310.842,1376.12 313,1373.5C 314.959,1370.47 315.459,1367.31 314.5,1364C 315.952,1362.44 317.619,1361.1 319.5,1360C 317.203,1359.98 314.869,1360.15 312.5,1360.5C 313.5,1359.17 314.5,1357.83 315.5,1356.5C 316.659,1354.75 318.326,1353.75 320.5,1353.5 Z"/></g>
<g><path style="opacity:1" fill="#5ca2e0" d="M 250.5,1376.5 C 251.209,1377.4 252.209,1377.74 253.5,1377.5C 258.975,1378.49 264.642,1378.82 270.5,1378.5C 269.284,1380.45 267.618,1381.95 265.5,1383C 266.5,1384.67 267.5,1386.33 268.5,1388C 261.998,1391.72 255.332,1395.05 248.5,1398C 246.208,1399.29 244.208,1400.96 242.5,1403C 236.574,1403.55 231.074,1405.38 226,1408.5C 225.617,1407.94 225.117,1407.61 224.5,1407.5C 223.883,1407.39 223.383,1407.06 223,1406.5C 220.409,1407.15 217.742,1408.15 215,1409.5C 214.228,1409.36 213.561,1409.02 213,1408.5C 211.514,1410.58 209.514,1411.91 207,1412.5C 206.722,1411.58 206.222,1410.92 205.5,1410.5C 213.029,1406.77 220.696,1403.44 228.5,1400.5C 234.064,1397.47 239.897,1394.81 246,1392.5C 249.525,1388.98 253.358,1385.82 257.5,1383C 251.582,1380.02 245.249,1378.85 238.5,1379.5C 228.061,1377.64 217.728,1377.31 207.5,1378.5C 207.167,1378.5 206.833,1378.5 206.5,1378.5C 206.5,1377.83 206.5,1377.17 206.5,1376.5C 221.142,1375.76 235.809,1375.76 250.5,1376.5 Z"/></g>
<g><path style="opacity:1" fill="#7627a8" d="M 331.5,1373.5 C 333.529,1377.71 335.862,1382.21 338.5,1387C 337.318,1388.74 335.651,1389.74 333.5,1390C 336.167,1390.67 336.167,1391.33 333.5,1392C 334.833,1393.33 334.833,1394.67 333.5,1396C 335.669,1396.43 337.669,1395.93 339.5,1394.5C 342.665,1395.46 344.332,1397.63 344.5,1401C 342.859,1402.65 343.193,1403.65 345.5,1404C 343.487,1404.88 343.487,1406.21 345.5,1408C 343.901,1409.07 342.901,1410.57 342.5,1412.5C 342.623,1414.38 342.623,1416.21 342.5,1418C 341.833,1418.67 341.167,1419.33 340.5,1420C 341.252,1420.67 341.586,1421.5 341.5,1422.5C 340.503,1422.47 339.836,1422.97 339.5,1424C 337.942,1428.69 336.776,1433.19 336,1437.5C 335.583,1438.76 334.75,1439.42 333.5,1439.5C 334.036,1437.57 334.036,1435.4 333.5,1433C 335.301,1432.68 335.634,1432.02 334.5,1431C 335.848,1429.43 336.514,1427.59 336.5,1425.5C 334.587,1419.17 332.253,1413.01 329.5,1407C 328.551,1406.38 327.718,1406.55 327,1407.5C 327,1408.83 327,1410.17 327,1411.5C 323.001,1411.98 321.835,1413.98 323.5,1417.5C 321.004,1418.84 319.171,1420.84 318,1423.5C 316.86,1421.92 316.36,1420.26 316.5,1418.5C 315.833,1418.83 315.167,1419.17 314.5,1419.5C 313.304,1419.15 313.304,1418.65 314.5,1418C 312.861,1416.48 311.194,1416.31 309.5,1417.5C 309.389,1416.88 309.056,1416.38 308.5,1416C 310.167,1414.67 311.833,1413.33 313.5,1412C 313.167,1411 312.833,1410 312.5,1409C 315.464,1408.16 315.797,1407.16 313.5,1406C 315.733,1401.43 318.4,1397.09 321.5,1393C 320.874,1392.25 320.374,1391.42 320,1390.5C 318.959,1392.31 317.793,1392.64 316.5,1391.5C 316.953,1390.54 317.619,1389.71 318.5,1389C 318.167,1388.67 317.833,1388.33 317.5,1388C 320.987,1384.75 324.487,1382.25 328,1380.5C 328.45,1378.48 329.283,1376.65 330.5,1375C 329.16,1372.82 329.493,1372.32 331.5,1373.5 Z"/></g>
<g><path style="opacity:1" fill="#9d4ed0" d="M 374.5,1402.5 C 374.436,1406.22 373.936,1409.89 373,1413.5C 372.657,1416.19 371.324,1418.19 369,1419.5C 367.359,1427.38 363.025,1433.38 356,1437.5C 353.876,1436.38 352.043,1434.88 350.5,1433C 350.324,1431.34 350.991,1429.67 352.5,1428C 351.462,1425.79 351.462,1423.29 352.5,1420.5C 352.719,1418.27 353.385,1415.77 354.5,1413C 354.905,1412.05 355.572,1411.39 356.5,1411C 356.167,1410.67 355.833,1410.33 355.5,1410C 356.653,1408.12 358.319,1407.28 360.5,1407.5C 360.343,1406.13 360.51,1404.79 361,1403.5C 365.601,1400.3 370.101,1399.97 374.5,1402.5 Z"/></g>
<g><path style="opacity:1" fill="#aeeef7" d="M 128.5,1401.5 C 132.886,1402.74 137.053,1402.74 141,1401.5C 141.5,1402 142,1402.5 142.5,1403C 141.133,1405.3 140.466,1407.8 140.5,1410.5C 137.759,1410.71 135.426,1411.71 133.5,1413.5C 119.641,1413.85 117.974,1409.85 128.5,1401.5 Z"/></g>
<g><path style="opacity:1" fill="#422865" d="M 127.5,1393.5 C 124.909,1396.15 122.243,1398.82 119.5,1401.5C 117.952,1401.82 117.285,1402.82 117.5,1404.5C 115.821,1404.29 114.821,1404.95 114.5,1406.5C 111.883,1407.78 109.883,1409.78 108.5,1412.5C 107.094,1412.97 106.427,1413.97 106.5,1415.5C 103.806,1417.53 101.473,1419.86 99.5,1422.5C 106.133,1410.2 115.467,1400.53 127.5,1393.5 Z"/></g>
<g><path style="opacity:1" fill="#5ca7df" d="M 228.5,1400.5 C 220.696,1403.44 213.029,1406.77 205.5,1410.5C 195.423,1413.63 186.589,1417.96 179,1423.5C 178.667,1423.17 178.333,1422.83 178,1422.5C 176.51,1424.56 174.51,1425.89 172,1426.5C 171.667,1426.17 171.333,1425.83 171,1425.5C 168.557,1426.59 166.057,1427.59 163.5,1428.5C 161.2,1428.13 159.033,1428.13 157,1428.5C 154.626,1426.75 152.126,1426.42 149.5,1427.5C 147.719,1425.45 145.719,1425.12 143.5,1426.5C 141.888,1422.52 138.888,1420.86 134.5,1421.5C 133.5,1420.83 132.5,1420.17 131.5,1419.5C 132.833,1419.5 134.167,1419.5 135.5,1419.5C 141.021,1420.34 146.521,1421.34 152,1422.5C 155.339,1422.16 158.339,1422.16 161,1422.5C 164.258,1420.41 167.591,1419.41 171,1419.5C 177.983,1415.17 185.649,1411.17 194,1407.5C 194.333,1407.83 194.667,1408.17 195,1408.5C 197.95,1407.61 200.617,1406.27 203,1404.5C 204,1405.17 205,1405.83 206,1406.5C 206.674,1405.42 207.674,1404.75 209,1404.5C 215.487,1403 221.987,1401.67 228.5,1400.5 Z"/></g>
<g><path style="opacity:1" fill="#97b5d9" d="M 123.5,1402.5 C 123.179,1404.05 122.179,1404.71 120.5,1404.5C 121.244,1407.95 119.91,1409.62 116.5,1409.5C 116.5,1411.17 116.5,1412.83 116.5,1414.5C 121.859,1415.52 127.193,1416.52 132.5,1417.5C 133.5,1418.17 134.5,1418.83 135.5,1419.5C 134.167,1419.5 132.833,1419.5 131.5,1419.5C 126.504,1418.5 121.504,1417.34 116.5,1416C 115.707,1414.91 115.04,1413.75 114.5,1412.5C 115.93,1409.73 117.43,1407.07 119,1404.5C 120.33,1403.42 121.83,1402.75 123.5,1402.5 Z"/></g>
<g><path style="opacity:1" fill="#5cb8e6" d="M 238.5,1379.5 C 245.249,1378.85 251.582,1380.02 257.5,1383C 253.358,1385.82 249.525,1388.98 246,1392.5C 239.897,1394.81 234.064,1397.47 228.5,1400.5C 221.987,1401.67 215.487,1403 209,1404.5C 207.674,1404.75 206.674,1405.42 206,1406.5C 205,1405.83 204,1405.17 203,1404.5C 200.617,1406.27 197.95,1407.61 195,1408.5C 194.667,1408.17 194.333,1407.83 194,1407.5C 185.649,1411.17 177.983,1415.17 171,1419.5C 167.591,1419.41 164.258,1420.41 161,1422.5C 158.339,1422.16 155.339,1422.16 152,1422.5C 146.521,1421.34 141.021,1420.34 135.5,1419.5C 134.5,1418.83 133.5,1418.17 132.5,1417.5C 137.234,1417.58 141.9,1417.25 146.5,1416.5C 149.187,1416.66 151.854,1416.5 154.5,1416C 163.376,1413.13 172.376,1410.8 181.5,1409C 184.222,1407.43 186.722,1406.26 189,1405.5C 189.333,1405.83 189.667,1406.17 190,1406.5C 193.472,1403.95 197.139,1402.95 201,1403.5C 209.358,1399.54 217.858,1396.7 226.5,1395C 231.716,1391.81 237.049,1388.81 242.5,1386C 242.413,1383.36 241.079,1381.2 238.5,1379.5 Z"/></g>
<g><path style="opacity:1" fill="#97cde6" d="M 128.5,1399.5 C 128.5,1400.17 128.5,1400.83 128.5,1401.5C 117.974,1409.85 119.641,1413.85 133.5,1413.5C 135.144,1413.71 136.644,1413.38 138,1412.5C 140.565,1414.18 143.398,1414.85 146.5,1414.5C 146.5,1415.17 146.5,1415.83 146.5,1416.5C 141.9,1417.25 137.234,1417.58 132.5,1417.5C 127.193,1416.52 121.859,1415.52 116.5,1414.5C 116.5,1412.83 116.5,1411.17 116.5,1409.5C 119.91,1409.62 121.244,1407.95 120.5,1404.5C 122.179,1404.71 123.179,1404.05 123.5,1402.5C 124.486,1400.59 126.152,1399.59 128.5,1399.5 Z"/></g>
<g><path style="opacity:1" fill="#8692c6" d="M 140.5,1390.5 C 140.5,1390.83 140.5,1391.17 140.5,1391.5C 137.648,1393.08 134.648,1394.58 131.5,1396C 129.937,1396.76 128.937,1397.93 128.5,1399.5C 126.152,1399.59 124.486,1400.59 123.5,1402.5C 121.83,1402.75 120.33,1403.42 119,1404.5C 117.43,1407.07 115.93,1409.73 114.5,1412.5C 115.04,1413.75 115.707,1414.91 116.5,1416C 121.504,1417.34 126.504,1418.5 131.5,1419.5C 132.5,1420.17 133.5,1420.83 134.5,1421.5C 129.199,1421.7 124.199,1420.7 119.5,1418.5C 118.702,1418.96 118.369,1419.62 118.5,1420.5C 114.768,1420.33 111.768,1418.83 109.5,1416C 111.2,1412.83 112.867,1409.66 114.5,1406.5C 114.821,1404.95 115.821,1404.29 117.5,1404.5C 117.285,1402.82 117.952,1401.82 119.5,1401.5C 123.618,1399.94 127.284,1397.6 130.5,1394.5C 133.855,1393.15 137.188,1391.82 140.5,1390.5 Z"/></g>
<g><path style="opacity:1" fill="#6a6bc8" d="M 300.5,1366.5 C 301.5,1366.83 302.167,1367.5 302.5,1368.5C 300.076,1369.03 297.743,1369.86 295.5,1371C 296.966,1372.55 297.966,1374.39 298.5,1376.5C 292.615,1381.22 287.615,1386.72 283.5,1393C 279.365,1396.8 274.698,1399.8 269.5,1402C 264.567,1407.58 258.567,1411.41 251.5,1413.5C 251.509,1415.31 251.009,1416.98 250,1418.5C 249.333,1419.83 248.667,1419.83 248,1418.5C 247.682,1420.06 246.849,1421.23 245.5,1422C 245.957,1422.41 246.291,1422.91 246.5,1423.5C 245.573,1424.91 244.573,1426.41 243.5,1428C 244.226,1430.15 244.393,1432.65 244,1435.5C 241.943,1436.98 240.61,1438.98 240,1441.5C 239.667,1441.17 239.333,1440.83 239,1440.5C 238.773,1443.06 237.44,1444.73 235,1445.5C 233.562,1446.9 232.729,1448.57 232.5,1450.5C 226.777,1450.8 222.11,1452.97 218.5,1457C 213.562,1458.76 208.562,1461.26 203.5,1464.5C 202.038,1463.53 200.705,1463.86 199.5,1465.5C 198.784,1464.69 197.95,1464.02 197,1463.5C 192.544,1464.86 188.211,1464.53 184,1462.5C 182.105,1462.61 180.438,1463.28 179,1464.5C 176.095,1464.52 173.095,1464.19 170,1463.5C 166.791,1465.31 163.791,1465.31 161,1463.5C 157.713,1463.4 154.546,1463.73 151.5,1464.5C 150.289,1463.73 150.289,1462.89 151.5,1462C 150.333,1461.5 149.5,1460.67 149,1459.5C 147.612,1460.55 146.112,1460.72 144.5,1460C 142.606,1458.22 140.939,1456.22 139.5,1454C 138.216,1453.32 137.049,1453.48 136,1454.5C 134.398,1451.02 133.232,1447.35 132.5,1443.5C 130.853,1441.07 129.52,1441.07 128.5,1443.5C 128.322,1440.12 128.322,1436.95 128.5,1434C 126.666,1431.34 124.666,1428.84 122.5,1426.5C 129.972,1427.02 133.305,1430.85 132.5,1438C 134.301,1438.32 134.634,1438.98 133.5,1440C 135.378,1441.54 136.878,1443.38 138,1445.5C 138.333,1444.5 138.667,1443.5 139,1442.5C 140.528,1445.42 141.861,1448.42 143,1451.5C 143.561,1450.98 144.228,1450.64 145,1450.5C 146.453,1452.43 148.12,1454.1 150,1455.5C 155.74,1455.49 161.407,1455.15 167,1454.5C 169.952,1457.18 172.952,1457.51 176,1455.5C 179.922,1456.73 183.589,1456.06 187,1453.5C 187.333,1453.83 187.667,1454.17 188,1454.5C 192.422,1453.03 196.589,1451.2 200.5,1449C 204.514,1447.82 208.181,1447.65 211.5,1448.5C 213.169,1447.11 214.836,1446.78 216.5,1447.5C 218.711,1446.88 220.711,1445.88 222.5,1444.5C 224.529,1442.14 226.529,1439.81 228.5,1437.5C 229.983,1433.62 231.15,1429.62 232,1425.5C 233.667,1422.83 235.333,1420.17 237,1417.5C 237.333,1417.83 237.667,1418.17 238,1418.5C 243.251,1415.59 248.251,1412.26 253,1408.5C 260.814,1405.17 268.648,1401 276.5,1396C 277.833,1395.33 277.833,1394.67 276.5,1394C 278.09,1392.95 279.59,1391.79 281,1390.5C 281.333,1390.83 281.667,1391.17 282,1391.5C 282.009,1387.82 283.843,1385.66 287.5,1385C 287.958,1382.6 289.292,1380.94 291.5,1380C 290.576,1379.15 290.576,1378.15 291.5,1377C 290.218,1375.09 288.385,1374.26 286,1374.5C 283.502,1374.92 281.002,1375.25 278.5,1375.5C 286.254,1373.63 293.587,1370.63 300.5,1366.5 Z"/></g>
<g><path style="opacity:1" fill="#6f24a1" d="M 333.5,1439.5 C 333.5,1439.83 333.5,1440.17 333.5,1440.5C 331.827,1441.34 330.66,1442.68 330,1444.5C 328.149,1442.22 326.482,1442.22 325,1444.5C 324.667,1444.17 324.333,1443.83 324,1443.5C 321.369,1445.12 318.536,1446.29 315.5,1447C 310.565,1449.65 305.732,1452.48 301,1455.5C 300.667,1455.17 300.333,1454.83 300,1454.5C 298.65,1458 296.316,1459.33 293,1458.5C 290.842,1460.91 289.342,1463.24 288.5,1465.5C 288.167,1465.33 287.833,1465.17 287.5,1465C 289.278,1462.78 289.445,1460.61 288,1458.5C 285.662,1460.23 283.162,1461.57 280.5,1462.5C 281.142,1458.87 283.142,1456.53 286.5,1455.5C 286.48,1453.86 287.147,1452.52 288.5,1451.5C 288.291,1450.91 287.957,1450.41 287.5,1450C 292.944,1445.72 296.611,1440.22 298.5,1433.5C 299.086,1433.71 299.586,1434.04 300,1434.5C 300.368,1433.09 301.201,1432.09 302.5,1431.5C 305.132,1426.92 307.466,1422.26 309.5,1417.5C 311.194,1416.31 312.861,1416.48 314.5,1418C 313.304,1418.65 313.304,1419.15 314.5,1419.5C 315.167,1419.17 315.833,1418.83 316.5,1418.5C 316.36,1420.26 316.86,1421.92 318,1423.5C 319.171,1420.84 321.004,1418.84 323.5,1417.5C 321.835,1413.98 323.001,1411.98 327,1411.5C 327,1410.17 327,1408.83 327,1407.5C 327.718,1406.55 328.551,1406.38 329.5,1407C 332.253,1413.01 334.587,1419.17 336.5,1425.5C 336.514,1427.59 335.848,1429.43 334.5,1431C 335.634,1432.02 335.301,1432.68 333.5,1433C 334.036,1435.4 334.036,1437.57 333.5,1439.5 Z"/></g>
<g><path style="opacity:1" fill="#638fd6" d="M 121.5,1421.5 C 120.391,1421.44 119.391,1421.11 118.5,1420.5C 118.369,1419.62 118.702,1418.96 119.5,1418.5C 124.199,1420.7 129.199,1421.7 134.5,1421.5C 138.888,1420.86 141.888,1422.52 143.5,1426.5C 148.552,1429.62 153.719,1433.29 159,1437.5C 162.772,1436.73 166.605,1436.06 170.5,1435.5C 171.647,1435.18 172.481,1434.52 173,1433.5C 173.333,1434.17 173.667,1434.83 174,1435.5C 177.659,1434.48 181.493,1432.98 185.5,1431C 185.167,1430.67 184.833,1430.33 184.5,1430C 188.89,1428.11 192.89,1425.61 196.5,1422.5C 197.002,1421.28 197.335,1420.12 197.5,1419C 206.424,1414.65 215.424,1410.81 224.5,1407.5C 225.117,1407.61 225.617,1407.94 226,1408.5C 231.074,1405.38 236.574,1403.55 242.5,1403C 244.208,1400.96 246.208,1399.29 248.5,1398C 255.332,1395.05 261.998,1391.72 268.5,1388C 267.5,1386.33 266.5,1384.67 265.5,1383C 267.618,1381.95 269.284,1380.45 270.5,1378.5C 273.525,1378.12 276.525,1377.96 279.5,1378C 277.661,1381.32 275.661,1384.49 273.5,1387.5C 270.671,1387.32 269.004,1388.66 268.5,1391.5C 261.6,1394.92 255.434,1399.25 250,1404.5C 248,1404.5 246,1404.5 244,1404.5C 234.514,1408.11 225.181,1412.11 216,1416.5C 214.333,1416.5 212.667,1416.5 211,1416.5C 210.999,1419.79 209.499,1421.95 206.5,1423C 206.51,1426.63 204.844,1429.63 201.5,1432C 202.308,1432.31 202.975,1432.81 203.5,1433.5C 198.642,1437.1 193.309,1439.93 187.5,1442C 180.978,1442.67 174.478,1443.5 168,1444.5C 164.189,1444.64 160.522,1443.98 157,1442.5C 155.657,1443.21 154.324,1442.88 153,1441.5C 152.439,1442.02 151.772,1442.36 151,1442.5C 149.14,1440.62 147.64,1438.46 146.5,1436C 145.216,1435.32 144.049,1435.48 143,1436.5C 141.463,1433.43 139.963,1430.43 138.5,1427.5C 133.358,1424.45 127.691,1422.45 121.5,1421.5 Z"/></g>
<g><path style="opacity:1" fill="#7031ab" d="M 309.5,1417.5 C 307.466,1422.26 305.132,1426.92 302.5,1431.5C 301.201,1432.09 300.368,1433.09 300,1434.5C 299.586,1434.04 299.086,1433.71 298.5,1433.5C 296.611,1440.22 292.944,1445.72 287.5,1450C 287.957,1450.41 288.291,1450.91 288.5,1451.5C 287.147,1452.52 286.48,1453.86 286.5,1455.5C 283.142,1456.53 281.142,1458.87 280.5,1462.5C 278.219,1463.31 276.219,1464.65 274.5,1466.5C 275.833,1467.83 275.833,1469.17 274.5,1470.5C 274.968,1472.13 275.968,1473.3 277.5,1474C 276.788,1475.43 276.621,1476.93 277,1478.5C 273.592,1476.78 271.259,1477.78 270,1481.5C 269.667,1481.17 269.333,1480.83 269,1480.5C 266.015,1483.41 262.515,1485.41 258.5,1486.5C 258.756,1484.22 260.09,1483.06 262.5,1483C 261.833,1482.67 261.167,1482.33 260.5,1482C 261.554,1480.61 261.72,1479.11 261,1477.5C 258.445,1479.05 256.612,1481.22 255.5,1484C 252.793,1486.58 250.126,1486.75 247.5,1484.5C 246.713,1485.24 246.047,1486.08 245.5,1487C 242.244,1488.78 238.911,1490.28 235.5,1491.5C 235.5,1492.5 235.5,1493.5 235.5,1494.5C 232.956,1495.69 230.29,1496.69 227.5,1497.5C 226.914,1497.29 226.414,1496.96 226,1496.5C 224.333,1498.5 222.667,1500.5 221,1502.5C 219.612,1501.45 218.112,1501.28 216.5,1502C 211.538,1505.27 206.372,1507.1 201,1507.5C 200.667,1508.17 200.333,1508.83 200,1509.5C 199.722,1508.58 199.222,1507.92 198.5,1507.5C 197.342,1506.43 197.342,1505.26 198.5,1504C 198.095,1503.05 197.428,1502.39 196.5,1502C 197.167,1501.67 197.833,1501.33 198.5,1501C 197.377,1499.96 196.044,1499.29 194.5,1499C 193.167,1498.33 193.167,1497.67 194.5,1497C 191.975,1496.86 189.642,1496.69 187.5,1496.5C 187.962,1495.12 188.962,1494.45 190.5,1494.5C 192.241,1495.25 193.908,1495.58 195.5,1495.5C 199.429,1494.18 203.429,1493.18 207.5,1492.5C 211.804,1492.51 216.137,1492.51 220.5,1492.5C 221.192,1491.97 221.692,1491.31 222,1490.5C 223.789,1490.38 225.622,1490.38 227.5,1490.5C 229.833,1489.33 232.167,1488.17 234.5,1487C 235.227,1485.6 235.727,1484.1 236,1482.5C 238.659,1480.08 241.492,1478.74 244.5,1478.5C 245.386,1477.68 245.719,1476.68 245.5,1475.5C 249.699,1473.47 253.533,1470.81 257,1467.5C 257.333,1467.83 257.667,1468.17 258,1468.5C 261.116,1462.38 265.616,1457.55 271.5,1454C 270.944,1453.62 270.611,1453.12 270.5,1452.5C 271.914,1452.14 273.414,1451.14 275,1449.5C 275.945,1449.91 276.612,1450.57 277,1451.5C 277.961,1449.78 278.628,1448.12 279,1446.5C 277.663,1447.76 276.163,1448.26 274.5,1448C 276.562,1446.27 277.562,1444.43 277.5,1442.5C 279.745,1442.46 280.412,1441.63 279.5,1440C 281.858,1437.72 284.024,1435.22 286,1432.5C 286.587,1428.83 288.087,1425.66 290.5,1423C 291.022,1420.81 291.022,1418.48 290.5,1416C 291.616,1413.26 292.949,1410.76 294.5,1408.5C 295.528,1409.79 295.195,1410.95 293.5,1412C 295.454,1415.01 297.454,1414.84 299.5,1411.5C 299.291,1410.91 298.957,1410.41 298.5,1410C 299.833,1409.33 301.167,1408.67 302.5,1408C 302.167,1407.67 301.833,1407.33 301.5,1407C 303.037,1405.89 303.703,1404.39 303.5,1402.5C 305.308,1402.51 306.975,1402.01 308.5,1401C 308.167,1400.67 307.833,1400.33 307.5,1400C 309.532,1398.32 311.532,1396.66 313.5,1395C 312.527,1392.72 313.527,1391.55 316.5,1391.5C 317.793,1392.64 318.959,1392.31 320,1390.5C 320.374,1391.42 320.874,1392.25 321.5,1393C 318.4,1397.09 315.733,1401.43 313.5,1406C 315.797,1407.16 315.464,1408.16 312.5,1409C 312.833,1410 313.167,1411 313.5,1412C 311.833,1413.33 310.167,1414.67 308.5,1416C 309.056,1416.38 309.389,1416.88 309.5,1417.5 Z"/></g>
<g><path style="opacity:1" fill="#6151ab" d="M 108.5,1412.5 C 108.5,1415.17 108.5,1417.83 108.5,1420.5C 112.912,1423.04 117.578,1425.04 122.5,1426.5C 124.666,1428.84 126.666,1431.34 128.5,1434C 128.322,1436.95 128.322,1440.12 128.5,1443.5C 126.579,1444.36 124.579,1445.03 122.5,1445.5C 122.649,1444.45 122.483,1443.45 122,1442.5C 120.098,1441.79 118.265,1440.79 116.5,1439.5C 115.972,1438.28 115.305,1437.11 114.5,1436C 115.5,1435.17 116.5,1434.33 117.5,1433.5C 116.253,1431.68 115.586,1429.68 115.5,1427.5C 111.853,1426.68 108.52,1425.18 105.5,1423C 106.435,1420.62 106.768,1418.12 106.5,1415.5C 106.427,1413.97 107.094,1412.97 108.5,1412.5 Z"/></g>
<g><path style="opacity:1" fill="#853ab6" d="M 377.5,1401.5 C 376.657,1405.87 375.657,1410.21 374.5,1414.5C 373.821,1418.91 372.821,1423.24 371.5,1427.5C 371.747,1429.86 371.081,1431.86 369.5,1433.5C 368.504,1433.41 367.671,1433.75 367,1434.5C 363.753,1439.21 361.253,1444.21 359.5,1449.5C 355.313,1451.76 350.979,1453.76 346.5,1455.5C 344.057,1453.94 341.39,1453.28 338.5,1453.5C 336.686,1449.26 335.019,1444.93 333.5,1440.5C 333.5,1440.17 333.5,1439.83 333.5,1439.5C 334.75,1439.42 335.583,1438.76 336,1437.5C 336.776,1433.19 337.942,1428.69 339.5,1424C 339.836,1422.97 340.503,1422.47 341.5,1422.5C 341.369,1423.24 341.536,1423.91 342,1424.5C 343.667,1419.18 345.834,1414.18 348.5,1409.5C 347.53,1413.22 346.696,1416.89 346,1420.5C 346.853,1418.88 347.853,1418.54 349,1419.5C 349.219,1418.06 349.719,1416.73 350.5,1415.5C 351.645,1416.78 351.645,1418.11 350.5,1419.5C 350.957,1420.3 351.624,1420.63 352.5,1420.5C 351.462,1423.29 351.462,1425.79 352.5,1428C 350.991,1429.67 350.324,1431.34 350.5,1433C 352.043,1434.88 353.876,1436.38 356,1437.5C 363.025,1433.38 367.359,1427.38 369,1419.5C 371.324,1418.19 372.657,1416.19 373,1413.5C 373.936,1409.89 374.436,1406.22 374.5,1402.5C 375.105,1400.52 376.105,1400.19 377.5,1401.5 Z"/></g>
<g><path style="opacity:1" fill="#6683d1" d="M 121.5,1421.5 C 127.691,1422.45 133.358,1424.45 138.5,1427.5C 139.963,1430.43 141.463,1433.43 143,1436.5C 144.049,1435.48 145.216,1435.32 146.5,1436C 147.64,1438.46 149.14,1440.62 151,1442.5C 151.772,1442.36 152.439,1442.02 153,1441.5C 154.324,1442.88 155.657,1443.21 157,1442.5C 160.522,1443.98 164.189,1444.64 168,1444.5C 174.478,1443.5 180.978,1442.67 187.5,1442C 193.309,1439.93 198.642,1437.1 203.5,1433.5C 202.975,1432.81 202.308,1432.31 201.5,1432C 204.844,1429.63 206.51,1426.63 206.5,1423C 209.499,1421.95 210.999,1419.79 211,1416.5C 212.667,1416.5 214.333,1416.5 216,1416.5C 225.181,1412.11 234.514,1408.11 244,1404.5C 246,1404.5 248,1404.5 250,1404.5C 255.434,1399.25 261.6,1394.92 268.5,1391.5C 269.004,1388.66 270.671,1387.32 273.5,1387.5C 275.661,1384.49 277.661,1381.32 279.5,1378C 276.525,1377.96 273.525,1378.12 270.5,1378.5C 264.642,1378.82 258.975,1378.49 253.5,1377.5C 263.412,1376.93 273.245,1376.93 283,1377.5C 284.852,1379.23 284.686,1380.4 282.5,1381C 282.833,1381.33 283.167,1381.67 283.5,1382C 282.54,1383.42 281.707,1384.92 281,1386.5C 277.041,1389.46 272.541,1392.46 267.5,1395.5C 266.614,1396.32 266.281,1397.32 266.5,1398.5C 253.9,1403.59 241.566,1409.26 229.5,1415.5C 228.262,1417.64 226.429,1418.97 224,1419.5C 220.317,1423.28 217.817,1427.78 216.5,1433C 218.197,1435.95 217.53,1438.29 214.5,1440C 210.278,1441.03 206.778,1443.19 204,1446.5C 203.667,1446.17 203.333,1445.83 203,1445.5C 201.184,1447.44 199.184,1448.11 197,1447.5C 196.147,1449.12 195.147,1449.46 194,1448.5C 192.168,1449.86 190.335,1450.19 188.5,1449.5C 186.677,1450.49 185.177,1451.82 184,1453.5C 181.333,1450.83 178.667,1450.83 176,1453.5C 175.193,1451.78 173.693,1451.45 171.5,1452.5C 169.311,1452.41 167.311,1451.74 165.5,1450.5C 164.808,1451.03 164.308,1451.69 164,1452.5C 162.093,1452.58 160.093,1452.25 158,1451.5C 157.333,1454.17 156.667,1454.17 156,1451.5C 153.667,1451.5 151.333,1451.5 149,1451.5C 144.998,1448.01 142.498,1443.67 141.5,1438.5C 139.005,1437.8 136.672,1436.8 134.5,1435.5C 133.242,1428.85 129.242,1424.85 122.5,1423.5C 121.702,1423.04 121.369,1422.38 121.5,1421.5 Z"/></g>
<g><path style="opacity:1" fill="#6c4eb9" d="M 297.5,1388.5 C 295.833,1391.17 294.167,1393.83 292.5,1396.5C 286.029,1402.13 279.363,1407.63 272.5,1413C 272.833,1413.33 273.167,1413.67 273.5,1414C 269.768,1416.28 268.435,1419.45 269.5,1423.5C 268.872,1425.26 267.872,1426.76 266.5,1428C 269.941,1429.71 270.108,1431.54 267,1433.5C 266.51,1434.79 266.343,1436.13 266.5,1437.5C 265.178,1437.33 264.011,1437.66 263,1438.5C 262.486,1441.03 261.32,1443.19 259.5,1445C 260.167,1445.33 260.833,1445.67 261.5,1446C 252.989,1450.87 246.823,1456.71 243,1463.5C 242.667,1463.17 242.333,1462.83 242,1462.5C 241.02,1463.98 239.853,1465.31 238.5,1466.5C 231.587,1470.82 225.253,1473.82 219.5,1475.5C 217.044,1475.93 214.544,1475.26 212,1473.5C 211.683,1475.3 211.016,1475.63 210,1474.5C 207.159,1477.65 205.326,1477.15 204.5,1473C 205.416,1472.72 206.082,1472.22 206.5,1471.5C 207.849,1471.53 209.349,1470.86 211,1469.5C 211.333,1469.83 211.667,1470.17 212,1470.5C 217.788,1466.6 223.788,1462.93 230,1459.5C 230.684,1460.78 230.517,1461.95 229.5,1463C 230,1463.5 230.5,1464 231,1464.5C 234.788,1461.6 238.288,1459.1 241.5,1457C 241.167,1456.67 240.833,1456.33 240.5,1456C 244.874,1451.3 249.874,1447.3 255.5,1444C 256.88,1442.68 257.214,1441.34 256.5,1440C 257.579,1439.04 258.745,1438.21 260,1437.5C 260.684,1436.22 260.517,1435.05 259.5,1434C 260.167,1433.67 260.833,1433.33 261.5,1433C 258.85,1430.92 259.184,1429.25 262.5,1428C 260.606,1426.9 259.939,1425.57 260.5,1424C 263.034,1416.2 268.034,1410.87 275.5,1408C 277.824,1404 281.157,1401.17 285.5,1399.5C 289.24,1395.42 293.24,1391.75 297.5,1388.5 Z"/></g>
<g><path style="opacity:1" fill="#6777cc" d="M 122.5,1426.5 C 117.578,1425.04 112.912,1423.04 108.5,1420.5C 108.5,1417.83 108.5,1415.17 108.5,1412.5C 109.883,1409.78 111.883,1407.78 114.5,1406.5C 112.867,1409.66 111.2,1412.83 109.5,1416C 111.768,1418.83 114.768,1420.33 118.5,1420.5C 119.391,1421.11 120.391,1421.44 121.5,1421.5C 121.369,1422.38 121.702,1423.04 122.5,1423.5C 129.242,1424.85 133.242,1428.85 134.5,1435.5C 136.672,1436.8 139.005,1437.8 141.5,1438.5C 142.498,1443.67 144.998,1448.01 149,1451.5C 151.333,1451.5 153.667,1451.5 156,1451.5C 156.667,1454.17 157.333,1454.17 158,1451.5C 160.093,1452.25 162.093,1452.58 164,1452.5C 164.308,1451.69 164.808,1451.03 165.5,1450.5C 167.311,1451.74 169.311,1452.41 171.5,1452.5C 173.693,1451.45 175.193,1451.78 176,1453.5C 178.667,1450.83 181.333,1450.83 184,1453.5C 185.177,1451.82 186.677,1450.49 188.5,1449.5C 190.335,1450.19 192.168,1449.86 194,1448.5C 195.147,1449.46 196.147,1449.12 197,1447.5C 199.184,1448.11 201.184,1447.44 203,1445.5C 203.333,1445.83 203.667,1446.17 204,1446.5C 206.778,1443.19 210.278,1441.03 214.5,1440C 217.53,1438.29 218.197,1435.95 216.5,1433C 217.817,1427.78 220.317,1423.28 224,1419.5C 226.429,1418.97 228.262,1417.64 229.5,1415.5C 241.566,1409.26 253.9,1403.59 266.5,1398.5C 266.281,1397.32 266.614,1396.32 267.5,1395.5C 272.541,1392.46 277.041,1389.46 281,1386.5C 281.707,1384.92 282.54,1383.42 283.5,1382C 283.167,1381.67 282.833,1381.33 282.5,1381C 284.686,1380.4 284.852,1379.23 283,1377.5C 273.245,1376.93 263.412,1376.93 253.5,1377.5C 252.209,1377.74 251.209,1377.4 250.5,1376.5C 258.514,1376.43 266.514,1376.1 274.5,1375.5C 275.833,1375.5 277.167,1375.5 278.5,1375.5C 281.002,1375.25 283.502,1374.92 286,1374.5C 288.385,1374.26 290.218,1375.09 291.5,1377C 290.576,1378.15 290.576,1379.15 291.5,1380C 289.292,1380.94 287.958,1382.6 287.5,1385C 283.843,1385.66 282.009,1387.82 282,1391.5C 281.667,1391.17 281.333,1390.83 281,1390.5C 279.59,1391.79 278.09,1392.95 276.5,1394C 277.833,1394.67 277.833,1395.33 276.5,1396C 268.648,1401 260.814,1405.17 253,1408.5C 248.251,1412.26 243.251,1415.59 238,1418.5C 237.667,1418.17 237.333,1417.83 237,1417.5C 235.333,1420.17 233.667,1422.83 232,1425.5C 231.15,1429.62 229.983,1433.62 228.5,1437.5C 226.529,1439.81 224.529,1442.14 222.5,1444.5C 220.711,1445.88 218.711,1446.88 216.5,1447.5C 214.836,1446.78 213.169,1447.11 211.5,1448.5C 208.181,1447.65 204.514,1447.82 200.5,1449C 196.589,1451.2 192.422,1453.03 188,1454.5C 187.667,1454.17 187.333,1453.83 187,1453.5C 183.589,1456.06 179.922,1456.73 176,1455.5C 172.952,1457.51 169.952,1457.18 167,1454.5C 161.407,1455.15 155.74,1455.49 150,1455.5C 148.12,1454.1 146.453,1452.43 145,1450.5C 144.228,1450.64 143.561,1450.98 143,1451.5C 141.861,1448.42 140.528,1445.42 139,1442.5C 138.667,1443.5 138.333,1444.5 138,1445.5C 136.878,1443.38 135.378,1441.54 133.5,1440C 134.634,1438.98 134.301,1438.32 132.5,1438C 133.305,1430.85 129.972,1427.02 122.5,1426.5 Z"/></g>
<g><path style="opacity:1" fill="#5f9ada" d="M 224.5,1407.5 C 215.424,1410.81 206.424,1414.65 197.5,1419C 197.335,1420.12 197.002,1421.28 196.5,1422.5C 192.89,1425.61 188.89,1428.11 184.5,1430C 184.833,1430.33 185.167,1430.67 185.5,1431C 181.493,1432.98 177.659,1434.48 174,1435.5C 173.667,1434.83 173.333,1434.17 173,1433.5C 172.481,1434.52 171.647,1435.18 170.5,1435.5C 166.605,1436.06 162.772,1436.73 159,1437.5C 153.719,1433.29 148.552,1429.62 143.5,1426.5C 145.719,1425.12 147.719,1425.45 149.5,1427.5C 152.126,1426.42 154.626,1426.75 157,1428.5C 159.033,1428.13 161.2,1428.13 163.5,1428.5C 166.057,1427.59 168.557,1426.59 171,1425.5C 171.333,1425.83 171.667,1426.17 172,1426.5C 174.51,1425.89 176.51,1424.56 178,1422.5C 178.333,1422.83 178.667,1423.17 179,1423.5C 186.589,1417.96 195.423,1413.63 205.5,1410.5C 206.222,1410.92 206.722,1411.58 207,1412.5C 209.514,1411.91 211.514,1410.58 213,1408.5C 213.561,1409.02 214.228,1409.36 215,1409.5C 217.742,1408.15 220.409,1407.15 223,1406.5C 223.383,1407.06 223.883,1407.39 224.5,1407.5 Z"/></g>
<g><path style="opacity:1" fill="#441b63" d="M 378.5,1415.5 C 375.97,1423.57 373.137,1431.57 370,1439.5C 364.617,1450.6 358.951,1461.6 353,1472.5C 351.871,1474.14 350.371,1475.14 348.5,1475.5C 349.807,1473.52 351.141,1471.52 352.5,1469.5C 354.177,1465.96 355.677,1462.29 357,1458.5C 362.5,1450.83 366.667,1442.5 369.5,1433.5C 371.081,1431.86 371.747,1429.86 371.5,1427.5C 372.79,1426.94 373.623,1425.94 374,1424.5C 374.526,1421.73 375.359,1419.06 376.5,1416.5C 377.183,1416.14 377.85,1415.8 378.5,1415.5 Z"/></g>
<g><path style="opacity:1" fill="#5f339c" d="M 106.5,1415.5 C 106.768,1418.12 106.435,1420.62 105.5,1423C 108.52,1425.18 111.853,1426.68 115.5,1427.5C 115.586,1429.68 116.253,1431.68 117.5,1433.5C 116.5,1434.33 115.5,1435.17 114.5,1436C 115.305,1437.11 115.972,1438.28 116.5,1439.5C 117.048,1440.69 117.381,1441.86 117.5,1443C 116.049,1442.74 114.716,1442.9 113.5,1443.5C 118.532,1452.7 122.199,1462.36 124.5,1472.5C 123.089,1474.54 121.089,1475.54 118.5,1475.5C 117.914,1473.16 116.914,1470.99 115.5,1469C 117.223,1465.69 115.89,1463.85 111.5,1463.5C 111.452,1460.69 110.785,1458.02 109.5,1455.5C 110.641,1454.57 110.641,1453.74 109.5,1453C 110.167,1452.33 110.833,1451.67 111.5,1451C 110.009,1448.9 109.009,1446.57 108.5,1444C 109.634,1442.98 109.301,1442.32 107.5,1442C 107.152,1439.95 107.819,1437.95 109.5,1436C 108.874,1435.25 108.374,1434.42 108,1433.5C 107.667,1433.83 107.333,1434.17 107,1434.5C 106.691,1433.23 106.191,1432.07 105.5,1431C 106.118,1428.57 104.952,1427.07 102,1426.5C 100.697,1426.98 99.5307,1427.64 98.5,1428.5C 99.1495,1426.56 99.4828,1424.56 99.5,1422.5C 101.473,1419.86 103.806,1417.53 106.5,1415.5 Z"/></g>
<g><path style="opacity:1" fill="#6644ae" d="M 116.5,1439.5 C 118.265,1440.79 120.098,1441.79 122,1442.5C 122.483,1443.45 122.649,1444.45 122.5,1445.5C 124.5,1449.83 126.5,1454.17 128.5,1458.5C 129.597,1461.69 130.93,1464.69 132.5,1467.5C 132.267,1469.06 131.6,1470.4 130.5,1471.5C 129.153,1472.17 127.986,1472.17 127,1471.5C 126.283,1472.04 125.783,1472.71 125.5,1473.5C 124.833,1473.5 124.5,1473.17 124.5,1472.5C 122.199,1462.36 118.532,1452.7 113.5,1443.5C 114.716,1442.9 116.049,1442.74 117.5,1443C 117.381,1441.86 117.048,1440.69 116.5,1439.5 Z"/></g>
<g><path style="opacity:1" fill="#6d43b4" d="M 295.5,1395.5 C 293.877,1399.12 291.21,1401.79 287.5,1403.5C 291.274,1406.22 290.941,1408.72 286.5,1411C 286.833,1411.33 287.167,1411.67 287.5,1412C 286.552,1412.48 285.552,1412.65 284.5,1412.5C 283.64,1413.98 282.64,1415.82 281.5,1418C 286.211,1425.7 284.877,1431.87 277.5,1436.5C 276.306,1438.52 276.306,1440.52 277.5,1442.5C 277.562,1444.43 276.562,1446.27 274.5,1448C 276.163,1448.26 277.663,1447.76 279,1446.5C 278.628,1448.12 277.961,1449.78 277,1451.5C 276.612,1450.57 275.945,1449.91 275,1449.5C 273.414,1451.14 271.914,1452.14 270.5,1452.5C 268.486,1454.34 266.319,1455.01 264,1454.5C 262.482,1456.35 260.649,1457.85 258.5,1459C 258.833,1459.33 259.167,1459.67 259.5,1460C 258.5,1460.33 257.5,1460.67 256.5,1461C 256.833,1461.33 257.167,1461.67 257.5,1462C 253.289,1463.6 249.622,1465.93 246.5,1469C 246.833,1469.33 247.167,1469.67 247.5,1470C 233.767,1475.78 219.767,1481.95 205.5,1488.5C 204.833,1488.5 204.5,1488.17 204.5,1487.5C 204.119,1486.07 203.119,1485.24 201.5,1485C 202.056,1484.62 202.389,1484.12 202.5,1483.5C 208,1481.26 213.666,1478.59 219.5,1475.5C 225.253,1473.82 231.587,1470.82 238.5,1466.5C 239.853,1465.31 241.02,1463.98 242,1462.5C 242.333,1462.83 242.667,1463.17 243,1463.5C 246.823,1456.71 252.989,1450.87 261.5,1446C 260.833,1445.67 260.167,1445.33 259.5,1445C 261.32,1443.19 262.486,1441.03 263,1438.5C 264.011,1437.66 265.178,1437.33 266.5,1437.5C 266.343,1436.13 266.51,1434.79 267,1433.5C 270.108,1431.54 269.941,1429.71 266.5,1428C 267.872,1426.76 268.872,1425.26 269.5,1423.5C 268.435,1419.45 269.768,1416.28 273.5,1414C 273.167,1413.67 272.833,1413.33 272.5,1413C 279.363,1407.63 286.029,1402.13 292.5,1396.5C 293.391,1395.89 294.391,1395.56 295.5,1395.5 Z"/></g>
<g><path style="opacity:1" fill="#6e62c5" d="M 302.5,1368.5 C 303.978,1368.24 305.311,1368.57 306.5,1369.5C 304.73,1370.82 304.397,1372.32 305.5,1374C 302.668,1377.21 300.335,1380.71 298.5,1384.5C 296.45,1384.96 294.45,1385.63 292.5,1386.5C 289.833,1389.83 287.167,1393.17 284.5,1396.5C 279.712,1398.47 275.712,1401.47 272.5,1405.5C 265.503,1408.35 259.169,1412.18 253.5,1417C 254.765,1422.22 256.432,1426.89 258.5,1431C 257.137,1432.94 256.303,1435.11 256,1437.5C 254.16,1436.17 253.66,1436.33 254.5,1438C 249.767,1441.73 245.767,1446.06 242.5,1451C 233.156,1452.12 224.99,1455.96 218,1462.5C 217.667,1462.17 217.333,1461.83 217,1461.5C 207.067,1466.88 196.567,1470.72 185.5,1473C 184.069,1473.47 182.903,1474.3 182,1475.5C 181.259,1474.36 180.425,1474.36 179.5,1475.5C 178.232,1473.7 177.565,1471.7 177.5,1469.5C 179.355,1469.73 180.188,1469.06 180,1467.5C 177.152,1467.74 174.152,1468.41 171,1469.5C 168.094,1468.59 165.427,1469.25 163,1471.5C 162.101,1469.67 160.767,1468.34 159,1467.5C 155.96,1467.05 152.96,1467.71 150,1469.5C 144.225,1467.39 138.725,1464.89 133.5,1462C 133.158,1458.45 131.491,1457.28 128.5,1458.5C 126.5,1454.17 124.5,1449.83 122.5,1445.5C 124.579,1445.03 126.579,1444.36 128.5,1443.5C 129.52,1441.07 130.853,1441.07 132.5,1443.5C 133.232,1447.35 134.398,1451.02 136,1454.5C 137.049,1453.48 138.216,1453.32 139.5,1454C 140.939,1456.22 142.606,1458.22 144.5,1460C 146.112,1460.72 147.612,1460.55 149,1459.5C 149.5,1460.67 150.333,1461.5 151.5,1462C 150.289,1462.89 150.289,1463.73 151.5,1464.5C 154.546,1463.73 157.713,1463.4 161,1463.5C 163.791,1465.31 166.791,1465.31 170,1463.5C 173.095,1464.19 176.095,1464.52 179,1464.5C 180.438,1463.28 182.105,1462.61 184,1462.5C 188.211,1464.53 192.544,1464.86 197,1463.5C 197.95,1464.02 198.784,1464.69 199.5,1465.5C 200.705,1463.86 202.038,1463.53 203.5,1464.5C 208.562,1461.26 213.562,1458.76 218.5,1457C 222.11,1452.97 226.777,1450.8 232.5,1450.5C 232.729,1448.57 233.562,1446.9 235,1445.5C 237.44,1444.73 238.773,1443.06 239,1440.5C 239.333,1440.83 239.667,1441.17 240,1441.5C 240.61,1438.98 241.943,1436.98 244,1435.5C 244.393,1432.65 244.226,1430.15 243.5,1428C 244.573,1426.41 245.573,1424.91 246.5,1423.5C 246.291,1422.91 245.957,1422.41 245.5,1422C 246.849,1421.23 247.682,1420.06 248,1418.5C 248.667,1419.83 249.333,1419.83 250,1418.5C 251.009,1416.98 251.509,1415.31 251.5,1413.5C 258.567,1411.41 264.567,1407.58 269.5,1402C 274.698,1399.8 279.365,1396.8 283.5,1393C 287.615,1386.72 292.615,1381.22 298.5,1376.5C 297.966,1374.39 296.966,1372.55 295.5,1371C 297.743,1369.86 300.076,1369.03 302.5,1368.5 Z"/></g>
<g><path style="opacity:1" fill="#6c239b" d="M 333.5,1440.5 C 335.019,1444.93 336.686,1449.26 338.5,1453.5C 341.39,1453.28 344.057,1453.94 346.5,1455.5C 350.979,1453.76 355.313,1451.76 359.5,1449.5C 358.131,1452.59 356.631,1455.59 355,1458.5C 352.978,1459.79 350.811,1460.79 348.5,1461.5C 347.571,1462.69 347.238,1464.02 347.5,1465.5C 346.5,1465.5 345.5,1465.5 344.5,1465.5C 344.5,1466.83 344.5,1468.17 344.5,1469.5C 340.367,1471.01 336.367,1472.01 332.5,1472.5C 332.209,1471.35 331.376,1470.68 330,1470.5C 327.849,1470.77 325.849,1471.44 324,1472.5C 320.32,1468.58 319.82,1464.41 322.5,1460C 322,1459.83 321.5,1459.67 321,1459.5C 319.85,1460.42 318.85,1460.42 318,1459.5C 315.204,1461.89 312.037,1463.72 308.5,1465C 309.38,1466.36 309.714,1467.86 309.5,1469.5C 308.07,1469.42 306.736,1469.75 305.5,1470.5C 305.167,1472.5 304.833,1474.5 304.5,1476.5C 301.382,1477.56 298.382,1478.89 295.5,1480.5C 294.614,1481.32 294.281,1482.32 294.5,1483.5C 292.436,1483.69 290.436,1484.19 288.5,1485C 288.957,1485.41 289.291,1485.91 289.5,1486.5C 288.086,1487.62 286.586,1488.62 285,1489.5C 284.316,1490.78 284.483,1491.95 285.5,1493C 283.655,1494.42 281.655,1495.59 279.5,1496.5C 282.149,1500.57 280.815,1502.57 275.5,1502.5C 275.719,1503.68 275.386,1504.68 274.5,1505.5C 271.048,1506.73 267.715,1508.23 264.5,1510C 265.949,1511.12 267.616,1511.78 269.5,1512C 267.277,1514.44 264.611,1515.11 261.5,1514C 259.875,1514.85 259.542,1515.85 260.5,1517C 258.258,1518.04 256.258,1518.54 254.5,1518.5C 253.732,1519.26 253.232,1520.26 253,1521.5C 252.586,1521.04 252.086,1520.71 251.5,1520.5C 248.285,1522.27 244.952,1523.77 241.5,1525C 242.833,1525.67 242.833,1526.33 241.5,1527C 239.754,1527.47 238.087,1528.14 236.5,1529C 236.957,1529.41 237.291,1529.91 237.5,1530.5C 236.478,1531.35 235.645,1532.35 235,1533.5C 234.259,1532.36 233.425,1532.36 232.5,1533.5C 231.184,1530.97 230.017,1530.97 229,1533.5C 228.283,1532.96 227.783,1532.29 227.5,1531.5C 230.195,1527.4 234.529,1524.56 240.5,1523C 241.925,1521.29 241.592,1519.95 239.5,1519C 243.611,1517.2 247.111,1514.7 250,1511.5C 249.405,1509.65 248.905,1507.65 248.5,1505.5C 251.717,1502.98 255.051,1500.48 258.5,1498C 256.854,1496.45 256.521,1494.78 257.5,1493C 256.833,1492.33 256.167,1491.67 255.5,1491C 256.641,1490.26 256.641,1489.43 255.5,1488.5C 256.357,1487.57 257.357,1486.91 258.5,1486.5C 262.515,1485.41 266.015,1483.41 269,1480.5C 269.333,1480.83 269.667,1481.17 270,1481.5C 271.259,1477.78 273.592,1476.78 277,1478.5C 276.621,1476.93 276.788,1475.43 277.5,1474C 275.968,1473.3 274.968,1472.13 274.5,1470.5C 275.833,1469.17 275.833,1467.83 274.5,1466.5C 276.219,1464.65 278.219,1463.31 280.5,1462.5C 283.162,1461.57 285.662,1460.23 288,1458.5C 289.445,1460.61 289.278,1462.78 287.5,1465C 287.833,1465.17 288.167,1465.33 288.5,1465.5C 289.342,1463.24 290.842,1460.91 293,1458.5C 296.316,1459.33 298.65,1458 300,1454.5C 300.333,1454.83 300.667,1455.17 301,1455.5C 305.732,1452.48 310.565,1449.65 315.5,1447C 318.536,1446.29 321.369,1445.12 324,1443.5C 324.333,1443.83 324.667,1444.17 325,1444.5C 326.482,1442.22 328.149,1442.22 330,1444.5C 330.66,1442.68 331.827,1441.34 333.5,1440.5 Z"/></g>
<g><path style="opacity:1" fill="#5f1f90" d="M 118.5,1475.5 C 119.538,1479.25 120.871,1482.91 122.5,1486.5C 122.547,1488.04 121.88,1489.04 120.5,1489.5C 119.833,1489.83 119.167,1490.17 118.5,1490.5C 113.701,1491.03 112.368,1493.53 114.5,1498C 114.491,1499.4 113.991,1500.57 113,1501.5C 112.339,1498.77 111.173,1497.11 109.5,1496.5C 108.761,1496.37 108.094,1496.54 107.5,1497C 109.032,1499.33 108.698,1501.33 106.5,1503C 107.634,1504.02 107.301,1504.68 105.5,1505C 106.38,1506.36 106.714,1507.86 106.5,1509.5C 103.289,1504.08 100.289,1498.42 97.5,1492.5C 98.5,1491.67 99.5,1490.83 100.5,1490C 97.8092,1486.8 97.8092,1484.47 100.5,1483C 100.095,1482.05 99.428,1481.39 98.5,1481C 100.01,1477.12 98.677,1473.96 94.5,1471.5C 93.5041,1465.54 93.1707,1459.54 93.5,1453.5C 92.266,1444.57 93.9326,1436.23 98.5,1428.5C 99.5307,1427.64 100.697,1426.98 102,1426.5C 104.952,1427.07 106.118,1428.57 105.5,1431C 106.191,1432.07 106.691,1433.23 107,1434.5C 107.333,1434.17 107.667,1433.83 108,1433.5C 108.374,1434.42 108.874,1435.25 109.5,1436C 107.819,1437.95 107.152,1439.95 107.5,1442C 109.301,1442.32 109.634,1442.98 108.5,1444C 109.009,1446.57 110.009,1448.9 111.5,1451C 110.833,1451.67 110.167,1452.33 109.5,1453C 110.641,1453.74 110.641,1454.57 109.5,1455.5C 110.785,1458.02 111.452,1460.69 111.5,1463.5C 115.89,1463.85 117.223,1465.69 115.5,1469C 116.914,1470.99 117.914,1473.16 118.5,1475.5 Z"/></g>
<g><path style="opacity:1" fill="#725ac4" d="M 298.5,1384.5 C 297.766,1385.71 297.433,1387.04 297.5,1388.5C 293.24,1391.75 289.24,1395.42 285.5,1399.5C 281.157,1401.17 277.824,1404 275.5,1408C 268.034,1410.87 263.034,1416.2 260.5,1424C 259.939,1425.57 260.606,1426.9 262.5,1428C 259.184,1429.25 258.85,1430.92 261.5,1433C 260.833,1433.33 260.167,1433.67 259.5,1434C 260.517,1435.05 260.684,1436.22 260,1437.5C 258.745,1438.21 257.579,1439.04 256.5,1440C 257.214,1441.34 256.88,1442.68 255.5,1444C 249.874,1447.3 244.874,1451.3 240.5,1456C 240.833,1456.33 241.167,1456.67 241.5,1457C 238.288,1459.1 234.788,1461.6 231,1464.5C 230.5,1464 230,1463.5 229.5,1463C 230.517,1461.95 230.684,1460.78 230,1459.5C 223.788,1462.93 217.788,1466.6 212,1470.5C 211.667,1470.17 211.333,1469.83 211,1469.5C 209.349,1470.86 207.849,1471.53 206.5,1471.5C 204.123,1471.78 201.956,1471.78 200,1471.5C 198.155,1473.35 196.155,1473.68 194,1472.5C 193.424,1475.12 192.09,1475.79 190,1474.5C 188.47,1475.64 187.137,1476.64 186,1477.5C 182.803,1476.66 179.803,1477.33 177,1479.5C 175.562,1478.28 173.895,1477.61 172,1477.5C 168.176,1479.21 164.843,1478.54 162,1475.5C 160.667,1475.5 159.333,1475.5 158,1475.5C 156.209,1477.51 154.875,1477.51 154,1475.5C 151.956,1476.01 149.956,1476.34 148,1476.5C 145.685,1475.13 143.185,1474.13 140.5,1473.5C 138.5,1470.83 136.5,1468.17 134.5,1465.5C 133.818,1466.24 133.151,1466.91 132.5,1467.5C 130.93,1464.69 129.597,1461.69 128.5,1458.5C 131.491,1457.28 133.158,1458.45 133.5,1462C 138.725,1464.89 144.225,1467.39 150,1469.5C 152.96,1467.71 155.96,1467.05 159,1467.5C 160.767,1468.34 162.101,1469.67 163,1471.5C 165.427,1469.25 168.094,1468.59 171,1469.5C 174.152,1468.41 177.152,1467.74 180,1467.5C 180.188,1469.06 179.355,1469.73 177.5,1469.5C 177.565,1471.7 178.232,1473.7 179.5,1475.5C 180.425,1474.36 181.259,1474.36 182,1475.5C 182.903,1474.3 184.069,1473.47 185.5,1473C 196.567,1470.72 207.067,1466.88 217,1461.5C 217.333,1461.83 217.667,1462.17 218,1462.5C 224.99,1455.96 233.156,1452.12 242.5,1451C 245.767,1446.06 249.767,1441.73 254.5,1438C 253.66,1436.33 254.16,1436.17 256,1437.5C 256.303,1435.11 257.137,1432.94 258.5,1431C 256.432,1426.89 254.765,1422.22 253.5,1417C 259.169,1412.18 265.503,1408.35 272.5,1405.5C 275.712,1401.47 279.712,1398.47 284.5,1396.5C 287.167,1393.17 289.833,1389.83 292.5,1386.5C 294.45,1385.63 296.45,1384.96 298.5,1384.5 Z"/></g>
<g><path style="opacity:1" fill="#7652c3" d="M 206.5,1471.5 C 206.082,1472.22 205.416,1472.72 204.5,1473C 205.326,1477.15 207.159,1477.65 210,1474.5C 211.016,1475.63 211.683,1475.3 212,1473.5C 214.544,1475.26 217.044,1475.93 219.5,1475.5C 213.666,1478.59 208,1481.26 202.5,1483.5C 201.234,1482.91 199.901,1482.41 198.5,1482C 199.654,1481.09 199.487,1480.25 198,1479.5C 196.933,1480.19 195.766,1480.69 194.5,1481C 194.833,1481.33 195.167,1481.67 195.5,1482C 194.333,1482.17 193.167,1482.33 192,1482.5C 188.507,1481.66 185.174,1481.66 182,1482.5C 180.271,1480.57 178.271,1480.57 176,1482.5C 174.755,1482.54 173.422,1482.21 172,1481.5C 169.466,1483.44 166.8,1484.1 164,1483.5C 163.683,1481.7 163.016,1481.37 162,1482.5C 159.26,1481.72 156.426,1481.22 153.5,1481C 152,1480.17 150.833,1479 150,1477.5C 149.333,1478.17 148.667,1478.83 148,1479.5C 146.667,1478.17 145.333,1478.17 144,1479.5C 141.333,1478.17 138.667,1476.83 136,1475.5C 135.667,1475.83 135.333,1476.17 135,1476.5C 133.024,1475.18 131.524,1473.51 130.5,1471.5C 131.6,1470.4 132.267,1469.06 132.5,1467.5C 133.151,1466.91 133.818,1466.24 134.5,1465.5C 136.5,1468.17 138.5,1470.83 140.5,1473.5C 143.185,1474.13 145.685,1475.13 148,1476.5C 149.956,1476.34 151.956,1476.01 154,1475.5C 154.875,1477.51 156.209,1477.51 158,1475.5C 159.333,1475.5 160.667,1475.5 162,1475.5C 164.843,1478.54 168.176,1479.21 172,1477.5C 173.895,1477.61 175.562,1478.28 177,1479.5C 179.803,1477.33 182.803,1476.66 186,1477.5C 187.137,1476.64 188.47,1475.64 190,1474.5C 192.09,1475.79 193.424,1475.12 194,1472.5C 196.155,1473.68 198.155,1473.35 200,1471.5C 201.956,1471.78 204.123,1471.78 206.5,1471.5 Z"/></g>
<g><path style="opacity:1" fill="#713cb3" d="M 270.5,1452.5 C 270.611,1453.12 270.944,1453.62 271.5,1454C 265.616,1457.55 261.116,1462.38 258,1468.5C 257.667,1468.17 257.333,1467.83 257,1467.5C 253.533,1470.81 249.699,1473.47 245.5,1475.5C 245.719,1476.68 245.386,1477.68 244.5,1478.5C 241.492,1478.74 238.659,1480.08 236,1482.5C 235.727,1484.1 235.227,1485.6 234.5,1487C 232.167,1488.17 229.833,1489.33 227.5,1490.5C 225.622,1490.38 223.789,1490.38 222,1490.5C 221.692,1491.31 221.192,1491.97 220.5,1492.5C 216.137,1492.51 211.804,1492.51 207.5,1492.5C 208.429,1490.68 207.762,1489.34 205.5,1488.5C 219.767,1481.95 233.767,1475.78 247.5,1470C 247.167,1469.67 246.833,1469.33 246.5,1469C 249.622,1465.93 253.289,1463.6 257.5,1462C 257.167,1461.67 256.833,1461.33 256.5,1461C 257.5,1460.67 258.5,1460.33 259.5,1460C 259.167,1459.67 258.833,1459.33 258.5,1459C 260.649,1457.85 262.482,1456.35 264,1454.5C 266.319,1455.01 268.486,1454.34 270.5,1452.5 Z"/></g>
<g><path style="opacity:1" fill="#621b8d" d="M 369.5,1433.5 C 366.667,1442.5 362.5,1450.83 357,1458.5C 355.677,1462.29 354.177,1465.96 352.5,1469.5C 349.267,1471.54 346.1,1473.87 343,1476.5C 341.75,1475.43 340.416,1475.43 339,1476.5C 337.326,1477.84 335.659,1479.17 334,1480.5C 332.984,1479.37 332.317,1479.7 332,1481.5C 331.667,1481.17 331.333,1480.83 331,1480.5C 325.652,1484.03 320.318,1486.69 315,1488.5C 313.681,1490.25 313.181,1492.25 313.5,1494.5C 312.07,1494.42 310.736,1494.75 309.5,1495.5C 308.421,1497.54 306.754,1498.88 304.5,1499.5C 303.571,1500.69 303.238,1502.02 303.5,1503.5C 306.598,1503.41 306.932,1503.91 304.5,1505C 305.38,1506.36 305.714,1507.86 305.5,1509.5C 299.617,1511.08 294.283,1513.08 289.5,1515.5C 288.571,1516.69 288.238,1518.02 288.5,1519.5C 285.984,1519.76 283.65,1520.59 281.5,1522C 282.167,1522.33 282.833,1522.67 283.5,1523C 281.349,1523.26 279.682,1524.26 278.5,1526C 280.082,1529.79 278.749,1531.62 274.5,1531.5C 275.735,1533.77 275.402,1535.61 273.5,1537C 270.244,1538.47 266.911,1539.64 263.5,1540.5C 263.383,1542.48 264.05,1544.15 265.5,1545.5C 254.764,1550.69 243.764,1555.19 232.5,1559C 229.496,1561.5 226.163,1563.5 222.5,1565C 217.826,1564.74 213.492,1564.57 209.5,1564.5C 208.205,1565.1 206.872,1565.6 205.5,1566C 204.845,1567.49 203.845,1568.65 202.5,1569.5C 202.08,1567.67 202.08,1565.67 202.5,1563.5C 213.612,1557.53 225.112,1552.2 237,1547.5C 237.945,1547.91 238.612,1548.57 239,1549.5C 243.038,1547.9 246.871,1545.9 250.5,1543.5C 248.448,1541.21 247.781,1538.71 248.5,1536C 251.05,1534.63 253.717,1533.46 256.5,1532.5C 257.965,1533.61 258.965,1533.11 259.5,1531C 259.043,1530.59 258.709,1530.09 258.5,1529.5C 261.706,1527.73 265.039,1526.23 268.5,1525C 269.343,1523.21 269.51,1521.38 269,1519.5C 272.879,1517.81 276.712,1515.98 280.5,1514C 279.643,1513.31 278.977,1512.48 278.5,1511.5C 280.5,1510.17 282.5,1508.83 284.5,1507.5C 284.291,1506.91 283.957,1506.41 283.5,1506C 285,1505.17 286.167,1504 287,1502.5C 287.414,1502.96 287.914,1503.29 288.5,1503.5C 288.296,1502.47 288.796,1501.47 290,1500.5C 291.749,1501.3 293.082,1500.63 294,1498.5C 294.333,1498.83 294.667,1499.17 295,1499.5C 296.584,1498.14 298.418,1497.47 300.5,1497.5C 300.5,1496.17 300.5,1494.83 300.5,1493.5C 304.362,1492.57 308.029,1491.07 311.5,1489C 311.306,1487.57 311.306,1486.07 311.5,1484.5C 312.086,1484.71 312.586,1485.04 313,1485.5C 314.167,1484 315.333,1482.5 316.5,1481C 319.715,1480.73 322.381,1479.39 324.5,1477C 323.328,1476.58 322.328,1475.91 321.5,1475C 325.145,1473.87 328.811,1473.03 332.5,1472.5C 336.367,1472.01 340.367,1471.01 344.5,1469.5C 344.5,1468.17 344.5,1466.83 344.5,1465.5C 345.5,1465.5 346.5,1465.5 347.5,1465.5C 347.238,1464.02 347.571,1462.69 348.5,1461.5C 350.811,1460.79 352.978,1459.79 355,1458.5C 356.631,1455.59 358.131,1452.59 359.5,1449.5C 361.253,1444.21 363.753,1439.21 367,1434.5C 367.671,1433.75 368.504,1433.41 369.5,1433.5 Z"/></g>
<g><path style="opacity:1" fill="#42195e" d="M 344.5,1484.5 C 339.046,1495.94 332.046,1506.27 323.5,1515.5C 324.193,1511.21 326.36,1507.88 330,1505.5C 333.886,1497.79 338.72,1490.79 344.5,1484.5 Z"/></g>
<g><path style="opacity:1" fill="#41195f" d="M 99.5,1422.5 C 99.4828,1424.56 99.1495,1426.56 98.5,1428.5C 93.9326,1436.23 92.266,1444.57 93.5,1453.5C 92.8071,1460.57 91.8071,1467.74 90.5,1475C 90.6301,1476.06 91.1301,1476.89 92,1477.5C 91.8005,1491.11 94.4671,1504.11 100,1516.5C 103.45,1522.76 106.616,1529.09 109.5,1535.5C 110.5,1535.5 111.5,1535.5 112.5,1535.5C 112.343,1536.87 112.51,1538.21 113,1539.5C 115.377,1542.21 118.044,1544.55 121,1546.5C 122.887,1549.81 125.054,1552.81 127.5,1555.5C 119.51,1549.18 112.51,1541.84 106.5,1533.5C 96.8555,1517.34 91.1888,1500.17 89.5,1482C 90.6089,1472.11 90.6089,1462.78 89.5,1454C 89.7201,1447.9 90.8868,1441.74 93,1435.5C 94.7271,1430.73 96.8937,1426.4 99.5,1422.5 Z"/></g>
<g><path style="opacity:1" fill="#441a66" d="M 323.5,1515.5 C 315.806,1527.19 306.139,1536.86 294.5,1544.5C 296.361,1542.25 297.361,1539.59 297.5,1536.5C 302.438,1535.9 306.104,1533.4 308.5,1529C 311.102,1528.12 313.269,1526.62 315,1524.5C 316.638,1521.7 318.471,1519.03 320.5,1516.5C 321.417,1515.87 322.417,1515.54 323.5,1515.5 Z"/></g>
<g><path style="opacity:1" fill="#681a91" d="M 332.5,1472.5 C 328.811,1473.03 325.145,1473.87 321.5,1475C 322.328,1475.91 323.328,1476.58 324.5,1477C 322.381,1479.39 319.715,1480.73 316.5,1481C 315.333,1482.5 314.167,1484 313,1485.5C 312.586,1485.04 312.086,1484.71 311.5,1484.5C 311.306,1486.07 311.306,1487.57 311.5,1489C 308.029,1491.07 304.362,1492.57 300.5,1493.5C 300.5,1494.83 300.5,1496.17 300.5,1497.5C 298.418,1497.47 296.584,1498.14 295,1499.5C 294.667,1499.17 294.333,1498.83 294,1498.5C 293.082,1500.63 291.749,1501.3 290,1500.5C 288.796,1501.47 288.296,1502.47 288.5,1503.5C 287.914,1503.29 287.414,1502.96 287,1502.5C 286.167,1504 285,1505.17 283.5,1506C 283.957,1506.41 284.291,1506.91 284.5,1507.5C 282.5,1508.83 280.5,1510.17 278.5,1511.5C 278.977,1512.48 279.643,1513.31 280.5,1514C 276.712,1515.98 272.879,1517.81 269,1519.5C 269.51,1521.38 269.343,1523.21 268.5,1525C 265.039,1526.23 261.706,1527.73 258.5,1529.5C 258.709,1530.09 259.043,1530.59 259.5,1531C 258.965,1533.11 257.965,1533.61 256.5,1532.5C 253.717,1533.46 251.05,1534.63 248.5,1536C 247.781,1538.71 248.448,1541.21 250.5,1543.5C 246.871,1545.9 243.038,1547.9 239,1549.5C 238.612,1548.57 237.945,1547.91 237,1547.5C 225.112,1552.2 213.612,1557.53 202.5,1563.5C 198.524,1564.83 194.524,1566.16 190.5,1567.5C 186.175,1565.89 182.175,1566.56 178.5,1569.5C 176.941,1568.93 175.441,1568.26 174,1567.5C 173.086,1568.65 172.253,1568.49 171.5,1567C 173.271,1566.46 173.604,1565.63 172.5,1564.5C 170.548,1565.1 168.548,1564.77 166.5,1563.5C 163.947,1566.04 161.447,1566.04 159,1563.5C 157.771,1568.91 155.938,1569.41 153.5,1565C 154.166,1563.33 154.166,1561.83 153.5,1560.5C 151.568,1561.52 149.568,1561.69 147.5,1561C 148.34,1559.33 147.84,1559.17 146,1560.5C 145,1558.83 143.667,1557.5 142,1556.5C 141.667,1556.83 141.333,1557.17 141,1557.5C 136.096,1551.26 130.262,1546.09 123.5,1542C 123.833,1541.67 124.167,1541.33 124.5,1541C 122.855,1539.2 121.522,1537.2 120.5,1535C 121.604,1533.87 121.271,1533.04 119.5,1532.5C 117.257,1533.38 115.59,1532.55 114.5,1530C 115.271,1528 114.605,1526.34 112.5,1525C 113.337,1523.99 113.67,1522.82 113.5,1521.5C 112.5,1521.5 111.5,1521.5 110.5,1521.5C 109.174,1517.51 107.84,1513.51 106.5,1509.5C 106.714,1507.86 106.38,1506.36 105.5,1505C 107.301,1504.68 107.634,1504.02 106.5,1503C 108.698,1501.33 109.032,1499.33 107.5,1497C 108.094,1496.54 108.761,1496.37 109.5,1496.5C 113.866,1508.23 119.033,1519.56 125,1530.5C 126.049,1529.48 127.216,1529.32 128.5,1530C 127.72,1531.07 127.887,1532.24 129,1533.5C 133.086,1540.13 138.253,1544.79 144.5,1547.5C 145.086,1547.29 145.586,1546.96 146,1546.5C 146.276,1548.77 146.943,1551.1 148,1553.5C 148.667,1550.83 149.333,1550.83 150,1553.5C 150.333,1553.17 150.667,1552.83 151,1552.5C 151.202,1554.26 151.702,1555.92 152.5,1557.5C 153.72,1558.71 154.887,1558.71 156,1557.5C 160.351,1562.4 165.018,1562.73 170,1558.5C 170.833,1559.33 171.667,1560.17 172.5,1561C 175.557,1561.26 178.557,1561.76 181.5,1562.5C 183.368,1562.05 185.201,1561.72 187,1561.5C 187.388,1562.43 188.055,1563.09 189,1563.5C 192.618,1562.9 196.285,1561.56 200,1559.5C 200.667,1560.17 201.333,1560.83 202,1561.5C 204.528,1560.46 206.695,1558.46 208.5,1555.5C 210.992,1553.82 213.492,1553.15 216,1553.5C 217.316,1550.97 218.483,1550.97 219.5,1553.5C 221.167,1552.67 222.833,1551.83 224.5,1551C 223.742,1549.64 224.242,1548.47 226,1547.5C 226.333,1547.83 226.667,1548.17 227,1548.5C 228.777,1546.48 230.944,1544.98 233.5,1544C 234.88,1542.68 235.214,1541.34 234.5,1540C 236.377,1538.81 238.377,1537.81 240.5,1537C 239.289,1536.11 239.289,1535.27 240.5,1534.5C 243.715,1532.73 247.048,1531.23 250.5,1530C 252.31,1527.93 254.31,1526.1 256.5,1524.5C 255.828,1522.47 255.162,1520.47 254.5,1518.5C 256.258,1518.54 258.258,1518.04 260.5,1517C 259.542,1515.85 259.875,1514.85 261.5,1514C 264.611,1515.11 267.277,1514.44 269.5,1512C 267.616,1511.78 265.949,1511.12 264.5,1510C 267.715,1508.23 271.048,1506.73 274.5,1505.5C 275.386,1504.68 275.719,1503.68 275.5,1502.5C 280.815,1502.57 282.149,1500.57 279.5,1496.5C 281.655,1495.59 283.655,1494.42 285.5,1493C 284.483,1491.95 284.316,1490.78 285,1489.5C 286.586,1488.62 288.086,1487.62 289.5,1486.5C 289.291,1485.91 288.957,1485.41 288.5,1485C 290.436,1484.19 292.436,1483.69 294.5,1483.5C 294.281,1482.32 294.614,1481.32 295.5,1480.5C 298.382,1478.89 301.382,1477.56 304.5,1476.5C 304.833,1474.5 305.167,1472.5 305.5,1470.5C 306.736,1469.75 308.07,1469.42 309.5,1469.5C 309.714,1467.86 309.38,1466.36 308.5,1465C 312.037,1463.72 315.204,1461.89 318,1459.5C 318.85,1460.42 319.85,1460.42 321,1459.5C 321.5,1459.67 322,1459.83 322.5,1460C 319.82,1464.41 320.32,1468.58 324,1472.5C 325.849,1471.44 327.849,1470.77 330,1470.5C 331.376,1470.68 332.209,1471.35 332.5,1472.5 Z"/></g>
<g><path style="opacity:1" fill="#421960" d="M 293.5,1544.5 C 291.903,1546.76 289.903,1548.76 287.5,1550.5C 276.512,1557.83 264.845,1563.83 252.5,1568.5C 251.893,1568.38 251.56,1568.04 251.5,1567.5C 256.024,1564.43 261.024,1562.1 266.5,1560.5C 275.328,1554.84 284.328,1549.5 293.5,1544.5 Z"/></g>
<g><path style="opacity:1" fill="#461a66" d="M 129.5,1556.5 C 134.412,1557.89 138.746,1560.39 142.5,1564C 143.793,1564.49 145.127,1564.66 146.5,1564.5C 146.5,1565.5 146.5,1566.5 146.5,1567.5C 152.626,1568.82 158.626,1570.65 164.5,1573C 168.178,1573.42 171.845,1573.92 175.5,1574.5C 177.588,1574.62 178.922,1575.62 179.5,1577.5C 166.586,1577.11 154.586,1573.61 143.5,1567C 138.121,1564.18 133.455,1560.68 129.5,1556.5 Z"/></g>
<g><path style="opacity:1" fill="#5b1885" d="M 93.5,1453.5 C 93.1707,1459.54 93.5041,1465.54 94.5,1471.5C 98.677,1473.96 100.01,1477.12 98.5,1481C 99.428,1481.39 100.095,1482.05 100.5,1483C 97.8092,1484.47 97.8092,1486.8 100.5,1490C 99.5,1490.83 98.5,1491.67 97.5,1492.5C 100.289,1498.42 103.289,1504.08 106.5,1509.5C 107.84,1513.51 109.174,1517.51 110.5,1521.5C 111.5,1521.5 112.5,1521.5 113.5,1521.5C 113.67,1522.82 113.337,1523.99 112.5,1525C 114.605,1526.34 115.271,1528 114.5,1530C 115.59,1532.55 117.257,1533.38 119.5,1532.5C 121.271,1533.04 121.604,1533.87 120.5,1535C 121.522,1537.2 122.855,1539.2 124.5,1541C 124.167,1541.33 123.833,1541.67 123.5,1542C 130.262,1546.09 136.096,1551.26 141,1557.5C 141.333,1557.17 141.667,1556.83 142,1556.5C 143.667,1557.5 145,1558.83 146,1560.5C 147.84,1559.17 148.34,1559.33 147.5,1561C 149.568,1561.69 151.568,1561.52 153.5,1560.5C 154.166,1561.83 154.166,1563.33 153.5,1565C 155.938,1569.41 157.771,1568.91 159,1563.5C 161.447,1566.04 163.947,1566.04 166.5,1563.5C 168.548,1564.77 170.548,1565.1 172.5,1564.5C 173.604,1565.63 173.271,1566.46 171.5,1567C 172.253,1568.49 173.086,1568.65 174,1567.5C 175.441,1568.26 176.941,1568.93 178.5,1569.5C 182.175,1566.56 186.175,1565.89 190.5,1567.5C 194.524,1566.16 198.524,1564.83 202.5,1563.5C 202.08,1565.67 202.08,1567.67 202.5,1569.5C 203.845,1568.65 204.845,1567.49 205.5,1566C 206.872,1565.6 208.205,1565.1 209.5,1564.5C 213.492,1564.57 217.826,1564.74 222.5,1565C 226.163,1563.5 229.496,1561.5 232.5,1559C 243.764,1555.19 254.764,1550.69 265.5,1545.5C 264.05,1544.15 263.383,1542.48 263.5,1540.5C 266.911,1539.64 270.244,1538.47 273.5,1537C 275.402,1535.61 275.735,1533.77 274.5,1531.5C 278.749,1531.62 280.082,1529.79 278.5,1526C 279.682,1524.26 281.349,1523.26 283.5,1523C 282.833,1522.67 282.167,1522.33 281.5,1522C 283.65,1520.59 285.984,1519.76 288.5,1519.5C 288.238,1518.02 288.571,1516.69 289.5,1515.5C 294.283,1513.08 299.617,1511.08 305.5,1509.5C 305.714,1507.86 305.38,1506.36 304.5,1505C 306.932,1503.91 306.598,1503.41 303.5,1503.5C 303.238,1502.02 303.571,1500.69 304.5,1499.5C 306.754,1498.88 308.421,1497.54 309.5,1495.5C 310.736,1494.75 312.07,1494.42 313.5,1494.5C 313.181,1492.25 313.681,1490.25 315,1488.5C 320.318,1486.69 325.652,1484.03 331,1480.5C 331.333,1480.83 331.667,1481.17 332,1481.5C 332.317,1479.7 332.984,1479.37 334,1480.5C 335.659,1479.17 337.326,1477.84 339,1476.5C 340.416,1475.43 341.75,1475.43 343,1476.5C 346.1,1473.87 349.267,1471.54 352.5,1469.5C 351.141,1471.52 349.807,1473.52 348.5,1475.5C 348.804,1476.15 349.137,1476.82 349.5,1477.5C 348.032,1480.15 346.365,1482.49 344.5,1484.5C 338.72,1490.79 333.886,1497.79 330,1505.5C 326.36,1507.88 324.193,1511.21 323.5,1515.5C 322.417,1515.54 321.417,1515.87 320.5,1516.5C 318.471,1519.03 316.638,1521.7 315,1524.5C 313.269,1526.62 311.102,1528.12 308.5,1529C 306.104,1533.4 302.438,1535.9 297.5,1536.5C 297.361,1539.59 296.361,1542.25 294.5,1544.5C 294.167,1544.5 293.833,1544.5 293.5,1544.5C 284.328,1549.5 275.328,1554.84 266.5,1560.5C 261.024,1562.1 256.024,1564.43 251.5,1567.5C 251.167,1567.5 250.833,1567.5 250.5,1567.5C 237.257,1571.26 224.257,1574.93 211.5,1578.5C 210.202,1579.12 209.202,1579.12 208.5,1578.5C 208.53,1577.5 208.03,1576.84 207,1576.5C 198.318,1577.43 189.818,1577.76 181.5,1577.5C 180.833,1577.5 180.167,1577.5 179.5,1577.5C 178.922,1575.62 177.588,1574.62 175.5,1574.5C 171.845,1573.92 168.178,1573.42 164.5,1573C 158.626,1570.65 152.626,1568.82 146.5,1567.5C 146.5,1566.5 146.5,1565.5 146.5,1564.5C 145.127,1564.66 143.793,1564.49 142.5,1564C 138.746,1560.39 134.412,1557.89 129.5,1556.5C 128.508,1556.67 127.842,1556.34 127.5,1555.5C 125.054,1552.81 122.887,1549.81 121,1546.5C 118.044,1544.55 115.377,1542.21 113,1539.5C 112.51,1538.21 112.343,1536.87 112.5,1535.5C 111.5,1535.5 110.5,1535.5 109.5,1535.5C 106.616,1529.09 103.45,1522.76 100,1516.5C 94.4671,1504.11 91.8005,1491.11 92,1477.5C 91.1301,1476.89 90.6301,1476.06 90.5,1475C 91.8071,1467.74 92.8071,1460.57 93.5,1453.5 Z"/></g>
<g><path style="opacity:1" fill="#6f1a95" d="M 118.5,1490.5 C 118.433,1492.4 118.767,1494.23 119.5,1496C 117.113,1498.41 117.113,1500.91 119.5,1503.5C 116.275,1505.9 116.442,1508.57 120,1511.5C 120.741,1510.36 121.575,1510.36 122.5,1511.5C 125.428,1517.78 128.261,1524.12 131,1530.5C 132.364,1529.74 133.531,1530.24 134.5,1532C 133.85,1533.61 134.35,1535.11 136,1536.5C 136.333,1536.17 136.667,1535.83 137,1535.5C 137.471,1537.25 138.138,1538.91 139,1540.5C 140.016,1539.37 140.683,1539.7 141,1541.5C 141.333,1540.83 141.667,1540.17 142,1539.5C 143.416,1542.19 145.416,1542.86 148,1541.5C 149.167,1543.33 150.667,1544.83 152.5,1546C 151.167,1546.67 151.167,1547.33 152.5,1548C 157.511,1547.5 162.511,1547.67 167.5,1548.5C 168.964,1551.33 170.797,1553 173,1553.5C 173.667,1552.17 174.333,1550.83 175,1549.5C 177.412,1550.47 179.412,1549.81 181,1547.5C 181.333,1547.83 181.667,1548.17 182,1548.5C 182.492,1547.45 182.326,1546.45 181.5,1545.5C 182.914,1544.38 184.414,1543.38 186,1542.5C 188,1542.5 190,1542.5 192,1542.5C 192.309,1544.51 191.642,1544.85 190,1543.5C 189.355,1544.65 188.522,1545.65 187.5,1546.5C 187.833,1546.83 188.167,1547.17 188.5,1547.5C 190.903,1546.3 193.236,1545.96 195.5,1546.5C 202.932,1542.91 210.599,1539.91 218.5,1537.5C 217.518,1532.28 219.018,1530.95 223,1533.5C 224.33,1532.42 225.83,1531.75 227.5,1531.5C 227.783,1532.29 228.283,1532.96 229,1533.5C 230.017,1530.97 231.184,1530.97 232.5,1533.5C 233.425,1532.36 234.259,1532.36 235,1533.5C 235.645,1532.35 236.478,1531.35 237.5,1530.5C 237.291,1529.91 236.957,1529.41 236.5,1529C 238.087,1528.14 239.754,1527.47 241.5,1527C 242.833,1526.33 242.833,1525.67 241.5,1525C 244.952,1523.77 248.285,1522.27 251.5,1520.5C 252.086,1520.71 252.586,1521.04 253,1521.5C 253.232,1520.26 253.732,1519.26 254.5,1518.5C 255.162,1520.47 255.828,1522.47 256.5,1524.5C 254.31,1526.1 252.31,1527.93 250.5,1530C 247.048,1531.23 243.715,1532.73 240.5,1534.5C 239.289,1535.27 239.289,1536.11 240.5,1537C 238.377,1537.81 236.377,1538.81 234.5,1540C 235.214,1541.34 234.88,1542.68 233.5,1544C 230.944,1544.98 228.777,1546.48 227,1548.5C 226.667,1548.17 226.333,1547.83 226,1547.5C 224.242,1548.47 223.742,1549.64 224.5,1551C 222.833,1551.83 221.167,1552.67 219.5,1553.5C 218.483,1550.97 217.316,1550.97 216,1553.5C 213.492,1553.15 210.992,1553.82 208.5,1555.5C 206.695,1558.46 204.528,1560.46 202,1561.5C 201.333,1560.83 200.667,1560.17 200,1559.5C 196.285,1561.56 192.618,1562.9 189,1563.5C 188.055,1563.09 187.388,1562.43 187,1561.5C 185.201,1561.72 183.368,1562.05 181.5,1562.5C 178.557,1561.76 175.557,1561.26 172.5,1561C 171.667,1560.17 170.833,1559.33 170,1558.5C 165.018,1562.73 160.351,1562.4 156,1557.5C 154.887,1558.71 153.72,1558.71 152.5,1557.5C 151.702,1555.92 151.202,1554.26 151,1552.5C 150.667,1552.83 150.333,1553.17 150,1553.5C 149.333,1550.83 148.667,1550.83 148,1553.5C 146.943,1551.1 146.276,1548.77 146,1546.5C 145.586,1546.96 145.086,1547.29 144.5,1547.5C 138.253,1544.79 133.086,1540.13 129,1533.5C 127.887,1532.24 127.72,1531.07 128.5,1530C 127.216,1529.32 126.049,1529.48 125,1530.5C 119.033,1519.56 113.866,1508.23 109.5,1496.5C 111.173,1497.11 112.339,1498.77 113,1501.5C 113.991,1500.57 114.491,1499.4 114.5,1498C 112.368,1493.53 113.701,1491.03 118.5,1490.5 Z"/></g>
<g><path style="opacity:1" fill="#7b20a5" d="M 120.5,1489.5 C 121.117,1491.68 122.117,1493.68 123.5,1495.5C 123.291,1496.09 122.957,1496.59 122.5,1497C 124.59,1497.67 126.257,1498.84 127.5,1500.5C 127.577,1501.75 128.244,1502.58 129.5,1503C 129.279,1504.8 128.946,1506.63 128.5,1508.5C 129.333,1510.17 130.167,1511.83 131,1513.5C 133.095,1511.95 135.262,1511.62 137.5,1512.5C 138.452,1516.07 139.785,1519.41 141.5,1522.5C 144.016,1522.24 146.35,1521.41 148.5,1520C 152.312,1518.79 155.312,1519.79 157.5,1523C 157.167,1523.33 156.833,1523.67 156.5,1524C 158.037,1525.11 158.703,1526.61 158.5,1528.5C 159.873,1528.66 161.207,1528.49 162.5,1528C 161.97,1526.26 161.97,1524.76 162.5,1523.5C 163.748,1524.04 164.915,1524.71 166,1525.5C 168.084,1522.55 170.751,1521.88 174,1523.5C 176.773,1522.07 179.607,1520.74 182.5,1519.5C 183.167,1520.17 183.833,1520.83 184.5,1521.5C 186.858,1519.71 189.525,1518.71 192.5,1518.5C 192.376,1519.2 192.376,1520.03 192.5,1521C 193.784,1521.68 194.951,1521.52 196,1520.5C 196.333,1521.17 196.667,1521.83 197,1522.5C 197.333,1521.17 197.667,1519.83 198,1518.5C 199,1519.83 200,1519.83 201,1518.5C 203.734,1519.36 203.901,1520.19 201.5,1521C 202.167,1521.17 202.833,1521.33 203.5,1521.5C 206.026,1521.2 208.693,1521.04 211.5,1521C 223.797,1516.43 235.63,1510.93 247,1504.5C 247.383,1505.06 247.883,1505.39 248.5,1505.5C 248.905,1507.65 249.405,1509.65 250,1511.5C 247.111,1514.7 243.611,1517.2 239.5,1519C 241.592,1519.95 241.925,1521.29 240.5,1523C 234.529,1524.56 230.195,1527.4 227.5,1531.5C 225.83,1531.75 224.33,1532.42 223,1533.5C 219.018,1530.95 217.518,1532.28 218.5,1537.5C 210.599,1539.91 202.932,1542.91 195.5,1546.5C 193.236,1545.96 190.903,1546.3 188.5,1547.5C 188.167,1547.17 187.833,1546.83 187.5,1546.5C 188.522,1545.65 189.355,1544.65 190,1543.5C 191.642,1544.85 192.309,1544.51 192,1542.5C 190,1542.5 188,1542.5 186,1542.5C 184.414,1543.38 182.914,1544.38 181.5,1545.5C 182.326,1546.45 182.492,1547.45 182,1548.5C 181.667,1548.17 181.333,1547.83 181,1547.5C 179.412,1549.81 177.412,1550.47 175,1549.5C 174.333,1550.83 173.667,1552.17 173,1553.5C 170.797,1553 168.964,1551.33 167.5,1548.5C 162.511,1547.67 157.511,1547.5 152.5,1548C 151.167,1547.33 151.167,1546.67 152.5,1546C 150.667,1544.83 149.167,1543.33 148,1541.5C 145.416,1542.86 143.416,1542.19 142,1539.5C 141.667,1540.17 141.333,1540.83 141,1541.5C 140.683,1539.7 140.016,1539.37 139,1540.5C 138.138,1538.91 137.471,1537.25 137,1535.5C 136.667,1535.83 136.333,1536.17 136,1536.5C 134.35,1535.11 133.85,1533.61 134.5,1532C 133.531,1530.24 132.364,1529.74 131,1530.5C 128.261,1524.12 125.428,1517.78 122.5,1511.5C 121.575,1510.36 120.741,1510.36 120,1511.5C 116.442,1508.57 116.275,1505.9 119.5,1503.5C 117.113,1500.91 117.113,1498.41 119.5,1496C 118.767,1494.23 118.433,1492.4 118.5,1490.5C 119.167,1490.17 119.833,1489.83 120.5,1489.5 Z"/></g>
<g><path style="opacity:1" fill="#812cb2" d="M 198.5,1507.5 C 197.948,1509.33 197.948,1511 198.5,1512.5C 200.021,1512.88 201.687,1513.05 203.5,1513C 199.481,1514.39 195.814,1516.23 192.5,1518.5C 189.525,1518.71 186.858,1519.71 184.5,1521.5C 183.833,1520.83 183.167,1520.17 182.5,1519.5C 179.607,1520.74 176.773,1522.07 174,1523.5C 170.751,1521.88 168.084,1522.55 166,1525.5C 164.915,1524.71 163.748,1524.04 162.5,1523.5C 161.97,1524.76 161.97,1526.26 162.5,1528C 161.207,1528.49 159.873,1528.66 158.5,1528.5C 158.703,1526.61 158.037,1525.11 156.5,1524C 156.833,1523.67 157.167,1523.33 157.5,1523C 155.312,1519.79 152.312,1518.79 148.5,1520C 146.35,1521.41 144.016,1522.24 141.5,1522.5C 139.785,1519.41 138.452,1516.07 137.5,1512.5C 135.262,1511.62 133.095,1511.95 131,1513.5C 130.167,1511.83 129.333,1510.17 128.5,1508.5C 128.946,1506.63 129.279,1504.8 129.5,1503C 128.244,1502.58 127.577,1501.75 127.5,1500.5C 129.838,1497.58 131.672,1497.91 133,1501.5C 133.333,1501.17 133.667,1500.83 134,1500.5C 138,1502.5 142,1504.5 146,1506.5C 146.333,1505.83 146.667,1505.17 147,1504.5C 149.071,1507.42 150.405,1507.08 151,1503.5C 152.218,1505.02 153.718,1506.19 155.5,1507C 155.167,1507.33 154.833,1507.67 154.5,1508C 157.514,1508.13 160.514,1508.13 163.5,1508C 165.178,1509.59 166.178,1511.09 166.5,1512.5C 169.053,1511.2 171.72,1510.2 174.5,1509.5C 177.78,1510.57 180.947,1510.57 184,1509.5C 184.667,1512.17 185.333,1512.17 186,1509.5C 188.333,1510.17 190.667,1510.83 193,1511.5C 193.492,1510.45 193.326,1509.45 192.5,1508.5C 194.007,1507.26 195.174,1507.59 196,1509.5C 196.708,1508.62 197.542,1507.95 198.5,1507.5 Z"/></g>
<g><path style="opacity:1" fill="#7e36b7" d="M 124.5,1472.5 C 124.5,1473.17 124.833,1473.5 125.5,1473.5C 126.249,1474.53 126.915,1475.7 127.5,1477C 127.167,1477.33 126.833,1477.67 126.5,1478C 127.71,1479.04 128.71,1480.21 129.5,1481.5C 128.343,1484.35 128.676,1486.85 130.5,1489C 132.126,1488.8 133.793,1488.8 135.5,1489C 137.026,1490.89 139.026,1491.89 141.5,1492C 142.548,1494.2 144.048,1494.7 146,1493.5C 147.705,1494.76 149.372,1495.1 151,1494.5C 151.667,1495.17 152.333,1495.83 153,1496.5C 157.054,1496.09 161.054,1496.09 165,1496.5C 165.333,1497.17 165.667,1497.83 166,1498.5C 167.912,1497.31 169.912,1496.31 172,1495.5C 173.066,1497.1 174.566,1498.1 176.5,1498.5C 180.219,1498.85 183.886,1498.18 187.5,1496.5C 189.642,1496.69 191.975,1496.86 194.5,1497C 193.167,1497.67 193.167,1498.33 194.5,1499C 196.044,1499.29 197.377,1499.96 198.5,1501C 197.833,1501.33 197.167,1501.67 196.5,1502C 197.428,1502.39 198.095,1503.05 198.5,1504C 197.342,1505.26 197.342,1506.43 198.5,1507.5C 197.542,1507.95 196.708,1508.62 196,1509.5C 195.174,1507.59 194.007,1507.26 192.5,1508.5C 193.326,1509.45 193.492,1510.45 193,1511.5C 190.667,1510.83 188.333,1510.17 186,1509.5C 185.333,1512.17 184.667,1512.17 184,1509.5C 180.947,1510.57 177.78,1510.57 174.5,1509.5C 171.72,1510.2 169.053,1511.2 166.5,1512.5C 166.178,1511.09 165.178,1509.59 163.5,1508C 160.514,1508.13 157.514,1508.13 154.5,1508C 154.833,1507.67 155.167,1507.33 155.5,1507C 153.718,1506.19 152.218,1505.02 151,1503.5C 150.405,1507.08 149.071,1507.42 147,1504.5C 146.667,1505.17 146.333,1505.83 146,1506.5C 142,1504.5 138,1502.5 134,1500.5C 133.667,1500.83 133.333,1501.17 133,1501.5C 131.672,1497.91 129.838,1497.58 127.5,1500.5C 126.257,1498.84 124.59,1497.67 122.5,1497C 122.957,1496.59 123.291,1496.09 123.5,1495.5C 122.117,1493.68 121.117,1491.68 120.5,1489.5C 121.88,1489.04 122.547,1488.04 122.5,1486.5C 120.871,1482.91 119.538,1479.25 118.5,1475.5C 121.089,1475.54 123.089,1474.54 124.5,1472.5 Z"/></g>
<g><path style="opacity:1" fill="#752aa8" d="M 258.5,1486.5 C 257.357,1486.91 256.357,1487.57 255.5,1488.5C 256.641,1489.43 256.641,1490.26 255.5,1491C 256.167,1491.67 256.833,1492.33 257.5,1493C 256.521,1494.78 256.854,1496.45 258.5,1498C 255.051,1500.48 251.717,1502.98 248.5,1505.5C 247.883,1505.39 247.383,1505.06 247,1504.5C 235.63,1510.93 223.797,1516.43 211.5,1521C 208.693,1521.04 206.026,1521.2 203.5,1521.5C 202.833,1521.33 202.167,1521.17 201.5,1521C 203.901,1520.19 203.734,1519.36 201,1518.5C 200,1519.83 199,1519.83 198,1518.5C 197.667,1519.83 197.333,1521.17 197,1522.5C 196.667,1521.83 196.333,1521.17 196,1520.5C 194.951,1521.52 193.784,1521.68 192.5,1521C 192.376,1520.03 192.376,1519.2 192.5,1518.5C 195.814,1516.23 199.481,1514.39 203.5,1513C 201.687,1513.05 200.021,1512.88 198.5,1512.5C 197.948,1511 197.948,1509.33 198.5,1507.5C 199.222,1507.92 199.722,1508.58 200,1509.5C 200.333,1508.83 200.667,1508.17 201,1507.5C 206.372,1507.1 211.538,1505.27 216.5,1502C 218.112,1501.28 219.612,1501.45 221,1502.5C 222.667,1500.5 224.333,1498.5 226,1496.5C 226.414,1496.96 226.914,1497.29 227.5,1497.5C 230.29,1496.69 232.956,1495.69 235.5,1494.5C 235.5,1493.5 235.5,1492.5 235.5,1491.5C 238.911,1490.28 242.244,1488.78 245.5,1487C 246.047,1486.08 246.713,1485.24 247.5,1484.5C 250.126,1486.75 252.793,1486.58 255.5,1484C 256.612,1481.22 258.445,1479.05 261,1477.5C 261.72,1479.11 261.554,1480.61 260.5,1482C 261.167,1482.33 261.833,1482.67 262.5,1483C 260.09,1483.06 258.756,1484.22 258.5,1486.5 Z"/></g>
<g><path style="opacity:1" fill="#7d42bd" d="M 129.5,1481.5 C 130.404,1482.21 130.737,1483.21 130.5,1484.5C 134.496,1483.6 138.162,1484.6 141.5,1487.5C 146.344,1484.92 151.511,1484.92 157,1487.5C 160.953,1487.65 164.62,1487.32 168,1486.5C 169.232,1489.75 171.232,1490.09 174,1487.5C 174.684,1489.36 175.684,1491.03 177,1492.5C 177.249,1491.38 177.749,1490.38 178.5,1489.5C 184.03,1491.07 189.53,1491.73 195,1491.5C 198.176,1489.3 201.342,1487.97 204.5,1487.5C 204.5,1488.17 204.833,1488.5 205.5,1488.5C 207.762,1489.34 208.429,1490.68 207.5,1492.5C 203.429,1493.18 199.429,1494.18 195.5,1495.5C 193.908,1495.58 192.241,1495.25 190.5,1494.5C 188.962,1494.45 187.962,1495.12 187.5,1496.5C 183.886,1498.18 180.219,1498.85 176.5,1498.5C 174.566,1498.1 173.066,1497.1 172,1495.5C 169.912,1496.31 167.912,1497.31 166,1498.5C 165.667,1497.83 165.333,1497.17 165,1496.5C 161.054,1496.09 157.054,1496.09 153,1496.5C 152.333,1495.83 151.667,1495.17 151,1494.5C 149.372,1495.1 147.705,1494.76 146,1493.5C 144.048,1494.7 142.548,1494.2 141.5,1492C 139.026,1491.89 137.026,1490.89 135.5,1489C 133.793,1488.8 132.126,1488.8 130.5,1489C 128.676,1486.85 128.343,1484.35 129.5,1481.5 Z"/></g>
<g><path style="opacity:1" fill="#7a4ac1" d="M 130.5,1471.5 C 131.524,1473.51 133.024,1475.18 135,1476.5C 135.333,1476.17 135.667,1475.83 136,1475.5C 138.667,1476.83 141.333,1478.17 144,1479.5C 145.333,1478.17 146.667,1478.17 148,1479.5C 148.667,1478.83 149.333,1478.17 150,1477.5C 150.833,1479 152,1480.17 153.5,1481C 156.426,1481.22 159.26,1481.72 162,1482.5C 163.016,1481.37 163.683,1481.7 164,1483.5C 166.8,1484.1 169.466,1483.44 172,1481.5C 173.422,1482.21 174.755,1482.54 176,1482.5C 178.271,1480.57 180.271,1480.57 182,1482.5C 185.174,1481.66 188.507,1481.66 192,1482.5C 193.167,1482.33 194.333,1482.17 195.5,1482C 195.167,1481.67 194.833,1481.33 194.5,1481C 195.766,1480.69 196.933,1480.19 198,1479.5C 199.487,1480.25 199.654,1481.09 198.5,1482C 199.901,1482.41 201.234,1482.91 202.5,1483.5C 202.389,1484.12 202.056,1484.62 201.5,1485C 203.119,1485.24 204.119,1486.07 204.5,1487.5C 201.342,1487.97 198.176,1489.3 195,1491.5C 189.53,1491.73 184.03,1491.07 178.5,1489.5C 177.749,1490.38 177.249,1491.38 177,1492.5C 175.684,1491.03 174.684,1489.36 174,1487.5C 171.232,1490.09 169.232,1489.75 168,1486.5C 164.62,1487.32 160.953,1487.65 157,1487.5C 151.511,1484.92 146.344,1484.92 141.5,1487.5C 138.162,1484.6 134.496,1483.6 130.5,1484.5C 130.737,1483.21 130.404,1482.21 129.5,1481.5C 128.71,1480.21 127.71,1479.04 126.5,1478C 126.833,1477.67 127.167,1477.33 127.5,1477C 126.915,1475.7 126.249,1474.53 125.5,1473.5C 125.783,1472.71 126.283,1472.04 127,1471.5C 127.986,1472.17 129.153,1472.17 130.5,1471.5 Z"/></g>
<g><path style="opacity:1" fill="#421860" d="M 250.5,1567.5 C 250.631,1568.38 250.298,1569.04 249.5,1569.5C 237.021,1574.46 224.354,1577.46 211.5,1578.5C 224.257,1574.93 237.257,1571.26 250.5,1567.5 Z"/></g>
<g><path style="opacity:1" fill="#401860" d="M 208.5,1578.5 C 204.22,1579.39 200.054,1579.72 196,1579.5C 191.066,1578.86 186.233,1578.19 181.5,1577.5C 189.818,1577.76 198.318,1577.43 207,1576.5C 208.03,1576.84 208.53,1577.5 208.5,1578.5 Z"/></g>
</svg>
