<?xml version="1.0" encoding="UTF-8"?>
<!DOCTYPE svg PUBLIC "-//W3C//DTD SVG 1.1//EN" "http://www.w3.org/Graphics/SVG/1.1/DTD/svg11.dtd">
<svg xmlns="http://www.w3.org/2000/svg" version="1.1" width="2000px" height="1125px" style="shape-rendering:geometricPrecision; text-rendering:geometricPrecision; image-rendering:optimizeQuality; fill-rule:evenodd; clip-rule:evenodd" xmlns:xlink="http://www.w3.org/1999/xlink">
<g><path style="opacity:1" fill="#edf0f5" d="M -0.5,-0.5 C 666.167,-0.5 1332.83,-0.5 1999.5,-0.5C 1999.5,374.5 1999.5,749.5 1999.5,1124.5C 1332.83,1124.5 666.167,1124.5 -0.5,1124.5C -0.5,749.5 -0.5,374.5 -0.5,-0.5 Z"/></g>
<g><path style="opacity:1" fill="#fcfdfd" d="M 76.5,49.5 C 94.1698,49.3334 111.836,49.5001 129.5,50C 131.219,51.0569 133.053,51.8903 135,52.5C 135.249,53.624 135.749,54.624 136.5,55.5C 138.09,75.2834 137.756,94.9501 135.5,114.5C 133.158,114.504 131.158,115.337 129.5,117C 112.833,117.667 96.1667,117.667 79.5,117C 76.4605,115.969 73.9605,114.135 72,111.5C 71.167,92.8244 71.3337,74.1577 72.5,55.5C 74.2516,53.7541 75.5849,51.7541 76.5,49.5 Z"/></g>
<g><path style="opacity:1" fill="#fdfefd" d="M 169.5,49.5 C 187.503,49.3334 205.503,49.5001 223.5,50C 225.96,51.4578 228.127,53.2911 230,55.5C 231.639,73.4093 231.973,91.4093 231,109.5C 229.895,112.937 227.728,115.437 224.5,117C 207.167,117.667 189.833,117.667 172.5,117C 170.899,116.727 169.399,116.227 168,115.5C 167.417,113.998 166.584,112.665 165.5,111.5C 164.334,93.8428 164.167,76.1761 165,58.5C 165.999,55.1675 167.499,52.1675 169.5,49.5 Z"/></g>
<g><path style="opacity:1" fill="#fdfdfd" d="M 267.5,49.5 C 283.503,49.3334 299.503,49.5001 315.5,50C 319.274,51.1071 321.774,53.6071 323,57.5C 323.667,75.5 323.667,93.5 323,111.5C 321.948,115.126 319.448,116.959 315.5,117C 297.482,117.75 279.482,117.583 261.5,116.5C 260.178,113.976 259.012,111.31 258,108.5C 257.333,91.5 257.333,74.5 258,57.5C 259.593,52.8085 262.76,50.1418 267.5,49.5 Z"/></g>
<g><path style="opacity:1" fill="#525456" d="M 286.5,63.5 C 300.092,63.2683 308.092,69.7683 310.5,83C 310.311,87.267 308.978,91.1003 306.5,94.5C 307.689,95.4287 309.022,95.762 310.5,95.5C 310.768,98.1194 310.435,100.619 309.5,103C 302.167,103.667 294.833,103.667 287.5,103C 270.119,95.7395 266.786,84.4062 277.5,69C 280.263,66.6258 283.263,64.7925 286.5,63.5 Z"/></g>
<g><path style="opacity:1" fill="#fcfcfc" d="M 284.5,66.5 C 301.316,65.149 308.816,72.8156 307,89.5C 305.5,91.8333 304,94.1667 302.5,96.5C 304.045,97.4519 305.712,97.7852 307.5,97.5C 307.5,98.5 307.5,99.5 307.5,100.5C 300.159,100.666 292.826,100.5 285.5,100C 273.063,93.0859 270.563,83.5859 278,71.5C 280.352,69.9697 282.519,68.3031 284.5,66.5 Z"/></g>
<g><path style="opacity:1" fill="#4c4d4f" d="M 98.5,65.5 C 108.995,64.4259 117.662,67.7593 124.5,75.5C 124.167,75.8333 123.833,76.1667 123.5,76.5C 114.81,68.5626 104.81,66.396 93.5,70C 90.1466,71.6768 87.1466,73.8434 84.5,76.5C 83.479,75.9984 83.3123,75.3317 84,74.5C 88.0527,70.066 92.886,67.066 98.5,65.5 Z"/></g>
<g><path style="opacity:1" fill="#949597" d="M 204.5,77.5 C 203.518,74.0381 203.185,70.3714 203.5,66.5C 199.5,66.5 195.5,66.5 191.5,66.5C 191.815,70.3714 191.482,74.0381 190.5,77.5C 190.5,73.5 190.5,69.5 190.5,65.5C 195.167,65.5 199.833,65.5 204.5,65.5C 204.5,69.5 204.5,73.5 204.5,77.5 Z"/></g>
<g><path style="opacity:1" fill="#4f4f51" d="M 99.5,74.5 C 104.371,74.1922 109.037,75.0255 113.5,77C 115.968,78.2162 117.968,79.8829 119.5,82C 119.167,82.5 118.833,83 118.5,83.5C 112.574,77.9096 105.574,76.0763 97.5,78C 94.735,79.1294 92.235,80.6294 90,82.5C 88.1739,81.9896 88.0072,81.1562 89.5,80C 92.7667,77.8703 96.1,76.037 99.5,74.5 Z"/></g>
<g><path style="opacity:1" fill="#46474a" d="M 99.5,84.5 C 102.518,84.3354 105.518,84.502 108.5,85C 110.813,85.6409 112.48,86.9743 113.5,89C 113.167,89.5 112.833,90 112.5,90.5C 106.833,85.1667 101.167,85.1667 95.5,90.5C 94.479,89.9984 94.3123,89.3317 95,88.5C 96.3968,86.9297 97.8968,85.5964 99.5,84.5 Z"/></g>
<g><path style="opacity:1" fill="#545557" d="M 204.5,77.5 C 208.167,77.5 211.833,77.5 215.5,77.5C 215.817,81.7016 215.483,85.7016 214.5,89.5C 210.833,89.5 207.167,89.5 203.5,89.5C 203.5,93.1667 203.5,96.8333 203.5,100.5C 199.5,100.5 195.5,100.5 191.5,100.5C 190.518,97.0381 190.185,93.3714 190.5,89.5C 186.833,89.5 183.167,89.5 179.5,89.5C 179.5,85.5 179.5,81.5 179.5,77.5C 183.167,77.5 186.833,77.5 190.5,77.5C 191.482,74.0381 191.815,70.3714 191.5,66.5C 195.5,66.5 199.5,66.5 203.5,66.5C 203.185,70.3714 203.518,74.0381 204.5,77.5 Z"/></g>
<g><path style="opacity:1" fill="#fdfefe" d="M 193.5,68.5 C 196.167,68.5 198.833,68.5 201.5,68.5C 201.5,72.1667 201.5,75.8333 201.5,79.5C 205.167,79.5 208.833,79.5 212.5,79.5C 212.5,82.1667 212.5,84.8333 212.5,87.5C 208.833,87.5 205.167,87.5 201.5,87.5C 201.5,91.1667 201.5,94.8333 201.5,98.5C 198.833,98.5 196.167,98.5 193.5,98.5C 193.5,94.8333 193.5,91.1667 193.5,87.5C 189.833,87.5 186.167,87.5 182.5,87.5C 182.5,84.8333 182.5,82.1667 182.5,79.5C 186.167,79.5 189.833,79.5 193.5,79.5C 193.5,75.8333 193.5,72.1667 193.5,68.5 Z"/></g>
<g><path style="opacity:1" fill="#a0a2a3" d="M 214.5,89.5 C 211.375,90.4794 208.042,90.8128 204.5,90.5C 204.5,94.1667 204.5,97.8333 204.5,101.5C 199.968,101.818 195.634,101.485 191.5,100.5C 195.5,100.5 199.5,100.5 203.5,100.5C 203.5,96.8333 203.5,93.1667 203.5,89.5C 207.167,89.5 210.833,89.5 214.5,89.5 Z"/></g>
<g><path style="opacity:1" fill="#555558" d="M 102.5,91.5 C 104.981,91.3234 106.814,92.3234 108,94.5C 107.601,99.6914 105.267,100.691 101,97.5C 100.252,95.1599 100.752,93.1599 102.5,91.5 Z"/></g>
<g><path style="opacity:1" fill="#e5e6e8" d="M 102.5,94.5 C 103.675,94.281 104.675,94.6143 105.5,95.5C 103.948,96.7979 102.948,96.4646 102.5,94.5 Z"/></g>
<g><path style="opacity:1" fill="#424f64" d="M 1836.5,335.5 C 1835.83,312.833 1835.17,290.167 1834.5,267.5C 1834.72,261.439 1832.06,257.272 1826.5,255C 1768.5,254.333 1710.5,254.333 1652.5,255C 1649.92,256.076 1648.25,257.909 1647.5,260.5C 1645.79,261.635 1645.12,263.302 1645.5,265.5C 1645.17,265.5 1644.83,265.5 1644.5,265.5C 1643.5,289.092 1643.17,313.425 1643.5,338.5C 1642.34,313.337 1642.17,288.003 1643,262.5C 1645.26,257.243 1649.09,253.743 1654.5,252C 1712.56,251.012 1770.56,251.345 1828.5,253C 1832.06,254.892 1834.56,257.725 1836,261.5C 1836.5,286.164 1836.67,310.831 1836.5,335.5 Z"/></g>
<g><path style="opacity:1" fill="#8faaeb" d="M 1834.5,267.5 C 1834.67,291.169 1834.5,314.836 1834,338.5C 1833.62,339.942 1832.79,340.942 1831.5,341.5C 1833.55,316.572 1834.05,291.572 1833,266.5C 1832.56,262.434 1830.72,259.268 1827.5,257C 1798.06,255.845 1768.56,255.345 1739,255.5C 1710.5,255.833 1682,256.167 1653.5,256.5C 1652.27,259.071 1650.27,260.405 1647.5,260.5C 1648.25,257.909 1649.92,256.076 1652.5,255C 1710.5,254.333 1768.5,254.333 1826.5,255C 1832.06,257.272 1834.72,261.439 1834.5,267.5 Z"/></g>
<g><path style="opacity:1" fill="#87abfd" d="M 1831.5,341.5 C 1831.5,341.833 1831.5,342.167 1831.5,342.5C 1829.4,342.477 1827.57,343.144 1826,344.5C 1825.5,344.167 1825,343.833 1824.5,343.5C 1825,342.284 1825.33,341.117 1825.5,340C 1823.87,338.164 1823.2,338.664 1823.5,341.5C 1822.02,341.238 1820.69,341.571 1819.5,342.5C 1820.65,343.731 1821.82,343.731 1823,342.5C 1823.49,343.793 1823.66,345.127 1823.5,346.5C 1818.79,346.282 1814.12,346.615 1809.5,347.5C 1758.19,346.676 1706.86,346.176 1655.5,346C 1653.56,345.092 1652.56,343.592 1652.5,341.5C 1649.48,341.572 1647.31,340.238 1646,337.5C 1645.5,313.502 1645.33,289.502 1645.5,265.5C 1645.12,263.302 1645.79,261.635 1647.5,260.5C 1650.27,260.405 1652.27,259.071 1653.5,256.5C 1682,256.167 1710.5,255.833 1739,255.5C 1768.56,255.345 1798.06,255.845 1827.5,257C 1830.72,259.268 1832.56,262.434 1833,266.5C 1834.05,291.572 1833.55,316.572 1831.5,341.5 Z"/></g>
<g><path style="opacity:1" fill="#fdfefe" d="M 1167.5,298.5 C 1198.84,298.333 1230.17,298.5 1261.5,299C 1265.68,301.588 1269.68,304.421 1273.5,307.5C 1274.33,310.161 1275.17,312.828 1276,315.5C 1276.83,346.172 1276.67,376.839 1275.5,407.5C 1274.64,410.593 1273.31,413.427 1271.5,416C 1267.73,418.516 1263.73,420.516 1259.5,422C 1228.83,422.667 1198.17,422.667 1167.5,422C 1160.61,419.106 1155.77,414.272 1153,407.5C 1152.33,376.833 1152.33,346.167 1153,315.5C 1153.77,311.286 1155.61,307.619 1158.5,304.5C 1162.13,303.165 1165.13,301.165 1167.5,298.5 Z"/></g>
<g><path style="opacity:1" fill="#f6f9fc" d="M 1215.5,328.5 C 1220.7,329.54 1224.2,332.54 1226,337.5C 1226.5,346.16 1226.67,354.827 1226.5,363.5C 1224.99,365.181 1223.99,367.181 1223.5,369.5C 1214.1,375.079 1206.93,373.079 1202,363.5C 1201.33,354.833 1201.33,346.167 1202,337.5C 1203.47,334.213 1205.63,331.546 1208.5,329.5C 1210.81,329.007 1213.14,328.674 1215.5,328.5 Z"/></g>
<g><path style="opacity:1" fill="#8ea9e6" d="M 1644.5,265.5 C 1644.83,265.5 1645.17,265.5 1645.5,265.5C 1645.33,289.502 1645.5,313.502 1646,337.5C 1647.31,340.238 1649.48,341.572 1652.5,341.5C 1652.56,343.592 1653.56,345.092 1655.5,346C 1706.86,346.176 1758.19,346.676 1809.5,347.5C 1814.12,346.615 1818.79,346.282 1823.5,346.5C 1823.66,345.127 1823.49,343.793 1823,342.5C 1821.82,343.731 1820.65,343.731 1819.5,342.5C 1820.69,341.571 1822.02,341.238 1823.5,341.5C 1823.2,338.664 1823.87,338.164 1825.5,340C 1825.33,341.117 1825,342.284 1824.5,343.5C 1825,343.833 1825.5,344.167 1826,344.5C 1827.57,343.144 1829.4,342.477 1831.5,342.5C 1830.71,343.794 1829.71,344.961 1828.5,346C 1823.25,347.271 1817.91,347.771 1812.5,347.5C 1812.5,349.5 1812.5,351.5 1812.5,353.5C 1809.33,353.338 1807.33,351.672 1806.5,348.5C 1755.17,347.667 1703.84,347.167 1652.5,347C 1648.96,345.093 1646.46,342.26 1645,338.5C 1644.5,314.169 1644.33,289.836 1644.5,265.5 Z"/></g>
<g><path style="opacity:1" fill="#303e5b" d="M 1644.5,265.5 C 1644.33,289.836 1644.5,314.169 1645,338.5C 1646.46,342.26 1648.96,345.093 1652.5,347C 1703.84,347.167 1755.17,347.667 1806.5,348.5C 1807.33,351.672 1809.33,353.338 1812.5,353.5C 1812.5,351.5 1812.5,349.5 1812.5,347.5C 1817.91,347.771 1823.25,347.271 1828.5,346C 1829.71,344.961 1830.71,343.794 1831.5,342.5C 1831.5,342.167 1831.5,341.833 1831.5,341.5C 1832.79,340.942 1833.62,339.942 1834,338.5C 1834.5,314.836 1834.67,291.169 1834.5,267.5C 1835.17,290.167 1835.83,312.833 1836.5,335.5C 1834.19,347.641 1826.86,352.307 1814.5,349.5C 1815.17,351.833 1815.83,354.167 1816.5,356.5C 1811.47,357.611 1807.81,355.944 1805.5,351.5C 1805.5,350.5 1805.5,349.5 1805.5,348.5C 1754.17,348.5 1702.83,348.5 1651.5,348.5C 1646.96,346.633 1644.3,343.299 1643.5,338.5C 1643.17,313.425 1643.5,289.092 1644.5,265.5 Z"/></g>
<g><path style="opacity:1" fill="#8cabf2" d="M 1812.5,321.5 C 1764,321.168 1715.66,321.501 1667.5,322.5C 1664.83,323.167 1664.83,323.833 1667.5,324.5C 1716,325.499 1764.66,325.832 1813.5,325.5C 1763.94,326.212 1714.44,326.879 1665,327.5C 1663.65,325.406 1663.15,323.073 1663.5,320.5C 1713.34,320.168 1763,320.501 1812.5,321.5 Z"/></g>
<g><path style="opacity:1" fill="#91aae3" d="M 1667.5,322.5 C 1715.66,321.501 1764,321.168 1812.5,321.5C 1814.62,322.403 1814.95,323.737 1813.5,325.5C 1764.66,325.832 1716,325.499 1667.5,324.5C 1860.83,323.833 1860.83,323.167 1667.5,322.5 Z"/></g>
<g><path style="opacity:1" fill="#263b6b" d="M 1667.5,322.5 C 1860.83,323.167 1860.83,323.833 1667.5,324.5C 1664.83,323.833 1664.83,323.167 1667.5,322.5 Z"/></g>
<g><path style="opacity:1" fill="#263c6d" d="M 1665.5,300.5 C 1714.5,300.167 1763.5,300.5 1812.5,301.5C 1788,301.833 1763.5,302.167 1739,302.5C 1714.16,302.5 1689.66,301.833 1665.5,300.5 Z"/></g>
<g><path style="opacity:1" fill="#94a8ed" d="M 1813.5,277.5 C 1814.92,277.75 1815.92,278.583 1816.5,280C 1814.37,281.286 1812.04,282.119 1809.5,282.5C 1762.35,281.843 1715.35,281.176 1668.5,280.5C 1716.5,280.5 1764.5,280.5 1812.5,280.5C 1813.4,279.791 1813.74,278.791 1813.5,277.5 Z"/></g>
<g><path style="opacity:1" fill="#3d4f78" d="M 1665.5,278.5 C 1714.84,277.838 1763.84,278.505 1812.5,280.5C 1764.5,280.5 1716.5,280.5 1668.5,280.5C 1667.21,280.737 1666.21,280.404 1665.5,279.5C 1665.5,279.167 1665.5,278.833 1665.5,278.5 Z"/></g>
<g><path style="opacity:1" fill="#597299" d="M 1665.5,278.5 C 1714,277.501 1762.66,277.168 1811.5,277.5C 1812.17,277.5 1812.83,277.5 1813.5,277.5C 1813.74,278.791 1813.4,279.791 1812.5,280.5C 1763.84,278.505 1714.84,277.838 1665.5,278.5 Z"/></g>
<g><path style="opacity:1" fill="#8dabec" d="M 1811.5,277.5 C 1762.66,277.168 1714,277.501 1665.5,278.5C 1665.5,278.833 1665.5,279.167 1665.5,279.5C 1663.95,279.179 1663.29,278.179 1663.5,276.5C 1713,276.168 1762.34,276.501 1811.5,277.5 Z"/></g>
<g><path style="opacity:1" fill="#363c40" d="M 1651.5,348.5 C 1702.83,348.5 1754.17,348.5 1805.5,348.5C 1805.5,349.5 1805.5,350.5 1805.5,351.5C 1754.21,349.842 1702.88,348.842 1651.5,348.5 Z"/></g>
<g><path style="opacity:1" fill="#4565ea" d="M 1231.5,334.5 C 1232.48,338.634 1232.82,342.968 1232.5,347.5C 1235.52,347.335 1238.52,347.502 1241.5,348C 1246.97,364.589 1242.3,377.589 1227.5,387C 1225.26,387.977 1222.93,388.477 1220.5,388.5C 1219.69,386.972 1219.02,385.306 1218.5,383.5C 1228.23,381.104 1234.23,375.104 1236.5,365.5C 1237.48,361.702 1237.82,357.702 1237.5,353.5C 1235.83,353.5 1234.17,353.5 1232.5,353.5C 1232.5,356.833 1232.5,360.167 1232.5,363.5C 1232.31,367.663 1230.64,370.996 1227.5,373.5C 1225.83,373.5 1224.17,373.5 1222.5,373.5C 1222.43,372.041 1222.77,370.708 1223.5,369.5C 1223.99,367.181 1224.99,365.181 1226.5,363.5C 1227.49,354.014 1227.83,344.348 1227.5,334.5C 1228.83,334.5 1230.17,334.5 1231.5,334.5 Z"/></g>
<g><path style="opacity:1" fill="#b7cbf9" d="M 1236.5,365.5 C 1236.5,361.833 1236.5,358.167 1236.5,354.5C 1235.5,354.5 1234.5,354.5 1233.5,354.5C 1233.81,357.713 1233.48,360.713 1232.5,363.5C 1232.5,360.167 1232.5,356.833 1232.5,353.5C 1234.17,353.5 1235.83,353.5 1237.5,353.5C 1237.82,357.702 1237.48,361.702 1236.5,365.5 Z"/></g>
<g><path style="opacity:1" fill="#4867e3" d="M 1231.5,334.5 C 1230.17,334.5 1228.83,334.5 1227.5,334.5C 1227.83,344.348 1227.49,354.014 1226.5,363.5C 1226.67,354.827 1226.5,346.16 1226,337.5C 1224.2,332.54 1220.7,329.54 1215.5,328.5C 1212.99,327.133 1210.65,327.466 1208.5,329.5C 1205.63,331.546 1203.47,334.213 1202,337.5C 1201.33,346.167 1201.33,354.833 1202,363.5C 1206.93,373.079 1214.1,375.079 1223.5,369.5C 1222.77,370.708 1222.43,372.041 1222.5,373.5C 1224.17,373.5 1225.83,373.5 1227.5,373.5C 1222.77,379.008 1216.77,380.842 1209.5,379C 1208.26,378.768 1207.26,378.268 1206.5,377.5C 1200.72,374.629 1197.39,369.963 1196.5,363.5C 1196.5,360.167 1196.5,356.833 1196.5,353.5C 1194.83,353.5 1193.17,353.5 1191.5,353.5C 1191.18,357.702 1191.52,361.702 1192.5,365.5C 1196.29,378.403 1204.95,384.403 1218.5,383.5C 1219.02,385.306 1219.69,386.972 1220.5,388.5C 1219.79,389.404 1218.79,389.737 1217.5,389.5C 1217.5,390.833 1217.5,392.167 1217.5,393.5C 1222.16,393.015 1223.49,394.848 1221.5,399C 1220.55,399.483 1219.55,399.649 1218.5,399.5C 1218.05,398.542 1217.38,397.708 1216.5,397C 1216.64,393.379 1216.64,389.545 1216.5,385.5C 1213.5,385.5 1210.5,385.5 1207.5,385.5C 1207.5,386.5 1207.5,387.5 1207.5,388.5C 1209.86,388.337 1212.19,388.503 1214.5,389C 1213.1,390.31 1212.1,391.81 1211.5,393.5C 1211.5,392.167 1211.5,390.833 1211.5,389.5C 1199.44,388.285 1191.28,381.952 1187,370.5C 1185.44,363.247 1185.11,355.914 1186,348.5C 1189.39,347.544 1192.89,347.211 1196.5,347.5C 1194.38,336.581 1198.05,328.414 1207.5,323C 1216.59,320.8 1224.09,323.3 1230,330.5C 1230.79,331.745 1231.29,333.078 1231.5,334.5 Z"/></g>
<g><path style="opacity:1" fill="#b6caf9" d="M 1196.5,363.5 C 1195.52,360.713 1195.19,357.713 1195.5,354.5C 1194.5,354.5 1193.5,354.5 1192.5,354.5C 1192.5,358.167 1192.5,361.833 1192.5,365.5C 1191.52,361.702 1191.18,357.702 1191.5,353.5C 1193.17,353.5 1194.83,353.5 1196.5,353.5C 1196.5,356.833 1196.5,360.167 1196.5,363.5 Z"/></g>
<g><path style="opacity:1" fill="#3e62f6" d="M 1196.5,347.5 C 1197.32,345.692 1198.32,343.859 1199.5,342C 1198.48,339.822 1198.64,337.655 1200,335.5C 1200.83,345.849 1200.67,356.183 1199.5,366.5C 1198.2,361.615 1198.2,356.782 1199.5,352C 1198.05,351.883 1196.55,352.05 1195,352.5C 1194.24,350.928 1192.41,350.262 1189.5,350.5C 1189.64,353.35 1189.97,356.183 1190.5,359C 1190.6,361.145 1189.94,362.979 1188.5,364.5C 1187.91,364.291 1187.41,363.957 1187,363.5C 1186.33,358.833 1186.33,354.167 1187,349.5C 1190.27,348.868 1193.44,348.201 1196.5,347.5 Z"/></g>
<g><path style="opacity:1" fill="#5770c2" d="M 1215.5,328.5 C 1213.14,328.674 1210.81,329.007 1208.5,329.5C 1210.65,327.466 1212.99,327.133 1215.5,328.5 Z"/></g>
<g><path style="opacity:1" fill="#eef8fb" d="M 1196.5,363.5 C 1197.39,369.963 1200.72,374.629 1206.5,377.5C 1207.26,378.268 1208.26,378.768 1209.5,379C 1216.77,380.842 1222.77,379.008 1227.5,373.5C 1230.64,370.996 1232.31,367.663 1232.5,363.5C 1233.48,360.713 1233.81,357.713 1233.5,354.5C 1234.5,354.5 1235.5,354.5 1236.5,354.5C 1236.5,358.167 1236.5,361.833 1236.5,365.5C 1234.23,375.104 1228.23,381.104 1218.5,383.5C 1204.95,384.403 1196.29,378.403 1192.5,365.5C 1192.5,361.833 1192.5,358.167 1192.5,354.5C 1193.5,354.5 1194.5,354.5 1195.5,354.5C 1195.19,357.713 1195.52,360.713 1196.5,363.5 Z"/></g>
<g><path style="opacity:1" fill="#3d63f0" d="M 1206.5,377.5 C 1206.5,376.5 1206.5,375.5 1206.5,374.5C 1210.88,374.708 1215.21,374.375 1219.5,373.5C 1221.11,373.637 1222.44,374.304 1223.5,375.5C 1218.17,378.708 1212.5,379.375 1206.5,377.5 Z"/></g>
<g><path style="opacity:1" fill="#4062f1" d="M 1218.5,399.5 C 1214.5,399.5 1210.5,399.5 1206.5,399.5C 1205.43,395.062 1207.09,393.062 1211.5,393.5C 1212.1,391.81 1213.1,390.31 1214.5,389C 1212.19,388.503 1209.86,388.337 1207.5,388.5C 1207.5,387.5 1207.5,386.5 1207.5,385.5C 1210.5,385.5 1213.5,385.5 1216.5,385.5C 1216.64,389.545 1216.64,393.379 1216.5,397C 1217.38,397.708 1218.05,398.542 1218.5,399.5 Z"/></g>
<g><path style="opacity:1" fill="#475360" d="M 1654.5,390.5 C 1710.83,390.333 1767.17,390.5 1823.5,391C 1828.42,391.933 1832.25,394.433 1835,398.5C 1836.66,495.444 1836.99,592.444 1836,689.5C 1834.67,693.832 1832.17,697.332 1828.5,700C 1823.85,700.899 1819.18,701.732 1814.5,702.5C 1815.35,704.409 1815.68,706.409 1815.5,708.5C 1810.55,708.86 1806.89,706.86 1804.5,702.5C 1753.84,701.667 1703.17,701.167 1652.5,701C 1648.39,699.221 1645.22,696.388 1643,692.5C 1641.34,596.543 1641.01,500.543 1642,404.5C 1643.95,397.72 1648.12,393.053 1654.5,390.5 Z"/></g>
<g><path style="opacity:1" fill="#c0e1fd" d="M 1814.5,699.5 C 1812.96,701.025 1811.96,703.025 1811.5,705.5C 1808.33,704.669 1806.66,702.669 1806.5,699.5C 1755.5,699.667 1704.5,699.5 1653.5,699C 1650.26,697.64 1647.76,695.473 1646,692.5C 1644.34,595.914 1644,499.248 1645,402.5C 1645.38,401.058 1646.21,400.058 1647.5,399.5C 1649.2,399.66 1650.87,399.494 1652.5,399C 1651.83,398.667 1651.17,398.333 1650.5,398C 1653.21,396.452 1656.04,395.286 1659,394.5C 1709.63,394.343 1760.46,394.51 1811.5,395C 1815.83,395.333 1820.17,395.667 1824.5,396C 1826.53,397.879 1828.86,399.046 1831.5,399.5C 1832.81,496.158 1832.81,592.825 1831.5,689.5C 1828.73,697.137 1823.56,699.47 1816,696.5C 1814.96,697.244 1814.46,698.244 1814.5,699.5 Z"/></g>
<g><path style="opacity:1" fill="#c5dff4" d="M 1814.5,699.5 C 1814.46,698.244 1814.96,697.244 1816,696.5C 1823.56,699.47 1828.73,697.137 1831.5,689.5C 1832.81,592.825 1832.81,496.158 1831.5,399.5C 1828.86,399.046 1826.53,397.879 1824.5,396C 1820.17,395.667 1815.83,395.333 1811.5,395C 1760.46,394.51 1709.63,394.343 1659,394.5C 1656.04,395.286 1653.21,396.452 1650.5,398C 1651.17,398.333 1651.83,398.667 1652.5,399C 1650.87,399.494 1649.2,399.66 1647.5,399.5C 1648.74,397.012 1650.74,395.179 1653.5,394C 1710.5,393.333 1767.5,393.333 1824.5,394C 1829.24,395.068 1832.4,397.901 1834,402.5C 1834.67,497.833 1834.67,593.167 1834,688.5C 1830.68,697.418 1824.18,701.085 1814.5,699.5 Z"/></g>
<g><path style="opacity:1" fill="#76899d" d="M 1805.5,428.5 C 1783.84,427.167 1761.84,426.5 1739.5,426.5C 1717.16,426.5 1695.16,427.167 1673.5,428.5C 1672.6,427.791 1672.26,426.791 1672.5,425.5C 1717.17,425.5 1761.83,425.5 1806.5,425.5C 1806.74,426.791 1806.4,427.791 1805.5,428.5 Z"/></g>
<g><path style="opacity:1" fill="#49596c" d="M 1805.5,428.5 C 1761.5,428.5 1717.5,428.5 1673.5,428.5C 1695.16,427.167 1717.16,426.5 1739.5,426.5C 1761.84,426.5 1783.84,427.167 1805.5,428.5 Z"/></g>
<g><path style="opacity:1" fill="#778798" d="M 1805.5,450.5 C 1783.84,449.167 1761.84,448.5 1739.5,448.5C 1717.16,448.5 1695.16,449.167 1673.5,450.5C 1672.6,449.791 1672.26,448.791 1672.5,447.5C 1717.17,447.5 1761.83,447.5 1806.5,447.5C 1806.74,448.791 1806.4,449.791 1805.5,450.5 Z"/></g>
<g><path style="opacity:1" fill="#48596c" d="M 1805.5,450.5 C 1761.5,450.5 1717.5,450.5 1673.5,450.5C 1695.16,449.167 1717.16,448.5 1739.5,448.5C 1761.84,448.5 1783.84,449.167 1805.5,450.5 Z"/></g>
<g><path style="opacity:1" fill="#2d3f51" d="M 1672.5,470.5 C 1717.17,470.167 1761.84,470.5 1806.5,471.5C 1784.17,471.833 1761.83,472.167 1739.5,472.5C 1716.82,472.5 1694.49,471.833 1672.5,470.5 Z"/></g>
<g><path style="opacity:1" fill="#546577" d="M 1672.5,492.5 C 1717.17,492.5 1761.83,492.5 1806.5,492.5C 1806.5,493.5 1806.5,494.5 1806.5,495.5C 1761.83,495.5 1717.17,495.5 1672.5,495.5C 1672.5,494.5 1672.5,493.5 1672.5,492.5 Z"/></g>
<g><path style="opacity:1" fill="#495a6c" d="M 1805.5,514.5 C 1761.51,516.495 1717.18,517.161 1672.5,516.5C 1716.49,514.505 1760.82,513.839 1805.5,514.5 Z"/></g>
<g><path style="opacity:1" fill="#75899d" d="M 1805.5,514.5 C 1806.4,515.209 1806.74,516.209 1806.5,517.5C 1761.66,517.832 1717,517.499 1672.5,516.5C 1717.18,517.161 1761.51,516.495 1805.5,514.5 Z"/></g>
<g><path style="opacity:1" fill="#74879a" d="M 1805.5,539.5 C 1783.84,538.167 1761.84,537.5 1739.5,537.5C 1717.16,537.5 1695.16,538.167 1673.5,539.5C 1672.6,538.791 1672.26,537.791 1672.5,536.5C 1717.17,536.5 1761.83,536.5 1806.5,536.5C 1806.74,537.791 1806.4,538.791 1805.5,539.5 Z"/></g>
<g><path style="opacity:1" fill="#495969" d="M 1805.5,539.5 C 1761.5,539.5 1717.5,539.5 1673.5,539.5C 1695.16,538.167 1717.16,537.5 1739.5,537.5C 1761.84,537.5 1783.84,538.167 1805.5,539.5 Z"/></g>
<g><path style="opacity:1" fill="#2e3e4b" d="M 1672.5,559.5 C 1717.17,559.167 1761.84,559.5 1806.5,560.5C 1784.17,560.833 1761.83,561.167 1739.5,561.5C 1716.82,561.5 1694.49,560.833 1672.5,559.5 Z"/></g>
<g><path style="opacity:1" fill="#323c48" d="M 1672.5,581.5 C 1717.17,581.167 1761.84,581.5 1806.5,582.5C 1784.17,582.833 1761.83,583.167 1739.5,583.5C 1716.82,583.5 1694.49,582.833 1672.5,581.5 Z"/></g>
<g><path style="opacity:1" fill="#556474" d="M 1672.5,603.5 C 1717.17,603.5 1761.83,603.5 1806.5,603.5C 1806.5,604.5 1806.5,605.5 1806.5,606.5C 1761.83,606.5 1717.17,606.5 1672.5,606.5C 1672.5,605.5 1672.5,604.5 1672.5,603.5 Z"/></g>
<g><path style="opacity:1" fill="#3a3c41" d="M 1237.5,606.5 C 1343.83,606.333 1450.17,606.5 1556.5,607C 1561.57,608.406 1565.07,611.572 1567,616.5C 1567.67,646.5 1567.67,676.5 1567,706.5C 1565.81,710.709 1563.31,713.876 1559.5,716C 1459.54,717.324 1359.54,717.991 1259.5,718C 1257.35,722.74 1253.69,724.907 1248.5,724.5C 1248.99,722.194 1249.33,719.861 1249.5,717.5C 1239.74,719.298 1232.58,715.965 1228,707.5C 1227.33,677.167 1227.33,646.833 1228,616.5C 1230.02,611.98 1233.19,608.647 1237.5,606.5 Z"/></g>
<g><path style="opacity:1" fill="#fefefe" d="M 1238.5,608.5 C 1343.83,608.333 1449.17,608.5 1554.5,609C 1560.33,610.167 1563.83,613.667 1565,619.5C 1565.67,648.167 1565.67,676.833 1565,705.5C 1563.86,710.64 1560.69,713.807 1555.5,715C 1456.16,715.167 1356.83,715.667 1257.5,716.5C 1253.67,723.145 1251.67,722.811 1251.5,715.5C 1245.07,716.302 1239.07,715.136 1233.5,712C 1231.44,709.932 1230.27,707.432 1230,704.5C 1229.33,676.167 1229.33,647.833 1230,619.5C 1230.23,617.22 1231.07,615.22 1232.5,613.5C 1234.57,611.815 1236.57,610.148 1238.5,608.5 Z"/></g>
<g><path style="opacity:1" fill="#778999" d="M 1805.5,628.5 C 1783.84,627.167 1761.84,626.5 1739.5,626.5C 1717.16,626.5 1695.16,627.167 1673.5,628.5C 1672.6,627.791 1672.26,626.791 1672.5,625.5C 1717.17,625.5 1761.83,625.5 1806.5,625.5C 1806.74,626.791 1806.4,627.791 1805.5,628.5 Z"/></g>
<g><path style="opacity:1" fill="#4c5968" d="M 1805.5,628.5 C 1761.5,628.5 1717.5,628.5 1673.5,628.5C 1695.16,627.167 1717.16,626.5 1739.5,626.5C 1761.84,626.5 1783.84,627.167 1805.5,628.5 Z"/></g>
<g><path style="opacity:1" fill="#696a6c" d="M 1256.5,641.5 C 1350.5,641.5 1444.5,641.5 1538.5,641.5C 1538.5,642.5 1538.5,643.5 1538.5,644.5C 1444.5,644.5 1350.5,644.5 1256.5,644.5C 1256.5,643.5 1256.5,642.5 1256.5,641.5 Z"/></g>
<g><path style="opacity:1" fill="#75889b" d="M 1805.5,650.5 C 1783.84,649.167 1761.84,648.5 1739.5,648.5C 1717.16,648.5 1695.16,649.167 1673.5,650.5C 1672.6,649.791 1672.26,648.791 1672.5,647.5C 1717.17,647.5 1761.83,647.5 1806.5,647.5C 1806.74,648.791 1806.4,649.791 1805.5,650.5 Z"/></g>
<g><path style="opacity:1" fill="#49596b" d="M 1805.5,650.5 C 1761.5,650.5 1717.5,650.5 1673.5,650.5C 1695.16,649.167 1717.16,648.5 1739.5,648.5C 1761.84,648.5 1783.84,649.167 1805.5,650.5 Z"/></g>
<g><path style="opacity:1" fill="#919599" d="M 1537.5,666.5 C 1491.17,665.167 1444.5,664.5 1397.5,664.5C 1350.5,664.5 1303.83,665.167 1257.5,666.5C 1256.6,665.791 1256.26,664.791 1256.5,663.5C 1350.5,663.5 1444.5,663.5 1538.5,663.5C 1538.74,664.791 1538.4,665.791 1537.5,666.5 Z"/></g>
<g><path style="opacity:1" fill="#5b5e60" d="M 1537.5,666.5 C 1444.17,666.5 1350.83,666.5 1257.5,666.5C 1303.83,665.167 1350.5,664.5 1397.5,664.5C 1444.5,664.5 1491.17,665.167 1537.5,666.5 Z"/></g>
<g><path style="opacity:1" fill="#2a4056" d="M 1744.5,670.5 C 1765.18,670.167 1785.84,670.5 1806.5,671.5C 1796.17,671.833 1785.83,672.167 1775.5,672.5C 1764.81,672.499 1754.48,671.832 1744.5,670.5 Z"/></g>
<g><path style="opacity:1" fill="#5c5c5f" d="M 1396.5,686.5 C 1350.18,688.495 1303.51,689.162 1256.5,688.5C 1302.82,686.505 1349.49,685.838 1396.5,686.5 Z"/></g>
<g><path style="opacity:1" fill="#959699" d="M 1396.5,686.5 C 1397.4,687.209 1397.74,688.209 1397.5,689.5C 1350.33,689.832 1303.33,689.499 1256.5,688.5C 1303.51,689.162 1350.18,688.495 1396.5,686.5 Z"/></g>
<g><path style="opacity:1" fill="#354162" d="M 1828.5,829.5 C 1828.5,828.833 1828.5,828.167 1828.5,827.5C 1829.5,826.167 1830.5,824.833 1831.5,823.5C 1831.5,823.167 1831.5,822.833 1831.5,822.5C 1832.46,822.047 1833.29,821.381 1834,820.5C 1834.83,807.993 1834.66,795.66 1833.5,783.5C 1833.74,781.102 1833.07,779.102 1831.5,777.5C 1830.61,773.108 1827.94,770.608 1823.5,770C 1718.5,769.167 1613.5,769.333 1508.5,770.5C 1508.14,771.183 1507.8,771.85 1507.5,772.5C 1506.13,772.343 1504.79,772.51 1503.5,773C 1503.05,775.501 1502.05,777.667 1500.5,779.5C 1499.5,792.483 1499.17,805.483 1499.5,818.5C 1500.37,821.112 1501.04,823.779 1501.5,826.5C 1499.22,823.603 1497.72,820.27 1497,816.5C 1496.33,804.833 1496.33,793.167 1497,781.5C 1498.28,775.887 1501.45,771.72 1506.5,769C 1612.83,768.333 1719.17,768.333 1825.5,769C 1831.75,771.322 1835.25,775.822 1836,782.5C 1836.67,793.833 1836.67,805.167 1836,816.5C 1835.36,821.96 1832.86,826.294 1828.5,829.5 Z"/></g>
<g><path style="opacity:1" fill="#3f59bd" d="M 1831.5,777.5 C 1829.66,776.492 1828.33,774.992 1827.5,773C 1826.21,772.51 1824.87,772.343 1823.5,772.5C 1721,771.501 1618.33,771.167 1515.5,771.5C 1512.76,771.401 1510.1,771.735 1507.5,772.5C 1507.8,771.85 1508.14,771.183 1508.5,770.5C 1613.5,769.333 1718.5,769.167 1823.5,770C 1827.94,770.608 1830.61,773.108 1831.5,777.5 Z"/></g>
<g><path style="opacity:1" fill="#3e63ed" d="M 1515.5,771.5 C 1618.33,771.167 1721,771.501 1823.5,772.5C 1721.64,772.17 1619.8,772.503 1518,773.5C 1516.7,773.361 1515.87,772.695 1515.5,771.5 Z"/></g>
<g><path style="opacity:1" fill="#3c62f5" d="M 1515.5,771.5 C 1515.87,772.695 1516.7,773.361 1518,773.5C 1619.8,772.503 1721.64,772.17 1823.5,772.5C 1824.87,772.343 1826.21,772.51 1827.5,773C 1828.33,774.992 1829.66,776.492 1831.5,777.5C 1833.07,779.102 1833.74,781.102 1833.5,783.5C 1833.67,795.505 1833.5,807.505 1833,819.5C 1831.96,820.244 1831.46,821.244 1831.5,822.5C 1831.5,822.833 1831.5,823.167 1831.5,823.5C 1829.4,824.412 1827.4,825.579 1825.5,827C 1819.42,828.27 1813.76,827.437 1808.5,824.5C 1808.17,825 1807.83,825.5 1807.5,826C 1809.58,827.244 1810.58,829.077 1810.5,831.5C 1809.5,831.5 1808.5,831.5 1807.5,831.5C 1807.5,830.167 1806.83,829.5 1805.5,829.5C 1805.16,828.662 1804.49,828.328 1803.5,828.5C 1801.05,827.527 1798.39,827.194 1795.5,827.5C 1793.48,825.81 1793.81,823.977 1796.5,822C 1800.11,822.238 1803.78,822.405 1807.5,822.5C 1807.5,821.5 1807.5,820.5 1807.5,819.5C 1808.5,819.414 1809.33,819.748 1810,820.5C 1812.17,818.879 1814.67,818.045 1817.5,818C 1818.34,816.989 1818.67,815.822 1818.5,814.5C 1820.38,814.393 1820.71,814.893 1819.5,816C 1821.43,817.895 1823.1,817.562 1824.5,815C 1821.12,814.693 1819.79,812.86 1820.5,809.5C 1821.16,810.398 1821.82,811.398 1822.5,812.5C 1823.83,811.167 1823.83,809.833 1822.5,808.5C 1820.36,807.399 1818.19,806.399 1816,805.5C 1813.38,806.991 1810.55,807.658 1807.5,807.5C 1807.5,806.5 1807.5,805.5 1807.5,804.5C 1809.86,804.663 1812.19,804.497 1814.5,804C 1813.83,803.667 1813.17,803.333 1812.5,803C 1714.83,802.833 1617.16,802.333 1519.5,801.5C 1616.83,800.833 1714.17,800.167 1811.5,799.5C 1810.68,797.889 1809.35,797.222 1807.5,797.5C 1807.5,796.5 1807.5,795.5 1807.5,794.5C 1807.22,793.222 1806.55,792.222 1805.5,791.5C 1810.17,791.5 1814.83,791.5 1819.5,791.5C 1819.77,789.901 1819.43,788.568 1818.5,787.5C 1818.5,787.167 1818.5,786.833 1818.5,786.5C 1820.6,785.088 1822.94,784.088 1825.5,783.5C 1824.95,781.099 1824.12,778.765 1823,776.5C 1721.86,777.496 1620.86,777.83 1520,777.5C 1519.29,776.027 1518.12,775.36 1516.5,775.5C 1516.5,776.5 1516.5,777.5 1516.5,778.5C 1513.81,778.664 1511.15,778.497 1508.5,778C 1507.95,777.075 1507.29,776.242 1506.5,775.5C 1505.85,777.184 1504.85,778.517 1503.5,779.5C 1503.13,776.068 1504.46,773.734 1507.5,772.5C 1510.1,771.735 1512.76,771.401 1515.5,771.5 Z"/></g>
<g><path style="opacity:1" fill="#3b62f8" d="M 1818.5,786.5 C 1718.5,786.833 1618.5,786.5 1518.5,785.5C 1517.25,783.958 1517.25,782.458 1518.5,781C 1516.04,780.054 1514.04,780.554 1512.5,782.5C 1513.32,783.386 1514.32,783.719 1515.5,783.5C 1515.17,788.214 1515.51,792.88 1516.5,797.5C 1517.29,796.758 1517.95,795.925 1518.5,795C 1614.83,794.5 1711.17,794.333 1807.5,794.5C 1807.5,795.5 1807.5,796.5 1807.5,797.5C 1809.35,797.222 1810.68,797.889 1811.5,799.5C 1714.17,800.167 1616.83,800.833 1519.5,801.5C 1617.16,802.333 1714.83,802.833 1812.5,803C 1813.17,803.333 1813.83,803.667 1814.5,804C 1812.19,804.497 1809.86,804.663 1807.5,804.5C 1807.5,805.5 1807.5,806.5 1807.5,807.5C 1810.55,807.658 1813.38,806.991 1816,805.5C 1818.19,806.399 1820.36,807.399 1822.5,808.5C 1823.83,809.833 1823.83,811.167 1822.5,812.5C 1821.82,811.398 1821.16,810.398 1820.5,809.5C 1819.83,809.5 1819.17,809.5 1818.5,809.5C 1718,808.501 1617.33,808.167 1516.5,808.5C 1516.19,811.247 1516.52,813.914 1517.5,816.5C 1518.31,816.192 1518.97,815.692 1519.5,815C 1567.5,814.833 1615.5,814.667 1663.5,814.5C 1712.25,814.509 1760.92,815.176 1809.5,816.5C 1812.31,814.936 1815.31,814.27 1818.5,814.5C 1818.67,815.822 1818.34,816.989 1817.5,818C 1814.67,818.045 1812.17,818.879 1810,820.5C 1809.33,819.748 1808.5,819.414 1807.5,819.5C 1711.5,819.667 1615.5,819.5 1519.5,819C 1518.01,817.632 1516.51,817.465 1515,818.5C 1511.33,817.833 1507.67,817.167 1504,816.5C 1503.67,806.167 1503.33,795.833 1503,785.5C 1503.15,796.547 1502.31,807.214 1500.5,817.5C 1500.33,805.495 1500.5,793.495 1501,781.5C 1501.71,780.619 1502.54,779.953 1503.5,779.5C 1504.85,778.517 1505.85,777.184 1506.5,775.5C 1507.29,776.242 1507.95,777.075 1508.5,778C 1511.15,778.497 1513.81,778.664 1516.5,778.5C 1516.5,777.5 1516.5,776.5 1516.5,775.5C 1518.12,775.36 1519.29,776.027 1520,777.5C 1620.86,777.83 1721.86,777.496 1823,776.5C 1824.12,778.765 1824.95,781.099 1825.5,783.5C 1822.94,784.088 1820.6,785.088 1818.5,786.5 Z"/></g>
<g><path style="opacity:1" fill="#4463d5" d="M 1507.5,772.5 C 1504.46,773.734 1503.13,776.068 1503.5,779.5C 1502.54,779.953 1501.71,780.619 1501,781.5C 1500.5,793.495 1500.33,805.495 1500.5,817.5C 1500.5,817.833 1500.5,818.167 1500.5,818.5C 1500.17,818.5 1499.83,818.5 1499.5,818.5C 1499.17,805.483 1499.5,792.483 1500.5,779.5C 1502.05,777.667 1503.05,775.501 1503.5,773C 1504.79,772.51 1506.13,772.343 1507.5,772.5 Z"/></g>
<g><path style="opacity:1" fill="#475db9" d="M 1833.5,783.5 C 1834.66,795.66 1834.83,807.993 1834,820.5C 1833.29,821.381 1832.46,822.047 1831.5,822.5C 1831.46,821.244 1831.96,820.244 1833,819.5C 1833.5,807.505 1833.67,795.505 1833.5,783.5 Z"/></g>
<g><path style="opacity:1" fill="#4263e0" d="M 1519.5,787.5 C 1519.5,788.5 1519.5,789.5 1519.5,790.5C 1619.17,790.5 1718.83,790.5 1818.5,790.5C 1818.5,789.5 1818.5,788.5 1818.5,787.5C 1819.43,788.568 1819.77,789.901 1819.5,791.5C 1814.83,791.5 1810.17,791.5 1805.5,791.5C 1709.26,791.168 1613.1,791.501 1517,792.5C 1516.6,790.171 1517.44,788.505 1519.5,787.5 Z"/></g>
<g><path style="opacity:1" fill="#c6d3fc" d="M 1519.5,787.5 C 1619.17,787.5 1718.83,787.5 1818.5,787.5C 1818.5,788.5 1818.5,789.5 1818.5,790.5C 1718.83,790.5 1619.17,790.5 1519.5,790.5C 1519.5,789.5 1519.5,788.5 1519.5,787.5 Z"/></g>
<g><path style="opacity:1" fill="#3e63e8" d="M 1818.5,786.5 C 1818.5,786.833 1818.5,787.167 1818.5,787.5C 1718.83,787.5 1619.17,787.5 1519.5,787.5C 1517.44,788.505 1516.6,790.171 1517,792.5C 1613.1,791.501 1709.26,791.168 1805.5,791.5C 1806.55,792.222 1807.22,793.222 1807.5,794.5C 1711.17,794.333 1614.83,794.5 1518.5,795C 1517.95,795.925 1517.29,796.758 1516.5,797.5C 1515.51,792.88 1515.17,788.214 1515.5,783.5C 1514.32,783.719 1513.32,783.386 1512.5,782.5C 1514.04,780.554 1516.04,780.054 1518.5,781C 1517.25,782.458 1517.25,783.958 1518.5,785.5C 1618.5,786.5 1718.5,786.833 1818.5,786.5 Z"/></g>
<g><path style="opacity:1" fill="#4064df" d="M 1818.5,809.5 C 1819.17,809.5 1819.83,809.5 1820.5,809.5C 1819.79,812.86 1821.12,814.693 1824.5,815C 1823.1,817.562 1821.43,817.895 1819.5,816C 1820.71,814.893 1820.38,814.393 1818.5,814.5C 1815.31,814.27 1812.31,814.936 1809.5,816.5C 1760.92,815.176 1712.25,814.509 1663.5,814.5C 1615.5,814.667 1567.5,814.833 1519.5,815C 1518.97,815.692 1518.31,816.192 1517.5,816.5C 1516.52,813.914 1516.19,811.247 1516.5,808.5C 1617.33,808.167 1718,808.501 1818.5,809.5 Z"/></g>
<g><path style="opacity:1" fill="#c2d4fa" d="M 1818.5,809.5 C 1818.5,810.5 1818.5,811.5 1818.5,812.5C 1718.83,812.5 1619.17,812.5 1519.5,812.5C 1519.5,811.5 1519.5,810.5 1519.5,809.5C 1619.17,809.5 1718.83,809.5 1818.5,809.5 Z"/></g>
<g><path style="opacity:1" fill="#3a62fb" d="M 1515.5,827.5 C 1513.47,827.662 1511.47,827.495 1509.5,827C 1507.6,824.932 1505.6,823.099 1503.5,821.5C 1503.62,820.414 1504.29,819.747 1505.5,819.5C 1508.47,820.139 1511.47,820.639 1514.5,821C 1606.83,821.5 1699.17,821.667 1791.5,821.5C 1791.5,822.5 1791.5,823.5 1791.5,824.5C 1698.79,824.831 1606.13,824.497 1513.5,823.5C 1513.17,823.833 1512.83,824.167 1512.5,824.5C 1513.77,825.288 1514.77,826.288 1515.5,827.5 Z"/></g>
<g><path style="opacity:1" fill="#3a63f2" d="M 1807.5,819.5 C 1807.5,820.5 1807.5,821.5 1807.5,822.5C 1803.78,822.405 1800.11,822.238 1796.5,822C 1793.81,823.977 1793.48,825.81 1795.5,827.5C 1702.17,827.5 1608.83,827.5 1515.5,827.5C 1514.77,826.288 1513.77,825.288 1512.5,824.5C 1512.83,824.167 1513.17,823.833 1513.5,823.5C 1606.13,824.497 1698.79,824.831 1791.5,824.5C 1791.5,823.5 1791.5,822.5 1791.5,821.5C 1699.17,821.667 1606.83,821.5 1514.5,821C 1511.47,820.639 1508.47,820.139 1505.5,819.5C 1504.29,819.747 1503.62,820.414 1503.5,821.5C 1502.83,821.167 1502.17,820.833 1501.5,820.5C 1501.17,819.833 1500.83,819.167 1500.5,818.5C 1500.5,818.167 1500.5,817.833 1500.5,817.5C 1502.31,807.214 1503.15,796.547 1503,785.5C 1503.33,795.833 1503.67,806.167 1504,816.5C 1507.67,817.167 1511.33,817.833 1515,818.5C 1516.51,817.465 1518.01,817.632 1519.5,819C 1615.5,819.5 1711.5,819.667 1807.5,819.5 Z"/></g>
<g><path style="opacity:1" fill="#4066e8" d="M 1501.5,820.5 C 1502.17,820.833 1502.83,821.167 1503.5,821.5C 1505.6,823.099 1507.6,824.932 1509.5,827C 1511.47,827.495 1513.47,827.662 1515.5,827.5C 1608.83,827.5 1702.17,827.5 1795.5,827.5C 1798.39,827.194 1801.05,827.527 1803.5,828.5C 1705.17,828.667 1606.83,828.5 1508.5,828C 1507.53,826.519 1506.2,825.685 1504.5,825.5C 1502.75,824.341 1501.75,822.674 1501.5,820.5 Z"/></g>
<g><path style="opacity:1" fill="#4460da" d="M 1831.5,823.5 C 1830.5,824.833 1829.5,826.167 1828.5,827.5C 1823.32,829.184 1817.99,829.85 1812.5,829.5C 1812.5,831.833 1812.5,834.167 1812.5,836.5C 1809.17,836.5 1807.5,834.833 1807.5,831.5C 1808.5,831.5 1809.5,831.5 1810.5,831.5C 1810.58,829.077 1809.58,827.244 1807.5,826C 1807.83,825.5 1808.17,825 1808.5,824.5C 1813.76,827.437 1819.42,828.27 1825.5,827C 1827.4,825.579 1829.4,824.412 1831.5,823.5 Z"/></g>
<g><path style="opacity:1" fill="#3d57b5" d="M 1504.5,825.5 C 1506.2,825.685 1507.53,826.519 1508.5,828C 1606.83,828.5 1705.17,828.667 1803.5,828.5C 1804.49,828.328 1805.16,828.662 1805.5,829.5C 1706.17,829.667 1606.83,829.5 1507.5,829C 1506.29,827.961 1505.29,826.794 1504.5,825.5 Z"/></g>
<g><path style="opacity:1" fill="#333c5d" d="M 1499.5,818.5 C 1499.83,818.5 1500.17,818.5 1500.5,818.5C 1500.83,819.167 1501.17,819.833 1501.5,820.5C 1501.75,822.674 1502.75,824.341 1504.5,825.5C 1505.29,826.794 1506.29,827.961 1507.5,829C 1606.83,829.5 1706.17,829.667 1805.5,829.5C 1806.83,829.5 1807.5,830.167 1807.5,831.5C 1807.5,834.833 1809.17,836.5 1812.5,836.5C 1812.5,834.167 1812.5,831.833 1812.5,829.5C 1817.99,829.85 1823.32,829.184 1828.5,827.5C 1828.5,828.167 1828.5,828.833 1828.5,829.5C 1827.29,830.234 1825.96,830.567 1824.5,830.5C 1820.83,830.5 1817.17,830.5 1813.5,830.5C 1814.05,834.012 1813.39,837.012 1811.5,839.5C 1808.21,838.211 1805.88,835.877 1804.5,832.5C 1705.84,831.667 1607.17,831.167 1508.5,831C 1505.74,830.062 1503.41,828.562 1501.5,826.5C 1501.04,823.779 1500.37,821.112 1499.5,818.5 Z"/></g>
<g><path style="opacity:1" fill="#3d4751" d="M 1824.5,830.5 C 1821.38,831.479 1818.04,831.813 1814.5,831.5C 1815.16,834.455 1815.49,837.455 1815.5,840.5C 1813.9,840.768 1812.57,840.434 1811.5,839.5C 1813.39,837.012 1814.05,834.012 1813.5,830.5C 1817.17,830.5 1820.83,830.5 1824.5,830.5 Z"/></g>
<g><path style="opacity:1" fill="#51545a" d="M 1239.5,866.5 C 1344.83,866.333 1450.17,866.5 1555.5,867C 1562.19,869.026 1566.02,873.526 1567,880.5C 1567.67,892.833 1567.67,905.167 1567,917.5C 1564.83,923.667 1560.67,927.833 1554.5,930C 1456.17,930.333 1357.83,930.667 1259.5,931C 1257.86,936.467 1254.2,938.967 1248.5,938.5C 1248.58,935.794 1248.91,933.127 1249.5,930.5C 1237.76,931.91 1230.59,926.91 1228,915.5C 1227.33,903.833 1227.33,892.167 1228,880.5C 1229.14,873.533 1232.98,868.866 1239.5,866.5 Z"/></g>
<g><path style="opacity:1" fill="#9ca1a7" d="M 1238.5,869.5 C 1344.5,869.333 1450.5,869.5 1556.5,870C 1561.16,872.503 1564,876.337 1565,881.5C 1565.9,894.215 1565.56,906.882 1564,919.5C 1562.08,923.085 1559.25,925.585 1555.5,927C 1456.5,927.333 1357.5,927.667 1258.5,928C 1254.06,937.641 1251.72,937.474 1251.5,927.5C 1239.78,930.398 1232.61,926.064 1230,914.5C 1229.33,903.5 1229.33,892.5 1230,881.5C 1231.15,876.204 1233.98,872.204 1238.5,869.5 Z"/></g>
<g><path style="opacity:1" fill="#454a50" d="M 1544.5,887.5 C 1444.67,887.833 1345,887.499 1245.5,886.5C 1295.17,885.833 1345,885.5 1395,885.5C 1445.17,885.5 1495,886.167 1544.5,887.5 Z"/></g>
<g><path style="opacity:1" fill="#52575d" d="M 1245.5,886.5 C 1345,887.499 1444.67,887.833 1544.5,887.5C 1444.67,888.832 1344.67,888.832 1244.5,887.5C 1244.62,886.893 1244.96,886.56 1245.5,886.5 Z"/></g>
<g><path style="opacity:1" fill="#373c42" d="M 1244.5,908.5 C 1344.5,908.167 1444.5,908.5 1544.5,909.5C 1494.5,909.833 1444.5,910.167 1394.5,910.5C 1344.16,910.5 1294.16,909.833 1244.5,908.5 Z"/></g>
<g><path style="opacity:1" fill="#fefefe" d="M 1828.5,985.5 C 1828.5,1008.5 1828.5,1031.5 1828.5,1054.5C 1828.57,1054.94 1828.4,1055.27 1828,1055.5C 1827,1054.83 1826,1054.17 1825,1053.5C 1250.24,1054.67 675.403,1054.83 100.5,1054C 90.2704,1052.27 82.2704,1047.1 76.5,1038.5C 68.3053,1025.21 68.6387,1011.88 77.5,998.5C 82.7395,993.063 88.7395,988.896 95.5,986C 98.1667,985.667 100.833,985.333 103.5,985C 678.786,984.168 1253.79,984.335 1828.5,985.5 Z"/></g>
<g><path style="opacity:1" fill="#383d42" d="M 1828.5,1054.5 C 1828.5,1031.5 1828.5,1008.5 1828.5,985.5C 1839.83,984.833 1851.33,984.5 1863,984.5C 1876.54,984.392 1890.04,984.892 1903.5,986C 1927.37,996.945 1933.87,1014.45 1923,1038.5C 1916.95,1047.61 1908.45,1052.78 1897.5,1054C 1874.5,1054.5 1851.5,1054.67 1828.5,1054.5 Z"/></g>
<g><path style="opacity:1" fill="#eef0f1" d="M 1886.5,1003.5 C 1888.35,1003.22 1889.68,1003.89 1890.5,1005.5C 1886.04,1015.38 1881.87,1025.38 1878,1035.5C 1877.31,1037.55 1876.15,1039.22 1874.5,1040.5C 1873.91,1040.29 1873.41,1039.96 1873,1039.5C 1872.32,1033.91 1870.82,1028.58 1868.5,1023.5C 1863.55,1021.85 1858.55,1020.35 1853.5,1019C 1852.07,1017.29 1852.41,1015.95 1854.5,1015C 1865.31,1011.23 1875.98,1007.4 1886.5,1003.5 Z"/></g>
<g><path style="opacity:1" fill="#46494d" d="M 1876.5,1010.5 C 1877.55,1010.35 1878.55,1010.52 1879.5,1011C 1876.69,1013.9 1873.69,1016.57 1870.5,1019C 1867.02,1019.3 1863.68,1018.63 1860.5,1017C 1866.05,1015.1 1871.39,1012.93 1876.5,1010.5 Z"/></g>
<g><path style="opacity:1" fill="#434649" d="M 1881.5,1013.5 C 1882.57,1014.25 1882.74,1015.25 1882,1016.5C 1879.39,1021.38 1877.06,1026.38 1875,1031.5C 1874.09,1028.69 1873.26,1025.86 1872.5,1023C 1875.68,1019.99 1878.68,1016.82 1881.5,1013.5 Z"/></g>
</svg>
