<?xml version="1.0" encoding="UTF-8"?>
<!DOCTYPE svg PUBLIC "-//W3C//DTD SVG 1.1//EN" "http://www.w3.org/Graphics/SVG/1.1/DTD/svg11.dtd">
<svg xmlns="http://www.w3.org/2000/svg" version="1.1" width="2000px" height="1125px" style="shape-rendering:geometricPrecision; text-rendering:geometricPrecision; image-rendering:optimizeQuality; fill-rule:evenodd; clip-rule:evenodd" xmlns:xlink="http://www.w3.org/1999/xlink">
<g><path style="opacity:1" fill="#edf0f5" d="M -0.5,-0.5 C 38.1667,-0.5 76.8333,-0.5 115.5,-0.5C 115.5,60.5 115.5,121.5 115.5,182.5C 116.5,182.5 117.5,182.5 118.5,182.5C 118.5,121.5 118.5,60.5 118.5,-0.5C 562.167,-0.5 1005.83,-0.5 1449.5,-0.5C 1449.33,24.8355 1449.5,50.1689 1450,75.5C 1451.41,80.5732 1454.57,84.0732 1459.5,86C 1558.83,86.3333 1658.17,86.6667 1757.5,87C 1759.52,91.83 1763.18,93.9967 1768.5,93.5C 1768.33,91.139 1767.99,88.8056 1767.5,86.5C 1778.03,89.0874 1785.2,85.4207 1789,75.5C 1789.5,50.1689 1789.67,24.8355 1789.5,-0.5C 1806.5,-0.5 1823.5,-0.5 1840.5,-0.5C 1840.33,90.8339 1840.5,182.167 1841,273.5C 1841.28,274.416 1841.78,275.082 1842.5,275.5C 1843.24,279.791 1845.57,282.958 1849.5,285C 1853.73,286.29 1858.06,286.79 1862.5,286.5C 1862.64,288.262 1862.31,289.929 1861.5,291.5C 1861.89,292.72 1862.72,293.387 1864,293.5C 1868.24,292.773 1871.4,290.606 1873.5,287C 1915.5,286.5 1957.5,286.333 1999.5,286.5C 1999.5,305.167 1999.5,323.833 1999.5,342.5C 1969.16,342.333 1938.83,342.5 1908.5,343C 1902.9,344.931 1899.4,348.764 1898,354.5C 1897.33,379.167 1897.33,403.833 1898,428.5C 1898.96,431.377 1900.29,434.044 1902,436.5C 1903.49,438.16 1905.32,439.16 1907.5,439.5C 1911.3,440.483 1915.3,440.817 1919.5,440.5C 1919.01,442.806 1918.67,445.139 1918.5,447.5C 1924.08,448.21 1928.08,446.044 1930.5,441C 1953.5,440.5 1976.5,440.333 1999.5,440.5C 1999.5,668.5 1999.5,896.5 1999.5,1124.5C 1332.83,1124.5 666.167,1124.5 -0.5,1124.5C -0.5,749.5 -0.5,374.5 -0.5,-0.5 Z"/></g>
<g><path style="opacity:1" fill="#575a5f" d="M 115.5,-0.5 C 116.5,-0.5 117.5,-0.5 118.5,-0.5C 118.5,60.5 118.5,121.5 118.5,182.5C 117.5,182.5 116.5,182.5 115.5,182.5C 115.5,121.5 115.5,60.5 115.5,-0.5 Z"/></g>
<g><path style="opacity:1" fill="#515b68" d="M 1840.5,-0.5 C 1841.5,-0.5 1842.5,-0.5 1843.5,-0.5C 1843.5,91.5 1843.5,183.5 1843.5,275.5C 1843.17,275.5 1842.83,275.5 1842.5,275.5C 1841.78,275.082 1841.28,274.416 1841,273.5C 1840.5,182.167 1840.33,90.8339 1840.5,-0.5 Z"/></g>
<g><path style="opacity:1" fill="#c5e0f7" d="M 1843.5,-0.5 C 1844.17,-0.5 1844.83,-0.5 1845.5,-0.5C 1845.33,90.1673 1845.5,180.834 1846,271.5C 1845.92,278.767 1849.25,281.433 1856,279.5C 1856.35,281.807 1857.35,282.141 1859,280.5C 1863.08,281.738 1866.91,283.404 1870.5,285.5C 1869.56,288.947 1867.56,290.28 1864.5,289.5C 1865.46,287.735 1865.79,285.735 1865.5,283.5C 1861.83,283.5 1858.17,283.5 1854.5,283.5C 1849.75,282.426 1846.08,279.76 1843.5,275.5C 1843.5,183.5 1843.5,91.5 1843.5,-0.5 Z"/></g>
<g><path style="opacity:1" fill="#c0e1fd" d="M 1845.5,-0.5 C 1896.83,-0.5 1948.17,-0.5 1999.5,-0.5C 1999.5,3.16667 1999.5,6.83333 1999.5,10.5C 1956.83,10.5 1914.17,10.5 1871.5,10.5C 1871.5,11.5 1871.5,12.5 1871.5,13.5C 1914.17,13.5 1956.83,13.5 1999.5,13.5C 1999.5,19.8333 1999.5,26.1667 1999.5,32.5C 1956.83,32.5 1914.17,32.5 1871.5,32.5C 1871.5,33.5 1871.5,34.5 1871.5,35.5C 1914.17,35.5 1956.83,35.5 1999.5,35.5C 1999.5,42.1667 1999.5,48.8333 1999.5,55.5C 1828.83,56.1667 1828.83,56.8333 1999.5,57.5C 1999.5,64.1667 1999.5,70.8333 1999.5,77.5C 1828.83,78.1667 1828.83,78.8333 1999.5,79.5C 1999.5,86.1667 1999.5,92.8333 1999.5,99.5C 1956.83,99.5 1914.17,99.5 1871.5,99.5C 1871.5,100.5 1871.5,101.5 1871.5,102.5C 1914.17,102.5 1956.83,102.5 1999.5,102.5C 1999.5,108.833 1999.5,115.167 1999.5,121.5C 1956.83,121.5 1914.17,121.5 1871.5,121.5C 1871.5,122.5 1871.5,123.5 1871.5,124.5C 1914.17,124.5 1956.83,124.5 1999.5,124.5C 1999.5,130.833 1999.5,137.167 1999.5,143.5C 1956.83,143.5 1914.17,143.5 1871.5,143.5C 1871.5,144.5 1871.5,145.5 1871.5,146.5C 1914.17,146.5 1956.83,146.5 1999.5,146.5C 1999.5,153.167 1999.5,159.833 1999.5,166.5C 1828.83,167.167 1828.83,167.833 1999.5,168.5C 1999.5,175.167 1999.5,181.833 1999.5,188.5C 1956.83,188.5 1914.17,188.5 1871.5,188.5C 1871.5,189.5 1871.5,190.5 1871.5,191.5C 1914.17,191.5 1956.83,191.5 1999.5,191.5C 1999.5,197.833 1999.5,204.167 1999.5,210.5C 1956.83,210.5 1914.17,210.5 1871.5,210.5C 1871.5,211.5 1871.5,212.5 1871.5,213.5C 1914.17,213.5 1956.83,213.5 1999.5,213.5C 1999.5,219.833 1999.5,226.167 1999.5,232.5C 1956.83,232.5 1914.17,232.5 1871.5,232.5C 1871.5,233.5 1871.5,234.5 1871.5,235.5C 1914.17,235.5 1956.83,235.5 1999.5,235.5C 1999.5,251.5 1999.5,267.5 1999.5,283.5C 1956.28,282.847 1913.28,283.514 1870.5,285.5C 1866.91,283.404 1863.08,281.738 1859,280.5C 1857.35,282.141 1856.35,281.807 1856,279.5C 1849.25,281.433 1845.92,278.767 1846,271.5C 1845.5,180.834 1845.33,90.1673 1845.5,-0.5 Z"/></g>
<g><path style="opacity:1" fill="#4d5a68" d="M 1999.5,10.5 C 1999.5,11.5 1999.5,12.5 1999.5,13.5C 1956.83,13.5 1914.17,13.5 1871.5,13.5C 1871.5,12.5 1871.5,11.5 1871.5,10.5C 1914.17,10.5 1956.83,10.5 1999.5,10.5 Z"/></g>
<g><path style="opacity:1" fill="#4c5967" d="M 1999.5,32.5 C 1999.5,33.5 1999.5,34.5 1999.5,35.5C 1956.83,35.5 1914.17,35.5 1871.5,35.5C 1871.5,34.5 1871.5,33.5 1871.5,32.5C 1914.17,32.5 1956.83,32.5 1999.5,32.5 Z"/></g>
<g><path style="opacity:1" fill="#333b46" d="M 1999.5,55.5 C 1999.5,56.1667 1999.5,56.8333 1999.5,57.5C 1828.83,56.8333 1828.83,56.1667 1999.5,55.5 Z"/></g>
<g><path style="opacity:1" fill="#303d49" d="M 1999.5,77.5 C 1999.5,78.1667 1999.5,78.8333 1999.5,79.5C 1828.83,78.8333 1828.83,78.1667 1999.5,77.5 Z"/></g>
<g><path style="opacity:1" fill="#424448" d="M 1449.5,-0.5 C 1450.5,-0.5 1451.5,-0.5 1452.5,-0.5C 1452.33,25.1688 1452.5,50.8355 1453,76.5C 1454.59,80.4279 1457.43,82.9279 1461.5,84C 1560.83,84.5 1660.17,84.6667 1759.5,84.5C 1759.83,88.1667 1761.83,90.1667 1765.5,90.5C 1765.5,88.5 1765.5,86.5 1765.5,84.5C 1772.26,85.4349 1778.42,84.1016 1784,80.5C 1785.44,78.7254 1786.44,76.7254 1787,74.5C 1787.5,49.5022 1787.67,24.5022 1787.5,-0.5C 1788.17,-0.5 1788.83,-0.5 1789.5,-0.5C 1789.67,24.8355 1789.5,50.1689 1789,75.5C 1785.2,85.4207 1778.03,89.0874 1767.5,86.5C 1767.99,88.8056 1768.33,91.139 1768.5,93.5C 1763.18,93.9967 1759.52,91.83 1757.5,87C 1658.17,86.6667 1558.83,86.3333 1459.5,86C 1454.57,84.0732 1451.41,80.5732 1450,75.5C 1449.5,50.1689 1449.33,24.8355 1449.5,-0.5 Z"/></g>
<g><path style="opacity:1" fill="#fefefe" d="M 1452.5,-0.5 C 1564.17,-0.5 1675.83,-0.5 1787.5,-0.5C 1787.67,24.5022 1787.5,49.5022 1787,74.5C 1786.44,76.7254 1785.44,78.7254 1784,80.5C 1778.42,84.1016 1772.26,85.4349 1765.5,84.5C 1765.5,86.5 1765.5,88.5 1765.5,90.5C 1761.83,90.1667 1759.83,88.1667 1759.5,84.5C 1660.17,84.6667 1560.83,84.5 1461.5,84C 1457.43,82.9279 1454.59,80.4279 1453,76.5C 1452.5,50.8355 1452.33,25.1688 1452.5,-0.5 Z"/></g>
<g><path style="opacity:1" fill="#969799" d="M 1620.5,50.5 C 1666.82,52.4951 1713.49,53.1618 1760.5,52.5C 1713.67,53.4988 1666.67,53.8321 1619.5,53.5C 1619.26,52.209 1619.6,51.209 1620.5,50.5 Z"/></g>
<g><path style="opacity:1" fill="#5d5e60" d="M 1620.5,50.5 C 1667.51,49.8382 1714.18,50.5049 1760.5,52.5C 1713.49,53.1618 1666.82,52.4951 1620.5,50.5 Z"/></g>
<g><path style="opacity:1" fill="#3b3c3f" d="M 1478.5,28.5 C 1572.5,28.1667 1666.5,28.5 1760.5,29.5C 1713.5,29.8333 1666.5,30.1667 1619.5,30.5C 1572.16,30.4999 1525.16,29.8333 1478.5,28.5 Z"/></g>
<g><path style="opacity:1" fill="#939699" d="M 1759.5,8.5 C 1713.17,7.16673 1666.5,6.50006 1619.5,6.5C 1572.5,6.50006 1525.83,7.16673 1479.5,8.5C 1478.6,7.79105 1478.26,6.79105 1478.5,5.5C 1572.5,5.5 1666.5,5.5 1760.5,5.5C 1760.74,6.79105 1760.4,7.79105 1759.5,8.5 Z"/></g>
<g><path style="opacity:1" fill="#595d60" d="M 1759.5,8.5 C 1666.17,8.5 1572.83,8.5 1479.5,8.5C 1525.83,7.16673 1572.5,6.50006 1619.5,6.5C 1666.5,6.50006 1713.17,7.16673 1759.5,8.5 Z"/></g>
<g><path style="opacity:1" fill="#4a596a" d="M 1999.5,99.5 C 1999.5,100.5 1999.5,101.5 1999.5,102.5C 1956.83,102.5 1914.17,102.5 1871.5,102.5C 1871.5,101.5 1871.5,100.5 1871.5,99.5C 1914.17,99.5 1956.83,99.5 1999.5,99.5 Z"/></g>
<g><path style="opacity:1" fill="#495b6c" d="M 1999.5,121.5 C 1999.5,122.5 1999.5,123.5 1999.5,124.5C 1956.83,124.5 1914.17,124.5 1871.5,124.5C 1871.5,123.5 1871.5,122.5 1871.5,121.5C 1914.17,121.5 1956.83,121.5 1999.5,121.5 Z"/></g>
<g><path style="opacity:1" fill="#495a6b" d="M 1999.5,143.5 C 1999.5,144.5 1999.5,145.5 1999.5,146.5C 1956.83,146.5 1914.17,146.5 1871.5,146.5C 1871.5,145.5 1871.5,144.5 1871.5,143.5C 1914.17,143.5 1956.83,143.5 1999.5,143.5 Z"/></g>
<g><path style="opacity:1" fill="#2e3e50" d="M 1999.5,166.5 C 1999.5,167.167 1999.5,167.833 1999.5,168.5C 1828.83,167.833 1828.83,167.167 1999.5,166.5 Z"/></g>
<g><path style="opacity:1" fill="#495a6b" d="M 1999.5,188.5 C 1999.5,189.5 1999.5,190.5 1999.5,191.5C 1956.83,191.5 1914.17,191.5 1871.5,191.5C 1871.5,190.5 1871.5,189.5 1871.5,188.5C 1914.17,188.5 1956.83,188.5 1999.5,188.5 Z"/></g>
<g><path style="opacity:1" fill="#495b6c" d="M 1999.5,210.5 C 1999.5,211.5 1999.5,212.5 1999.5,213.5C 1956.83,213.5 1914.17,213.5 1871.5,213.5C 1871.5,212.5 1871.5,211.5 1871.5,210.5C 1914.17,210.5 1956.83,210.5 1999.5,210.5 Z"/></g>
<g><path style="opacity:1" fill="#4a596a" d="M 1999.5,232.5 C 1999.5,233.5 1999.5,234.5 1999.5,235.5C 1956.83,235.5 1914.17,235.5 1871.5,235.5C 1871.5,234.5 1871.5,233.5 1871.5,232.5C 1914.17,232.5 1956.83,232.5 1999.5,232.5 Z"/></g>
<g><path style="opacity:1" fill="#2e3d4b" d="M 1871.5,255.5 C 1891.84,255.167 1912.18,255.5 1932.5,256.5C 1922.33,256.833 1912.17,257.167 1902,257.5C 1891.48,257.499 1881.31,256.832 1871.5,255.5 Z"/></g>
<g><path style="opacity:1" fill="#505a67" d="M 1842.5,275.5 C 1842.83,275.5 1843.17,275.5 1843.5,275.5C 1846.08,279.76 1849.75,282.426 1854.5,283.5C 1857.62,284.479 1860.96,284.813 1864.5,284.5C 1864.5,286.167 1864.5,287.833 1864.5,289.5C 1867.56,290.28 1869.56,288.947 1870.5,285.5C 1913.28,283.514 1956.28,282.847 1999.5,283.5C 1999.5,284.5 1999.5,285.5 1999.5,286.5C 1957.5,286.333 1915.5,286.5 1873.5,287C 1871.4,290.606 1868.24,292.773 1864,293.5C 1862.72,293.387 1861.89,292.72 1861.5,291.5C 1862.31,289.929 1862.64,288.262 1862.5,286.5C 1858.06,286.79 1853.73,286.29 1849.5,285C 1845.57,282.958 1843.24,279.791 1842.5,275.5 Z"/></g>
<g><path style="opacity:1" fill="#778a9d" d="M 1854.5,283.5 C 1858.17,283.5 1861.83,283.5 1865.5,283.5C 1865.79,285.735 1865.46,287.735 1864.5,289.5C 1864.5,287.833 1864.5,286.167 1864.5,284.5C 1860.96,284.813 1857.62,284.479 1854.5,283.5 Z"/></g>
<g><path style="opacity:1" fill="#47506b" d="M 1999.5,342.5 C 1999.5,343.167 1999.5,343.833 1999.5,344.5C 1968.83,344.333 1938.16,344.5 1907.5,345C 1906.01,346.468 1904.68,347.968 1903.5,349.5C 1903.5,350.833 1902.83,351.5 1901.5,351.5C 1900.7,352.952 1900.2,354.618 1900,356.5C 1899.33,380.167 1899.33,403.833 1900,427.5C 1900.21,429.058 1900.71,430.391 1901.5,431.5C 1903.05,431.821 1903.71,432.821 1903.5,434.5C 1904.85,436.48 1906.85,437.647 1909.5,438C 1913.49,438.499 1917.49,438.666 1921.5,438.5C 1921.5,440.5 1921.5,442.5 1921.5,444.5C 1922.83,444.5 1924.17,444.5 1925.5,444.5C 1924.08,445.451 1922.41,445.784 1920.5,445.5C 1920.5,443.5 1920.5,441.5 1920.5,439.5C 1916.17,439.5 1911.83,439.5 1907.5,439.5C 1905.32,439.16 1903.49,438.16 1902,436.5C 1900.29,434.044 1898.96,431.377 1898,428.5C 1897.33,403.833 1897.33,379.167 1898,354.5C 1899.4,348.764 1902.9,344.931 1908.5,343C 1938.83,342.5 1969.16,342.333 1999.5,342.5 Z"/></g>
<g><path style="opacity:1" fill="#394d95" d="M 1999.5,344.5 C 1999.5,344.833 1999.5,345.167 1999.5,345.5C 1969.16,345.167 1938.83,345.5 1908.5,346.5C 1907.31,348.262 1905.64,349.262 1903.5,349.5C 1904.68,347.968 1906.01,346.468 1907.5,345C 1938.16,344.5 1968.83,344.333 1999.5,344.5 Z"/></g>
<g><path style="opacity:1" fill="#3b63f6" d="M 1999.5,345.5 C 1999.5,352.167 1999.5,358.833 1999.5,365.5C 1973.5,365.333 1947.5,365.5 1921.5,366C 1919.25,367.054 1918.91,368.554 1920.5,370.5C 1946.82,371.5 1973.16,371.833 1999.5,371.5C 1999.5,377.5 1999.5,383.5 1999.5,389.5C 1973.5,389.5 1947.5,389.5 1921.5,389.5C 1921.5,390.5 1921.5,391.5 1921.5,392.5C 1947.5,392.5 1973.5,392.5 1999.5,392.5C 1999.5,398.5 1999.5,404.5 1999.5,410.5C 1997.5,410.5 1995.5,410.5 1993.5,410.5C 1993.5,412.167 1993.5,413.833 1993.5,415.5C 1995.5,415.5 1997.5,415.5 1999.5,415.5C 1999.5,422.5 1999.5,429.5 1999.5,436.5C 1976.5,436.5 1953.5,436.5 1930.5,436.5C 1930.5,435.5 1930.5,434.5 1930.5,433.5C 1929.5,433.5 1928.5,433.5 1927.5,433.5C 1928.76,439.94 1926.76,441.606 1921.5,438.5C 1915.82,436.827 1909.82,435.494 1903.5,434.5C 1903.71,432.821 1903.05,431.821 1901.5,431.5C 1901.5,404.833 1901.5,378.167 1901.5,351.5C 1902.83,351.5 1903.5,350.833 1903.5,349.5C 1905.64,349.262 1907.31,348.262 1908.5,346.5C 1938.83,345.5 1969.16,345.167 1999.5,345.5 Z"/></g>
<g><path style="opacity:1" fill="#4164e4" d="M 1999.5,365.5 C 1999.5,366.167 1999.5,366.833 1999.5,367.5C 1973.5,367.5 1947.5,367.5 1921.5,367.5C 1921.5,368.5 1921.5,369.5 1921.5,370.5C 1947.5,370.5 1973.5,370.5 1999.5,370.5C 1999.5,370.833 1999.5,371.167 1999.5,371.5C 1973.16,371.833 1946.82,371.5 1920.5,370.5C 1918.91,368.554 1919.25,367.054 1921.5,366C 1947.5,365.5 1973.5,365.333 1999.5,365.5 Z"/></g>
<g><path style="opacity:1" fill="#3e57b8" d="M 1901.5,351.5 C 1901.5,378.167 1901.5,404.833 1901.5,431.5C 1900.71,430.391 1900.21,429.058 1900,427.5C 1899.33,403.833 1899.33,380.167 1900,356.5C 1900.2,354.618 1900.7,352.952 1901.5,351.5 Z"/></g>
<g><path style="opacity:1" fill="#bcccf2" d="M 1999.5,367.5 C 1999.5,368.5 1999.5,369.5 1999.5,370.5C 1973.5,370.5 1947.5,370.5 1921.5,370.5C 1921.5,369.5 1921.5,368.5 1921.5,367.5C 1947.5,367.5 1973.5,367.5 1999.5,367.5 Z"/></g>
<g><path style="opacity:1" fill="#c3d5fa" d="M 1999.5,389.5 C 1999.5,390.5 1999.5,391.5 1999.5,392.5C 1973.5,392.5 1947.5,392.5 1921.5,392.5C 1921.5,391.5 1921.5,390.5 1921.5,389.5C 1947.5,389.5 1973.5,389.5 1999.5,389.5 Z"/></g>
<g><path style="opacity:1" fill="#4a67ca" d="M 1999.5,410.5 C 1999.5,411.167 1999.5,411.833 1999.5,412.5C 1992.83,413.167 1992.83,413.833 1999.5,414.5C 1999.5,414.833 1999.5,415.167 1999.5,415.5C 1997.5,415.5 1995.5,415.5 1993.5,415.5C 1993.5,413.833 1993.5,412.167 1993.5,410.5C 1995.5,410.5 1997.5,410.5 1999.5,410.5 Z"/></g>
<g><path style="opacity:1" fill="#ceeaff" d="M 1999.5,412.5 C 1999.5,413.167 1999.5,413.833 1999.5,414.5C 1992.83,413.833 1992.83,413.167 1999.5,412.5 Z"/></g>
<g><path style="opacity:1" fill="#4760d1" d="M 1903.5,434.5 C 1909.82,435.494 1915.82,436.827 1921.5,438.5C 1917.49,438.666 1913.49,438.499 1909.5,438C 1906.85,437.647 1904.85,436.48 1903.5,434.5 Z"/></g>
<g><path style="opacity:1" fill="#4260e4" d="M 1999.5,436.5 C 1999.5,436.833 1999.5,437.167 1999.5,437.5C 1976.16,437.333 1952.83,437.5 1929.5,438C 1928.94,438.383 1928.61,438.883 1928.5,439.5C 1926.72,440.67 1925.72,442.336 1925.5,444.5C 1924.17,444.5 1922.83,444.5 1921.5,444.5C 1921.5,442.5 1921.5,440.5 1921.5,438.5C 1926.76,441.606 1928.76,439.94 1927.5,433.5C 1928.5,433.5 1929.5,433.5 1930.5,433.5C 1930.5,434.5 1930.5,435.5 1930.5,436.5C 1953.5,436.5 1976.5,436.5 1999.5,436.5 Z"/></g>
<g><path style="opacity:1" fill="#4b64c9" d="M 1999.5,437.5 C 1999.5,437.833 1999.5,438.167 1999.5,438.5C 1975.79,438.187 1952.12,438.52 1928.5,439.5C 1928.61,438.883 1928.94,438.383 1929.5,438C 1952.83,437.5 1976.16,437.333 1999.5,437.5 Z"/></g>
<g><path style="opacity:1" fill="#303d5d" d="M 1999.5,438.5 C 1999.5,439.167 1999.5,439.833 1999.5,440.5C 1976.5,440.333 1953.5,440.5 1930.5,441C 1928.08,446.044 1924.08,448.21 1918.5,447.5C 1918.67,445.139 1919.01,442.806 1919.5,440.5C 1915.3,440.817 1911.3,440.483 1907.5,439.5C 1911.83,439.5 1916.17,439.5 1920.5,439.5C 1920.5,441.5 1920.5,443.5 1920.5,445.5C 1922.41,445.784 1924.08,445.451 1925.5,444.5C 1925.72,442.336 1926.72,440.67 1928.5,439.5C 1952.12,438.52 1975.79,438.187 1999.5,438.5 Z"/></g>
<g><path style="opacity:1" fill="#fdfdfd" d="M 1905.5,477.5 C 1923.51,477.167 1941.51,477.5 1959.5,478.5C 1962.35,480.865 1964.18,483.865 1965,487.5C 1965.67,504.167 1965.67,520.833 1965,537.5C 1963.64,540.381 1962.14,543.214 1960.5,546C 1941.83,546.667 1923.17,546.667 1904.5,546C 1903.33,544.167 1901.83,542.667 1900,541.5C 1899.33,522.5 1899.33,503.5 1900,484.5C 1901.67,482.004 1903.5,479.671 1905.5,477.5 Z"/></g>
<g><path style="opacity:1" fill="#414244" d="M 1925.5,518.5 C 1922.38,517.521 1919.04,517.187 1915.5,517.5C 1915.5,513.833 1915.5,510.167 1915.5,506.5C 1919.04,506.813 1922.38,506.479 1925.5,505.5C 1925.5,501.833 1925.5,498.167 1925.5,494.5C 1929.83,494.5 1934.17,494.5 1938.5,494.5C 1938.5,498.167 1938.5,501.833 1938.5,505.5C 1942.17,505.5 1945.83,505.5 1949.5,505.5C 1949.5,509.833 1949.5,514.167 1949.5,518.5C 1945.83,518.5 1942.17,518.5 1938.5,518.5C 1938.5,522.167 1938.5,525.833 1938.5,529.5C 1934.17,529.5 1929.83,529.5 1925.5,529.5C 1925.5,525.833 1925.5,522.167 1925.5,518.5 Z"/></g>
<g><path style="opacity:1" fill="#f7f8f8" d="M 1928.5,496.5 C 1931.17,496.5 1933.83,496.5 1936.5,496.5C 1936.5,500.167 1936.5,503.833 1936.5,507.5C 1940.17,507.5 1943.83,507.5 1947.5,507.5C 1947.5,510.5 1947.5,513.5 1947.5,516.5C 1943.83,516.5 1940.17,516.5 1936.5,516.5C 1936.5,520.167 1936.5,523.833 1936.5,527.5C 1933.83,527.5 1931.17,527.5 1928.5,527.5C 1928.5,523.5 1928.5,519.5 1928.5,515.5C 1924.83,515.5 1921.17,515.5 1917.5,515.5C 1917.5,513.167 1917.5,510.833 1917.5,508.5C 1921.17,508.5 1924.83,508.5 1928.5,508.5C 1928.5,504.5 1928.5,500.5 1928.5,496.5 Z"/></g>
<g><path style="opacity:1" fill="#717172" d="M 1925.5,505.5 C 1922.38,506.479 1919.04,506.813 1915.5,506.5C 1915.5,510.167 1915.5,513.833 1915.5,517.5C 1919.04,517.187 1922.38,517.521 1925.5,518.5C 1921.83,518.5 1918.17,518.5 1914.5,518.5C 1914.5,514.167 1914.5,509.833 1914.5,505.5C 1918.17,505.5 1921.83,505.5 1925.5,505.5 Z"/></g>
<g><path style="opacity:1" fill="#b9babc" d="M 1928.5,496.5 C 1928.5,500.5 1928.5,504.5 1928.5,508.5C 1924.83,508.5 1921.17,508.5 1917.5,508.5C 1917.5,510.833 1917.5,513.167 1917.5,515.5C 1921.17,515.5 1924.83,515.5 1928.5,515.5C 1928.5,519.5 1928.5,523.5 1928.5,527.5C 1927.52,524.038 1927.19,520.371 1927.5,516.5C 1923.83,516.5 1920.17,516.5 1916.5,516.5C 1916.5,513.5 1916.5,510.5 1916.5,507.5C 1920.17,507.5 1923.83,507.5 1927.5,507.5C 1927.19,503.629 1927.52,499.962 1928.5,496.5 Z"/></g>
</svg>
