<?xml version="1.0" encoding="UTF-8"?>
<!DOCTYPE svg PUBLIC "-//W3C//DTD SVG 1.1//EN" "http://www.w3.org/Graphics/SVG/1.1/DTD/svg11.dtd">
<svg xmlns="http://www.w3.org/2000/svg" version="1.1" width="2000px" height="1125px" style="shape-rendering:geometricPrecision; text-rendering:geometricPrecision; image-rendering:optimizeQuality; fill-rule:evenodd; clip-rule:evenodd" xmlns:xlink="http://www.w3.org/1999/xlink">
<g><path style="opacity:1" fill="#edf0f5" d="M -0.5,-0.5 C 38.1667,-0.5 76.8333,-0.5 115.5,-0.5C 115.5,60.5 115.5,121.5 115.5,182.5C 116.5,182.5 117.5,182.5 118.5,182.5C 118.5,121.5 118.5,60.5 118.5,-0.5C 745.5,-0.5 1372.5,-0.5 1999.5,-0.5C 1999.5,374.5 1999.5,749.5 1999.5,1124.5C 1367.83,1124.5 736.167,1124.5 104.5,1124.5C 104.667,1112.16 104.5,1099.83 104,1087.5C 102.095,1081.93 98.2614,1078.43 92.5,1077C 61.5018,1076.5 30.5018,1076.33 -0.5,1076.5C -0.5,1020.17 -0.5,963.833 -0.5,907.5C 28.8333,907.5 58.1667,907.5 87.5,907.5C 87.2291,909.38 87.8958,910.713 89.5,911.5C 91.78,913.223 94.4467,913.889 97.5,913.5C 97.5,911.5 97.5,909.5 97.5,907.5C 107.259,908.876 114.092,905.209 118,896.5C 118.832,799.332 118.666,702.332 117.5,605.5C 117.5,604.833 117.167,604.5 116.5,604.5C 114.757,600.611 111.757,598.111 107.5,597C 71.5015,596.5 35.5015,596.333 -0.5,596.5C -0.5,397.5 -0.5,198.5 -0.5,-0.5 Z"/></g>
<g><path style="opacity:1" fill="#575a5f" d="M 115.5,-0.5 C 116.5,-0.5 117.5,-0.5 118.5,-0.5C 118.5,60.5 118.5,121.5 118.5,182.5C 117.5,182.5 116.5,182.5 115.5,182.5C 115.5,121.5 115.5,60.5 115.5,-0.5 Z"/></g>
<g><path style="opacity:1" fill="#434867" d="M -0.5,596.5 C 35.5015,596.333 71.5015,596.5 107.5,597C 111.757,598.111 114.757,600.611 116.5,604.5C 115.833,604.167 115.167,603.833 114.5,603.5C 112.947,601.615 110.947,600.615 108.5,600.5C 107.737,599.732 106.737,599.232 105.5,599C 70.1682,598.5 34.8349,598.333 -0.5,598.5C -0.5,597.833 -0.5,597.167 -0.5,596.5 Z"/></g>
<g><path style="opacity:1" fill="#425ac2" d="M -0.5,598.5 C 34.8349,598.333 70.1682,598.5 105.5,599C 106.737,599.232 107.737,599.732 108.5,600.5C 72.1667,600.5 35.8333,600.5 -0.5,600.5C -0.5,599.833 -0.5,599.167 -0.5,598.5 Z"/></g>
<g><path style="opacity:1" fill="#3c62f6" d="M -0.5,600.5 C 35.8333,600.5 72.1667,600.5 108.5,600.5C 110.947,600.615 112.947,601.615 114.5,603.5C 114.5,604.167 114.5,604.833 114.5,605.5C 115.491,702.145 115.824,798.811 115.5,895.5C 114.533,896.806 113.199,897.473 111.5,897.5C 111.719,898.675 111.386,899.675 110.5,900.5C 107.601,901.642 104.601,902.308 101.5,902.5C 101.662,900.473 101.495,898.473 101,896.5C 99.3034,900.083 97.1367,900.416 94.5,897.5C 93.6143,898.325 93.281,899.325 93.5,900.5C 91.3352,900.116 89.6685,900.783 88.5,902.5C 58.8408,903.5 29.1742,903.833 -0.5,903.5C -0.5,887.833 -0.5,872.167 -0.5,856.5C 28.8333,856.5 58.1667,856.5 87.5,856.5C 88.404,855.791 88.7373,854.791 88.5,853.5C 58.8333,853.5 29.1667,853.5 -0.5,853.5C -0.5,848.833 -0.5,844.167 -0.5,839.5C 24.6113,839.688 49.9447,840.021 75.5,840.5C 75.7637,838.502 77.097,836.835 79.5,835.5C 82.5,835.167 83.8333,836.5 83.5,839.5C 78.234,840.134 78.234,840.801 83.5,841.5C 87.4195,842.253 88.7529,840.92 87.5,837.5C 88.7113,836.126 89.7113,834.626 90.5,833C 90.2409,831.739 89.5742,830.739 88.5,830C 58.8352,829.5 29.1685,829.333 -0.5,829.5C -0.5,823.5 -0.5,817.5 -0.5,811.5C 118.167,810.833 118.167,810.167 -0.5,809.5C -0.5,807.167 -0.5,804.833 -0.5,802.5C 31.5178,802.789 63.5178,802.455 95.5,801.5C 95.5,800.167 95.5,798.833 95.5,797.5C 63.5178,796.545 31.5178,796.211 -0.5,796.5C -0.5,794.167 -0.5,791.833 -0.5,789.5C 118.167,788.833 118.167,788.167 -0.5,787.5C -0.5,781.5 -0.5,775.5 -0.5,769.5C 29.1685,769.667 58.8352,769.5 88.5,769C 91.4983,765.182 90.4983,763.016 85.5,762.5C 56.8518,763.476 28.1851,763.809 -0.5,763.5C -0.5,757.833 -0.5,752.167 -0.5,746.5C 29.5019,746.667 59.5019,746.5 89.5,746C 90.985,744.244 90.6516,743.077 88.5,742.5C 58.8333,742.5 29.1667,742.5 -0.5,742.5C -0.5,736.167 -0.5,729.833 -0.5,723.5C 29.1667,723.5 58.8333,723.5 88.5,723.5C 88.5,722.5 88.5,721.5 88.5,720.5C 58.8333,720.5 29.1667,720.5 -0.5,720.5C -0.5,714.5 -0.5,708.5 -0.5,702.5C 28.8352,702.667 58.1686,702.5 87.5,702C 89.6576,700.688 89.9909,699.022 88.5,697C 58.8352,696.5 29.1685,696.333 -0.5,696.5C -0.5,691.167 -0.5,685.833 -0.5,680.5C 27.5,680.5 55.5,680.5 83.5,680.5C 83.5,682.167 83.5,683.833 83.5,685.5C 85.1992,685.66 86.8659,685.494 88.5,685C 87.6721,684.085 86.6721,683.419 85.5,683C 87.8203,679.183 91.1537,676.683 95.5,675.5C 63.5069,674.5 31.5069,674.167 -0.5,674.5C -0.5,669.167 -0.5,663.833 -0.5,658.5C 29.5019,658.667 59.5019,658.5 89.5,658C 92.0026,656.451 92.0026,654.784 89.5,653C 59.5019,652.5 29.5019,652.333 -0.5,652.5C -0.5,646.833 -0.5,641.167 -0.5,635.5C 29.5019,635.667 59.5019,635.5 89.5,635C 90.985,633.244 90.6516,632.077 88.5,631.5C 58.8333,631.5 29.1667,631.5 -0.5,631.5C -0.5,621.167 -0.5,610.833 -0.5,600.5 Z"/></g>
<g><path style="opacity:1" fill="#4666d7" d="M 114.5,605.5 C 115.222,605.918 115.722,606.584 116,607.5C 116.5,703.499 116.667,799.499 116.5,895.5C 116.167,895.5 115.833,895.5 115.5,895.5C 115.824,798.811 115.491,702.145 114.5,605.5 Z"/></g>
<g><path style="opacity:1" fill="#2d4286" d="M 114.5,603.5 C 115.167,603.833 115.833,604.167 116.5,604.5C 117.167,604.5 117.5,604.833 117.5,605.5C 117.833,702.335 117.499,799.001 116.5,895.5C 116.667,799.499 116.5,703.499 116,607.5C 115.722,606.584 115.222,605.918 114.5,605.5C 114.5,604.833 114.5,604.167 114.5,603.5 Z"/></g>
<g><path style="opacity:1" fill="#333d5b" d="M 117.5,605.5 C 118.666,702.332 118.832,799.332 118,896.5C 114.092,905.209 107.259,908.876 97.5,907.5C 97.5,909.5 97.5,911.5 97.5,913.5C 94.4467,913.889 91.78,913.223 89.5,911.5C 89.5,910.833 89.5,910.167 89.5,909.5C 90.1667,909.5 90.8333,909.5 91.5,909.5C 92.1834,911.176 93.5168,911.843 95.5,911.5C 95.5,909.5 95.5,907.5 95.5,905.5C 100.186,904.76 105.02,904.093 110,903.5C 112.876,901.473 114.709,898.806 115.5,895.5C 115.833,895.5 116.167,895.5 116.5,895.5C 117.499,799.001 117.833,702.335 117.5,605.5 Z"/></g>
<g><path style="opacity:1" fill="#bacbfc" d="M -0.5,631.5 C 29.1667,631.5 58.8333,631.5 88.5,631.5C 88.5,632.5 88.5,633.5 88.5,634.5C 58.8333,634.5 29.1667,634.5 -0.5,634.5C -0.5,633.5 -0.5,632.5 -0.5,631.5 Z"/></g>
<g><path style="opacity:1" fill="#4264e2" d="M 88.5,631.5 C 90.6516,632.077 90.985,633.244 89.5,635C 59.5019,635.5 29.5019,635.667 -0.5,635.5C -0.5,635.167 -0.5,634.833 -0.5,634.5C 29.1667,634.5 58.8333,634.5 88.5,634.5C 88.5,633.5 88.5,632.5 88.5,631.5 Z"/></g>
<g><path style="opacity:1" fill="#98aff2" d="M -0.5,654.5 C -0.5,654.167 -0.5,653.833 -0.5,653.5C 29.1667,653.5 58.8333,653.5 88.5,653.5C 88.7373,654.791 88.404,655.791 87.5,656.5C 58.519,654.508 29.1857,653.841 -0.5,654.5 Z"/></g>
<g><path style="opacity:1" fill="#bed7ff" d="M -0.5,654.5 C 29.1857,653.841 58.519,654.508 87.5,656.5C 58.1667,656.5 28.8333,656.5 -0.5,656.5C -0.5,655.833 -0.5,655.167 -0.5,654.5 Z"/></g>
<g><path style="opacity:1" fill="#4563de" d="M -0.5,653.5 C -0.5,653.167 -0.5,652.833 -0.5,652.5C 29.5019,652.333 59.5019,652.5 89.5,653C 92.0026,654.784 92.0026,656.451 89.5,658C 59.5019,658.5 29.5019,658.667 -0.5,658.5C -0.5,657.833 -0.5,657.167 -0.5,656.5C 28.8333,656.5 58.1667,656.5 87.5,656.5C 88.404,655.791 88.7373,654.791 88.5,653.5C 58.8333,653.5 29.1667,653.5 -0.5,653.5 Z"/></g>
<g><path style="opacity:1" fill="#b9caf9" d="M -0.5,675.5 C 29.1667,675.5 58.8333,675.5 88.5,675.5C 88.5,676.5 88.5,677.5 88.5,678.5C 58.8333,678.5 29.1667,678.5 -0.5,678.5C -0.5,677.5 -0.5,676.5 -0.5,675.5 Z"/></g>
<g><path style="opacity:1" fill="#4263de" d="M -0.5,675.5 C -0.5,675.167 -0.5,674.833 -0.5,674.5C 31.5069,674.167 63.5069,674.5 95.5,675.5C 91.1537,676.683 87.8203,679.183 85.5,683C 86.6721,683.419 87.6721,684.085 88.5,685C 86.8659,685.494 85.1992,685.66 83.5,685.5C 83.5,683.833 83.5,682.167 83.5,680.5C 55.5,680.5 27.5,680.5 -0.5,680.5C -0.5,679.833 -0.5,679.167 -0.5,678.5C 29.1667,678.5 58.8333,678.5 88.5,678.5C 88.5,677.5 88.5,676.5 88.5,675.5C 58.8333,675.5 29.1667,675.5 -0.5,675.5 Z"/></g>
<g><path style="opacity:1" fill="#4765cd" d="M -0.5,696.5 C 29.1685,696.333 58.8352,696.5 88.5,697C 89.9909,699.022 89.6576,700.688 87.5,702C 58.1686,702.5 28.8352,702.667 -0.5,702.5C -0.5,701.833 -0.5,701.167 -0.5,700.5C 118.167,699.833 118.167,699.167 -0.5,698.5C -0.5,697.833 -0.5,697.167 -0.5,696.5 Z"/></g>
<g><path style="opacity:1" fill="#d7ebff" d="M -0.5,698.5 C 118.167,699.167 118.167,699.833 -0.5,700.5C -0.5,699.833 -0.5,699.167 -0.5,698.5 Z"/></g>
<g><path style="opacity:1" fill="#b1c5f5" d="M -0.5,720.5 C 29.1667,720.5 58.8333,720.5 88.5,720.5C 88.5,721.5 88.5,722.5 88.5,723.5C 58.8333,723.5 29.1667,723.5 -0.5,723.5C -0.5,722.5 -0.5,721.5 -0.5,720.5 Z"/></g>
<g><path style="opacity:1" fill="#b1c5f5" d="M -0.5,742.5 C 29.1667,742.5 58.8333,742.5 88.5,742.5C 88.5,743.5 88.5,744.5 88.5,745.5C 58.8333,745.5 29.1667,745.5 -0.5,745.5C -0.5,744.5 -0.5,743.5 -0.5,742.5 Z"/></g>
<g><path style="opacity:1" fill="#4365d5" d="M 88.5,742.5 C 90.6516,743.077 90.985,744.244 89.5,746C 59.5019,746.5 29.5019,746.667 -0.5,746.5C -0.5,746.167 -0.5,745.833 -0.5,745.5C 29.1667,745.5 58.8333,745.5 88.5,745.5C 88.5,744.5 88.5,743.5 88.5,742.5 Z"/></g>
<g><path style="opacity:1" fill="#93abfe" d="M -0.5,765.5 C -0.5,765.167 -0.5,764.833 -0.5,764.5C 29.1667,764.5 58.8333,764.5 88.5,764.5C 88.7373,765.791 88.404,766.791 87.5,767.5C 58.519,765.508 29.1857,764.841 -0.5,765.5 Z"/></g>
<g><path style="opacity:1" fill="#c8d7ed" d="M -0.5,765.5 C 29.1857,764.841 58.519,765.508 87.5,767.5C 58.1667,767.5 28.8333,767.5 -0.5,767.5C -0.5,766.833 -0.5,766.167 -0.5,765.5 Z"/></g>
<g><path style="opacity:1" fill="#4064e6" d="M -0.5,769.5 C -0.5,768.833 -0.5,768.167 -0.5,767.5C 28.8333,767.5 58.1667,767.5 87.5,767.5C 88.404,766.791 88.7373,765.791 88.5,764.5C 58.8333,764.5 29.1667,764.5 -0.5,764.5C -0.5,764.167 -0.5,763.833 -0.5,763.5C 28.1851,763.809 56.8518,763.476 85.5,762.5C 90.4983,763.016 91.4983,765.182 88.5,769C 58.8352,769.5 29.1685,769.667 -0.5,769.5 Z"/></g>
<g><path style="opacity:1" fill="#dfeeff" d="M -0.5,787.5 C 118.167,788.167 118.167,788.833 -0.5,789.5C -0.5,788.833 -0.5,788.167 -0.5,787.5 Z"/></g>
<g><path style="opacity:1" fill="#3d63f1" d="M -0.5,796.5 C 31.5178,796.211 63.5178,796.545 95.5,797.5C 95.5,798.833 95.5,800.167 95.5,801.5C 63.5178,802.455 31.5178,802.789 -0.5,802.5C -0.5,801.833 -0.5,801.167 -0.5,800.5C 110.167,799.833 110.167,799.167 -0.5,798.5C -0.5,797.833 -0.5,797.167 -0.5,796.5 Z"/></g>
<g><path style="opacity:1" fill="#3b61fe" d="M -0.5,798.5 C 110.167,799.167 110.167,799.833 -0.5,800.5C -0.5,799.833 -0.5,799.167 -0.5,798.5 Z"/></g>
<g><path style="opacity:1" fill="#dfeeff" d="M -0.5,809.5 C 118.167,810.167 118.167,810.833 -0.5,811.5C -0.5,810.833 -0.5,810.167 -0.5,809.5 Z"/></g>
<g><path style="opacity:1" fill="#4064e7" d="M -0.5,829.5 C 29.1685,829.333 58.8352,829.5 88.5,830C 89.5742,830.739 90.2409,831.739 90.5,833C 89.7113,834.626 88.7113,836.126 87.5,837.5C 88.7529,840.92 87.4195,842.253 83.5,841.5C 78.234,840.801 78.234,840.134 83.5,839.5C 83.8333,836.5 82.5,835.167 79.5,835.5C 52.8333,835.5 26.1667,835.5 -0.5,835.5C -0.5,835.167 -0.5,834.833 -0.5,834.5C 29.1667,834.5 58.8333,834.5 88.5,834.5C 88.7373,833.209 88.404,832.209 87.5,831.5C 58.1667,831.5 28.8333,831.5 -0.5,831.5C -0.5,830.833 -0.5,830.167 -0.5,829.5 Z"/></g>
<g><path style="opacity:1" fill="#d2e2f6" d="M -0.5,831.5 C 28.8333,831.5 58.1667,831.5 87.5,831.5C 58.519,833.492 29.1857,834.159 -0.5,833.5C -0.5,832.833 -0.5,832.167 -0.5,831.5 Z"/></g>
<g><path style="opacity:1" fill="#93acfe" d="M 87.5,831.5 C 88.404,832.209 88.7373,833.209 88.5,834.5C 58.8333,834.5 29.1667,834.5 -0.5,834.5C -0.5,834.167 -0.5,833.833 -0.5,833.5C 29.1857,834.159 58.519,833.492 87.5,831.5 Z"/></g>
<g><path style="opacity:1" fill="#3c63f2" d="M -0.5,835.5 C 26.1667,835.5 52.8333,835.5 79.5,835.5C 77.097,836.835 75.7637,838.502 75.5,840.5C 49.9447,840.021 24.6113,839.688 -0.5,839.5C -0.5,838.167 -0.5,836.833 -0.5,835.5 Z"/></g>
<g><path style="opacity:1" fill="#99afeb" d="M -0.5,854.5 C -0.5,854.167 -0.5,853.833 -0.5,853.5C 29.1667,853.5 58.8333,853.5 88.5,853.5C 88.7373,854.791 88.404,855.791 87.5,856.5C 58.519,854.508 29.1857,853.841 -0.5,854.5 Z"/></g>
<g><path style="opacity:1" fill="#c2d5ff" d="M -0.5,854.5 C 29.1857,853.841 58.519,854.508 87.5,856.5C 58.1667,856.5 28.8333,856.5 -0.5,856.5C -0.5,855.833 -0.5,855.167 -0.5,854.5 Z"/></g>
<g><path style="opacity:1" fill="#b6cafa" d="M 88.5,875.5 C 88.7373,876.791 88.404,877.791 87.5,878.5C 67.1667,878.5 46.8333,878.5 26.5,878.5C 26.5,877.5 26.5,876.5 26.5,875.5C 47.1667,875.5 67.8333,875.5 88.5,875.5 Z"/></g>
<g><path style="opacity:1" fill="#4464cb" d="M 88.5,875.5 C 67.8333,875.5 47.1667,875.5 26.5,875.5C 26.5,876.5 26.5,877.5 26.5,878.5C 46.8333,878.5 67.1667,878.5 87.5,878.5C 67.0041,879.663 46.3374,879.829 25.5,879C 23.8934,877.951 23.2267,876.451 23.5,874.5C 45.3398,874.169 67.0064,874.503 88.5,875.5 Z"/></g>
<g><path style="opacity:1" fill="#3f5ed4" d="M 115.5,895.5 C 114.709,898.806 112.876,901.473 110,903.5C 105.02,904.093 100.186,904.76 95.5,905.5C 94.1667,906.833 92.8333,908.167 91.5,909.5C 90.8333,909.5 90.1667,909.5 89.5,909.5C 89.5,908.167 89.5,906.833 89.5,905.5C 59.5,905.5 29.5,905.5 -0.5,905.5C -0.5,904.833 -0.5,904.167 -0.5,903.5C 29.1742,903.833 58.8408,903.5 88.5,902.5C 89.6685,900.783 91.3352,900.116 93.5,900.5C 93.281,899.325 93.6143,898.325 94.5,897.5C 97.1367,900.416 99.3034,900.083 101,896.5C 101.495,898.473 101.662,900.473 101.5,902.5C 104.601,902.308 107.601,901.642 110.5,900.5C 111.386,899.675 111.719,898.675 111.5,897.5C 113.199,897.473 114.533,896.806 115.5,895.5 Z"/></g>
<g><path style="opacity:1" fill="#2c3c5f" d="M -0.5,906.5 C -0.5,906.167 -0.5,905.833 -0.5,905.5C 29.5,905.5 59.5,905.5 89.5,905.5C 89.5,906.833 89.5,908.167 89.5,909.5C 88.596,908.791 88.2627,907.791 88.5,906.5C 58.8333,906.5 29.1667,906.5 -0.5,906.5 Z"/></g>
<g><path style="opacity:1" fill="#5f686e" d="M -0.5,907.5 C -0.5,907.167 -0.5,906.833 -0.5,906.5C 29.1667,906.5 58.8333,906.5 88.5,906.5C 88.2627,907.791 88.596,908.791 89.5,909.5C 89.5,910.167 89.5,910.833 89.5,911.5C 87.8958,910.713 87.2291,909.38 87.5,907.5C 58.1667,907.5 28.8333,907.5 -0.5,907.5 Z"/></g>
<g><path style="opacity:1" fill="#3a52ae" d="M 95.5,905.5 C 95.5,907.5 95.5,909.5 95.5,911.5C 93.5168,911.843 92.1834,911.176 91.5,909.5C 92.8333,908.167 94.1667,906.833 95.5,905.5 Z"/></g>
<g><path style="opacity:1" fill="#fefefe" d="M 59.5,962.5 C 76.17,962.333 92.8367,962.5 109.5,963C 112.196,963.69 114.363,965.19 116,967.5C 117.64,986.076 117.974,1004.74 117,1023.5C 115.859,1025.61 114.359,1027.44 112.5,1029C 94.8995,1030.63 77.2328,1030.96 59.5,1030C 56.0629,1028.9 53.5629,1026.73 52,1023.5C 51.3333,1005.83 51.3333,988.167 52,970.5C 52.3333,969.5 52.6667,968.5 53,967.5C 55.3256,965.934 57.4922,964.268 59.5,962.5 Z"/></g>
<g><path style="opacity:1" fill="#3c4855" d="M 160.5,961.5 C 266.834,961.333 373.167,961.5 479.5,962C 484.757,964.256 488.257,968.09 490,973.5C 490.667,1002.5 490.667,1031.5 490,1060.5C 486.119,1070.19 478.952,1074.19 468.5,1072.5C 468.674,1074.86 469.007,1077.19 469.5,1079.5C 463.588,1080.39 459.921,1078.06 458.5,1072.5C 359.166,1072.67 259.833,1072.5 160.5,1072C 155.243,1069.74 151.743,1065.91 150,1060.5C 149.333,1031.5 149.333,1002.5 150,973.5C 151.936,968.068 155.436,964.068 160.5,961.5 Z"/></g>
<g><path style="opacity:1" fill="#c0e1fe" d="M 477.5,964.5 C 481.912,965.07 485.078,967.403 487,971.5C 487.667,1001.5 487.667,1031.5 487,1061.5C 485.895,1064.94 483.728,1067.44 480.5,1069C 475.599,1070.33 470.599,1070.83 465.5,1070.5C 465.5,1072.5 465.5,1074.5 465.5,1076.5C 461.867,1076.2 459.867,1074.2 459.5,1070.5C 458.192,1069.77 456.858,1068.93 455.5,1068C 356.189,1067.97 257.189,1067.3 158.5,1066C 158.833,1065.67 159.167,1065.33 159.5,1065C 158.642,1063.43 157.975,1061.76 157.5,1060C 155.976,1058.81 154.81,1057.31 154,1055.5C 153.333,1028.83 153.333,1002.17 154,975.5C 154.412,973.003 155.578,971.003 157.5,969.5C 158.308,969.808 158.975,970.308 159.5,971C 163.373,971.27 167.206,971.77 171,972.5C 172.548,971.316 174.048,971.483 175.5,973C 271.499,973.5 367.499,973.667 463.5,973.5C 463.99,971.052 463.157,969.385 461,968.5C 361.061,969.108 260.561,969.441 159.5,969.5C 159.089,966.724 159.922,966.057 162,967.5C 163.468,966.372 165.135,965.706 167,965.5C 262.906,966.26 358.739,966.593 454.5,966.5C 455.795,965.902 457.128,965.402 458.5,965C 464.825,964.5 471.158,964.334 477.5,964.5 Z"/></g>
<g><path style="opacity:1" fill="#c0dcf7" d="M 477.5,964.5 C 471.158,964.334 464.825,964.5 458.5,965C 457.128,965.402 455.795,965.902 454.5,966.5C 358.739,966.593 262.906,966.26 167,965.5C 165.135,965.706 163.468,966.372 162,967.5C 159.922,966.057 159.089,966.724 159.5,969.5C 260.561,969.441 361.061,969.108 461,968.5C 463.157,969.385 463.99,971.052 463.5,973.5C 367.499,973.667 271.499,973.5 175.5,973C 174.048,971.483 172.548,971.316 171,972.5C 167.206,971.77 163.373,971.27 159.5,971C 158.975,970.308 158.308,969.808 157.5,969.5C 155.578,971.003 154.412,973.003 154,975.5C 153.333,1002.17 153.333,1028.83 154,1055.5C 154.81,1057.31 155.976,1058.81 157.5,1060C 157.975,1061.76 158.642,1063.43 159.5,1065C 159.167,1065.33 158.833,1065.67 158.5,1066C 257.189,1067.3 356.189,1067.97 455.5,1068C 456.858,1068.93 458.192,1069.77 459.5,1070.5C 360.166,1070.67 260.833,1070.5 161.5,1070C 157.333,1068.5 154.5,1065.67 153,1061.5C 152.333,1031.5 152.333,1001.5 153,971.5C 154.892,967.942 157.725,965.442 161.5,964C 267.001,963.167 372.334,963.334 477.5,964.5 Z"/></g>
<g><path style="opacity:1" fill="#939598" d="M 78.5,989.5 C 75.0381,990.482 71.3714,990.815 67.5,990.5C 67.5,994.5 67.5,998.5 67.5,1002.5C 66.5151,998.366 66.1818,994.032 66.5,989.5C 70.5,989.5 74.5,989.5 78.5,989.5 Z"/></g>
<g><path style="opacity:1" fill="#49596a" d="M 179.5,991.5 C 273.167,991.5 366.833,991.5 460.5,991.5C 460.5,992.5 460.5,993.5 460.5,994.5C 366.833,994.5 273.167,994.5 179.5,994.5C 179.5,993.5 179.5,992.5 179.5,991.5 Z"/></g>
<g><path style="opacity:1" fill="#4b4c4e" d="M 78.5,979.5 C 82.5,979.5 86.5,979.5 90.5,979.5C 90.5,983.167 90.5,986.833 90.5,990.5C 94.1667,990.5 97.8333,990.5 101.5,990.5C 101.5,994.5 101.5,998.5 101.5,1002.5C 97.8333,1002.5 94.1667,1002.5 90.5,1002.5C 90.5,1006.17 90.5,1009.83 90.5,1013.5C 86.5,1013.5 82.5,1013.5 78.5,1013.5C 78.5,1009.83 78.5,1006.17 78.5,1002.5C 74.8333,1002.5 71.1667,1002.5 67.5,1002.5C 67.5,998.5 67.5,994.5 67.5,990.5C 71.3714,990.815 75.0381,990.482 78.5,989.5C 78.5,986.167 78.5,982.833 78.5,979.5 Z"/></g>
<g><path style="opacity:1" fill="#fcfdfd" d="M 99.5,1000.5 C 95.8333,1000.5 92.1667,1000.5 88.5,1000.5C 88.5,1004.17 88.5,1007.83 88.5,1011.5C 85.8333,1011.5 83.1667,1011.5 80.5,1011.5C 80.5,1007.83 80.5,1004.17 80.5,1000.5C 76.8333,1000.5 73.1667,1000.5 69.5,1000.5C 69.5,997.833 69.5,995.167 69.5,992.5C 73.1667,992.5 76.8333,992.5 80.5,992.5C 80.5,988.833 80.5,985.167 80.5,981.5C 83.1667,981.5 85.8333,981.5 88.5,981.5C 88.5,985.167 88.5,988.833 88.5,992.5C 92.1667,992.5 95.8333,992.5 99.5,992.5C 99.5,995.167 99.5,997.833 99.5,1000.5 Z"/></g>
<g><path style="opacity:1" fill="#6f7172" d="M 99.5,1000.5 C 96.3752,1001.48 93.0419,1001.81 89.5,1001.5C 89.8128,1005.04 89.4794,1008.38 88.5,1011.5C 88.5,1007.83 88.5,1004.17 88.5,1000.5C 92.1667,1000.5 95.8333,1000.5 99.5,1000.5 Z"/></g>
<g><path style="opacity:1" fill="#999a9c" d="M 78.5,979.5 C 82.6344,978.515 86.9677,978.182 91.5,978.5C 91.5,982.167 91.5,985.833 91.5,989.5C 95.1667,989.5 98.8333,989.5 102.5,989.5C 102.5,994.167 102.5,998.833 102.5,1003.5C 98.8333,1003.5 95.1667,1003.5 91.5,1003.5C 91.5,1007.17 91.5,1010.83 91.5,1014.5C 86.8333,1014.5 82.1667,1014.5 77.5,1014.5C 77.5,1010.83 77.5,1007.17 77.5,1003.5C 73.9581,1003.81 70.6248,1003.48 67.5,1002.5C 71.1667,1002.5 74.8333,1002.5 78.5,1002.5C 78.5,1006.17 78.5,1009.83 78.5,1013.5C 82.5,1013.5 86.5,1013.5 90.5,1013.5C 90.5,1009.83 90.5,1006.17 90.5,1002.5C 94.1667,1002.5 97.8333,1002.5 101.5,1002.5C 101.5,998.5 101.5,994.5 101.5,990.5C 97.8333,990.5 94.1667,990.5 90.5,990.5C 90.5,986.833 90.5,983.167 90.5,979.5C 86.5,979.5 82.5,979.5 78.5,979.5 Z"/></g>
<g><path style="opacity:1" fill="#c5e1f9" d="M 457.5,1013.5 C 364.833,1013.5 272.167,1013.5 179.5,1013.5C 179.5,1014.5 179.5,1015.5 179.5,1016.5C 273.167,1016.5 366.833,1016.5 460.5,1016.5C 460.5,1015.5 460.5,1014.5 460.5,1013.5C 461.077,1012.23 461.743,1012.23 462.5,1013.5C 463.246,1014.74 463.579,1016.07 463.5,1017.5C 370.181,1018.32 276.848,1018.82 183.5,1019C 181.776,1019.45 181.109,1020.28 181.5,1021.5C 180.376,1020.09 179.376,1018.59 178.5,1017C 177.552,1016.52 176.552,1016.35 175.5,1016.5C 175.22,1013.61 176.553,1012.11 179.5,1012C 178.5,1011.67 177.5,1011.33 176.5,1011C 181.223,1010.38 185.89,1010.71 190.5,1012C 279.668,1012.17 368.668,1012.67 457.5,1013.5 Z"/></g>
<g><path style="opacity:1" fill="#485a6a" d="M 457.5,1013.5 C 458.5,1013.5 459.5,1013.5 460.5,1013.5C 460.5,1014.5 460.5,1015.5 460.5,1016.5C 366.833,1016.5 273.167,1016.5 179.5,1016.5C 179.5,1015.5 179.5,1014.5 179.5,1013.5C 272.167,1013.5 364.833,1013.5 457.5,1013.5 Z"/></g>
<g><path style="opacity:1" fill="#c9def3" d="M 320.5,1034.5 C 367.476,1035.78 414.309,1035.78 461,1034.5C 461.494,1036.13 461.66,1037.8 461.5,1039.5C 414.167,1039.5 366.833,1039.5 319.5,1039.5C 319.366,1037.71 319.699,1036.04 320.5,1034.5 Z"/></g>
<g><path style="opacity:1" fill="#2b3e53" d="M 320.5,1036.5 C 367.171,1036.17 413.838,1036.5 460.5,1037.5C 437.167,1037.83 413.833,1038.17 390.5,1038.5C 366.824,1038.5 343.49,1037.83 320.5,1036.5 Z"/></g>
<g><path style="opacity:1" fill="#52555c" d="M -0.5,1076.5 C 30.5018,1076.33 61.5018,1076.5 92.5,1077C 98.2614,1078.43 102.095,1081.93 104,1087.5C 104.5,1099.83 104.667,1112.16 104.5,1124.5C 103.5,1124.5 102.5,1124.5 101.5,1124.5C 101.667,1111.83 101.5,1099.16 101,1086.5C 99.8589,1084.39 98.3589,1082.56 96.5,1081C 64.2292,1079.52 31.8958,1079.02 -0.5,1079.5C -0.5,1078.5 -0.5,1077.5 -0.5,1076.5 Z"/></g>
<g><path style="opacity:1" fill="#9ca1a8" d="M -0.5,1079.5 C 31.8958,1079.02 64.2292,1079.52 96.5,1081C 98.3589,1082.56 99.8589,1084.39 101,1086.5C 101.5,1099.16 101.667,1111.83 101.5,1124.5C 67.5,1124.5 33.5,1124.5 -0.5,1124.5C -0.5,1118.17 -0.5,1111.83 -0.5,1105.5C 108.833,1104.83 108.833,1104.17 -0.5,1103.5C -0.5,1095.5 -0.5,1087.5 -0.5,1079.5 Z"/></g>
<g><path style="opacity:1" fill="#373c42" d="M -0.5,1103.5 C 108.833,1104.17 108.833,1104.83 -0.5,1105.5C -0.5,1104.83 -0.5,1104.17 -0.5,1103.5 Z"/></g>
</svg>
