<?xml version="1.0" encoding="UTF-8"?>
<!DOCTYPE svg PUBLIC "-//W3C//DTD SVG 1.1//EN" "http://www.w3.org/Graphics/SVG/1.1/DTD/svg11.dtd">
<svg xmlns="http://www.w3.org/2000/svg" version="1.1" width="2000px" height="1125px" style="shape-rendering:geometricPrecision; text-rendering:geometricPrecision; image-rendering:optimizeQuality; fill-rule:evenodd; clip-rule:evenodd" xmlns:xlink="http://www.w3.org/1999/xlink">
<g><path style="opacity:1" fill="#eef0f5" d="M -0.5,-0.5 C 666.167,-0.5 1332.83,-0.5 1999.5,-0.5C 1999.5,374.5 1999.5,749.5 1999.5,1124.5C 1332.83,1124.5 666.167,1124.5 -0.5,1124.5C -0.5,749.5 -0.5,374.5 -0.5,-0.5 Z"/></g>
<g><path style="opacity:1" fill="#fcfcfc" d="M 1681.5,49.5 C 1698.17,49.3334 1714.84,49.5001 1731.5,50C 1733.22,50.346 1734.88,50.846 1736.5,51.5C 1737.5,53.1667 1738.83,54.5 1740.5,55.5C 1741.67,73.1572 1741.83,90.8239 1741,108.5C 1740.17,111.832 1738.34,114.499 1735.5,116.5C 1717.51,117.666 1699.51,117.833 1681.5,117C 1679.81,115.595 1677.98,114.428 1676,113.5C 1674.39,94.8856 1674.05,76.2189 1675,57.5C 1677.03,54.6447 1679.2,51.978 1681.5,49.5 Z"/></g>
<g><path style="opacity:1" fill="#fdfefd" d="M 1775.5,49.5 C 1792.17,49.3334 1808.84,49.5001 1825.5,50C 1830.34,50.1394 1833.17,52.6394 1834,57.5C 1834.67,74.8333 1834.67,92.1667 1834,109.5C 1833.49,112.85 1831.65,115.184 1828.5,116.5C 1810.27,117.825 1792.1,117.825 1774,116.5C 1772.71,114.208 1771.04,112.208 1769,110.5C 1768.33,92.1667 1768.33,73.8333 1769,55.5C 1771.06,53.2659 1773.23,51.2659 1775.5,49.5 Z"/></g>
<g><path style="opacity:1" fill="#fdfdfd" d="M 1870.5,49.5 C 1886.84,49.3334 1903.17,49.5001 1919.5,50C 1923.5,50.6678 1926.33,52.8345 1928,56.5C 1928.67,74.5 1928.67,92.5 1928,110.5C 1926.7,114.301 1924.2,116.968 1920.5,118.5C 1902.19,117.793 1883.85,117.127 1865.5,116.5C 1865.43,113.916 1864.26,111.916 1862,110.5C 1861.17,92.1576 1861.33,73.8242 1862.5,55.5C 1864.67,52.6447 1867.33,50.6447 1870.5,49.5 Z"/></g>
<g><path style="opacity:1" fill="#4b4d4e" d="M 1702.5,67.5 C 1713.13,66.1562 1722.13,69.3228 1729.5,77C 1728.5,77.6667 1727.5,77.6667 1726.5,77C 1713.7,66.844 1701.04,67.0107 1688.5,77.5C 1687.72,75.6707 1688.38,74.1707 1690.5,73C 1694.23,70.2986 1698.23,68.4653 1702.5,67.5 Z"/></g>
<g><path style="opacity:1" fill="#535357" d="M 1808.5,77.5 C 1812.17,77.5 1815.83,77.5 1819.5,77.5C 1819.5,81.5 1819.5,85.5 1819.5,89.5C 1815.83,89.5 1812.17,89.5 1808.5,89.5C 1808.81,93.3714 1808.48,97.0381 1807.5,100.5C 1803.5,100.5 1799.5,100.5 1795.5,100.5C 1795.5,96.8333 1795.5,93.1667 1795.5,89.5C 1791.83,89.5 1788.17,89.5 1784.5,89.5C 1783.17,85.5 1783.17,81.5 1784.5,77.5C 1788.17,77.5 1791.83,77.5 1795.5,77.5C 1795.5,73.8333 1795.5,70.1667 1795.5,66.5C 1799.5,66.5 1803.5,66.5 1807.5,66.5C 1807.19,70.3714 1807.52,74.0381 1808.5,77.5 Z"/></g>
<g><path style="opacity:1" fill="#fdfefe" d="M 1797.5,68.5 C 1800.17,68.5 1802.83,68.5 1805.5,68.5C 1805.5,72.1667 1805.5,75.8333 1805.5,79.5C 1809.17,79.5 1812.83,79.5 1816.5,79.5C 1816.5,82.1667 1816.5,84.8333 1816.5,87.5C 1812.83,87.5 1809.17,87.5 1805.5,87.5C 1805.5,91.1667 1805.5,94.8333 1805.5,98.5C 1802.83,98.5 1800.17,98.5 1797.5,98.5C 1797.5,94.8333 1797.5,91.1667 1797.5,87.5C 1793.83,87.5 1790.17,87.5 1786.5,87.5C 1786.5,84.8333 1786.5,82.1667 1786.5,79.5C 1790.17,79.5 1793.83,79.5 1797.5,79.5C 1797.5,75.8333 1797.5,72.1667 1797.5,68.5 Z"/></g>
<g><path style="opacity:1" fill="#b5b6b8" d="M 1808.5,77.5 C 1807.52,74.0381 1807.19,70.3714 1807.5,66.5C 1803.5,66.5 1799.5,66.5 1795.5,66.5C 1795.5,70.1667 1795.5,73.8333 1795.5,77.5C 1791.83,77.5 1788.17,77.5 1784.5,77.5C 1787.62,76.5206 1790.96,76.1872 1794.5,76.5C 1794.5,72.8333 1794.5,69.1667 1794.5,65.5C 1799.17,65.5 1803.83,65.5 1808.5,65.5C 1808.5,69.5 1808.5,73.5 1808.5,77.5 Z"/></g>
<g><path style="opacity:1" fill="#48494b" d="M 1701.5,76.5 C 1710.67,74.6139 1718.34,77.1139 1724.5,84C 1723.5,84.6667 1722.5,84.6667 1721.5,84C 1712.23,76.6952 1703.06,76.8619 1694,84.5C 1692.74,84.1501 1692.41,83.4835 1693,82.5C 1695.64,80.109 1698.47,78.109 1701.5,76.5 Z"/></g>
<g><path style="opacity:1" fill="#48494a" d="M 1703.5,85.5 C 1709.26,84.4481 1713.93,86.1148 1717.5,90.5C 1717.17,90.8333 1716.83,91.1667 1716.5,91.5C 1711.02,86.2174 1705.52,86.2174 1700,91.5C 1698.74,91.1501 1698.41,90.4835 1699,89.5C 1700.67,88.2668 1702.17,86.9335 1703.5,85.5 Z"/></g>
<g><path style="opacity:1" fill="#505254" d="M 1891.5,63.5 C 1907.97,63.8026 1915.47,72.1359 1914,88.5C 1912.96,90.7463 1911.79,92.913 1910.5,95C 1911.79,95.49 1913.13,95.6567 1914.5,95.5C 1914.5,98.1667 1914.5,100.833 1914.5,103.5C 1905.76,103.876 1897.1,103.376 1888.5,102C 1876.92,96.6215 1873.09,87.7881 1877,75.5C 1880.08,69.2314 1884.91,65.2314 1891.5,63.5 Z"/></g>
<g><path style="opacity:1" fill="#fbfcfb" d="M 1888.5,66.5 C 1898.46,64.5672 1905.96,67.9006 1911,76.5C 1912.32,79.406 1912.65,82.406 1912,85.5C 1910.75,89.6613 1909.25,93.6613 1907.5,97.5C 1909.17,97.5 1910.83,97.5 1912.5,97.5C 1912.5,98.5 1912.5,99.5 1912.5,100.5C 1904.1,100.87 1895.76,100.37 1887.5,99C 1876.8,91.3756 1875.13,82.2089 1882.5,71.5C 1884.94,70.291 1886.94,68.6243 1888.5,66.5 Z"/></g>
<g><path style="opacity:1" fill="#494a4f" d="M 1706.5,93.5 C 1711.33,93.3852 1712.66,95.5519 1710.5,100C 1704.74,100.418 1703.4,98.2511 1706.5,93.5 Z"/></g>
<g><path style="opacity:1" fill="#e7e8eb" d="M 1707.5,95.5 C 1709.46,95.9483 1709.8,96.9483 1708.5,98.5C 1707.61,97.675 1707.28,96.675 1707.5,95.5 Z"/></g>
<g><path style="opacity:1" fill="#babbbd" d="M 1784.5,89.5 C 1788.17,89.5 1791.83,89.5 1795.5,89.5C 1795.5,93.1667 1795.5,96.8333 1795.5,100.5C 1799.5,100.5 1803.5,100.5 1807.5,100.5C 1803.37,101.485 1799.03,101.818 1794.5,101.5C 1794.5,97.8333 1794.5,94.1667 1794.5,90.5C 1790.96,90.8128 1787.62,90.4794 1784.5,89.5 Z"/></g>
<g><path style="opacity:1" fill="#393c40" d="M 164.5,343.5 C 270.834,343.333 377.167,343.5 483.5,344C 488.573,345.406 492.073,348.572 494,353.5C 494.667,383.5 494.667,413.5 494,443.5C 492.813,447.709 490.313,450.876 486.5,453C 386.542,454.158 286.542,454.991 186.5,455.5C 184.112,459.86 180.446,461.86 175.5,461.5C 175.993,459.194 176.326,456.861 176.5,454.5C 168.923,455.653 162.423,453.653 157,448.5C 156.138,446.913 155.471,445.246 155,443.5C 154.333,413.5 154.333,383.5 155,353.5C 157.022,348.98 160.189,345.647 164.5,343.5 Z"/></g>
<g><path style="opacity:1" fill="#fefefe" d="M 167.5,345.5 C 272.167,345.333 376.834,345.5 481.5,346C 487.333,347.167 490.833,350.667 492,356.5C 492.667,385.167 492.667,413.833 492,442.5C 490.86,447.64 487.694,450.807 482.5,452C 383.165,452.167 283.832,452.667 184.5,453.5C 183.669,456.672 181.669,458.338 178.5,458.5C 178.5,456.5 178.5,454.5 178.5,452.5C 169.038,454.509 161.871,451.509 157,443.5C 156.333,414.5 156.333,385.5 157,356.5C 158.684,350.984 162.184,347.318 167.5,345.5 Z"/></g>
<g><path style="opacity:1" fill="#676b6e" d="M 183.5,373.5 C 277.5,373.5 371.5,373.5 465.5,373.5C 465.5,374.5 465.5,375.5 465.5,376.5C 371.5,376.5 277.5,376.5 183.5,376.5C 183.5,375.5 183.5,374.5 183.5,373.5 Z"/></g>
<g><path style="opacity:1" fill="#959699" d="M 464.5,398.5 C 418.171,397.167 371.505,396.5 324.5,396.5C 277.495,396.5 230.829,397.167 184.5,398.5C 183.596,397.791 183.263,396.791 183.5,395.5C 277.5,395.5 371.5,395.5 465.5,395.5C 465.737,396.791 465.404,397.791 464.5,398.5 Z"/></g>
<g><path style="opacity:1" fill="#5c5d61" d="M 464.5,398.5 C 371.167,398.5 277.833,398.5 184.5,398.5C 230.829,397.167 277.495,396.5 324.5,396.5C 371.505,396.5 418.171,397.167 464.5,398.5 Z"/></g>
<g><path style="opacity:1" fill="#3b3c3d" d="M 183.5,418.5 C 230.171,418.167 276.838,418.5 323.5,419.5C 300.167,419.833 276.833,420.167 253.5,420.5C 229.824,420.5 206.49,419.833 183.5,418.5 Z"/></g>
<g><path style="opacity:1" fill="#4c596f" d="M 393.5,491.5 C 464.891,491.01 536.225,491.51 607.5,493C 614.545,495.377 618.712,500.21 620,507.5C 620.667,526.167 620.667,544.833 620,563.5C 616.423,575.713 608.257,581.046 595.5,579.5C 595.704,582.518 596.037,585.518 596.5,588.5C 590.12,588.778 585.453,586.111 582.5,580.5C 518.112,579.99 453.778,579.156 389.5,578C 383.508,575.341 379.675,570.841 378,564.5C 377.333,545.5 377.333,526.5 378,507.5C 379.119,503.929 380.785,500.596 383,497.5C 386.351,495.079 389.851,493.079 393.5,491.5 Z"/></g>
<g><path style="opacity:1" fill="#87abfd" d="M 593.5,577.5 C 592.539,579.265 592.205,581.265 592.5,583.5C 591.448,583.649 590.448,583.483 589.5,583C 587.673,580.758 586.006,578.425 584.5,576C 520.168,575.5 455.834,575.333 391.5,575.5C 385.652,574.148 382.319,570.481 381.5,564.5C 382.142,544.156 382.808,523.822 383.5,503.5C 387.188,502.139 389.521,499.472 390.5,495.5C 426.805,494.843 463.138,494.509 499.5,494.5C 536.212,494.346 572.879,494.846 609.5,496C 612.832,498.491 615.332,501.658 617,505.5C 617.667,525.167 617.667,544.833 617,564.5C 616.043,570.127 612.876,573.96 607.5,576C 602.649,576.174 597.982,576.674 593.5,577.5 Z"/></g>
<g><path style="opacity:1" fill="#8dabef" d="M 390.5,495.5 C 389.521,499.472 387.188,502.139 383.5,503.5C 382.808,523.822 382.142,544.156 381.5,564.5C 380.338,545.004 380.171,525.338 381,505.5C 382.994,501.007 386.16,497.674 390.5,495.5 Z"/></g>
<g><path style="opacity:1" fill="#90a9ec" d="M 404.5,511.5 C 404.5,512.5 404.5,513.5 404.5,514.5C 468.5,514.5 532.5,514.5 596.5,514.5C 596.5,513.5 596.5,512.5 596.5,511.5C 597.434,512.568 597.768,513.901 597.5,515.5C 532.833,515.5 468.167,515.5 403.5,515.5C 403.232,513.901 403.566,512.568 404.5,511.5 Z"/></g>
<g><path style="opacity:1" fill="#3f4f75" d="M 404.5,511.5 C 468.5,511.5 532.5,511.5 596.5,511.5C 596.5,512.5 596.5,513.5 596.5,514.5C 532.5,514.5 468.5,514.5 404.5,514.5C 404.5,513.5 404.5,512.5 404.5,511.5 Z"/></g>
<g><path style="opacity:1" fill="#94a9ee" d="M 595.5,533.5 C 531.491,532.837 467.825,533.504 404.5,535.5C 398.824,535.053 398.491,534.219 403.5,533C 467.668,532.168 531.668,532.335 595.5,533.5 Z"/></g>
<g><path style="opacity:1" fill="#3e4e73" d="M 595.5,533.5 C 595.833,533.5 596.167,533.5 596.5,533.5C 596.5,534.5 596.5,535.5 596.5,536.5C 533.5,536.5 470.5,536.5 407.5,536.5C 406.209,536.737 405.209,536.404 404.5,535.5C 467.825,533.504 531.491,532.837 595.5,533.5 Z"/></g>
<g><path style="opacity:1" fill="#88adec" d="M 596.5,533.5 C 599.731,534.098 600.064,535.264 597.5,537C 533.999,537.832 470.665,537.665 407.5,536.5C 470.5,536.5 533.5,536.5 596.5,536.5C 596.5,535.5 596.5,534.5 596.5,533.5 Z"/></g>
<g><path style="opacity:1" fill="#3f4c59" d="M 162.5,530.5 C 220.168,530.333 277.834,530.5 335.5,531C 341.721,532.923 345.554,537.09 347,543.5C 347.993,639.556 347.659,735.556 346,831.5C 343.833,835 341,837.833 337.5,840C 286.497,840.167 235.497,840.667 184.5,841.5C 182.171,845.737 178.505,847.737 173.5,847.5C 173.674,845.139 174.007,842.806 174.5,840.5C 163.967,843.087 156.8,839.421 153,829.5C 152.333,733.5 152.333,637.5 153,541.5C 154.599,536.406 157.766,532.739 162.5,530.5 Z"/></g>
<g><path style="opacity:1" fill="#c0e1fd" d="M 342.5,540.5 C 342.986,637.53 342.486,734.53 341,831.5C 338.448,834.706 335.115,836.373 331,836.5C 283.493,836.624 235.66,836.457 187.5,836C 183.678,834.307 184.011,832.973 188.5,832C 185.854,831.503 183.187,831.336 180.5,831.5C 180.367,834.896 179.367,835.229 177.5,832.5C 176.713,833.242 176.047,834.075 175.5,835C 172.007,836.004 168.841,835.504 166,833.5C 163.843,836.078 162.677,836.078 162.5,833.5C 161.482,834.193 160.482,834.859 159.5,835.5C 157.777,833.747 156.277,831.747 155,829.5C 154.005,732.752 154.338,636.086 156,539.5C 157.765,536.527 160.265,534.36 163.5,533C 220.167,532.333 276.833,532.333 333.5,533C 337.935,533.947 340.935,536.447 342.5,540.5 Z"/></g>
<g><path style="opacity:1" fill="#435781" d="M 404.5,555.5 C 424.167,555.5 443.833,555.5 463.5,555.5C 463.5,556.5 463.5,557.5 463.5,558.5C 443.833,558.5 424.167,558.5 404.5,558.5C 404.5,557.5 404.5,556.5 404.5,555.5 Z"/></g>
<g><path style="opacity:1" fill="#323c48" d="M 183.5,565.5 C 227.838,565.167 272.172,565.5 316.5,566.5C 294.333,566.833 272.167,567.167 250,567.5C 227.49,567.5 205.323,566.833 183.5,565.5 Z"/></g>
<g><path style="opacity:1" fill="#8eaaed" d="M 391.5,575.5 C 455.834,575.333 520.168,575.5 584.5,576C 586.006,578.425 587.673,580.758 589.5,583C 590.448,583.483 591.448,583.649 592.5,583.5C 592.205,581.265 592.539,579.265 593.5,577.5C 593.508,580.545 593.841,583.545 594.5,586.5C 589.158,585.328 585.492,582.162 583.5,577C 519.332,576.833 455.332,576.333 391.5,575.5 Z"/></g>
<g><path style="opacity:1" fill="#313c49" d="M 183.5,587.5 C 227.838,587.167 272.172,587.5 316.5,588.5C 294.333,588.833 272.167,589.167 250,589.5C 227.49,589.5 205.323,588.833 183.5,587.5 Z"/></g>
<g><path style="opacity:1" fill="#5e6b7b" d="M 182.5,609.5 C 227.167,609.5 271.833,609.5 316.5,609.5C 316.5,610.5 316.5,611.5 316.5,612.5C 271.833,612.5 227.167,612.5 182.5,612.5C 182.5,611.5 182.5,610.5 182.5,609.5 Z"/></g>
<g><path style="opacity:1" fill="#455567" d="M 316.5,633.5 C 271.997,633.832 227.664,633.499 183.5,632.5C 205.497,631.833 227.664,631.5 250,631.5C 272.51,631.5 294.677,632.167 316.5,633.5 Z"/></g>
<g><path style="opacity:1" fill="#56687a" d="M 183.5,632.5 C 227.664,633.499 271.997,633.832 316.5,633.5C 271.998,634.831 227.331,634.831 182.5,633.5C 182.624,632.893 182.957,632.56 183.5,632.5 Z"/></g>
<g><path style="opacity:1" fill="#72889c" d="M 316.5,654.5 C 271.821,653.839 227.487,654.505 183.5,656.5C 182.596,655.791 182.263,654.791 182.5,653.5C 227.336,653.168 272.003,653.501 316.5,654.5 Z"/></g>
<g><path style="opacity:1" fill="#455a6f" d="M 316.5,654.5 C 272.513,656.495 228.179,657.161 183.5,656.5C 227.487,654.505 271.821,653.839 316.5,654.5 Z"/></g>
<g><path style="opacity:1" fill="#283f55" d="M 182.5,676.5 C 227.172,676.167 271.838,676.5 316.5,677.5C 294.167,677.833 271.833,678.167 249.5,678.5C 226.823,678.5 204.49,677.833 182.5,676.5 Z"/></g>
<g><path style="opacity:1" fill="#5e6d7d" d="M 182.5,698.5 C 227.167,698.5 271.833,698.5 316.5,698.5C 316.5,699.5 316.5,700.5 316.5,701.5C 271.833,701.5 227.167,701.5 182.5,701.5C 182.5,700.5 182.5,699.5 182.5,698.5 Z"/></g>
<g><path style="opacity:1" fill="#596e83" d="M 182.5,720.5 C 227.167,720.5 271.833,720.5 316.5,720.5C 316.5,721.5 316.5,722.5 316.5,723.5C 271.833,723.5 227.167,723.5 182.5,723.5C 182.5,722.5 182.5,721.5 182.5,720.5 Z"/></g>
<g><path style="opacity:1" fill="#455665" d="M 316.5,744.5 C 271.997,744.832 227.664,744.499 183.5,743.5C 205.497,742.833 227.664,742.5 250,742.5C 272.51,742.5 294.677,743.167 316.5,744.5 Z"/></g>
<g><path style="opacity:1" fill="#56687b" d="M 183.5,743.5 C 227.664,744.499 271.997,744.832 316.5,744.5C 271.998,745.831 227.331,745.831 182.5,744.5C 182.624,743.893 182.957,743.56 183.5,743.5 Z"/></g>
<g><path style="opacity:1" fill="#303d49" d="M 183.5,765.5 C 227.838,765.167 272.172,765.5 316.5,766.5C 294.333,766.833 272.167,767.167 250,767.5C 227.49,767.5 205.323,766.833 183.5,765.5 Z"/></g>
<g><path style="opacity:1" fill="#343d49" d="M 182.5,787.5 C 227.172,787.167 271.838,787.5 316.5,788.5C 294.167,788.833 271.833,789.167 249.5,789.5C 226.823,789.5 204.49,788.833 182.5,787.5 Z"/></g>
<g><path style="opacity:1" fill="#5a6d7e" d="M 182.5,809.5 C 203.167,809.5 223.833,809.5 244.5,809.5C 244.5,810.5 244.5,811.5 244.5,812.5C 223.833,812.5 203.167,812.5 182.5,812.5C 182.5,811.5 182.5,810.5 182.5,809.5 Z"/></g>
<g><path style="opacity:1" fill="#474a4f" d="M 465.5,734.5 C 522.168,734.333 578.834,734.5 635.5,735C 640.84,736.41 644.673,739.577 647,744.5C 647.667,770.833 647.667,797.167 647,823.5C 642.759,831.795 635.925,835.128 626.5,833.5C 628.552,840.43 626.219,842.263 619.5,839C 617.787,837.622 616.453,835.955 615.5,834C 564.121,833.982 512.788,833.315 461.5,832C 457.799,829.308 455.299,825.808 454,821.5C 453.333,796.5 453.333,771.5 454,746.5C 456.019,740.65 459.852,736.65 465.5,734.5 Z"/></g>
<g><path style="opacity:1" fill="#edf0f5" d="M 464.5,737.5 C 522.892,737.012 581.225,737.512 639.5,739C 642.106,740.938 643.939,743.438 645,746.5C 645.667,771.167 645.667,795.833 645,820.5C 644.194,824.617 642.027,827.784 638.5,830C 633.599,831.325 628.599,831.825 623.5,831.5C 623.261,833.467 623.594,835.301 624.5,837C 620.801,837.823 618.467,836.323 617.5,832.5C 565.778,831.987 514.112,831.154 462.5,830C 458.976,827.792 456.809,824.625 456,820.5C 455.333,796.167 455.333,771.833 456,747.5C 457.978,743.362 460.811,740.029 464.5,737.5 Z"/></g>
<g><path style="opacity:1" fill="#56595e" d="M 624.5,806.5 C 575.845,808.495 526.845,809.162 477.5,808.5C 526.155,806.505 575.155,805.838 624.5,806.5 Z"/></g>
<g><path style="opacity:1" fill="#8d9095" d="M 624.5,806.5 C 575.155,805.838 526.155,806.505 477.5,808.5C 476.596,807.791 476.263,806.791 476.5,805.5C 526.003,805.168 575.336,805.501 624.5,806.5 Z"/></g>
<g><path style="opacity:1" fill="#63666b" d="M 476.5,783.5 C 525.833,783.5 575.167,783.5 624.5,783.5C 624.5,784.5 624.5,785.5 624.5,786.5C 575.167,786.5 525.833,786.5 476.5,786.5C 476.5,785.5 476.5,784.5 476.5,783.5 Z"/></g>
<g><path style="opacity:1" fill="#383b40" d="M 476.5,761.5 C 525.838,761.167 575.171,761.5 624.5,762.5C 599.833,762.833 575.167,763.167 550.5,763.5C 525.491,763.5 500.824,762.833 476.5,761.5 Z"/></g>
<g><path style="opacity:1" fill="#c4dff8" d="M 342.5,540.5 C 343.117,540.611 343.617,540.944 344,541.5C 344.667,637.5 344.667,733.5 344,829.5C 342.5,833.667 339.667,836.5 335.5,838C 284.501,838.5 233.501,838.667 182.5,838.5C 182.167,842.167 180.167,844.167 176.5,844.5C 176.5,842.5 176.5,840.5 176.5,838.5C 172.154,838.666 167.821,838.499 163.5,838C 161.934,837.392 160.6,836.558 159.5,835.5C 160.482,834.859 161.482,834.193 162.5,833.5C 162.677,836.078 163.843,836.078 166,833.5C 168.841,835.504 172.007,836.004 175.5,835C 176.047,834.075 176.713,833.242 177.5,832.5C 179.367,835.229 180.367,834.896 180.5,831.5C 183.187,831.336 185.854,831.503 188.5,832C 184.011,832.973 183.678,834.307 187.5,836C 235.66,836.457 283.493,836.624 331,836.5C 335.115,836.373 338.448,834.706 341,831.5C 342.486,734.53 342.986,637.53 342.5,540.5 Z"/></g>
<g><path style="opacity:1" fill="#434d6c" d="M 313.5,870.5 C 418.834,870.333 524.167,870.5 629.5,871C 634.91,872.743 638.744,876.243 641,881.5C 642.581,893.442 642.915,905.442 642,917.5C 639.835,929.494 632.668,934.827 620.5,933.5C 620.5,936.167 620.5,938.833 620.5,941.5C 614.849,941.68 611.515,939.013 610.5,933.5C 511.499,933.667 412.499,933.5 313.5,933C 308.137,931.395 304.637,927.895 303,922.5C 301.891,915.743 301.391,908.909 301.5,902C 301.391,895.091 301.891,888.257 303,881.5C 305.324,876.613 308.824,872.947 313.5,870.5 Z"/></g>
<g><path style="opacity:1" fill="#4563db" d="M 630.5,930.5 C 628.167,930.5 625.833,930.5 623.5,930.5C 625.607,929.532 627.941,929.198 630.5,929.5C 630.5,928.167 630.5,926.833 630.5,925.5C 634.578,925.74 636.744,923.74 637,919.5C 637.308,908.782 637.475,898.115 637.5,887.5C 636.291,884.293 635.291,880.959 634.5,877.5C 632.833,876.667 631.167,875.833 629.5,875C 523.833,874.333 418.167,874.333 312.5,875C 310.886,877.127 308.886,878.627 306.5,879.5C 307.909,877.583 309.576,875.75 311.5,874C 417.833,873.333 524.167,873.333 630.5,874C 631.833,874.333 633.167,874.667 634.5,875C 635.924,877.101 637.258,879.267 638.5,881.5C 639.666,894.821 639.833,908.154 639,921.5C 636.961,922.978 636.128,924.978 636.5,927.5C 634.284,928.044 632.284,929.044 630.5,930.5 Z"/></g>
<g><path style="opacity:1" fill="#3c63f5" d="M 623.5,930.5 C 621.167,930.5 618.833,930.5 616.5,930.5C 616.5,932.167 616.5,933.833 616.5,935.5C 615.167,935.5 613.833,935.5 612.5,935.5C 612.843,933.517 612.176,932.183 610.5,931.5C 610.5,931.167 610.5,930.833 610.5,930.5C 610.5,930.167 610.5,929.833 610.5,929.5C 609.918,928.069 609.085,926.736 608,925.5C 562.711,926.831 517.211,927.497 471.5,927.5C 426.167,927.167 380.833,926.833 335.5,926.5C 335.291,925.914 334.957,925.414 334.5,925C 329.576,924.06 324.743,922.894 320,921.5C 319.316,922.784 319.483,923.951 320.5,925C 322.788,925.822 325.122,926.489 327.5,927C 324.635,927.183 321.969,927.683 319.5,928.5C 316.751,928.726 314.084,928.393 311.5,927.5C 310.657,925.769 310.657,923.935 311.5,922C 310.492,916.458 309.159,916.291 307.5,921.5C 305.759,909.572 305.092,897.572 305.5,885.5C 306.15,883.565 306.483,881.565 306.5,879.5C 308.886,878.627 310.886,877.127 312.5,875C 418.167,874.333 523.833,874.333 629.5,875C 631.167,875.833 632.833,876.667 634.5,877.5C 635.291,880.959 636.291,884.293 637.5,887.5C 637.475,898.115 637.308,908.782 637,919.5C 636.744,923.74 634.578,925.74 630.5,925.5C 630.5,926.833 630.5,928.167 630.5,929.5C 627.941,929.198 625.607,929.532 623.5,930.5 Z"/></g>
<g><path style="opacity:1" fill="#3c61fd" d="M 623.5,882.5 C 618.944,880.558 613.944,879.892 608.5,880.5C 512.147,880.976 415.814,880.476 319.5,879C 420.421,878.2 520.921,878.367 621,879.5C 622.085,878.707 623.252,878.04 624.5,877.5C 625.466,879.396 625.799,881.396 625.5,883.5C 626.833,883.5 628.167,883.5 629.5,883.5C 630.973,887.953 629.973,891.953 626.5,895.5C 626.661,892.606 626.328,889.606 625.5,886.5C 624.088,885.194 622.421,884.36 620.5,884C 621.737,883.768 622.737,883.268 623.5,882.5 Z"/></g>
<g><path style="opacity:1" fill="#3d63ee" d="M 608.5,880.5 C 613.944,879.892 618.944,880.558 623.5,882.5C 527.499,882.667 431.499,882.5 335.5,882C 426.668,881.833 517.668,881.333 608.5,880.5 Z"/></g>
<g><path style="opacity:1" fill="#3b61fc" d="M 323.5,887.5 C 423.334,886.168 523.334,886.168 623.5,887.5C 523.432,888.831 423.432,888.831 323.5,887.5 Z"/></g>
<g><path style="opacity:1" fill="#334fa6" d="M 306.5,879.5 C 306.483,881.565 306.15,883.565 305.5,885.5C 304.219,897.36 304.219,909.36 305.5,921.5C 304.883,921.389 304.383,921.056 304,920.5C 303.333,908.167 303.333,895.833 304,883.5C 304.608,881.934 305.442,880.6 306.5,879.5 Z"/></g>
<g><path style="opacity:1" fill="#dfeffe" d="M 324.5,889.5 C 424.502,889.167 524.502,889.5 624.5,890.5C 574.5,890.833 524.5,891.167 474.5,891.5C 424.162,891.5 374.162,890.833 324.5,889.5 Z"/></g>
<g><path style="opacity:1" fill="#3a60fe" d="M 323.5,892.5 C 423.502,892.167 523.502,892.5 623.5,893.5C 573.5,893.833 523.5,894.167 473.5,894.5C 423.162,894.5 373.162,893.833 323.5,892.5 Z"/></g>
<g><path style="opacity:1" fill="#4164e4" d="M 415.5,911.5 C 385.167,911.5 354.833,911.5 324.5,911.5C 324.5,912.5 324.5,913.5 324.5,914.5C 354.833,914.5 385.167,914.5 415.5,914.5C 384.664,915.83 353.664,915.83 322.5,914.5C 322.167,913.5 321.5,912.833 320.5,912.5C 319.391,913.59 318.391,913.59 317.5,912.5C 318.62,910.404 320.12,910.07 322,911.5C 337.446,910.175 353.113,909.508 369,909.5C 384.848,909.501 400.348,910.167 415.5,911.5 Z"/></g>
<g><path style="opacity:1" fill="#bcccf2" d="M 415.5,911.5 C 415.5,912.5 415.5,913.5 415.5,914.5C 385.167,914.5 354.833,914.5 324.5,914.5C 324.5,913.5 324.5,912.5 324.5,911.5C 354.833,911.5 385.167,911.5 415.5,911.5 Z"/></g>
<g><path style="opacity:1" fill="#3c62f0" d="M 610.5,929.5 C 513.332,929.833 416.332,929.499 319.5,928.5C 321.969,927.683 324.635,927.183 327.5,927C 325.122,926.489 322.788,925.822 320.5,925C 319.483,923.951 319.316,922.784 320,921.5C 324.743,922.894 329.576,924.06 334.5,925C 334.957,925.414 335.291,925.914 335.5,926.5C 380.833,926.833 426.167,927.167 471.5,927.5C 517.211,927.497 562.711,926.831 608,925.5C 609.085,926.736 609.918,928.069 610.5,929.5 Z"/></g>
<g><path style="opacity:1" fill="#4662e0" d="M 305.5,885.5 C 305.092,897.572 305.759,909.572 307.5,921.5C 309.159,916.291 310.492,916.458 311.5,922C 310.657,923.935 310.657,925.769 311.5,927.5C 314.084,928.393 316.751,928.726 319.5,928.5C 416.332,929.499 513.332,929.833 610.5,929.5C 610.5,929.833 610.5,930.167 610.5,930.5C 510.459,930.829 410.459,930.495 310.5,929.5C 308.322,927.142 306.655,924.475 305.5,921.5C 304.219,909.36 304.219,897.36 305.5,885.5 Z"/></g>
<g><path style="opacity:1" fill="#354b9b" d="M 310.5,929.5 C 410.459,930.495 510.459,930.829 610.5,930.5C 610.5,930.833 610.5,931.167 610.5,931.5C 510.833,931.667 411.166,931.5 311.5,931C 310.944,930.617 310.611,930.117 310.5,929.5 Z"/></g>
<g><path style="opacity:1" fill="#3e58b1" d="M 623.5,930.5 C 625.833,930.5 628.167,930.5 630.5,930.5C 626.702,931.483 622.702,931.817 618.5,931.5C 618.813,934.247 618.48,936.914 617.5,939.5C 615.214,938.867 613.548,937.534 612.5,935.5C 613.833,935.5 615.167,935.5 616.5,935.5C 616.5,933.833 616.5,932.167 616.5,930.5C 618.833,930.5 621.167,930.5 623.5,930.5 Z"/></g>
<g><path style="opacity:1" fill="#fefefe" d="M 1828.5,985.5 C 1828.5,1008.5 1828.5,1031.5 1828.5,1054.5C 1828.57,1054.94 1828.4,1055.27 1828,1055.5C 1827,1054.83 1826,1054.17 1825,1053.5C 1250.24,1054.67 675.403,1054.83 100.5,1054C 90.2704,1052.27 82.2704,1047.1 76.5,1038.5C 68.3053,1025.21 68.6387,1011.88 77.5,998.5C 82.7395,993.063 88.7395,988.896 95.5,986C 98.1667,985.667 100.833,985.333 103.5,985C 678.786,984.168 1253.79,984.335 1828.5,985.5 Z"/></g>
<g><path style="opacity:1" fill="#383d42" d="M 1828.5,1054.5 C 1828.5,1031.5 1828.5,1008.5 1828.5,985.5C 1839.83,984.833 1851.33,984.5 1863,984.5C 1876.54,984.392 1890.04,984.892 1903.5,986C 1927.37,996.945 1933.87,1014.45 1923,1038.5C 1916.95,1047.61 1908.45,1052.78 1897.5,1054C 1874.5,1054.5 1851.5,1054.67 1828.5,1054.5 Z"/></g>
<g><path style="opacity:1" fill="#eef0f1" d="M 1886.5,1003.5 C 1888.35,1003.22 1889.68,1003.89 1890.5,1005.5C 1886.04,1015.38 1881.87,1025.38 1878,1035.5C 1877.31,1037.55 1876.15,1039.22 1874.5,1040.5C 1873.91,1040.29 1873.41,1039.96 1873,1039.5C 1872.32,1033.91 1870.82,1028.58 1868.5,1023.5C 1863.55,1021.85 1858.55,1020.35 1853.5,1019C 1852.07,1017.29 1852.41,1015.95 1854.5,1015C 1865.31,1011.23 1875.98,1007.4 1886.5,1003.5 Z"/></g>
<g><path style="opacity:1" fill="#46494d" d="M 1876.5,1010.5 C 1877.55,1010.35 1878.55,1010.52 1879.5,1011C 1876.69,1013.9 1873.69,1016.57 1870.5,1019C 1867.02,1019.3 1863.68,1018.63 1860.5,1017C 1866.05,1015.1 1871.39,1012.93 1876.5,1010.5 Z"/></g>
<g><path style="opacity:1" fill="#434649" d="M 1881.5,1013.5 C 1882.57,1014.25 1882.74,1015.25 1882,1016.5C 1879.39,1021.38 1877.06,1026.38 1875,1031.5C 1874.09,1028.69 1873.26,1025.86 1872.5,1023C 1875.68,1019.99 1878.68,1016.82 1881.5,1013.5 Z"/></g>
</svg>
