<?xml version="1.0" encoding="UTF-8"?>
<!DOCTYPE svg PUBLIC "-//W3C//DTD SVG 1.1//EN" "http://www.w3.org/Graphics/SVG/1.1/DTD/svg11.dtd">
<svg xmlns="http://www.w3.org/2000/svg" version="1.1" width="2000px" height="1125px" style="shape-rendering:geometricPrecision; text-rendering:geometricPrecision; image-rendering:optimizeQuality; fill-rule:evenodd; clip-rule:evenodd" xmlns:xlink="http://www.w3.org/1999/xlink">
<g><path style="opacity:1" fill="#edf0f5" d="M -0.5,-0.5 C 38.1667,-0.5 76.8333,-0.5 115.5,-0.5C 115.5,60.5 115.5,121.5 115.5,182.5C 116.5,182.5 117.5,182.5 118.5,182.5C 118.5,121.5 118.5,60.5 118.5,-0.5C 745.5,-0.5 1372.5,-0.5 1999.5,-0.5C 1999.5,179.833 1999.5,360.167 1999.5,540.5C 1950.5,540.333 1901.5,540.5 1852.5,541C 1848,542.833 1844.83,546 1843,550.5C 1842.33,646.833 1842.33,743.167 1843,839.5C 1846.95,849.06 1854.12,852.727 1864.5,850.5C 1864.33,852.861 1863.99,855.194 1863.5,857.5C 1868.52,857.825 1872.19,855.825 1874.5,851.5C 1916.16,850.5 1957.83,850.167 1999.5,850.5C 1999.5,941.833 1999.5,1033.17 1999.5,1124.5C 1332.83,1124.5 666.167,1124.5 -0.5,1124.5C -0.5,749.5 -0.5,374.5 -0.5,-0.5 Z"/></g>
<g><path style="opacity:1" fill="#575a5f" d="M 115.5,-0.5 C 116.5,-0.5 117.5,-0.5 118.5,-0.5C 118.5,60.5 118.5,121.5 118.5,182.5C 117.5,182.5 116.5,182.5 115.5,182.5C 115.5,121.5 115.5,60.5 115.5,-0.5 Z"/></g>
<g><path style="opacity:1" fill="#c0e1fd" d="M 1999.5,545.5 C 1999.5,555.5 1999.5,565.5 1999.5,575.5C 1831.5,576.167 1831.5,576.833 1999.5,577.5C 1999.5,584.167 1999.5,590.833 1999.5,597.5C 1957.17,597.5 1914.83,597.5 1872.5,597.5C 1872.5,598.5 1872.5,599.5 1872.5,600.5C 1914.83,600.5 1957.17,600.5 1999.5,600.5C 1999.5,606.833 1999.5,613.167 1999.5,619.5C 1957.17,619.5 1914.83,619.5 1872.5,619.5C 1872.5,620.5 1872.5,621.5 1872.5,622.5C 1914.83,622.5 1957.17,622.5 1999.5,622.5C 1999.5,628.833 1999.5,635.167 1999.5,641.5C 1957.17,641.5 1914.83,641.5 1872.5,641.5C 1872.26,642.791 1872.6,643.791 1873.5,644.5C 1915.5,644.5 1957.5,644.5 1999.5,644.5C 1999.5,651.167 1999.5,657.833 1999.5,664.5C 1831.5,665.167 1831.5,665.833 1999.5,666.5C 1999.5,673.167 1999.5,679.833 1999.5,686.5C 1830.17,687.167 1830.17,687.833 1999.5,688.5C 1999.5,695.167 1999.5,701.833 1999.5,708.5C 1957.17,708.5 1914.83,708.5 1872.5,708.5C 1872.5,709.5 1872.5,710.5 1872.5,711.5C 1914.83,711.5 1957.17,711.5 1999.5,711.5C 1999.5,717.833 1999.5,724.167 1999.5,730.5C 1957.17,730.5 1914.83,730.5 1872.5,730.5C 1872.26,731.791 1872.6,732.791 1873.5,733.5C 1915.5,733.5 1957.5,733.5 1999.5,733.5C 1999.5,739.833 1999.5,746.167 1999.5,752.5C 1957.17,752.5 1914.83,752.5 1872.5,752.5C 1872.26,753.791 1872.6,754.791 1873.5,755.5C 1915.5,755.5 1957.5,755.5 1999.5,755.5C 1999.5,762.167 1999.5,768.833 1999.5,775.5C 1831.5,776.167 1831.5,776.833 1999.5,777.5C 1999.5,784.167 1999.5,790.833 1999.5,797.5C 1957.17,797.5 1914.83,797.5 1872.5,797.5C 1872.5,798.5 1872.5,799.5 1872.5,800.5C 1914.83,800.5 1957.17,800.5 1999.5,800.5C 1999.5,816.5 1999.5,832.5 1999.5,848.5C 1957.17,848.5 1914.83,848.5 1872.5,848.5C 1872.17,852.167 1870.17,854.167 1866.5,854.5C 1866.5,852.5 1866.5,850.5 1866.5,848.5C 1860.57,849.111 1854.9,848.278 1849.5,846C 1848.12,844.729 1847.12,843.229 1846.5,841.5C 1846.36,745.456 1846.53,649.122 1847,552.5C 1850.37,548.393 1852.7,549.06 1854,554.5C 1855.29,551.734 1855.79,548.901 1855.5,546C 1903.5,545.5 1951.5,545.333 1999.5,545.5 Z"/></g>
<g><path style="opacity:1" fill="#313f4d" d="M 1999.5,540.5 C 1999.5,541.167 1999.5,541.833 1999.5,542.5C 1950.83,542.333 1902.17,542.5 1853.5,543C 1850.06,544.105 1847.56,546.272 1846,549.5C 1844.84,598.085 1844.34,646.751 1844.5,695.5C 1844.67,743.5 1844.83,791.5 1845,839.5C 1845.28,840.416 1845.78,841.082 1846.5,841.5C 1847.12,843.229 1848.12,844.729 1849.5,846C 1854.9,848.278 1860.57,849.111 1866.5,848.5C 1866.5,850.5 1866.5,852.5 1866.5,854.5C 1870.17,854.167 1872.17,852.167 1872.5,848.5C 1914.83,848.5 1957.17,848.5 1999.5,848.5C 1999.5,849.167 1999.5,849.833 1999.5,850.5C 1957.83,850.167 1916.16,850.5 1874.5,851.5C 1872.19,855.825 1868.52,857.825 1863.5,857.5C 1863.99,855.194 1864.33,852.861 1864.5,850.5C 1854.12,852.727 1846.95,849.06 1843,839.5C 1842.33,743.167 1842.33,646.833 1843,550.5C 1844.83,546 1848,542.833 1852.5,541C 1901.5,540.5 1950.5,540.333 1999.5,540.5 Z"/></g>
<g><path style="opacity:1" fill="#c5dff7" d="M 1999.5,542.5 C 1999.5,543.5 1999.5,544.5 1999.5,545.5C 1951.5,545.333 1903.5,545.5 1855.5,546C 1855.79,548.901 1855.29,551.734 1854,554.5C 1852.7,549.06 1850.37,548.393 1847,552.5C 1846.53,649.122 1846.36,745.456 1846.5,841.5C 1845.78,841.082 1845.28,840.416 1845,839.5C 1844.83,791.5 1844.67,743.5 1844.5,695.5C 1844.34,646.751 1844.84,598.085 1846,549.5C 1847.56,546.272 1850.06,544.105 1853.5,543C 1902.17,542.5 1950.83,542.333 1999.5,542.5 Z"/></g>
<g><path style="opacity:1" fill="#303d49" d="M 1999.5,575.5 C 1999.5,576.167 1999.5,576.833 1999.5,577.5C 1831.5,576.833 1831.5,576.167 1999.5,575.5 Z"/></g>
<g><path style="opacity:1" fill="#5c6d7d" d="M 1999.5,597.5 C 1999.5,598.5 1999.5,599.5 1999.5,600.5C 1957.17,600.5 1914.83,600.5 1872.5,600.5C 1872.5,599.5 1872.5,598.5 1872.5,597.5C 1914.83,597.5 1957.17,597.5 1999.5,597.5 Z"/></g>
<g><path style="opacity:1" fill="#5c6c7c" d="M 1999.5,619.5 C 1999.5,620.5 1999.5,621.5 1999.5,622.5C 1957.17,622.5 1914.83,622.5 1872.5,622.5C 1872.5,621.5 1872.5,620.5 1872.5,619.5C 1914.83,619.5 1957.17,619.5 1999.5,619.5 Z"/></g>
<g><path style="opacity:1" fill="#788999" d="M 1999.5,641.5 C 1999.5,641.833 1999.5,642.167 1999.5,642.5C 1957.15,641.839 1915.15,642.505 1873.5,644.5C 1872.6,643.791 1872.26,642.791 1872.5,641.5C 1914.83,641.5 1957.17,641.5 1999.5,641.5 Z"/></g>
<g><path style="opacity:1" fill="#4c5968" d="M 1999.5,642.5 C 1999.5,643.167 1999.5,643.833 1999.5,644.5C 1957.5,644.5 1915.5,644.5 1873.5,644.5C 1915.15,642.505 1957.15,641.839 1999.5,642.5 Z"/></g>
<g><path style="opacity:1" fill="#283e54" d="M 1999.5,664.5 C 1999.5,665.167 1999.5,665.833 1999.5,666.5C 1831.5,665.833 1831.5,665.167 1999.5,664.5 Z"/></g>
<g><path style="opacity:1" fill="#2a4055" d="M 1999.5,686.5 C 1999.5,687.167 1999.5,687.833 1999.5,688.5C 1830.17,687.833 1830.17,687.167 1999.5,686.5 Z"/></g>
<g><path style="opacity:1" fill="#5b6c7e" d="M 1999.5,708.5 C 1999.5,709.5 1999.5,710.5 1999.5,711.5C 1957.17,711.5 1914.83,711.5 1872.5,711.5C 1872.5,710.5 1872.5,709.5 1872.5,708.5C 1914.83,708.5 1957.17,708.5 1999.5,708.5 Z"/></g>
<g><path style="opacity:1" fill="#788595" d="M 1999.5,730.5 C 1999.5,730.833 1999.5,731.167 1999.5,731.5C 1957.15,730.839 1915.15,731.505 1873.5,733.5C 1872.6,732.791 1872.26,731.791 1872.5,730.5C 1914.83,730.5 1957.17,730.5 1999.5,730.5 Z"/></g>
<g><path style="opacity:1" fill="#4c5a69" d="M 1999.5,731.5 C 1999.5,732.167 1999.5,732.833 1999.5,733.5C 1957.5,733.5 1915.5,733.5 1873.5,733.5C 1915.15,731.505 1957.15,730.839 1999.5,731.5 Z"/></g>
<g><path style="opacity:1" fill="#75879b" d="M 1999.5,752.5 C 1999.5,752.833 1999.5,753.167 1999.5,753.5C 1957.15,752.839 1915.15,753.505 1873.5,755.5C 1872.6,754.791 1872.26,753.791 1872.5,752.5C 1914.83,752.5 1957.17,752.5 1999.5,752.5 Z"/></g>
<g><path style="opacity:1" fill="#4b5967" d="M 1999.5,753.5 C 1999.5,754.167 1999.5,754.833 1999.5,755.5C 1957.5,755.5 1915.5,755.5 1873.5,755.5C 1915.15,753.505 1957.15,752.839 1999.5,753.5 Z"/></g>
<g><path style="opacity:1" fill="#323b46" d="M 1999.5,775.5 C 1999.5,776.167 1999.5,776.833 1999.5,777.5C 1831.5,776.833 1831.5,776.167 1999.5,775.5 Z"/></g>
<g><path style="opacity:1" fill="#fdfdfd" d="M 1755.5,788.5 C 1771.5,788.333 1787.5,788.5 1803.5,789C 1808.52,789.25 1811.69,791.75 1813,796.5C 1813.83,814.176 1813.67,831.843 1812.5,849.5C 1811.02,851.483 1809.35,853.316 1807.5,855C 1790.23,856.624 1772.9,856.958 1755.5,856C 1751.78,854.619 1748.95,852.119 1747,848.5C 1746.33,831.167 1746.33,813.833 1747,796.5C 1749.07,792.923 1751.91,790.256 1755.5,788.5 Z"/></g>
<g><path style="opacity:1" fill="#586e84" d="M 1999.5,797.5 C 1999.5,798.5 1999.5,799.5 1999.5,800.5C 1957.17,800.5 1914.83,800.5 1872.5,800.5C 1872.5,799.5 1872.5,798.5 1872.5,797.5C 1914.83,797.5 1957.17,797.5 1999.5,797.5 Z"/></g>
<g><path style="opacity:1" fill="#7b7b80" d="M 1786.5,805.5 C 1782.5,805.5 1778.5,805.5 1774.5,805.5C 1774.81,809.371 1774.48,813.038 1773.5,816.5C 1773.5,812.5 1773.5,808.5 1773.5,804.5C 1778.03,804.182 1782.37,804.515 1786.5,805.5 Z"/></g>
<g><path style="opacity:1" fill="#5a6d7e" d="M 1872.5,819.5 C 1893.17,819.5 1913.83,819.5 1934.5,819.5C 1934.5,820.5 1934.5,821.5 1934.5,822.5C 1913.83,822.5 1893.17,822.5 1872.5,822.5C 1872.5,821.5 1872.5,820.5 1872.5,819.5 Z"/></g>
<g><path style="opacity:1" fill="#424346" d="M 1786.5,805.5 C 1786.5,809.167 1786.5,812.833 1786.5,816.5C 1790.17,816.5 1793.83,816.5 1797.5,816.5C 1797.5,820.5 1797.5,824.5 1797.5,828.5C 1793.83,828.5 1790.17,828.5 1786.5,828.5C 1786.5,832.167 1786.5,835.833 1786.5,839.5C 1782.5,839.5 1778.5,839.5 1774.5,839.5C 1774.81,835.629 1774.48,831.962 1773.5,828.5C 1769.83,828.5 1766.17,828.5 1762.5,828.5C 1762.5,824.5 1762.5,820.5 1762.5,816.5C 1766.17,816.5 1769.83,816.5 1773.5,816.5C 1774.48,813.038 1774.81,809.371 1774.5,805.5C 1778.5,805.5 1782.5,805.5 1786.5,805.5 Z"/></g>
<g><path style="opacity:1" fill="#818284" d="M 1784.5,807.5 C 1781.83,807.5 1779.17,807.5 1776.5,807.5C 1776.5,811.167 1776.5,814.833 1776.5,818.5C 1772.5,818.5 1768.5,818.5 1764.5,818.5C 1767.96,817.518 1771.63,817.185 1775.5,817.5C 1775.5,813.833 1775.5,810.167 1775.5,806.5C 1778.71,806.19 1781.71,806.523 1784.5,807.5 Z"/></g>
<g><path style="opacity:1" fill="#f8fafa" d="M 1784.5,807.5 C 1784.5,811.167 1784.5,814.833 1784.5,818.5C 1788.17,818.5 1791.83,818.5 1795.5,818.5C 1795.5,821.167 1795.5,823.833 1795.5,826.5C 1791.83,826.5 1788.17,826.5 1784.5,826.5C 1784.5,830.167 1784.5,833.833 1784.5,837.5C 1781.83,837.5 1779.17,837.5 1776.5,837.5C 1776.5,833.833 1776.5,830.167 1776.5,826.5C 1772.5,826.5 1768.5,826.5 1764.5,826.5C 1764.5,823.833 1764.5,821.167 1764.5,818.5C 1768.5,818.5 1772.5,818.5 1776.5,818.5C 1776.5,814.833 1776.5,811.167 1776.5,807.5C 1779.17,807.5 1781.83,807.5 1784.5,807.5 Z"/></g>
<g><path style="opacity:1" fill="#888a8a" d="M 1764.5,826.5 C 1768.5,826.5 1772.5,826.5 1776.5,826.5C 1776.5,830.167 1776.5,833.833 1776.5,837.5C 1775.52,834.375 1775.19,831.042 1775.5,827.5C 1771.63,827.815 1767.96,827.482 1764.5,826.5 Z"/></g>
<g><path style="opacity:1" fill="#898a8d" d="M 1773.5,828.5 C 1774.48,831.962 1774.81,835.629 1774.5,839.5C 1778.5,839.5 1782.5,839.5 1786.5,839.5C 1782.37,840.485 1778.03,840.818 1773.5,840.5C 1773.5,836.5 1773.5,832.5 1773.5,828.5 Z"/></g>
<g><path style="opacity:1" fill="#464e6a" d="M 1927.5,911.5 C 1925.39,909.077 1922.72,907.41 1919.5,906.5C 1919.5,906.167 1919.5,905.833 1919.5,905.5C 1862,904.335 1804.33,904.168 1746.5,905C 1745.26,905.232 1744.26,905.732 1743.5,906.5C 1743.5,906.833 1743.5,907.167 1743.5,907.5C 1740.27,908.595 1738.43,910.928 1738,914.5C 1737.5,940.165 1737.33,965.831 1737.5,991.5C 1737.5,992.167 1737.5,992.833 1737.5,993.5C 1736.21,992.158 1735.37,990.491 1735,988.5C 1734.33,964.167 1734.33,939.833 1735,915.5C 1736.65,910.844 1739.48,907.011 1743.5,904C 1801.44,902.345 1859.44,902.012 1917.5,903C 1922.69,903.747 1926.02,906.58 1927.5,911.5 Z"/></g>
<g><path style="opacity:1" fill="#384c94" d="M 1919.5,905.5 C 1860.81,905.182 1802.14,905.516 1743.5,906.5C 1744.26,905.732 1745.26,905.232 1746.5,905C 1804.33,904.168 1862,904.335 1919.5,905.5 Z"/></g>
<g><path style="opacity:1" fill="#3b63f6" d="M 1919.5,905.5 C 1919.5,905.833 1919.5,906.167 1919.5,906.5C 1921.14,907.924 1922.64,909.591 1924,911.5C 1924.33,914.167 1924.67,916.833 1925,919.5C 1925.5,943.498 1925.67,967.498 1925.5,991.5C 1920.14,995.981 1913.97,997.648 1907,996.5C 1905.97,996.836 1905.47,997.503 1905.5,998.5C 1905.5,1000.17 1905.5,1001.83 1905.5,1003.5C 1903.83,1003.5 1902.17,1003.5 1900.5,1003.5C 1900.34,1001.85 1899.67,1000.51 1898.5,999.5C 1898.5,999.167 1898.5,998.833 1898.5,998.5C 1898.5,997.833 1898.17,997.5 1897.5,997.5C 1848.67,996.667 1799.67,996.167 1750.5,996C 1746.14,995.184 1742.14,993.684 1738.5,991.5C 1738.33,966.164 1738.5,940.831 1739,915.5C 1740.26,912.644 1741.76,909.977 1743.5,907.5C 1743.5,907.167 1743.5,906.833 1743.5,906.5C 1802.14,905.516 1860.81,905.182 1919.5,905.5 Z"/></g>
<g><path style="opacity:1" fill="#becce5" d="M 1759.5,927.5 C 1807.5,927.5 1855.5,927.5 1903.5,927.5C 1855.83,928.167 1808.17,928.833 1760.5,929.5C 1760.17,929.5 1759.83,929.5 1759.5,929.5C 1759.5,928.833 1759.5,928.167 1759.5,927.5 Z"/></g>
<g><path style="opacity:1" fill="#dbedfe" d="M 1903.5,927.5 C 1904.17,927.5 1904.83,927.5 1905.5,927.5C 1857.51,929.495 1809.18,930.162 1760.5,929.5C 1808.17,928.833 1855.83,928.167 1903.5,927.5 Z"/></g>
<g><path style="opacity:1" fill="#3f5cc3" d="M 1919.5,906.5 C 1922.72,907.41 1925.39,909.077 1927.5,911.5C 1927.5,938.167 1927.5,964.833 1927.5,991.5C 1926.83,991.5 1926.17,991.5 1925.5,991.5C 1925.67,967.498 1925.5,943.498 1925,919.5C 1924.67,916.833 1924.33,914.167 1924,911.5C 1922.64,909.591 1921.14,907.924 1919.5,906.5 Z"/></g>
<g><path style="opacity:1" fill="#4961cf" d="M 1743.5,907.5 C 1741.76,909.977 1740.26,912.644 1739,915.5C 1738.5,940.831 1738.33,966.164 1738.5,991.5C 1738.17,991.5 1737.83,991.5 1737.5,991.5C 1737.33,965.831 1737.5,940.165 1738,914.5C 1738.43,910.928 1740.27,908.595 1743.5,907.5 Z"/></g>
<g><path style="opacity:1" fill="#92aafe" d="M 1905.5,927.5 C 1906.4,928.209 1906.74,929.209 1906.5,930.5C 1857.5,930.5 1808.5,930.5 1759.5,930.5C 1759.5,930.167 1759.5,929.833 1759.5,929.5C 1759.83,929.5 1760.17,929.5 1760.5,929.5C 1809.18,930.162 1857.51,929.495 1905.5,927.5 Z"/></g>
<g><path style="opacity:1" fill="#3f63e8" d="M 1759.5,930.5 C 1808.5,930.5 1857.5,930.5 1906.5,930.5C 1906.74,929.209 1906.4,928.209 1905.5,927.5C 1904.83,927.5 1904.17,927.5 1903.5,927.5C 1855.5,927.5 1807.5,927.5 1759.5,927.5C 1783.82,926.167 1808.49,925.5 1833.5,925.5C 1858.17,925.667 1882.83,925.833 1907.5,926C 1908.17,926.667 1908.83,927.333 1909.5,928C 1908.26,929.154 1907.26,930.488 1906.5,932C 1882,932.167 1857.5,932.333 1833,932.5C 1808.16,932.5 1783.66,931.833 1759.5,930.5 Z"/></g>
<g><path style="opacity:1" fill="#525a6b" d="M 1927.5,911.5 C 1928.22,911.918 1928.72,912.584 1929,913.5C 1929.67,938.5 1929.67,963.5 1929,988.5C 1928.77,989.737 1928.27,990.737 1927.5,991.5C 1927.5,964.833 1927.5,938.167 1927.5,911.5 Z"/></g>
<g><path style="opacity:1" fill="#c2d4fa" d="M 1905.5,949.5 C 1905.5,950.5 1905.5,951.5 1905.5,952.5C 1856.83,952.5 1808.17,952.5 1759.5,952.5C 1759.5,951.5 1759.5,950.5 1759.5,949.5C 1808.17,949.5 1856.83,949.5 1905.5,949.5 Z"/></g>
<g><path style="opacity:1" fill="#4566cc" d="M 1905.5,949.5 C 1906.25,950.531 1906.92,951.698 1907.5,953C 1858,953.832 1808.66,953.665 1759.5,952.5C 1808.17,952.5 1856.83,952.5 1905.5,952.5C 1905.5,951.5 1905.5,950.5 1905.5,949.5 Z"/></g>
<g><path style="opacity:1" fill="#d4ecff" d="M 1759.5,972.5 C 1856.83,973.167 1856.83,973.833 1759.5,974.5C 1759.5,973.833 1759.5,973.167 1759.5,972.5 Z"/></g>
<g><path style="opacity:1" fill="#4f66ac" d="M 1759.5,972.5 C 1783.99,971.502 1808.66,971.169 1833.5,971.5C 1833.5,972.833 1833.5,974.167 1833.5,975.5C 1808.66,975.831 1783.99,975.498 1759.5,974.5C 1856.83,973.833 1856.83,973.167 1759.5,972.5 Z"/></g>
<g><path style="opacity:1" fill="#324257" d="M 1925.5,991.5 C 1926.17,991.5 1926.83,991.5 1927.5,991.5C 1926.5,995.833 1923.83,998.5 1919.5,999.5C 1919.78,998.222 1920.45,997.222 1921.5,996.5C 1923.59,995.415 1924.92,993.749 1925.5,991.5 Z"/></g>
<g><path style="opacity:1" fill="#4160e5" d="M 1738.5,991.5 C 1742.14,993.684 1746.14,995.184 1750.5,996C 1799.67,996.167 1848.67,996.667 1897.5,997.5C 1846.15,997.811 1794.81,997.477 1743.5,996.5C 1741.48,995.145 1739.81,993.479 1738.5,991.5 Z"/></g>
<g><path style="opacity:1" fill="#4c65c9" d="M 1743.5,996.5 C 1794.81,997.477 1846.15,997.811 1897.5,997.5C 1898.17,997.5 1898.5,997.833 1898.5,998.5C 1848.17,998.667 1797.83,998.5 1747.5,998C 1745.94,997.79 1744.61,997.29 1743.5,996.5 Z"/></g>
<g><path style="opacity:1" fill="#4861cc" d="M 1925.5,991.5 C 1924.92,993.749 1923.59,995.415 1921.5,996.5C 1916.4,998.262 1911.07,998.929 1905.5,998.5C 1905.47,997.503 1905.97,996.836 1907,996.5C 1913.97,997.648 1920.14,995.981 1925.5,991.5 Z"/></g>
<g><path style="opacity:1" fill="#273a72" d="M 1737.5,991.5 C 1737.83,991.5 1738.17,991.5 1738.5,991.5C 1739.81,993.479 1741.48,995.145 1743.5,996.5C 1744.61,997.29 1745.94,997.79 1747.5,998C 1797.83,998.5 1848.17,998.667 1898.5,998.5C 1898.5,998.833 1898.5,999.167 1898.5,999.5C 1847.5,999.5 1796.5,999.5 1745.5,999.5C 1742.01,998.687 1739.34,996.687 1737.5,993.5C 1737.5,992.833 1737.5,992.167 1737.5,991.5 Z"/></g>
<g><path style="opacity:1" fill="#313d54" d="M 1745.5,999.5 C 1796.5,999.5 1847.5,999.5 1898.5,999.5C 1899.67,1000.51 1900.34,1001.85 1900.5,1003.5C 1902.21,1004.74 1904.21,1005.41 1906.5,1005.5C 1906.5,1003.5 1906.5,1001.5 1906.5,999.5C 1910.83,999.5 1915.17,999.5 1919.5,999.5C 1915.7,1000.48 1911.7,1000.82 1907.5,1000.5C 1907.99,1002.81 1908.33,1005.14 1908.5,1007.5C 1903.4,1008.06 1899.74,1006.06 1897.5,1001.5C 1846.67,1000.83 1796,1000.17 1745.5,999.5 Z"/></g>
<g><path style="opacity:1" fill="#324285" d="M 1921.5,996.5 C 1920.45,997.222 1919.78,998.222 1919.5,999.5C 1915.17,999.5 1910.83,999.5 1906.5,999.5C 1906.5,1001.5 1906.5,1003.5 1906.5,1005.5C 1904.21,1005.41 1902.21,1004.74 1900.5,1003.5C 1902.17,1003.5 1903.83,1003.5 1905.5,1003.5C 1905.5,1001.83 1905.5,1000.17 1905.5,998.5C 1911.07,998.929 1916.4,998.262 1921.5,996.5 Z"/></g>
<g><path style="opacity:1" fill="#5c5e63" d="M 1601.5,1030.5 C 1706.83,1030.33 1812.17,1030.5 1917.5,1031C 1923.49,1033.66 1927.33,1038.16 1929,1044.5C 1929.67,1056.17 1929.67,1067.83 1929,1079.5C 1926.13,1090.53 1918.96,1095.53 1907.5,1094.5C 1907.83,1097.17 1908.17,1099.83 1908.5,1102.5C 1903.06,1103.07 1899.39,1100.74 1897.5,1095.5C 1799.17,1094.67 1700.84,1094.17 1602.5,1094C 1597.48,1092.32 1593.65,1089.15 1591,1084.5C 1589.89,1077.24 1589.39,1069.91 1589.5,1062.5C 1589.39,1055.09 1589.89,1047.76 1591,1040.5C 1593.11,1035.56 1596.61,1032.22 1601.5,1030.5 Z"/></g>
<g><path style="opacity:1" fill="#fefefe" d="M 1599.5,1033.5 C 1705.83,1033.33 1812.17,1033.5 1918.5,1034C 1922.06,1035.89 1924.56,1038.73 1926,1042.5C 1926.67,1055.5 1926.67,1068.5 1926,1081.5C 1922.14,1090.51 1915.31,1093.84 1905.5,1091.5C 1905.5,1094.17 1905.5,1096.83 1905.5,1099.5C 1903.61,1099.7 1902.11,1099.04 1901,1097.5C 1900.16,1095.65 1899.33,1093.82 1898.5,1092C 1799.17,1091.67 1699.83,1091.33 1600.5,1091C 1596.21,1088.71 1593.38,1085.21 1592,1080.5C 1591.33,1068.5 1591.33,1056.5 1592,1044.5C 1593.55,1040.13 1596.05,1036.46 1599.5,1033.5 Z"/></g>
<g><path style="opacity:1" fill="#3b3c3d" d="M 1611.5,1050.5 C 1711.5,1050.17 1811.5,1050.5 1911.5,1051.5C 1861.5,1051.83 1811.5,1052.17 1761.5,1052.5C 1711.16,1052.5 1661.16,1051.83 1611.5,1050.5 Z"/></g>
<g><path style="opacity:1" fill="#6a6b6f" d="M 1611.5,1072.5 C 1711.5,1072.5 1811.5,1072.5 1911.5,1072.5C 1911.5,1073.5 1911.5,1074.5 1911.5,1075.5C 1811.5,1075.5 1711.5,1075.5 1611.5,1075.5C 1611.5,1074.5 1611.5,1073.5 1611.5,1072.5 Z"/></g>
</svg>
