<?xml version="1.0" encoding="UTF-8"?>
<!DOCTYPE svg PUBLIC "-//W3C//DTD SVG 1.1//EN" "http://www.w3.org/Graphics/SVG/1.1/DTD/svg11.dtd">
<svg xmlns="http://www.w3.org/2000/svg" version="1.1" width="2000px" height="1125px" style="shape-rendering:geometricPrecision; text-rendering:geometricPrecision; image-rendering:optimizeQuality; fill-rule:evenodd; clip-rule:evenodd" xmlns:xlink="http://www.w3.org/1999/xlink">
<g><path style="opacity:1" fill="#edf0f5" d="M -0.5,-0.5 C 38.1667,-0.5 76.8333,-0.5 115.5,-0.5C 115.5,60.5 115.5,121.5 115.5,182.5C 116.5,182.5 117.5,182.5 118.5,182.5C 118.5,121.5 118.5,60.5 118.5,-0.5C 611.833,-0.5 1105.17,-0.5 1598.5,-0.5C 1598.33,19.8361 1598.5,40.1694 1599,60.5C 1599.23,61.7375 1599.73,62.7375 1600.5,63.5C 1604.94,71.0316 1611.61,73.6983 1620.5,71.5C 1620.33,73.861 1619.99,76.1944 1619.5,78.5C 1625.41,79.3913 1629.08,77.058 1630.5,71.5C 1730.17,71.6667 1829.83,71.5 1929.5,71C 1930.42,70.7216 1931.08,70.2216 1931.5,69.5C 1934.83,67.8658 1937,65.1991 1938,61.5C 1938.5,40.836 1938.67,20.1694 1938.5,-0.5C 1958.83,-0.5 1979.17,-0.5 1999.5,-0.5C 1999.5,64.1667 1999.5,128.833 1999.5,193.5C 1926.85,192.346 1854.19,192.179 1781.5,193C 1774.6,195.568 1770.1,200.402 1768,207.5C 1767.33,226.5 1767.33,245.5 1768,264.5C 1769.67,270.841 1773.51,275.341 1779.5,278C 1843.77,279.489 1908.11,279.989 1972.5,279.5C 1974.75,285.973 1979.42,288.973 1986.5,288.5C 1986.04,285.518 1985.7,282.518 1985.5,279.5C 1990.2,279.563 1994.87,279.229 1999.5,278.5C 1999.5,296.833 1999.5,315.167 1999.5,333.5C 1962.17,333.333 1924.83,333.5 1887.5,334C 1881.73,335.126 1877.57,338.293 1875,343.5C 1874.33,439.833 1874.33,536.167 1875,632.5C 1876.27,638.849 1880.1,642.682 1886.5,644C 1889.88,644.176 1893.22,644.676 1896.5,645.5C 1895.65,647.409 1895.32,649.409 1895.5,651.5C 1900.42,651.752 1904.09,649.752 1906.5,645.5C 1937.49,644.5 1968.49,644.167 1999.5,644.5C 1999.5,804.5 1999.5,964.5 1999.5,1124.5C 1332.83,1124.5 666.167,1124.5 -0.5,1124.5C -0.5,749.5 -0.5,374.5 -0.5,-0.5 Z"/></g>
<g><path style="opacity:1" fill="#575a5f" d="M 115.5,-0.5 C 116.5,-0.5 117.5,-0.5 118.5,-0.5C 118.5,60.5 118.5,121.5 118.5,182.5C 117.5,182.5 116.5,182.5 115.5,182.5C 115.5,121.5 115.5,60.5 115.5,-0.5 Z"/></g>
<g><path style="opacity:1" fill="#424a63" d="M 1598.5,-0.5 C 1599.17,-0.5 1599.83,-0.5 1600.5,-0.5C 1600.5,20.8333 1600.5,42.1667 1600.5,63.5C 1599.73,62.7375 1599.23,61.7375 1599,60.5C 1598.5,40.1694 1598.33,19.8361 1598.5,-0.5 Z"/></g>
<g><path style="opacity:1" fill="#394b93" d="M 1600.5,-0.5 C 1600.83,-0.5 1601.17,-0.5 1601.5,-0.5C 1601.19,20.879 1601.52,42.2123 1602.5,63.5C 1601.83,63.5 1601.17,63.5 1600.5,63.5C 1600.5,42.1667 1600.5,20.8333 1600.5,-0.5 Z"/></g>
<g><path style="opacity:1" fill="#3b63f6" d="M 1601.5,-0.5 C 1605.83,-0.5 1610.17,-0.5 1614.5,-0.5C 1614.17,15.5139 1614.5,31.5139 1615.5,47.5C 1619.32,45.7808 1619.32,43.9475 1615.5,42C 1616.38,40.4453 1616.38,38.7786 1615.5,37C 1615.84,35.6349 1616.51,34.4682 1617.5,33.5C 1616.24,29.8559 1615.57,26.0225 1615.5,22C 1615.83,18.5 1616.17,15 1616.5,11.5C 1618.11,10.6798 1618.78,9.34642 1618.5,7.5C 1617.5,7.5 1616.5,7.5 1615.5,7.5C 1615.5,6.5 1615.5,5.5 1615.5,4.5C 1618.98,4.32763 1621.98,5.32763 1624.5,7.5C 1631.93,5.30002 1639.43,4.96668 1647,6.5C 1733.18,6.15877 1819.35,5.15877 1905.5,3.5C 1906.17,3.83333 1906.83,4.16667 1907.5,4.5C 1905.4,5.96521 1903.23,7.29854 1901,8.5C 1812.02,7.71633 1723.02,7.38299 1634,7.5C 1631,8.64895 1628.16,9.98228 1625.5,11.5C 1718.56,11.3382 1811.89,11.5049 1905.5,12C 1907.06,12.21 1908.39,12.71 1909.5,13.5C 1815.5,13.5 1721.5,13.5 1627.5,13.5C 1626.21,14.5417 1626.21,15.7083 1627.5,17C 1721.83,17.6667 1816.17,17.6667 1910.5,17C 1911.57,16.1482 1912.57,15.3149 1913.5,14.5C 1916.96,15.5148 1917.29,14.6814 1914.5,12C 1911.52,11.304 1908.52,10.804 1905.5,10.5C 1905.5,9.5 1905.5,8.5 1905.5,7.5C 1908.83,7.5 1912.17,7.5 1915.5,7.5C 1915.71,5.85613 1915.38,4.35613 1914.5,3C 1910.71,1.88642 1907.04,0.719755 1903.5,-0.5C 1914.17,-0.5 1924.83,-0.5 1935.5,-0.5C 1935.5,19.8333 1935.5,40.1667 1935.5,60.5C 1935.5,61.5 1935.5,62.5 1935.5,63.5C 1934.5,63.5 1933.5,63.5 1932.5,63.5C 1932.91,65.9726 1931.91,67.3059 1929.5,67.5C 1829.37,68.1622 1729.37,68.8289 1629.5,69.5C 1628.27,70.937 1627.27,72.6036 1626.5,74.5C 1625.68,75.3857 1624.68,75.719 1623.5,75.5C 1623.5,73.5 1623.5,71.5 1623.5,69.5C 1618.16,69.666 1612.82,69.4994 1607.5,69C 1605.23,67.5736 1603.57,65.7402 1602.5,63.5C 1601.52,42.2123 1601.19,20.879 1601.5,-0.5 Z"/></g>
<g><path style="opacity:1" fill="#364ea1" d="M 1935.5,-0.5 C 1936.17,-0.5 1936.83,-0.5 1937.5,-0.5C 1937.67,19.1695 1937.5,38.8362 1937,58.5C 1936.72,59.4158 1936.22,60.0825 1935.5,60.5C 1935.5,40.1667 1935.5,19.8333 1935.5,-0.5 Z"/></g>
<g><path style="opacity:1" fill="#3b62f9" d="M 1614.5,-0.5 C 1614.83,-0.5 1615.17,-0.5 1615.5,-0.5C 1618.28,1.22399 1621.44,2.55732 1625,3.5C 1626.98,3.25873 1628.82,2.59206 1630.5,1.5C 1721.13,2.83059 1811.79,2.83059 1902.5,1.5C 1897.35,0.833163 1892.35,0.166497 1887.5,-0.5C 1892.83,-0.5 1898.17,-0.5 1903.5,-0.5C 1907.04,0.719755 1910.71,1.88642 1914.5,3C 1915.38,4.35613 1915.71,5.85613 1915.5,7.5C 1912.17,7.5 1908.83,7.5 1905.5,7.5C 1905.5,8.5 1905.5,9.5 1905.5,10.5C 1908.52,10.804 1911.52,11.304 1914.5,12C 1917.29,14.6814 1916.96,15.5148 1913.5,14.5C 1912.33,12.8906 1911,12.5573 1909.5,13.5C 1908.39,12.71 1907.06,12.21 1905.5,12C 1811.89,11.5049 1718.56,11.3382 1625.5,11.5C 1628.16,9.98228 1631,8.64895 1634,7.5C 1723.02,7.38299 1812.02,7.71633 1901,8.5C 1903.23,7.29854 1905.4,5.96521 1907.5,4.5C 1906.83,4.16667 1906.17,3.83333 1905.5,3.5C 1819.35,5.15877 1733.18,6.15877 1647,6.5C 1639.43,4.96668 1631.93,5.30002 1624.5,7.5C 1621.98,5.32763 1618.98,4.32763 1615.5,4.5C 1615.5,5.5 1615.5,6.5 1615.5,7.5C 1616.5,7.5 1617.5,7.5 1618.5,7.5C 1618.78,9.34642 1618.11,10.6798 1616.5,11.5C 1616.17,15 1615.83,18.5 1615.5,22C 1615.57,26.0225 1616.24,29.8559 1617.5,33.5C 1616.51,34.4682 1615.84,35.6349 1615.5,37C 1616.38,38.7786 1616.38,40.4453 1615.5,42C 1619.32,43.9475 1619.32,45.7808 1615.5,47.5C 1614.5,31.5139 1614.17,15.5139 1614.5,-0.5 Z"/></g>
<g><path style="opacity:1" fill="#3a63f6" d="M 1615.5,-0.5 C 1706.17,-0.5 1796.83,-0.5 1887.5,-0.5C 1892.35,0.166497 1897.35,0.833163 1902.5,1.5C 1811.79,2.83059 1721.13,2.83059 1630.5,1.5C 1628.82,2.59206 1626.98,3.25873 1625,3.5C 1621.44,2.55732 1618.28,1.22399 1615.5,-0.5 Z"/></g>
<g><path style="opacity:1" fill="#4063e8" d="M 1913.5,14.5 C 1912.57,15.3149 1911.57,16.1482 1910.5,17C 1816.17,17.6667 1721.83,17.6667 1627.5,17C 1626.21,15.7083 1626.21,14.5417 1627.5,13.5C 1674.16,14.8333 1721.16,15.4999 1768.5,15.5C 1815.84,15.4999 1862.84,14.8333 1909.5,13.5C 1911,12.5573 1912.33,12.8906 1913.5,14.5 Z"/></g>
<g><path style="opacity:1" fill="#e3eef7" d="M 1627.5,13.5 C 1721.5,13.5 1815.5,13.5 1909.5,13.5C 1862.84,14.8333 1815.84,15.4999 1768.5,15.5C 1721.16,15.4999 1674.16,14.8333 1627.5,13.5 Z"/></g>
<g><path style="opacity:1" fill="#353c62" d="M 1937.5,-0.5 C 1937.83,-0.5 1938.17,-0.5 1938.5,-0.5C 1938.67,20.1694 1938.5,40.836 1938,61.5C 1937,65.1991 1934.83,67.8658 1931.5,69.5C 1930.5,69.5 1929.5,69.5 1928.5,69.5C 1928.83,68.8333 1929.17,68.1667 1929.5,67.5C 1931.91,67.3059 1932.91,65.9726 1932.5,63.5C 1933.5,63.5 1934.5,63.5 1935.5,63.5C 1935.5,62.5 1935.5,61.5 1935.5,60.5C 1936.22,60.0825 1936.72,59.4158 1937,58.5C 1937.5,38.8362 1937.67,19.1695 1937.5,-0.5 Z"/></g>
<g><path style="opacity:1" fill="#4464c8" d="M 1768.5,38.5 C 1768.5,37.5 1768.5,36.5 1768.5,35.5C 1721.5,35.1667 1674.5,35.5001 1627.5,36.5C 1627.86,37.1835 1628.2,37.8501 1628.5,38.5C 1626.82,37.8166 1626.16,36.4832 1626.5,34.5C 1674.17,34.5 1721.83,34.5 1769.5,34.5C 1769.77,36.099 1769.43,37.4324 1768.5,38.5 Z"/></g>
<g><path style="opacity:1" fill="#bdcbfb" d="M 1768.5,38.5 C 1721.83,38.5 1675.17,38.5 1628.5,38.5C 1628.2,37.8501 1627.86,37.1835 1627.5,36.5C 1674.5,35.5001 1721.5,35.1667 1768.5,35.5C 1768.5,36.5 1768.5,37.5 1768.5,38.5 Z"/></g>
<g><path style="opacity:1" fill="#4365ce" d="M 1929.5,67.5 C 1929.17,68.1667 1928.83,68.8333 1928.5,69.5C 1828.83,69.5 1729.17,69.5 1629.5,69.5C 1729.37,68.8289 1829.37,68.1622 1929.5,67.5 Z"/></g>
<g><path style="opacity:1" fill="#2e3d68" d="M 1600.5,63.5 C 1601.17,63.5 1601.83,63.5 1602.5,63.5C 1603.57,65.7402 1605.23,67.5736 1607.5,69C 1612.82,69.4994 1618.16,69.666 1623.5,69.5C 1623.5,71.5 1623.5,73.5 1623.5,75.5C 1624.68,75.719 1625.68,75.3857 1626.5,74.5C 1627.27,72.6036 1628.27,70.937 1629.5,69.5C 1729.17,69.5 1828.83,69.5 1928.5,69.5C 1829.17,70.1667 1729.83,70.8333 1630.5,71.5C 1629.08,77.058 1625.41,79.3913 1619.5,78.5C 1619.99,76.1944 1620.33,73.861 1620.5,71.5C 1611.61,73.6983 1604.94,71.0316 1600.5,63.5 Z"/></g>
<g><path style="opacity:1" fill="#393b43" d="M 1928.5,69.5 C 1929.5,69.5 1930.5,69.5 1931.5,69.5C 1931.08,70.2216 1930.42,70.7216 1929.5,71C 1829.83,71.5 1730.17,71.6667 1630.5,71.5C 1729.83,70.8333 1829.17,70.1667 1928.5,69.5 Z"/></g>
<g><path style="opacity:1" fill="#fdfdfd" d="M 1851.5,117.5 C 1868.17,117.333 1884.84,117.5 1901.5,118C 1904.67,119.167 1906.83,121.333 1908,124.5C 1908.67,142.5 1908.67,160.5 1908,178.5C 1906.61,182.556 1903.78,184.723 1899.5,185C 1883.5,185.667 1867.5,185.667 1851.5,185C 1848.26,184.768 1845.76,183.268 1844,180.5C 1842.36,161.924 1842.03,143.257 1843,124.5C 1844.87,120.784 1847.7,118.45 1851.5,117.5 Z"/></g>
<g><path style="opacity:1" fill="#4e4f52" d="M 1872.5,131.5 C 1881.7,131.513 1888.53,135.513 1893,143.5C 1895.24,150.028 1894.74,156.361 1891.5,162.5C 1895.48,164.17 1896.48,167.004 1894.5,171C 1885.44,171.881 1876.44,171.548 1867.5,170C 1856.81,164.107 1853.31,155.273 1857,143.5C 1860.67,137.432 1865.83,133.432 1872.5,131.5 Z"/></g>
<g><path style="opacity:1" fill="#fbfbfb" d="M 1871.5,134.5 C 1886.5,134.33 1893.33,141.663 1892,156.5C 1890.75,159.329 1889.25,161.995 1887.5,164.5C 1889.05,165.452 1890.71,165.785 1892.5,165.5C 1892.5,166.5 1892.5,167.5 1892.5,168.5C 1885.16,168.666 1877.83,168.5 1870.5,168C 1859.87,163.568 1856.03,155.734 1859,144.5C 1861.89,139.434 1866.05,136.101 1871.5,134.5 Z"/></g>
<g><path style="opacity:1" fill="#fefefe" d="M 1999.5,196.5 C 1999.5,222.833 1999.5,249.167 1999.5,275.5C 1994.2,276.177 1988.87,276.677 1983.5,277C 1982.21,279.466 1982.21,281.966 1983.5,284.5C 1978.11,285.479 1974.77,283.146 1973.5,277.5C 1909.17,276.667 1844.84,276.167 1780.5,276C 1775.56,273.623 1772.4,269.79 1771,264.5C 1770.33,244.833 1770.33,225.167 1771,205.5C 1773.71,199.726 1778.21,196.226 1784.5,195C 1854.17,194.333 1923.83,194.333 1993.5,195C 1995.52,195.505 1997.52,196.005 1999.5,196.5 Z"/></g>
<g><path style="opacity:1" fill="#5c5d5f" d="M 1794.5,211.5 C 1858.84,210.837 1922.84,211.504 1986.5,213.5C 1922.16,214.163 1858.16,213.496 1794.5,211.5 Z"/></g>
<g><path style="opacity:1" fill="#959698" d="M 1794.5,211.5 C 1858.16,213.496 1922.16,214.163 1986.5,213.5C 1922.34,214.499 1858,214.832 1793.5,214.5C 1793.26,213.209 1793.6,212.209 1794.5,211.5 Z"/></g>
<g><path style="opacity:1" fill="#969798" d="M 1985.5,236.5 C 1954.01,235.167 1922.17,234.5 1890,234.5C 1857.83,234.5 1825.99,235.167 1794.5,236.5C 1793.6,235.791 1793.26,234.791 1793.5,233.5C 1857.83,233.5 1922.17,233.5 1986.5,233.5C 1986.74,234.791 1986.4,235.791 1985.5,236.5 Z"/></g>
<g><path style="opacity:1" fill="#5c5d60" d="M 1985.5,236.5 C 1921.83,236.5 1858.17,236.5 1794.5,236.5C 1825.99,235.167 1857.83,234.5 1890,234.5C 1922.17,234.5 1954.01,235.167 1985.5,236.5 Z"/></g>
<g><path style="opacity:1" fill="#3b3c3f" d="M 1793.5,256.5 C 1813.18,256.167 1832.84,256.5 1852.5,257.5C 1842.67,257.833 1832.83,258.167 1823,258.5C 1812.81,258.499 1802.98,257.832 1793.5,256.5 Z"/></g>
<g><path style="opacity:1" fill="#4f5257" d="M 1999.5,193.5 C 1999.5,194.5 1999.5,195.5 1999.5,196.5C 1997.52,196.005 1995.52,195.505 1993.5,195C 1923.83,194.333 1854.17,194.333 1784.5,195C 1778.21,196.226 1773.71,199.726 1771,205.5C 1770.33,225.167 1770.33,244.833 1771,264.5C 1772.4,269.79 1775.56,273.623 1780.5,276C 1844.84,276.167 1909.17,276.667 1973.5,277.5C 1974.77,283.146 1978.11,285.479 1983.5,284.5C 1982.21,281.966 1982.21,279.466 1983.5,277C 1988.87,276.677 1994.2,276.177 1999.5,275.5C 1999.5,276.5 1999.5,277.5 1999.5,278.5C 1994.87,279.229 1990.2,279.563 1985.5,279.5C 1985.7,282.518 1986.04,285.518 1986.5,288.5C 1979.42,288.973 1974.75,285.973 1972.5,279.5C 1908.11,279.989 1843.77,279.489 1779.5,278C 1773.51,275.341 1769.67,270.841 1768,264.5C 1767.33,245.5 1767.33,226.5 1768,207.5C 1770.1,200.402 1774.6,195.568 1781.5,193C 1854.19,192.179 1926.85,192.346 1999.5,193.5 Z"/></g>
<g><path style="opacity:1" fill="#c2c7cd" d="M 1999.5,336.5 C 1999.5,347.167 1999.5,357.833 1999.5,368.5C 1968,368.168 1936.66,368.502 1905.5,369.5C 1904.96,369.56 1904.62,369.893 1904.5,370.5C 1936.16,371.5 1967.83,371.833 1999.5,371.5C 1999.5,378.167 1999.5,384.833 1999.5,391.5C 1874.17,392.167 1874.17,392.833 1999.5,393.5C 1999.5,400.167 1999.5,406.833 1999.5,413.5C 1872.83,414.167 1872.83,414.833 1999.5,415.5C 1999.5,422.167 1999.5,428.833 1999.5,435.5C 1967.83,435.5 1936.17,435.5 1904.5,435.5C 1904.5,436.5 1904.5,437.5 1904.5,438.5C 1936.17,438.5 1967.83,438.5 1999.5,438.5C 1999.5,444.833 1999.5,451.167 1999.5,457.5C 1968,457.168 1936.66,457.502 1905.5,458.5C 1904.96,458.56 1904.62,458.893 1904.5,459.5C 1936.16,460.5 1967.83,460.833 1999.5,460.5C 1999.5,466.833 1999.5,473.167 1999.5,479.5C 1967.83,479.5 1936.17,479.5 1904.5,479.5C 1904.5,480.5 1904.5,481.5 1904.5,482.5C 1936.17,482.5 1967.83,482.5 1999.5,482.5C 1999.5,489.167 1999.5,495.833 1999.5,502.5C 1872.83,503.167 1872.83,503.833 1999.5,504.5C 1999.5,511.167 1999.5,517.833 1999.5,524.5C 1967.83,524.5 1936.17,524.5 1904.5,524.5C 1904.5,525.5 1904.5,526.5 1904.5,527.5C 1936.17,527.5 1967.83,527.5 1999.5,527.5C 1999.5,533.833 1999.5,540.167 1999.5,546.5C 1967.83,546.5 1936.17,546.5 1904.5,546.5C 1904.5,547.5 1904.5,548.5 1904.5,549.5C 1936.17,549.5 1967.83,549.5 1999.5,549.5C 1999.5,555.833 1999.5,562.167 1999.5,568.5C 1968,568.168 1936.66,568.502 1905.5,569.5C 1904.96,569.56 1904.62,569.893 1904.5,570.5C 1936.16,571.5 1967.83,571.833 1999.5,571.5C 1999.5,578.167 1999.5,584.833 1999.5,591.5C 1874.17,592.167 1874.17,592.833 1999.5,593.5C 1999.5,609.833 1999.5,626.167 1999.5,642.5C 1967.83,642.5 1936.17,642.5 1904.5,642.5C 1904.34,645.669 1902.67,647.669 1899.5,648.5C 1898.53,646.604 1898.2,644.604 1898.5,642.5C 1891.74,643.435 1885.58,642.102 1880,638.5C 1878.72,636.283 1877.72,633.949 1877,631.5C 1876.33,536.167 1876.33,440.833 1877,345.5C 1878.5,341.333 1881.33,338.5 1885.5,337C 1923.5,336.5 1961.5,336.333 1999.5,336.5 Z"/></g>
<g><path style="opacity:1" fill="#42464c" d="M 1999.5,333.5 C 1999.5,334.5 1999.5,335.5 1999.5,336.5C 1961.5,336.333 1923.5,336.5 1885.5,337C 1881.33,338.5 1878.5,341.333 1877,345.5C 1876.33,440.833 1876.33,536.167 1877,631.5C 1877.72,633.949 1878.72,636.283 1880,638.5C 1885.58,642.102 1891.74,643.435 1898.5,642.5C 1898.2,644.604 1898.53,646.604 1899.5,648.5C 1902.67,647.669 1904.34,645.669 1904.5,642.5C 1936.17,642.5 1967.83,642.5 1999.5,642.5C 1999.5,643.167 1999.5,643.833 1999.5,644.5C 1968.49,644.167 1937.49,644.5 1906.5,645.5C 1904.09,649.752 1900.42,651.752 1895.5,651.5C 1895.32,649.409 1895.65,647.409 1896.5,645.5C 1893.22,644.676 1889.88,644.176 1886.5,644C 1880.1,642.682 1876.27,638.849 1875,632.5C 1874.33,536.167 1874.33,439.833 1875,343.5C 1877.57,338.293 1881.73,335.126 1887.5,334C 1924.83,333.5 1962.17,333.333 1999.5,333.5 Z"/></g>
<g><path style="opacity:1" fill="#4c5157" d="M 1999.5,368.5 C 1999.5,369.167 1999.5,369.833 1999.5,370.5C 1968,370.832 1936.66,370.498 1905.5,369.5C 1936.66,368.502 1968,368.168 1999.5,368.5 Z"/></g>
<g><path style="opacity:1" fill="#5b6066" d="M 1905.5,369.5 C 1936.66,370.498 1968,370.832 1999.5,370.5C 1999.5,370.833 1999.5,371.167 1999.5,371.5C 1967.83,371.833 1936.16,371.5 1904.5,370.5C 1904.62,369.893 1904.96,369.56 1905.5,369.5 Z"/></g>
<g><path style="opacity:1" fill="#363b41" d="M 1999.5,391.5 C 1999.5,392.167 1999.5,392.833 1999.5,393.5C 1874.17,392.833 1874.17,392.167 1999.5,391.5 Z"/></g>
<g><path style="opacity:1" fill="#373c42" d="M 1999.5,413.5 C 1999.5,414.167 1999.5,414.833 1999.5,415.5C 1872.83,414.833 1872.83,414.167 1999.5,413.5 Z"/></g>
<g><path style="opacity:1" fill="#60656b" d="M 1999.5,435.5 C 1999.5,436.5 1999.5,437.5 1999.5,438.5C 1967.83,438.5 1936.17,438.5 1904.5,438.5C 1904.5,437.5 1904.5,436.5 1904.5,435.5C 1936.17,435.5 1967.83,435.5 1999.5,435.5 Z"/></g>
<g><path style="opacity:1" fill="#4c5157" d="M 1999.5,457.5 C 1999.5,458.167 1999.5,458.833 1999.5,459.5C 1968,459.832 1936.66,459.498 1905.5,458.5C 1936.66,457.502 1968,457.168 1999.5,457.5 Z"/></g>
<g><path style="opacity:1" fill="#5a5f65" d="M 1905.5,458.5 C 1936.66,459.498 1968,459.832 1999.5,459.5C 1999.5,459.833 1999.5,460.167 1999.5,460.5C 1967.83,460.833 1936.16,460.5 1904.5,459.5C 1904.62,458.893 1904.96,458.56 1905.5,458.5 Z"/></g>
<g><path style="opacity:1" fill="#5a5f65" d="M 1999.5,479.5 C 1999.5,480.5 1999.5,481.5 1999.5,482.5C 1967.83,482.5 1936.17,482.5 1904.5,482.5C 1904.5,481.5 1904.5,480.5 1904.5,479.5C 1936.17,479.5 1967.83,479.5 1999.5,479.5 Z"/></g>
<g><path style="opacity:1" fill="#373c42" d="M 1999.5,502.5 C 1999.5,503.167 1999.5,503.833 1999.5,504.5C 1872.83,503.833 1872.83,503.167 1999.5,502.5 Z"/></g>
<g><path style="opacity:1" fill="#61666c" d="M 1999.5,524.5 C 1999.5,525.5 1999.5,526.5 1999.5,527.5C 1967.83,527.5 1936.17,527.5 1904.5,527.5C 1904.5,526.5 1904.5,525.5 1904.5,524.5C 1936.17,524.5 1967.83,524.5 1999.5,524.5 Z"/></g>
<g><path style="opacity:1" fill="#5f646a" d="M 1999.5,546.5 C 1999.5,547.5 1999.5,548.5 1999.5,549.5C 1967.83,549.5 1936.17,549.5 1904.5,549.5C 1904.5,548.5 1904.5,547.5 1904.5,546.5C 1936.17,546.5 1967.83,546.5 1999.5,546.5 Z"/></g>
<g><path style="opacity:1" fill="#4c5157" d="M 1999.5,568.5 C 1999.5,569.167 1999.5,569.833 1999.5,570.5C 1968,570.832 1936.66,570.498 1905.5,569.5C 1936.66,568.502 1968,568.168 1999.5,568.5 Z"/></g>
<g><path style="opacity:1" fill="#5b6066" d="M 1905.5,569.5 C 1936.66,570.498 1968,570.832 1999.5,570.5C 1999.5,570.833 1999.5,571.167 1999.5,571.5C 1967.83,571.833 1936.16,571.5 1904.5,570.5C 1904.62,569.893 1904.96,569.56 1905.5,569.5 Z"/></g>
<g><path style="opacity:1" fill="#363b41" d="M 1999.5,591.5 C 1999.5,592.167 1999.5,592.833 1999.5,593.5C 1874.17,592.833 1874.17,592.167 1999.5,591.5 Z"/></g>
<g><path style="opacity:1" fill="#373c42" d="M 1904.5,613.5 C 1925.18,613.167 1945.84,613.5 1966.5,614.5C 1956.17,614.833 1945.83,615.167 1935.5,615.5C 1924.81,615.499 1914.48,614.832 1904.5,613.5 Z"/></g>
</svg>
