<?xml version="1.0" encoding="UTF-8"?>
<!DOCTYPE svg PUBLIC "-//W3C//DTD SVG 1.1//EN" "http://www.w3.org/Graphics/SVG/1.1/DTD/svg11.dtd">
<svg xmlns="http://www.w3.org/2000/svg" version="1.1" width="2000px" height="1125px" style="shape-rendering:geometricPrecision; text-rendering:geometricPrecision; image-rendering:optimizeQuality; fill-rule:evenodd; clip-rule:evenodd" xmlns:xlink="http://www.w3.org/1999/xlink">
<g><path style="opacity:1" fill="#eef0f6" d="M -0.5,-0.5 C 38.1667,-0.5 76.8333,-0.5 115.5,-0.5C 115.5,60.5 115.5,121.5 115.5,182.5C 116.5,182.5 117.5,182.5 118.5,182.5C 118.5,121.5 118.5,60.5 118.5,-0.5C 745.5,-0.5 1372.5,-0.5 1999.5,-0.5C 1999.5,214.5 1999.5,429.5 1999.5,644.5C 1956.83,644.333 1914.17,644.5 1871.5,645C 1866.14,645.171 1860.8,645.671 1855.5,646.5C 1903.48,646.608 1951.48,646.608 1999.5,646.5C 1999.5,647.167 1999.5,647.833 1999.5,648.5C 1952.17,648.333 1904.83,648.5 1857.5,649C 1856.58,649.278 1855.92,649.778 1855.5,650.5C 1848.54,652.089 1844.54,656.422 1843.5,663.5C 1842.34,682.996 1842.17,702.662 1843,722.5C 1844.44,728.419 1847.94,732.419 1853.5,734.5C 1854.21,735.404 1855.21,735.737 1856.5,735.5C 1859.62,736.479 1862.96,736.813 1866.5,736.5C 1866.3,739.518 1865.96,742.518 1865.5,745.5C 1872.61,745.785 1877.61,742.785 1880.5,736.5C 1920.17,736.5 1959.83,736.5 1999.5,736.5C 1999.5,750.833 1999.5,765.167 1999.5,779.5C 1962.17,779.333 1924.83,779.5 1887.5,780C 1883.39,781.779 1880.22,784.612 1878,788.5C 1876.84,837.109 1876.34,885.776 1876.5,934.5C 1876.67,982.167 1876.83,1029.83 1877,1077.5C 1877.28,1078.42 1877.78,1079.08 1878.5,1079.5C 1879.14,1083.27 1881.14,1086.1 1884.5,1088C 1889.38,1089.54 1894.04,1091.04 1898.5,1092.5C 1898.5,1093.83 1898.5,1095.17 1898.5,1096.5C 1903.2,1097.45 1906.53,1095.78 1908.5,1091.5C 1938.83,1090.5 1969.16,1090.17 1999.5,1090.5C 1999.5,1101.83 1999.5,1113.17 1999.5,1124.5C 1947.5,1124.5 1895.5,1124.5 1843.5,1124.5C 1843.67,1112.5 1843.5,1100.5 1843,1088.5C 1840.87,1082.7 1837.03,1078.54 1831.5,1076C 1803,1075.83 1774.5,1075.67 1746,1075.5C 1716.44,1075.34 1686.94,1075.84 1657.5,1077C 1653.18,1079.32 1650.35,1082.82 1649,1087.5C 1648.5,1099.83 1648.33,1112.16 1648.5,1124.5C 1098.83,1124.5 549.167,1124.5 -0.5,1124.5C -0.5,749.5 -0.5,374.5 -0.5,-0.5 Z"/></g>
<g><path style="opacity:1" fill="#575a5f" d="M 115.5,-0.5 C 116.5,-0.5 117.5,-0.5 118.5,-0.5C 118.5,60.5 118.5,121.5 118.5,182.5C 117.5,182.5 116.5,182.5 115.5,182.5C 115.5,121.5 115.5,60.5 115.5,-0.5 Z"/></g>
<g><path style="opacity:1" fill="#eef2f0" d="M 1999.5,644.5 C 1999.5,645.167 1999.5,645.833 1999.5,646.5C 1951.48,646.608 1903.48,646.608 1855.5,646.5C 1860.8,645.671 1866.14,645.171 1871.5,645C 1914.17,644.5 1956.83,644.333 1999.5,644.5 Z"/></g>
<g><path style="opacity:1" fill="#515466" d="M 1999.5,648.5 C 1999.5,649.167 1999.5,649.833 1999.5,650.5C 1951.5,650.5 1903.5,650.5 1855.5,650.5C 1855.92,649.778 1856.58,649.278 1857.5,649C 1904.83,648.5 1952.17,648.333 1999.5,648.5 Z"/></g>
<g><path style="opacity:1" fill="#2f4376" d="M 1855.5,650.5 C 1903.5,650.5 1951.5,650.5 1999.5,650.5C 1999.5,650.833 1999.5,651.167 1999.5,651.5C 1951.5,651.333 1903.5,651.5 1855.5,652C 1852.35,652.649 1850.35,654.482 1849.5,657.5C 1848.5,658.167 1847.5,658.833 1846.5,659.5C 1845.78,659.918 1845.28,660.584 1845,661.5C 1844.5,680.83 1844.33,700.164 1844.5,719.5C 1843.5,701.007 1843.17,682.341 1843.5,663.5C 1844.54,656.422 1848.54,652.089 1855.5,650.5 Z"/></g>
<g><path style="opacity:1" fill="#3b63f6" d="M 1999.5,651.5 C 1999.5,656.833 1999.5,662.167 1999.5,667.5C 1954.17,667.5 1908.83,667.5 1863.5,667.5C 1863.18,669.722 1863.84,671.556 1865.5,673C 1910.17,673.5 1954.83,673.667 1999.5,673.5C 1999.5,679.167 1999.5,684.833 1999.5,690.5C 1954.83,690.5 1910.17,690.5 1865.5,690.5C 1865.26,691.791 1865.6,692.791 1866.5,693.5C 1910.83,693.5 1955.17,693.5 1999.5,693.5C 1999.5,706.5 1999.5,719.5 1999.5,732.5C 1958.83,732.167 1918.16,732.5 1877.5,733.5C 1876.78,737.557 1874.44,739.89 1870.5,740.5C 1870.97,737.918 1870.31,735.918 1868.5,734.5C 1863.88,733.781 1859.22,733.281 1854.5,733C 1852.3,730.628 1849.96,728.461 1847.5,726.5C 1846.36,706.21 1846.19,685.877 1847,665.5C 1847.28,662.588 1848.11,659.921 1849.5,657.5C 1850.35,654.482 1852.35,652.649 1855.5,652C 1903.5,651.5 1951.5,651.333 1999.5,651.5 Z"/></g>
<g><path style="opacity:1" fill="#b0c4fe" d="M 1999.5,668.5 C 1999.5,668.833 1999.5,669.167 1999.5,669.5C 1954.82,668.839 1910.49,669.505 1866.5,671.5C 1865.6,670.791 1865.26,669.791 1865.5,668.5C 1910.17,668.5 1954.83,668.5 1999.5,668.5 Z"/></g>
<g><path style="opacity:1" fill="#303e57" d="M 1843.5,663.5 C 1843.17,682.341 1843.5,701.007 1844.5,719.5C 1844.23,721.099 1844.57,722.432 1845.5,723.5C 1845.43,725.027 1846.09,726.027 1847.5,726.5C 1849.09,729.431 1851.09,732.098 1853.5,734.5C 1847.94,732.419 1844.44,728.419 1843,722.5C 1842.17,702.662 1842.34,682.996 1843.5,663.5 Z"/></g>
<g><path style="opacity:1" fill="#b3c4e4" d="M 1999.5,669.5 C 1999.5,670.167 1999.5,670.833 1999.5,671.5C 1955.17,671.5 1910.83,671.5 1866.5,671.5C 1910.49,669.505 1954.82,668.839 1999.5,669.5 Z"/></g>
<g><path style="opacity:1" fill="#4661be" d="M 1846.5,659.5 C 1845.54,680.807 1845.21,702.14 1845.5,723.5C 1844.57,722.432 1844.23,721.099 1844.5,719.5C 1844.33,700.164 1844.5,680.83 1845,661.5C 1845.28,660.584 1845.78,659.918 1846.5,659.5 Z"/></g>
<g><path style="opacity:1" fill="#4462df" d="M 1849.5,657.5 C 1848.11,659.921 1847.28,662.588 1847,665.5C 1846.19,685.877 1846.36,706.21 1847.5,726.5C 1846.09,726.027 1845.43,725.027 1845.5,723.5C 1845.21,702.14 1845.54,680.807 1846.5,659.5C 1847.5,658.833 1848.5,658.167 1849.5,657.5 Z"/></g>
<g><path style="opacity:1" fill="#4363e3" d="M 1999.5,667.5 C 1999.5,667.833 1999.5,668.167 1999.5,668.5C 1954.83,668.5 1910.17,668.5 1865.5,668.5C 1865.26,669.791 1865.6,670.791 1866.5,671.5C 1910.83,671.5 1955.17,671.5 1999.5,671.5C 1999.5,672.167 1999.5,672.833 1999.5,673.5C 1954.83,673.667 1910.17,673.5 1865.5,673C 1863.84,671.556 1863.18,669.722 1863.5,667.5C 1908.83,667.5 1954.17,667.5 1999.5,667.5 Z"/></g>
<g><path style="opacity:1" fill="#95acf7" d="M 1999.5,690.5 C 1999.5,690.833 1999.5,691.167 1999.5,691.5C 1954.82,690.839 1910.49,691.505 1866.5,693.5C 1865.6,692.791 1865.26,691.791 1865.5,690.5C 1910.17,690.5 1954.83,690.5 1999.5,690.5 Z"/></g>
<g><path style="opacity:1" fill="#c6d5fb" d="M 1999.5,691.5 C 1999.5,692.167 1999.5,692.833 1999.5,693.5C 1955.17,693.5 1910.83,693.5 1866.5,693.5C 1910.49,691.505 1954.82,690.839 1999.5,691.5 Z"/></g>
<g><path style="opacity:1" fill="#4563dc" d="M 1999.5,732.5 C 1999.5,732.833 1999.5,733.167 1999.5,733.5C 1959.5,733.333 1919.5,733.5 1879.5,734C 1878.94,734.383 1878.61,734.883 1878.5,735.5C 1876.8,739.531 1873.8,742.198 1869.5,743.5C 1869.74,740.391 1869.4,737.391 1868.5,734.5C 1870.31,735.918 1870.97,737.918 1870.5,740.5C 1874.44,739.89 1876.78,737.557 1877.5,733.5C 1918.16,732.5 1958.83,732.167 1999.5,732.5 Z"/></g>
<g><path style="opacity:1" fill="#394c95" d="M 1999.5,733.5 C 1999.5,733.833 1999.5,734.167 1999.5,734.5C 1959.66,734.168 1920,734.501 1880.5,735.5C 1879.83,735.5 1879.17,735.5 1878.5,735.5C 1878.61,734.883 1878.94,734.383 1879.5,734C 1919.5,733.5 1959.5,733.333 1999.5,733.5 Z"/></g>
<g><path style="opacity:1" fill="#374174" d="M 1847.5,726.5 C 1849.96,728.461 1852.3,730.628 1854.5,733C 1859.22,733.281 1863.88,733.781 1868.5,734.5C 1869.4,737.391 1869.74,740.391 1869.5,743.5C 1867.63,741.365 1866.96,738.698 1867.5,735.5C 1863.83,735.5 1860.17,735.5 1856.5,735.5C 1855.21,735.737 1854.21,735.404 1853.5,734.5C 1851.09,732.098 1849.09,729.431 1847.5,726.5 Z"/></g>
<g><path style="opacity:1" fill="#54596b" d="M 1999.5,734.5 C 1999.5,735.167 1999.5,735.833 1999.5,736.5C 1959.83,736.5 1920.17,736.5 1880.5,736.5C 1880.5,736.167 1880.5,735.833 1880.5,735.5C 1920,734.501 1959.66,734.168 1999.5,734.5 Z"/></g>
<g><path style="opacity:1" fill="#434c5d" d="M 1856.5,735.5 C 1860.17,735.5 1863.83,735.5 1867.5,735.5C 1866.96,738.698 1867.63,741.365 1869.5,743.5C 1873.8,742.198 1876.8,739.531 1878.5,735.5C 1879.17,735.5 1879.83,735.5 1880.5,735.5C 1880.5,735.833 1880.5,736.167 1880.5,736.5C 1877.61,742.785 1872.61,745.785 1865.5,745.5C 1865.96,742.518 1866.3,739.518 1866.5,736.5C 1862.96,736.813 1859.62,736.479 1856.5,735.5 Z"/></g>
<g><path style="opacity:1" fill="#7c96d3" d="M 1999.5,781.5 C 1999.5,782.167 1999.5,782.833 1999.5,783.5C 1962.17,783.5 1924.83,783.5 1887.5,783.5C 1924.49,781.506 1961.82,780.84 1999.5,781.5 Z"/></g>
<g><path style="opacity:1" fill="#87abfc" d="M 1887.5,783.5 C 1924.83,783.5 1962.17,783.5 1999.5,783.5C 1999.5,793.5 1999.5,803.5 1999.5,813.5C 1969.82,813.81 1940.15,813.477 1910.5,812.5C 1908.97,812.64 1907.97,813.307 1907.5,814.5C 1907.5,815.5 1907.5,816.5 1907.5,817.5C 1938.17,817.5 1968.83,817.5 1999.5,817.5C 1999.5,823.833 1999.5,830.167 1999.5,836.5C 1968.66,836.169 1938,836.502 1907.5,837.5C 1905.54,837.948 1905.2,838.948 1906.5,840.5C 1907.77,841.046 1909.11,841.379 1910.5,841.5C 1940.15,840.523 1969.82,840.19 1999.5,840.5C 1999.5,846.833 1999.5,853.167 1999.5,859.5C 1876.83,860.167 1876.83,860.833 1999.5,861.5C 1999.5,868.167 1999.5,874.833 1999.5,881.5C 1876.83,882.167 1876.83,882.833 1999.5,883.5C 1999.5,889.833 1999.5,896.167 1999.5,902.5C 1968.17,902.5 1936.83,902.5 1905.5,902.5C 1905.29,904.179 1905.95,905.179 1907.5,905.5C 1938,906.498 1968.66,906.831 1999.5,906.5C 1999.5,912.833 1999.5,919.167 1999.5,925.5C 1968.83,925.5 1938.17,925.5 1907.5,925.5C 1907.5,926.5 1907.5,927.5 1907.5,928.5C 1938.17,928.5 1968.83,928.5 1999.5,928.5C 1999.5,934.5 1999.5,940.5 1999.5,946.5C 1968.93,946.829 1938.43,946.496 1908,945.5C 1907.54,946.094 1907.37,946.761 1907.5,947.5C 1907.5,948.5 1907.5,949.5 1907.5,950.5C 1938.17,950.5 1968.83,950.5 1999.5,950.5C 1999.5,957.167 1999.5,963.833 1999.5,970.5C 1968.48,969.841 1937.82,970.508 1907.5,972.5C 1937.82,974.492 1968.48,975.159 1999.5,974.5C 1999.5,980.5 1999.5,986.5 1999.5,992.5C 1968.83,992.5 1938.17,992.5 1907.5,992.5C 1907.5,993.5 1907.5,994.5 1907.5,995.5C 1938.17,995.5 1968.83,995.5 1999.5,995.5C 1999.5,1001.83 1999.5,1008.17 1999.5,1014.5C 1968.83,1014.5 1938.17,1014.5 1907.5,1014.5C 1907.5,1015.5 1907.5,1016.5 1907.5,1017.5C 1938.17,1017.5 1968.83,1017.5 1999.5,1017.5C 1999.5,1023.83 1999.5,1030.17 1999.5,1036.5C 1968.83,1036.5 1938.17,1036.5 1907.5,1036.5C 1907.26,1037.79 1907.6,1038.79 1908.5,1039.5C 1938.83,1039.5 1969.17,1039.5 1999.5,1039.5C 1999.5,1055.5 1999.5,1071.5 1999.5,1087.5C 1968.83,1087.5 1938.17,1087.5 1907.5,1087.5C 1907.17,1091.83 1904.83,1094.17 1900.5,1094.5C 1901.77,1092.33 1901.77,1090.16 1900.5,1088C 1896.17,1087.67 1891.83,1087.33 1887.5,1087C 1885.34,1086 1883.67,1084.5 1882.5,1082.5C 1881.9,1079.87 1881.4,1077.21 1881,1074.5C 1880.33,979.833 1880.33,885.167 1881,790.5C 1883.13,788.886 1884.63,786.886 1885.5,784.5C 1885.84,783.662 1886.51,783.328 1887.5,783.5 Z"/></g>
<g><path style="opacity:1" fill="#4f5561" d="M 1999.5,779.5 C 1999.5,780.167 1999.5,780.833 1999.5,781.5C 1961.82,780.84 1924.49,781.506 1887.5,783.5C 1886.51,783.328 1885.84,783.662 1885.5,784.5C 1884.5,784.414 1883.67,784.748 1883,785.5C 1881.12,787.527 1879.95,789.86 1879.5,792.5C 1878.5,887.999 1878.17,983.665 1878.5,1079.5C 1877.78,1079.08 1877.28,1078.42 1877,1077.5C 1876.83,1029.83 1876.67,982.167 1876.5,934.5C 1876.34,885.776 1876.84,837.109 1878,788.5C 1880.22,784.612 1883.39,781.779 1887.5,780C 1924.83,779.5 1962.17,779.333 1999.5,779.5 Z"/></g>
<g><path style="opacity:1" fill="#475676" d="M 1879.5,792.5 C 1879.33,887.834 1879.5,983.167 1880,1078.5C 1880.2,1080.32 1881.03,1081.65 1882.5,1082.5C 1883.67,1084.5 1885.34,1086 1887.5,1087C 1891.83,1087.33 1896.17,1087.67 1900.5,1088C 1901.77,1090.16 1901.77,1092.33 1900.5,1094.5C 1899.83,1093.83 1899.17,1093.17 1898.5,1092.5C 1894.04,1091.04 1889.38,1089.54 1884.5,1088C 1881.14,1086.1 1879.14,1083.27 1878.5,1079.5C 1878.17,983.665 1878.5,887.999 1879.5,792.5 Z"/></g>
<g><path style="opacity:1" fill="#8eaae9" d="M 1885.5,784.5 C 1884.63,786.886 1883.13,788.886 1881,790.5C 1880.33,885.167 1880.33,979.833 1881,1074.5C 1881.4,1077.21 1881.9,1079.87 1882.5,1082.5C 1881.03,1081.65 1880.2,1080.32 1880,1078.5C 1879.5,983.167 1879.33,887.834 1879.5,792.5C 1879.95,789.86 1881.12,787.527 1883,785.5C 1883.67,784.748 1884.5,784.414 1885.5,784.5 Z"/></g>
<g><path style="opacity:1" fill="#8faaea" d="M 1999.5,813.5 C 1999.5,813.833 1999.5,814.167 1999.5,814.5C 1968.83,814.5 1938.17,814.5 1907.5,814.5C 1907.97,813.307 1908.97,812.64 1910.5,812.5C 1940.15,813.477 1969.82,813.81 1999.5,813.5 Z"/></g>
<g><path style="opacity:1" fill="#415885" d="M 1907.5,814.5 C 1938.17,814.5 1968.83,814.5 1999.5,814.5C 1999.5,815.5 1999.5,816.5 1999.5,817.5C 1968.83,817.5 1938.17,817.5 1907.5,817.5C 1907.5,816.5 1907.5,815.5 1907.5,814.5 Z"/></g>
<g><path style="opacity:1" fill="#5b6e9e" d="M 1999.5,836.5 C 1999.5,836.833 1999.5,837.167 1999.5,837.5C 1968.81,836.841 1938.48,837.508 1908.5,839.5C 1907.66,839.158 1907.33,838.492 1907.5,837.5C 1938,836.502 1968.66,836.169 1999.5,836.5 Z"/></g>
<g><path style="opacity:1" fill="#3d4f72" d="M 1999.5,837.5 C 1999.5,838.167 1999.5,838.833 1999.5,839.5C 1969.17,839.5 1938.83,839.5 1908.5,839.5C 1938.48,837.508 1968.81,836.841 1999.5,837.5 Z"/></g>
<g><path style="opacity:1" fill="#8bacea" d="M 1907.5,837.5 C 1907.33,838.492 1907.66,839.158 1908.5,839.5C 1938.83,839.5 1969.17,839.5 1999.5,839.5C 1999.5,839.833 1999.5,840.167 1999.5,840.5C 1969.82,840.19 1940.15,840.523 1910.5,841.5C 1909.11,841.379 1907.77,841.046 1906.5,840.5C 1905.2,838.948 1905.54,837.948 1907.5,837.5 Z"/></g>
<g><path style="opacity:1" fill="#2e3b5d" d="M 1999.5,859.5 C 1999.5,860.167 1999.5,860.833 1999.5,861.5C 1876.83,860.833 1876.83,860.167 1999.5,859.5 Z"/></g>
<g><path style="opacity:1" fill="#2f3b5c" d="M 1999.5,881.5 C 1999.5,882.167 1999.5,882.833 1999.5,883.5C 1876.83,882.833 1876.83,882.167 1999.5,881.5 Z"/></g>
<g><path style="opacity:1" fill="#8bacea" d="M 1999.5,902.5 C 1999.5,902.833 1999.5,903.167 1999.5,903.5C 1968.48,902.841 1937.82,903.508 1907.5,905.5C 1905.95,905.179 1905.29,904.179 1905.5,902.5C 1936.83,902.5 1968.17,902.5 1999.5,902.5 Z"/></g>
<g><path style="opacity:1" fill="#45567d" d="M 1999.5,903.5 C 1999.5,904.5 1999.5,905.5 1999.5,906.5C 1968.66,906.831 1938,906.498 1907.5,905.5C 1937.82,903.508 1968.48,902.841 1999.5,903.5 Z"/></g>
<g><path style="opacity:1" fill="#415885" d="M 1999.5,925.5 C 1999.5,926.5 1999.5,927.5 1999.5,928.5C 1968.83,928.5 1938.17,928.5 1907.5,928.5C 1907.5,927.5 1907.5,926.5 1907.5,925.5C 1938.17,925.5 1968.83,925.5 1999.5,925.5 Z"/></g>
<g><path style="opacity:1" fill="#fefefe" d="M 1785.5,938.5 C 1802.17,938.333 1818.84,938.5 1835.5,939C 1838.78,940.748 1841.28,943.248 1843,946.5C 1843.67,964.167 1843.67,981.833 1843,999.5C 1841.74,1003.1 1839.24,1005.26 1835.5,1006C 1817.83,1006.67 1800.17,1006.67 1782.5,1006C 1780.67,1004.17 1778.83,1002.33 1777,1000.5C 1776.33,982.167 1776.33,963.833 1777,945.5C 1778.87,941.784 1781.7,939.45 1785.5,938.5 Z"/></g>
<g><path style="opacity:1" fill="#8eabeb" d="M 1999.5,946.5 C 1999.5,946.833 1999.5,947.167 1999.5,947.5C 1968.83,947.5 1938.17,947.5 1907.5,947.5C 1907.37,946.761 1907.54,946.094 1908,945.5C 1938.43,946.496 1968.93,946.829 1999.5,946.5 Z"/></g>
<g><path style="opacity:1" fill="#3d5077" d="M 1907.5,947.5 C 1938.17,947.5 1968.83,947.5 1999.5,947.5C 1999.5,948.5 1999.5,949.5 1999.5,950.5C 1968.83,950.5 1938.17,950.5 1907.5,950.5C 1907.5,949.5 1907.5,948.5 1907.5,947.5 Z"/></g>
<g><path style="opacity:1" fill="#48494c" d="M 1816.5,955.5 C 1816.5,958.833 1816.5,962.167 1816.5,965.5C 1819.96,966.482 1823.63,966.815 1827.5,966.5C 1827.5,970.5 1827.5,974.5 1827.5,978.5C 1823.83,978.5 1820.17,978.5 1816.5,978.5C 1816.5,982.167 1816.5,985.833 1816.5,989.5C 1812.5,989.5 1808.5,989.5 1804.5,989.5C 1804.5,985.833 1804.5,982.167 1804.5,978.5C 1800.83,978.5 1797.17,978.5 1793.5,978.5C 1793.5,974.5 1793.5,970.5 1793.5,966.5C 1797.17,966.5 1800.83,966.5 1804.5,966.5C 1804.5,962.833 1804.5,959.167 1804.5,955.5C 1808.5,955.5 1812.5,955.5 1816.5,955.5 Z"/></g>
<g><path style="opacity:1" fill="#fcfdfd" d="M 1806.5,987.5 C 1806.5,983.833 1806.5,980.167 1806.5,976.5C 1802.83,976.5 1799.17,976.5 1795.5,976.5C 1795.5,973.833 1795.5,971.167 1795.5,968.5C 1799.17,968.5 1802.83,968.5 1806.5,968.5C 1806.5,964.833 1806.5,961.167 1806.5,957.5C 1809.17,957.5 1811.83,957.5 1814.5,957.5C 1814.5,961.167 1814.5,964.833 1814.5,968.5C 1818.17,968.5 1821.83,968.5 1825.5,968.5C 1825.5,971.167 1825.5,973.833 1825.5,976.5C 1821.83,976.5 1818.17,976.5 1814.5,976.5C 1814.5,980.167 1814.5,983.833 1814.5,987.5C 1811.83,987.5 1809.17,987.5 1806.5,987.5 Z"/></g>
<g><path style="opacity:1" fill="#959596" d="M 1816.5,965.5 C 1820.5,965.5 1824.5,965.5 1828.5,965.5C 1828.82,970.032 1828.48,974.366 1827.5,978.5C 1827.5,974.5 1827.5,970.5 1827.5,966.5C 1823.63,966.815 1819.96,966.482 1816.5,965.5 Z"/></g>
<g><path style="opacity:1" fill="#263b6b" d="M 1999.5,970.5 C 1999.5,971.167 1999.5,971.833 1999.5,972.5C 1968.83,972.5 1938.17,972.5 1907.5,972.5C 1937.82,970.508 1968.48,969.841 1999.5,970.5 Z"/></g>
<g><path style="opacity:1" fill="#8dabed" d="M 1907.5,972.5 C 1938.17,972.5 1968.83,972.5 1999.5,972.5C 1999.5,973.167 1999.5,973.833 1999.5,974.5C 1968.48,975.159 1937.82,974.492 1907.5,972.5 Z"/></g>
<g><path style="opacity:1" fill="#6f7274" d="M 1795.5,976.5 C 1799.17,976.5 1802.83,976.5 1806.5,976.5C 1806.5,980.167 1806.5,983.833 1806.5,987.5C 1805.52,984.375 1805.19,981.042 1805.5,977.5C 1801.96,977.813 1798.62,977.479 1795.5,976.5 Z"/></g>
<g><path style="opacity:1" fill="#919295" d="M 1816.5,955.5 C 1812.5,955.5 1808.5,955.5 1804.5,955.5C 1804.5,959.167 1804.5,962.833 1804.5,966.5C 1800.83,966.5 1797.17,966.5 1793.5,966.5C 1793.5,970.5 1793.5,974.5 1793.5,978.5C 1797.17,978.5 1800.83,978.5 1804.5,978.5C 1804.5,982.167 1804.5,985.833 1804.5,989.5C 1808.5,989.5 1812.5,989.5 1816.5,989.5C 1812.37,990.485 1808.03,990.818 1803.5,990.5C 1803.5,986.833 1803.5,983.167 1803.5,979.5C 1799.83,979.5 1796.17,979.5 1792.5,979.5C 1792.5,974.833 1792.5,970.167 1792.5,965.5C 1796.17,965.5 1799.83,965.5 1803.5,965.5C 1803.5,961.833 1803.5,958.167 1803.5,954.5C 1808.03,954.182 1812.37,954.515 1816.5,955.5 Z"/></g>
<g><path style="opacity:1" fill="#b7b7ba" d="M 1827.5,978.5 C 1824.38,979.479 1821.04,979.813 1817.5,979.5C 1817.81,983.042 1817.48,986.375 1816.5,989.5C 1816.5,985.833 1816.5,982.167 1816.5,978.5C 1820.17,978.5 1823.83,978.5 1827.5,978.5 Z"/></g>
<g><path style="opacity:1" fill="#4a5b85" d="M 1999.5,992.5 C 1999.5,993.5 1999.5,994.5 1999.5,995.5C 1968.83,995.5 1938.17,995.5 1907.5,995.5C 1907.5,994.5 1907.5,993.5 1907.5,992.5C 1938.17,992.5 1968.83,992.5 1999.5,992.5 Z"/></g>
<g><path style="opacity:1" fill="#44587f" d="M 1999.5,1014.5 C 1999.5,1015.5 1999.5,1016.5 1999.5,1017.5C 1968.83,1017.5 1938.17,1017.5 1907.5,1017.5C 1907.5,1016.5 1907.5,1015.5 1907.5,1014.5C 1938.17,1014.5 1968.83,1014.5 1999.5,1014.5 Z"/></g>
<g><path style="opacity:1" fill="#5a6ea0" d="M 1999.5,1036.5 C 1999.5,1036.83 1999.5,1037.17 1999.5,1037.5C 1968.81,1036.84 1938.48,1037.51 1908.5,1039.5C 1907.6,1038.79 1907.26,1037.79 1907.5,1036.5C 1938.17,1036.5 1968.83,1036.5 1999.5,1036.5 Z"/></g>
<g><path style="opacity:1" fill="#404e6e" d="M 1999.5,1037.5 C 1999.5,1038.17 1999.5,1038.83 1999.5,1039.5C 1969.17,1039.5 1938.83,1039.5 1908.5,1039.5C 1938.48,1037.51 1968.81,1036.84 1999.5,1037.5 Z"/></g>
<g><path style="opacity:1" fill="#2e3c60" d="M 1907.5,1059.5 C 1928.18,1059.17 1948.84,1059.5 1969.5,1060.5C 1959.17,1060.83 1948.83,1061.17 1938.5,1061.5C 1927.81,1061.5 1917.48,1060.83 1907.5,1059.5 Z"/></g>
<g><path style="opacity:1" fill="#5b5e62" d="M 1843.5,1124.5 C 1842.5,1124.5 1841.5,1124.5 1840.5,1124.5C 1840.67,1111.83 1840.5,1099.16 1840,1086.5C 1838.54,1084.04 1836.71,1081.87 1834.5,1080C 1804.73,1078.84 1774.89,1078.34 1745,1078.5C 1716.17,1078.67 1687.33,1078.83 1658.5,1079C 1655.78,1080.6 1653.61,1082.76 1652,1085.5C 1651.5,1098.5 1651.33,1111.5 1651.5,1124.5C 1650.5,1124.5 1649.5,1124.5 1648.5,1124.5C 1648.33,1112.16 1648.5,1099.83 1649,1087.5C 1650.35,1082.82 1653.18,1079.32 1657.5,1077C 1686.94,1075.84 1716.44,1075.34 1746,1075.5C 1774.5,1075.67 1803,1075.83 1831.5,1076C 1837.03,1078.54 1840.87,1082.7 1843,1088.5C 1843.5,1100.5 1843.67,1112.5 1843.5,1124.5 Z"/></g>
<g><path style="opacity:1" fill="#fefefe" d="M 1840.5,1124.5 C 1777.5,1124.5 1714.5,1124.5 1651.5,1124.5C 1651.33,1111.5 1651.5,1098.5 1652,1085.5C 1653.61,1082.76 1655.78,1080.6 1658.5,1079C 1687.33,1078.83 1716.17,1078.67 1745,1078.5C 1774.89,1078.34 1804.73,1078.84 1834.5,1080C 1836.71,1081.87 1838.54,1084.04 1840,1086.5C 1840.5,1099.16 1840.67,1111.83 1840.5,1124.5 Z"/></g>
<g><path style="opacity:1" fill="#475268" d="M 1999.5,1087.5 C 1999.5,1088.5 1999.5,1089.5 1999.5,1090.5C 1969.16,1090.17 1938.83,1090.5 1908.5,1091.5C 1906.53,1095.78 1903.2,1097.45 1898.5,1096.5C 1898.5,1095.17 1898.5,1093.83 1898.5,1092.5C 1899.17,1093.17 1899.83,1093.83 1900.5,1094.5C 1904.83,1094.17 1907.17,1091.83 1907.5,1087.5C 1938.17,1087.5 1968.83,1087.5 1999.5,1087.5 Z"/></g>
<g><path style="opacity:1" fill="#3b3b3b" d="M 1671.5,1102.5 C 1720.84,1102.17 1770.17,1102.5 1819.5,1103.5C 1794.83,1103.83 1770.17,1104.17 1745.5,1104.5C 1720.49,1104.5 1695.82,1103.83 1671.5,1102.5 Z"/></g>
</svg>
