<?xml version="1.0" encoding="UTF-8"?>
<!DOCTYPE svg PUBLIC "-//W3C//DTD SVG 1.1//EN" "http://www.w3.org/Graphics/SVG/1.1/DTD/svg11.dtd">
<svg xmlns="http://www.w3.org/2000/svg" version="1.1" width="2000px" height="1125px" style="shape-rendering:geometricPrecision; text-rendering:geometricPrecision; image-rendering:optimizeQuality; fill-rule:evenodd; clip-rule:evenodd" xmlns:xlink="http://www.w3.org/1999/xlink">
<g><path style="opacity:1" fill="#eef0f5" d="M -0.5,-0.5 C 666.167,-0.5 1332.83,-0.5 1999.5,-0.5C 1999.5,374.5 1999.5,749.5 1999.5,1124.5C 1332.83,1124.5 666.167,1124.5 -0.5,1124.5C -0.5,749.5 -0.5,374.5 -0.5,-0.5 Z"/></g>
<g><path style="opacity:1" fill="#fcfcfc" d="M 1681.5,49.5 C 1698.17,49.3334 1714.84,49.5001 1731.5,50C 1733.22,50.346 1734.88,50.846 1736.5,51.5C 1737.5,53.1667 1738.83,54.5 1740.5,55.5C 1741.67,73.1572 1741.83,90.8239 1741,108.5C 1740.17,111.832 1738.34,114.499 1735.5,116.5C 1717.51,117.666 1699.51,117.833 1681.5,117C 1679.81,115.595 1677.98,114.428 1676,113.5C 1674.39,94.8856 1674.05,76.2189 1675,57.5C 1677.03,54.6447 1679.2,51.978 1681.5,49.5 Z"/></g>
<g><path style="opacity:1" fill="#fdfefd" d="M 1775.5,49.5 C 1792.17,49.3334 1808.84,49.5001 1825.5,50C 1830.34,50.1394 1833.17,52.6394 1834,57.5C 1834.67,74.8333 1834.67,92.1667 1834,109.5C 1833.49,112.85 1831.65,115.184 1828.5,116.5C 1810.27,117.825 1792.1,117.825 1774,116.5C 1772.71,114.208 1771.04,112.208 1769,110.5C 1768.33,92.1667 1768.33,73.8333 1769,55.5C 1771.06,53.2659 1773.23,51.2659 1775.5,49.5 Z"/></g>
<g><path style="opacity:1" fill="#fdfdfd" d="M 1870.5,49.5 C 1886.84,49.3334 1903.17,49.5001 1919.5,50C 1923.5,50.6678 1926.33,52.8345 1928,56.5C 1928.67,74.5 1928.67,92.5 1928,110.5C 1926.7,114.301 1924.2,116.968 1920.5,118.5C 1902.19,117.793 1883.85,117.127 1865.5,116.5C 1865.43,113.916 1864.26,111.916 1862,110.5C 1861.17,92.1576 1861.33,73.8242 1862.5,55.5C 1864.67,52.6447 1867.33,50.6447 1870.5,49.5 Z"/></g>
<g><path style="opacity:1" fill="#4b4d4e" d="M 1702.5,67.5 C 1713.13,66.1562 1722.13,69.3228 1729.5,77C 1728.5,77.6667 1727.5,77.6667 1726.5,77C 1713.7,66.844 1701.04,67.0107 1688.5,77.5C 1687.72,75.6707 1688.38,74.1707 1690.5,73C 1694.23,70.2986 1698.23,68.4653 1702.5,67.5 Z"/></g>
<g><path style="opacity:1" fill="#535357" d="M 1808.5,77.5 C 1812.17,77.5 1815.83,77.5 1819.5,77.5C 1819.5,81.5 1819.5,85.5 1819.5,89.5C 1815.83,89.5 1812.17,89.5 1808.5,89.5C 1808.81,93.3714 1808.48,97.0381 1807.5,100.5C 1803.5,100.5 1799.5,100.5 1795.5,100.5C 1795.5,96.8333 1795.5,93.1667 1795.5,89.5C 1791.83,89.5 1788.17,89.5 1784.5,89.5C 1783.17,85.5 1783.17,81.5 1784.5,77.5C 1788.17,77.5 1791.83,77.5 1795.5,77.5C 1795.5,73.8333 1795.5,70.1667 1795.5,66.5C 1799.5,66.5 1803.5,66.5 1807.5,66.5C 1807.19,70.3714 1807.52,74.0381 1808.5,77.5 Z"/></g>
<g><path style="opacity:1" fill="#fdfefe" d="M 1797.5,68.5 C 1800.17,68.5 1802.83,68.5 1805.5,68.5C 1805.5,72.1667 1805.5,75.8333 1805.5,79.5C 1809.17,79.5 1812.83,79.5 1816.5,79.5C 1816.5,82.1667 1816.5,84.8333 1816.5,87.5C 1812.83,87.5 1809.17,87.5 1805.5,87.5C 1805.5,91.1667 1805.5,94.8333 1805.5,98.5C 1802.83,98.5 1800.17,98.5 1797.5,98.5C 1797.5,94.8333 1797.5,91.1667 1797.5,87.5C 1793.83,87.5 1790.17,87.5 1786.5,87.5C 1786.5,84.8333 1786.5,82.1667 1786.5,79.5C 1790.17,79.5 1793.83,79.5 1797.5,79.5C 1797.5,75.8333 1797.5,72.1667 1797.5,68.5 Z"/></g>
<g><path style="opacity:1" fill="#b5b6b8" d="M 1808.5,77.5 C 1807.52,74.0381 1807.19,70.3714 1807.5,66.5C 1803.5,66.5 1799.5,66.5 1795.5,66.5C 1795.5,70.1667 1795.5,73.8333 1795.5,77.5C 1791.83,77.5 1788.17,77.5 1784.5,77.5C 1787.62,76.5206 1790.96,76.1872 1794.5,76.5C 1794.5,72.8333 1794.5,69.1667 1794.5,65.5C 1799.17,65.5 1803.83,65.5 1808.5,65.5C 1808.5,69.5 1808.5,73.5 1808.5,77.5 Z"/></g>
<g><path style="opacity:1" fill="#48494b" d="M 1701.5,76.5 C 1710.67,74.6139 1718.34,77.1139 1724.5,84C 1723.5,84.6667 1722.5,84.6667 1721.5,84C 1712.23,76.6952 1703.06,76.8619 1694,84.5C 1692.74,84.1501 1692.41,83.4835 1693,82.5C 1695.64,80.109 1698.47,78.109 1701.5,76.5 Z"/></g>
<g><path style="opacity:1" fill="#48494a" d="M 1703.5,85.5 C 1709.26,84.4481 1713.93,86.1148 1717.5,90.5C 1717.17,90.8333 1716.83,91.1667 1716.5,91.5C 1711.02,86.2174 1705.52,86.2174 1700,91.5C 1698.74,91.1501 1698.41,90.4835 1699,89.5C 1700.67,88.2668 1702.17,86.9335 1703.5,85.5 Z"/></g>
<g><path style="opacity:1" fill="#505254" d="M 1891.5,63.5 C 1907.97,63.8026 1915.47,72.1359 1914,88.5C 1912.96,90.7463 1911.79,92.913 1910.5,95C 1911.79,95.49 1913.13,95.6567 1914.5,95.5C 1914.5,98.1667 1914.5,100.833 1914.5,103.5C 1905.76,103.876 1897.1,103.376 1888.5,102C 1876.92,96.6215 1873.09,87.7881 1877,75.5C 1880.08,69.2314 1884.91,65.2314 1891.5,63.5 Z"/></g>
<g><path style="opacity:1" fill="#fbfcfb" d="M 1888.5,66.5 C 1898.46,64.5672 1905.96,67.9006 1911,76.5C 1912.32,79.406 1912.65,82.406 1912,85.5C 1910.75,89.6613 1909.25,93.6613 1907.5,97.5C 1909.17,97.5 1910.83,97.5 1912.5,97.5C 1912.5,98.5 1912.5,99.5 1912.5,100.5C 1904.1,100.87 1895.76,100.37 1887.5,99C 1876.8,91.3756 1875.13,82.2089 1882.5,71.5C 1884.94,70.291 1886.94,68.6243 1888.5,66.5 Z"/></g>
<g><path style="opacity:1" fill="#494a4f" d="M 1706.5,93.5 C 1711.33,93.3852 1712.66,95.5519 1710.5,100C 1704.74,100.418 1703.4,98.2511 1706.5,93.5 Z"/></g>
<g><path style="opacity:1" fill="#e7e8eb" d="M 1707.5,95.5 C 1709.46,95.9483 1709.8,96.9483 1708.5,98.5C 1707.61,97.675 1707.28,96.675 1707.5,95.5 Z"/></g>
<g><path style="opacity:1" fill="#babbbd" d="M 1784.5,89.5 C 1788.17,89.5 1791.83,89.5 1795.5,89.5C 1795.5,93.1667 1795.5,96.8333 1795.5,100.5C 1799.5,100.5 1803.5,100.5 1807.5,100.5C 1803.37,101.485 1799.03,101.818 1794.5,101.5C 1794.5,97.8333 1794.5,94.1667 1794.5,90.5C 1790.96,90.8128 1787.62,90.4794 1784.5,89.5 Z"/></g>
<g><path style="opacity:1" fill="#fdfefe" d="M 685.5,181.5 C 716.174,181.167 746.841,181.5 777.5,182.5C 780.888,184.262 784.221,185.929 787.5,187.5C 788.612,191.057 790.278,194.39 792.5,197.5C 793.667,227.828 793.833,258.161 793,288.5C 790.445,297.722 784.611,303.556 775.5,306C 744.5,306.667 713.5,306.667 682.5,306C 676.147,302.484 671.813,297.317 669.5,290.5C 668.333,259.172 668.167,227.839 669,196.5C 672.855,189.469 678.355,184.469 685.5,181.5 Z"/></g>
<g><path style="opacity:1" fill="#3b63f5" d="M 335.5,189.5 C 332.332,190.792 329.165,190.792 326,189.5C 325.692,190.308 325.192,190.975 324.5,191.5C 322.618,190.907 320.785,190.24 319,189.5C 277.206,190.421 235.539,190.421 194,189.5C 192.5,190 191,190.5 189.5,191C 190.458,192.147 190.125,193.147 188.5,194C 233.347,194.817 277.847,194.65 322,193.5C 323.333,194.167 324.333,195.167 325,196.5C 328.022,195.669 329.522,197.002 329.5,200.5C 328.178,200.67 327.011,200.337 326,199.5C 325.431,203.361 324.598,203.361 323.5,199.5C 322.205,198.902 320.872,198.402 319.5,198C 277.167,197.333 234.833,197.333 192.5,198C 192.043,198.414 191.709,198.914 191.5,199.5C 234.163,200.333 276.829,200.833 319.5,201C 330.167,205.333 330.167,209.667 319.5,214C 272.691,214.005 226.024,214.672 179.5,216C 180.873,216.875 182.373,217.375 184,217.5C 228.855,217.622 274.022,217.455 319.5,217C 322.179,215.661 324.679,214.827 327,214.5C 328.604,215.068 329.27,216.068 329,217.5C 327.084,219.209 324.918,220.543 322.5,221.5C 277.875,220.339 233.208,220.172 188.5,221C 189.167,221.667 189.833,222.333 190.5,223C 233.167,223.333 275.833,223.667 318.5,224C 320.809,226.051 322.976,225.884 325,223.5C 326.543,224.285 328.21,224.285 330,223.5C 331.887,223.031 333.387,222.031 334.5,220.5C 335.747,222.006 335.747,223.506 334.5,225C 331.176,225.517 328.51,226.35 326.5,227.5C 326.701,231.35 328.534,232.35 332,230.5C 332.483,229.552 332.649,228.552 332.5,227.5C 333.5,227.5 334.5,227.5 335.5,227.5C 335.662,229.527 335.495,231.527 335,233.5C 331.59,234.874 331.757,235.541 335.5,235.5C 335.5,236.5 335.5,237.5 335.5,238.5C 333.473,238.338 331.473,238.505 329.5,239C 330.448,239.483 331.448,239.649 332.5,239.5C 332.5,240.5 332.5,241.5 332.5,242.5C 333.5,242.5 334.5,242.5 335.5,242.5C 335.5,244.167 335.5,245.833 335.5,247.5C 332.996,248.639 330.33,249.306 327.5,249.5C 327.773,251.451 327.107,252.951 325.5,254C 299.833,254.667 274.167,254.667 248.5,254C 247.289,252.887 247.289,251.72 248.5,250.5C 246.117,249.613 243.784,248.613 241.5,247.5C 240.833,247.833 240.167,248.167 239.5,248.5C 243.736,249.702 244.403,251.868 241.5,255C 271.701,255.625 302.034,255.625 332.5,255C 330.65,251.534 331.65,249.701 335.5,249.5C 335.162,252.011 335.162,254.345 335.5,256.5C 337.596,255.38 337.93,253.88 336.5,252C 337.333,251.167 338.167,250.333 339,249.5C 338.68,252.46 338.68,255.46 339,258.5C 340,258.5 341,258.5 342,258.5C 342.333,256.833 342.667,255.167 343,253.5C 343.293,235.66 343.793,217.826 344.5,200C 344.42,196.45 344.086,192.95 343.5,189.5C 344.5,189.833 345.167,190.5 345.5,191.5C 345.779,218.185 345.446,244.852 344.5,271.5C 342.482,272.859 340.482,274.193 338.5,275.5C 337.5,275.5 336.5,275.5 335.5,275.5C 287.5,275.5 239.5,275.5 191.5,275.5C 191.719,274.325 191.386,273.325 190.5,272.5C 189.638,273.766 188.971,275.099 188.5,276.5C 187.209,276.263 186.209,276.596 185.5,277.5C 184.143,278.59 183.143,279.924 182.5,281.5C 181.5,281.5 180.5,281.5 179.5,281.5C 179.5,279.833 179.5,278.167 179.5,276.5C 175.486,276.666 171.486,276.499 167.5,276C 165.581,273.206 162.914,271.706 159.5,271.5C 159.509,269.692 159.009,268.025 158,266.5C 156.891,240.381 157.391,214.381 159.5,188.5C 161.937,188.114 163.937,186.947 165.5,185C 222.166,184.5 278.832,184.333 335.5,184.5C 335.5,186.167 335.5,187.833 335.5,189.5 Z"/></g>
<g><path style="opacity:1" fill="#3c61f9" d="M 343.5,189.5 C 344.086,192.95 344.42,196.45 344.5,200C 343.793,217.826 343.293,235.66 343,253.5C 342.667,255.167 342.333,256.833 342,258.5C 341,258.5 340,258.5 339,258.5C 338.68,255.46 338.68,252.46 339,249.5C 338.167,250.333 337.333,251.167 336.5,252C 337.93,253.88 337.596,255.38 335.5,256.5C 335.162,254.345 335.162,252.011 335.5,249.5C 331.65,249.701 330.65,251.534 332.5,255C 302.034,255.625 271.701,255.625 241.5,255C 244.403,251.868 243.736,249.702 239.5,248.5C 240.167,248.167 240.833,247.833 241.5,247.5C 243.784,248.613 246.117,249.613 248.5,250.5C 247.289,251.72 247.289,252.887 248.5,254C 274.167,254.667 299.833,254.667 325.5,254C 327.107,252.951 327.773,251.451 327.5,249.5C 330.33,249.306 332.996,248.639 335.5,247.5C 335.5,245.833 335.5,244.167 335.5,242.5C 334.5,242.5 333.5,242.5 332.5,242.5C 332.5,241.5 332.5,240.5 332.5,239.5C 331.448,239.649 330.448,239.483 329.5,239C 331.473,238.505 333.473,238.338 335.5,238.5C 335.5,237.5 335.5,236.5 335.5,235.5C 331.757,235.541 331.59,234.874 335,233.5C 335.495,231.527 335.662,229.527 335.5,227.5C 334.5,227.5 333.5,227.5 332.5,227.5C 332.649,228.552 332.483,229.552 332,230.5C 328.534,232.35 326.701,231.35 326.5,227.5C 328.51,226.35 331.176,225.517 334.5,225C 335.747,223.506 335.747,222.006 334.5,220.5C 333.387,222.031 331.887,223.031 330,223.5C 328.21,224.285 326.543,224.285 325,223.5C 322.976,225.884 320.809,226.051 318.5,224C 275.833,223.667 233.167,223.333 190.5,223C 189.833,222.333 189.167,221.667 188.5,221C 233.208,220.172 277.875,220.339 322.5,221.5C 324.918,220.543 327.084,219.209 329,217.5C 329.27,216.068 328.604,215.068 327,214.5C 324.679,214.827 322.179,215.661 319.5,217C 274.022,217.455 228.855,217.622 184,217.5C 182.373,217.375 180.873,216.875 179.5,216C 226.024,214.672 272.691,214.005 319.5,214C 330.167,209.667 330.167,205.333 319.5,201C 276.829,200.833 234.163,200.333 191.5,199.5C 191.709,198.914 192.043,198.414 192.5,198C 234.833,197.333 277.167,197.333 319.5,198C 320.872,198.402 322.205,198.902 323.5,199.5C 324.598,203.361 325.431,203.361 326,199.5C 327.011,200.337 328.178,200.67 329.5,200.5C 329.522,197.002 328.022,195.669 325,196.5C 324.333,195.167 323.333,194.167 322,193.5C 277.847,194.65 233.347,194.817 188.5,194C 190.125,193.147 190.458,192.147 189.5,191C 191,190.5 192.5,190 194,189.5C 235.539,190.421 277.206,190.421 319,189.5C 320.785,190.24 322.618,190.907 324.5,191.5C 325.192,190.975 325.692,190.308 326,189.5C 329.165,190.792 332.332,190.792 335.5,189.5C 336.756,189.096 337.923,188.429 339,187.5C 340.585,188.044 342.085,188.711 343.5,189.5 Z"/></g>
<g><path style="opacity:1" fill="#364d91" d="M 159.5,187.5 C 159.5,187.833 159.5,188.167 159.5,188.5C 157.391,214.381 156.891,240.381 158,266.5C 159.009,268.025 159.509,269.692 159.5,271.5C 158.069,271.119 157.236,270.119 157,268.5C 156.5,242.169 156.333,215.835 156.5,189.5C 157.5,188.833 158.5,188.167 159.5,187.5 Z"/></g>
<g><path style="opacity:1" fill="#3e58b8" d="M 345.5,191.5 C 346.314,193.631 346.814,195.964 347,198.5C 347.667,220.833 347.667,243.167 347,265.5C 346.434,267.723 345.6,269.723 344.5,271.5C 345.446,244.852 345.779,218.185 345.5,191.5 Z"/></g>
<g><path style="opacity:1" fill="#d4ebff" d="M 323.5,206.5 C 324.833,207.167 324.833,207.833 323.5,208.5C 130.167,207.833 130.167,207.167 323.5,206.5 Z"/></g>
<g><path style="opacity:1" fill="#4a5371" d="M 339.5,278.5 C 341.522,276.469 343.189,274.135 344.5,271.5C 345.6,269.723 346.434,267.723 347,265.5C 347.667,243.167 347.667,220.833 347,198.5C 346.814,195.964 346.314,193.631 345.5,191.5C 345.167,190.5 344.5,189.833 343.5,189.5C 343.586,188.504 343.252,187.671 342.5,187C 340.382,186.74 338.716,185.74 337.5,184C 279.833,183.333 222.167,183.333 164.5,184C 162.767,185.189 161.1,186.356 159.5,187.5C 158.5,188.167 157.5,188.833 156.5,189.5C 158.393,185.043 161.726,182.209 166.5,181C 223.167,180.333 279.833,180.333 336.5,181C 343.097,183.263 347.264,187.763 349,194.5C 349.667,218.833 349.667,243.167 349,267.5C 347.212,272.441 344.046,276.107 339.5,278.5 Z"/></g>
<g><path style="opacity:1" fill="#4464d3" d="M 343.5,189.5 C 342.085,188.711 340.585,188.044 339,187.5C 337.923,188.429 336.756,189.096 335.5,189.5C 335.5,187.833 335.5,186.167 335.5,184.5C 278.832,184.333 222.166,184.5 165.5,185C 163.937,186.947 161.937,188.114 159.5,188.5C 159.5,188.167 159.5,187.833 159.5,187.5C 161.1,186.356 162.767,185.189 164.5,184C 222.167,183.333 279.833,183.333 337.5,184C 338.716,185.74 340.382,186.74 342.5,187C 343.252,187.671 343.586,188.504 343.5,189.5 Z"/></g>
<g><path style="opacity:1" fill="#4c66b6" d="M 323.5,205.5 C 323.5,205.833 323.5,206.167 323.5,206.5C 130.167,207.167 130.167,207.833 323.5,208.5C 275.67,209.499 227.67,209.832 179.5,209.5C 178.167,209.5 176.833,209.5 175.5,209.5C 175.5,208.167 175.5,206.833 175.5,205.5C 224.833,205.5 274.167,205.5 323.5,205.5 Z"/></g>
<g><path style="opacity:1" fill="#4665e0" d="M 323.5,206.5 C 323.5,206.167 323.5,205.833 323.5,205.5C 325.71,206.455 326.043,207.955 324.5,210C 275.998,210.832 227.665,210.665 179.5,209.5C 227.67,209.832 275.67,209.499 323.5,208.5C 324.833,207.833 324.833,207.167 323.5,206.5 Z"/></g>
<g><path style="opacity:1" fill="#5a6fd7" d="M 746.5,212.5 C 741.637,212.618 736.803,212.285 732,211.5C 727.781,212.409 723.615,213.409 719.5,214.5C 728.249,209.313 737.249,208.646 746.5,212.5 Z"/></g>
<g><path style="opacity:1" fill="#4a67e3" d="M 746.5,212.5 C 751.358,213.596 755.691,215.762 759.5,219C 761.745,221.731 763.745,224.564 765.5,227.5C 761.172,225.828 759.839,227.161 761.5,231.5C 754.767,221.798 745.434,216.798 733.5,216.5C 737.678,215.429 742.011,215.429 746.5,216.5C 746.5,215.167 746.5,213.833 746.5,212.5 Z"/></g>
<g><path style="opacity:1" fill="#f9fbfc" d="M 733.5,216.5 C 745.434,216.798 754.767,221.798 761.5,231.5C 761.433,232.959 761.766,234.292 762.5,235.5C 763.833,241.5 763.833,247.5 762.5,253.5C 758.63,263.029 751.63,269.029 741.5,271.5C 740.833,271.5 740.167,271.5 739.5,271.5C 726.788,272.146 714.455,271.48 702.5,269.5C 702.971,267.421 703.637,265.421 704.5,263.5C 707.914,256.67 709.247,249.337 708.5,241.5C 709.498,232.516 713.832,225.516 721.5,220.5C 725.155,218.171 729.155,216.837 733.5,216.5 Z"/></g>
<g><path style="opacity:1" fill="#3e63f2" d="M 746.5,212.5 C 746.5,213.833 746.5,215.167 746.5,216.5C 742.011,215.429 737.678,215.429 733.5,216.5C 729.155,216.837 725.155,218.171 721.5,220.5C 720.504,220.586 719.671,220.252 719,219.5C 718.072,222.035 716.238,223.035 713.5,222.5C 713.762,223.978 713.429,225.311 712.5,226.5C 711.5,226.167 710.833,225.5 710.5,224.5C 712.278,222.736 713.611,220.736 714.5,218.5C 715.579,216.457 717.246,215.124 719.5,214.5C 723.615,213.409 727.781,212.409 732,211.5C 736.803,212.285 741.637,212.618 746.5,212.5 Z"/></g>
<g><path style="opacity:1" fill="#b1c5f4" d="M 324.5,228.5 C 324.5,229.5 324.5,230.5 324.5,231.5C 275.5,231.5 226.5,231.5 177.5,231.5C 177.5,230.5 177.5,229.5 177.5,228.5C 226.5,228.5 275.5,228.5 324.5,228.5 Z"/></g>
<g><path style="opacity:1" fill="#4265d7" d="M 324.5,228.5 C 325.434,229.568 325.768,230.901 325.5,232.5C 275.997,232.832 226.664,232.499 177.5,231.5C 226.5,231.5 275.5,231.5 324.5,231.5C 324.5,230.5 324.5,229.5 324.5,228.5 Z"/></g>
<g><path style="opacity:1" fill="#5c74d2" d="M 721.5,235.5 C 731.172,235.334 740.839,235.5 750.5,236C 751.833,237.667 751.833,239.333 750.5,241C 741.167,241.667 731.833,241.667 722.5,241C 721.594,239.301 721.261,237.467 721.5,235.5 Z"/></g>
<g><path style="opacity:1" fill="#3d62f3" d="M 722.5,236.5 C 731.5,236.5 740.5,236.5 749.5,236.5C 749.5,237.833 749.5,239.167 749.5,240.5C 740.827,240.666 732.16,240.5 723.5,240C 722.663,238.989 722.33,237.822 722.5,236.5 Z"/></g>
<g><path style="opacity:1" fill="#6278d5" d="M 762.5,235.5 C 764.453,241.074 765.12,247.074 764.5,253.5C 763.833,253.5 763.167,253.5 762.5,253.5C 763.833,247.5 763.833,241.5 762.5,235.5 Z"/></g>
<g><path style="opacity:1" fill="#4766e7" d="M 714.5,218.5 C 713.611,220.736 712.278,222.736 710.5,224.5C 710.833,225.5 711.5,226.167 712.5,226.5C 713.429,225.311 713.762,223.978 713.5,222.5C 716.238,223.035 718.072,222.035 719,219.5C 719.671,220.252 720.504,220.586 721.5,220.5C 713.832,225.516 709.498,232.516 708.5,241.5C 707.833,242.833 707.167,244.167 706.5,245.5C 706.762,244.022 706.429,242.689 705.5,241.5C 705.036,243.975 704.036,245.975 702.5,247.5C 702.5,244.833 702.5,242.167 702.5,239.5C 703.669,230.824 707.669,223.824 714.5,218.5 Z"/></g>
<g><path style="opacity:1" fill="#6378d5" d="M 767.5,231.5 C 770.871,238.837 771.371,246.504 769,254.5C 768.617,255.056 768.117,255.389 767.5,255.5C 768.761,247.52 768.761,239.52 767.5,231.5 Z"/></g>
<g><path style="opacity:1" fill="#4162f3" d="M 765.5,227.5 C 766.674,228.514 767.34,229.847 767.5,231.5C 768.761,239.52 768.761,247.52 767.5,255.5C 766.29,255.068 765.29,254.401 764.5,253.5C 765.12,247.074 764.453,241.074 762.5,235.5C 761.766,234.292 761.433,232.959 761.5,231.5C 759.839,227.161 761.172,225.828 765.5,227.5 Z"/></g>
<g><path style="opacity:1" fill="#4364df" d="M 324.5,250.5 C 299.994,250.169 275.661,250.502 251.5,251.5C 250.662,251.842 250.328,252.508 250.5,253.5C 249.209,252.458 249.209,251.292 250.5,250C 275.337,249.17 300.003,249.337 324.5,250.5 Z"/></g>
<g><path style="opacity:1" fill="#5b71ce" d="M 708.5,241.5 C 709.247,249.337 707.914,256.67 704.5,263.5C 704.5,263.167 704.5,262.833 704.5,262.5C 706.125,256.97 706.791,251.303 706.5,245.5C 707.167,244.167 707.833,242.833 708.5,241.5 Z"/></g>
<g><path style="opacity:1" fill="#93acfa" d="M 251.5,251.5 C 275.661,250.502 299.994,250.169 324.5,250.5C 324.737,251.791 324.404,252.791 323.5,253.5C 299.857,251.51 275.857,250.843 251.5,251.5 Z"/></g>
<g><path style="opacity:1" fill="#c1d7f9" d="M 251.5,251.5 C 275.857,250.843 299.857,251.51 323.5,253.5C 299.167,253.5 274.833,253.5 250.5,253.5C 250.328,252.508 250.662,251.842 251.5,251.5 Z"/></g>
<g><path style="opacity:1" fill="#3d62f5" d="M 706.5,245.5 C 706.791,251.303 706.125,256.97 704.5,262.5C 703.71,261.391 703.21,260.058 703,258.5C 702.844,262.134 701.844,265.467 700,268.5C 699.056,267.737 698.556,266.737 698.5,265.5C 701.364,259.845 702.698,253.845 702.5,247.5C 704.036,245.975 705.036,243.975 705.5,241.5C 706.429,242.689 706.762,244.022 706.5,245.5 Z"/></g>
<g><path style="opacity:1" fill="#5269d3" d="M 721.5,247.5 C 727.176,247.334 732.843,247.501 738.5,248C 739.833,249.667 739.833,251.333 738.5,253C 732.843,253.499 727.176,253.666 721.5,253.5C 721.5,251.5 721.5,249.5 721.5,247.5 Z"/></g>
<g><path style="opacity:1" fill="#3f61f4" d="M 722.5,248.5 C 727.5,248.5 732.5,248.5 737.5,248.5C 737.5,249.833 737.5,251.167 737.5,252.5C 732.5,252.5 727.5,252.5 722.5,252.5C 722.5,251.167 722.5,249.833 722.5,248.5 Z"/></g>
<g><path style="opacity:1" fill="#506be3" d="M 702.5,239.5 C 702.5,242.167 702.5,244.833 702.5,247.5C 702.698,253.845 701.364,259.845 698.5,265.5C 698.556,266.737 699.056,267.737 700,268.5C 701.844,265.467 702.844,262.134 703,258.5C 703.21,260.058 703.71,261.391 704.5,262.5C 704.5,262.833 704.5,263.167 704.5,263.5C 703.637,265.421 702.971,267.421 702.5,269.5C 701.596,270.209 701.263,271.209 701.5,272.5C 707.991,273.166 714.658,273.5 721.5,273.5C 728.535,273.497 735.202,272.83 741.5,271.5C 751.63,269.029 758.63,263.029 762.5,253.5C 763.167,253.5 763.833,253.5 764.5,253.5C 765.29,254.401 766.29,255.068 767.5,255.5C 764.023,266.475 756.69,273.642 745.5,277C 728.211,278.595 710.878,278.928 693.5,278C 692.093,275.215 692.426,272.715 694.5,270.5C 696.672,265.491 698.838,260.491 701,255.5C 701.173,249.984 701.673,244.651 702.5,239.5 Z"/></g>
<g><path style="opacity:1" fill="#4f5357" d="M 391.5,232.5 C 448.501,232.333 505.501,232.5 562.5,233C 567.14,233.903 570.64,236.403 573,240.5C 574.662,337.419 574.995,434.419 574,531.5C 570.051,541.06 562.884,544.727 552.5,542.5C 552.993,544.806 553.326,547.139 553.5,549.5C 548.427,550.097 544.76,548.097 542.5,543.5C 491.503,542.667 440.503,542.167 389.5,542C 384.856,539.359 381.689,535.525 380,530.5C 379.333,435.833 379.333,341.167 380,246.5C 381.873,240.136 385.706,235.469 391.5,232.5 Z"/></g>
<g><path style="opacity:1" fill="#fefefe" d="M 390.5,235.5 C 448.501,235.333 506.501,235.5 564.5,236C 567.583,236.786 569.749,238.619 571,241.5C 572.657,337.457 572.99,433.457 572,529.5C 571.194,533.617 569.027,536.784 565.5,539C 560.599,540.325 555.599,540.825 550.5,540.5C 550.5,542.5 550.5,544.5 550.5,546.5C 546.833,546.167 544.833,544.167 544.5,540.5C 493.832,540.667 443.166,540.5 392.5,540C 388.157,538.99 384.99,536.49 383,532.5C 382.333,436.833 382.333,341.167 383,245.5C 384.213,241.131 386.713,237.797 390.5,235.5 Z"/></g>
<g><path style="opacity:1" fill="#3a3b3d" d="M 410.5,267.5 C 455.172,267.167 499.838,267.5 544.5,268.5C 522.167,268.833 499.833,269.167 477.5,269.5C 454.823,269.5 432.49,268.833 410.5,267.5 Z"/></g>
<g><path style="opacity:1" fill="#bcd2fe" d="M 702.5,269.5 C 714.455,271.48 726.788,272.146 739.5,271.5C 727.011,272.495 714.344,272.829 701.5,272.5C 701.263,271.209 701.596,270.209 702.5,269.5 Z"/></g>
<g><path style="opacity:1" fill="#4b67c5" d="M 739.5,271.5 C 740.167,271.5 740.833,271.5 741.5,271.5C 735.202,272.83 728.535,273.497 721.5,273.5C 714.658,273.5 707.991,273.166 701.5,272.5C 714.344,272.829 727.011,272.495 739.5,271.5 Z"/></g>
<g><path style="opacity:1" fill="#3b61fb" d="M 694.5,270.5 C 696.176,271.183 696.843,272.517 696.5,274.5C 712.514,274.167 728.514,274.501 744.5,275.5C 727.847,276.499 711.18,276.833 694.5,276.5C 694.5,274.5 694.5,272.5 694.5,270.5 Z"/></g>
<g><path style="opacity:1" fill="#4264ea" d="M 335.5,275.5 C 286.67,276.499 237.67,276.832 188.5,276.5C 188.971,275.099 189.638,273.766 190.5,272.5C 191.386,273.325 191.719,274.325 191.5,275.5C 239.5,275.5 287.5,275.5 335.5,275.5 Z"/></g>
<g><path style="opacity:1" fill="#3d56b5" d="M 335.5,275.5 C 336.5,275.5 337.5,275.5 338.5,275.5C 338.082,276.222 337.416,276.722 336.5,277C 286.168,277.5 235.834,277.667 185.5,277.5C 186.209,276.596 187.209,276.263 188.5,276.5C 237.67,276.832 286.67,276.499 335.5,275.5 Z"/></g>
<g><path style="opacity:1" fill="#2c3d6a" d="M 344.5,271.5 C 343.189,274.135 341.522,276.469 339.5,278.5C 338.5,278.5 337.5,278.5 336.5,278.5C 286.162,278.167 235.829,278.5 185.5,279.5C 184.873,280.417 184.539,281.417 184.5,282.5C 183.833,282.5 183.167,282.5 182.5,282.5C 182.5,282.167 182.5,281.833 182.5,281.5C 183.143,279.924 184.143,278.59 185.5,277.5C 235.834,277.667 286.168,277.5 336.5,277C 337.416,276.722 338.082,276.222 338.5,275.5C 340.482,274.193 342.482,272.859 344.5,271.5 Z"/></g>
<g><path style="opacity:1" fill="#333c48" d="M 336.5,278.5 C 286.665,279.167 236.665,279.833 186.5,280.5C 186.145,281.522 185.478,282.189 184.5,282.5C 184.539,281.417 184.873,280.417 185.5,279.5C 235.829,278.5 286.162,278.167 336.5,278.5 Z"/></g>
<g><path style="opacity:1" fill="#4158be" d="M 159.5,271.5 C 162.914,271.706 165.581,273.206 167.5,276C 171.486,276.499 175.486,276.666 179.5,276.5C 179.5,278.167 179.5,279.833 179.5,281.5C 180.5,281.5 181.5,281.5 182.5,281.5C 182.5,281.833 182.5,282.167 182.5,282.5C 180.958,283.301 179.292,283.634 177.5,283.5C 177.5,281.5 177.5,279.5 177.5,277.5C 171.456,278.163 165.789,277.163 160.5,274.5C 159.614,273.675 159.281,272.675 159.5,271.5 Z"/></g>
<g><path style="opacity:1" fill="#424b62" d="M 156.5,189.5 C 156.333,215.835 156.5,242.169 157,268.5C 157.236,270.119 158.069,271.119 159.5,271.5C 159.281,272.675 159.614,273.675 160.5,274.5C 165.789,277.163 171.456,278.163 177.5,277.5C 177.5,279.5 177.5,281.5 177.5,283.5C 179.292,283.634 180.958,283.301 182.5,282.5C 183.167,282.5 183.833,282.5 184.5,282.5C 182.288,285.358 179.288,286.691 175.5,286.5C 175.318,284.409 175.652,282.409 176.5,280.5C 167.857,281.243 161.024,278.243 156,271.5C 155.667,270.167 155.333,268.833 155,267.5C 154.333,242.167 154.333,216.833 155,191.5C 155.278,190.584 155.778,189.918 156.5,189.5 Z"/></g>
<g><path style="opacity:1" fill="#737475" d="M 410.5,289.5 C 455.167,289.5 499.833,289.5 544.5,289.5C 544.5,290.5 544.5,291.5 544.5,292.5C 499.833,292.5 455.167,292.5 410.5,292.5C 410.5,291.5 410.5,290.5 410.5,289.5 Z"/></g>
<g><path style="opacity:1" fill="#929699" d="M 410.5,312.5 C 454.997,311.501 499.664,311.168 544.5,311.5C 544.737,312.791 544.404,313.791 543.5,314.5C 499.513,312.505 455.179,311.839 410.5,312.5 Z"/></g>
<g><path style="opacity:1" fill="#5b5e60" d="M 410.5,312.5 C 455.179,311.839 499.513,312.505 543.5,314.5C 498.821,315.161 454.487,314.495 410.5,312.5 Z"/></g>
<g><path style="opacity:1" fill="#95969a" d="M 410.5,334.5 C 454.997,333.501 499.664,333.168 544.5,333.5C 544.737,334.791 544.404,335.791 543.5,336.5C 499.513,334.505 455.179,333.839 410.5,334.5 Z"/></g>
<g><path style="opacity:1" fill="#5c5c5f" d="M 410.5,334.5 C 455.179,333.839 499.513,334.505 543.5,336.5C 498.821,337.161 454.487,336.495 410.5,334.5 Z"/></g>
<g><path style="opacity:1" fill="#3c3d3f" d="M 410.5,356.5 C 455.172,356.167 499.838,356.5 544.5,357.5C 522.167,357.833 499.833,358.167 477.5,358.5C 454.823,358.5 432.49,357.833 410.5,356.5 Z"/></g>
<g><path style="opacity:1" fill="#87abfd" d="M 166.5,367.5 C 223.834,367.333 281.168,367.5 338.5,368C 340.766,369.426 342.432,371.26 343.5,373.5C 343.148,376.073 343.648,378.406 345,380.5C 345.167,426.833 345.333,473.167 345.5,519.5C 345.655,567.536 345.155,615.536 344,663.5C 342.409,667.354 339.576,669.687 335.5,670.5C 285.335,671.167 235.335,671.833 185.5,672.5C 185.5,673.167 185.167,673.5 184.5,673.5C 178.251,672.158 171.917,671.325 165.5,671C 164.356,667.688 162.189,665.188 159,663.5C 158.5,568.501 158.333,473.501 158.5,378.5C 158.849,375.295 160.516,373.129 163.5,372C 164.386,370.385 165.386,368.885 166.5,367.5 Z"/></g>
<g><path style="opacity:1" fill="#747577" d="M 410.5,378.5 C 455.167,378.5 499.833,378.5 544.5,378.5C 544.5,379.5 544.5,380.5 544.5,381.5C 499.833,381.5 455.167,381.5 410.5,381.5C 410.5,380.5 410.5,379.5 410.5,378.5 Z"/></g>
<g><path style="opacity:1" fill="#4e586c" d="M 348.5,663.5 C 348.667,570.166 348.5,476.833 348,383.5C 347.833,476.334 347.333,569.001 346.5,661.5C 346.667,566.499 346.5,471.499 346,376.5C 345.623,375.058 344.79,374.058 343.5,373.5C 342.432,371.26 340.766,369.426 338.5,368C 281.168,367.5 223.834,367.333 166.5,367.5C 161.094,369.241 157.761,372.907 156.5,378.5C 155.501,473.332 155.167,568.332 155.5,663.5C 154.334,567.334 154.168,471.001 155,374.5C 157.368,369.565 161.201,366.398 166.5,365C 223.167,364.333 279.833,364.333 336.5,365C 343.097,367.263 347.264,371.763 349,378.5C 349.832,473.668 349.666,568.668 348.5,663.5 Z"/></g>
<g><path style="opacity:1" fill="#93aae0" d="M 166.5,367.5 C 165.386,368.885 164.386,370.385 163.5,372C 160.516,373.129 158.849,375.295 158.5,378.5C 157.501,473.332 157.167,568.332 157.5,663.5C 156.501,568.668 156.167,473.668 156.5,378.5C 157.761,372.907 161.094,369.241 166.5,367.5 Z"/></g>
<g><path style="opacity:1" fill="#8ba7ef" d="M 158.5,378.5 C 158.333,473.501 158.5,568.501 159,663.5C 162.189,665.188 164.356,667.688 165.5,671C 171.917,671.325 178.251,672.158 184.5,673.5C 184.23,676.937 182.397,678.937 179,679.5C 178.505,677.527 178.338,675.527 178.5,673.5C 170.858,674.898 164.358,672.898 159,667.5C 158.209,666.255 157.709,664.922 157.5,663.5C 157.167,568.332 157.501,473.332 158.5,378.5 Z"/></g>
<g><path style="opacity:1" fill="#91abe9" d="M 343.5,373.5 C 344.79,374.058 345.623,375.058 346,376.5C 346.5,471.499 346.667,566.499 346.5,661.5C 345.703,666.948 342.703,670.448 337.5,672C 286.834,672.5 236.168,672.667 185.5,672.5C 235.335,671.833 285.335,671.167 335.5,670.5C 339.576,669.687 342.409,667.354 344,663.5C 345.155,615.536 345.655,567.536 345.5,519.5C 345.333,473.167 345.167,426.833 345,380.5C 343.648,378.406 343.148,376.073 343.5,373.5 Z"/></g>
<g><path style="opacity:1" fill="#737478" d="M 410.5,400.5 C 455.167,400.5 499.833,400.5 544.5,400.5C 544.5,401.5 544.5,402.5 544.5,403.5C 499.833,403.5 455.167,403.5 410.5,403.5C 410.5,402.5 410.5,401.5 410.5,400.5 Z"/></g>
<g><path style="opacity:1" fill="#54585b" d="M 543.5,423.5 C 499.336,424.499 455.003,424.832 410.5,424.5C 432.323,423.167 454.49,422.5 477,422.5C 499.336,422.5 521.503,422.833 543.5,423.5 Z"/></g>
<g><path style="opacity:1" fill="#6d7073" d="M 543.5,423.5 C 544.043,423.56 544.376,423.893 544.5,424.5C 499.669,425.831 455.002,425.831 410.5,424.5C 455.003,424.832 499.336,424.499 543.5,423.5 Z"/></g>
<g><path style="opacity:1" fill="#373b3f" d="M 410.5,445.5 C 455.172,445.167 499.838,445.5 544.5,446.5C 522.167,446.833 499.833,447.167 477.5,447.5C 454.823,447.5 432.49,446.833 410.5,445.5 Z"/></g>
<g><path style="opacity:1" fill="#3a3b3d" d="M 410.5,467.5 C 455.172,467.167 499.838,467.5 544.5,468.5C 522.167,468.833 499.833,469.167 477.5,469.5C 454.823,469.5 432.49,468.833 410.5,467.5 Z"/></g>
<g><path style="opacity:1" fill="#737476" d="M 410.5,489.5 C 455.167,489.5 499.833,489.5 544.5,489.5C 544.5,490.5 544.5,491.5 544.5,492.5C 499.833,492.5 455.167,492.5 410.5,492.5C 410.5,491.5 410.5,490.5 410.5,489.5 Z"/></g>
<g><path style="opacity:1" fill="#92969a" d="M 482.5,512.5 C 502.993,511.503 523.66,511.169 544.5,511.5C 544.737,512.791 544.404,513.791 543.5,514.5C 523.527,512.512 503.194,511.845 482.5,512.5 Z"/></g>
<g><path style="opacity:1" fill="#5a5e61" d="M 482.5,512.5 C 503.194,511.845 523.527,512.512 543.5,514.5C 522.806,515.155 502.473,514.488 482.5,512.5 Z"/></g>
<g><path style="opacity:1" fill="#3b4961" d="M 156.5,378.5 C 156.167,473.668 156.501,568.668 157.5,663.5C 157.709,664.922 158.209,666.255 159,667.5C 164.358,672.898 170.858,674.898 178.5,673.5C 178.338,675.527 178.505,677.527 179,679.5C 182.397,678.937 184.23,676.937 184.5,673.5C 185.167,673.5 185.5,673.167 185.5,672.5C 236.168,672.667 286.834,672.5 337.5,672C 342.703,670.448 345.703,666.948 346.5,661.5C 347.333,569.001 347.833,476.334 348,383.5C 348.5,476.833 348.667,570.166 348.5,663.5C 346.886,669.81 342.886,673.643 336.5,675C 286.5,675.333 236.5,675.667 186.5,676C 184.214,680.477 180.547,682.31 175.5,681.5C 175.833,679.5 176.167,677.5 176.5,675.5C 169.675,676.561 163.675,674.894 158.5,670.5C 156.673,668.513 155.673,666.179 155.5,663.5C 155.167,568.332 155.501,473.332 156.5,378.5 Z"/></g>
<g><path style="opacity:1" fill="#8daaee" d="M 240.5,640.5 C 242.03,641.067 243.53,641.733 245,642.5C 245.333,642.167 245.667,641.833 246,641.5C 251.29,646.601 250.123,649.268 242.5,649.5C 224.664,648.173 206.831,648.173 189,649.5C 180.333,646.833 180.333,644.167 189,641.5C 197.978,642.132 206.978,642.466 216,642.5C 224.528,642.498 232.695,641.831 240.5,640.5 Z"/></g>
<g><path style="opacity:1" fill="#293b6b" d="M 185.5,644.5 C 205.844,644.167 226.178,644.5 246.5,645.5C 236.333,645.833 226.167,646.167 216,646.5C 205.477,646.499 195.311,645.832 185.5,644.5 Z"/></g>
<g><path style="opacity:1" fill="#8eaaf1" d="M 186.5,619.5 C 230.814,620.474 275.147,620.807 319.5,620.5C 319.808,622.924 319.474,625.257 318.5,627.5C 274.012,626.169 229.512,626.169 185,627.5C 178.577,624.554 179.077,621.888 186.5,619.5 Z"/></g>
<g><path style="opacity:1" fill="#39507d" d="M 318.5,622.5 C 274.513,624.495 230.179,625.161 185.5,624.5C 229.487,622.505 273.821,621.839 318.5,622.5 Z"/></g>
<g><path style="opacity:1" fill="#5a709f" d="M 318.5,622.5 C 273.821,621.839 229.487,622.505 185.5,624.5C 184.596,623.791 184.263,622.791 184.5,621.5C 229.336,621.168 274.003,621.501 318.5,622.5 Z"/></g>
<g><path style="opacity:1" fill="#8cabef" d="M 191.5,599.5 C 233.997,598.501 276.663,598.168 319.5,598.5C 319.5,600.167 319.5,601.833 319.5,603.5C 276.663,603.832 233.997,603.499 191.5,602.5C 233.833,602.5 276.167,602.5 318.5,602.5C 318.5,601.5 318.5,600.5 318.5,599.5C 276.167,599.5 233.833,599.5 191.5,599.5 Z"/></g>
<g><path style="opacity:1" fill="#4a5b85" d="M 191.5,599.5 C 233.833,599.5 276.167,599.5 318.5,599.5C 318.5,600.5 318.5,601.5 318.5,602.5C 276.167,602.5 233.833,602.5 191.5,602.5C 189.167,602.5 186.833,602.5 184.5,602.5C 184.5,601.5 184.5,600.5 184.5,599.5C 186.833,599.5 189.167,599.5 191.5,599.5 Z"/></g>
<g><path style="opacity:1" fill="#8dabed" d="M 317.5,575.5 C 319.28,576.99 319.946,578.99 319.5,581.5C 273.833,581.5 228.167,581.5 182.5,581.5C 182.286,579.856 182.62,578.356 183.5,577C 228.335,576.833 273.002,576.333 317.5,575.5 Z"/></g>
<g><path style="opacity:1" fill="#4b5c83" d="M 184.5,577.5 C 229.167,577.5 273.833,577.5 318.5,577.5C 318.5,578.5 318.5,579.5 318.5,580.5C 273.833,580.5 229.167,580.5 184.5,580.5C 184.5,579.5 184.5,578.5 184.5,577.5 Z"/></g>
<g><path style="opacity:1" fill="#91abe6" d="M 182.5,554.5 C 228.167,554.5 273.833,554.5 319.5,554.5C 319.5,555.833 319.5,557.167 319.5,558.5C 274.165,558.667 228.832,558.5 183.5,558C 181.273,557.296 180.94,556.129 182.5,554.5 Z"/></g>
<g><path style="opacity:1" fill="#2e3b5b" d="M 185.5,555.5 C 229.838,555.167 274.172,555.5 318.5,556.5C 296.333,556.833 274.167,557.167 252,557.5C 229.49,557.5 207.323,556.833 185.5,555.5 Z"/></g>
<g><path style="opacity:1" fill="#8bacec" d="M 191.5,532.5 C 233.997,531.501 276.663,531.168 319.5,531.5C 319.5,533.167 319.5,534.833 319.5,536.5C 276.663,536.832 233.997,536.499 191.5,535.5C 234.003,535.832 276.337,535.499 318.5,534.5C 276.513,532.505 234.18,531.839 191.5,532.5 Z"/></g>
<g><path style="opacity:1" fill="#45587e" d="M 185.5,533.5 C 229.664,534.499 273.997,534.832 318.5,534.5C 276.337,535.499 234.003,535.832 191.5,535.5C 189.076,535.808 186.743,535.474 184.5,534.5C 184.624,533.893 184.957,533.56 185.5,533.5 Z"/></g>
<g><path style="opacity:1" fill="#3e4c70" d="M 191.5,532.5 C 234.18,531.839 276.513,532.505 318.5,534.5C 273.997,534.832 229.664,534.499 185.5,533.5C 187.265,532.539 189.265,532.205 191.5,532.5 Z"/></g>
<g><path style="opacity:1" fill="#8eaaef" d="M 183.5,508.5 C 228.501,508.333 273.501,508.5 318.5,509C 319.406,510.699 319.739,512.533 319.5,514.5C 274.162,514.833 228.828,514.5 183.5,513.5C 182.948,511.997 182.948,510.331 183.5,508.5 Z"/></g>
<g><path style="opacity:1" fill="#3f4d73" d="M 318.5,511.5 C 274.513,513.495 230.179,514.161 185.5,513.5C 229.487,511.505 273.821,510.839 318.5,511.5 Z"/></g>
<g><path style="opacity:1" fill="#556dab" d="M 318.5,511.5 C 273.821,510.839 229.487,511.505 185.5,513.5C 184.596,512.791 184.263,511.791 184.5,510.5C 229.336,510.168 274.003,510.501 318.5,511.5 Z"/></g>
<g><path style="opacity:1" fill="#8eacec" d="M 189.5,485.5 C 232.683,487.477 276.016,488.143 319.5,487.5C 319.5,489.167 319.5,490.833 319.5,492.5C 273.832,492.667 228.165,492.5 182.5,492C 181.269,490.817 181.269,489.651 182.5,488.5C 185.127,487.942 187.46,486.942 189.5,485.5 Z"/></g>
<g><path style="opacity:1" fill="#485c84" d="M 184.5,488.5 C 229.167,488.5 273.833,488.5 318.5,488.5C 318.5,489.5 318.5,490.5 318.5,491.5C 273.833,491.5 229.167,491.5 184.5,491.5C 184.5,490.5 184.5,489.5 184.5,488.5 Z"/></g>
<g><path style="opacity:1" fill="#8fabeb" d="M 182.5,465.5 C 228.167,465.5 273.833,465.5 319.5,465.5C 319.5,466.833 319.5,468.167 319.5,469.5C 316.801,469.466 314.301,470.133 312,471.5C 273.333,470.167 234.667,470.167 196,471.5C 191.504,470.831 187.004,469.998 182.5,469C 181.829,468.014 181.829,466.847 182.5,465.5 Z"/></g>
<g><path style="opacity:1" fill="#263b6c" d="M 184.5,466.5 C 229.172,466.167 273.838,466.5 318.5,467.5C 296.167,467.833 273.833,468.167 251.5,468.5C 228.823,468.5 206.49,467.833 184.5,466.5 Z"/></g>
<g><path style="opacity:1" fill="#94aae1" d="M 187.5,444.5 C 231.33,443.501 275.33,443.168 319.5,443.5C 319.5,444.833 319.5,446.167 319.5,447.5C 274.094,447.833 229.428,447.5 185.5,446.5C 229.838,446.833 274.172,446.5 318.5,445.5C 274.838,444.5 231.172,444.167 187.5,444.5 Z"/></g>
<g><path style="opacity:1" fill="#263c6c" d="M 187.5,444.5 C 231.172,444.167 274.838,444.5 318.5,445.5C 274.172,446.5 229.838,446.833 185.5,446.5C 185.5,445.167 186.167,444.5 187.5,444.5 Z"/></g>
<g><path style="opacity:1" fill="#93a8ec" d="M 184.5,421.5 C 184.263,422.791 184.596,423.791 185.5,424.5C 228.833,424.5 272.167,424.5 315.5,424.5C 273.32,425.183 230.986,425.849 188.5,426.5C 185.673,426.592 183.673,425.425 182.5,423C 182.836,421.97 183.503,421.47 184.5,421.5 Z"/></g>
<g><path style="opacity:1" fill="#3c4f77" d="M 318.5,422.5 C 318.5,423.167 318.5,423.833 318.5,424.5C 317.5,424.5 316.5,424.5 315.5,424.5C 272.167,424.5 228.833,424.5 185.5,424.5C 229.487,422.505 273.821,421.839 318.5,422.5 Z"/></g>
<g><path style="opacity:1" fill="#597299" d="M 184.5,421.5 C 185.833,421.5 187.167,421.5 188.5,421.5C 232.003,421.168 275.337,421.501 318.5,422.5C 273.821,421.839 229.487,422.505 185.5,424.5C 184.596,423.791 184.263,422.791 184.5,421.5 Z"/></g>
<g><path style="opacity:1" fill="#8eabec" d="M 188.5,421.5 C 231.997,420.501 275.663,420.168 319.5,420.5C 319.768,422.099 319.434,423.432 318.5,424.5C 318.5,423.833 318.5,423.167 318.5,422.5C 275.337,421.501 232.003,421.168 188.5,421.5 Z"/></g>
<g><path style="opacity:1" fill="#90a9ec" d="M 184.5,399.5 C 184.5,400.5 184.5,401.5 184.5,402.5C 229.336,402.832 274.003,402.499 318.5,401.5C 318.5,400.833 318.5,400.167 318.5,399.5C 319.434,400.568 319.768,401.901 319.5,403.5C 276.143,403.177 232.81,403.511 189.5,404.5C 186.061,404.283 183.395,402.783 181.5,400C 182.448,399.517 183.448,399.351 184.5,399.5 Z"/></g>
<g><path style="opacity:1" fill="#5a6ea1" d="M 184.5,399.5 C 184.833,399.5 185.167,399.5 185.5,399.5C 229.487,401.495 273.821,402.161 318.5,401.5C 274.003,402.499 229.336,402.832 184.5,402.5C 184.5,401.5 184.5,400.5 184.5,399.5 Z"/></g>
<g><path style="opacity:1" fill="#364568" d="M 185.5,399.5 C 229.833,399.5 274.167,399.5 318.5,399.5C 318.5,400.167 318.5,400.833 318.5,401.5C 273.821,402.161 229.487,401.495 185.5,399.5 Z"/></g>
<g><path style="opacity:1" fill="#53565a" d="M 166.5,712.5 C 271.834,712.333 377.167,712.5 482.5,713C 488.374,715.21 492.207,719.377 494,725.5C 494.667,737.833 494.667,750.167 494,762.5C 492.828,769.384 488.995,773.884 482.5,776C 383.833,776.333 285.167,776.667 186.5,777C 184.875,782.454 181.209,784.954 175.5,784.5C 175.575,781.794 175.908,779.127 176.5,776.5C 165.182,777.991 158.016,773.324 155,762.5C 154.333,750.5 154.333,738.5 155,726.5C 156.863,720.144 160.697,715.477 166.5,712.5 Z"/></g>
<g><path style="opacity:1" fill="#95969a" d="M 481.5,773.5 C 382.598,774.169 283.598,774.836 184.5,775.5C 283.161,773.502 382.161,772.836 481.5,773.5 Z"/></g>
<g><path style="opacity:1" fill="#fefefe" d="M 481.5,773.5 C 382.161,772.836 283.161,773.502 184.5,775.5C 179.768,785.419 177.768,784.752 178.5,773.5C 166.615,776.759 159.449,772.426 157,760.5C 156.333,749.5 156.333,738.5 157,727.5C 158.017,722.288 160.851,718.455 165.5,716C 218.333,715.833 271.167,715.667 324,715.5C 377.89,715.34 431.724,715.84 485.5,717C 489.092,720.016 491.258,723.849 492,728.5C 492.667,739.5 492.667,750.5 492,761.5C 490.783,767.547 487.283,771.547 481.5,773.5 Z"/></g>
<g><path style="opacity:1" fill="#5b5c5e" d="M 471.5,755.5 C 372.172,757.498 272.506,758.164 172.5,757.5C 271.828,755.502 371.494,754.836 471.5,755.5 Z"/></g>
<g><path style="opacity:1" fill="#959697" d="M 471.5,755.5 C 371.494,754.836 271.828,755.502 172.5,757.5C 171.596,756.791 171.263,755.791 171.5,754.5C 271.668,754.167 371.668,754.501 471.5,755.5 Z"/></g>
<g><path style="opacity:1" fill="#707478" d="M 171.5,732.5 C 271.5,732.5 371.5,732.5 471.5,732.5C 471.5,733.5 471.5,734.5 471.5,735.5C 371.5,735.5 271.5,735.5 171.5,735.5C 171.5,734.5 171.5,733.5 171.5,732.5 Z"/></g>
<g><path style="opacity:1" fill="#45494f" d="M 413.5,806.5 C 471.168,806.333 528.834,806.5 586.5,807C 592,808.5 595.5,812 597,817.5C 597.667,842.5 597.667,867.5 597,892.5C 593.547,902.699 586.381,906.699 575.5,904.5C 575.993,906.806 576.326,909.139 576.5,911.5C 571.554,911.86 567.888,909.86 565.5,905.5C 514.837,904.667 464.17,904.167 413.5,904C 408.243,901.744 404.743,897.91 403,892.5C 402.333,868.167 402.333,843.833 403,819.5C 404.625,813.547 408.125,809.214 413.5,806.5 Z"/></g>
<g><path style="opacity:1" fill="#c2c7cd" d="M 415.5,808.5 C 473.212,808.016 530.879,808.516 588.5,810C 591,811.167 592.833,813 594,815.5C 594.667,841.833 594.667,868.167 594,894.5C 589.199,901.899 582.366,904.565 573.5,902.5C 572.939,909.692 570.606,909.858 566.5,903C 515.084,902.991 463.75,902.324 412.5,901C 409.255,899.019 407.089,896.186 406,892.5C 405.333,867.5 405.333,842.5 406,817.5C 408.43,813.566 411.597,810.566 415.5,808.5 Z"/></g>
<g><path style="opacity:1" fill="#60656b" d="M 425.5,832.5 C 474.833,832.5 524.167,832.5 573.5,832.5C 573.5,833.5 573.5,834.5 573.5,835.5C 524.167,835.5 474.833,835.5 425.5,835.5C 425.5,834.5 425.5,833.5 425.5,832.5 Z"/></g>
<g><path style="opacity:1" fill="#4b5056" d="M 573.5,856.5 C 524.33,856.832 475.33,856.499 426.5,855.5C 450.831,854.833 475.331,854.5 500,854.5C 524.843,854.5 549.343,855.167 573.5,856.5 Z"/></g>
<g><path style="opacity:1" fill="#5b6066" d="M 426.5,855.5 C 475.33,856.499 524.33,856.832 573.5,856.5C 524.332,857.831 474.998,857.831 425.5,856.5C 425.624,855.893 425.957,855.56 426.5,855.5 Z"/></g>
<g><path style="opacity:1" fill="#363b41" d="M 426.5,877.5 C 475.505,877.167 524.505,877.5 573.5,878.5C 549,878.833 524.5,879.167 500,879.5C 475.157,879.5 450.657,878.833 426.5,877.5 Z"/></g>
<g><path style="opacity:1" fill="#fefefe" d="M 1828.5,985.5 C 1828.5,1008.5 1828.5,1031.5 1828.5,1054.5C 1828.57,1054.94 1828.4,1055.27 1828,1055.5C 1827,1054.83 1826,1054.17 1825,1053.5C 1250.24,1054.67 675.403,1054.83 100.5,1054C 90.2704,1052.27 82.2704,1047.1 76.5,1038.5C 68.3053,1025.21 68.6387,1011.88 77.5,998.5C 82.7395,993.063 88.7395,988.896 95.5,986C 98.1667,985.667 100.833,985.333 103.5,985C 678.786,984.168 1253.79,984.335 1828.5,985.5 Z"/></g>
<g><path style="opacity:1" fill="#383c42" d="M 1828.5,1054.5 C 1828.5,1031.5 1828.5,1008.5 1828.5,985.5C 1839.83,984.833 1851.33,984.5 1863,984.5C 1876.54,984.392 1890.04,984.892 1903.5,986C 1927.37,996.945 1933.87,1014.45 1923,1038.5C 1916.95,1047.61 1908.45,1052.78 1897.5,1054C 1874.5,1054.5 1851.5,1054.67 1828.5,1054.5 Z"/></g>
<g><path style="opacity:1" fill="#f1f3f4" d="M 1885.5,1003.5 C 1887.17,1003.5 1888.83,1003.5 1890.5,1003.5C 1886.11,1015.17 1881.61,1026.84 1877,1038.5C 1875.92,1040.39 1874.59,1040.73 1873,1039.5C 1871.67,1034.52 1870.51,1029.52 1869.5,1024.5C 1864.51,1021.78 1859.18,1019.95 1853.5,1019C 1852.17,1017.67 1852.17,1016.33 1853.5,1015C 1864.46,1011.63 1875.12,1007.8 1885.5,1003.5 Z"/></g>
<g><path style="opacity:1" fill="#434548" d="M 1874.5,1011.5 C 1875.55,1011.35 1876.55,1011.52 1877.5,1012C 1874.98,1014.68 1872.32,1017.18 1869.5,1019.5C 1866.93,1018.37 1864.26,1017.53 1861.5,1017C 1865.92,1015.11 1870.26,1013.28 1874.5,1011.5 Z"/></g>
<g><path style="opacity:1" fill="#3f4245" d="M 1881.5,1013.5 C 1880.33,1019.5 1878.16,1025.5 1875,1031.5C 1874,1028.2 1873.67,1024.87 1874,1021.5C 1876.7,1018.96 1879.2,1016.3 1881.5,1013.5 Z"/></g>
</svg>
