<?xml version="1.0" standalone="no"?>
<svg xmlns="http://www.w3.org/2000/svg" viewBox="0 0 1920 1080" width="1920" height="1080" preserveAspectRatio="xMidYMid meet" style="width: 100%; height: 100%;"><defs><mask id="ly_XM9R9EprHN" mask-type="alpha"><g class="mask" transform="matrix(1,0,0,1,0,0)" opacity="1" style="transform: matrix(1, 0, 0, 1, 0, 0);"><rect width="1920" height="1080" fill="#2d2d2d"></rect></g></mask><linearGradient id="gr_StqtfIlosE" spreadMethod="pad" gradientUnits="userSpaceOnUse" x1="790" y1="371" x2="1243" y2="1080"><stop offset="0%" stop-color="rgb(182,222,247)"></stop><stop offset="49%" stop-color="rgb(186,228,248)"></stop><stop offset="100%" stop-color="rgb(191,235,248)"></stop></linearGradient></defs><g><g mask="url(#ly_XM9R9EprHN)"><g class="charMC" opacity="1" data-svg-origin="960 540" style="transform-origin: 0px 0px 0px; transform: matrix(1, 0, 0, 1, 0, 0);"><g class="co40prop1" opacity="1" style="user-select: none; transform-origin: 0px 0px 0px; transform: matrix(1, 0, 0, 1, -2.25, -6.25);" data-svg-origin="960.25 450.822998046875"><path fill="url(#gr_StqtfIlosE)" fill-opacity="1" d="M0 0 M2012.25,-23.75 C2012.25,-23.75 1984.25,913.396 1984.25,913.396 C1984.25,913.396 0.25,901.396 0.25,901.396 C0.25,901.396 0.25,0.25 0.25,0.25 C0.25,0.25 2012.25,-23.75 2012.25,-23.75z"></path></g><g class="highlight1" opacity="0.5700000000000001" style="user-select: none; transform-origin: 0px 0px 0px; transform: matrix(1, 0, 0, 1, 1100.26, 124.099);" data-svg-origin="545.2949926757801 331.676009155273"><path fill="rgb(255,255,255)" fill-opacity="1" d="M0 0 M4.798,559.88 C-1.577,540.057 -2.7590000000000003,515.5699999999999 8.443,497.263 C27.862000000000002,465.522 71.17599999999999,464.274 103.814,470.108 C137.59,476.145 188.556,494.96799999999996 206.518,526.188 C206.518,526.188 205.72199999999998,462.515 280.537,481.086 C280.537,481.086 270.368,355.951 378.17,381.951 C378.17,381.951 418.85,392.916 440.781,418.651 C440.781,418.651 474.476,314.38599999999997 560.965,379.474 C560.965,379.474 563.147,242.90300000000002 687.721,274.622 C687.721,274.622 686.72,128.14300000000003 848.201,195.354 C848.201,195.354 833.0790000000001,102.41 934.778,145.125 C934.778,145.125 891.868,-11.982000000000001 1017.014,0.732 C1017.014,0.732 1090.591,12.052 1090.591,12.052 C1090.591,12.052 1013.926,663.353 1013.926,663.353 C1013.926,663.353 7.99,615.276 7.99,615.276 C7.99,615.276 4.798,559.88 4.798,559.88z"></path></g><g class="highlight2" opacity="0.5700000000000001" style="user-select: none; transform-origin: 0px 0px 0px; transform: matrix(1, 0, 0, 1, -144.92, 160.521);" data-svg-origin="548.645997924805 295.25350561523396"><path fill="rgb(255,255,255)" fill-opacity="1" d="M0 0 M94.367,16.793 C94.367,16.793 177.761,-33.853 222.75,40.764 C222.75,40.764 240.307,85.752 228.237,107.698 C228.237,107.698 300.658,75.87700000000001 317.117,146.104 C317.117,146.104 328.09000000000003,180.12 317.117,199.871 C317.117,199.871 379.66299999999995,143.909 430.138,208.649 C430.138,208.649 445.5,233.887 440.014,254.735 C440.014,254.735 491.58700000000005,208.649 526.7,254.735 C526.7,254.735 546.451,273.39000000000004 547.549,293.141 C547.549,293.141 604.6080000000001,232.79 647.402,287.654 C647.402,287.654 672.64,327.157 668.251,358.978 C668.251,358.978 731.894,305.211 791.148,323.865 C791.148,323.865 891.001,340.324 869.055,463.221 C869.055,463.221 980.9290000000001,431.4 987.537,529.058 C987.537,529.058 1070.957,468.70799999999997 1089.611,548.81 C1089.611,548.81 1097.292,576.242 1097.292,576.242 C1097.292,576.242 44.989,590.506 44.989,590.506 C44.989,590.506 0,149.396 0,149.396 C0,149.396 94.367,16.793 94.367,16.793z"></path></g><g class="highlight3" opacity="0.6" style="user-select: none; transform-origin: 0px 0px 0px; transform: matrix(1, 0, 0, 1, 117.099, 67.62);" data-svg-origin="286.626997924805 32.63450134277299"><path fill="rgb(255,255,255)" fill-opacity="1" d="M0 0 M0,65.269 C0,65.269 573.165,65.269 573.165,65.269 C573.165,65.269 580.153,47.028 470.297,51.669 C470.297,51.669 484.635,8.697 400.409,25.044 C400.409,25.044 347.272,-34.244 266.074,29.635 C266.074,29.635 230.439,11.774999999999999 200.608,51.345 C200.608,51.345 171.95,29.686 133.739,51.345 C133.739,51.345 117.02099999999999,35.873999999999995 71.645,54.439 C71.645,54.439 28.658,40.515 0,65.269z"></path></g><g class="highlight4" opacity="0.6" style="user-select: none; transform-origin: 0px 0px 0px; transform: matrix(1, 0, 0, 1, 1278.63, 211.853);" data-svg-origin="138.67000305175998 24.370999023438003"><path fill="rgb(255,255,255)" fill-opacity="1" d="M0 0 M277.342,48.742 C277.342,48.742 0.039,48.742 0.039,48.742 C0.039,48.742 -3.3430000000000035,35.119 49.808,38.585 C49.808,38.585 42.871,6.492000000000001 83.62,18.701 C83.62,18.701 109.328,-25.577 148.613,22.13 C148.613,22.13 165.853,8.791000000000004 180.285,38.343 C180.285,38.343 194.151,22.167000000000005 212.638,38.343 C212.638,38.343 220.726,26.789 242.679,40.654 C242.679,40.654 263.477,30.255 277.342,48.742z"></path></g><g class="shadow1" opacity="0.21" style="user-select: none; transform-origin: 0px 0px 0px; transform: matrix(1, 0, 0, 1, 345.204, 531.745);" data-svg-origin="172.57448815918002 94.91350830078102"><path fill="rgb(0,0,0)" fill-opacity="1" d="M0 0 M345.149,164.352 C345.149,164.352 295.268,0.935 295.268,0.935 C295.268,0.935 277.446,105.201 277.446,105.201 C277.446,105.201 253.396,26.412 253.396,26.412 C253.396,26.412 235.402,131.678 235.402,131.678 C235.402,131.678 68.127,131.678 68.127,131.678 C68.127,131.678 27.934,0 27.934,0 C27.934,0 0.001,163.417 0.001,163.417 C0.001,163.417 77.815,163.417 77.815,163.417 C77.815,163.417 73.865,150.475 73.865,150.475 C73.865,150.475 232.19,150.475 232.19,150.475 C232.19,150.475 225.462,189.829 225.462,189.829 C225.462,189.829 303.277,189.829 303.277,189.829 C303.277,189.829 295.501,164.352 295.501,164.352 C295.501,164.352 345.149,164.352 345.149,164.352z"></path></g><g class="co39prop5_-0zf008_0zf322_-0zf150" opacity="1" style="user-select: none; transform-origin: 0px 0px 0px; transform: matrix(1, 0, 0, 1, 8.718, 474.254);" data-svg-origin="978.666353637695 175.111509033203"><path fill="rgb(125,136,57)" fill-opacity="1" d="M0 0 M1939.025,315.003 C1939.025,315.003 1911.091,46.096 1911.091,46.096 C1911.091,46.096 1882.887,138.498 1882.887,138.498 C1882.887,138.498 1872.184,75.885 1872.184,75.885 C1872.184,75.885 1847.244,157.594 1847.244,157.594 C1847.244,157.594 1833.277,75.885 1833.277,75.885 C1833.277,75.885 1814.635,136.956 1814.635,136.956 C1814.635,136.956 1794.37,18.395 1794.37,18.395 C1794.37,18.395 1752.003,223.949 1752.003,223.949 C1752.003,223.949 1720.381,223.949 1720.381,223.949 C1720.381,223.949 1701.715,44.263 1701.715,44.263 C1701.715,44.263 1673.74,135.916 1673.74,135.916 C1673.74,135.916 1662.808,71.964 1662.808,71.964 C1662.808,71.964 1646.23,126.278 1646.23,126.278 C1646.23,126.278 1635.6,64.095 1635.6,64.095 C1635.6,64.095 1605.948,223.949 1605.948,223.949 C1605.948,223.949 887.087,223.949 887.087,223.949 C887.087,223.949 862.8,81.868 862.8,81.868 C862.8,81.868 846.694,179.983 846.694,179.983 C846.694,179.983 835.855,135.323 835.855,135.323 C835.855,135.323 818.616,186.95 818.616,186.95 C818.616,186.95 806.817,98.66 806.817,98.66 C806.817,98.66 768.574,223.949 768.574,223.949 C768.574,223.949 298.255,223.949 298.255,223.949 C298.255,223.949 265.313,0.001 265.313,0.001 C265.313,0.001 245.047,118.562 245.047,118.562 C245.047,118.562 226.406,57.491 226.406,57.491 C226.406,57.491 212.439,139.199 212.439,139.199 C212.439,139.199 187.499,57.491 187.499,57.491 C187.499,57.491 176.796,120.104 176.796,120.104 C176.796,120.104 148.591,27.701 148.591,27.701 C148.591,27.701 127.377,151.811 127.377,151.811 C127.377,151.811 92.724,38.285 92.724,38.285 C92.724,38.285 78.594,120.948 78.594,120.948 C78.594,120.948 41.676,0.001 41.676,0.001 C41.676,0.001 0.001,245.681 0.001,245.681 C0.001,245.681 57.592,245.681 57.592,245.681 C57.592,245.681 51.048,283.965 51.048,283.965 C51.048,283.965 128.863,283.965 128.863,283.965 C128.863,283.965 131.29,262.532 131.29,262.532 C131.29,262.532 150.915,273.382 150.915,273.382 C150.915,273.382 145.822,303.171 145.822,303.171 C145.822,303.171 184.73,303.171 184.73,303.171 C184.73,303.171 223.637,303.171 223.637,303.171 C223.637,303.171 262.545,303.171 262.545,303.171 C262.545,303.171 245.58,247.593 245.58,247.593 C245.58,247.593 1601.562,247.593 1601.562,247.593 C1601.562,247.593 1585.719,333.003 1585.719,333.003 C1585.719,333.003 1615.329,333.003 1615.329,333.003 C1615.329,333.003 1612.927,340.872 1612.927,340.872 C1612.927,340.872 1690.742,340.872 1690.742,340.872 C1690.742,340.872 1686.006,313.171 1686.006,313.171 C1686.006,313.171 1729.649,313.171 1729.649,313.171 C1729.649,313.171 1722.837,247.593 1722.837,247.593 C1722.837,247.593 1747.129,247.593 1747.129,247.593 C1747.129,247.593 1739.813,283.09 1739.813,283.09 C1739.813,283.09 1792.715,314.259 1792.715,314.259 C1792.715,314.259 1783.395,344.793 1783.395,344.793 C1783.395,344.793 1822.303,344.793 1822.303,344.793 C1822.303,344.793 1861.211,344.793 1861.211,344.793 C1861.211,344.793 1900.118,344.793 1900.118,344.793 C1900.118,344.793 1957.335,350.225 1957.335,350.225 C1957.335,350.225 1939.025,315.003 1939.025,315.003z"></path></g><g class="co38prop2_0zf006_0zf177_-0zf198" opacity="1" style="user-select: none; transform-origin: 0px 0px 0px; transform: matrix(1, 0, 0, 1, 952.218, 582.466);" data-svg-origin="544.9520286865201 195.708102783203"><path fill="rgb(167,170,112)" fill-opacity="1" d="M0 0 M0.25,122.094 C0.25,122.094 779.077,0.25 1089.654,148.237 C1089.654,148.237 1069.203,391.167 1069.203,391.167 C1069.203,391.167 390.494,350.966 390.494,350.966 C390.494,350.966 0.25,122.094 0.25,122.094z"></path></g><g class="shadow3" opacity="0.15" style="user-select: none; transform-origin: 0px 0px 0px; transform: matrix(1, 0, 0, 1, -19.882, 596.018);" data-svg-origin="685.375988037109 152.96851123046895"><path fill="rgb(0,0,0)" fill-opacity="1" d="M0 0 M0,0 C0,0 961.557,41.218999999999994 1370.757,152.969 C1370.757,152.969 0,305.937 0,305.937 C0,305.937 0,0 0,0z"></path></g><g class="shadow2" opacity="0.08" style="user-select: none; transform-origin: 0px 0px 0px; transform: matrix(1, 0, 0, 1, 1120.97, 649.366);" data-svg-origin="424.40998962402 138.63349645996107"><path fill="rgb(0,0,0)" fill-opacity="1" d="M0 0 M848.82,53.969 C848.82,53.969 771.071,34.57 752.797,31.466 C705.0830000000001,47.079 586.8699999999999,172.921 556.012,204.88 C556.012,204.88 498.061,188.244 498.061,188.244 C563.2049999999999,91.314 655.272,17.914 655.272,17.914 C655.272,17.914 554.96,9.55 554.96,9.55 C496.65700000000004,35.265 425.788,106.71499999999999 377.741,154.95 C377.741,154.95 320.097,145.56 320.097,145.56 C396.284,46.60900000000001 507.416,14.056 507.416,14.056 C507.416,14.056 367.554,-0.001 367.554,-0.001 C294.43899999999996,26.564 229.118,85.33699999999999 186.935,123.868 C186.935,123.868 128.542,114.357 128.542,114.357 C195.66500000000002,9.269999999999996 223.562,9.55 223.562,9.55 C223.562,9.55 100.191,24.466 100.191,24.466 C20.876000000000005,59.829 -0.003,99.82 -0.003,99.82 C-0.003,99.82 112.505,142.418 112.505,142.418 C112.505,142.418 170.53,139.092 170.53,139.092 C170.53,139.092 295.005,183.296 295.005,183.296 C295.005,183.296 348.803,184.612 348.803,184.612 C348.803,184.612 467.948,239.182 467.948,239.182 C467.948,239.182 548.935,212.267 548.935,212.267 C548.935,212.267 687.461,277.267 687.461,277.267 C687.461,277.267 719.384,251.78 719.384,251.78 C719.384,251.78 682.245,241.118 682.245,241.118 C747.025,131.79899999999998 848.82,53.969 848.82,53.969z"></path></g><g class="highlight5" opacity="0.11" style="user-select: none; transform-origin: 0px 0px 0px; transform: matrix(1, 0, 0, 1, 1205.63, 657.395);" data-svg-origin="406.73000061034986 48.28700683593797"><path fill="rgb(255,255,255)" fill-opacity="1" d="M0 0 M0.001,17.283 C165.738,71.354 438.2950000000001,126.49 788.642,77.74 C788.642,77.74 813.456,63.263 813.456,63.263 C611.168,-19.265000000000008 245.997,-5.062999999999999 0.001,17.283z"></path></g><g class="co37prop2_-0zf000_0zf107_-0zf088" opacity="1" style="user-select: none; transform-origin: 0px 0px 0px; transform: matrix(1, 0, 0, 1, -20.132, 595.767);" data-svg-origin="685.6283836669919 153.2190992431639"><path fill="rgb(143,149,77)" fill-opacity="1" d="M0 0 M0.25,0.25 C0.25,0.25 961.807,41.468999999999994 1371.007,153.219 C1371.007,153.219 0.25,306.187 0.25,306.187 C0.25,306.187 0.25,0.25 0.25,0.25z"></path></g><g transform="matrix(1,0,0,1,-35.038,597.555)" opacity="0.1" style="user-select: none;"><path fill="rgb(255,255,255)" fill-opacity="1" d="M0 0 M0,220.246 C213.729,222.131 953.5439999999999,220.933 1221.252,119.289 C765.634,32.821 0,0 0,0 C0,0 0,220.246 0,220.246z"></path></g><g class="co36prop2_0zf008_0zf143_-0zf149" opacity="1" style="user-select: none; transform-origin: 0px 0px 0px; transform: matrix(1, 0, 0, 1, -20.133, 590.448);" data-svg-origin="535.284412963867 49.08160205078104"><path fill="rgb(161,164,93)" fill-opacity="1" d="M0 0 M0.25,5.57 C0.25,5.57 1025.775,94.885 1070.317,97.914 C1070.317,97.914 295.546,0.25 0.25,5.57z"></path></g><g class="shadow4" opacity="0.1" style="user-select: none; transform-origin: 0px 0px 0px; transform: matrix(1, 0, 0, 1, -10.128, 595.808);" data-svg-origin="563.2042939453121 193.31120166015603"><path fill="rgb(0,0,0)" fill-opacity="1" d="M0 0 M1126.404,295.506 C1126.404,295.506 1119.031,277.918 1103.543,251.347 C1103.543,251.347 1103.52,251.302 1103.52,251.302 C1103.52,251.302 1103.517,251.302 1103.517,251.302 C1077.027,205.865 1026.806,134.174 949.027,79.071 C949.027,79.071 713.78,52.559 713.78,52.559 C713.78,52.559 808.5169999999999,94.68300000000002 878.438,258.153 C878.438,258.153 772.176,261.388 772.176,261.388 C732.221,200.92199999999997 650.962,93.95500000000001 543.584,35.118 C543.584,35.118 296.204,13.451 296.204,13.451 C296.204,13.451 438.623,95.44399999999999 526.736,272.536 C526.736,272.536 437.522,276.589 437.522,276.589 C437.522,276.589 426.6,279.557 426.6,279.557 C379.30600000000004,209.87 283.918,77.03800000000001 199.933,7.799 C199.933,7.799 0,0 0,0 C0,0 131.904,136.621 205.642,339.586 C205.642,339.586 189.105,344.078 189.105,344.078 C189.105,344.078 214.046,386.622 214.046,386.622 C214.046,386.622 900.914,318.026 900.914,318.026 C902.263,322.145 903.598,326.318 904.911,330.558 C904.911,330.558 1126.404,295.506 1126.404,295.506z"></path></g><g class="highlight6" opacity="0.06" style="user-select: none; transform-origin: 0px 0px 0px; transform: matrix(1, 0, 0, 1, -19.882, 596.019);" data-svg-origin="440.15999987793 61.71450524902298"><path fill="rgb(255,255,255)" fill-opacity="1" d="M0 0 M6.9,100.078 C164.572,120.45100000000001 525.546,152.337 880.32,69.004 C470.13800000000003,22.553000000000004 0,0 0,0 C0,0 6.9,100.078 6.9,100.078z"></path></g><g class="co35prop5_0_0_0" opacity="1" style="user-select: none; transform-origin: 0px 0px 0px; transform: matrix(1, 0, 0, 1, 273.563, 544.584);" data-svg-origin="84.20009204101603 130.8087001953121"><path fill="rgb(94,102,16)" fill-opacity="1" d="M0 0 M168.149,261.367 C168.149,261.367 129.837,70.881 129.837,70.881 C129.837,70.881 97.263,235.638 97.263,235.638 C97.263,235.638 49.921,0.25 49.921,0.25 C49.921,0.25 0.25,251.475 0.25,251.475 C0.25,251.475 94.131,251.475 94.131,251.475 C94.131,251.475 92.176,261.367 92.176,261.367 C92.176,261.367 168.149,261.367 168.149,261.367z"></path></g><g class="co34prop5_0zf015_-0zf017_0zf079" opacity="1" style="user-select: none; transform-origin: 0px 0px 0px; transform: matrix(1, 0, 0, 1, 290.59, 609.942);" data-svg-origin="69.23139587402301 107.39289990234397"><path fill="rgb(68,68,9)" fill-opacity="1" d="M0 0 M114.026,179.373 C114.026,179.373 138.212,166.477 138.212,166.477 C138.212,166.477 113.748,177.563 113.748,177.563 C113.748,177.563 114.118,147.398 114.118,147.398 C114.118,147.398 127.672,138.556 127.672,138.556 C127.672,138.556 114.329,145.343 114.329,145.343 C114.329,145.343 113.574,106.27 113.574,106.27 C113.574,106.27 122.252,101.907 122.252,101.907 C122.252,101.907 113.563,104.865 113.563,104.865 C113.563,104.865 111.41,55.079 111.41,55.079 C111.41,55.079 111.827,90.03 111.827,90.03 C111.827,90.03 102.236,84.94 102.236,84.94 C102.236,84.94 111.524,91.593 111.524,91.593 C111.524,91.593 112.08,127.187 112.08,127.187 C112.08,127.187 94.731,119.893 94.731,119.893 C94.731,119.893 112.08,129.752 112.08,129.752 C112.08,129.752 111.709,162.632 111.709,162.632 C111.709,162.632 88.059,157.559 88.059,157.559 C88.059,157.559 111.709,164.441 111.709,164.441 C111.709,164.441 110.458,190.317 110.458,190.317 C110.458,190.317 35.451,190.317 35.451,190.317 C35.451,190.317 34.497,164.178 34.497,164.178 C34.497,164.178 66.395,147.17 66.395,147.17 C66.395,147.17 34.13,161.79 34.13,161.79 C34.13,161.79 34.619,122.007 34.619,122.007 C34.619,122.007 52.494,110.346 52.494,110.346 C52.494,110.346 34.896,119.296 34.896,119.296 C34.896,119.296 33.901,67.765 33.901,67.765 C33.901,67.765 45.345,62.011 45.345,62.011 C45.345,62.011 33.885,65.912 33.885,65.912 C33.885,65.912 31.047,0.25 31.047,0.25 C31.047,0.25 31.596,46.347 31.596,46.347 C31.596,46.347 18.948,39.634 18.948,39.634 C18.948,39.634 31.197,48.407 31.197,48.407 C31.197,48.407 31.93,95.352 31.93,95.352 C31.93,95.352 9.049,85.73 9.049,85.73 C9.049,85.73 31.93,98.733 31.93,98.733 C31.93,98.733 31.441,142.098 31.441,142.098 C31.441,142.098 0.25,135.407 0.25,135.407 C0.25,135.407 31.441,144.484 31.441,144.484 C31.441,144.484 29.225,190.317 29.225,190.317 C29.225,190.317 21.729,190.317 21.729,190.317 C21.729,190.317 21.729,214.535 21.729,214.535 C21.729,214.535 136.804,214.535 136.804,214.535 C136.804,214.535 136.804,190.317 136.804,190.317 C136.804,190.317 114.425,190.317 114.425,190.317 C114.425,190.317 114.026,179.373 114.026,179.373z"></path></g><g class="co33prop5_0zf000_0zf000_0zf000" opacity="1" style="user-select: none; transform-origin: 0px 0px 0px; transform: matrix(1, 0, 0, 1, 1145.73, 571.499);" data-svg-origin="67.35558654784995 127.88040979003893"><path fill="rgb(94,102,16)" fill-opacity="1" d="M0 0 M134.468,190.736 C134.468,190.736 96.156,0.251 96.156,0.251 C96.156,0.251 60.825,178.949 60.825,178.949 C60.825,178.949 37.912,65.025 37.912,65.025 C37.912,65.025 0.25,255.509 0.25,255.509 C0.25,255.509 76.224,255.509 76.224,255.509 C76.224,255.509 63.197,190.736 63.197,190.736 C63.197,190.736 134.468,190.736 134.468,190.736z"></path></g><g class="co32prop5_0zf015_-0zf017_0zf079" opacity="1" style="user-select: none; transform-origin: 0px 0px 0px; transform: matrix(1, 0, 0, 1, 1158.64, 621.056);" data-svg-origin="54.445494995119816 119.95759558105499"><path fill="rgb(68,68,9)" fill-opacity="1" d="M0 0 M85.146,143.274 C85.146,143.274 84.461,124.544 84.461,124.544 C84.461,124.544 108.648,111.648 108.648,111.648 C108.648,111.648 84.184,122.734 84.184,122.734 C84.184,122.734 84.554,92.569 84.554,92.569 C84.554,92.569 98.108,83.727 98.108,83.727 C98.108,83.727 84.765,90.513 84.765,90.513 C84.765,90.513 84.01,51.441 84.01,51.441 C84.01,51.441 92.688,47.079 92.688,47.079 C92.688,47.079 83.999,50.037 83.999,50.037 C83.999,50.037 81.846,0.25 81.846,0.25 C81.846,0.25 82.263,35.202 82.263,35.202 C82.263,35.202 72.672,30.111 72.672,30.111 C72.672,30.111 81.959,36.764 81.959,36.764 C81.959,36.764 82.516,72.359 82.516,72.359 C82.516,72.359 65.167,65.063 65.167,65.063 C65.167,65.063 82.516,74.922 82.516,74.922 C82.516,74.922 82.145,107.802 82.145,107.802 C82.145,107.802 58.495,102.73 58.495,102.73 C58.495,102.73 82.145,109.612 82.145,109.612 C82.145,109.612 80.305,147.674 80.305,147.674 C80.305,147.674 26.483,196.596 26.483,196.596 C26.483,196.596 26.217,189.318 26.217,189.318 C26.217,189.318 50.404,168.063 50.404,168.063 C50.404,168.063 25.94,187.508 25.94,187.508 C25.94,187.508 26.31,157.343 26.31,157.343 C26.31,157.343 39.864,148.502 39.864,148.502 C39.864,148.502 26.521,155.288 26.521,155.288 C26.521,155.288 25.766,116.215 25.766,116.215 C25.766,116.215 34.443,111.853 34.443,111.853 C34.443,111.853 25.754,114.811 25.754,114.811 C25.754,114.811 23.602,65.024 23.602,65.024 C23.602,65.024 24.019,99.976 24.019,99.976 C24.019,99.976 14.428,94.885 14.428,94.885 C14.428,94.885 23.715,101.539 23.715,101.539 C23.715,101.539 24.272,137.133 24.272,137.133 C24.272,137.133 6.922,129.837 6.922,129.837 C6.922,129.837 24.272,139.697 24.272,139.697 C24.272,139.697 23.901,172.577 23.901,172.577 C23.901,172.577 0.25,167.504 0.25,167.504 C0.25,167.504 23.901,174.386 23.901,174.386 C23.901,174.386 22.659,200.073 22.659,200.073 C22.659,200.073 0.25,220.441 0.25,220.441 C0.25,220.441 0.25,235.673 0.25,235.673 C0.25,235.673 89.168,239.665 89.168,239.665 C89.168,239.665 108.648,141.179 108.648,141.179 C108.648,141.179 89.168,139.618 89.168,139.618 C89.168,139.618 85.146,143.274 85.146,143.274z"></path></g><g class="co30prop3_-0zf004_-0zf098_0zf045" opacity="1" style="user-select: none; transform-origin: 0px 0px 0px; transform: matrix(1, 0, 0, 1, 1429.28, 535.064);" data-svg-origin="92.83459350586008 128.35779870605506"><path fill="rgb(177,66,54)" fill-opacity="1" d="M0 0 M0.25,127.193 C0.25,127.193 0.25,65.468 0.25,65.468 C0.25,65.468 88.761,0.25 88.761,0.25 C88.761,0.25 185.424,77.115 185.424,77.115 C185.424,77.115 185.424,256.466 185.424,256.466 C185.424,256.466 0.25,256.466 0.25,256.466 C0.25,256.466 0.25,127.193 0.25,127.193z"></path></g><g class="shadow22" opacity="0.14" style="user-select: none; transform-origin: 0px 0px 0px; transform: matrix(1, 0, 0, 1, 1550.98, 613.094);" data-svg-origin="11.313701171879984 16.263101440429978"><path fill="rgb(0,0,0)" fill-opacity="1" d="M0 0 M22.378,32.276 C22.378,32.276 0.25,32.276 0.25,32.276 C0.25,32.276 0.25,0.25 0.25,0.25 C0.25,0.25 3.24,0.25 3.24,0.25 C3.24,0.25 22.378,0.25 22.378,0.25 C22.378,0.25 22.378,32.276 22.378,32.276z"></path></g><g class="shadow20" opacity="0.14" style="user-select: none; transform-origin: 0px 0px 0px; transform: matrix(1, 0, 0, 1, 1460.14, 613.094);" data-svg-origin="11.313292846679815 16.263101440429978"><path fill="rgb(0,0,0)" fill-opacity="1" d="M0 0 M22.377,32.276 C22.377,32.276 0.25,32.276 0.25,32.276 C0.25,32.276 0.25,27.927 0.25,27.927 C0.25,27.927 0.25,0.25 0.25,0.25 C0.25,0.25 22.377,0.25 22.377,0.25 C22.377,0.25 22.377,32.276 22.377,32.276z"></path></g><g class="shadow8" opacity="0.28" style="user-select: none; transform-origin: 0px 0px 0px; transform: matrix(1, 0, 0, 1, 1460.39, 613.343);" data-svg-origin="2.989989624019927 16.404497558594016"><path fill="rgb(0,0,0)" fill-opacity="1" d="M0 0 M5.979,32.808 C5.979,32.808 0,32.808 0,32.808 C0,32.808 0,0 0,0 C0,0 5.979,0 5.979,0 C5.979,0 5.979,4.511 5.979,4.511 C5.979,4.511 5.979,32.808 5.979,32.808z"></path></g><g class="shadow7" opacity="0.28" style="user-select: none; transform-origin: 0px 0px 0px; transform: matrix(1, 0, 0, 1, 1551.23, 613.343);" data-svg-origin="2.9900012206999236 16.404497558594016"><path fill="rgb(0,0,0)" fill-opacity="1" d="M0 0 M5.98,32.808 C5.98,32.808 0,32.808 0,32.808 C0,32.808 0,0 0,0 C0,0 5.98,0 5.98,0 C5.98,0 5.98,7.393 5.98,7.393 C5.98,7.393 5.98,32.808 5.98,32.808z"></path></g><g class="shadow5" opacity="0.15" style="user-select: none; transform-origin: 0px 0px 0px; transform: matrix(1, 0, 0, 1, 1446.29, 626.253);" data-svg-origin="65.41498657226998 76.04201342773399"><path fill="rgb(0,0,0)" fill-opacity="1" d="M0 0 M0.001,0 C0.001,0 119.886,50.324 119.886,50.324 C119.886,50.324 130.83,152.084 130.83,152.084 C130.83,152.084 15.623,152.084 15.623,152.084 C15.623,152.084 0.001,0 0.001,0z"></path></g><g class="co28prop3_-0zf004_-0zf098_0zf045" opacity="1" style="user-select: none; transform-origin: 0px 0px 0px; transform: matrix(1, 0, 0, 1, 1247.56, 640.044);" data-svg-origin="66.75340026854997 65.760306030273"><path fill="rgb(177,66,54)" fill-opacity="1" d="M0 0 M0.25,120.63 C0.25,120.63 0.25,37.494 0.25,37.494 C0.25,37.494 68.753,0.25 68.753,0.25 C68.753,0.25 133.267,42.816 133.267,42.816 C133.267,42.816 133.267,131.271 133.267,131.271 C133.267,131.271 0.25,120.63 0.25,120.63z"></path></g><g class="co27prop3_0zf007_-0zf142_0zf147" opacity="1" style="user-select: none; transform-origin: 0px 0px 0px; transform: matrix(1, 0, 0, 1, 1280.62, 712.332);" data-svg-origin="36.49949157715014 28.51770092773404"><path fill="rgb(142,41,37)" fill-opacity="1" d="M0 0 M72.738,56.787 C72.738,56.787 0.25,56.787 0.25,56.787 C0.25,56.787 0.25,0.25 0.25,0.25 C0.25,0.25 4.458,0.25 4.458,0.25 C4.458,0.25 72.738,0.25 72.738,0.25 C72.738,0.25 72.738,56.787 72.738,56.787z"></path></g><g class="shadow6" opacity="0.21" style="user-select: none; transform-origin: 0px 0px 0px; transform: matrix(1, 0, 0, 1, 1280.69, 716.508);" data-svg-origin="36.33499389648 15.491008178711013"><path fill="rgb(0,0,0)" fill-opacity="1" d="M0 0 M72.674,2.503 C72.674,2.503 72.674,1.505 72.674,1.505 C72.674,1.505 0.66,1.505 0.66,1.505 C0.66,1.505 0.66,0.001 0.66,0.001 C0.66,0.001 -0.005,0.001 -0.005,0.001 C-0.005,0.001 -0.005,30.982 -0.005,30.982 C-0.005,30.982 0.66,30.982 0.66,30.982 C0.66,30.982 0.66,25.502 0.66,25.502 C0.66,25.502 72.674,25.502 72.674,25.502 C72.674,25.502 72.674,24.505 72.674,24.505 C72.674,24.505 0.66,24.505 0.66,24.505 C0.66,24.505 0.66,21.669 0.66,21.669 C0.66,21.669 72.674,21.669 72.674,21.669 C72.674,21.669 72.674,20.671 72.674,20.671 C72.674,20.671 0.66,20.671 0.66,20.671 C0.66,20.671 0.66,17.836 0.66,17.836 C0.66,17.836 72.674,17.836 72.674,17.836 C72.674,17.836 72.674,16.838 72.674,16.838 C72.674,16.838 0.66,16.838 0.66,16.838 C0.66,16.838 0.66,14.002 0.66,14.002 C0.66,14.002 72.674,14.002 72.674,14.002 C72.674,14.002 72.674,13.005 72.674,13.005 C72.674,13.005 0.66,13.005 0.66,13.005 C0.66,13.005 0.66,10.169 0.66,10.169 C0.66,10.169 72.674,10.169 72.674,10.169 C72.674,10.169 72.674,9.172 72.674,9.172 C72.674,9.172 0.66,9.172 0.66,9.172 C0.66,9.172 0.66,6.336 0.66,6.336 C0.66,6.336 72.674,6.336 72.674,6.336 C72.674,6.336 72.674,5.338 72.674,5.338 C72.674,5.338 0.66,5.338 0.66,5.338 C0.66,5.338 0.66,2.503 0.66,2.503 C0.66,2.503 72.674,2.503 72.674,2.503z"></path></g><g class="co26prop4_0zf000_0zf000_0zf000" opacity="1" style="user-select: none; transform-origin: 0px 0px 0px; transform: matrix(1, 0, 0, 1, 1279.62, 711.332);" data-svg-origin="37.49949157715014 29.01770092773404"><path fill="rgb(255,224,197)" fill-opacity="1" d="M0 0 M74.738,57.787 C74.738,57.787 72.738,57.787 72.738,57.787 C72.738,57.787 72.738,2.25 72.738,2.25 C72.738,2.25 2.25,2.25 2.25,2.25 C2.25,2.25 2.25,57.787 2.25,57.787 C2.25,57.787 0.25,57.787 0.25,57.787 C0.25,57.787 0.25,0.25 0.25,0.25 C0.25,0.25 74.738,0.25 74.738,0.25 C74.738,0.25 74.738,57.787 74.738,57.787z"></path></g><g class="co25prop3_0zf007_-0zf142_0zf147" opacity="1" style="user-select: none; transform-origin: 0px 0px 0px; transform: matrix(1, 0, 0, 1, 1241.96, 535.065);" data-svg-origin="248.51039794921985 172.26370483398398"><path fill="rgb(142,41,37)" fill-opacity="1" d="M0 0 M468.451,283.884 C468.451,283.884 485.711,279.809 485.711,279.809 C485.711,279.809 485.711,59.196 485.711,59.196 C485.711,59.196 367.617,73.038 367.617,73.038 C367.617,73.038 276.08,0.25 276.08,0.25 C276.08,0.25 187.569,65.468 187.569,65.468 C187.569,65.468 276.08,8.985 276.08,8.985 C276.08,8.985 367.503,89.925 367.503,89.925 C367.503,89.925 370.091,283.884 370.091,283.884 C370.091,283.884 270.549,283.884 270.549,283.884 C270.549,283.884 270.549,139.814 270.549,139.814 C270.549,139.814 138.863,147.795 138.863,147.795 C138.863,147.795 74.349,105.23 74.349,105.23 C74.349,105.23 0.25,144.438 0.25,144.438 C0.25,144.438 5.915,145.013 5.915,145.013 C5.915,145.013 70.497,111.945 70.497,111.945 C70.497,111.945 138.863,155.111 138.863,155.111 C138.863,155.111 138.863,283.884 138.863,283.884 C138.863,283.884 135.399,283.884 135.399,283.884 C135.399,283.884 135.399,344.279 135.399,344.279 C135.399,344.279 496.774,344.279 496.774,344.279 C496.774,344.279 496.774,283.884 496.774,283.884 C496.774,283.884 468.451,283.884 468.451,283.884z"></path></g><g class="co24prop4_0zf005_0zf000_-0zf039" opacity="1" style="user-select: none; transform-origin: 0px 0px 0px; transform: matrix(1, 0, 0, 1, 1550.48, 612.594);" data-svg-origin="11.813701171879984 16.762796264647932"><path fill="rgb(255,234,217)" fill-opacity="1" d="M0 0 M23.378,0.25 C23.378,0.25 0.25,0.25 0.25,0.25 C0.25,0.25 0.25,33.276 0.25,33.276 C0.25,33.276 10.302,33.276 10.302,33.276 C10.466999999999999,32.944 10.632000000000001,32.61300000000001 10.797,32.276 C10.797,32.276 1.25,32.276 1.25,32.276 C1.25,32.276 1.25,18.686 1.25,18.686 C1.25,18.686 11.206,18.686 11.206,18.686 C11.347,18.353 11.491,18.019 11.639,17.686 C11.639,17.686 1.25,17.686 1.25,17.686 C1.25,17.686 1.25,1.25 1.25,1.25 C1.25,1.25 22.378,1.25 22.378,1.25 C22.378,1.25 22.378,17.686 22.378,17.686 C22.378,17.686 11.639,17.686 11.639,17.686 C11.491,18.019 11.347,18.353 11.206,18.686 C11.206,18.686 22.378,18.686 22.378,18.686 C22.378,18.686 22.378,32.276 22.378,32.276 C22.378,32.276 10.797,32.276 10.797,32.276 C10.632000000000001,32.61300000000001 10.466999999999999,32.944 10.302,33.276 C10.302,33.276 23.378,33.276 23.378,33.276 C23.378,33.276 23.378,0.25 23.378,0.25z"></path></g><g class="co23prop4_0zf005_0zf000_-0zf039" opacity="1" style="user-select: none; transform-origin: 0px 0px 0px; transform: matrix(1, 0, 0, 1, 1459.64, 612.594);" data-svg-origin="11.813292846679815 16.762796264647932"><path fill="rgb(255,234,217)" fill-opacity="1" d="M0 0 M23.377,0.25 C23.377,0.25 0.25,0.25 0.25,0.25 C0.25,0.25 0.25,33.276 0.25,33.276 C0.25,33.276 12.231,33.276 12.231,33.276 C12.374,32.937000000000005 12.526,32.603 12.69,32.276 C12.69,32.276 1.25,32.276 1.25,32.276 C1.25,32.276 1.25,18.686 1.25,18.686 C1.25,18.686 12.057,18.686 12.057,18.686 C12.158000000000001,18.343 12.274,18.01 12.401,17.686 C12.401,17.686 1.25,17.686 1.25,17.686 C1.25,17.686 1.25,1.25 1.25,1.25 C1.25,1.25 22.377,1.25 22.377,1.25 C22.377,1.25 22.377,17.686 22.377,17.686 C22.377,17.686 12.401,17.686 12.401,17.686 C12.274,18.01 12.158000000000001,18.343 12.057,18.686 C12.057,18.686 22.377,18.686 22.377,18.686 C22.377,18.686 22.377,32.276 22.377,32.276 C22.377,32.276 12.69,32.276 12.69,32.276 C12.526,32.603 12.374,32.937000000000005 12.231,33.276 C12.231,33.276 23.377,33.276 23.377,33.276 C23.377,33.276 23.377,0.25 23.377,0.25z"></path></g><g class="co22prop4_0_0_0" opacity="1" style="user-select: none; transform-origin: 0px 0px 0px; transform: matrix(1, 0, 0, 1, 1517.79, 518.759);" data-svg-origin="110.59580322265992 44.796908203124985"><path fill="rgb(255,224,197)" fill-opacity="1" d="M0 0 M0.25,3.744 C0.25,3.744 134.763,0.25 134.763,0.25 C134.763,0.25 220.945,74.204 220.945,74.204 C220.945,74.204 91.787,89.344 91.787,89.344 C91.787,89.344 0.25,16.555 0.25,16.555 C0.25,16.555 0.25,3.744 0.25,3.744z"></path></g><g class="co21prop4_0zf005_0zf000_-0zf039" opacity="1" style="user-select: none; transform-origin: 0px 0px 0px; transform: matrix(1, 0, 0, 1, 1566.15, 519.388);" data-svg-origin="74.57219848632985 41.583603393554995"><path fill="rgb(255,234,217)" fill-opacity="1" d="M0 0 M0.25,1.86 C0.25,1.86 92.881,82.919 92.881,82.919 C92.881,82.919 148.899,76.352 148.899,76.352 C148.899,76.352 62.238,0.25 62.238,0.25 C62.238,0.25 0.25,1.86 0.25,1.86z"></path></g><g class="co20prop4_0zf005_0zf000_-0zf039" opacity="1" style="user-select: none; transform-origin: 0px 0px 0px; transform: matrix(1, 0, 0, 1, 1417.05, 522.254);" data-svg-origin="102.44359130859016 43.04870385742197"><path fill="rgb(255,234,217)" fill-opacity="1" d="M0 0 M12.479,78.279 C12.479,78.279 0.25,78.279 0.25,78.279 C0.25,78.279 100.99,0.25 100.99,0.25 C100.99,0.25 204.64,84.625 204.64,84.625 C204.64,84.625 192.527,85.849 192.527,85.849 C192.527,85.849 100.99,13.061 100.99,13.061 C100.99,13.061 12.479,78.279 12.479,78.279z"></path></g><g class="co19prop4_0zf000_0zf000_0zf000" opacity="1" style="user-select: none; transform-origin: 0px 0px 0px; transform: matrix(1, 0, 0, 1, 1233.92, 626.409);" data-svg-origin="143.24290283203004 30.01290551757802"><path fill="rgb(255,224,197)" fill-opacity="1" d="M0 0 M82.388,13.885 C82.388,13.885 148.564,59.776 148.564,59.776 C148.564,59.776 286.236,53.124 286.236,53.124 C286.236,53.124 218.398,0.25 218.398,0.25 C218.398,0.25 80.393,5.239 80.393,5.239 C80.393,5.239 0.25,50.797 0.25,50.797 C0.25,50.797 11.89,54.122 11.89,54.122 C11.89,54.122 82.388,13.885 82.388,13.885z"></path></g><g class="co18prop4_0zf005_0zf000_-0zf039" opacity="1" style="user-select: none; transform-origin: 0px 0px 0px; transform: matrix(1, 0, 0, 1, 1369.89, 627.546);" data-svg-origin="55.56388793944984 28.308095458983985"><path fill="rgb(255,234,217)" fill-opacity="1" d="M0 0 M0.25,2.201 C0.25,2.201 59.638,56.366 59.638,56.366 C59.638,56.366 110.878,53.89 110.878,53.89 C110.878,53.89 51,0.25 51,0.25 C51,0.25 0.25,2.201 0.25,2.201z"></path></g><g class="co17prop4_0zf005_0zf000_-0zf039" opacity="1" style="user-select: none; transform-origin: 0px 0px 0px; transform: matrix(1, 0, 0, 1, 1233.92, 631.398);" data-svg-origin="80.34728820801001 27.517802001952987"><path fill="rgb(255,234,217)" fill-opacity="1" d="M0 0 M11.89,49.134 C11.89,49.134 0.25,45.809 0.25,45.809 C0.25,45.809 80.393,0.25 80.393,0.25 C80.393,0.25 160.445,53.92 160.445,53.92 C160.445,53.92 148.564,54.787 148.564,54.787 C148.564,54.787 82.388,8.897 82.388,8.897 C82.388,8.897 11.89,49.134 11.89,49.134z"></path></g><g class="co16prop3_0zf012_-0zf001_0zf083" opacity="1" style="user-select: none; transform-origin: 0px 0px 0px; transform: matrix(1, 0, 0, 1, 427.145, 670.166);" data-svg-origin="101.729694824219 63.272003540038895"><path fill="rgb(153,59,59)" fill-opacity="1" d="M0 0 M0.25,41.729 C0.25,41.729 41.325,50.588 41.325,50.588 C41.325,50.588 45.352,116.63 45.352,116.63 C45.352,116.63 203.21,126.295 203.21,126.295 C203.21,126.295 203.21,34.494 203.21,34.494 C203.21,34.494 124.281,0.25 124.281,0.25 C124.281,0.25 39.714,41.729 39.714,41.729 C39.714,41.729 0.25,41.729 0.25,41.729z"></path></g><g class="co15prop3_0zf012_0zf001_0zf188" opacity="1" style="user-select: none; transform-origin: 0px 0px 0px; transform: matrix(1, 0, 0, 1, 529.43, 707.617);" data-svg-origin="23.204094238281073 6.89479504394501"><path fill="rgb(113,44,44)" fill-opacity="1" d="M0 0 M46.158,13.539 C46.158,13.539 0.25,13.539 0.25,13.539 C0.25,13.539 0.25,0.25 0.25,0.25 C0.25,0.25 4.369,0.25 4.369,0.25 C4.369,0.25 46.158,0.25 46.158,0.25 C46.158,0.25 46.158,13.539 46.158,13.539z"></path></g><g class="co14prop4_0zf000_0zf000_0zf000" opacity="1" style="user-select: none; transform-origin: 0px 0px 0px; transform: matrix(1, 0, 0, 1, 528.93, 707.117);" data-svg-origin="23.704399414062095 7.394703491211089"><path fill="rgb(255,224,197)" fill-opacity="1" d="M0 0 M0.25,0.25 C0.25,0.25 0.25,9.715 0.25,9.715 C0.583,9.734 0.917,9.751 1.25,9.767 C1.25,9.767 1.25,1.25 1.25,1.25 C1.25,1.25 23.204,1.25 23.204,1.25 C23.204,1.25 23.204,7.883 23.204,7.883 C23.204,7.883 24.204,7.883 24.204,7.883 C24.204,7.883 24.204,1.25 24.204,1.25 C24.204,1.25 46.158,1.25 46.158,1.25 C46.158,1.25 46.158,13.539 46.158,13.539 C46.158,13.539 24.204,13.539 24.204,13.539 C24.204,13.539 24.204,7.883 24.204,7.883 C24.204,7.883 23.204,7.883 23.204,7.883 C23.204,7.883 23.204,13.539 23.204,13.539 C23.204,13.539 1.25,13.539 1.25,13.539 C1.25,13.539 1.25,9.767 1.25,9.767 C0.917,9.751 0.583,9.734 0.25,9.715 C0.25,9.715 0.25,14.539 0.25,14.539 C0.25,14.539 47.158,14.539 47.158,14.539 C47.158,14.539 47.158,0.25 47.158,0.25 C47.158,0.25 0.25,0.25 0.25,0.25z"></path></g><g class="co13prop3_0_0_0" opacity="1" style="user-select: none; transform-origin: 0px 0px 0px; transform: matrix(1, 0, 0, 1, 427.145, 711.644);" data-svg-origin="24.009190063477035 38.103604370116955"><path fill="rgb(183,80,71)" fill-opacity="1" d="M0 0 M0.25,59.85 C0.25,59.85 0.25,0.25 0.25,0.25 C0.25,0.25 41.325,5.082 41.325,5.082 C41.325,5.082 47.769,74.347 45.352,75.152 C42.936,75.95700000000001 0.25,59.85 0.25,59.85z"></path></g><g class="co12prop4_0zf000_0zf000_0zf000" opacity="1" style="user-select: none; transform-origin: 0px 0px 0px; transform: matrix(1, 0, 0, 1, 411.439, 661.71);" data-svg-origin="118.24119104003893 25.217001953124964"><path fill="rgb(255,224,197)" fill-opacity="1" d="M0 0 M0.25,50.185 C0.25,50.185 55.42,50.185 55.42,50.185 C55.42,50.185 139.987,8.706 139.987,8.706 C139.987,8.706 236.232,50.185 236.232,50.185 C236.232,50.185 236.232,43.742 236.232,43.742 C236.232,43.742 139.987,0.25 139.987,0.25 C139.987,0.25 85.22,0.25 85.22,0.25 C85.22,0.25 0.25,50.185 0.25,50.185z"></path></g><g class="co11prop3_0zf012_-0zf001_0zf083" opacity="1" style="user-select: none; transform-origin: 0px 0px 0px; transform: matrix(1, 0, 0, 1, 445.267, 654.863);" data-svg-origin="21.994795043945032 21.794806396483978"><path fill="rgb(153,59,59)" fill-opacity="1" d="M0 0 M0.25,0.25 C0.25,0.25 0.25,43.339 0.25,43.339 C0.25,43.339 43.741,21.795 43.741,21.795 C43.741,21.795 43.741,0.25 43.741,0.25 C43.741,0.25 0.25,0.25 0.25,0.25z"></path></g><g class="co10prop3_0zf000_0zf000_0zf000" opacity="1" style="user-select: none; transform-origin: 0px 0px 0px; transform: matrix(1, 0, 0, 1, 438.42, 654.864);" data-svg-origin="3.673017578124984 21.79350122070298"><path fill="rgb(183,80,71)" fill-opacity="1" d="M0 0 M0.25,43.339 C0.25,43.339 7.096,43.339 7.096,43.339 C7.096,43.339 7.096,0.25 7.096,0.25 C7.096,0.25 0.25,0.25 0.25,0.25 C0.25,0.25 0.25,43.339 0.25,43.339z"></path></g><g class="co9prop2_0_0_0" opacity="1" style="user-select: none; transform-origin: 0px 0px 0px; transform: matrix(1, 0, 0, 1, -211.676, 606.409);" data-svg-origin="1153.502751708984 271.174404541016"><path fill="rgb(122,130,52)" fill-opacity="1" d="M0 0 M211.676,205.095 C211.676,205.095 1772.029,0.25 2306.755,295.546 C2306.755,295.546 2233.097,482.145 2233.097,482.145 C2233.097,482.145 0.25,542.099 0.25,529.226 C0.25,516.354 211.676,205.095 211.676,205.095z"></path></g><g class="co8prop2_0zf007_0zf021_-0zf033" opacity="1" style="user-select: none; transform-origin: 0px 0px 0px; transform: matrix(1, 0, 0, 1, -281.394, 677.117);" data-svg-origin="1017.214617675781 176.93179760742203"><path fill="rgb(135,139,58)" fill-opacity="1" d="M0 0 M81.275,149.893 C91.59800000000001,190.373 0.25,353.61400000000003 99.233,343.223 C544.172,296.516 1742.786,294.529 2034.18,116.822 C1412.325,0.25 219.77100000000002,132.739 81.275,149.893z"></path></g><g class="co7prop2_0zf007_0zf021_-0zf033" opacity="1" style="user-select: none; transform-origin: 0px 0px 0px; transform: matrix(1, 0, 0, 1, 1680.58, 758.686);" data-svg-origin="12.823900146480128 17.509098876952976"><path fill="rgb(135,139,58)" fill-opacity="1" d="M0 0 M14.896,34.768 C7.761000000000001,31.231 2.388,24.326 0.713,16.539 C0.418,15.168000000000001 0.25,13.64 1.461,12.56 C2.574,11.57 4.243,11.538 5.534,12.28 C7.959,13.673 8.632,16.421 9.357,18.941 C9.972,21.08 10.842,23.366 12.766,24.485 C10.584,17.926 8.403,11.369 6.222,4.811 C5.917000000000001,3.893 6.029999999999999,2.849 6.648,2.105 C8.189,0.25 10.603,1.9749999999999999 11.84,3.686 C15.079,8.161999999999999 17.055,13.539 17.487,19.046 C17.346999999999998,16.649 17.575999999999997,14.232 18.144,11.899 C18.912999999999997,8.748999999999999 23.483,8.819 24.03,12.015 C25.402,20.026 22.451999999999998,28.86 16.006,33.914"></path></g><g class="co6prop2_0zf000_0zf000_0zf000" opacity="1" style="user-select: none; transform-origin: 0px 0px 0px; transform: matrix(1, 0, 0, 1, 621.004, 889.666);" data-svg-origin="12.825589843749981 17.508606323241906"><path fill="rgb(122,130,52)" fill-opacity="1" d="M0 0 M14.897,34.768 C7.761,31.23 2.388,24.325000000000003 0.713,16.539 C0.418,15.168000000000001 0.25,13.639000000000001 1.461,12.56 C2.574,11.57 4.243,11.536999999999999 5.534,12.279 C7.96,13.673 8.632,16.421 9.357,18.941 C9.972,21.08 10.842,23.365000000000002 12.766,24.484 C10.585,17.926000000000002 8.403,11.369 6.222,4.81 C5.917000000000001,3.893 6.029999999999999,2.848 6.648,2.105 C8.189,0.25 10.603,1.975 11.84,3.685 C15.079,8.161 17.055,13.539000000000001 17.487,19.045 C17.346999999999998,16.648000000000003 17.575999999999997,14.232 18.144,11.899 C18.912999999999997,8.748 23.483,8.818999999999999 24.03,12.014 C25.402,20.025 22.451999999999998,28.859 16.006,33.914"></path></g><g class="co5prop2_0zf009_0zf138_-0zf129" opacity="1" style="user-select: none; transform-origin: 0px 0px 0px; transform: matrix(1, 0, 0, 1, -41.415, 742.095);" data-svg-origin="549.954703369141 65.27641418456994"><path fill="rgb(157,159,87)" fill-opacity="1" d="M0 0 M41.415,68.409 C41.415,68.409 24.504,94.305 0.25,130.303 C9.569,99.402 562.5280000000001,12.781 1099.659,0.25 C558.7010000000001,1.502 41.415,68.409 41.415,68.409z"></path></g><g class="co4prop2_0zf009_0zf138_-0zf129" opacity="1" style="user-select: none; transform-origin: 0px 0px 0px; transform: matrix(1, 0, 0, 1, 597.143, 730.642);" data-svg-origin="12.82619250488301 17.50919934081992"><path fill="rgb(157,159,87)" fill-opacity="1" d="M0 0 M14.897,34.768 C7.7620000000000005,31.231 2.3890000000000002,24.326 0.714,16.539 C0.419,15.168000000000001 0.25,13.639000000000001 1.462,12.56 C2.574,11.57 4.243,11.538 5.534,12.28 C7.96,13.673 8.633,16.421 9.357,18.941 C9.972999999999999,21.08 10.843,23.366 12.766,24.485 C10.585,17.926 8.404,11.369 6.223,4.811 C5.918,3.893 6.029999999999999,2.849 6.648,2.105 C8.189,0.25 10.604,1.9749999999999999 11.841,3.686 C15.078999999999999,8.161999999999999 17.056,13.539 17.488,19.046 C17.348,16.649 17.576,14.232 18.145,11.899 C18.913,8.748 23.483999999999998,8.819 24.031,12.015 C25.401999999999997,20.026 22.453000000000003,28.86 16.007,33.914"></path></g><g class="shadow9" opacity="0.13" style="user-select: none; transform-origin: 0px 0px 0px; transform: matrix(1, 0, 0, 1, -25.894, 742.328);" data-svg-origin="982.671938842773 53.71600634765605"><path fill="rgb(0,0,0)" fill-opacity="1" d="M0 0 M0,107.432 C365.508,69.793 1295.925,-7.739999999999995 1965.346,95.17 C1334.155,-102.57000000000001 25.895,69.176 25.895,69.176 C25.895,69.176 15.79,84.052 0,107.432z"></path></g><g class="shadow10" opacity="0.13" style="user-select: none; transform-origin: 0px 0px 0px; transform: matrix(1, 0, 0, 1, -192.803, 843.999);" data-svg-origin="1221.3864960937499 94.33785302734395"><path fill="rgb(0,0,0)" fill-opacity="1" d="M0 0 M0,156.902 C0,156.902 1614.8180000000002,0.15500000000000114 2410.257,188.675 C2410.257,188.675 2442.773,129.633 2442.773,129.633 C2442.773,129.633 1330.124,-122.57200000000002 37.338,76.579 C37.338,76.579 0,156.902 0,156.902z"></path></g><g class="shadow11" opacity="0.13" style="user-select: none; transform-origin: 0px 0px 0px; transform: matrix(1, 0, 0, 1, -182.162, 1001.03);" data-svg-origin="1221.38599902344 96.69129821777005"><path fill="rgb(0,0,0)" fill-opacity="1" d="M0 0 M0,161.606 C0,161.606 1614.819,4.8589999999999804 2410.258,193.378 C2410.258,193.378 2442.774,134.336 2442.774,134.336 C2442.774,134.336 1362.078,-128.63400000000001 37.338,81.282 C37.338,81.282 0,161.606 0,161.606z"></path></g><g class="co3prop4_-0zf011_0zf388_0zf332" opacity="1" style="user-select: none; transform-origin: 0px 0px 0px; transform: matrix(1, 0, 0, 1, 273.565, 742.662);" data-svg-origin="557.2396875 193.73469799804695"><path fill="rgb(210,147,71)" fill-opacity="1" d="M0 0 M920.773,0.85 C434.096,76.97399999999999 0.25,385.847 0.25,385.847 C0.25,385.847 58.919,387.22 58.919,387.22 C181.449,384.675 316.588,381.654 455.458,378.42 C721.2570000000001,0.25 1114.189,8.366 1114.231,8.366 C1050.569,4.5809999999999995 985.799,2.153 920.773,0.85z"></path></g><g class="co2prop4_-0zf008_0zf338_0zf281" opacity="1" style="user-select: none; transform-origin: 0px 0px 0px; transform: matrix(1, 0, 0, 1, 273.564, 968.03);" data-svg-origin="295.09058679199194 85.54720947265992"><path fill="rgb(221,158,87)" fill-opacity="1" d="M0 0 M263.963,3.772 C102.74200000000002,87.513 0.25,160.478 0.25,160.478 C0.25,160.478 443.237,170.843 443.237,170.843 C488.93800000000005,102.71699999999998 538.758,46.553 589.932,0.25 C498.75100000000003,4.296 370.221,4.545 263.963,3.772z"></path></g><g class="shadow12" opacity="0.31" style="user-select: none; transform-origin: 0px 0px 0px; transform: matrix(1, 0, 0, 1, 273.814, 743.511);" data-svg-origin="470.607997070312 197.68165747070304"><path fill="rgb(0,0,0)" fill-opacity="1" d="M0 0 M941.212,0.968 C938.918,0.504 928.282,0.001 920.524,0.001 C425.48,78.41300000000001 0,384.997 0,384.997 C0,384.997 442.987,395.363 442.987,395.363 C443.125,395.156 443.26500000000004,394.955 443.403,394.75 C443.403,394.75 26.603,384.997 26.603,384.997 C26.603,384.997 451.272,74.909 941.212,0.968z"></path></g><g class="co1prop2_-0zf008_0zf023_-0zf025" opacity="1" style="user-select: none; transform-origin: 0px 0px 0px; transform: matrix(1, 0, 0, 1, 972.838, 847.498);" data-svg-origin="12.825589477538983 17.5086070556639"><path fill="rgb(125,136,57)" fill-opacity="1" d="M0 0 M14.897,34.768 C7.761,31.231 2.388,24.326 0.713,16.539 C0.418,15.168000000000001 0.25,13.64 1.462,12.56 C2.574,11.57 4.243,11.538 5.534,12.28 C7.96,13.673 8.632,16.421 9.357,18.941 C9.972,21.08 10.842,23.366 12.766,24.485 C10.585,17.926 8.404,11.369 6.222,4.811 C5.918,3.893 6.031,2.849 6.648,2.105 C8.189,0.25 10.604,1.9749999999999999 11.841,3.686 C15.078999999999999,8.161999999999999 17.055999999999997,13.539 17.487,19.046 C17.348,16.649 17.576,14.232 18.145,11.899 C18.913,8.748999999999999 23.483999999999998,8.819 24.031,12.015 C25.401999999999997,20.026 22.453,28.86 16.006,33.914"></path></g></g></g></g></svg>