<?xml version="1.0" encoding="UTF-8"?>
<!DOCTYPE svg PUBLIC "-//W3C//DTD SVG 1.1//EN" "http://www.w3.org/Graphics/SVG/1.1/DTD/svg11.dtd">
<svg xmlns="http://www.w3.org/2000/svg" version="1.1" width="2000px" height="1125px" style="shape-rendering:geometricPrecision; text-rendering:geometricPrecision; image-rendering:optimizeQuality; fill-rule:evenodd; clip-rule:evenodd" xmlns:xlink="http://www.w3.org/1999/xlink">
<g><path style="opacity:1" fill="#edf0f5" d="M -0.5,-0.5 C 38.1667,-0.5 76.8333,-0.5 115.5,-0.5C 115.5,60.5 115.5,121.5 115.5,182.5C 116.5,182.5 117.5,182.5 118.5,182.5C 118.5,121.5 118.5,60.5 118.5,-0.5C 745.5,-0.5 1372.5,-0.5 1999.5,-0.5C 1999.5,149.167 1999.5,298.833 1999.5,448.5C 1955.5,448.333 1911.5,448.5 1867.5,449C 1862.86,449.903 1859.36,452.403 1857,456.5C 1855.34,553.11 1855.01,649.777 1856,746.5C 1859.76,756.301 1866.92,760.301 1877.5,758.5C 1877.5,759.5 1877.5,760.5 1877.5,761.5C 1876.57,762.568 1876.23,763.901 1876.5,765.5C 1878.41,765.784 1880.08,765.451 1881.5,764.5C 1884.67,764.248 1886.67,762.582 1887.5,759.5C 1924.83,758.5 1962.16,758.167 1999.5,758.5C 1999.5,772.167 1999.5,785.833 1999.5,799.5C 1913.5,799.333 1827.5,799.5 1741.5,800C 1734.93,802.238 1730.76,806.738 1729,813.5C 1728.33,825.5 1728.33,837.5 1729,849.5C 1732.1,860.443 1739.27,865.109 1750.5,863.5C 1750.42,866.206 1750.09,868.873 1749.5,871.5C 1755.43,871.904 1759.09,869.238 1760.5,863.5C 1840.17,863.5 1919.83,863.5 1999.5,863.5C 1999.5,927.833 1999.5,992.167 1999.5,1056.5C 1954.11,1056.02 1908.77,1056.52 1863.5,1058C 1860.16,1060.53 1857.66,1063.69 1856,1067.5C 1855.5,1086.5 1855.33,1105.5 1855.5,1124.5C 1236.83,1124.5 618.167,1124.5 -0.5,1124.5C -0.5,749.5 -0.5,374.5 -0.5,-0.5 Z"/></g>
<g><path style="opacity:1" fill="#575a5f" d="M 115.5,-0.5 C 116.5,-0.5 117.5,-0.5 118.5,-0.5C 118.5,60.5 118.5,121.5 118.5,182.5C 117.5,182.5 116.5,182.5 115.5,182.5C 115.5,121.5 115.5,60.5 115.5,-0.5 Z"/></g>
<g><path style="opacity:1" fill="#4b5866" d="M 1605.5,315.5 C 1662.5,315.333 1719.5,315.5 1776.5,316C 1783.11,318.272 1787.27,322.772 1789,329.5C 1789.67,424.167 1789.67,518.833 1789,613.5C 1787.5,620.333 1783.33,624.5 1776.5,626C 1726.5,626.333 1676.5,626.667 1626.5,627C 1624.21,631.477 1620.55,633.31 1615.5,632.5C 1615.83,630.5 1616.17,628.5 1616.5,626.5C 1606.98,628.056 1599.81,624.722 1595,616.5C 1594.33,519.5 1594.33,422.5 1595,325.5C 1597.08,320.584 1600.58,317.25 1605.5,315.5 Z"/></g>
<g><path style="opacity:1" fill="#c0e1fd" d="M 1778.5,319.5 C 1782.4,321.276 1784.9,324.276 1786,328.5C 1786.99,424.89 1786.66,521.223 1785,617.5C 1783.04,620.135 1780.54,621.969 1777.5,623C 1726.5,623.5 1675.5,623.667 1624.5,623.5C 1624.55,627.075 1622.88,629.409 1619.5,630.5C 1618.53,628.257 1618.19,625.924 1618.5,623.5C 1613.41,623.779 1608.41,623.445 1603.5,622.5C 1603.93,620.703 1603.93,618.703 1603.5,616.5C 1600.07,615.885 1598.07,613.719 1597.5,610C 1598.17,517.821 1598.83,425.654 1599.5,333.5C 1598.93,331.941 1598.26,330.441 1597.5,329C 1600.96,325.767 1604.63,322.767 1608.5,320C 1665.17,319.5 1721.83,319.333 1778.5,319.5 Z"/></g>
<g><path style="opacity:1" fill="#c5dff6" d="M 1778.5,319.5 C 1721.83,319.333 1665.17,319.5 1608.5,320C 1604.63,322.767 1600.96,325.767 1597.5,329C 1598.26,330.441 1598.93,331.941 1599.5,333.5C 1598.83,425.654 1598.17,517.821 1597.5,610C 1598.07,613.719 1600.07,615.885 1603.5,616.5C 1603.93,618.703 1603.93,620.703 1603.5,622.5C 1600.01,620.5 1597.84,617.5 1597,613.5C 1596,517.086 1596.34,420.752 1598,324.5C 1599.25,321.619 1601.42,319.786 1604.5,319C 1662.67,318.168 1720.67,318.335 1778.5,319.5 Z"/></g>
<g><path style="opacity:1" fill="#fdfdfd" d="M 1865.5,343.5 C 1881.84,343.333 1898.17,343.5 1914.5,344C 1916.76,345.689 1919.26,346.856 1922,347.5C 1923.61,364.78 1923.94,382.114 1923,399.5C 1923.02,403.952 1921.52,407.786 1918.5,411C 1901.93,412.637 1885.26,412.97 1868.5,412C 1863.1,411.973 1859.44,409.473 1857.5,404.5C 1856.17,386.167 1856.17,367.833 1857.5,349.5C 1860.09,347.319 1862.75,345.319 1865.5,343.5 Z"/></g>
<g><path style="opacity:1" fill="#586d81" d="M 1624.5,350.5 C 1669.17,350.5 1713.83,350.5 1758.5,350.5C 1758.5,351.5 1758.5,352.5 1758.5,353.5C 1713.83,353.5 1669.17,353.5 1624.5,353.5C 1624.5,352.5 1624.5,351.5 1624.5,350.5 Z"/></g>
<g><path style="opacity:1" fill="#505154" d="M 1886.5,358.5 C 1899.93,358.029 1907.6,364.363 1909.5,377.5C 1909.48,382.154 1908.14,386.321 1905.5,390C 1906.79,390.49 1908.13,390.657 1909.5,390.5C 1909.5,393.167 1909.5,395.833 1909.5,398.5C 1901.83,398.666 1894.16,398.5 1886.5,398C 1871.93,392.769 1867.43,382.936 1873,368.5C 1876.56,363.756 1881.06,360.423 1886.5,358.5 Z"/></g>
<g><path style="opacity:1" fill="#fbfcfc" d="M 1885.5,361.5 C 1899.51,360.384 1906.67,366.717 1907,380.5C 1905.75,384.661 1904.25,388.661 1902.5,392.5C 1904.17,392.5 1905.83,392.5 1907.5,392.5C 1907.5,393.5 1907.5,394.5 1907.5,395.5C 1899.83,395.666 1892.16,395.5 1884.5,395C 1874.07,390.244 1870.57,382.411 1874,371.5C 1876.61,366.634 1880.44,363.301 1885.5,361.5 Z"/></g>
<g><path style="opacity:1" fill="#77899b" d="M 1758.5,373.5 C 1713.82,372.839 1669.49,373.505 1625.5,375.5C 1624.6,374.791 1624.26,373.791 1624.5,372.5C 1669.34,372.168 1714,372.501 1758.5,373.5 Z"/></g>
<g><path style="opacity:1" fill="#48596b" d="M 1758.5,373.5 C 1714.51,375.495 1670.18,376.161 1625.5,375.5C 1669.49,373.505 1713.82,372.839 1758.5,373.5 Z"/></g>
<g><path style="opacity:1" fill="#323c48" d="M 1625.5,395.5 C 1669.84,395.167 1714.17,395.5 1758.5,396.5C 1736.33,396.833 1714.17,397.167 1692,397.5C 1669.49,397.5 1647.32,396.833 1625.5,395.5 Z"/></g>
<g><path style="opacity:1" fill="#323c48" d="M 1625.5,417.5 C 1669.84,417.167 1714.17,417.5 1758.5,418.5C 1736.33,418.833 1714.17,419.167 1692,419.5C 1669.49,419.5 1647.32,418.833 1625.5,417.5 Z"/></g>
<g><path style="opacity:1" fill="#546477" d="M 1624.5,439.5 C 1669.17,439.5 1713.83,439.5 1758.5,439.5C 1758.5,440.5 1758.5,441.5 1758.5,442.5C 1714.17,442.667 1669.83,442.5 1625.5,442C 1624.75,441.329 1624.41,440.496 1624.5,439.5 Z"/></g>
<g><path style="opacity:1" fill="#93a9e2" d="M 1999.5,450.5 C 1999.5,450.833 1999.5,451.167 1999.5,451.5C 1956.83,451.333 1914.17,451.5 1871.5,452C 1868.79,452.395 1866.13,452.895 1863.5,453.5C 1864.68,451.933 1866.35,451.099 1868.5,451C 1912.17,450.5 1955.83,450.333 1999.5,450.5 Z"/></g>
<g><path style="opacity:1" fill="#87abfd" d="M 1999.5,451.5 C 1999.5,461.167 1999.5,470.833 1999.5,480.5C 1961.14,480.815 1922.8,480.482 1884.5,479.5C 1883.46,482.47 1883.46,485.136 1884.5,487.5C 1922.79,486.506 1961.12,486.173 1999.5,486.5C 1999.5,492.5 1999.5,498.5 1999.5,504.5C 1961.17,504.333 1922.83,504.5 1884.5,505C 1882.35,506.818 1882.35,508.318 1884.5,509.5C 1884.29,510.086 1883.96,510.586 1883.5,511C 1922.17,511.5 1960.83,511.667 1999.5,511.5C 1999.5,516.833 1999.5,522.167 1999.5,527.5C 1961.83,527.5 1924.17,527.5 1886.5,527.5C 1885.6,528.209 1885.26,529.209 1885.5,530.5C 1923.5,530.5 1961.5,530.5 1999.5,530.5C 1999.5,536.833 1999.5,543.167 1999.5,549.5C 1962.17,549.333 1924.83,549.5 1887.5,550C 1887.04,550.414 1886.71,550.914 1886.5,551.5C 1924.16,552.5 1961.83,552.833 1999.5,552.5C 1999.5,558.5 1999.5,564.5 1999.5,570.5C 1961.5,570.333 1923.5,570.5 1885.5,571C 1883.14,571.589 1882.14,573.089 1882.5,575.5C 1921.5,575.5 1960.5,575.5 1999.5,575.5C 1999.5,581.167 1999.5,586.833 1999.5,592.5C 1960.81,592.809 1922.14,592.476 1883.5,591.5C 1883.84,594.516 1885.01,597.182 1887,599.5C 1924.43,598.504 1961.93,598.17 1999.5,598.5C 1999.5,603.833 1999.5,609.167 1999.5,614.5C 1961.64,614.824 1923.8,614.491 1886,613.5C 1883.55,615.021 1883.05,617.021 1884.5,619.5C 1922.83,620.5 1961.16,620.833 1999.5,620.5C 1999.5,626.5 1999.5,632.5 1999.5,638.5C 1961.49,638.167 1923.49,638.5 1885.5,639.5C 1885.71,640.086 1886.04,640.586 1886.5,641C 1924.17,641.5 1961.83,641.667 1999.5,641.5C 1999.5,647.5 1999.5,653.5 1999.5,659.5C 1961.17,659.333 1922.83,659.5 1884.5,660C 1883.52,662.147 1883.69,664.314 1885,666.5C 1885.75,665.874 1886.58,665.374 1887.5,665C 1924.83,664.5 1962.17,664.333 1999.5,664.5C 1999.5,670.167 1999.5,675.833 1999.5,681.5C 1961.17,681.5 1922.83,681.5 1884.5,681.5C 1884.74,683.467 1884.41,685.301 1883.5,687C 1922.11,686.518 1960.78,686.352 1999.5,686.5C 1999.5,692.833 1999.5,699.167 1999.5,705.5C 1848.83,706.167 1848.83,706.833 1999.5,707.5C 1999.5,723.833 1999.5,740.167 1999.5,756.5C 1961.5,756.5 1923.5,756.5 1885.5,756.5C 1880.85,756.605 1880.35,755.271 1884,752.5C 1885.64,753.849 1887.14,753.682 1888.5,752C 1885.04,750.965 1882.2,751.798 1880,754.5C 1879.38,753.551 1879.55,752.718 1880.5,752C 1878.19,751.244 1876.19,751.744 1874.5,753.5C 1872.17,753.5 1869.83,753.5 1867.5,753.5C 1866.26,750.255 1863.93,748.588 1860.5,748.5C 1859.34,653.521 1859.18,558.521 1860,463.5C 1860.94,460.176 1861.78,456.843 1862.5,453.5C 1862.83,453.5 1863.17,453.5 1863.5,453.5C 1866.13,452.895 1868.79,452.395 1871.5,452C 1914.17,451.5 1956.83,451.333 1999.5,451.5 Z"/></g>
<g><path style="opacity:1" fill="#73889b" d="M 1758.5,462.5 C 1713.82,461.839 1669.49,462.505 1625.5,464.5C 1624.6,463.791 1624.26,462.791 1624.5,461.5C 1669.34,461.168 1714,461.501 1758.5,462.5 Z"/></g>
<g><path style="opacity:1" fill="#455a6f" d="M 1758.5,462.5 C 1714.51,464.495 1670.18,465.161 1625.5,464.5C 1669.49,462.505 1713.82,461.839 1758.5,462.5 Z"/></g>
<g><path style="opacity:1" fill="#424a65" d="M 1999.5,448.5 C 1999.5,449.167 1999.5,449.833 1999.5,450.5C 1955.83,450.333 1912.17,450.5 1868.5,451C 1866.35,451.099 1864.68,451.933 1863.5,453.5C 1863.17,453.5 1862.83,453.5 1862.5,453.5C 1860.86,454.749 1859.7,456.416 1859,458.5C 1858.33,555.167 1858.33,651.833 1859,748.5C 1863.84,755.893 1870.68,758.56 1879.5,756.5C 1878.67,762.01 1880.34,763.343 1884.5,760.5C 1885.25,759.264 1885.58,757.93 1885.5,756.5C 1923.5,756.5 1961.5,756.5 1999.5,756.5C 1999.5,757.167 1999.5,757.833 1999.5,758.5C 1962.16,758.167 1924.83,758.5 1887.5,759.5C 1886.67,762.582 1884.67,764.248 1881.5,764.5C 1880.17,764.5 1878.83,764.5 1877.5,764.5C 1877.5,763.5 1877.5,762.5 1877.5,761.5C 1877.5,760.5 1877.5,759.5 1877.5,758.5C 1866.92,760.301 1859.76,756.301 1856,746.5C 1855.01,649.777 1855.34,553.11 1857,456.5C 1859.36,452.403 1862.86,449.903 1867.5,449C 1911.5,448.5 1955.5,448.333 1999.5,448.5 Z"/></g>
<g><path style="opacity:1" fill="#8ba9ec" d="M 1862.5,453.5 C 1861.78,456.843 1860.94,460.176 1860,463.5C 1859.18,558.521 1859.34,653.521 1860.5,748.5C 1863.93,748.588 1866.26,750.255 1867.5,753.5C 1869.83,753.5 1872.17,753.5 1874.5,753.5C 1876.19,751.744 1878.19,751.244 1880.5,752C 1879.55,752.718 1879.38,753.551 1880,754.5C 1882.2,751.798 1885.04,750.965 1888.5,752C 1887.14,753.682 1885.64,753.849 1884,752.5C 1880.35,755.271 1880.85,756.605 1885.5,756.5C 1885.58,757.93 1885.25,759.264 1884.5,760.5C 1880.34,763.343 1878.67,762.01 1879.5,756.5C 1870.68,758.56 1863.84,755.893 1859,748.5C 1858.33,651.833 1858.33,555.167 1859,458.5C 1859.7,456.416 1860.86,454.749 1862.5,453.5 Z"/></g>
<g><path style="opacity:1" fill="#89acf5" d="M 1999.5,480.5 C 1999.5,481.167 1999.5,481.833 1999.5,482.5C 1961.5,482.5 1923.5,482.5 1885.5,482.5C 1885.26,483.791 1885.6,484.791 1886.5,485.5C 1924.17,485.5 1961.83,485.5 1999.5,485.5C 1999.5,485.833 1999.5,486.167 1999.5,486.5C 1961.12,486.173 1922.79,486.506 1884.5,487.5C 1883.46,485.136 1883.46,482.47 1884.5,479.5C 1922.8,480.482 1961.14,480.815 1999.5,480.5 Z"/></g>
<g><path style="opacity:1" fill="#59719e" d="M 1999.5,482.5 C 1999.5,482.833 1999.5,483.167 1999.5,483.5C 1961.49,482.839 1923.82,483.506 1886.5,485.5C 1885.6,484.791 1885.26,483.791 1885.5,482.5C 1923.5,482.5 1961.5,482.5 1999.5,482.5 Z"/></g>
<g><path style="opacity:1" fill="#75899d" d="M 1758.5,484.5 C 1713.82,483.839 1669.49,484.505 1625.5,486.5C 1624.6,485.791 1624.26,484.791 1624.5,483.5C 1669.34,483.168 1714,483.501 1758.5,484.5 Z"/></g>
<g><path style="opacity:1" fill="#414e71" d="M 1999.5,483.5 C 1999.5,484.167 1999.5,484.833 1999.5,485.5C 1961.83,485.5 1924.17,485.5 1886.5,485.5C 1923.82,483.506 1961.49,482.839 1999.5,483.5 Z"/></g>
<g><path style="opacity:1" fill="#475a6d" d="M 1758.5,484.5 C 1714.51,486.495 1670.18,487.161 1625.5,486.5C 1669.49,484.505 1713.82,483.839 1758.5,484.5 Z"/></g>
<g><path style="opacity:1" fill="#2c3d4e" d="M 1625.5,506.5 C 1669.84,506.167 1714.17,506.5 1758.5,507.5C 1736.33,507.833 1714.17,508.167 1692,508.5C 1669.49,508.5 1647.32,507.833 1625.5,506.5 Z"/></g>
<g><path style="opacity:1" fill="#2e3b5d" d="M 1999.5,505.5 C 1999.5,506.167 1999.5,506.833 1999.5,507.5C 1848.83,506.833 1848.83,506.167 1999.5,505.5 Z"/></g>
<g><path style="opacity:1" fill="#84abfe" d="M 1999.5,508.5 C 1999.5,509.167 1999.5,509.833 1999.5,510.5C 1850.17,509.833 1850.17,509.167 1999.5,508.5 Z"/></g>
<g><path style="opacity:1" fill="#8cabef" d="M 1999.5,504.5 C 1999.5,504.833 1999.5,505.167 1999.5,505.5C 1848.83,506.167 1848.83,506.833 1999.5,507.5C 1999.5,507.833 1999.5,508.167 1999.5,508.5C 1850.17,509.167 1850.17,509.833 1999.5,510.5C 1999.5,510.833 1999.5,511.167 1999.5,511.5C 1960.83,511.667 1922.17,511.5 1883.5,511C 1883.96,510.586 1884.29,510.086 1884.5,509.5C 1882.35,508.318 1882.35,506.818 1884.5,505C 1922.83,504.5 1961.17,504.333 1999.5,504.5 Z"/></g>
<g><path style="opacity:1" fill="#364568" d="M 1886.5,527.5 C 1924.17,527.5 1961.83,527.5 1999.5,527.5C 1999.5,528.167 1999.5,528.833 1999.5,529.5C 1961.49,530.161 1923.82,529.494 1886.5,527.5 Z"/></g>
<g><path style="opacity:1" fill="#5a6ea1" d="M 1886.5,527.5 C 1923.82,529.494 1961.49,530.161 1999.5,529.5C 1999.5,529.833 1999.5,530.167 1999.5,530.5C 1961.5,530.5 1923.5,530.5 1885.5,530.5C 1885.26,529.209 1885.6,528.209 1886.5,527.5 Z"/></g>
<g><path style="opacity:1" fill="#596d82" d="M 1624.5,528.5 C 1669.17,528.5 1713.83,528.5 1758.5,528.5C 1758.5,529.5 1758.5,530.5 1758.5,531.5C 1713.83,531.5 1669.17,531.5 1624.5,531.5C 1624.5,530.5 1624.5,529.5 1624.5,528.5 Z"/></g>
<g><path style="opacity:1" fill="#3e4e73" d="M 1999.5,549.5 C 1999.5,550.5 1999.5,551.5 1999.5,552.5C 1961.83,552.833 1924.16,552.5 1886.5,551.5C 1886.71,550.914 1887.04,550.414 1887.5,550C 1924.83,549.5 1962.17,549.333 1999.5,549.5 Z"/></g>
<g><path style="opacity:1" fill="#596d7e" d="M 1624.5,550.5 C 1669.17,550.5 1713.83,550.5 1758.5,550.5C 1758.5,551.5 1758.5,552.5 1758.5,553.5C 1713.83,553.5 1669.17,553.5 1624.5,553.5C 1624.5,552.5 1624.5,551.5 1624.5,550.5 Z"/></g>
<g><path style="opacity:1" fill="#8eabed" d="M 1999.5,570.5 C 1999.5,570.833 1999.5,571.167 1999.5,571.5C 1961.83,571.5 1924.17,571.5 1886.5,571.5C 1886.5,572.5 1886.5,573.5 1886.5,574.5C 1924.17,574.5 1961.83,574.5 1999.5,574.5C 1999.5,574.833 1999.5,575.167 1999.5,575.5C 1960.5,575.5 1921.5,575.5 1882.5,575.5C 1882.14,573.089 1883.14,571.589 1885.5,571C 1923.5,570.5 1961.5,570.333 1999.5,570.5 Z"/></g>
<g><path style="opacity:1" fill="#77899c" d="M 1758.5,573.5 C 1713.82,572.839 1669.49,573.505 1625.5,575.5C 1624.6,574.791 1624.26,573.791 1624.5,572.5C 1669.34,572.168 1714,572.501 1758.5,573.5 Z"/></g>
<g><path style="opacity:1" fill="#435680" d="M 1999.5,571.5 C 1999.5,572.5 1999.5,573.5 1999.5,574.5C 1961.83,574.5 1924.17,574.5 1886.5,574.5C 1886.5,573.5 1886.5,572.5 1886.5,571.5C 1924.17,571.5 1961.83,571.5 1999.5,571.5 Z"/></g>
<g><path style="opacity:1" fill="#495969" d="M 1758.5,573.5 C 1714.51,575.495 1670.18,576.161 1625.5,575.5C 1669.49,573.505 1713.82,572.839 1758.5,573.5 Z"/></g>
<g><path style="opacity:1" fill="#8dabed" d="M 1999.5,592.5 C 1999.5,593.167 1999.5,593.833 1999.5,594.5C 1848.83,595.167 1848.83,595.833 1999.5,596.5C 1999.5,597.167 1999.5,597.833 1999.5,598.5C 1961.93,598.17 1924.43,598.504 1887,599.5C 1885.01,597.182 1883.84,594.516 1883.5,591.5C 1922.14,592.476 1960.81,592.809 1999.5,592.5 Z"/></g>
<g><path style="opacity:1" fill="#263c6b" d="M 1999.5,594.5 C 1999.5,595.167 1999.5,595.833 1999.5,596.5C 1848.83,595.833 1848.83,595.167 1999.5,594.5 Z"/></g>
<g><path style="opacity:1" fill="#333d49" d="M 1625.5,595.5 C 1645.84,595.167 1666.18,595.5 1686.5,596.5C 1676.33,596.833 1666.17,597.167 1656,597.5C 1645.48,597.499 1635.31,596.832 1625.5,595.5 Z"/></g>
<g><path style="opacity:1" fill="#293b6a" d="M 1999.5,616.5 C 1999.5,617.167 1999.5,617.833 1999.5,618.5C 1848.83,617.833 1848.83,617.167 1999.5,616.5 Z"/></g>
<g><path style="opacity:1" fill="#8dabed" d="M 1999.5,614.5 C 1999.5,615.167 1999.5,615.833 1999.5,616.5C 1848.83,617.167 1848.83,617.833 1999.5,618.5C 1999.5,619.167 1999.5,619.833 1999.5,620.5C 1961.16,620.833 1922.83,620.5 1884.5,619.5C 1883.05,617.021 1883.55,615.021 1886,613.5C 1923.8,614.491 1961.64,614.824 1999.5,614.5 Z"/></g>
<g><path style="opacity:1" fill="#415885" d="M 1999.5,638.5 C 1999.5,639.5 1999.5,640.5 1999.5,641.5C 1961.83,641.667 1924.17,641.5 1886.5,641C 1886.04,640.586 1885.71,640.086 1885.5,639.5C 1923.49,638.5 1961.49,638.167 1999.5,638.5 Z"/></g>
<g><path style="opacity:1" fill="#8cabef" d="M 1999.5,659.5 C 1999.5,659.833 1999.5,660.167 1999.5,660.5C 1961.5,660.5 1923.5,660.5 1885.5,660.5C 1885.29,662.179 1885.95,663.179 1887.5,663.5C 1924.83,663.5 1962.17,663.5 1999.5,663.5C 1999.5,663.833 1999.5,664.167 1999.5,664.5C 1962.17,664.333 1924.83,664.5 1887.5,665C 1886.58,665.374 1885.75,665.874 1885,666.5C 1883.69,664.314 1883.52,662.147 1884.5,660C 1922.83,659.5 1961.17,659.333 1999.5,659.5 Z"/></g>
<g><path style="opacity:1" fill="#5b6e9e" d="M 1999.5,660.5 C 1999.5,660.833 1999.5,661.167 1999.5,661.5C 1961.82,660.84 1924.49,661.506 1887.5,663.5C 1885.95,663.179 1885.29,662.179 1885.5,660.5C 1923.5,660.5 1961.5,660.5 1999.5,660.5 Z"/></g>
<g><path style="opacity:1" fill="#3e4e72" d="M 1999.5,661.5 C 1999.5,662.167 1999.5,662.833 1999.5,663.5C 1962.17,663.5 1924.83,663.5 1887.5,663.5C 1924.49,661.506 1961.82,660.84 1999.5,661.5 Z"/></g>
<g><path style="opacity:1" fill="#5a6fa0" d="M 1999.5,682.5 C 1999.5,682.833 1999.5,683.167 1999.5,683.5C 1961.82,682.84 1924.49,683.506 1887.5,685.5C 1885.95,685.179 1885.29,684.179 1885.5,682.5C 1923.5,682.5 1961.5,682.5 1999.5,682.5 Z"/></g>
<g><path style="opacity:1" fill="#414f6d" d="M 1999.5,683.5 C 1999.5,684.167 1999.5,684.833 1999.5,685.5C 1962.17,685.5 1924.83,685.5 1887.5,685.5C 1924.49,683.506 1961.82,682.84 1999.5,683.5 Z"/></g>
<g><path style="opacity:1" fill="#8fabeb" d="M 1999.5,681.5 C 1999.5,681.833 1999.5,682.167 1999.5,682.5C 1961.5,682.5 1923.5,682.5 1885.5,682.5C 1885.29,684.179 1885.95,685.179 1887.5,685.5C 1924.83,685.5 1962.17,685.5 1999.5,685.5C 1999.5,685.833 1999.5,686.167 1999.5,686.5C 1960.78,686.352 1922.11,686.518 1883.5,687C 1884.41,685.301 1884.74,683.467 1884.5,681.5C 1922.83,681.5 1961.17,681.5 1999.5,681.5 Z"/></g>
<g><path style="opacity:1" fill="#2e3b5e" d="M 1999.5,705.5 C 1999.5,706.167 1999.5,706.833 1999.5,707.5C 1848.83,706.833 1848.83,706.167 1999.5,705.5 Z"/></g>
<g><path style="opacity:1" fill="#364567" d="M 1886.5,727.5 C 1907.01,727.17 1927.34,727.503 1947.5,728.5C 1947.5,728.833 1947.5,729.167 1947.5,729.5C 1926.81,730.155 1906.47,729.488 1886.5,727.5 Z"/></g>
<g><path style="opacity:1" fill="#5b6e9f" d="M 1886.5,727.5 C 1906.47,729.488 1926.81,730.155 1947.5,729.5C 1947.16,730.338 1946.49,730.672 1945.5,730.5C 1925.5,730.5 1905.5,730.5 1885.5,730.5C 1885.26,729.209 1885.6,728.209 1886.5,727.5 Z"/></g>
<g><path style="opacity:1" fill="#8babf0" d="M 1947.5,728.5 C 1927.34,727.503 1907.01,727.17 1886.5,727.5C 1885.6,728.209 1885.26,729.209 1885.5,730.5C 1905.5,730.5 1925.5,730.5 1945.5,730.5C 1926.1,731.172 1906.6,731.839 1887,732.5C 1883.09,730.751 1882.42,728.085 1885,724.5C 1885.75,725.126 1886.58,725.626 1887.5,726C 1906.68,726.79 1925.85,726.623 1945,725.5C 1946.44,725.559 1947.77,725.892 1949,726.5C 1949.53,727.816 1949.03,728.483 1947.5,728.5 Z"/></g>
<g><path style="opacity:1" fill="#797d7f" d="M 1877.5,761.5 C 1877.5,762.5 1877.5,763.5 1877.5,764.5C 1878.83,764.5 1880.17,764.5 1881.5,764.5C 1880.08,765.451 1878.41,765.784 1876.5,765.5C 1876.23,763.901 1876.57,762.568 1877.5,761.5 Z"/></g>
<g><path style="opacity:1" fill="#fcfcfc" d="M 1999.5,802.5 C 1999.5,808.167 1999.5,813.833 1999.5,819.5C 1915.17,819.5 1830.83,819.5 1746.5,819.5C 1746.5,820.5 1746.5,821.5 1746.5,822.5C 1830.83,822.5 1915.17,822.5 1999.5,822.5C 1999.5,829.167 1999.5,835.833 1999.5,842.5C 1662.17,843.167 1662.17,843.833 1999.5,844.5C 1999.5,849.833 1999.5,855.167 1999.5,860.5C 1919.5,860.333 1839.5,860.5 1759.5,861C 1755,871.98 1752.67,871.814 1752.5,860.5C 1742.95,863.06 1736.12,860.06 1732,851.5C 1731.33,838.167 1731.33,824.833 1732,811.5C 1733.42,807.749 1735.92,804.916 1739.5,803C 1826.17,802.5 1912.83,802.333 1999.5,802.5 Z"/></g>
<g><path style="opacity:1" fill="#5b5c5e" d="M 1999.5,819.5 C 1999.5,820.5 1999.5,821.5 1999.5,822.5C 1915.17,822.5 1830.83,822.5 1746.5,822.5C 1746.5,821.5 1746.5,820.5 1746.5,819.5C 1830.83,819.5 1915.17,819.5 1999.5,819.5 Z"/></g>
<g><path style="opacity:1" fill="#5c5d60" d="M 1999.5,842.5 C 1999.5,843.167 1999.5,843.833 1999.5,844.5C 1662.17,843.833 1662.17,843.167 1999.5,842.5 Z"/></g>
<g><path style="opacity:1" fill="#5d6165" d="M 1999.5,799.5 C 1999.5,800.5 1999.5,801.5 1999.5,802.5C 1912.83,802.333 1826.17,802.5 1739.5,803C 1735.92,804.916 1733.42,807.749 1732,811.5C 1731.33,824.833 1731.33,838.167 1732,851.5C 1736.12,860.06 1742.95,863.06 1752.5,860.5C 1752.67,871.814 1755,871.98 1759.5,861C 1839.5,860.5 1919.5,860.333 1999.5,860.5C 1999.5,861.5 1999.5,862.5 1999.5,863.5C 1919.83,863.5 1840.17,863.5 1760.5,863.5C 1759.09,869.238 1755.43,871.904 1749.5,871.5C 1750.09,868.873 1750.42,866.206 1750.5,863.5C 1739.27,865.109 1732.1,860.443 1729,849.5C 1728.33,837.5 1728.33,825.5 1729,813.5C 1730.76,806.738 1734.93,802.238 1741.5,800C 1827.5,799.5 1913.5,799.333 1999.5,799.5 Z"/></g>
<g><path style="opacity:1" fill="#464a51" d="M 1605.5,906.5 C 1711.17,906.333 1816.83,906.5 1922.5,907C 1928.9,908.281 1932.74,912.115 1934,918.5C 1934.67,948.167 1934.67,977.833 1934,1007.5C 1932.17,1012 1929,1015.17 1924.5,1017C 1825.16,1017.17 1725.83,1017.67 1626.5,1018.5C 1624.37,1023.11 1620.7,1025.11 1615.5,1024.5C 1615.99,1022.19 1616.33,1019.86 1616.5,1017.5C 1607.11,1019.55 1599.95,1016.55 1595,1008.5C 1594.33,978.167 1594.33,947.833 1595,917.5C 1596.85,912.178 1600.35,908.511 1605.5,906.5 Z"/></g>
<g><path style="opacity:1" fill="#c3c7ce" d="M 1604.5,909.5 C 1711.17,909.333 1817.83,909.5 1924.5,910C 1928.06,911.892 1930.56,914.725 1932,918.5C 1932.67,947.5 1932.67,976.5 1932,1005.5C 1930.83,1010.67 1927.67,1013.83 1922.5,1015C 1823.5,1015.33 1724.5,1015.67 1625.5,1016C 1620.66,1023.92 1618.33,1023.75 1618.5,1015.5C 1611.11,1016.79 1604.61,1015.12 1599,1010.5C 1598.14,1008.91 1597.47,1007.25 1597,1005.5C 1596.33,976.833 1596.33,948.167 1597,919.5C 1598.21,915.131 1600.71,911.797 1604.5,909.5 Z"/></g>
<g><path style="opacity:1" fill="#373c42" d="M 1623.5,982.5 C 1670.17,982.167 1716.84,982.5 1763.5,983.5C 1740.17,983.833 1716.83,984.167 1693.5,984.5C 1669.82,984.5 1646.49,983.833 1623.5,982.5 Z"/></g>
<g><path style="opacity:1" fill="#595e64" d="M 1623.5,959.5 C 1717.5,959.5 1811.5,959.5 1905.5,959.5C 1905.5,960.5 1905.5,961.5 1905.5,962.5C 1811.5,962.5 1717.5,962.5 1623.5,962.5C 1623.5,961.5 1623.5,960.5 1623.5,959.5 Z"/></g>
<g><path style="opacity:1" fill="#373c42" d="M 1623.5,937.5 C 1717.5,937.167 1811.5,937.5 1905.5,938.5C 1858.5,938.833 1811.5,939.167 1764.5,939.5C 1717.16,939.5 1670.16,938.833 1623.5,937.5 Z"/></g>
<g><path style="opacity:1" fill="#424d63" d="M 1999.5,1056.5 C 1999.5,1057.17 1999.5,1057.83 1999.5,1058.5C 1954.11,1058.02 1908.77,1058.52 1863.5,1060C 1861.13,1062.08 1859.3,1064.58 1858,1067.5C 1857.5,1086.5 1857.33,1105.5 1857.5,1124.5C 1856.83,1124.5 1856.17,1124.5 1855.5,1124.5C 1855.33,1105.5 1855.5,1086.5 1856,1067.5C 1857.66,1063.69 1860.16,1060.53 1863.5,1058C 1908.77,1056.52 1954.11,1056.02 1999.5,1056.5 Z"/></g>
<g><path style="opacity:1" fill="#4159bf" d="M 1999.5,1058.5 C 1999.5,1059.17 1999.5,1059.83 1999.5,1060.5C 1954.11,1060.02 1908.77,1060.52 1863.5,1062C 1861.98,1063.22 1860.81,1064.72 1860,1066.5C 1859.5,1085.83 1859.33,1105.16 1859.5,1124.5C 1858.83,1124.5 1858.17,1124.5 1857.5,1124.5C 1857.33,1105.5 1857.5,1086.5 1858,1067.5C 1859.3,1064.58 1861.13,1062.08 1863.5,1060C 1908.77,1058.52 1954.11,1058.02 1999.5,1058.5 Z"/></g>
<g><path style="opacity:1" fill="#3b63f6" d="M 1999.5,1060.5 C 1999.5,1067.5 1999.5,1074.5 1999.5,1081.5C 1959.17,1081.5 1918.83,1081.5 1878.5,1081.5C 1878.5,1082.5 1878.5,1083.5 1878.5,1084.5C 1918.83,1084.5 1959.17,1084.5 1999.5,1084.5C 1999.5,1090.83 1999.5,1097.17 1999.5,1103.5C 1959.17,1103.5 1918.83,1103.5 1878.5,1103.5C 1878.26,1104.79 1878.6,1105.79 1879.5,1106.5C 1879.61,1107.12 1879.94,1107.62 1880.5,1108C 1920.17,1108.5 1959.83,1108.67 1999.5,1108.5C 1999.5,1113.83 1999.5,1119.17 1999.5,1124.5C 1952.83,1124.5 1906.17,1124.5 1859.5,1124.5C 1859.33,1105.16 1859.5,1085.83 1860,1066.5C 1860.81,1064.72 1861.98,1063.22 1863.5,1062C 1908.77,1060.52 1954.11,1060.02 1999.5,1060.5 Z"/></g>
<g><path style="opacity:1" fill="#b2c3f9" d="M 1999.5,1081.5 C 1999.5,1082.5 1999.5,1083.5 1999.5,1084.5C 1959.17,1084.5 1918.83,1084.5 1878.5,1084.5C 1878.5,1083.5 1878.5,1082.5 1878.5,1081.5C 1918.83,1081.5 1959.17,1081.5 1999.5,1081.5 Z"/></g>
<g><path style="opacity:1" fill="#5265a7" d="M 1999.5,1103.5 C 1999.5,1103.83 1999.5,1104.17 1999.5,1104.5C 1959.15,1103.84 1919.15,1104.51 1879.5,1106.5C 1878.6,1105.79 1878.26,1104.79 1878.5,1103.5C 1918.83,1103.5 1959.17,1103.5 1999.5,1103.5 Z"/></g>
<g><path style="opacity:1" fill="#d2ecff" d="M 1999.5,1104.5 C 1999.5,1105.17 1999.5,1105.83 1999.5,1106.5C 1959.5,1106.5 1919.5,1106.5 1879.5,1106.5C 1919.15,1104.51 1959.15,1103.84 1999.5,1104.5 Z"/></g>
<g><path style="opacity:1" fill="#4664d0" d="M 1879.5,1106.5 C 1919.5,1106.5 1959.5,1106.5 1999.5,1106.5C 1999.5,1107.17 1999.5,1107.83 1999.5,1108.5C 1959.83,1108.67 1920.17,1108.5 1880.5,1108C 1879.94,1107.62 1879.61,1107.12 1879.5,1106.5 Z"/></g>
</svg>
