<?xml version="1.0" standalone="no"?>
<svg xmlns="http://www.w3.org/2000/svg" viewBox="0 0 1920 1080" width="1920" height="1080" preserveAspectRatio="xMidYMid meet" style="width: 100%; height: 100%;"><defs><mask id="ly_yX9wnQv7PF" mask-type="alpha"><g class="mask" transform="matrix(1,0,0,1,0,0)" opacity="1" style="transform: matrix(1, 0, 0, 1, 0, 0);"><rect width="1920" height="1080" fill="#d31919"></rect></g></mask><linearGradient id="gr_kiTCLyXU1C" spreadMethod="pad" gradientUnits="userSpaceOnUse" x1="341" y1="-242" x2="571" y2="1490"><stop offset="0%" stop-color="rgb(63,165,177)"></stop><stop offset="24%" stop-color="rgb(75,198,205)"></stop><stop offset="100%" stop-color="rgb(88,232,232)"></stop></linearGradient></defs><g><g mask="url(#ly_yX9wnQv7PF)"><g class="charMC" opacity="1" data-svg-origin="960 540" style="transform-origin: 0px 0px 0px; transform: matrix(1, 0, 0, 1, 0, 0);"><g class="snow84prop1_0_0_0" opacity="1" style="user-select: none; transform-origin: 0px 0px 0px; transform: matrix(1, 0, 0, 1, -0.25, -0.25);" data-svg-origin="960.25 394.957992553711"><path fill="url(#gr_kiTCLyXU1C)" fill-opacity="1" d="M0 0 M0.398,806.507 C0.398,806.507 -6.674,0.311 -6.674,0.311 C-6.674,0.311 1920.102,-16.591 1920.102,-16.591 C1920.102,-16.591 1927.174,789.605 1927.174,789.605 C1927.174,789.605 0.398,806.507 0.398,806.507z"></path></g><g class="highlight1" opacity="0.1" style="user-select: none; transform-origin: 0px 0px 0px; transform: matrix(1, 0, 0, 1, 1200.91, 2.81);" data-svg-origin="284.92499145507986 320.799497070313"><path fill="rgb(255,255,255)" fill-opacity="1" d="M0 0 M431.974,7.131 C431.974,7.131 107.99099999999999,43.12900000000002 382.477,188.622 C656.963,334.11400000000003 226.485,425.61 226.485,425.61 C226.485,425.61 -18.00399999999999,500.60699999999997 142.489,518.606 C302.981,536.605 -0.005,641.6 -0.005,641.6 C-0.005,641.6 274.48199999999997,562.104 212.986,523.106 C151.48899999999998,484.108 167.988,473.608 217.485,454.108 C266.983,434.609 691.461,406.111 514.47,209.621 C337.47900000000004,13.131 517.4699999999999,19.130000000000003 562.468,5.631 C607.4649999999999,-7.868 431.974,7.131 431.974,7.131z"></path></g><g class="highlight2" opacity="0.1" style="user-select: none; transform-origin: 0px 0px 0px; transform: matrix(1, 0, 0, 1, 1412.18, 468.09);" data-svg-origin="70.66999084472991 57.661495361328036"><path fill="rgb(255,255,255)" fill-opacity="1" d="M0 0 M92.125,115.323 C92.125,115.323 193.54500000000002,11.829 105.211,1.329 C16.878,-9.17 -55.098,46.327000000000005 58.318,35.828 C171.73399999999998,25.328000000000003 92.125,115.323 92.125,115.323z"></path></g><g class="highlight3" opacity="0.1" style="user-select: none; transform-origin: 0px 0px 0px; transform: matrix(1, 0, 0, 1, 1272.06, 9.94);" data-svg-origin="155.56998962402008 199.490511474609"><path fill="rgb(255,255,255)" fill-opacity="1" d="M0 0 M92.338,398.981 C92.338,398.981 449.32000000000005,313.485 251.33,179.992 C53.34,46.498999999999995 201.832,0.001 201.832,0.001 C201.832,0.001 24.842,0.001 24.842,0.001 C24.842,0.001 -56.153999999999996,85.497 74.339,131.994 C204.832,178.492 419.321,277.48699999999997 92.338,398.981z"></path></g><g class="highlight4" opacity="0.1" style="user-select: none; transform-origin: 0px 0px 0px; transform: matrix(1, 0, 0, 1, 558.34, 501.916);" data-svg-origin="62.74850097656292 69.75050390625"><path fill="rgb(255,255,255)" fill-opacity="1" d="M0 0 M0,139.501 C0,139.501 189.589,79.497 33.597,0.001 C33.597,0.001 204.589,56.998000000000005 80.095,125.994 C80.095,125.994 0,139.501 0,139.501z"></path></g><g class="highlight5" opacity="0.1" style="user-select: none; transform-origin: 0px 0px 0px; transform: matrix(1, 0, 0, 1, 955.538, 498.918);" data-svg-origin="97.93599902343999 67.49551318359397"><path fill="rgb(255,255,255)" fill-opacity="1" d="M0 0 M75.876,104.995 C75.876,104.995 -87.616,44.998 65.377,0 C65.377,0 -93.61500000000001,32.99799999999999 195.87,134.993 C195.87,134.993 75.876,104.995 75.876,104.995z"></path></g><g class="snow83prop2_0zf010_0zf122_-0zf037" opacity="1" style="user-select: none; transform-origin: 0px 0px 0px; transform: matrix(1, 0, 0, 1, 1212.75, 597.417);" data-svg-origin="534.2501983642601 78.916908081055"><path fill="rgb(227,244,241)" fill-opacity="1" d="M0 0 M0.25,113.817 C0.25,113.817 506.25,20.032 506.25,20.032 C506.25,20.032 567.583,0.25 610.25,20.032 C610.25,20.032 1068.25,157.584 1068.25,157.584 C1068.25,157.584 597.323,149.64 597.323,149.64 C597.323,149.64 0.25,113.817 0.25,113.817z"></path></g><g class="snow82prop4_-0zf015_0zf014_-0zf217" opacity="1" style="user-select: none; transform-origin: 0px 0px 0px; transform: matrix(1, 0, 0, 1, 1743.14, 687.971);" data-svg-origin="17.562392578129902 31.025994018555025"><path fill="rgb(124,185,180)" fill-opacity="1" d="M0 0 M34.873,15.549 C34.873,15.549 29.684,19.217 29.684,19.217 C29.684,19.217 24.536,20.009 24.536,20.009 C24.536,20.009 24.942,14.565 24.942,14.565 C24.942,14.565 23.882,20.11 23.882,20.11 C23.882,20.11 18.073,21.003 18.073,21.003 C18.073,21.003 17.208,20.368 17.208,20.368 C17.208,20.368 16.186,15.049 16.186,15.049 C16.186,15.049 19.217,12.776 19.217,12.776 C19.217,12.776 16.021,14.195 16.021,14.195 C16.021,14.195 15.816,13.133 15.816,13.133 C15.816,13.133 14.743,11.895 14.743,11.895 C14.743,11.895 14.743,8.123 14.743,8.123 C14.743,8.123 14.104,11.157 14.104,11.157 C14.104,11.157 11.165,7.765 11.165,7.765 C11.165,7.765 10.985,0.25 10.985,0.25 C10.985,0.25 10.427,6.537 10.427,6.537 C10.427,6.537 8.302,4.903 8.302,4.903 C8.302,4.903 10.364,7.239 10.364,7.239 C10.364,7.239 10.269,8.302 10.269,8.302 C10.269,8.302 14.206,12.954 14.206,12.954 C14.206,12.954 15.298,19.034 15.298,19.034 C15.298,19.034 8.302,15.28 8.302,15.28 C8.302,15.28 0.607,2.039 0.607,2.039 C0.607,2.039 3.849,9.398 5.979,13.817 C5.979,13.817 0.25,12.776 0.25,12.776 C0.25,12.776 6.328,14.534 6.328,14.534 C7.07,16.046 7.625,17.07 7.765,17.07 C8.302,17.07 14.027,20.469 14.027,20.469 C14.027,20.469 13.328,60.188 13.328,60.188 C13.328,60.188 19.574,61.802 19.574,61.802 C19.574,61.802 18.355,22.278 18.355,22.278 C18.355,22.278 30.668,19.664 30.668,19.664 C30.668,19.664 34.873,15.549 34.873,15.549z"></path></g><g class="snow81prop2_0_0_0" opacity="1" style="user-select: none; transform-origin: 0px 0px 0px; transform: matrix(1, 0, 0, 1, 503.863, 713.832);" data-svg-origin="717.09769335938 99.69299389648404"><path fill="rgb(210,241,239)" fill-opacity="1" d="M0 0 M1002.2,0.25 C1002.2,0.25 1290.1860000000001,25.14 1426.679,37.585 C1426.679,37.585 1433.946,199.137 1433.946,199.137 C1433.946,199.137 69.247,105.14200000000001 0.25,83.808 C0.25,83.808 477.583,17.34 477.583,17.34 C477.583,17.34 1002.2,0.25 1002.2,0.25z"></path></g><g class="snow80prop2_-0zf001_0zf018_0zf078" opacity="1" style="user-select: none; transform-origin: 0px 0px 0px; transform: matrix(1, 0, 0, 1, 528.09, 572.711);" data-svg-origin="546.10859313965 81.47790380859396"><path fill="rgb(181,232,228)" fill-opacity="1" d="M0 0 M0.25,76.189 C0.25,76.189 324.698,24.747 324.698,24.747 C324.698,24.747 420.175,0.25 474.855,20.07 C538.9110000000001,43.29 1091.969,160.87 1091.969,160.87 C1091.969,160.87 568.704,162.706 568.704,162.706 C568.704,162.706 193.31,136.985 193.31,136.985 C193.31,136.985 0.25,76.189 0.25,76.189z"></path></g><g class="snow79prop2_0zf010_0zf122_-0zf037" opacity="1" style="user-select: none; transform-origin: 0px 0px 0px; transform: matrix(1, 0, 0, 1, 420.089, 580.083);" data-svg-origin="279.663792358398 70.79200000000003"><path fill="rgb(228,243,241)" fill-opacity="1" d="M0 0 M559.077,6.917 C559.077,6.917 440.25,13.332999999999998 498.25,41.333 C556.25,69.333 506.25,109.333 458.25,117.333 C458.25,117.333 317.58299999999997,130 299.916,135.667 C282.25,141.333 0.25,91.333 0.25,91.333 C0.25,91.333 138.25,61.333 138.25,61.333 C138.25,61.333 471.911,8.917 471.911,8.917 C471.911,8.917 550.244,0.25 559.077,6.917z"></path></g><g class="snow78prop2_-0zf001_0zf018_0zf078" opacity="1" style="user-select: none; transform-origin: 0px 0px 0px; transform: matrix(1, 0, 0, 1, 1716.75, 614.084);" data-svg-origin="116.15480041503997 70.23350488281301"><path fill="rgb(181,232,228)" fill-opacity="1" d="M0 0 M98.916,0.25 C98.916,0.25 0.25,26.917 112.25,46.917 C224.25,66.917 120.392,128.885 120.392,128.885 C120.392,128.885 232.059,140.218 232.059,140.218 C232.059,140.218 226.25,38.917 226.25,38.917 C226.25,38.917 98.916,0.25 98.916,0.25z"></path></g><g class="snow77prop4_-0zf015_0zf014_-0zf217" opacity="1" style="user-select: none; transform-origin: 0px 0px 0px; transform: matrix(1, 0, 0, 1, 1691.15, 684.209);" data-svg-origin="13.549188232419965 23.895812622070025"><path fill="rgb(124,185,180)" fill-opacity="1" d="M0 0 M26.852,12.004 C26.852,12.004 22.865,14.822 22.865,14.822 C22.865,14.822 18.91,15.431 18.91,15.431 C18.91,15.431 19.222,11.248 19.222,11.248 C19.222,11.248 18.408,15.508 18.408,15.508 C18.408,15.508 13.945,16.194 13.945,16.194 C13.945,16.194 13.28,15.707 13.28,15.707 C13.28,15.707 12.494,11.62 12.494,11.62 C12.494,11.62 14.823,9.873 14.823,9.873 C14.823,9.873 12.368,10.964 12.368,10.964 C12.368,10.964 12.21,10.149 12.21,10.149 C12.21,10.149 11.386,9.196 11.386,9.196 C11.386,9.196 11.386,6.299 11.386,6.299 C11.386,6.299 10.895,8.63 10.895,8.63 C10.895,8.63 8.636,6.024 8.636,6.024 C8.636,6.024 8.499,0.25 8.499,0.25 C8.499,0.25 8.07,5.08 8.07,5.08 C8.07,5.08 6.437,3.824 6.437,3.824 C6.437,3.824 8.022,5.62 8.022,5.62 C8.022,5.62 7.949,6.437 7.949,6.437 C7.949,6.437 10.973,10.011 10.973,10.011 C10.973,10.011 11.812,14.682 11.812,14.682 C11.812,14.682 6.437,11.798 6.437,11.798 C6.437,11.798 0.526,1.625 0.526,1.625 C0.526,1.625 3.0159999999999996,7.278 4.653,10.674 C4.653,10.674 0.25,9.873 0.25,9.873 C0.25,9.873 4.921,11.225 4.921,11.225 C5.492,12.386 5.917000000000001,13.173 6.025,13.173 C6.437,13.173 10.836,15.784 10.836,15.784 C10.836,15.784 10.298,46.301 10.298,46.301 C10.298,46.301 15.098,47.541 15.098,47.541 C15.098,47.541 14.162,17.175 14.162,17.175 C14.162,17.175 23.622,15.166 23.622,15.166 C23.622,15.166 26.852,12.004 26.852,12.004z"></path></g><g class="snow76prop4_-0zf018_-0zf131_-0zf329" opacity="1" style="user-select: none; transform-origin: 0px 0px 0px; transform: matrix(1, 0, 0, 1, 1313.24, 682.091);" data-svg-origin="14.700795898439992 27.364307006836043"><path fill="rgb(151,215,210)" fill-opacity="1" d="M0 0 M6.678,54.479 C6.678,54.479 11.097,48.114999999999995 10.696,42.73 C10.696,42.73 0.25,46.646 0.25,46.646 C0.25,46.646 8.533,34.628 8.533,34.628 C8.533,34.628 3.464,36.855 3.464,36.855 C3.464,36.855 12.105,22.661 12.105,22.661 C12.105,22.661 5.874,25.106 5.874,25.106 C5.874,25.106 16.032,11.238 16.032,11.238 C16.032,11.238 12.819,12 12.819,12 C12.819,12 19.961,0.25 19.961,0.25 C19.961,0.25 25.318,11.782 25.318,11.782 C25.318,11.782 21.925,11.238 21.925,11.238 C21.925,11.238 28.62,22.334 28.62,22.334 C28.62,22.334 23.175,21.355 23.175,21.355 C23.175,21.355 28.62,35.063 28.62,35.063 C28.62,35.063 24.068,32.453 24.068,32.453 C24.068,32.453 29.157,44.855 29.157,44.855 C29.157,44.855 18.443,42.244 18.443,42.244 C18.443,42.244 20.318,50.73 24.603,51.382 C24.603,51.382 6.678,54.479 6.678,54.479z"></path></g><g class="snow75prop4_-0zf015_0zf014_-0zf217" opacity="1" style="user-select: none; transform-origin: 0px 0px 0px; transform: matrix(1, 0, 0, 1, 1148.02, 669.249);" data-svg-origin="16.291492919920074 30.526207519531"><path fill="rgb(124,185,180)" fill-opacity="1" d="M0 0 M7.569,60.802 C7.569,60.802 12.334,53.631 11.764,47.657 C11.764,47.657 0.25,52.246 0.25,52.246 C0.25,52.246 9.178,38.705 9.178,38.705 C9.178,38.705 3.597,41.296 3.597,41.296 C3.597,41.296 12.873,25.328 12.873,25.328 C12.873,25.328 6.007,28.188 6.007,28.188 C6.007,28.188 16.976,12.548 16.976,12.548 C16.976,12.548 13.423,13.467 13.423,13.467 C13.423,13.467 21.09,0.25 21.09,0.25 C21.09,0.25 27.303,12.941 27.303,12.941 C27.303,12.941 23.522,12.413 23.522,12.413 C23.522,12.413 31.214,24.589 31.214,24.589 C31.214,24.589 25.141,23.625 25.141,23.625 C25.141,23.625 31.505,38.731 31.505,38.731 C31.505,38.731 26.386,35.934 26.386,35.934 C26.386,35.934 32.323,49.597 32.323,49.597 C32.323,49.597 20.361,46.941 20.361,46.941 C20.361,46.941 22.637,56.325 27.414,56.953 C27.414,56.953 7.569,60.802 7.569,60.802z"></path></g><g class="snow74prop2_0zf489_0zf545_-0zf112" opacity="1" style="user-select: none; transform-origin: 0px 0px 0px; transform: matrix(1, 0, 0, 1, 859.932, 717.719);" data-svg-origin="381.65920178222996 10.741510253905972"><path fill="rgb(230,255,252)" fill-opacity="1" d="M0 0 M763.068,15.281 C763.068,15.281 713.879,10.281 713.879,10.281 C713.879,10.281 468.729,17.988 468.729,17.988 C468.729,17.988 449.044,14.25 449.044,14.25 C449.044,14.25 413.04400000000004,0.25 343.492,8.639 C343.492,8.639 329.945,11.744 329.945,11.744 C329.945,11.744 263.95,12.515 263.95,12.515 C263.95,12.515 215.341,16.39 194.719,12.515 C174.09699999999998,8.639000000000001 70.988,4.763 48.893,13.484 C40.723,16.708 21.875,18.738999999999997 0.25,19.775 C19.156,19.865 39.641999999999996,19.502 60.677,18.328 C175.066,11.948 172.625,17.359 205.03,19.297 C237.436,21.234 354.10200000000003,18.25 378.377,18.25 C410.377,18.25 445.377,18.583 475.377,19.25 C475.377,19.25 475.304,19.236 475.304,19.236 C475.304,19.236 483.877,19.75 483.877,19.75 C483.877,19.75 763.068,15.281 763.068,15.281z"></path></g><g class="snow73prop4_-0zf018_-0zf131_-0zf329" opacity="1" style="user-select: none; transform-origin: 0px 0px 0px; transform: matrix(1, 0, 0, 1, 981.905, 681.133);" data-svg-origin="14.361891479491987 21.324611083983996"><path fill="rgb(151,215,210)" fill-opacity="1" d="M0 0 M4.007,42.383 C4.007,42.383 8.912,38.004 9.646,33.48 C9.646,33.48 0.25,34.648 0.25,34.648 C0.25,34.648 9.463,26.365 9.463,26.365 C9.463,26.365 4.839,27.201 4.839,27.201 C4.839,27.201 14.777,17.195 14.777,17.195 C14.777,17.195 9.152,17.981 9.152,17.981 C9.152,17.981 20.278,8.542 20.278,8.542 C20.278,8.542 17.475,8.535 17.475,8.535 C17.475,8.535 25.693,0.25 25.693,0.25 C25.693,0.25 27.833,10.827 27.833,10.827 C27.833,10.827 25.141,9.707 25.141,9.707 C25.141,9.707 28.473,20.191 28.473,20.191 C28.473,20.191 24.172,18.306 24.172,18.306 C24.172,18.306 25.956,30.696 25.956,30.696 C25.956,30.696 22.715,27.641 22.715,27.641 C22.715,27.641 24.462,38.884 24.462,38.884 C24.462,38.884 16.137,34.611 16.137,34.611 C16.137,34.611 15.543000000000001,41.013 18.951,42.399 C18.951,42.399 4.007,42.383 4.007,42.383z"></path></g><g class="snow72prop4_-0zf018_-0zf131_-0zf329" opacity="1" style="user-select: none; transform-origin: 0px 0px 0px; transform: matrix(1, 0, 0, 1, 1016.75, 680.761);" data-svg-origin="11.91969299315997 22.509797729491993"><path fill="rgb(151,215,210)" fill-opacity="1" d="M0 0 M5.439,44.037 C5.439,44.037 9.007,38.897999999999996 8.682,34.55 C8.682,34.55 0.25,37.713 0.25,37.713 C0.25,37.713 6.937,28.009 6.937,28.009 C6.937,28.009 2.844,29.807 2.844,29.807 C2.844,29.807 9.821,18.346 9.821,18.346 C9.821,18.346 4.791,20.32 4.791,20.32 C4.791,20.32 12.992,9.123 12.992,9.123 C12.992,9.123 10.397,9.737 10.397,9.737 C10.397,9.737 16.164,0.25 16.164,0.25 C16.164,0.25 20.489,9.561 20.489,9.561 C20.489,9.561 17.75,9.123 17.75,9.123 C17.75,9.123 23.156,18.083 23.156,18.083 C23.156,18.083 18.758,17.292 18.758,17.292 C18.758,17.292 23.156,28.36 23.156,28.36 C23.156,28.36 19.48,26.252 19.48,26.252 C19.48,26.252 23.588,36.266 23.588,36.266 C23.588,36.266 14.938,34.158 14.938,34.158 C14.938,34.158 16.311999999999998,44.244 19.772,44.771 C19.772,44.771 5.439,44.037 5.439,44.037z"></path></g><g class="snow71prop4_-0zf015_0zf014_-0zf217" opacity="1" style="user-select: none; transform-origin: 0px 0px 0px; transform: matrix(1, 0, 0, 1, 1053.43, 684.288);" data-svg-origin="11.921287841799995 22.58020983886695"><path fill="rgb(124,185,180)" fill-opacity="1" d="M0 0 M5.439,44.036 C5.439,44.036 9.007,38.897 8.683,34.55 C8.683,34.55 0.25,37.712 0.25,37.712 C0.25,37.712 6.937,28.008 6.937,28.008 C6.937,28.008 2.844,29.807 2.844,29.807 C2.844,29.807 9.821,18.346 9.821,18.346 C9.821,18.346 4.791,20.319 4.791,20.319 C4.791,20.319 12.993,9.122 12.993,9.122 C12.993,9.122 10.397,9.737 10.397,9.737 C10.397,9.737 16.164,0.25 16.164,0.25 C16.164,0.25 20.489,9.561 20.489,9.561 C20.489,9.561 17.75,9.122 17.75,9.122 C17.75,9.122 23.156,18.082 23.156,18.082 C23.156,18.082 18.759,17.291 18.759,17.291 C18.759,17.291 23.156,28.359 23.156,28.359 C23.156,28.359 19.48,26.251 19.48,26.251 C19.48,26.251 23.588,36.265 23.588,36.265 C23.588,36.265 14.939,34.157 14.939,34.157 C14.939,34.157 14.629999999999999,44.384 18.09,44.911 C18.09,44.911 5.439,44.036 5.439,44.036z"></path></g><g class="snow70prop4_-0zf018_-0zf131_-0zf329" opacity="1" style="user-select: none; transform-origin: 0px 0px 0px; transform: matrix(1, 0, 0, 1, 1469.53, 688.288);" data-svg-origin="11.920897216800086 22.14270983886695"><path fill="rgb(151,215,210)" fill-opacity="1" d="M0 0 M5.44,44.036 C5.44,44.036 9.007,38.897 8.683,34.55 C8.683,34.55 0.25,37.712 0.25,37.712 C0.25,37.712 6.938,28.008 6.938,28.008 C6.938,28.008 2.844,29.807 2.844,29.807 C2.844,29.807 9.821,18.346 9.821,18.346 C9.821,18.346 4.791,20.319 4.791,20.319 C4.791,20.319 12.993,9.122 12.993,9.122 C12.993,9.122 10.398,9.737 10.398,9.737 C10.398,9.737 16.165,0.25 16.165,0.25 C16.165,0.25 20.489,9.561 20.489,9.561 C20.489,9.561 17.751,9.122 17.751,9.122 C17.751,9.122 23.157,18.082 23.157,18.082 C23.157,18.082 18.759,17.291 18.759,17.291 C18.759,17.291 23.157,28.359 23.157,28.359 C23.157,28.359 19.48,26.251 19.48,26.251 C19.48,26.251 23.588,36.265 23.588,36.265 C23.588,36.265 14.939,34.157 14.939,34.157 C14.939,34.157 16.453,41.009 19.913,41.536 C19.913,41.536 5.44,44.036 5.44,44.036z"></path></g><g class="snow69prop4_-0zf015_0zf014_-0zf217" opacity="1" style="user-select: none; transform-origin: 0px 0px 0px; transform: matrix(1, 0, 0, 1, 1223.43, 680.288);" data-svg-origin="11.921287841799995 22.14270983886695"><path fill="rgb(124,185,180)" fill-opacity="1" d="M0 0 M5.439,44.036 C5.439,44.036 9.006,38.897 8.682,34.55 C8.682,34.55 0.25,37.712 0.25,37.712 C0.25,37.712 6.937,28.008 6.937,28.008 C6.937,28.008 2.844,29.806 2.844,29.806 C2.844,29.806 9.821,18.345 9.821,18.345 C9.821,18.345 4.791,20.319 4.791,20.319 C4.791,20.319 12.992,9.122 12.992,9.122 C12.992,9.122 10.397,9.736 10.397,9.736 C10.397,9.736 16.164,0.25 16.164,0.25 C16.164,0.25 20.489,9.56 20.489,9.56 C20.489,9.56 17.75,9.122 17.75,9.122 C17.75,9.122 23.156,18.082 23.156,18.082 C23.156,18.082 18.758,17.291 18.758,17.291 C18.758,17.291 23.156,28.359 23.156,28.359 C23.156,28.359 19.479,26.251 19.479,26.251 C19.479,26.251 23.588,36.265 23.588,36.265 C23.588,36.265 14.938,34.157 14.938,34.157 C14.938,34.157 16.451999999999998,41.00899999999999 19.912,41.535 C19.912,41.535 5.439,44.036 5.439,44.036z"></path></g><g class="snow68prop2_0zf002_0zf094_0zf166" opacity="1" style="user-select: none; transform-origin: 0px 0px 0px; transform: matrix(1, 0, 0, 1, 0.089, 573.883);" data-svg-origin="615.250096069336 112.023204223633"><path fill="rgb(151,215,210)" fill-opacity="1" d="M0 0 M1050.25,169.755 C1050.25,169.755 987.9490000000001,159.115 902.426,142.722 C794.7270000000001,115.096 457.26800000000003,28.325 428.911,18.45 C376.646,0.25 320.911,5.116 320.911,5.116 C320.911,5.116 321.46000000000004,5.194 322.475,5.342 C186.57100000000003,7.5649999999999995 0.25,54.699 0.25,54.699 C0.25,54.699 0.25,216.823 0.25,216.823 C0.25,216.823 1230.25,223.796 1050.25,169.755z"></path></g><g class="snow67prop2_0zf000_0zf000_0zf000" opacity="1" style="user-select: none; transform-origin: 0px 0px 0px; transform: matrix(1, 0, 0, 1, -16.441, 570.4);" data-svg-origin="362.094198242188 113.66140136718798"><path fill="rgb(210,241,239)" fill-opacity="1" d="M0 0 M354.089,10.582 C354.089,10.582 429.976,43.143 387.978,102.185 C345.98,161.226 510.949,157.699 510.949,157.699 C510.949,157.699 723.938,162.128 671.441,194.601 C618.9440000000001,227.073 513.971,217.314 513.971,217.314 C513.971,217.314 294.983,206.982 294.983,206.982 C294.983,206.982 0.25,226.568 0.25,226.568 C0.25,226.568 0.25,60.568 0.25,60.568 C0.25,60.568 300.092,0.25 354.089,10.582z"></path></g><g class="snow66prop2_0zf008_0zf176_0zf069" opacity="1" style="user-select: none; transform-origin: 0px 0px 0px; transform: matrix(1, 0, 0, 1, -3.911, 743.831);" data-svg-origin="533.123219238281 33.247598022461034"><path fill="rgb(192,225,222)" fill-opacity="1" d="M0 0 M1065.996,13.749 C1065.996,13.749 595.909,45.304 407.224,22.776 C218.53799999999998,0.25 0.25,37.586 0.25,37.586 C0.25,37.586 1.049,66.246 1.049,66.246 C1.049,66.246 532.023,46.747 532.023,46.747 C532.023,46.747 1040.497,43.747 1065.996,13.749z"></path></g><g class="snow65prop2_0zf008_0zf176_0zf069" opacity="1" style="user-select: none; transform-origin: 0px 0px 0px; transform: matrix(1, 0, 0, 1, -16.441, 717.879);" data-svg-origin="487.51180078125 104.44880456543001"><path fill="rgb(192,225,222)" fill-opacity="1" d="M0 0 M974.773,104.648 C974.773,104.648 76.25,0.25 0.25,17.089 C0.25,17.089 0.25,208.648 0.25,208.648 C0.25,208.648 974.773,104.648 974.773,104.648z"></path></g><g class="snow64prop3_-0zf023_-0zf162_0zf171" opacity="1" style="user-select: none; transform-origin: 0px 0px 0px; transform: matrix(1, 0, 0, 1, 366.651, 758.116);" data-svg-origin="9.438294433593967 16.686703857422003"><path fill="rgb(75,52,44)" fill-opacity="1" d="M0 0 M4.095,0.25 C4.095,0.25 14.811,0.25 14.811,0.25 C14.811,0.25 15.875,27.499 15.875,27.499 C15.875,27.499 16,31.624000000000002 18.625,32.874 C18.625,32.874 11.75,31.374000000000002 9.75,32.124 C7.75,32.874 1.875,33.123999999999995 0.25,31.999 C0.25,31.999 3.375,29.249 3.75,25.999 C3.75,25.999 4.095,0.25 4.095,0.25z"></path></g><g class="snow63prop4_0zf000_0zf000_0zf000" opacity="1" style="user-select: none; transform-origin: 0px 0px 0px; transform: matrix(1, 0, 0, 1, 306.528, 595.787);" data-svg-origin="63.570297119141 84.522906005859"><path fill="rgb(68,132,120)" fill-opacity="1" d="M0 0 M67.259,163.196 C67.259,163.196 110.292,168.796 126.891,164.596 C126.891,164.596 100.20200000000001,138.679 100.927,130.236 C100.927,130.236 105.51700000000001,132.95 118.284,132.402 C118.284,132.402 100.927,114.256 98.753,97.37 C98.753,97.37 97.38300000000001,96.00800000000001 109.677,99.742 C109.677,99.742 89.167,81.02 91.626,68.423 C91.626,68.423 99.194,71.39 107.186,71.39 C107.186,71.39 80.136,32.664 80.136,32.664 C80.136,32.664 89.776,35.979 89.776,35.979 C89.776,35.979 69.846,0.25 69.846,0.25 C69.846,0.25 47.018,38.24 47.018,38.24 C47.018,38.24 55.546,36.397 55.546,36.397 C55.546,36.397 37.103,71.39 37.103,71.39 C37.103,71.39 49.832,69.629 49.832,69.629 C49.832,69.629 41.604,95.85600000000001 28.694,100.989 C28.694,100.989 43.256,102.144 46.33,98.878 C46.33,98.878 38.365,129.60199999999998 24.225,136.134 C24.225,136.134 39.017,133.474 42.706,131.141 C42.706,131.141 24.84,160.397 12.545,164.13 C0.25,167.862 67.259,163.196 67.259,163.196z"></path></g><g class="snow62prop4_-0zf031_0zf003_-0zf429" opacity="1" style="user-select: none; transform-origin: 0px 0px 0px; transform: matrix(1, 0, 0, 1, 360.749, 587.942);" data-svg-origin="13.936104370116993 14.896607788086044"><path fill="rgb(195,223,223)" fill-opacity="1" d="M0 0 M3.11,28.28 C3.11,28.28 9.442,17.675 11.28,20.452 C13.117999999999999,23.229000000000003 16.387,24.997 17.817,22.472 C19.246,19.947000000000003 25.519,29.348 25.519,29.348 C25.519,29.348 27.621,29.543 27.008,26.765 C26.396,23.987000000000002 17,0.24999999999999978 14.14,2.018 C11.280000000000001,3.7859999999999996 0.25,25.755000000000003 3.11,28.28z"></path></g><g class="snow61prop4_-0zf031_0zf003_-0zf429" opacity="1" style="user-select: none; transform-origin: 0px 0px 0px; transform: matrix(1, 0, 0, 1, 396.77, 638.404);" data-svg-origin="8.905689697266041 16.10370568847702"><path fill="rgb(195,223,223)" fill-opacity="1" d="M0 0 M0.25,3.772 C0.25,3.772 2.459999999999999,15.850999999999999 8.354,21.891 C14.247,27.93 17.561999999999998,31.957 16.825,24.911 C16.088,17.865000000000002 2.46,0.25 0.25,3.772z"></path></g><g class="snow60prop4_-0zf031_0zf003_-0zf429" opacity="1" style="user-select: none; transform-origin: 0px 0px 0px; transform: matrix(1, 0, 0, 1, 393.914, 669.944);" data-svg-origin="13.321305786132996 13.133194213867"><path fill="rgb(195,223,223)" fill-opacity="1" d="M0 0 M7.603,0.879 C7.603,0.879 0.25,0.25 9.886,11.614 C19.521,22.98 23.207,26.017 23.207,26.017 C23.207,26.017 26.392000000000003,23.768 7.603,0.879z"></path></g><g class="snow59prop4_0zf469_0zf320_-0zf608" opacity="1" style="user-select: none; transform-origin: 0px 0px 0px; transform: matrix(1, 0, 0, 1, 400.822, 643.939);" data-svg-origin="8.53699353027298 11.535395751953047"><path fill="rgb(255,255,255)" fill-opacity="1" d="M0 0 M0.25,0.25 C0.25,0.25 7.89,17.205 12.173,22.819 C12.173,22.819 16.825,15.349 0.25,0.25z"></path></g><g class="snow58prop4_0zf469_0zf320_-0zf608" opacity="1" style="user-select: none; transform-origin: 0px 0px 0px; transform: matrix(1, 0, 0, 1, 405.952, 676.172);" data-svg-origin="6.789394042968979 10.019299438476992"><path fill="rgb(255,255,255)" fill-opacity="1" d="M0 0 M0.25,0.25 C0.25,0.25 4.175,12.518 11.17,19.788 C11.17,19.788 13.329,13.722 0.25,0.25z"></path></g><g class="snow57prop3_0zf009_-0zf045_0zf016" opacity="1" style="user-select: none; transform-origin: 0px 0px 0px; transform: matrix(1, 0, 0, 1, 368.401, 757.834);" data-svg-origin="7.469101928710984 15.896697631836105"><path fill="rgb(113,86,85)" fill-opacity="1" d="M0 0 M14.688,30.531 C14.688,30.531 0.25,30.344 0.25,30.344 C0.25,30.344 2.0629999999999997,28.212 2.094,24.778 C2.094,24.778 3.7720000000000002,31.543999999999997 4.219,22.24 C4.667000000000001,12.935999999999998 4.891,0.25 2.206,7.862 C2.206,7.862 2.346,0.532 2.346,0.532 C2.346,0.532 13.279,2.788 13.279,2.788 C13.279,2.788 13.279,4.76 13.279,4.76 C13.279,4.76 10.818,3.914999999999999 11.154,10.681 C11.49,17.448 11.105,26.25 14.126,26.531 C14.126,26.531 14.688,30.531 14.688,30.531z"></path></g><g class="snow56prop4_0zf469_0zf320_-0zf608" opacity="1" style="user-select: none; transform-origin: 0px 0px 0px; transform: matrix(1, 0, 0, 1, 373.367, 587.235);" data-svg-origin="8.18849621582001 16.097199096680015"><path fill="rgb(255,255,255)" fill-opacity="1" d="M0 0 M1.786,2.111 C1.786,2.111 0.25,8.576 5.265,12.873 C10.279,17.169 13.165,29.441 13.165,29.441 C13.165,29.441 16.126,31.944000000000003 14.654,26.858 C14.654,26.858 6.225,0.2500000000000002 1.786,2.111z"></path></g><g class="snow55prop4_0zf001_-0zf040_0zf049" opacity="1" style="user-select: none; transform-origin: 0px 0px 0px; transform: matrix(1, 0, 0, 1, 356.955, 628.201);" data-svg-origin="18.973497314453027 6.822605346680007"><path fill="rgb(56,119,107)" fill-opacity="1" d="M0 0 M5.118,3.983 C5.118,3.983 16.195,4.047 16.195,4.047 C16.195,4.047 16.195,0.731 16.195,0.731 C16.195,0.731 22.234,3.445 22.234,3.445 C22.234,3.445 29.709,0.25 29.709,0.25 C29.709,0.25 37.696,11.887 37.696,11.887 C37.696,11.887 31.414,3.4449999999999994 26.825,7.967 C22.233999999999998,12.491 6.29,1.6349999999999998 0.25,13.395 C0.25,13.395 5.118,3.983 5.118,3.983z"></path></g><g class="snow54prop4_0zf001_-0zf040_0zf049" opacity="1" style="user-select: none; transform-origin: 0px 0px 0px; transform: matrix(1, 0, 0, 1, 350.675, 691.099);" data-svg-origin="28.877093505858966 7.63650415039092"><path fill="rgb(56,119,107)" fill-opacity="1" d="M0 0 M2.183,3.566 C2.183,3.566 10.396,0.551 10.396,0.551 C10.396,0.551 25.133,4.47 25.133,4.47 C25.133,4.47 38.903,0.25 38.903,0.25 C38.903,0.25 46.634,2.058 46.634,2.058 C46.634,2.058 54.606,2.058 54.606,2.058 C54.606,2.058 54.606,6.582000000000001 57.505,12.31 C57.505,12.31 42.043,2.3600000000000003 29.481,8.692 C16.919000000000004,15.024000000000001 11.121,1.4559999999999995 0.25,10.802 C0.25,10.802 2.183,3.566 2.183,3.566z"></path></g><g class="snow53prop4_0zf001_-0zf040_0zf049" opacity="1" style="user-select: none; transform-origin: 0px 0px 0px; transform: matrix(1, 0, 0, 1, 345.698, 721.854);" data-svg-origin="32.33209033203104 10.049198242187913"><path fill="rgb(56,119,107)" fill-opacity="1" d="M0 0 M3.535,5.074 C3.535,5.074 15.372,2.058 15.372,2.058 C15.372,2.058 32.525,4.169 32.525,4.169 C32.525,4.169 44.604,0.25 44.604,0.25 C44.604,0.25 61.756,4.169 61.756,4.169 C61.756,4.169 61.756,7.183999999999999 64.413,11.104 C64.413,11.104 55.474999999999994,0.5510000000000002 32.766,10.2 C10.058,19.848 22.233,1.4559999999999995 0.25,10.2 C0.25,10.2 3.535,5.074 3.535,5.074z"></path></g><g class="snow52prop4_0zf001_-0zf040_0zf049" opacity="1" style="user-select: none; transform-origin: 0px 0px 0px; transform: matrix(1, 0, 0, 1, 352.976, 662.304);" data-svg-origin="24.264097045897984 7.511093994140992"><path fill="rgb(56,119,107)" fill-opacity="1" d="M0 0 M3.028,2.963 C3.028,2.963 14.503,3.567 14.503,3.567 C14.503,3.567 19.335,1.154 19.335,1.154 C19.335,1.154 24.891,3.266 24.891,3.266 C24.891,3.266 32.38,0.25 32.38,0.25 C32.38,0.25 37.936,2.36 37.936,2.36 C37.936,2.36 44.821,1.757 44.821,1.757 C44.821,1.757 45.137,7.535 48.278,14.772 C48.278,14.772 39.869,4.4719999999999995 27.065,7.486 C14.261000000000001,10.501999999999999 12.087,3.8680000000000003 0.25,12.01 C0.25,12.01 3.028,2.963 3.028,2.963z"></path></g><g class="snow51prop2_0zf489_0zf545_-0zf112" opacity="1" style="user-select: none; transform-origin: 0px 0px 0px; transform: matrix(1, 0, 0, 1, 1214.55, 114.167);" data-svg-origin="13.252001953130048 13.250404174804999"><path fill="rgb(255,255,255)" fill-opacity="1" d="M0 0 M26.25,13.25 C26.25,20.43 20.43,26.25 13.25,26.25 C6.07,26.25 0.25,20.43 0.25,13.25 C0.25,6.07 6.07,0.25 13.25,0.25 C20.43,0.25 26.25,6.07 26.25,13.25z"></path></g><g class="snow50prop2_0zf489_0zf545_-0zf112" opacity="1" style="user-select: none; transform-origin: 0px 0px 0px; transform: matrix(1, 0, 0, 1, 229.089, 22.167);" data-svg-origin="13.250096069335996 13.249503906249998"><path fill="rgb(255,255,255)" fill-opacity="1" d="M0 0 M26.25,13.25 C26.25,20.43 20.43,26.25 13.25,26.25 C6.07,26.25 0.25,20.43 0.25,13.25 C0.25,6.07 6.07,0.25 13.25,0.25 C20.43,0.25 26.25,6.07 26.25,13.25z"></path></g><g class="snow49prop2_0zf489_0zf545_-0zf112" opacity="1" style="user-select: none; transform-origin: 0px 0px 0px; transform: matrix(1, 0, 0, 1, 1510.09, 258.166);" data-svg-origin="13.249096069340112 13.25039709472702"><path fill="rgb(255,255,255)" fill-opacity="1" d="M0 0 M26.25,13.25 C26.25,20.43 20.43,26.25 13.25,26.25 C6.07,26.25 0.25,20.43 0.25,13.25 C0.25,10.333 1.211,7.641 2.833,5.472 C5.204000000000001,2.3020000000000005 8.987,0.25 13.25,0.25 C20.43,0.25 26.25,6.07 26.25,13.25z"></path></g><g class="snow48prop2_0zf489_0zf545_-0zf112" opacity="1" style="user-select: none; transform-origin: 0px 0px 0px; transform: matrix(1, 0, 0, 1, 624.089, 440.166);" data-svg-origin="13.250096069335996 13.25039709472702"><path fill="rgb(255,255,255)" fill-opacity="1" d="M0 0 M26.25,13.25 C26.25,20.43 20.43,26.25 13.25,26.25 C6.07,26.25 0.25,20.43 0.25,13.25 C0.25,6.07 6.07,0.25 13.25,0.25 C20.43,0.25 26.25,6.07 26.25,13.25z"></path></g><g class="snow47prop2_0zf489_0zf545_-0zf112" opacity="1" style="user-select: none; transform-origin: 0px 0px 0px; transform: matrix(1, 0, 0, 1, 598.089, 247.166);" data-svg-origin="4.750096069335996 4.750397094726992"><path fill="rgb(255,255,255)" fill-opacity="1" d="M0 0 M9.25,4.75 C9.25,7.234999999999999 7.234999999999999,9.25 4.75,9.25 C2.265,9.25 0.25,7.234999999999999 0.25,4.75 C0.25,2.266 2.265,0.25 4.75,0.25 C7.234999999999999,0.25 9.25,2.266 9.25,4.75z"></path></g><g class="snow46prop2_0zf489_0zf545_-0zf112" opacity="1" style="user-select: none; transform-origin: 0px 0px 0px; transform: matrix(1, 0, 0, 1, 1490.14, 521.165);" data-svg-origin="4.750899658199842 4.750496826172025"><path fill="rgb(255,255,255)" fill-opacity="1" d="M0 0 M9.25,4.75 C9.25,7.234999999999999 7.234999999999999,9.25 4.75,9.25 C2.265,9.25 0.25,7.234999999999999 0.25,4.75 C0.25,2.265 2.265,0.25 4.75,0.25 C7.234999999999999,0.25 9.25,2.265 9.25,4.75z"></path></g><g class="snow45prop2_0zf489_0zf545_-0zf112" opacity="1" style="user-select: none; transform-origin: 0px 0px 0px; transform: matrix(1, 0, 0, 1, 1285.9, 554.165);" data-svg-origin="4.750604248049967 4.749505004883076"><path fill="rgb(255,255,255)" fill-opacity="1" d="M0 0 M9.25,4.75 C9.25,7.234999999999999 7.234999999999999,9.25 4.75,9.25 C2.265,9.25 0.25,7.234999999999999 0.25,4.75 C0.25,2.265 2.265,0.25 4.75,0.25 C7.234999999999999,0.25 9.25,2.265 9.25,4.75z"></path></g><g class="snow43prop2_0zf489_0zf545_-0zf112" opacity="1" style="user-select: none; transform-origin: 0px 0px 0px; transform: matrix(1, 0, 0, 1, 1471.59, 465.166);" data-svg-origin="4.749096069340112 4.75039709472702"><path fill="rgb(255,255,255)" fill-opacity="1" d="M0 0 M9.25,4.75 C9.25,7.234999999999999 7.234999999999999,9.25 4.75,9.25 C2.265,9.25 0.25,7.234999999999999 0.25,4.75 C0.25,2.266 2.265,0.25 4.75,0.25 C7.234999999999999,0.25 9.25,2.266 9.25,4.75z"></path></g><g class="snow42prop2_0zf489_0zf545_-0zf112" opacity="1" style="user-select: none; transform-origin: 0px 0px 0px; transform: matrix(1, 0, 0, 1, 1769.59, 103.166);" data-svg-origin="4.749096069340112 4.750397094727006"><path fill="rgb(255,255,255)" fill-opacity="1" d="M0 0 M9.25,4.75 C9.25,7.234999999999999 7.234999999999999,9.25 4.75,9.25 C2.265,9.25 0.25,7.234999999999999 0.25,4.75 C0.25,2.266 2.265,0.25 4.75,0.25 C7.234999999999999,0.25 9.25,2.266 9.25,4.75z"></path></g><g class="snow41prop2_0zf489_0zf545_-0zf112" opacity="1" style="user-select: none; transform-origin: 0px 0px 0px; transform: matrix(1, 0, 0, 1, 764.178, 311.175);" data-svg-origin="4.7495054931639515 4.7502014160160115"><path fill="rgb(255,255,255)" fill-opacity="1" d="M0 0 M9.25,4.75 C9.25,7.234999999999999 7.234999999999999,9.25 4.75,9.25 C2.265,9.25 0.25,7.234999999999999 0.25,4.75 C0.25,2.266 2.265,0.25 4.75,0.25 C7.234999999999999,0.25 9.25,2.266 9.25,4.75z"></path></g><g class="snow40prop2_0zf489_0zf545_-0zf112" opacity="1" style="user-select: none; transform-origin: 0px 0px 0px; transform: matrix(1, 0, 0, 1, 397.589, 465.166);" data-svg-origin="4.750096069335996 4.75039709472702"><path fill="rgb(255,255,255)" fill-opacity="1" d="M0 0 M9.25,4.75 C9.25,7.234999999999999 7.234999999999999,9.25 4.75,9.25 C2.265,9.25 0.25,7.234999999999999 0.25,4.75 C0.25,2.266 2.265,0.25 4.75,0.25 C7.234999999999999,0.25 9.25,2.266 9.25,4.75z"></path></g><g class="snow39prop2_0zf489_0zf545_-0zf112" opacity="1" style="user-select: none; transform-origin: 0px 0px 0px; transform: matrix(1, 0, 0, 1, 1145.16, 290.176);" data-svg-origin="4.748401489260004 4.750193237304984"><path fill="rgb(255,255,255)" fill-opacity="1" d="M0 0 M9.25,4.75 C9.25,7.234999999999999 7.234999999999999,9.25 4.75,9.25 C2.265,9.25 0.25,7.234999999999999 0.25,4.75 C0.25,2.265 2.265,0.25 4.75,0.25 C7.234999999999999,0.25 9.25,2.265 9.25,4.75z"></path></g><g class="snow38prop2_0zf489_0zf545_-0zf112" opacity="1" style="user-select: none; transform-origin: 0px 0px 0px; transform: matrix(1, 0, 0, 1, 1196.16, 405.572);" data-svg-origin="2.545596923829862 2.549505737304969"><path fill="rgb(255,255,255)" fill-opacity="1" d="M0 0 M4.851,2.55 C4.851,3.82 3.8209999999999997,4.85 2.55,4.85 C1.281,4.85 0.25,3.82 0.25,2.55 C0.25,1.279 1.281,0.25 2.55,0.25 C3.8209999999999997,0.25 4.851,1.279 4.851,2.55z"></path></g><g class="snow37prop2_0zf489_0zf545_-0zf112" opacity="1" style="user-select: none; transform-origin: 0px 0px 0px; transform: matrix(1, 0, 0, 1, 1814.82, 415.37);" data-svg-origin="2.5550000000000637 2.5503033447270127"><path fill="rgb(255,255,255)" fill-opacity="1" d="M0 0 M4.85,2.55 C4.85,3.8209999999999997 3.8209999999999997,4.85 2.55,4.85 C1.2799999999999998,4.85 0.25,3.8209999999999997 0.25,2.55 C0.25,1.2799999999999998 1.2799999999999998,0.25 2.55,0.25 C3.8209999999999997,0.25 4.85,1.2799999999999998 4.85,2.55z"></path></g><g class="snow36prop2_0zf489_0zf545_-0zf112" opacity="1" style="user-select: none; transform-origin: 0px 0px 0px; transform: matrix(1, 0, 0, 1, 437.894, 561.663);" data-svg-origin="2.5498934326170115 2.5503026123050176"><path fill="rgb(255,255,255)" fill-opacity="1" d="M0 0 M4.85,2.55 C4.85,3.8209999999999997 3.82,4.85 2.55,4.85 C1.2799999999999998,4.85 0.25,3.8209999999999997 0.25,2.55 C0.25,1.279 1.2799999999999998,0.25 2.55,0.25 C3.82,0.25 4.85,1.279 4.85,2.55z"></path></g><g class="snow35prop2_0zf489_0zf545_-0zf112" opacity="1" style="user-select: none; transform-origin: 0px 0px 0px; transform: matrix(1, 0, 0, 1, 201.973, 103.015);" data-svg-origin="2.5499949951169754 2.5498956298829967"><path fill="rgb(255,255,255)" fill-opacity="1" d="M0 0 M4.85,2.55 C4.85,3.8209999999999997 3.82,4.85 2.55,4.85 C1.2799999999999998,4.85 0.25,3.8209999999999997 0.25,2.55 C0.25,1.2799999999999998 1.2799999999999998,0.25 2.55,0.25 C3.82,0.25 4.85,1.2799999999999998 4.85,2.55z"></path></g><g class="snow34prop2_0zf489_0zf545_-0zf112" opacity="1" style="user-select: none; transform-origin: 0px 0px 0px; transform: matrix(1, 0, 0, 1, 1095.97, 461.708);" data-svg-origin="2.5495922851598607 2.550209228515996"><path fill="rgb(255,255,255)" fill-opacity="1" d="M0 0 M4.85,2.55 C4.85,3.8209999999999997 3.82,4.85 2.55,4.85 C1.2799999999999998,4.85 0.25,3.8209999999999997 0.25,2.55 C0.25,1.279 1.2799999999999998,0.25 2.55,0.25 C3.82,0.25 4.85,1.279 4.85,2.55z"></path></g><g class="snow33prop2_0zf489_0zf545_-0zf112" opacity="1" style="user-select: none; transform-origin: 0px 0px 0px; transform: matrix(1, 0, 0, 1, 1306.35, 574.363);" data-svg-origin="2.550390625000091 2.5495976562499436"><path fill="rgb(255,255,255)" fill-opacity="1" d="M0 0 M4.85,2.55 C4.85,3.8209999999999997 3.8209999999999997,4.85 2.55,4.85 C1.2799999999999998,4.85 0.25,3.8209999999999997 0.25,2.55 C0.25,1.279 1.2799999999999998,0.25 2.55,0.25 C3.8209999999999997,0.25 4.85,1.279 4.85,2.55z"></path></g><g class="snow32prop2_0zf489_0zf545_-0zf112" opacity="1" style="user-select: none; transform-origin: 0px 0px 0px; transform: matrix(1, 0, 0, 1, 745.378, 530.065);" data-svg-origin="2.5502989501949287 2.5497003173829853"><path fill="rgb(255,255,255)" fill-opacity="1" d="M0 0 M4.85,2.55 C4.85,3.8209999999999997 3.8209999999999997,4.85 2.55,4.85 C1.2799999999999998,4.85 0.25,3.8209999999999997 0.25,2.55 C0.25,1.2799999999999998 1.2799999999999998,0.25 2.55,0.25 C3.8209999999999997,0.25 4.85,1.2799999999999998 4.85,2.55z"></path></g><g class="snow31prop2_0zf489_0zf545_-0zf112" opacity="1" style="user-select: none; transform-origin: 0px 0px 0px; transform: matrix(1, 0, 0, 1, 716.18, 235.379);" data-svg-origin="2.549995727538999 2.550107666016004"><path fill="rgb(255,255,255)" fill-opacity="1" d="M0 0 M4.85,2.55 C4.85,3.8209999999999997 3.82,4.85 2.55,4.85 C1.2799999999999998,4.85 0.25,3.8209999999999997 0.25,2.55 C0.25,1.2799999999999998 1.2799999999999998,0.25 2.55,0.25 C3.82,0.25 4.85,1.2799999999999998 4.85,2.55z"></path></g><g class="snow30prop2_0zf489_0zf545_-0zf112" opacity="1" style="user-select: none; transform-origin: 0px 0px 0px; transform: matrix(1, 0, 0, 1, 52.273, 49.115);" data-svg-origin="4.750193359374997 4.749700317382796"><path fill="rgb(255,255,255)" fill-opacity="1" d="M0 0 M9.25,4.75 C9.25,7.234999999999999 7.234999999999999,9.25 4.75,9.25 C2.265,9.25 0.25,7.234999999999999 0.25,4.75 C0.25,2.265 2.265,0.25 4.75,0.25 C7.234999999999999,0.25 9.25,2.265 9.25,4.75z"></path></g><g class="snow29prop2_0zf489_0zf545_-0zf112" opacity="1" style="user-select: none; transform-origin: 0px 0px 0px; transform: matrix(1, 0, 0, 1, 853.589, 83.166);" data-svg-origin="4.750096069335996 4.750397094726608"><path fill="rgb(255,255,255)" fill-opacity="1" d="M0 0 M9.25,4.75 C9.25,7.234999999999999 7.234999999999999,9.25 4.75,9.25 C2.265,9.25 0.25,7.234999999999999 0.25,4.75 C0.25,2.266 2.265,0.25 4.75,0.25 C7.234999999999999,0.25 9.25,2.266 9.25,4.75z"></path></g><g class="snow28prop2_0zf489_0zf545_-0zf112" opacity="1" style="user-select: none; transform-origin: 0px 0px 0px; transform: matrix(1, 0, 0, 1, 1810.09, 360.666);" data-svg-origin="4.749096069340112 4.75039709472702"><path fill="rgb(255,255,255)" fill-opacity="1" d="M0 0 M9.25,4.75 C9.25,7.234999999999999 7.234999999999999,9.25 4.75,9.25 C2.265,9.25 0.25,7.234999999999999 0.25,4.75 C0.25,2.266 2.265,0.25 4.75,0.25 C7.234999999999999,0.25 9.25,2.266 9.25,4.75z"></path></g><g class="snow27prop2_0zf489_0zf545_-0zf112" opacity="1" style="user-select: none; transform-origin: 0px 0px 0px; transform: matrix(1, 0, 0, 1, 1675.02, 437.165);" data-svg-origin="9.747807006840048 9.749505004882963"><path fill="rgb(255,255,255)" fill-opacity="1" d="M0 0 M19.25,9.75 C19.25,14.997 14.996,19.25 9.75,19.25 C4.503,19.25 0.25,14.997 0.25,9.75 C0.25,4.504 4.503,0.25 9.75,0.25 C14.996,0.25 19.25,4.504 19.25,9.75z"></path></g><g class="snow26prop3_0_0_0" opacity="1" style="user-select: none; transform-origin: 0px 0px 0px; transform: matrix(1, 0, 0, 1, 544.017, 753.948);" data-svg-origin="5.402097900390913 10.810209228515987"><path fill="rgb(113,95,94)" fill-opacity="1" d="M0 0 M2.406,0.25 C2.406,0.25 8.414,0.25 8.414,0.25 C8.414,0.25 9.011,17.756 9.011,17.756 C9.011,17.756 9.081000000000001,20.405 10.553,21.209 C10.553,21.209 6.6979999999999995,20.245 5.576,20.727 C4.455,21.209 1.161,21.369 0.25,20.646 C0.25,20.646 2.0020000000000002,18.880000000000003 2.213,16.792 C2.213,16.792 2.406,0.25 2.406,0.25z"></path></g><g class="snow25prop3_-0zf014_0zf006_-0zf110" opacity="1" style="user-select: none; transform-origin: 0px 0px 0px; transform: matrix(1, 0, 0, 1, 544.998, 753.767);" data-svg-origin="4.2984935302729355 10.30219860839793"><path fill="rgb(143,124,121)" fill-opacity="1" d="M0 0 M8.345,19.704 C8.345,19.704 0.25,19.583 0.25,19.583 C0.25,19.583 1.266,18.214 1.283,16.008 C1.283,16.008 2.224,20.354 2.475,14.378 C2.726,8.4 2.851,0.25 1.346,5.141 C1.346,5.141 1.425,0.432 1.425,0.432 C1.425,0.432 7.555,1.88 7.555,1.88 C7.555,1.88 7.555,3.148 7.555,3.148 C7.555,3.148 6.176,2.603999999999999 6.364,6.951 C6.552,11.299 6.335999999999999,16.953 8.03,17.134 C8.03,17.134 8.345,19.704 8.345,19.704z"></path></g><g class="snow24prop4_-0zf006_0zf050_-0zf080" opacity="1" style="user-select: none; transform-origin: 0px 0px 0px; transform: matrix(1, 0, 0, 1, 520.519, 655.46);" data-svg-origin="27.669201904296983 51.11119750976593"><path fill="rgb(87,153,143)" fill-opacity="1" d="M0 0 M19.837,100.655 C24.538,97.878 26.064,101.803 31.337,101.28 C34.269999999999996,100.051 36.446999999999996,101.352 40.583,101.126 C42.013,101.048 55.087,98.905 55.087,98.905 C55.087,98.905 43.837,72.155 43.837,72.155 C43.837,72.155 54.004,73.739 54.004,73.739 C54.004,73.739 40.837,47.905 40.837,47.905 C40.837,47.905 47.337,48.739 47.337,48.739 C47.337,48.739 40.63,23.394 40.63,23.394 C40.63,23.394 45.004,26.072 45.004,26.072 C45.004,26.072 37.169,0.25 37.169,0.25 C37.169,0.25 21.67,27.405 21.67,27.405 C21.67,27.405 26.549,24.252 26.549,24.252 C26.549,24.252 14.337,52.739 14.337,52.739 C14.337,52.739 20.953,49.973 20.953,49.973 C20.953,49.973 6.67,77.072 6.67,77.072 C6.67,77.072 16.259,71.12 16.259,71.12 C16.259,71.12 0.67,98.739 0.67,98.739 C0.67,98.739 0.25,101.973 8.962,99.03 C8.962,99.03 13.337,100.03 13.337,100.03 C13.337,100.03 19.544,100.82900000000001 19.837,100.655z"></path></g><g class="snow23prop4_0zf001_0zf031_0zf006" opacity="1" style="user-select: none; transform-origin: 0px 0px 0px; transform: matrix(1, 0, 0, 1, 542.893, 677.749);" data-svg-origin="10.33260119628892 5.651405883788925"><path fill="rgb(70,126,116)" fill-opacity="1" d="M0 0 M4.177,1.962 C4.177,1.962 8.395,0.25 10.387,3.298 C12.378,6.346 18.258,1.105 18.258,1.105 C18.258,1.105 20.417,8.802 20.417,8.802 C20.417,8.802 17.783,3.2979999999999996 14.369,7.108 C14.369,7.108 9.533,7.489 7.258,6.346 C4.982,5.203 0.25,11.052 0.25,11.052 C0.25,11.052 4.177,1.962 4.177,1.962z"></path></g><g class="snow22prop4_0zf001_0zf031_0zf006" opacity="1" style="user-select: none; transform-origin: 0px 0px 0px; transform: matrix(1, 0, 0, 1, 533.982, 724.615);" data-svg-origin="16.687601440430058 4.874593505859025"><path fill="rgb(70,126,116)" fill-opacity="1" d="M0 0 M2.797,1.965 C2.797,1.965 8.375,0.25 8.375,0.25 C8.375,0.25 12.375,1.5 12.375,1.5 C12.375,1.5 19.25,0.75 19.25,0.75 C19.25,0.75 26.375,3.5 26.375,3.5 C26.375,3.5 30.375,3.125 30.375,3.125 C30.375,3.125 33.125,9.25 33.125,9.25 C33.125,9.25 24.625,4 18.875,6.75 C13.125,9.5 8.125,1 0.25,5.25 C0.25,5.25 2.797,1.965 2.797,1.965z"></path></g><g class="snow21prop4_0zf001_0zf031_0zf006" opacity="1" style="user-select: none; transform-origin: 0px 0px 0px; transform: matrix(1, 0, 0, 1, 538.642, 702.74);" data-svg-origin="12.482404907226964 3.864095458984025"><path fill="rgb(70,126,116)" fill-opacity="1" d="M0 0 M2.831,2.693 C2.831,2.693 6.965,2.75 6.965,2.75 C6.965,2.75 8.59,0.875 8.59,0.875 C8.59,0.875 11.59,1.375 11.59,1.375 C11.59,1.375 12.34,0.25 12.34,0.25 C12.34,0.25 22.715,0.625 22.715,0.625 C22.715,0.625 24.715,4.75 24.715,4.75 C24.715,4.75 18.465,1.25 12.715,3 C6.965,4.75 4.125,3.3529999999999998 0.25,7.478 C0.25,7.478 2.831,2.693 2.831,2.693z"></path></g><g class="highlight6" opacity="0.1" style="user-select: none; transform-origin: 0px 0px 0px; transform: matrix(1, 0, 0, 1, -33.529, 0.86);" data-svg-origin="454.525643066406 227.002503051758"><path fill="rgb(255,255,255)" fill-opacity="1" d="M0 0 M818.88,454.005 C845.204,447.374 909.299,435.16700000000003 909.052,397.264 C908.806,360.605 843.547,346.964 817.427,339.429 C759.015,322.577 699.141,310.937 640.959,293.289 C555.1869999999999,267.276 470.12300000000005,238.212 388.482,200.869 C361.09000000000003,188.34 333.524,174.42000000000002 312.709,152.532 C306.461,145.96200000000002 300.618,138 300.502,128.901 C300.297,112.86300000000001 317.017,102.547 331.858,96.762 C428.81600000000003,58.969 538.191,69.733 637.768,39.642 C642.888,38.095000000000006 649.178,34.421 647.808,29.213 C620.982,18.433 591.768,15.558 562.984,13.193 C375.833,-2.187000000000001 187.766,-0.613 0.001,0.972 C74.253,5.503 151.09300000000002,9.899999999999999 223.241,29.517 C236.73100000000002,33.185 273.51300000000003,40.611000000000004 275.978,59.061 C279.195,83.148 227.893,97.568 212.821,102.941 C167.301,119.165 161.465,146.798 200.958,175.175 C253.804,213.14800000000002 321.34299999999996,233.604 382.393,253.466 C534.9939999999999,303.11400000000003 690.052,340.644 846.576,375.14 C855.407,377.085 864.463,379.125 872.007,384.143 C879.5519999999999,389.15999999999997 885.3629999999999,397.894 884.314,406.943 C883.327,415.464 876.749,422.15500000000003 870.087,427.494 C854.672,439.846 837.336,447.581 818.88,454.005z"></path></g><g class="snow20prop3_0zf000_0zf000_0zf000" opacity="1" style="user-select: none; transform-origin: 0px 0px 0px; transform: matrix(1, 0, 0, 1, 1513.18, 753.948);" data-svg-origin="5.405098266599907 10.810209228515987"><path fill="rgb(113,95,94)" fill-opacity="1" d="M0 0 M2.406,0.25 C2.406,0.25 8.415,0.25 8.415,0.25 C8.415,0.25 9.011,17.756 9.011,17.756 C9.011,17.756 9.081,20.405 10.552,21.209 C10.552,21.209 6.698,20.245 5.577,20.727 C4.4559999999999995,21.209 1.161,21.369 0.25,20.646 C0.25,20.646 2.003,18.880000000000003 2.213,16.792 C2.213,16.792 2.406,0.25 2.406,0.25z"></path></g><g class="snow19prop3_-0zf014_0zf006_-0zf110" opacity="1" style="user-select: none; transform-origin: 0px 0px 0px; transform: matrix(1, 0, 0, 1, 1514.17, 753.767);" data-svg-origin="4.292997436519954 10.30219860839793"><path fill="rgb(143,124,121)" fill-opacity="1" d="M0 0 M8.346,19.704 C8.346,19.704 0.25,19.583 0.25,19.583 C0.25,19.583 1.2670000000000001,18.214 1.284,16.008 C1.284,16.008 2.225,20.354 2.476,14.378 C2.727,8.4 2.852,0.25 1.347,5.141 C1.347,5.141 1.425,0.432 1.425,0.432 C1.425,0.432 7.556,1.88 7.556,1.88 C7.556,1.88 7.556,3.148 7.556,3.148 C7.556,3.148 6.176,2.603999999999999 6.365,6.951 C6.5520000000000005,11.299 6.337000000000001,16.953 8.031,17.134 C8.031,17.134 8.346,19.704 8.346,19.704z"></path></g><g class="snow18prop4_-0zf006_0zf050_-0zf080" opacity="1" style="user-select: none; transform-origin: 0px 0px 0px; transform: matrix(1, 0, 0, 1, 1489.69, 655.46);" data-svg-origin="27.664705810550004 51.11119750976593"><path fill="rgb(87,153,143)" fill-opacity="1" d="M0 0 M19.836,100.655 C24.537,97.878 26.064,101.803 31.336,101.28 C34.269,100.051 36.446,101.352 40.582,101.126 C42.013,101.048 55.086,98.905 55.086,98.905 C55.086,98.905 43.836,72.155 43.836,72.155 C43.836,72.155 54.003,73.739 54.003,73.739 C54.003,73.739 40.836,47.905 40.836,47.905 C40.836,47.905 47.336,48.739 47.336,48.739 C47.336,48.739 40.63,23.394 40.63,23.394 C40.63,23.394 45.003,26.072 45.003,26.072 C45.003,26.072 37.168,0.25 37.168,0.25 C37.168,0.25 21.67,27.405 21.67,27.405 C21.67,27.405 26.549,24.252 26.549,24.252 C26.549,24.252 14.336,52.739 14.336,52.739 C14.336,52.739 20.953,49.973 20.953,49.973 C20.953,49.973 6.67,77.072 6.67,77.072 C6.67,77.072 16.259,71.12 16.259,71.12 C16.259,71.12 0.67,98.739 0.67,98.739 C0.67,98.739 0.25,101.973 8.961,99.03 C8.961,99.03 13.336,100.03 13.336,100.03 C13.336,100.03 19.543,100.82900000000001 19.836,100.655z"></path></g><g class="snow17prop4_0zf001_0zf031_0zf006" opacity="1" style="user-select: none; transform-origin: 0px 0px 0px; transform: matrix(1, 0, 0, 1, 1512.06, 677.75);" data-svg-origin="10.248593750000055 5.733901977538949"><path fill="rgb(70,126,116)" fill-opacity="1" d="M0 0 M4.177,1.962 C4.177,1.962 8.396,0.25 10.387,3.298 C12.378,6.346 18.258,1.105 18.258,1.105 C18.258,1.105 20.25,8.719 20.25,8.719 C20.25,8.719 17.783,3.2979999999999996 14.369,7.108 C14.369,7.108 9.533,7.489 7.258,6.346 C4.982,5.203 0.25,11.219 0.25,11.219 C0.25,11.219 4.177,1.962 4.177,1.962z"></path></g><g class="snow16prop4_0zf001_0zf031_0zf006" opacity="1" style="user-select: none; transform-origin: 0px 0px 0px; transform: matrix(1, 0, 0, 1, 1503.23, 724.615);" data-svg-origin="16.64409973145007 4.874593505859025"><path fill="rgb(70,126,116)" fill-opacity="1" d="M0 0 M2.72,1.965 C2.72,1.965 8.297,0.25 8.297,0.25 C8.297,0.25 12.297,1.5 12.297,1.5 C12.297,1.5 19.172,0.75 19.172,0.75 C19.172,0.75 26.297,3.5 26.297,3.5 C26.297,3.5 30.297,3.125 30.297,3.125 C30.297,3.125 33.047,9.25 33.047,9.25 C33.047,9.25 24.547,4 18.797,6.75 C13.047,9.5 8.125,2.104 0.25,6.354 C0.25,6.354 2.72,1.965 2.72,1.965z"></path></g><g class="snow15prop4_0zf001_0zf031_0zf006" opacity="1" style="user-select: none; transform-origin: 0px 0px 0px; transform: matrix(1, 0, 0, 1, 1508.23, 702.74);" data-svg-origin="12.269404907229955 3.739095458984025"><path fill="rgb(70,126,116)" fill-opacity="1" d="M0 0 M2.414,2.693 C2.414,2.693 6.547,2.75 6.547,2.75 C6.547,2.75 8.172,0.875 8.172,0.875 C8.172,0.875 11.172,1.375 11.172,1.375 C11.172,1.375 11.922,0.25 11.922,0.25 C11.922,0.25 22.297,0.625 22.297,0.625 C22.297,0.625 24.297,4.75 24.297,4.75 C24.297,4.75 18.047,1.25 12.297,3 C6.547000000000001,4.75 4.125,3.1029999999999998 0.25,7.228 C0.25,7.228 2.414,2.693 2.414,2.693z"></path></g><g class="highlight7" opacity="0.1" style="user-select: none; transform-origin: 0px 0px 0px; transform: matrix(1, 0, 0, 1, 263.523, 314.865);" data-svg-origin="174.17399096679696 130.000005493164"><path fill="rgb(255,255,255)" fill-opacity="1" d="M0 0 M0,0 C0,0 56,64 188,72 C320,80 430,84 266,146 C102,208 334,260 334,260 C334,260 54,202 152,158 C250,114 280,90 200,92 C120,94 8,56 0,0z"></path></g><g class="highlight8" opacity="0.1" style="user-select: none; transform-origin: 0px 0px 0px; transform: matrix(1, 0, 0, 1, 571.209, -0.429);" data-svg-origin="381.620498291016 285.82250891113296"><path fill="rgb(255,255,255)" fill-opacity="1" d="M0 0 M545.259,571.646 C511.543,560.923 475.276,555.73 446.66,533.274 C441.59400000000005,529.298 436.498,524.486 435.368,518.145 C433.363,506.889 444.34700000000004,497.90000000000003 454.285,492.249 C498.817,466.92400000000004 550.099,451.753 587.46,416.704 C595.5930000000001,409.074 603.215,400.046 605.376,389.106 C609.871,366.34 589.676,346.413 569.721,334.57 C536.7090000000001,314.978 499.37699999999995,303.92199999999997 462.025,295.068 C346.28299999999996,267.63 226.796,259.612 110.174,236.196 C79.623,230.061 49.007000000000005,222.77700000000002 20.879,209.366 C11.643,204.961 1.712,198.543 0.197,188.424 C-1.641,176.151 9.75,166.237 20.293,159.69 C98.97900000000001,110.82900000000001 197.92800000000003,100.348 272.869,45.917 C280.26000000000005,40.548 288.193,32.141 285.01,23.579 C282.566,17.001 274.818,14.379 267.988,12.77 C230.19,3.863999999999999 191.04,0.7130000000000001 152.304,3.459 C248.493,-4.237 348.57800000000003,3.294 445.059,3.294 C522.982,3.294 601.219,1.302 679.099,3.456 C636.436,19.791999999999998 584.9,25.39 539.781,37.265 C490.50299999999993,50.236000000000004 441.656,64.994 393.944,82.934 C365.1,93.779 336.236,106.042 312.392,125.564 C306.653,130.263 300.992,135.749 299.033,142.904 C296.382,152.591 301.404,163.08999999999997 308.987,169.676 C316.569,176.262 326.312,179.71 335.854,182.845 C462.59499999999997,224.49 599.413,236.69899999999998 719.061,295.707 C739.9780000000001,306.022 762.864,321.887 763.238,345.207 C763.575,366.287 745.131,382.401 727.704,394.267 C691.872,418.669 653.1949999999999,438.816 612.704,454.296 C574.53,468.892 535.7189999999999,477.481 500.998,500.24 C493.45099999999996,505.18600000000004 485.634,511.30199999999996 483.642,520.103 C481.848,528.031 485.404,536.407 490.906,542.388 C504.28000000000003,556.924 527.01,565.842 545.259,571.646z"></path></g><g class="snow14prop2_0zf010_0zf122_-0zf037" opacity="1" style="user-select: none; transform-origin: 0px 0px 0px; transform: matrix(1, 0, 0, 1, -14.441, 811.987);" data-svg-origin="972.249807373047 144.61570690918006"><path fill="rgb(228,243,241)" fill-opacity="1" d="M0 0 M1944.25,80.981 C1850.565,75.54599999999999 1743.881,61.588 1674.256,49.586 C1589.47,34.971999999999994 1294.72,19.562 1208.743,16.355 C776.9559999999999,0.25 399.85200000000003,33.81 257.648,52.359 C50.62700000000004,79.362 0.25,70.981 0.25,70.981 C0.25,70.981 4.25,288.981 4.25,288.981 C4.25,288.981 1944.25,282.981 1944.25,282.981 C1944.25,282.981 1944.25,80.981 1944.25,80.981z"></path></g><g class="snow13prop3_-0zf023_-0zf162_0zf171" opacity="1" style="user-select: none; transform-origin: 0px 0px 0px; transform: matrix(1, 0, 0, 1, 1614.65, 756.116);" data-svg-origin="9.434899902340021 16.686703857422003"><path fill="rgb(75,52,44)" fill-opacity="1" d="M0 0 M4.096,0.25 C4.096,0.25 14.812,0.25 14.812,0.25 C14.812,0.25 15.875,27.499 15.875,27.499 C15.875,27.499 16,31.624000000000002 18.625,32.874 C18.625,32.874 11.75,31.374000000000002 9.75,32.124 C7.75,32.874 1.875,33.123999999999995 0.25,31.999 C0.25,31.999 3.375,29.249 3.75,25.999 C3.75,25.999 4.096,0.25 4.096,0.25z"></path></g><g class="snow12prop4_0_0_0" opacity="1" style="user-select: none; transform-origin: 0px 0px 0px; transform: matrix(1, 0, 0, 1, 1554.52, 593.787);" data-svg-origin="63.57439086913996 84.522906005859"><path fill="rgb(68,132,120)" fill-opacity="1" d="M0 0 M67.26,163.196 C67.26,163.196 110.29299999999999,168.796 126.892,164.596 C126.892,164.596 100.203,138.679 100.928,130.236 C100.928,130.236 105.518,132.95 118.285,132.402 C118.285,132.402 100.92800000000001,114.256 98.754,97.37 C98.754,97.37 97.38300000000001,96.00800000000001 109.679,99.742 C109.679,99.742 89.16799999999999,81.02 91.627,68.423 C91.627,68.423 99.196,71.39 107.187,71.39 C107.187,71.39 80.138,32.664 80.138,32.664 C80.138,32.664 89.777,35.979 89.777,35.979 C89.777,35.979 69.847,0.25 69.847,0.25 C69.847,0.25 47.019,38.24 47.019,38.24 C47.019,38.24 55.547,36.397 55.547,36.397 C55.547,36.397 37.104,71.39 37.104,71.39 C37.104,71.39 49.833,69.629 49.833,69.629 C49.833,69.629 41.606,95.85600000000001 28.696,100.989 C28.696,100.989 43.257,102.144 46.33,98.878 C46.33,98.878 38.366,129.60199999999998 24.227,136.134 C24.227,136.134 39.019,133.474 42.707,131.141 C42.707,131.141 24.841,160.397 12.546,164.13 C0.25,167.862 67.26,163.196 67.26,163.196z"></path></g><g class="snow11prop4_-0zf031_0zf003_-0zf429" opacity="1" style="user-select: none; transform-origin: 0px 0px 0px; transform: matrix(1, 0, 0, 1, 1608.75, 585.942);" data-svg-origin="13.932205200200087 14.896607788086044"><path fill="rgb(195,223,223)" fill-opacity="1" d="M0 0 M3.109,28.28 C3.109,28.28 9.440999999999999,17.675 11.28,20.452 C13.117999999999999,23.229000000000003 16.386,24.997 17.816,22.472 C19.246,19.947000000000003 25.519,29.348 25.519,29.348 C25.519,29.348 27.621000000000002,29.543 27.007,26.765 C26.395000000000003,23.987000000000002 16.999,0.24999999999999978 14.139,2.018 C11.28,3.7859999999999996 0.25,25.755000000000003 3.109,28.28z"></path></g><g class="snow10prop4_-0zf031_0zf003_-0zf429" opacity="1" style="user-select: none; transform-origin: 0px 0px 0px; transform: matrix(1, 0, 0, 1, 1644.77, 636.404);" data-svg-origin="8.90279052734013 16.10370568847702"><path fill="rgb(195,223,223)" fill-opacity="1" d="M0 0 M0.25,3.772 C0.25,3.772 2.46,15.850999999999999 8.353,21.891 C14.245999999999999,27.93 17.562,31.957 16.824,24.911 C16.088,17.865000000000002 2.46,0.25 0.25,3.772z"></path></g><g class="snow9prop4_-0zf031_0zf003_-0zf429" opacity="1" style="user-select: none; transform-origin: 0px 0px 0px; transform: matrix(1, 0, 0, 1, 1641.91, 667.944);" data-svg-origin="13.321903076169974 13.133194213867"><path fill="rgb(195,223,223)" fill-opacity="1" d="M0 0 M7.603,0.879 C7.603,0.879 0.25,0.25 9.886,11.614 C19.522,22.98 23.207,26.017 23.207,26.017 C23.207,26.017 26.392000000000003,23.768 7.603,0.879z"></path></g><g class="snow8prop4_0zf469_0zf320_-0zf608" opacity="1" style="user-select: none; transform-origin: 0px 0px 0px; transform: matrix(1, 0, 0, 1, 1648.82, 641.939);" data-svg-origin="8.535590820310063 11.535395751953047"><path fill="rgb(255,255,255)" fill-opacity="1" d="M0 0 M0.25,0.25 C0.25,0.25 7.89,17.205 12.173,22.819 C12.173,22.819 16.824,15.349 0.25,0.25z"></path></g><g class="snow7prop4_0zf469_0zf320_-0zf608" opacity="1" style="user-select: none; transform-origin: 0px 0px 0px; transform: matrix(1, 0, 0, 1, 1653.95, 674.172);" data-svg-origin="6.787991333010041 10.019299438476992"><path fill="rgb(255,255,255)" fill-opacity="1" d="M0 0 M0.25,0.25 C0.25,0.25 4.175,12.518 11.17,19.788 C11.17,19.788 13.329,13.722 0.25,0.25z"></path></g><g class="snow6prop3_0zf009_-0zf045_0zf016" opacity="1" style="user-select: none; transform-origin: 0px 0px 0px; transform: matrix(1, 0, 0, 1, 1616.4, 755.834);" data-svg-origin="7.466195678709937 15.896697631836105"><path fill="rgb(113,86,85)" fill-opacity="1" d="M0 0 M14.688,30.531 C14.688,30.531 0.25,30.344 0.25,30.344 C0.25,30.344 2.064,28.212 2.095,24.778 C2.095,24.778 3.7729999999999997,31.543999999999997 4.22,22.24 C4.667,12.935999999999998 4.891,0.25 2.207,7.862 C2.207,7.862 2.346,0.532 2.346,0.532 C2.346,0.532 13.28,2.788 13.28,2.788 C13.28,2.788 13.28,4.76 13.28,4.76 C13.28,4.76 10.818999999999999,3.914999999999999 11.155,10.681 C11.491,17.448 11.106,26.25 14.126,26.531 C14.126,26.531 14.688,30.531 14.688,30.531z"></path></g><g class="snow5prop4_0zf469_0zf320_-0zf608" opacity="1" style="user-select: none; transform-origin: 0px 0px 0px; transform: matrix(1, 0, 0, 1, 1621.36, 585.235);" data-svg-origin="8.192688598630184 16.097199096680015"><path fill="rgb(255,255,255)" fill-opacity="1" d="M0 0 M1.785,2.111 C1.785,2.111 0.25,8.576 5.264,12.873 C10.279,17.169 13.165,29.441 13.165,29.441 C13.165,29.441 16.126,31.944000000000003 14.654,26.858 C14.654,26.858 6.224,0.2500000000000002 1.785,2.111z"></path></g><g class="snow4prop4_0zf001_-0zf040_0zf049" opacity="1" style="user-select: none; transform-origin: 0px 0px 0px; transform: matrix(1, 0, 0, 1, 1604.95, 626.201);" data-svg-origin="18.97509460448987 6.822605346680007"><path fill="rgb(56,119,107)" fill-opacity="1" d="M0 0 M5.118,3.983 C5.118,3.983 16.194,4.047 16.194,4.047 C16.194,4.047 16.194,0.731 16.194,0.731 C16.194,0.731 22.234,3.445 22.234,3.445 C22.234,3.445 29.709,0.25 29.709,0.25 C29.709,0.25 37.695,11.887 37.695,11.887 C37.695,11.887 31.414,3.4449999999999994 26.824,7.967 C22.234,12.491 6.29,1.6349999999999998 0.25,13.395 C0.25,13.395 5.118,3.983 5.118,3.983z"></path></g><g class="snow3prop4_0zf001_-0zf040_0zf049" opacity="1" style="user-select: none; transform-origin: 0px 0px 0px; transform: matrix(1, 0, 0, 1, 1598.67, 689.099);" data-svg-origin="28.87829406738001 7.63650415039092"><path fill="rgb(56,119,107)" fill-opacity="1" d="M0 0 M2.183,3.566 C2.183,3.566 10.397,0.551 10.397,0.551 C10.397,0.551 25.133,4.47 25.133,4.47 C25.133,4.47 38.904,0.25 38.904,0.25 C38.904,0.25 46.634,2.058 46.634,2.058 C46.634,2.058 54.607,2.058 54.607,2.058 C54.607,2.058 54.607,6.582000000000001 57.505,12.31 C57.505,12.31 42.044,2.3600000000000003 29.482,8.692 C16.92,15.024000000000001 11.121,1.4559999999999995 0.25,10.802 C0.25,10.802 2.183,3.566 2.183,3.566z"></path></g><g class="snow2prop4_0zf001_-0zf040_0zf049" opacity="1" style="user-select: none; transform-origin: 0px 0px 0px; transform: matrix(1, 0, 0, 1, 1593.69, 719.854);" data-svg-origin="32.33670288086 10.049198242187913"><path fill="rgb(56,119,107)" fill-opacity="1" d="M0 0 M3.536,5.074 C3.536,5.074 15.373,2.058 15.373,2.058 C15.373,2.058 32.525,4.169 32.525,4.169 C32.525,4.169 44.604,0.25 44.604,0.25 C44.604,0.25 61.757,4.169 61.757,4.169 C61.757,4.169 61.757000000000005,7.183999999999999 64.414,11.104 C64.414,11.104 55.475,0.5510000000000002 32.767,10.2 C10.058000000000003,19.848 22.234,1.4559999999999995 0.25,10.2 C0.25,10.2 3.536,5.074 3.536,5.074z"></path></g><g class="snow1prop4_0zf001_-0zf040_0zf049" opacity="1" style="user-select: none; transform-origin: 0px 0px 0px; transform: matrix(1, 0, 0, 1, 1600.97, 660.304);" data-svg-origin="24.267197875979946 7.511093994140992"><path fill="rgb(56,119,107)" fill-opacity="1" d="M0 0 M3.027,2.963 C3.027,2.963 14.503,3.567 14.503,3.567 C14.503,3.567 19.335,1.154 19.335,1.154 C19.335,1.154 24.89,3.266 24.89,3.266 C24.89,3.266 32.38,0.25 32.38,0.25 C32.38,0.25 37.936,2.36 37.936,2.36 C37.936,2.36 44.821,1.757 44.821,1.757 C44.821,1.757 45.137,7.535 48.278,14.772 C48.278,14.772 39.869,4.4719999999999995 27.065,7.486 C14.261000000000001,10.501999999999999 12.087,3.8680000000000003 0.25,12.01 C0.25,12.01 3.027,2.963 3.027,2.963z"></path></g></g></g></g></svg>