<?xml version="1.0" standalone="no"?>
<svg xmlns="http://www.w3.org/2000/svg" viewBox="0 0 300 220" width="300" height="220" preserveAspectRatio="xMidYMid meet" style="width: 100%; height: 100%;"><defs></defs><g><g class="shadow3" opacity="0.07" style="user-select: none; transform-origin: 0px 0px 0px; transform: matrix(1, 0, 0, 1, 157.394, 182.24);" data-svg-origin="71.30250268554698 16.123967895508002"><path fill="rgb(0,0,0)" fill-opacity="1" d="M0 0 M0,24.008 C0,32.739999999999995 33.788,32.242 63.239,32.242 C92.69,32.242 142.607,24.544 142.607,15.811 C142.607,7.077999999999999 118.732,-0.001 89.282,-0.001 C59.830999999999996,-0.001 0,15.276 0,24.008z"></path></g><g class="bag4prop1_0_0_0" opacity="1" style="user-select: none; transform-origin: 0px 0px 0px; transform: matrix(1, 0, 0, 1, -0.944, -14.518);" data-svg-origin="137.575698608398 122.423212402344"><path fill="rgb(184,223,172)" fill-opacity="1" d="M0 0 M230.877,222.18 C245.138,217.84 261.26,211.639 271.181,200.478 C274.39799999999997,196.859 274.901,189.93699999999998 273.661,158.314 C272.914,139.259 268.081,86.387 242.038,53.524 C199.822,0.25 131.893,4.741999999999997 102.583,47.659 C77.404,84.52799999999999 66.696,102.15800000000002 46.379,120.049 C16.253999999999998,146.577 0.25,166.327 0.967,185.695 C1.866,209.975 11.113,214.653 35.588,221.665 C115.62200000000001,244.596 207.613,229.26000000000002 230.877,222.18z"></path></g><g class="shadow2" opacity="0.07" style="user-select: none; transform-origin: 0px 0px 0px; transform: matrix(1, 0, 0, 1, 0.21, 145.099);" data-svg-origin="136.672247924805 36.61975000000001"><path fill="rgb(0,0,0)" fill-opacity="1" d="M0 0 M260.726,32.181 C250.635,43.18899999999999 230.343,52.642999999999994 212.361,58.224 C189.137,65.431 107.092,74.52199999999999 33.535,53.506 C5.207999999999995,45.412 2.061,34.172 1.611,17.086 C-1.985,26.977999999999998 0.7119999999999997,42.265 7.007,49.909 C12.262,56.29 26.562,60.193999999999996 35.783,62.498 C114.918,82.283 206.345,70.001 229.642,63.034 C243.924,58.762 260.844,51.416000000000004 270.49,40.017 C275.435,34.172000000000004 272.497,16.327 272.288,0 C272.022,8.566 267.547,24.740999999999996 260.726,32.181z"></path></g><g class="shadow1" opacity="0.07" style="user-select: none; transform-origin: 0px 0px 0px; transform: matrix(1, 0, 0, 1, 196.034, 131.674);" data-svg-origin="20.736996093750008 10.929210449219"><path fill="rgb(0,0,0)" fill-opacity="1" d="M0 0 M8.205,9.496 C8.205,9.496 21.619,11.072999999999999 41.475,0.001 C41.475,0.001 19.988,13.915999999999999 13.211,14.293 C13.211,14.293 20.381,15.657 24.101,21.858 C24.101,21.858 7.36,14.417000000000002 0,19.201 C0,19.201 8.205,9.496 8.205,9.496z"></path></g><g class="bag3prop1_0zf003_-0zf018_-0zf030" opacity="1" style="user-select: none; transform-origin: 0px 0px 0px; transform: matrix(1, 0, 0, 1, 39.703, 16.327);" data-svg-origin="88.781298706055 71.1023060302734"><path fill="rgb(194,228,183)" fill-opacity="1" d="M0 0 M9.329,119.329 C16.523,105.39099999999999 27.479,98.97099999999999 40.353,84.258 C56.09,66.273 56.540000000000006,64.024 67.331,47.838 C99.05600000000001,0.25 144.965,17.098 162.327,53.682 C177.311,85.256 171.524,118.94999999999999 164.9,128.771 C158.241,138.646 111.43199999999999,141.954 70.478,140.911 C31.248999999999995,139.912 0.25,136.91899999999998 9.329,119.329z"></path></g><g class="bag2prop1_0zf002_-0zf002_-0zf057" opacity="1" style="user-select: none; transform-origin: 0px 0px 0px; transform: matrix(1, 0, 0, 1, 55.259, 139.003);" data-svg-origin="69.536394897461 9.708898803711008"><path fill="rgb(202,232,194)" fill-opacity="1" d="M0 0 M138.104,6.545 C138.822,13.003 116.057,19.168000000000003 61.218,17.786 C7.712000000000003,16.437 0.25,10.754 0.967,4.297 C1.417,0.25 27.945000000000007,2.4979999999999998 68.861,2.948 C112.932,3.433 137.65400000000002,2.498 138.104,6.545z"></path></g><g class="bag1prop1_0zf003_-0zf009_-0zf026" opacity="1" style="user-select: none; transform-origin: 0px 0px 0px; transform: matrix(1, 0, 0, 1, 56.876, 157.746);" data-svg-origin="65.670890258789 4.817400268554991"><path fill="rgb(193,227,182)" fill-opacity="1" d="M0 0 M131.092,1.74 C131.092,3.23 101.802,9.384 65.671,9.384 C29.540000000000006,9.384 0.25,3.23 0.25,1.74 C0.25,0.25 29.540000000000006,3.988 65.671,3.988 C101.802,3.988 131.092,0.25 131.092,1.74z"></path></g></g></svg>