<?xml version="1.0" standalone="no"?>
<svg xmlns="http://www.w3.org/2000/svg" viewBox="0 0 424 715" width="424" height="715" preserveAspectRatio="xMidYMid meet" style="width: 100%; height: 100%;"><defs></defs><g><g class="chairside2prop2" opacity="1" style="user-select: none; transform-origin: 0px 0px 0px; transform: matrix(1, 0, 0, 1, 12.827, 431.432);" data-svg-origin="206.039500854492 141.99323193359396"><path fill="rgb(98,69,44)" fill-opacity="1" d="M0 0 M410.999,272.82 C410.999,272.82 396.468,191.218 396.468,191.218 C395.61400000000003,186.875 395.17699999999996,184 394.669,181.118 C394.669,181.118 362.454,0.25 362.454,0.25 C362.454,0.25 350.648,0.25 350.648,0.25 C350.648,0.25 377.737,178.885 377.737,178.885 C377.737,178.885 51.251,178.885 51.251,178.885 C51.251,178.885 106.984,0.25 106.984,0.25 C106.984,0.25 96.755,0.25 96.755,0.25 C96.755,0.25 1.738,270.378 1.738,270.378 C0.25,274.858 2.476,279.76300000000003 6.708,281.336 C10.940999999999999,282.91 15.579,280.554 17.065,276.077 C17.065,276.077 45.243,195.97 45.243,195.97 C45.243,195.97 380.78,195.97 380.78,195.97 C380.78,195.97 395.034,276.003 395.034,276.003 C395.866,280.669 400.11199999999997,283.73699999999997 404.522,282.856 C408.929,281.978 411.831,277.484 410.999,272.82z"></path></g><g class="chairside1prop1" opacity="1" style="user-select: none; transform-origin: 0px 0px 0px; transform: matrix(1, 0, 0, 1, -2.974, -3.008);" data-svg-origin="210.26319982910198 223.956135375977"><path fill="rgb(238,161,33)" fill-opacity="1" d="M0 0 M355.231,447.662 C355.231,447.662 388.463,447.662 388.463,447.662 C404.281,447.662 417.849,435.662 418.997,419.887 C420.277,402.295 406.379,387.622 389.059,387.622 C389.059,387.622 135.182,387.622 135.182,387.622 C135.182,387.622 62.415,26.873 62.415,26.873 C59.012,10.647000000000002 43.098,0.25 26.874,3.652 C10.646999999999998,7.054 0.25,22.968000000000004 3.652,39.194 C4.565,43.72 5.478,48.246 6.391,52.773 C8.829,64.861 11.267999999999999,76.94900000000001 13.706,89.037 C17.221,106.465 20.737,123.892 24.252,141.32 C28.396,161.864 32.54,182.40699999999998 36.684,202.951 C36.684,202.951 49.657,267.264 49.657,267.264 C53.712999999999994,287.371 57.769000000000005,307.48 61.825,327.588 C65.165,344.14500000000004 68.50399999999999,360.702 71.844,377.258 C74.01899999999999,388.03999999999996 76.194,398.821 78.369,409.603 C80.493,420.135 83.258,433.608 92.711,440.217 C97.082,443.272 102.56400000000001,443.77500000000003 107.745,443.795 C116.82300000000001,443.83000000000004 125.886,443.708 134.962,443.858 C143.385,444.004 151.807,444.14799999999997 160.23,444.294 C170.641,444.474 181.052,444.654 191.463,444.834 C202.971,445.032 214.47799999999998,445.231 225.986,445.43 C237.69899999999998,445.632 249.412,445.835 261.125,446.037 C272.15,446.227 283.176,446.418 294.202,446.608 C303.648,446.771 313.095,446.934 322.543,447.098 C329.51800000000003,447.218 336.495,447.339 343.471,447.459 C347.085,447.521 350.699,447.584 354.312,447.646 C354.619,447.651 354.924,447.657 355.231,447.662z"></path></g></g></svg>